<svg width="49" height="49" viewBox="0 0 49 49" fill="none" xmlns="http://www.w3.org/2000/svg">
    <path d="M10.6221 30.3364V25.9154H6.43643C5.55277 25.9154 4.83643 25.199 4.83643 24.3154V7.93643C4.83643 7.05277 5.55277 6.33643 6.43643 6.33643H30.2364C31.1201 6.33643 31.8364 7.05277 31.8364 7.93643V24.3154C31.8364 25.199 31.1201 25.9154 30.2364 25.9154H16.4079L10.6221 30.3364Z" fill="url(#paint0_linear_6759_39954)"/>
    <g filter="url(#filter0_bi_6759_39954)">
        <mask id="path-2-inside-1_6759_39954" fill="white">
            <path d="M38.0507 42.3364V37.9154H42.2364C43.1201 37.9154 43.8364 37.199 43.8364 36.3154V19.9364C43.8364 19.0528 43.1201 18.3364 42.2364 18.3364H18.4364C17.5528 18.3364 16.8364 19.0528 16.8364 19.9364V36.3154C16.8364 37.199 17.5528 37.9154 18.4364 37.9154H32.265L38.0507 42.3364Z"/>
        </mask>
        <path d="M38.0507 42.3364V37.9154H42.2364C43.1201 37.9154 43.8364 37.199 43.8364 36.3154V19.9364C43.8364 19.0528 43.1201 18.3364 42.2364 18.3364H18.4364C17.5528 18.3364 16.8364 19.0528 16.8364 19.9364V36.3154C16.8364 37.199 17.5528 37.9154 18.4364 37.9154H32.265L38.0507 42.3364Z" fill="url(#paint1_linear_6759_39954)" fill-opacity="0.64"/>
        <path d="M38.0507 37.9154V37.7154H37.8507V37.9154H38.0507ZM38.0507 42.3364L37.9293 42.4953C37.9897 42.5415 38.0712 42.5494 38.1394 42.5157C38.2076 42.482 38.2507 42.4125 38.2507 42.3364H38.0507ZM32.265 37.9154L32.3864 37.7565L32.3327 37.7154H32.265V37.9154ZM37.8507 37.9154V42.3364H38.2507V37.9154H37.8507ZM38.1721 42.1775L32.3864 37.7565L32.1436 38.0743L37.9293 42.4953L38.1721 42.1775ZM32.265 37.7154H18.4364V38.1154H32.265V37.7154ZM17.0364 36.3154V19.9364H16.6364V36.3154H17.0364ZM18.4364 18.5364H42.2364V18.1364H18.4364V18.5364ZM43.6364 19.9364V36.3154H44.0364V19.9364H43.6364ZM42.2364 37.7154H38.0507V38.1154H42.2364V37.7154ZM43.6364 36.3154C43.6364 37.0886 43.0096 37.7154 42.2364 37.7154V38.1154C43.2305 38.1154 44.0364 37.3095 44.0364 36.3154H43.6364ZM42.2364 18.5364C43.0096 18.5364 43.6364 19.1632 43.6364 19.9364H44.0364C44.0364 18.9423 43.2305 18.1364 42.2364 18.1364V18.5364ZM17.0364 19.9364C17.0364 19.1632 17.6632 18.5364 18.4364 18.5364V18.1364C17.4423 18.1364 16.6364 18.9423 16.6364 19.9364H17.0364ZM18.4364 37.7154C17.6632 37.7154 17.0364 37.0886 17.0364 36.3154H16.6364C16.6364 37.3095 17.4423 38.1154 18.4364 38.1154V37.7154Z" fill="url(#paint2_linear_6759_39954)" mask="url(#path-2-inside-1_6759_39954)"/>
    </g>
    <defs>
        <filter id="filter0_bi_6759_39954" x="12.5724" y="14.0724" width="35.528" height="32.528" filterUnits="userSpaceOnUse" color-interpolation-filters="sRGB">
            <feFlood flood-opacity="0" result="BackgroundImageFix"/>
            <feGaussianBlur in="BackgroundImageFix" stdDeviation="2.132"/>
            <feComposite in2="SourceAlpha" operator="in" result="effect1_backgroundBlur_6759_39954"/>
            <feBlend mode="normal" in="SourceGraphic" in2="effect1_backgroundBlur_6759_39954" result="shape"/>
            <feColorMatrix in="SourceAlpha" type="matrix" values="0 0 0 0 0 0 0 0 0 0 0 0 0 0 0 0 0 0 127 0" result="hardAlpha"/>
            <feOffset dy="1.6"/>
            <feGaussianBlur stdDeviation="1.6"/>
            <feComposite in2="hardAlpha" operator="arithmetic" k2="-1" k3="1"/>
            <feColorMatrix type="matrix" values="0 0 0 0 1 0 0 0 0 1 0 0 0 0 1 0 0 0 0.08 0"/>
            <feBlend mode="normal" in2="shape" result="effect2_innerShadow_6759_39954"/>
        </filter>
        <linearGradient id="paint0_linear_6759_39954" x1="28.8364" y1="6.33643" x2="11.0508" y2="30.65" gradientUnits="userSpaceOnUse">
            <stop offset="0.561728" stop-color="#FD366E"/>
            <stop offset="1" stop-color="#FE9567"/>
        </linearGradient>
        <linearGradient id="paint1_linear_6759_39954" x1="14.9079" y1="14.547" x2="46.6185" y2="39.7229" gradientUnits="userSpaceOnUse">
            <stop stop-color="#FD366E" stop-opacity="0"/>
            <stop offset="0.5" stop-color="#FD366E" stop-opacity="0.64"/>
            <stop offset="1" stop-color="#FD366E" stop-opacity="0"/>
        </linearGradient>
        <linearGradient id="paint2_linear_6759_39954" x1="16.8364" y1="25.9154" x2="52.1528" y2="32.4512" gradientUnits="userSpaceOnUse">
            <stop stop-color="white" stop-opacity="0.08"/>
            <stop offset="1" stop-color="white" stop-opacity="0"/>
        </linearGradient>
    </defs>
</svg>
