<svg width="52" height="48" viewBox="0 0 52 48" fill="none" xmlns="http://www.w3.org/2000/svg">
    <g filter="url(#filter0_b_7190_4397)">
        <path d="M11.5377 27.0348C11.8515 26.3701 12.0085 26.0378 12.2491 25.7945C12.4619 25.5795 12.7207 25.4155 13.006 25.3149C13.3287 25.2012 13.6962 25.2012 14.4313 25.2012L37.5758 25.2012C38.3108 25.2012 38.6783 25.2012 39.0011 25.3149C39.2864 25.4155 39.5452 25.5795 39.7579 25.7945C39.9986 26.0378 40.1555 26.3701 40.4694 27.0348L44.2472 35.0348C44.9635 36.5517 45.3217 37.3102 45.221 37.9246C45.133 38.4613 44.8303 38.9391 44.3825 39.2478C43.8699 39.6012 43.0311 39.6012 41.3536 39.6012L10.6535 39.6012C8.97591 39.6012 8.13713 39.6012 7.62453 39.2478C7.17675 38.9391 6.87401 38.4613 6.78606 37.9246C6.68538 37.3102 7.04355 36.5517 7.75988 35.0348L11.5377 27.0348Z" fill="url(#paint0_linear_7190_4397)" fill-opacity="0.32"/>
        <path d="M11.6507 27.0881C11.9685 26.415 12.116 26.1068 12.338 25.8824C12.5374 25.6808 12.7801 25.5271 13.0475 25.4328C13.3452 25.3279 13.6869 25.3262 14.4313 25.3262L37.5758 25.3262C38.3201 25.3262 38.6618 25.3279 38.9595 25.4328C39.227 25.5271 39.4696 25.6808 39.6691 25.8824C39.8911 26.1068 40.0385 26.415 40.3563 27.0881L44.1341 35.0881C44.4933 35.8488 44.7589 36.4116 44.923 36.861C45.0871 37.3104 45.1427 37.6291 45.0976 37.9044C45.0152 38.4075 44.7313 38.8554 44.3116 39.1449C44.0819 39.3032 43.77 39.389 43.2935 39.4325C42.8171 39.476 42.1948 39.4762 41.3536 39.4762L10.6535 39.4762C9.81226 39.4762 9.18995 39.476 8.71351 39.4325C8.23706 39.389 7.92515 39.3032 7.69548 39.1449C7.27569 38.8554 6.99187 38.4075 6.90942 37.9044C6.86431 37.6291 6.91993 37.3104 7.08401 36.861C7.24809 36.4116 7.51371 35.8488 7.87291 35.0881L11.6507 27.0881Z" stroke="url(#paint1_linear_7190_4397)" stroke-width="0.25"/>
    </g>
    <g filter="url(#filter1_b_7190_4397)">
        <path d="M11.5377 17.4342C11.8515 16.7695 12.0085 16.4372 12.2491 16.1939C12.4619 15.9789 12.7207 15.8149 13.006 15.7143C13.3287 15.6006 13.6962 15.6006 14.4313 15.6006L37.5758 15.6006C38.3108 15.6006 38.6783 15.6006 39.0011 15.7143C39.2864 15.8149 39.5452 15.9789 39.7579 16.1939C39.9986 16.4372 40.1555 16.7695 40.4694 17.4342L44.2472 25.4342C44.9635 26.9511 45.3217 27.7096 45.221 28.324C45.133 28.8607 44.8303 29.3385 44.3825 29.6472C43.8699 30.0006 43.0311 30.0006 41.3536 30.0006L10.6535 30.0006C8.97591 30.0006 8.13713 30.0006 7.62453 29.6472C7.17675 29.3385 6.87401 28.8607 6.78606 28.324C6.68538 27.7096 7.04355 26.9511 7.75988 25.4342L11.5377 17.4342Z" fill="url(#paint2_linear_7190_4397)" fill-opacity="0.32"/>
        <path d="M11.6507 17.4875C11.9685 16.8145 12.116 16.5062 12.338 16.2819C12.5374 16.0802 12.7801 15.9265 13.0475 15.8322C13.3452 15.7273 13.6869 15.7256 14.4313 15.7256L37.5758 15.7256C38.3201 15.7256 38.6618 15.7273 38.9595 15.8322C39.227 15.9265 39.4696 16.0802 39.6691 16.2819C39.8911 16.5062 40.0385 16.8145 40.3563 17.4875L44.1341 25.4875C44.4933 26.2482 44.7589 26.811 44.923 27.2604C45.0871 27.7098 45.1427 28.0285 45.0976 28.3038C45.0152 28.807 44.7313 29.2549 44.3116 29.5443C44.0819 29.7026 43.77 29.7884 43.2935 29.8319C42.8171 29.8755 42.1948 29.8756 41.3536 29.8756L10.6535 29.8756C9.81226 29.8756 9.18995 29.8755 8.71351 29.8319C8.23706 29.7884 7.92515 29.7026 7.69548 29.5443C7.27569 29.2549 6.99187 28.807 6.90942 28.3038C6.86431 28.0285 6.91993 27.7098 7.08401 27.2604C7.24809 26.811 7.51371 26.2482 7.87291 25.4875L11.6507 17.4875Z" stroke="url(#paint3_linear_7190_4397)" stroke-width="0.25"/>
    </g>
    <g filter="url(#filter2_d_7190_4397)">
        <path d="M11.5377 7.83358C11.8515 7.16892 12.0085 6.83658 12.2491 6.59335C12.4619 6.3783 12.7207 6.21432 13.006 6.11375C13.3287 6 13.6962 6 14.4313 6L37.5758 6C38.3108 6 38.6783 6 39.0011 6.11375C39.2864 6.21432 39.5452 6.3783 39.7579 6.59335C39.9986 6.83658 40.1555 7.16892 40.4694 7.83358L44.2472 15.8336C44.9635 17.3505 45.3217 18.109 45.221 18.7234C45.133 19.2601 44.8303 19.7379 44.3825 20.0466C43.8699 20.4 43.0311 20.4 41.3536 20.4L10.6535 20.4C8.97591 20.4 8.13713 20.4 7.62453 20.0466C7.17675 19.7379 6.87401 19.2601 6.78606 18.7234C6.68538 18.109 7.04355 17.3505 7.75988 15.8336L11.5377 7.83358Z" fill="url(#paint4_linear_7190_4397)" shape-rendering="crispEdges"/>
    </g>
    <defs>
        <filter id="filter0_b_7190_4397" x="-1.23059" y="17.2012" width="54.4683" height="30.3999" filterUnits="userSpaceOnUse" color-interpolation-filters="sRGB">
            <feFlood flood-opacity="0" result="BackgroundImageFix"/>
            <feGaussianBlur in="BackgroundImageFix" stdDeviation="4"/>
            <feComposite in2="SourceAlpha" operator="in" result="effect1_backgroundBlur_7190_4397"/>
            <feBlend mode="normal" in="SourceGraphic" in2="effect1_backgroundBlur_7190_4397" result="shape"/>
        </filter>
        <filter id="filter1_b_7190_4397" x="-1.23059" y="7.60059" width="54.4683" height="30.3999" filterUnits="userSpaceOnUse" color-interpolation-filters="sRGB">
            <feFlood flood-opacity="0" result="BackgroundImageFix"/>
            <feGaussianBlur in="BackgroundImageFix" stdDeviation="4"/>
            <feComposite in2="SourceAlpha" operator="in" result="effect1_backgroundBlur_7190_4397"/>
            <feBlend mode="normal" in="SourceGraphic" in2="effect1_backgroundBlur_7190_4397" result="shape"/>
        </filter>
        <filter id="filter2_d_7190_4397" x="0.769409" y="2" width="50.4683" height="26.3999" filterUnits="userSpaceOnUse" color-interpolation-filters="sRGB">
            <feFlood flood-opacity="0" result="BackgroundImageFix"/>
            <feColorMatrix in="SourceAlpha" type="matrix" values="0 0 0 0 0 0 0 0 0 0 0 0 0 0 0 0 0 0 127 0" result="hardAlpha"/>
            <feOffset dy="2"/>
            <feGaussianBlur stdDeviation="3"/>
            <feComposite in2="hardAlpha" operator="out"/>
            <feColorMatrix type="matrix" values="0 0 0 0 0 0 0 0 0 0 0 0 0 0 0 0 0 0 0.08 0"/>
            <feBlend mode="normal" in2="BackgroundImageFix" result="effect1_dropShadow_7190_4397"/>
            <feBlend mode="normal" in="SourceGraphic" in2="effect1_dropShadow_7190_4397" result="shape"/>
        </filter>
        <linearGradient id="paint0_linear_7190_4397" x1="34.4012" y1="43.2012" x2="34.4012" y2="29.4012" gradientUnits="userSpaceOnUse">
            <stop stop-color="white" stop-opacity="0.64"/>
            <stop offset="0.438454" stop-color="white" stop-opacity="0.4"/>
            <stop offset="1" stop-color="white" stop-opacity="0"/>
            <stop offset="1" stop-color="white" stop-opacity="0"/>
        </linearGradient>
        <linearGradient id="paint1_linear_7190_4397" x1="5.45453" y1="33.2735" x2="43.4573" y2="44.1161" gradientUnits="userSpaceOnUse">
            <stop stop-color="white" stop-opacity="0.08"/>
            <stop offset="1" stop-color="white" stop-opacity="0"/>
        </linearGradient>
        <linearGradient id="paint2_linear_7190_4397" x1="34.4012" y1="33.6006" x2="34.4012" y2="19.8006" gradientUnits="userSpaceOnUse">
            <stop stop-color="white" stop-opacity="0.64"/>
            <stop offset="0.438454" stop-color="white" stop-opacity="0.4"/>
            <stop offset="1" stop-color="white" stop-opacity="0"/>
            <stop offset="1" stop-color="white" stop-opacity="0"/>
        </linearGradient>
        <linearGradient id="paint3_linear_7190_4397" x1="5.45453" y1="23.6729" x2="43.4573" y2="34.5155" gradientUnits="userSpaceOnUse">
            <stop stop-color="white" stop-opacity="0.08"/>
            <stop offset="1" stop-color="white" stop-opacity="0"/>
        </linearGradient>
        <linearGradient id="paint4_linear_7190_4397" x1="35.75" y1="6" x2="35.75" y2="20.25" gradientUnits="userSpaceOnUse">
            <stop stop-color="#FD366E" stop-opacity="0.32"/>
            <stop offset="0.423207" stop-color="#FD366E"/>
            <stop offset="1" stop-color="#FD5E6B"/>
        </linearGradient>
    </defs>
</svg>
