<svg width="48" height="48" viewBox="0 0 48 48" fill="none" xmlns="http://www.w3.org/2000/svg">
    <g filter="url(#filter0_bi_6759_39938)">
        <path d="M9.53766 27.0348C9.85153 26.3701 10.0085 26.0378 10.2491 25.7945C10.4619 25.5795 10.7207 25.4155 11.006 25.3149C11.3287 25.2012 11.6962 25.2012 12.4313 25.2012L35.5758 25.2012C36.3108 25.2012 36.6783 25.2012 37.0011 25.3149C37.2864 25.4155 37.5452 25.5795 37.7579 25.7945C37.9986 26.0378 38.1555 26.3701 38.4694 27.0348L42.2472 35.0348C42.9635 36.5517 43.3217 37.3102 43.221 37.9246C43.133 38.4613 42.8303 38.9391 42.3825 39.2478C41.8699 39.6012 41.0311 39.6012 39.3536 39.6012L8.65347 39.6012C6.97591 39.6012 6.13713 39.6012 5.62453 39.2478C5.17675 38.9391 4.87401 38.4613 4.78606 37.9246C4.68538 37.3102 5.04355 36.5517 5.75988 35.0348L9.53766 27.0348Z" fill="url(#paint0_linear_6759_39938)" fill-opacity="0.64"/>
        <path d="M9.65069 27.0881C9.96853 26.415 10.116 26.1068 10.338 25.8824C10.5374 25.6808 10.7801 25.5271 11.0475 25.4328C11.3452 25.3279 11.6869 25.3262 12.4313 25.3262L35.5758 25.3262C36.3201 25.3262 36.6618 25.3279 36.9595 25.4328C37.227 25.5271 37.4696 25.6808 37.6691 25.8824C37.8911 26.1068 38.0385 26.415 38.3563 27.0881L42.1341 35.0881C42.4933 35.8488 42.7589 36.4116 42.923 36.861C43.0871 37.3104 43.1427 37.6291 43.0976 37.9044C43.0152 38.4075 42.7313 38.8554 42.3116 39.1449C42.0819 39.3032 41.77 39.389 41.2935 39.4325C40.8171 39.476 40.1948 39.4762 39.3536 39.4762L8.65347 39.4762C7.81226 39.4762 7.18995 39.476 6.71351 39.4325C6.23706 39.389 5.92515 39.3032 5.69548 39.1449C5.27569 38.8554 4.99187 38.4075 4.90942 37.9044C4.86431 37.6291 4.91993 37.3104 5.08401 36.861C5.24809 36.4116 5.51371 35.8488 5.87291 35.0881L9.65069 27.0881Z" stroke="url(#paint1_linear_6759_39938)" stroke-width="0.25"/>
    </g>
    <g filter="url(#filter1_bi_6759_39938)">
        <path d="M9.53766 17.4342C9.85153 16.7695 10.0085 16.4372 10.2491 16.1939C10.4619 15.9789 10.7207 15.8149 11.006 15.7143C11.3287 15.6006 11.6962 15.6006 12.4313 15.6006L35.5758 15.6006C36.3108 15.6006 36.6783 15.6006 37.0011 15.7143C37.2864 15.8149 37.5452 15.9789 37.7579 16.1939C37.9986 16.4372 38.1555 16.7695 38.4694 17.4342L42.2472 25.4342C42.9635 26.9511 43.3217 27.7096 43.221 28.324C43.133 28.8607 42.8303 29.3385 42.3825 29.6472C41.8699 30.0006 41.0311 30.0006 39.3536 30.0006L8.65347 30.0006C6.97591 30.0006 6.13713 30.0006 5.62453 29.6472C5.17675 29.3385 4.87401 28.8607 4.78606 28.324C4.68538 27.7096 5.04355 26.9511 5.75988 25.4342L9.53766 17.4342Z" fill="url(#paint2_linear_6759_39938)" fill-opacity="0.64"/>
        <path d="M9.65069 17.4875C9.96853 16.8145 10.116 16.5062 10.338 16.2819C10.5374 16.0802 10.7801 15.9265 11.0475 15.8322C11.3452 15.7273 11.6869 15.7256 12.4313 15.7256L35.5758 15.7256C36.3201 15.7256 36.6618 15.7273 36.9595 15.8322C37.227 15.9265 37.4696 16.0802 37.6691 16.2819C37.8911 16.5062 38.0385 16.8145 38.3563 17.4875L42.1341 25.4875C42.4933 26.2482 42.7589 26.811 42.923 27.2604C43.0871 27.7098 43.1427 28.0285 43.0976 28.3038C43.0152 28.807 42.7313 29.2549 42.3116 29.5443C42.0819 29.7026 41.77 29.7884 41.2935 29.8319C40.8171 29.8755 40.1948 29.8756 39.3536 29.8756L8.65347 29.8756C7.81226 29.8756 7.18995 29.8755 6.71351 29.8319C6.23706 29.7884 5.92515 29.7026 5.69548 29.5443C5.27569 29.2549 4.99187 28.807 4.90942 28.3038C4.86431 28.0285 4.91993 27.7098 5.08401 27.2604C5.24809 26.811 5.51371 26.2482 5.87291 25.4875L9.65069 17.4875Z" stroke="url(#paint3_linear_6759_39938)" stroke-width="0.25"/>
    </g>
    <path d="M9.53766 7.83358C9.85153 7.16892 10.0085 6.83658 10.2491 6.59335C10.4619 6.3783 10.7207 6.21432 11.006 6.11375C11.3287 6 11.6962 6 12.4313 6L35.5758 6C36.3108 6 36.6783 6 37.0011 6.11375C37.2864 6.21432 37.5452 6.3783 37.7579 6.59335C37.9986 6.83658 38.1555 7.16892 38.4694 7.83358L42.2472 15.8336C42.9635 17.3505 43.3217 18.109 43.221 18.7234C43.133 19.2601 42.8303 19.7379 42.3825 20.0466C41.8699 20.4 41.0311 20.4 39.3536 20.4L8.65347 20.4C6.97591 20.4 6.13713 20.4 5.62453 20.0466C5.17675 19.7379 4.87401 19.2601 4.78606 18.7234C4.68538 18.109 5.04355 17.3505 5.75988 15.8336L9.53766 7.83358Z" fill="url(#paint4_linear_6759_39938)"/>
    <defs>
        <filter id="filter0_bi_6759_39938" x="-0.563924" y="19.8678" width="49.1349" height="25.0667" filterUnits="userSpaceOnUse" color-interpolation-filters="sRGB">
            <feFlood flood-opacity="0" result="BackgroundImageFix"/>
            <feGaussianBlur in="BackgroundImageFix" stdDeviation="2.66667"/>
            <feComposite in2="SourceAlpha" operator="in" result="effect1_backgroundBlur_6759_39938"/>
            <feBlend mode="normal" in="SourceGraphic" in2="effect1_backgroundBlur_6759_39938" result="shape"/>
            <feColorMatrix in="SourceAlpha" type="matrix" values="0 0 0 0 0 0 0 0 0 0 0 0 0 0 0 0 0 0 127 0" result="hardAlpha"/>
            <feOffset dy="2"/>
            <feGaussianBlur stdDeviation="2"/>
            <feComposite in2="hardAlpha" operator="arithmetic" k2="-1" k3="1"/>
            <feColorMatrix type="matrix" values="0 0 0 0 1 0 0 0 0 1 0 0 0 0 1 0 0 0 0.08 0"/>
            <feBlend mode="normal" in2="shape" result="effect2_innerShadow_6759_39938"/>
        </filter>
        <filter id="filter1_bi_6759_39938" x="-0.563924" y="10.2673" width="49.1349" height="25.0667" filterUnits="userSpaceOnUse" color-interpolation-filters="sRGB">
            <feFlood flood-opacity="0" result="BackgroundImageFix"/>
            <feGaussianBlur in="BackgroundImageFix" stdDeviation="2.66667"/>
            <feComposite in2="SourceAlpha" operator="in" result="effect1_backgroundBlur_6759_39938"/>
            <feBlend mode="normal" in="SourceGraphic" in2="effect1_backgroundBlur_6759_39938" result="shape"/>
            <feColorMatrix in="SourceAlpha" type="matrix" values="0 0 0 0 0 0 0 0 0 0 0 0 0 0 0 0 0 0 127 0" result="hardAlpha"/>
            <feOffset dy="2"/>
            <feGaussianBlur stdDeviation="2"/>
            <feComposite in2="hardAlpha" operator="arithmetic" k2="-1" k3="1"/>
            <feColorMatrix type="matrix" values="0 0 0 0 1 0 0 0 0 1 0 0 0 0 1 0 0 0 0.08 0"/>
            <feBlend mode="normal" in2="shape" result="effect2_innerShadow_6759_39938"/>
        </filter>
        <linearGradient id="paint0_linear_6759_39938" x1="8.46813" y1="25.2012" x2="9.77702" y2="52.6509" gradientUnits="userSpaceOnUse">
            <stop stop-color="#FD366E" stop-opacity="0"/>
            <stop offset="0.484375" stop-color="#FD366E" stop-opacity="0.64"/>
            <stop offset="1" stop-color="#FD366E" stop-opacity="0"/>
        </linearGradient>
        <linearGradient id="paint1_linear_6759_39938" x1="3.45453" y1="33.2735" x2="41.4573" y2="44.1161" gradientUnits="userSpaceOnUse">
            <stop stop-color="white" stop-opacity="0.08"/>
            <stop offset="1" stop-color="white" stop-opacity="0"/>
        </linearGradient>
        <linearGradient id="paint2_linear_6759_39938" x1="8.46813" y1="15.6006" x2="10.9451" y2="42.1243" gradientUnits="userSpaceOnUse">
            <stop stop-color="#FD366E" stop-opacity="0"/>
            <stop offset="0.484375" stop-color="#FD366E" stop-opacity="0.64"/>
            <stop offset="1" stop-color="#FD366E" stop-opacity="0"/>
        </linearGradient>
        <linearGradient id="paint3_linear_6759_39938" x1="3.45453" y1="23.6729" x2="41.4573" y2="34.5155" gradientUnits="userSpaceOnUse">
            <stop stop-color="white" stop-opacity="0.08"/>
            <stop offset="1" stop-color="white" stop-opacity="0"/>
        </linearGradient>
        <linearGradient id="paint4_linear_6759_39938" x1="33.75" y1="6" x2="33.75" y2="20.25" gradientUnits="userSpaceOnUse">
            <stop stop-color="#FD366E" stop-opacity="0.32"/>
            <stop offset="0.423207" stop-color="#FD366E"/>
            <stop offset="1" stop-color="#FD5E6B"/>
        </linearGradient>
    </defs>
</svg>
