<svg width="48" height="48" viewBox="0 0 48 48" fill="none" xmlns="http://www.w3.org/2000/svg">
    <g filter="url(#filter0_b_7190_4392)">
        <path fill-rule="evenodd" clip-rule="evenodd" d="M21.8188 25.3225C24.61 23.8758 26.5142 20.9846 26.5142 17.6538C26.5142 12.8745 22.5935 9 17.7571 9C12.9207 9 9 12.8745 9 17.6538C9 20.9661 10.8831 23.8438 13.6491 25.2984C13.3113 25.4172 12.9775 25.551 12.6486 25.6996C11.0471 26.4233 9.59192 27.484 8.36619 28.8212C7.14046 30.1583 6.16815 31.7458 5.50479 33.4929C4.84143 35.24 4.5 37.1125 4.5 39.0035H17.7H30.9C30.9 37.1125 30.5586 35.24 29.8952 33.4929C29.2318 31.7458 28.2595 30.1583 27.0338 28.8212C25.8081 27.484 24.3529 26.4233 22.7514 25.6996C22.4445 25.561 22.1335 25.4352 21.8188 25.3225Z" fill="url(#paint0_linear_7190_4392)"/>
    </g>
    <g filter="url(#filter1_bi_7190_4392)">
        <mask id="path-2-inside-1_7190_4392" fill="white">
            <path fill-rule="evenodd" clip-rule="evenodd" d="M34.7933 25.3004C37.271 23.7261 38.9122 20.9777 38.9122 17.8505C38.9122 12.9625 34.9024 9 29.9561 9C25.0098 9 21 12.9625 21 17.8505C21 20.9924 22.6566 23.7518 25.1538 25.3225C25.0466 25.3674 24.94 25.4139 24.8338 25.4619C23.1959 26.202 21.7076 27.2868 20.4541 28.6543C19.2005 30.0219 18.2061 31.6454 17.5276 33.4322C16.8492 35.219 16.5 37.1341 16.5 39.0681L30 39.0681H43.5C43.5 37.1341 43.1508 35.219 42.4724 33.4322C41.7939 31.6454 40.7995 30.0219 39.5459 28.6543C38.2924 27.2868 36.8041 26.202 35.1662 25.4619C35.0426 25.406 34.9183 25.3522 34.7933 25.3004Z"/>
        </mask>
        <path fill-rule="evenodd" clip-rule="evenodd" d="M34.7933 25.3004C37.271 23.7261 38.9122 20.9777 38.9122 17.8505C38.9122 12.9625 34.9024 9 29.9561 9C25.0098 9 21 12.9625 21 17.8505C21 20.9924 22.6566 23.7518 25.1538 25.3225C25.0466 25.3674 24.94 25.4139 24.8338 25.4619C23.1959 26.202 21.7076 27.2868 20.4541 28.6543C19.2005 30.0219 18.2061 31.6454 17.5276 33.4322C16.8492 35.219 16.5 37.1341 16.5 39.0681L30 39.0681H43.5C43.5 37.1341 43.1508 35.219 42.4724 33.4322C41.7939 31.6454 40.7995 30.0219 39.5459 28.6543C38.2924 27.2868 36.8041 26.202 35.1662 25.4619C35.0426 25.406 34.9183 25.3522 34.7933 25.3004Z" fill="url(#paint1_linear_7190_4392)" fill-opacity="0.32"/>
        <path d="M34.7933 25.3004L34.6861 25.1316L34.3613 25.3379L34.7168 25.4852L34.7933 25.3004ZM25.1538 25.3225L25.2312 25.5069L25.586 25.358L25.2603 25.1532L25.1538 25.3225ZM24.8338 25.4619L24.7514 25.2796H24.7514L24.8338 25.4619ZM20.4541 28.6543L20.3066 28.5192L20.4541 28.6543ZM17.5276 33.4322L17.3406 33.3612H17.3406L17.5276 33.4322ZM16.5 39.0681H16.3V39.2681H16.5L16.5 39.0681ZM30 39.0681L30 38.8681L30 39.0681ZM43.5 39.0681V39.2681H43.7V39.0681H43.5ZM42.4724 33.4322L42.2854 33.5032L42.4724 33.4322ZM39.5459 28.6543L39.6934 28.5192L39.5459 28.6543ZM35.1662 25.4619L35.0839 25.6441L35.1662 25.4619ZM38.7122 17.8505C38.7122 20.9057 37.109 23.592 34.6861 25.1316L34.9006 25.4692C37.433 23.8601 39.1122 21.0497 39.1122 17.8505H38.7122ZM29.9561 9.2C34.7942 9.2 38.7122 13.0752 38.7122 17.8505H39.1122C39.1122 12.8498 35.0106 8.8 29.9561 8.8V9.2ZM21.2 17.8505C21.2 13.0752 25.118 9.2 29.9561 9.2V8.8C24.9016 8.8 20.8 12.8498 20.8 17.8505H21.2ZM25.2603 25.1532C22.8182 23.6172 21.2 20.9201 21.2 17.8505H20.8C20.8 21.0647 22.495 23.8865 25.0473 25.4918L25.2603 25.1532ZM25.0764 25.138C24.9676 25.1837 24.8593 25.2309 24.7514 25.2796L24.9161 25.6441C25.0207 25.5969 25.1257 25.5511 25.2312 25.5069L25.0764 25.138ZM24.7514 25.2796C23.0881 26.0312 21.5779 27.1324 20.3066 28.5192L20.6015 28.7895C21.8374 27.4412 23.3037 26.3727 24.9161 25.6441L24.7514 25.2796ZM20.3066 28.5192C19.0354 29.906 18.0278 31.5515 17.3406 33.3612L17.7146 33.5032C18.3843 31.7394 19.3655 30.1378 20.6015 28.7895L20.3066 28.5192ZM17.3406 33.3612C16.6535 35.171 16.3 37.1101 16.3 39.0681H16.7C16.7 37.158 17.0449 35.267 17.7146 33.5032L17.3406 33.3612ZM16.5 39.2681L30 39.2681L30 38.8681L16.5 38.8681L16.5 39.2681ZM30 39.2681H43.5V38.8681H30V39.2681ZM43.7 39.0681C43.7 37.1101 43.3465 35.171 42.6593 33.3612L42.2854 33.5032C42.9551 35.267 43.3 37.158 43.3 39.0681H43.7ZM42.6593 33.3612C41.9722 31.5515 40.9646 29.906 39.6934 28.5192L39.3985 28.7895C40.6345 30.1378 41.6157 31.7394 42.2854 33.5032L42.6593 33.3612ZM39.6934 28.5192C38.4221 27.1324 36.9119 26.0312 35.2486 25.2796L35.0839 25.6441C36.6963 26.3727 38.1626 27.4412 39.3985 28.7895L39.6934 28.5192ZM35.2486 25.2796C35.123 25.2229 34.9968 25.1682 34.8699 25.1156L34.7168 25.4852C34.8398 25.5361 34.9621 25.5891 35.0839 25.6441L35.2486 25.2796Z" fill="url(#paint2_linear_7190_4392)" mask="url(#path-2-inside-1_7190_4392)"/>
    </g>
    <defs>
        <filter id="filter0_b_7190_4392" x="-61.8333" y="-57.3333" width="159.067" height="162.67" filterUnits="userSpaceOnUse" color-interpolation-filters="sRGB">
            <feFlood flood-opacity="0" result="BackgroundImageFix"/>
            <feGaussianBlur in="BackgroundImageFix" stdDeviation="33.1667"/>
            <feComposite in2="SourceAlpha" operator="in" result="effect1_backgroundBlur_7190_4392"/>
            <feBlend mode="normal" in="SourceGraphic" in2="effect1_backgroundBlur_7190_4392" result="shape"/>
        </filter>
        <filter id="filter1_bi_7190_4392" x="12.2333" y="4.73333" width="35.5333" height="38.6014" filterUnits="userSpaceOnUse" color-interpolation-filters="sRGB">
            <feFlood flood-opacity="0" result="BackgroundImageFix"/>
            <feGaussianBlur in="BackgroundImageFix" stdDeviation="2.13333"/>
            <feComposite in2="SourceAlpha" operator="in" result="effect1_backgroundBlur_7190_4392"/>
            <feBlend mode="normal" in="SourceGraphic" in2="effect1_backgroundBlur_7190_4392" result="shape"/>
            <feColorMatrix in="SourceAlpha" type="matrix" values="0 0 0 0 0 0 0 0 0 0 0 0 0 0 0 0 0 0 127 0" result="hardAlpha"/>
            <feOffset dy="1.6"/>
            <feGaussianBlur stdDeviation="1.6"/>
            <feComposite in2="hardAlpha" operator="arithmetic" k2="-1" k3="1"/>
            <feColorMatrix type="matrix" values="0 0 0 0 1 0 0 0 0 1 0 0 0 0 1 0 0 0 0.08 0"/>
            <feBlend mode="normal" in2="shape" result="effect2_innerShadow_7190_4392"/>
        </filter>
        <linearGradient id="paint0_linear_7190_4392" x1="24.4512" y1="11.25" x2="4.88624" y2="38.9541" gradientUnits="userSpaceOnUse">
            <stop offset="0.546815" stop-color="#FD366E"/>
            <stop offset="1" stop-color="#FE9567"/>
        </linearGradient>
        <linearGradient id="paint1_linear_7190_4392" x1="20.0249" y1="9" x2="43.0191" y2="42.2127" gradientUnits="userSpaceOnUse">
            <stop stop-color="white" stop-opacity="0.4"/>
            <stop offset="0.432292" stop-color="white" stop-opacity="0.4"/>
            <stop offset="1" stop-color="white" stop-opacity="0"/>
        </linearGradient>
        <linearGradient id="paint2_linear_7190_4392" x1="16.707" y1="26.2015" x2="43.6912" y2="28.5924" gradientUnits="userSpaceOnUse">
            <stop stop-color="white" stop-opacity="0.08"/>
            <stop offset="1" stop-color="white" stop-opacity="0"/>
        </linearGradient>
    </defs>
</svg>
