<svg
        width="48"
        height="48"
        viewBox="0 0 48 48"
        fill="none"
        xmlns="http://www.w3.org/2000/svg">
    <g filter="url(#filter0_b_6759_39933)">
        <path
                fill-rule="evenodd"
                clip-rule="evenodd"
                d="M21.8188 25.3225C24.61 23.8758 26.5142 20.9846 26.5142 17.6538C26.5142 12.8745 22.5935 9 17.7571 9C12.9207 9 9 12.8745 9 17.6538C9 20.9661 10.8831 23.8438 13.6491 25.2984C13.3113 25.4172 12.9775 25.551 12.6486 25.6996C11.0471 26.4233 9.59192 27.484 8.36619 28.8212C7.14046 30.1583 6.16815 31.7458 5.50479 33.4929C4.84143 35.24 4.5 37.1125 4.5 39.0035H17.7H30.9C30.9 37.1125 30.5586 35.24 29.8952 33.4929C29.2318 31.7458 28.2595 30.1583 27.0338 28.8212C25.8081 27.484 24.3529 26.4233 22.7514 25.6996C22.4445 25.561 22.1335 25.4352 21.8188 25.3225Z"
                fill="url(#paint0_linear_6759_39933)" />
    </g>
    <g filter="url(#filter1_bi_6759_39933)">
        <mask id="path-2-inside-1_6759_39933" fill="white">
            <path
                    fill-rule="evenodd"
                    clip-rule="evenodd"
                    d="M34.7932 25.3005C37.271 23.7262 38.9122 20.9777 38.9122 17.8505C38.9122 12.9625 34.9024 9 29.9561 9C25.0098 9 21 12.9625 21 17.8505C21 20.9924 22.6567 23.7519 25.1539 25.3225C25.0467 25.3675 24.94 25.414 24.8338 25.462C23.1959 26.2021 21.7076 27.2869 20.4541 28.6544C19.2005 30.022 18.2061 31.6455 17.5276 33.4323C16.8492 35.2191 16.5 37.1342 16.5 39.0682L30 39.0682H43.5C43.5 37.1342 43.1508 35.2191 42.4724 33.4323C41.7939 31.6455 40.7995 30.022 39.5459 28.6544C38.2924 27.2869 36.8041 26.2021 35.1662 25.462C35.0425 25.4061 34.9182 25.3522 34.7932 25.3005Z" />
        </mask>
        <path
                fill-rule="evenodd"
                clip-rule="evenodd"
                d="M34.7932 25.3005C37.271 23.7262 38.9122 20.9777 38.9122 17.8505C38.9122 12.9625 34.9024 9 29.9561 9C25.0098 9 21 12.9625 21 17.8505C21 20.9924 22.6567 23.7519 25.1539 25.3225C25.0467 25.3675 24.94 25.414 24.8338 25.462C23.1959 26.2021 21.7076 27.2869 20.4541 28.6544C19.2005 30.022 18.2061 31.6455 17.5276 33.4323C16.8492 35.2191 16.5 37.1342 16.5 39.0682L30 39.0682H43.5C43.5 37.1342 43.1508 35.2191 42.4724 33.4323C41.7939 31.6455 40.7995 30.022 39.5459 28.6544C38.2924 27.2869 36.8041 26.2021 35.1662 25.462C35.0425 25.4061 34.9182 25.3522 34.7932 25.3005Z"
                fill="url(#paint1_linear_6759_39933)"
                fill-opacity="0.64" />
        <path
                d="M34.7932 25.3005L34.686 25.1316L34.3613 25.338L34.7167 25.4852L34.7932 25.3005ZM25.1539 25.3225L25.2313 25.5069L25.5861 25.3581L25.2604 25.1532L25.1539 25.3225ZM24.8338 25.462L24.7514 25.2797L24.8338 25.462ZM20.4541 28.6544L20.3066 28.5193L20.4541 28.6544ZM17.5276 33.4323L17.3406 33.3613H17.3406L17.5276 33.4323ZM16.5 39.0682H16.3V39.2682H16.5L16.5 39.0682ZM30 39.0682L30 38.8682L30 39.0682ZM43.5 39.0682V39.2682H43.7V39.0682H43.5ZM42.4724 33.4323L42.2854 33.5033L42.4724 33.4323ZM39.5459 28.6544L39.6934 28.5193L39.5459 28.6544ZM35.1662 25.462L35.2486 25.2797H35.2486L35.1662 25.462ZM38.7122 17.8505C38.7122 20.9058 37.109 23.5921 34.686 25.1316L34.9005 25.4693C37.4329 23.8602 39.1122 21.0497 39.1122 17.8505H38.7122ZM29.9561 9.2C34.7942 9.2 38.7122 13.0752 38.7122 17.8505H39.1122C39.1122 12.8498 35.0106 8.8 29.9561 8.8V9.2ZM21.2 17.8505C21.2 13.0752 25.118 9.2 29.9561 9.2V8.8C24.9016 8.8 20.8 12.8498 20.8 17.8505H21.2ZM25.2604 25.1532C22.8183 23.6173 21.2 20.9201 21.2 17.8505H20.8C20.8 21.0647 22.4951 23.8865 25.0474 25.4918L25.2604 25.1532ZM25.0765 25.1381C24.9677 25.1838 24.8593 25.231 24.7514 25.2797L24.9161 25.6442C25.0207 25.597 25.1258 25.5512 25.2313 25.5069L25.0765 25.1381ZM24.7514 25.2797C23.0881 26.0313 21.5779 27.1324 20.3066 28.5193L20.6015 28.7896C21.8374 27.4413 23.3037 26.3728 24.9161 25.6442L24.7514 25.2797ZM20.3066 28.5193C19.0354 29.9061 18.0278 31.5515 17.3406 33.3613L17.7146 33.5033C18.3843 31.7395 19.3655 30.1379 20.6015 28.7896L20.3066 28.5193ZM17.3406 33.3613C16.6535 35.1711 16.3 37.1102 16.3 39.0682H16.7C16.7 37.1581 17.0449 35.2671 17.7146 33.5033L17.3406 33.3613ZM16.5 39.2682L30 39.2682L30 38.8682L16.5 38.8682L16.5 39.2682ZM30 39.2682H43.5V38.8682H30V39.2682ZM43.7 39.0682C43.7 37.1102 43.3465 35.1711 42.6593 33.3613L42.2854 33.5033C42.9551 35.2671 43.3 37.1581 43.3 39.0682H43.7ZM42.6593 33.3613C41.9722 31.5515 40.9646 29.9061 39.6934 28.5193L39.3985 28.7896C40.6345 30.1379 41.6157 31.7395 42.2854 33.5033L42.6593 33.3613ZM39.6934 28.5193C38.4221 27.1324 36.9119 26.0313 35.2486 25.2797L35.0839 25.6442C36.6963 26.3728 38.1626 27.4413 39.3985 28.7896L39.6934 28.5193ZM35.2486 25.2797C35.123 25.2229 34.9967 25.1683 34.8698 25.1157L34.7167 25.4852C34.8397 25.5362 34.9621 25.5892 35.0839 25.6442L35.2486 25.2797Z"
                fill="url(#paint2_linear_6759_39933)"
                mask="url(#path-2-inside-1_6759_39933)" />
    </g>
    <defs>
        <filter
                id="filter0_b_6759_39933"
                x="-61.8333"
                y="-57.3333"
                width="159.067"
                height="162.67"
                filterUnits="userSpaceOnUse"
                color-interpolation-filters="sRGB">
            <feFlood flood-opacity="0" result="BackgroundImageFix" />
            <feGaussianBlur in="BackgroundImageFix" stdDeviation="33.1667" />
            <feComposite
                    in2="SourceAlpha"
                    operator="in"
                    result="effect1_backgroundBlur_6759_39933" />
            <feBlend
                    mode="normal"
                    in="SourceGraphic"
                    in2="effect1_backgroundBlur_6759_39933"
                    result="shape" />
        </filter>
        <filter
                id="filter1_bi_6759_39933"
                x="12.2333"
                y="4.73333"
                width="35.5333"
                height="38.6016"
                filterUnits="userSpaceOnUse"
                color-interpolation-filters="sRGB">
            <feFlood flood-opacity="0" result="BackgroundImageFix" />
            <feGaussianBlur in="BackgroundImageFix" stdDeviation="2.13333" />
            <feComposite
                    in2="SourceAlpha"
                    operator="in"
                    result="effect1_backgroundBlur_6759_39933" />
            <feBlend
                    mode="normal"
                    in="SourceGraphic"
                    in2="effect1_backgroundBlur_6759_39933"
                    result="shape" />
            <feColorMatrix
                    in="SourceAlpha"
                    type="matrix"
                    values="0 0 0 0 0 0 0 0 0 0 0 0 0 0 0 0 0 0 127 0"
                    result="hardAlpha" />
            <feOffset dy="1.6" />
            <feGaussianBlur stdDeviation="1.6" />
            <feComposite in2="hardAlpha" operator="arithmetic" k2="-1" k3="1" />
            <feColorMatrix
                    type="matrix"
                    values="0 0 0 0 1 0 0 0 0 1 0 0 0 0 1 0 0 0 0.08 0" />
            <feBlend
                    mode="normal"
                    in2="shape"
                    result="effect2_innerShadow_6759_39933" />
        </filter>
        <linearGradient
                id="paint0_linear_6759_39933"
                x1="24.4512"
                y1="11.25"
                x2="4.88624"
                y2="38.9541"
                gradientUnits="userSpaceOnUse">
            <stop offset="0.546815" stop-color="#FD366E" />
            <stop offset="1" stop-color="#FE9567" />
        </linearGradient>
        <linearGradient
                id="paint1_linear_6759_39933"
                x1="19.7192"
                y1="9"
                x2="42.0864"
                y2="41.9702"
                gradientUnits="userSpaceOnUse">
            <stop stop-color="#FD366E" stop-opacity="0" />
            <stop offset="0.484375" stop-color="#FD366E" stop-opacity="0.64" />
            <stop offset="1" stop-color="#FD366E" stop-opacity="0" />
        </linearGradient>
        <linearGradient
                id="paint2_linear_6759_39933"
                x1="16.707"
                y1="26.2015"
                x2="43.6912"
                y2="28.5924"
                gradientUnits="userSpaceOnUse">
            <stop stop-color="white" stop-opacity="0.08" />
            <stop offset="1" stop-color="white" stop-opacity="0" />
        </linearGradient>
    </defs>
</svg>