<svg width="1169" height="342" viewBox="0 0 1169 342" fill="none" xmlns="http://www.w3.org/2000/svg">
<rect y="1" width="572" height="340" rx="16" fill="#18181B"/>
<path opacity="0.5" d="M32.1378 132V131.233L35.0185 128.08C35.3565 127.71 35.6349 127.389 35.8537 127.116C36.0724 126.841 36.2344 126.582 36.3395 126.341C36.4474 126.097 36.5014 125.841 36.5014 125.574C36.5014 125.267 36.4276 125.001 36.2798 124.777C36.1349 124.553 35.9361 124.379 35.6832 124.257C35.4304 124.135 35.1463 124.074 34.831 124.074C34.4957 124.074 34.2031 124.143 33.9531 124.283C33.706 124.419 33.5142 124.611 33.3778 124.858C33.2443 125.105 33.1776 125.395 33.1776 125.727H32.1719C32.1719 125.216 32.2898 124.767 32.5256 124.381C32.7614 123.994 33.0824 123.693 33.4886 123.477C33.8977 123.261 34.3565 123.153 34.8651 123.153C35.3764 123.153 35.8295 123.261 36.2244 123.477C36.6193 123.693 36.929 123.984 37.1534 124.351C37.3778 124.717 37.4901 125.125 37.4901 125.574C37.4901 125.895 37.4318 126.209 37.3153 126.516C37.2017 126.82 37.0028 127.159 36.7188 127.534C36.4375 127.906 36.0469 128.361 35.5469 128.898L33.5866 130.994V131.062H37.6435V132H32.1378ZM42.25 132.119C41.608 132.119 41.0611 131.945 40.6094 131.595C40.1577 131.243 39.8125 130.733 39.5739 130.065C39.3352 129.395 39.2159 128.585 39.2159 127.636C39.2159 126.693 39.3352 125.888 39.5739 125.22C39.8153 124.55 40.1619 124.038 40.6136 123.686C41.0682 123.331 41.6136 123.153 42.25 123.153C42.8864 123.153 43.4304 123.331 43.8821 123.686C44.3366 124.038 44.6832 124.55 44.9219 125.22C45.1634 125.888 45.2841 126.693 45.2841 127.636C45.2841 128.585 45.1648 129.395 44.9261 130.065C44.6875 130.733 44.3423 131.243 43.8906 131.595C43.4389 131.945 42.892 132.119 42.25 132.119ZM42.25 131.182C42.8864 131.182 43.3807 130.875 43.733 130.261C44.0852 129.648 44.2614 128.773 44.2614 127.636C44.2614 126.881 44.1804 126.237 44.0185 125.706C43.8594 125.175 43.6293 124.77 43.3281 124.491C43.0298 124.213 42.6705 124.074 42.25 124.074C41.6193 124.074 41.1264 124.385 40.7713 125.007C40.4162 125.626 40.2386 126.503 40.2386 127.636C40.2386 128.392 40.3182 129.034 40.4773 129.562C40.6364 130.091 40.8651 130.493 41.1634 130.768C41.4645 131.044 41.8267 131.182 42.25 131.182ZM49.75 132.119C49.108 132.119 48.5611 131.945 48.1094 131.595C47.6577 131.243 47.3125 130.733 47.0739 130.065C46.8352 129.395 46.7159 128.585 46.7159 127.636C46.7159 126.693 46.8352 125.888 47.0739 125.22C47.3153 124.55 47.6619 124.038 48.1136 123.686C48.5682 123.331 49.1136 123.153 49.75 123.153C50.3864 123.153 50.9304 123.331 51.3821 123.686C51.8366 124.038 52.1832 124.55 52.4219 125.22C52.6634 125.888 52.7841 126.693 52.7841 127.636C52.7841 128.585 52.6648 129.395 52.4261 130.065C52.1875 130.733 51.8423 131.243 51.3906 131.595C50.9389 131.945 50.392 132.119 49.75 132.119ZM49.75 131.182C50.3864 131.182 50.8807 130.875 51.233 130.261C51.5852 129.648 51.7614 128.773 51.7614 127.636C51.7614 126.881 51.6804 126.237 51.5185 125.706C51.3594 125.175 51.1293 124.77 50.8281 124.491C50.5298 124.213 50.1705 124.074 49.75 124.074C49.1193 124.074 48.6264 124.385 48.2713 125.007C47.9162 125.626 47.7386 126.503 47.7386 127.636C47.7386 128.392 47.8182 129.034 47.9773 129.562C48.1364 130.091 48.3651 130.493 48.6634 130.768C48.9645 131.044 49.3267 131.182 49.75 131.182ZM57.25 132.119C56.608 132.119 56.0611 131.945 55.6094 131.595C55.1577 131.243 54.8125 130.733 54.5739 130.065C54.3352 129.395 54.2159 128.585 54.2159 127.636C54.2159 126.693 54.3352 125.888 54.5739 125.22C54.8153 124.55 55.1619 124.038 55.6136 123.686C56.0682 123.331 56.6136 123.153 57.25 123.153C57.8864 123.153 58.4304 123.331 58.8821 123.686C59.3366 124.038 59.6832 124.55 59.9219 125.22C60.1634 125.888 60.2841 126.693 60.2841 127.636C60.2841 128.585 60.1648 129.395 59.9261 130.065C59.6875 130.733 59.3423 131.243 58.8906 131.595C58.4389 131.945 57.892 132.119 57.25 132.119ZM57.25 131.182C57.8864 131.182 58.3807 130.875 58.733 130.261C59.0852 129.648 59.2614 128.773 59.2614 127.636C59.2614 126.881 59.1804 126.237 59.0185 125.706C58.8594 125.175 58.6293 124.77 58.3281 124.491C58.0298 124.213 57.6705 124.074 57.25 124.074C56.6193 124.074 56.1264 124.385 55.7713 125.007C55.4162 125.626 55.2386 126.503 55.2386 127.636C55.2386 128.392 55.3182 129.034 55.4773 129.562C55.6364 130.091 55.8651 130.493 56.1634 130.768C56.4645 131.044 56.8267 131.182 57.25 131.182Z" fill="#6C6C71"/>
<line x1="77" y1="127.75" x2="540" y2="127.75" stroke="#56565C" stroke-width="0.5"/>
<path opacity="0.5" d="M37.0927 160.273V169H36.0359V161.381H35.9847L33.854 162.795V161.722L36.0359 160.273H37.0927ZM42.3299 169.119C41.8299 169.119 41.3796 169.02 40.979 168.821C40.5785 168.622 40.2575 168.349 40.016 168.003C39.7745 167.656 39.6424 167.261 39.6197 166.818H40.6424C40.6822 167.213 40.8612 167.54 41.1793 167.798C41.5004 168.054 41.8839 168.182 42.3299 168.182C42.6879 168.182 43.006 168.098 43.2844 167.93C43.5657 167.763 43.7859 167.533 43.945 167.24C44.1069 166.945 44.1879 166.611 44.1879 166.239C44.1879 165.858 44.104 165.518 43.9364 165.22C43.7717 164.919 43.5444 164.682 43.2546 164.509C42.9648 164.335 42.6339 164.247 42.2617 164.244C41.9947 164.241 41.7205 164.283 41.4393 164.368C41.158 164.45 40.9265 164.557 40.7447 164.688L39.756 164.568L40.2844 160.273H44.8185V161.21H41.1708L40.864 163.784H40.9151C41.0941 163.642 41.3185 163.524 41.5884 163.43C41.8583 163.337 42.1396 163.29 42.4322 163.29C42.9663 163.29 43.4421 163.418 43.8597 163.673C44.2802 163.926 44.6097 164.273 44.8484 164.713C45.0898 165.153 45.2106 165.656 45.2106 166.222C45.2106 166.778 45.0856 167.276 44.8356 167.713C44.5884 168.148 44.2475 168.491 43.8129 168.744C43.3782 168.994 42.8839 169.119 42.3299 169.119ZM49.75 169.119C49.108 169.119 48.5611 168.945 48.1094 168.595C47.6577 168.243 47.3125 167.733 47.0739 167.065C46.8352 166.395 46.7159 165.585 46.7159 164.636C46.7159 163.693 46.8352 162.888 47.0739 162.22C47.3153 161.55 47.6619 161.038 48.1136 160.686C48.5682 160.331 49.1136 160.153 49.75 160.153C50.3864 160.153 50.9304 160.331 51.3821 160.686C51.8366 161.038 52.1832 161.55 52.4219 162.22C52.6634 162.888 52.7841 163.693 52.7841 164.636C52.7841 165.585 52.6648 166.395 52.4261 167.065C52.1875 167.733 51.8423 168.243 51.3906 168.595C50.9389 168.945 50.392 169.119 49.75 169.119ZM49.75 168.182C50.3864 168.182 50.8807 167.875 51.233 167.261C51.5852 166.648 51.7614 165.773 51.7614 164.636C51.7614 163.881 51.6804 163.237 51.5185 162.706C51.3594 162.175 51.1293 161.77 50.8281 161.491C50.5298 161.213 50.1705 161.074 49.75 161.074C49.1193 161.074 48.6264 161.385 48.2713 162.007C47.9162 162.626 47.7386 163.503 47.7386 164.636C47.7386 165.392 47.8182 166.034 47.9773 166.562C48.1364 167.091 48.3651 167.493 48.6634 167.768C48.9645 168.044 49.3267 168.182 49.75 168.182ZM57.25 169.119C56.608 169.119 56.0611 168.945 55.6094 168.595C55.1577 168.243 54.8125 167.733 54.5739 167.065C54.3352 166.395 54.2159 165.585 54.2159 164.636C54.2159 163.693 54.3352 162.888 54.5739 162.22C54.8153 161.55 55.1619 161.038 55.6136 160.686C56.0682 160.331 56.6136 160.153 57.25 160.153C57.8864 160.153 58.4304 160.331 58.8821 160.686C59.3366 161.038 59.6832 161.55 59.9219 162.22C60.1634 162.888 60.2841 163.693 60.2841 164.636C60.2841 165.585 60.1648 166.395 59.9261 167.065C59.6875 167.733 59.3423 168.243 58.8906 168.595C58.4389 168.945 57.892 169.119 57.25 169.119ZM57.25 168.182C57.8864 168.182 58.3807 167.875 58.733 167.261C59.0852 166.648 59.2614 165.773 59.2614 164.636C59.2614 163.881 59.1804 163.237 59.0185 162.706C58.8594 162.175 58.6293 161.77 58.3281 161.491C58.0298 161.213 57.6705 161.074 57.25 161.074C56.6193 161.074 56.1264 161.385 55.7713 162.007C55.4162 162.626 55.2386 163.503 55.2386 164.636C55.2386 165.392 55.3182 166.034 55.4773 166.562C55.6364 167.091 55.8651 167.493 56.1634 167.768C56.4645 168.044 56.8267 168.182 57.25 168.182Z" fill="#6C6C71"/>
<line x1="77" y1="164.75" x2="540" y2="164.75" stroke="#56565C" stroke-width="0.5"/>
<path opacity="0.5" d="M36.8935 198.773V207.5H35.8366V199.881H35.7855L33.6548 201.295V200.222L35.8366 198.773H36.8935ZM42.25 207.619C41.608 207.619 41.0611 207.445 40.6094 207.095C40.1577 206.743 39.8125 206.233 39.5739 205.565C39.3352 204.895 39.2159 204.085 39.2159 203.136C39.2159 202.193 39.3352 201.388 39.5739 200.72C39.8153 200.05 40.1619 199.538 40.6136 199.186C41.0682 198.831 41.6136 198.653 42.25 198.653C42.8864 198.653 43.4304 198.831 43.8821 199.186C44.3366 199.538 44.6832 200.05 44.9219 200.72C45.1634 201.388 45.2841 202.193 45.2841 203.136C45.2841 204.085 45.1648 204.895 44.9261 205.565C44.6875 206.233 44.3423 206.743 43.8906 207.095C43.4389 207.445 42.892 207.619 42.25 207.619ZM42.25 206.682C42.8864 206.682 43.3807 206.375 43.733 205.761C44.0852 205.148 44.2614 204.273 44.2614 203.136C44.2614 202.381 44.1804 201.737 44.0185 201.206C43.8594 200.675 43.6293 200.27 43.3281 199.991C43.0298 199.713 42.6705 199.574 42.25 199.574C41.6193 199.574 41.1264 199.885 40.7713 200.507C40.4162 201.126 40.2386 202.003 40.2386 203.136C40.2386 203.892 40.3182 204.534 40.4773 205.062C40.6364 205.591 40.8651 205.993 41.1634 206.268C41.4645 206.544 41.8267 206.682 42.25 206.682ZM49.75 207.619C49.108 207.619 48.5611 207.445 48.1094 207.095C47.6577 206.743 47.3125 206.233 47.0739 205.565C46.8352 204.895 46.7159 204.085 46.7159 203.136C46.7159 202.193 46.8352 201.388 47.0739 200.72C47.3153 200.05 47.6619 199.538 48.1136 199.186C48.5682 198.831 49.1136 198.653 49.75 198.653C50.3864 198.653 50.9304 198.831 51.3821 199.186C51.8366 199.538 52.1832 200.05 52.4219 200.72C52.6634 201.388 52.7841 202.193 52.7841 203.136C52.7841 204.085 52.6648 204.895 52.4261 205.565C52.1875 206.233 51.8423 206.743 51.3906 207.095C50.9389 207.445 50.392 207.619 49.75 207.619ZM49.75 206.682C50.3864 206.682 50.8807 206.375 51.233 205.761C51.5852 205.148 51.7614 204.273 51.7614 203.136C51.7614 202.381 51.6804 201.737 51.5185 201.206C51.3594 200.675 51.1293 200.27 50.8281 199.991C50.5298 199.713 50.1705 199.574 49.75 199.574C49.1193 199.574 48.6264 199.885 48.2713 200.507C47.9162 201.126 47.7386 202.003 47.7386 203.136C47.7386 203.892 47.8182 204.534 47.9773 205.062C48.1364 205.591 48.3651 205.993 48.6634 206.268C48.9645 206.544 49.3267 206.682 49.75 206.682ZM57.25 207.619C56.608 207.619 56.0611 207.445 55.6094 207.095C55.1577 206.743 54.8125 206.233 54.5739 205.565C54.3352 204.895 54.2159 204.085 54.2159 203.136C54.2159 202.193 54.3352 201.388 54.5739 200.72C54.8153 200.05 55.1619 199.538 55.6136 199.186C56.0682 198.831 56.6136 198.653 57.25 198.653C57.8864 198.653 58.4304 198.831 58.8821 199.186C59.3366 199.538 59.6832 200.05 59.9219 200.72C60.1634 201.388 60.2841 202.193 60.2841 203.136C60.2841 204.085 60.1648 204.895 59.9261 205.565C59.6875 206.233 59.3423 206.743 58.8906 207.095C58.4389 207.445 57.892 207.619 57.25 207.619ZM57.25 206.682C57.8864 206.682 58.3807 206.375 58.733 205.761C59.0852 205.148 59.2614 204.273 59.2614 203.136C59.2614 202.381 59.1804 201.737 59.0185 201.206C58.8594 200.675 58.6293 200.27 58.3281 199.991C58.0298 199.713 57.6705 199.574 57.25 199.574C56.6193 199.574 56.1264 199.885 55.7713 200.507C55.4162 201.126 55.2386 202.003 55.2386 203.136C55.2386 203.892 55.3182 204.534 55.4773 205.062C55.6364 205.591 55.8651 205.993 56.1634 206.268C56.4645 206.544 56.8267 206.682 57.25 206.682Z" fill="#6C6C71"/>
<line x1="77" y1="203.25" x2="540" y2="203.25" stroke="#56565C" stroke-width="0.5"/>
<path opacity="0.5" d="M42.3299 245.119C41.8299 245.119 41.3796 245.02 40.979 244.821C40.5785 244.622 40.2575 244.349 40.016 244.003C39.7745 243.656 39.6424 243.261 39.6197 242.818H40.6424C40.6822 243.213 40.8612 243.54 41.1793 243.798C41.5004 244.054 41.8839 244.182 42.3299 244.182C42.6879 244.182 43.006 244.098 43.2844 243.93C43.5657 243.763 43.7859 243.533 43.945 243.24C44.1069 242.945 44.1879 242.611 44.1879 242.239C44.1879 241.858 44.104 241.518 43.9364 241.22C43.7717 240.919 43.5444 240.682 43.2546 240.509C42.9648 240.335 42.6339 240.247 42.2617 240.244C41.9947 240.241 41.7205 240.283 41.4393 240.368C41.158 240.45 40.9265 240.557 40.7447 240.688L39.756 240.568L40.2844 236.273H44.8185V237.21H41.1708L40.864 239.784H40.9151C41.0941 239.642 41.3185 239.524 41.5884 239.43C41.8583 239.337 42.1396 239.29 42.4322 239.29C42.9663 239.29 43.4421 239.418 43.8597 239.673C44.2802 239.926 44.6097 240.273 44.8484 240.713C45.0898 241.153 45.2106 241.656 45.2106 242.222C45.2106 242.778 45.0856 243.276 44.8356 243.713C44.5884 244.148 44.2475 244.491 43.8129 244.744C43.3782 244.994 42.8839 245.119 42.3299 245.119ZM49.75 245.119C49.108 245.119 48.5611 244.945 48.1094 244.595C47.6577 244.243 47.3125 243.733 47.0739 243.065C46.8352 242.395 46.7159 241.585 46.7159 240.636C46.7159 239.693 46.8352 238.888 47.0739 238.22C47.3153 237.55 47.6619 237.038 48.1136 236.686C48.5682 236.331 49.1136 236.153 49.75 236.153C50.3864 236.153 50.9304 236.331 51.3821 236.686C51.8366 237.038 52.1832 237.55 52.4219 238.22C52.6634 238.888 52.7841 239.693 52.7841 240.636C52.7841 241.585 52.6648 242.395 52.4261 243.065C52.1875 243.733 51.8423 244.243 51.3906 244.595C50.9389 244.945 50.392 245.119 49.75 245.119ZM49.75 244.182C50.3864 244.182 50.8807 243.875 51.233 243.261C51.5852 242.648 51.7614 241.773 51.7614 240.636C51.7614 239.881 51.6804 239.237 51.5185 238.706C51.3594 238.175 51.1293 237.77 50.8281 237.491C50.5298 237.213 50.1705 237.074 49.75 237.074C49.1193 237.074 48.6264 237.385 48.2713 238.007C47.9162 238.626 47.7386 239.503 47.7386 240.636C47.7386 241.392 47.8182 242.034 47.9773 242.562C48.1364 243.091 48.3651 243.493 48.6634 243.768C48.9645 244.044 49.3267 244.182 49.75 244.182ZM57.25 245.119C56.608 245.119 56.0611 244.945 55.6094 244.595C55.1577 244.243 54.8125 243.733 54.5739 243.065C54.3352 242.395 54.2159 241.585 54.2159 240.636C54.2159 239.693 54.3352 238.888 54.5739 238.22C54.8153 237.55 55.1619 237.038 55.6136 236.686C56.0682 236.331 56.6136 236.153 57.25 236.153C57.8864 236.153 58.4304 236.331 58.8821 236.686C59.3366 237.038 59.6832 237.55 59.9219 238.22C60.1634 238.888 60.2841 239.693 60.2841 240.636C60.2841 241.585 60.1648 242.395 59.9261 243.065C59.6875 243.733 59.3423 244.243 58.8906 244.595C58.4389 244.945 57.892 245.119 57.25 245.119ZM57.25 244.182C57.8864 244.182 58.3807 243.875 58.733 243.261C59.0852 242.648 59.2614 241.773 59.2614 240.636C59.2614 239.881 59.1804 239.237 59.0185 238.706C58.8594 238.175 58.6293 237.77 58.3281 237.491C58.0298 237.213 57.6705 237.074 57.25 237.074C56.6193 237.074 56.1264 237.385 55.7713 238.007C55.4162 238.626 55.2386 239.503 55.2386 240.636C55.2386 241.392 55.3182 242.034 55.4773 242.562C55.6364 243.091 55.8651 243.493 56.1634 243.768C56.4645 244.044 56.8267 244.182 57.25 244.182Z" fill="#6C6C71"/>
<line x1="77" y1="240.75" x2="540" y2="240.75" stroke="#56565C" stroke-width="0.5"/>
<path opacity="0.5" d="M57.25 282.119C56.608 282.119 56.0611 281.945 55.6094 281.595C55.1577 281.243 54.8125 280.733 54.5739 280.065C54.3352 279.395 54.2159 278.585 54.2159 277.636C54.2159 276.693 54.3352 275.888 54.5739 275.22C54.8153 274.55 55.1619 274.038 55.6136 273.686C56.0682 273.331 56.6136 273.153 57.25 273.153C57.8864 273.153 58.4304 273.331 58.8821 273.686C59.3366 274.038 59.6832 274.55 59.9219 275.22C60.1634 275.888 60.2841 276.693 60.2841 277.636C60.2841 278.585 60.1648 279.395 59.9261 280.065C59.6875 280.733 59.3423 281.243 58.8906 281.595C58.4389 281.945 57.892 282.119 57.25 282.119ZM57.25 281.182C57.8864 281.182 58.3807 280.875 58.733 280.261C59.0852 279.648 59.2614 278.773 59.2614 277.636C59.2614 276.881 59.1804 276.237 59.0185 275.706C58.8594 275.175 58.6293 274.77 58.3281 274.491C58.0298 274.213 57.6705 274.074 57.25 274.074C56.6193 274.074 56.1264 274.385 55.7713 275.007C55.4162 275.626 55.2386 276.503 55.2386 277.636C55.2386 278.392 55.3182 279.034 55.4773 279.562C55.6364 280.091 55.8651 280.493 56.1634 280.768C56.4645 281.044 56.8267 281.182 57.25 281.182Z" fill="#6C6C71"/>
<line x1="77" y1="277.75" x2="540" y2="277.75" stroke="#56565C" stroke-width="0.5"/>
<path d="M77 164.761C77 163.236 78.2363 162 79.7614 162V162C81.2865 162 82.5229 163.236 82.5229 164.761V278.369H77V164.761Z" fill="#F02E65" fill-opacity="0.4"/>
<path d="M77 220.416C77 218.891 78.2363 217.655 79.7614 217.655V217.655C81.2865 217.655 82.5229 218.891 82.5229 220.416V278.369H77V220.416Z" fill="#F02E65"/>
<path d="M92.6484 203.214C92.6484 201.688 93.8848 200.452 95.4099 200.452V200.452C96.935 200.452 98.1713 201.688 98.1713 203.214V278.369H92.6484V203.214Z" fill="#F02E65" fill-opacity="0.4"/>
<path d="M92.6484 233.571C92.6484 232.046 93.8848 230.81 95.4099 230.81V230.81C96.935 230.81 98.1713 232.046 98.1713 233.571V278.369H92.6484V233.571Z" fill="#F02E65"/>
<path d="M108.296 233.571C108.296 232.046 109.532 230.81 111.057 230.81V230.81C112.582 230.81 113.819 232.046 113.819 233.571V278.369H108.296V233.571Z" fill="#F02E65" fill-opacity="0.4"/>
<path d="M108.296 256.845C108.296 255.32 109.532 254.083 111.057 254.083V254.083C112.582 254.083 113.819 255.32 113.819 256.845V278.369H108.296V256.845Z" fill="#F02E65"/>
<path d="M123.944 214.345C123.944 212.82 125.181 211.583 126.706 211.583V211.583C128.231 211.583 129.467 212.82 129.467 214.345V278.369H123.944V214.345Z" fill="#F02E65" fill-opacity="0.4"/>
<path d="M123.944 238.631C123.944 237.105 125.181 235.869 126.706 235.869V235.869C128.231 235.869 129.467 237.105 129.467 238.631V278.369H123.944V238.631Z" fill="#F02E65"/>
<path d="M139.593 183.988C139.593 182.463 140.829 181.227 142.354 181.227V181.227C143.879 181.227 145.116 182.463 145.116 183.988V278.37H139.593V183.988Z" fill="#F02E65" fill-opacity="0.4"/>
<path d="M139.593 211.309C139.593 209.784 140.829 208.548 142.354 208.548V208.548C143.879 208.548 145.116 209.784 145.116 211.309V278.369H139.593V211.309Z" fill="#F02E65"/>
<path d="M155.24 164.761C155.24 163.236 156.477 162 158.002 162V162C159.527 162 160.763 163.236 160.763 164.761V278.369H155.24V164.761Z" fill="#F02E65" fill-opacity="0.4"/>
<path d="M155.24 194.107C155.24 192.582 156.477 191.345 158.002 191.345V191.345C159.527 191.345 160.763 192.582 160.763 194.107V278.369H155.24V194.107Z" fill="#F02E65"/>
<path d="M170.889 203.214C170.889 201.688 172.125 200.452 173.65 200.452V200.452C175.175 200.452 176.412 201.688 176.412 203.214V278.369H170.889V203.214Z" fill="#F02E65" fill-opacity="0.4"/>
<path d="M170.889 228.511C170.889 226.986 172.125 225.75 173.65 225.75V225.75C175.175 225.75 176.412 226.986 176.412 228.511V278.369H170.889V228.511Z" fill="#F02E65"/>
<path d="M186.537 233.571C186.537 232.046 187.773 230.81 189.299 230.81V230.81C190.824 230.81 192.06 232.046 192.06 233.571V278.369H186.537V233.571Z" fill="#F02E65" fill-opacity="0.4"/>
<path d="M186.537 252.798C186.537 251.272 187.773 250.036 189.299 250.036V250.036C190.824 250.036 192.06 251.272 192.06 252.798V278.37H186.537V252.798Z" fill="#F02E65"/>
<path d="M202.185 214.345C202.185 212.82 203.421 211.584 204.946 211.584V211.584C206.471 211.584 207.707 212.82 207.707 214.345V278.37H202.185V214.345Z" fill="#F02E65" fill-opacity="0.4"/>
<path d="M202.185 228.511C202.185 226.986 203.421 225.75 204.946 225.75V225.75C206.471 225.75 207.707 226.986 207.707 228.511V278.369H202.185V228.511Z" fill="#F02E65"/>
<path d="M217.833 183.988C217.833 182.463 219.069 181.227 220.594 181.227V181.227C222.12 181.227 223.356 182.463 223.356 183.988V278.37H217.833V183.988Z" fill="#F02E65" fill-opacity="0.4"/>
<path d="M217.833 211.309C217.833 209.784 219.069 208.548 220.594 208.548V208.548C222.12 208.548 223.356 209.784 223.356 211.309V278.369H217.833V211.309Z" fill="#F02E65"/>
<path d="M233.481 203.214C233.481 201.688 234.718 200.452 236.243 200.452V200.452C237.768 200.452 239.004 201.688 239.004 203.214V278.369H233.481V203.214Z" fill="#F02E65" fill-opacity="0.4"/>
<path d="M233.481 228.511C233.481 226.986 234.718 225.75 236.243 225.75V225.75C237.768 225.75 239.004 226.986 239.004 228.511V278.369H233.481V228.511Z" fill="#F02E65"/>
<path d="M249.129 233.571C249.129 232.046 250.365 230.81 251.89 230.81V230.81C253.415 230.81 254.652 232.046 254.652 233.571V278.369H249.129V233.571Z" fill="#F02E65" fill-opacity="0.4"/>
<path d="M249.129 252.798C249.129 251.272 250.365 250.036 251.89 250.036V250.036C253.415 250.036 254.652 251.272 254.652 252.798V278.37H249.129V252.798Z" fill="#F02E65"/>
<path d="M264.777 214.345C264.777 212.82 266.014 211.583 267.539 211.583V211.583C269.064 211.583 270.3 212.82 270.3 214.345V278.369H264.777V214.345Z" fill="#F02E65" fill-opacity="0.4"/>
<path d="M264.777 233.571C264.777 232.045 266.014 230.809 267.539 230.809V230.809C269.064 230.809 270.3 232.045 270.3 233.571V278.369H264.777V233.571Z" fill="#F02E65"/>
<path d="M280.426 183.988C280.426 182.463 281.662 181.227 283.187 181.227V181.227C284.712 181.227 285.949 182.463 285.949 183.988V278.37H280.426V183.988Z" fill="#F02E65" fill-opacity="0.4"/>
<path d="M280.426 211.309C280.426 209.784 281.662 208.548 283.187 208.548V208.548C284.712 208.548 285.949 209.784 285.949 211.309V278.369H280.426V211.309Z" fill="#F02E65"/>
<path d="M296.073 214.345C296.073 212.82 297.31 211.584 298.835 211.584V211.584C300.36 211.584 301.596 212.82 301.596 214.345V278.37H296.073V214.345Z" fill="#F02E65" fill-opacity="0.4"/>
<path d="M296.073 238.631C296.073 237.106 297.31 235.87 298.835 235.87V235.87C300.36 235.87 301.596 237.106 301.596 238.631V278.37H296.073V238.631Z" fill="#F02E65"/>
<path d="M311.722 183.988C311.722 182.463 312.958 181.227 314.483 181.227V181.227C316.008 181.227 317.245 182.463 317.245 183.988V278.37H311.722V183.988Z" fill="#F02E65" fill-opacity="0.4"/>
<path d="M311.722 211.309C311.722 209.784 312.958 208.548 314.483 208.548V208.548C316.008 208.548 317.245 209.784 317.245 211.309V278.369H311.722V211.309Z" fill="#F02E65"/>
<path d="M327.37 214.345C327.37 212.82 328.606 211.584 330.132 211.584V211.584C331.657 211.584 332.893 212.82 332.893 214.345V278.37H327.37V214.345Z" fill="#F02E65" fill-opacity="0.4"/>
<path d="M327.37 238.631C327.37 237.106 328.606 235.87 330.132 235.87V235.87C331.657 235.87 332.893 237.106 332.893 238.631V278.37H327.37V238.631Z" fill="#F02E65"/>
<path d="M343.018 183.988C343.018 182.463 344.254 181.227 345.779 181.227V181.227C347.304 181.227 348.54 182.463 348.54 183.988V278.37H343.018V183.988Z" fill="#F02E65" fill-opacity="0.4"/>
<path d="M343.018 215.357C343.018 213.832 344.254 212.596 345.779 212.596V212.596C347.304 212.596 348.54 213.832 348.54 215.357V278.37H343.018V215.357Z" fill="#F02E65"/>
<path d="M359 177.253C359 175.872 360.119 174.753 361.5 174.753V174.753C362.881 174.753 364 175.872 364 177.253V278.369H359V177.253Z" fill="#F02E65" fill-opacity="0.4"/>
<path d="M359 211.526C359 210.146 360.119 209.026 361.5 209.026V209.026C362.881 209.026 364 210.146 364 211.526V278.37H359V211.526Z" fill="#F02E65"/>
<path d="M374.314 183.988C374.314 182.463 375.551 181.227 377.076 181.227V181.227C378.601 181.227 379.837 182.463 379.837 183.988V278.37H374.314V183.988Z" fill="#F02E65" fill-opacity="0.4"/>
<path d="M374.314 214.345C374.314 212.82 375.551 211.583 377.076 211.583V211.583C378.601 211.583 379.837 212.82 379.837 214.345V278.369H374.314V214.345Z" fill="#F02E65"/>
<path d="M389.962 214.345C389.962 212.82 391.198 211.584 392.723 211.584V211.584C394.248 211.584 395.485 212.82 395.485 214.345V278.37H389.962V214.345Z" fill="#F02E65" fill-opacity="0.4"/>
<path d="M389.962 238.631C389.962 237.106 391.198 235.87 392.723 235.87V235.87C394.248 235.87 395.485 237.106 395.485 238.631V278.37H389.962V238.631Z" fill="#F02E65"/>
<path d="M405.61 183.988C405.61 182.463 406.847 181.227 408.372 181.227V181.227C409.897 181.227 411.133 182.463 411.133 183.988V278.37H405.61V183.988Z" fill="#F02E65" fill-opacity="0.4"/>
<path d="M405.61 192.083C405.61 190.558 406.847 189.321 408.372 189.321V189.321C409.897 189.321 411.133 190.558 411.133 192.083V278.369H405.61V192.083Z" fill="#F02E65"/>
<path d="M421.259 214.345C421.259 212.82 422.495 211.584 424.02 211.584V211.584C425.545 211.584 426.782 212.82 426.782 214.345V278.37H421.259V214.345Z" fill="#F02E65" fill-opacity="0.4"/>
<path d="M421.259 236.607C421.259 235.082 422.495 233.845 424.02 233.845V233.845C425.545 233.845 426.782 235.082 426.782 236.607V278.369H421.259V236.607Z" fill="#F02E65"/>
<path d="M436.906 236.496C436.906 234.971 438.143 233.734 439.668 233.734V233.734C441.193 233.734 442.429 234.971 442.429 236.496V278.369H436.906V236.496Z" fill="#F02E65" fill-opacity="0.4"/>
<path d="M436.906 245.287C436.906 243.762 438.143 242.526 439.668 242.526V242.526C441.193 242.526 442.429 243.762 442.429 245.287V278.369H436.906V245.287Z" fill="#F02E65"/>
<path d="M452.555 214.345C452.555 212.82 453.791 211.583 455.316 211.583V211.583C456.841 211.583 458.078 212.82 458.078 214.345V278.369H452.555V214.345Z" fill="#F02E65" fill-opacity="0.4"/>
<path d="M452.555 227.5C452.555 225.975 453.791 224.738 455.316 224.738V224.738C456.841 224.738 458.078 225.975 458.078 227.5V278.369H452.555V227.5Z" fill="#F02E65"/>
<path d="M469.123 206.208C469.123 204.683 470.359 203.447 471.884 203.447V203.447C473.41 203.447 474.646 204.683 474.646 206.208V278.203H469.123V206.208Z" fill="#F02E65" fill-opacity="0.4"/>
<path d="M469.123 220.933C469.123 219.408 470.359 218.171 471.884 218.171V218.171C473.41 218.171 474.646 219.408 474.646 220.933V278.203H469.123V220.933Z" fill="#F02E65"/>
<path d="M485.691 214.178C485.691 212.653 486.928 211.417 488.453 211.417V211.417C489.978 211.417 491.214 212.653 491.214 214.178V278.203H485.691V214.178Z" fill="#F02E65" fill-opacity="0.4"/>
<path d="M485.691 227.333C485.691 225.808 486.928 224.571 488.453 224.571V224.571C489.978 224.571 491.214 225.808 491.214 227.333V278.202H485.691V227.333Z" fill="#F02E65"/>
<path d="M502.261 222.149C502.261 220.624 503.497 219.388 505.022 219.388V219.388C506.547 219.388 507.784 220.624 507.784 222.149V278.203H502.261V222.149Z" fill="#F02E65" fill-opacity="0.4"/>
<path d="M502.261 233.734C502.261 232.209 503.497 230.972 505.022 230.972V230.972C506.547 230.972 507.784 232.209 507.784 233.734V278.203H502.261V233.734Z" fill="#F02E65"/>
<path d="M518.829 199.832C518.829 198.307 520.065 197.07 521.591 197.07V197.07C523.116 197.07 524.352 198.307 524.352 199.832V279H518.829V199.832Z" fill="#F02E65" fill-opacity="0.4"/>
<path d="M518.829 215.969C518.829 214.444 520.065 213.208 521.591 213.208V213.208C523.116 213.208 524.352 214.444 524.352 215.969V279H518.829V215.969Z" fill="#F02E65"/>
<path d="M534.478 214.345C534.478 212.82 535.714 211.584 537.239 211.584V211.584C538.764 211.584 540 212.82 540 214.345V278.37H534.478V214.345Z" fill="#F02E65" fill-opacity="0.4"/>
<path d="M534.478 227.5C534.478 225.975 535.714 224.738 537.239 224.738V224.738C538.764 224.738 540 225.975 540 227.5V278.369H534.478V227.5Z" fill="#F02E65"/>
<rect x="596" y="1" width="572" height="340" rx="16" fill="#18181B"/>
<path opacity="0.5" d="M628.5 131.707V130.838L632.335 124.77H632.966V126.116H632.539L629.642 130.702V130.77H634.806V131.707H628.5ZM632.608 133.497V131.443V131.038V124.77H633.613V133.497H632.608ZM639.25 133.616C638.608 133.616 638.061 133.442 637.609 133.092C637.158 132.74 636.813 132.23 636.574 131.562C636.335 130.892 636.216 130.082 636.216 129.133C636.216 128.19 636.335 127.385 636.574 126.717C636.815 126.047 637.162 125.535 637.614 125.183C638.068 124.828 638.614 124.65 639.25 124.65C639.886 124.65 640.43 124.828 640.882 125.183C641.337 125.535 641.683 126.047 641.922 126.717C642.163 127.385 642.284 128.19 642.284 129.133C642.284 130.082 642.165 130.892 641.926 131.562C641.688 132.23 641.342 132.74 640.891 133.092C640.439 133.442 639.892 133.616 639.25 133.616ZM639.25 132.679C639.886 132.679 640.381 132.372 640.733 131.758C641.085 131.145 641.261 130.27 641.261 129.133C641.261 128.378 641.18 127.734 641.018 127.203C640.859 126.672 640.629 126.267 640.328 125.989C640.03 125.71 639.67 125.571 639.25 125.571C638.619 125.571 638.126 125.882 637.771 126.504C637.416 127.123 637.239 128 637.239 129.133C637.239 129.889 637.318 130.531 637.477 131.06C637.636 131.588 637.865 131.99 638.163 132.266C638.464 132.541 638.827 132.679 639.25 132.679ZM646.75 133.616C646.108 133.616 645.561 133.442 645.109 133.092C644.658 132.74 644.313 132.23 644.074 131.562C643.835 130.892 643.716 130.082 643.716 129.133C643.716 128.19 643.835 127.385 644.074 126.717C644.315 126.047 644.662 125.535 645.114 125.183C645.568 124.828 646.114 124.65 646.75 124.65C647.386 124.65 647.93 124.828 648.382 125.183C648.837 125.535 649.183 126.047 649.422 126.717C649.663 127.385 649.784 128.19 649.784 129.133C649.784 130.082 649.665 130.892 649.426 131.562C649.188 132.23 648.842 132.74 648.391 133.092C647.939 133.442 647.392 133.616 646.75 133.616ZM646.75 132.679C647.386 132.679 647.881 132.372 648.233 131.758C648.585 131.145 648.761 130.27 648.761 129.133C648.761 128.378 648.68 127.734 648.518 127.203C648.359 126.672 648.129 126.267 647.828 125.989C647.53 125.71 647.17 125.571 646.75 125.571C646.119 125.571 645.626 125.882 645.271 126.504C644.916 127.123 644.739 128 644.739 129.133C644.739 129.889 644.818 130.531 644.977 131.06C645.136 131.588 645.365 131.99 645.663 132.266C645.964 132.541 646.327 132.679 646.75 132.679ZM654.25 133.616C653.608 133.616 653.061 133.442 652.609 133.092C652.158 132.74 651.813 132.23 651.574 131.562C651.335 130.892 651.216 130.082 651.216 129.133C651.216 128.19 651.335 127.385 651.574 126.717C651.815 126.047 652.162 125.535 652.614 125.183C653.068 124.828 653.614 124.65 654.25 124.65C654.886 124.65 655.43 124.828 655.882 125.183C656.337 125.535 656.683 126.047 656.922 126.717C657.163 127.385 657.284 128.19 657.284 129.133C657.284 130.082 657.165 130.892 656.926 131.562C656.688 132.23 656.342 132.74 655.891 133.092C655.439 133.442 654.892 133.616 654.25 133.616ZM654.25 132.679C654.886 132.679 655.381 132.372 655.733 131.758C656.085 131.145 656.261 130.27 656.261 129.133C656.261 128.378 656.18 127.734 656.018 127.203C655.859 126.672 655.629 126.267 655.328 125.989C655.03 125.71 654.67 125.571 654.25 125.571C653.619 125.571 653.126 125.882 652.771 126.504C652.416 127.123 652.239 128 652.239 129.133C652.239 129.889 652.318 130.531 652.477 131.06C652.636 131.588 652.865 131.99 653.163 132.266C653.464 132.541 653.827 132.679 654.25 132.679Z" fill="#6C6C71"/>
<line x1="674" y1="129.247" x2="1137" y2="129.247" stroke="#6C6C71" stroke-width="0.5"/>
<path opacity="0.5" d="M631.712 168.886C631.149 168.886 630.648 168.789 630.207 168.596C629.77 168.403 629.422 168.134 629.163 167.791C628.908 167.444 628.768 167.042 628.746 166.585H629.82C629.842 166.866 629.939 167.109 630.109 167.313C630.28 167.515 630.503 167.671 630.778 167.782C631.054 167.893 631.359 167.948 631.695 167.948C632.07 167.948 632.402 167.883 632.692 167.752C632.982 167.622 633.209 167.44 633.374 167.207C633.538 166.974 633.621 166.704 633.621 166.397C633.621 166.076 633.541 165.794 633.382 165.549C633.223 165.302 632.99 165.109 632.683 164.97C632.376 164.831 632.001 164.761 631.558 164.761H630.859V163.823H631.558C631.905 163.823 632.209 163.761 632.47 163.636C632.734 163.511 632.94 163.335 633.088 163.108C633.239 162.88 633.314 162.613 633.314 162.306C633.314 162.011 633.249 161.754 633.118 161.535C632.987 161.316 632.803 161.146 632.564 161.024C632.328 160.902 632.05 160.84 631.729 160.84C631.428 160.84 631.143 160.896 630.876 161.007C630.612 161.115 630.396 161.272 630.229 161.48C630.061 161.684 629.97 161.931 629.956 162.221H628.933C628.95 161.764 629.088 161.363 629.347 161.019C629.605 160.673 629.943 160.403 630.361 160.21C630.781 160.017 631.243 159.92 631.746 159.92C632.286 159.92 632.749 160.029 633.135 160.248C633.521 160.464 633.818 160.75 634.026 161.105C634.233 161.46 634.337 161.843 634.337 162.255C634.337 162.747 634.207 163.166 633.949 163.512C633.693 163.859 633.345 164.099 632.905 164.233V164.301C633.456 164.392 633.886 164.626 634.196 165.004C634.506 165.379 634.661 165.843 634.661 166.397C634.661 166.872 634.531 167.298 634.273 167.676C634.017 168.051 633.668 168.346 633.224 168.562C632.781 168.778 632.277 168.886 631.712 168.886ZM639.25 168.886C638.608 168.886 638.061 168.711 637.609 168.362C637.158 168.009 636.813 167.5 636.574 166.832C636.335 166.161 636.216 165.352 636.216 164.403C636.216 163.46 636.335 162.654 636.574 161.987C636.815 161.316 637.162 160.805 637.614 160.453C638.068 160.098 638.614 159.92 639.25 159.92C639.886 159.92 640.43 160.098 640.882 160.453C641.337 160.805 641.683 161.316 641.922 161.987C642.163 162.654 642.284 163.46 642.284 164.403C642.284 165.352 642.165 166.161 641.926 166.832C641.688 167.5 641.342 168.009 640.891 168.362C640.439 168.711 639.892 168.886 639.25 168.886ZM639.25 167.948C639.886 167.948 640.381 167.642 640.733 167.028C641.085 166.414 641.261 165.539 641.261 164.403C641.261 163.647 641.18 163.004 641.018 162.473C640.859 161.941 640.629 161.536 640.328 161.258C640.03 160.98 639.67 160.84 639.25 160.84C638.619 160.84 638.126 161.152 637.771 161.774C637.416 162.393 637.239 163.269 637.239 164.403C637.239 165.159 637.318 165.801 637.477 166.329C637.636 166.858 637.865 167.259 638.163 167.535C638.464 167.811 638.827 167.948 639.25 167.948ZM646.75 168.886C646.108 168.886 645.561 168.711 645.109 168.362C644.658 168.009 644.313 167.5 644.074 166.832C643.835 166.161 643.716 165.352 643.716 164.403C643.716 163.46 643.835 162.654 644.074 161.987C644.315 161.316 644.662 160.805 645.114 160.453C645.568 160.098 646.114 159.92 646.75 159.92C647.386 159.92 647.93 160.098 648.382 160.453C648.837 160.805 649.183 161.316 649.422 161.987C649.663 162.654 649.784 163.46 649.784 164.403C649.784 165.352 649.665 166.161 649.426 166.832C649.188 167.5 648.842 168.009 648.391 168.362C647.939 168.711 647.392 168.886 646.75 168.886ZM646.75 167.948C647.386 167.948 647.881 167.642 648.233 167.028C648.585 166.414 648.761 165.539 648.761 164.403C648.761 163.647 648.68 163.004 648.518 162.473C648.359 161.941 648.129 161.536 647.828 161.258C647.53 160.98 647.17 160.84 646.75 160.84C646.119 160.84 645.626 161.152 645.271 161.774C644.916 162.393 644.739 163.269 644.739 164.403C644.739 165.159 644.818 165.801 644.977 166.329C645.136 166.858 645.365 167.259 645.663 167.535C645.964 167.811 646.327 167.948 646.75 167.948ZM654.25 168.886C653.608 168.886 653.061 168.711 652.609 168.362C652.158 168.009 651.813 167.5 651.574 166.832C651.335 166.161 651.216 165.352 651.216 164.403C651.216 163.46 651.335 162.654 651.574 161.987C651.815 161.316 652.162 160.805 652.614 160.453C653.068 160.098 653.614 159.92 654.25 159.92C654.886 159.92 655.43 160.098 655.882 160.453C656.337 160.805 656.683 161.316 656.922 161.987C657.163 162.654 657.284 163.46 657.284 164.403C657.284 165.352 657.165 166.161 656.926 166.832C656.688 167.5 656.342 168.009 655.891 168.362C655.439 168.711 654.892 168.886 654.25 168.886ZM654.25 167.948C654.886 167.948 655.381 167.642 655.733 167.028C656.085 166.414 656.261 165.539 656.261 164.403C656.261 163.647 656.18 163.004 656.018 162.473C655.859 161.941 655.629 161.536 655.328 161.258C655.03 160.98 654.67 160.84 654.25 160.84C653.619 160.84 653.126 161.152 652.771 161.774C652.416 162.393 652.239 163.269 652.239 164.403C652.239 165.159 652.318 165.801 652.477 166.329C652.636 166.858 652.865 167.259 653.163 167.535C653.464 167.811 653.827 167.948 654.25 167.948Z" fill="#6C6C71"/>
<line x1="674" y1="164.517" x2="1137" y2="164.517" stroke="#6C6C71" stroke-width="0.5"/>
<path opacity="0.5" d="M629.138 204.964V204.197L632.018 201.044C632.357 200.675 632.635 200.354 632.854 200.081C633.072 199.805 633.234 199.547 633.339 199.305C633.447 199.061 633.501 198.805 633.501 198.538C633.501 198.231 633.428 197.966 633.28 197.741C633.135 197.517 632.936 197.344 632.683 197.221C632.43 197.099 632.146 197.038 631.831 197.038C631.496 197.038 631.203 197.108 630.953 197.247C630.706 197.383 630.514 197.575 630.378 197.822C630.244 198.069 630.178 198.359 630.178 198.692H629.172C629.172 198.18 629.29 197.731 629.526 197.345C629.761 196.959 630.082 196.658 630.489 196.442C630.898 196.226 631.357 196.118 631.865 196.118C632.376 196.118 632.83 196.226 633.224 196.442C633.619 196.658 633.929 196.949 634.153 197.315C634.378 197.682 634.49 198.089 634.49 198.538C634.49 198.859 634.432 199.173 634.315 199.48C634.202 199.784 634.003 200.123 633.719 200.498C633.438 200.871 633.047 201.325 632.547 201.862L630.587 203.959V204.027H634.643V204.964H629.138ZM639.25 205.084C638.608 205.084 638.061 204.909 637.609 204.56C637.158 204.207 636.813 203.697 636.574 203.03C636.335 202.359 636.216 201.55 636.216 200.601C636.216 199.658 636.335 198.852 636.574 198.185C636.815 197.514 637.162 197.003 637.614 196.65C638.068 196.295 638.614 196.118 639.25 196.118C639.886 196.118 640.43 196.295 640.882 196.65C641.337 197.003 641.683 197.514 641.922 198.185C642.163 198.852 642.284 199.658 642.284 200.601C642.284 201.55 642.165 202.359 641.926 203.03C641.688 203.697 641.342 204.207 640.891 204.56C640.439 204.909 639.892 205.084 639.25 205.084ZM639.25 204.146C639.886 204.146 640.381 203.839 640.733 203.226C641.085 202.612 641.261 201.737 641.261 200.601C641.261 199.845 641.18 199.202 641.018 198.67C640.859 198.139 640.629 197.734 640.328 197.456C640.03 197.177 639.67 197.038 639.25 197.038C638.619 197.038 638.126 197.349 637.771 197.971C637.416 198.591 637.239 199.467 637.239 200.601C637.239 201.356 637.318 201.998 637.477 202.527C637.636 203.055 637.865 203.457 638.163 203.733C638.464 204.008 638.827 204.146 639.25 204.146ZM646.75 205.084C646.108 205.084 645.561 204.909 645.109 204.56C644.658 204.207 644.313 203.697 644.074 203.03C643.835 202.359 643.716 201.55 643.716 200.601C643.716 199.658 643.835 198.852 644.074 198.185C644.315 197.514 644.662 197.003 645.114 196.65C645.568 196.295 646.114 196.118 646.75 196.118C647.386 196.118 647.93 196.295 648.382 196.65C648.837 197.003 649.183 197.514 649.422 198.185C649.663 198.852 649.784 199.658 649.784 200.601C649.784 201.55 649.665 202.359 649.426 203.03C649.188 203.697 648.842 204.207 648.391 204.56C647.939 204.909 647.392 205.084 646.75 205.084ZM646.75 204.146C647.386 204.146 647.881 203.839 648.233 203.226C648.585 202.612 648.761 201.737 648.761 200.601C648.761 199.845 648.68 199.202 648.518 198.67C648.359 198.139 648.129 197.734 647.828 197.456C647.53 197.177 647.17 197.038 646.75 197.038C646.119 197.038 645.626 197.349 645.271 197.971C644.916 198.591 644.739 199.467 644.739 200.601C644.739 201.356 644.818 201.998 644.977 202.527C645.136 203.055 645.365 203.457 645.663 203.733C645.964 204.008 646.327 204.146 646.75 204.146ZM654.25 205.084C653.608 205.084 653.061 204.909 652.609 204.56C652.158 204.207 651.813 203.697 651.574 203.03C651.335 202.359 651.216 201.55 651.216 200.601C651.216 199.658 651.335 198.852 651.574 198.185C651.815 197.514 652.162 197.003 652.614 196.65C653.068 196.295 653.614 196.118 654.25 196.118C654.886 196.118 655.43 196.295 655.882 196.65C656.337 197.003 656.683 197.514 656.922 198.185C657.163 198.852 657.284 199.658 657.284 200.601C657.284 201.55 657.165 202.359 656.926 203.03C656.688 203.697 656.342 204.207 655.891 204.56C655.439 204.909 654.892 205.084 654.25 205.084ZM654.25 204.146C654.886 204.146 655.381 203.839 655.733 203.226C656.085 202.612 656.261 201.737 656.261 200.601C656.261 199.845 656.18 199.202 656.018 198.67C655.859 198.139 655.629 197.734 655.328 197.456C655.03 197.177 654.67 197.038 654.25 197.038C653.619 197.038 653.126 197.349 652.771 197.971C652.416 198.591 652.239 199.467 652.239 200.601C652.239 201.356 652.318 201.998 652.477 202.527C652.636 203.055 652.865 203.457 653.163 203.733C653.464 204.008 653.827 204.146 654.25 204.146Z" fill="#6C6C71"/>
<line x1="674" y1="200.714" x2="1137" y2="200.714" stroke="#6C6C71" stroke-width="0.5"/>
<path opacity="0.5" d="M633.893 231.507V240.234H632.837V232.615H632.786L630.655 234.029V232.955L632.837 231.507H633.893ZM639.25 240.353C638.608 240.353 638.061 240.178 637.609 239.829C637.158 239.477 636.813 238.967 636.574 238.299C636.335 237.629 636.216 236.819 636.216 235.87C636.216 234.927 636.335 234.122 636.574 233.454C636.815 232.784 637.162 232.272 637.614 231.92C638.068 231.565 638.614 231.387 639.25 231.387C639.886 231.387 640.43 231.565 640.882 231.92C641.337 232.272 641.683 232.784 641.922 233.454C642.163 234.122 642.284 234.927 642.284 235.87C642.284 236.819 642.165 237.629 641.926 238.299C641.688 238.967 641.342 239.477 640.891 239.829C640.439 240.178 639.892 240.353 639.25 240.353ZM639.25 239.416C639.886 239.416 640.381 239.109 640.733 238.495C641.085 237.882 641.261 237.007 641.261 235.87C641.261 235.115 641.18 234.471 641.018 233.94C640.859 233.409 640.629 233.004 640.328 232.725C640.03 232.447 639.67 232.308 639.25 232.308C638.619 232.308 638.126 232.619 637.771 233.241C637.416 233.86 637.239 234.737 637.239 235.87C637.239 236.626 637.318 237.268 637.477 237.796C637.636 238.325 637.865 238.727 638.163 239.002C638.464 239.278 638.827 239.416 639.25 239.416ZM646.75 240.353C646.108 240.353 645.561 240.178 645.109 239.829C644.658 239.477 644.313 238.967 644.074 238.299C643.835 237.629 643.716 236.819 643.716 235.87C643.716 234.927 643.835 234.122 644.074 233.454C644.315 232.784 644.662 232.272 645.114 231.92C645.568 231.565 646.114 231.387 646.75 231.387C647.386 231.387 647.93 231.565 648.382 231.92C648.837 232.272 649.183 232.784 649.422 233.454C649.663 234.122 649.784 234.927 649.784 235.87C649.784 236.819 649.665 237.629 649.426 238.299C649.188 238.967 648.842 239.477 648.391 239.829C647.939 240.178 647.392 240.353 646.75 240.353ZM646.75 239.416C647.386 239.416 647.881 239.109 648.233 238.495C648.585 237.882 648.761 237.007 648.761 235.87C648.761 235.115 648.68 234.471 648.518 233.94C648.359 233.409 648.129 233.004 647.828 232.725C647.53 232.447 647.17 232.308 646.75 232.308C646.119 232.308 645.626 232.619 645.271 233.241C644.916 233.86 644.739 234.737 644.739 235.87C644.739 236.626 644.818 237.268 644.977 237.796C645.136 238.325 645.365 238.727 645.663 239.002C645.964 239.278 646.327 239.416 646.75 239.416ZM654.25 240.353C653.608 240.353 653.061 240.178 652.609 239.829C652.158 239.477 651.813 238.967 651.574 238.299C651.335 237.629 651.216 236.819 651.216 235.87C651.216 234.927 651.335 234.122 651.574 233.454C651.815 232.784 652.162 232.272 652.614 231.92C653.068 231.565 653.614 231.387 654.25 231.387C654.886 231.387 655.43 231.565 655.882 231.92C656.337 232.272 656.683 232.784 656.922 233.454C657.163 234.122 657.284 234.927 657.284 235.87C657.284 236.819 657.165 237.629 656.926 238.299C656.688 238.967 656.342 239.477 655.891 239.829C655.439 240.178 654.892 240.353 654.25 240.353ZM654.25 239.416C654.886 239.416 655.381 239.109 655.733 238.495C656.085 237.882 656.261 237.007 656.261 235.87C656.261 235.115 656.18 234.471 656.018 233.94C655.859 233.409 655.629 233.004 655.328 232.725C655.03 232.447 654.67 232.308 654.25 232.308C653.619 232.308 653.126 232.619 652.771 233.241C652.416 233.86 652.239 234.737 652.239 235.87C652.239 236.626 652.318 237.268 652.477 237.796C652.636 238.325 652.865 238.727 653.163 239.002C653.464 239.278 653.827 239.416 654.25 239.416Z" fill="#6C6C71"/>
<line x1="674" y1="235.984" x2="1137" y2="235.984" stroke="#6C6C71" stroke-width="0.5"/>
<path opacity="0.5" d="M654.25 275.622C653.608 275.622 653.061 275.448 652.609 275.098C652.158 274.746 651.813 274.236 651.574 273.568C651.335 272.898 651.216 272.088 651.216 271.139C651.216 270.196 651.335 269.391 651.574 268.723C651.815 268.053 652.162 267.541 652.614 267.189C653.068 266.834 653.614 266.656 654.25 266.656C654.886 266.656 655.43 266.834 655.882 267.189C656.337 267.541 656.683 268.053 656.922 268.723C657.163 269.391 657.284 270.196 657.284 271.139C657.284 272.088 657.165 272.898 656.926 273.568C656.688 274.236 656.342 274.746 655.891 275.098C655.439 275.448 654.892 275.622 654.25 275.622ZM654.25 274.685C654.886 274.685 655.381 274.378 655.733 273.764C656.085 273.151 656.261 272.276 656.261 271.139C656.261 270.384 656.18 269.74 656.018 269.209C655.859 268.678 655.629 268.273 655.328 267.994C655.03 267.716 654.67 267.577 654.25 267.577C653.619 267.577 653.126 267.888 652.771 268.51C652.416 269.129 652.239 270.006 652.239 271.139C652.239 271.895 652.318 272.537 652.477 273.065C652.636 273.594 652.865 273.996 653.163 274.271C653.464 274.547 653.827 274.685 654.25 274.685Z" fill="#6C6C71"/>
<line x1="674" y1="271.253" x2="1137" y2="271.253" stroke="#6C6C71" stroke-width="0.5"/>
<path d="M674.5 272C679.5 265.5 686.5 262.5 696.259 231.884C700.736 217.842 712.887 168.103 730.921 164.565C764.068 158.062 780.154 200.517 806.964 200.517C828.9 200.517 837.858 190.24 855.32 174.025C872.781 157.81 883.576 168.129 889.29 171.077C895.005 174.025 922.944 198.348 941.676 151.545C956.661 114.102 983.36 127.959 995.648 138.278C1008.62 147.122 1040.32 210.133 1061.91 199.519C1083.5 188.905 1122.84 174.025 1136 212.501" stroke="#F02E65"/>
<rect x="628" y="33" width="92" height="12" rx="6" fill="url(#paint0_linear_10_648)"/>
<rect x="1110" y="33" width="40" height="12" rx="6" fill="url(#paint1_linear_10_648)"/>
<path d="M31.3365 73V62.8182H34.8961C35.6054 62.8182 36.1904 62.9408 36.6511 63.1861C37.1118 63.428 37.4548 63.7545 37.6802 64.1655C37.9056 64.5732 38.0183 65.0256 38.0183 65.5227C38.0183 65.9602 37.9404 66.3215 37.7846 66.6065C37.6322 66.8916 37.43 67.117 37.1781 67.2827C36.9295 67.4484 36.6594 67.571 36.3677 67.6506V67.75C36.6793 67.7699 36.9925 67.8793 37.3074 68.0781C37.6222 68.277 37.8857 68.562 38.0978 68.9332C38.31 69.3045 38.416 69.7585 38.416 70.2955C38.416 70.8059 38.3 71.2649 38.068 71.6726C37.836 72.0803 37.4698 72.4034 36.9693 72.642C36.4688 72.8807 35.8175 73 35.0154 73H31.3365ZM32.5694 71.9062H35.0154C35.8208 71.9062 36.3926 71.7505 36.7306 71.4389C37.072 71.1241 37.2427 70.7429 37.2427 70.2955C37.2427 69.9508 37.1549 69.6326 36.9792 69.3409C36.8036 69.0459 36.5533 68.8106 36.2285 68.6349C35.9037 68.456 35.5192 68.3665 35.0751 68.3665H32.5694V71.9062ZM32.5694 67.2926H34.8564C35.2276 67.2926 35.5623 67.2197 35.8606 67.0739C36.1622 66.928 36.4009 66.7225 36.5765 66.4574C36.7555 66.1922 36.845 65.8807 36.845 65.5227C36.845 65.0753 36.6892 64.6958 36.3777 64.3842C36.0661 64.0694 35.5723 63.9119 34.8961 63.9119H32.5694V67.2926ZM42.53 73.179C42.0461 73.179 41.6069 73.0878 41.2125 72.9055C40.8181 72.7199 40.5049 72.4531 40.2729 72.1051C40.0409 71.7538 39.9249 71.3295 39.9249 70.8324C39.9249 70.3949 40.0111 70.0402 40.1834 69.7685C40.3558 69.4934 40.5861 69.2779 40.8745 69.1222C41.1628 68.9664 41.481 68.8504 41.829 68.7741C42.1803 68.6946 42.5333 68.6316 42.888 68.5852C43.352 68.5256 43.7282 68.4808 44.0165 68.451C44.3082 68.4179 44.5203 68.3632 44.6529 68.2869C44.7888 68.2107 44.8567 68.0781 44.8567 67.8892V67.8494C44.8567 67.3589 44.7225 66.9777 44.454 66.706C44.1889 66.4342 43.7862 66.2983 43.2459 66.2983C42.6858 66.2983 42.2466 66.4209 41.9284 66.6662C41.6103 66.9115 41.3865 67.1733 41.2573 67.4517L40.1436 67.054C40.3425 66.59 40.6077 66.2287 40.9391 65.9702C41.2739 65.7083 41.6384 65.526 42.0328 65.4233C42.4306 65.3172 42.8217 65.2642 43.2061 65.2642C43.4514 65.2642 43.7331 65.294 44.0513 65.3537C44.3728 65.41 44.6827 65.5277 44.981 65.7067C45.2826 65.8857 45.5328 66.1558 45.7317 66.517C45.9306 66.8783 46.03 67.3622 46.03 67.9688V73H44.8567V71.9659H44.7971C44.7175 72.1316 44.5849 72.3089 44.3993 72.4979C44.2137 72.6868 43.9668 72.8475 43.6586 72.9801C43.3503 73.1127 42.9741 73.179 42.53 73.179ZM42.709 72.125C43.173 72.125 43.5641 72.0339 43.8823 71.8516C44.2038 71.6693 44.4457 71.4339 44.6081 71.1456C44.7739 70.8572 44.8567 70.554 44.8567 70.2358V69.1619C44.807 69.2216 44.6976 69.2763 44.5286 69.326C44.3629 69.3724 44.1706 69.4138 43.9519 69.4503C43.7364 69.4834 43.526 69.5133 43.3205 69.5398C43.1183 69.563 42.9542 69.5829 42.8283 69.5994C42.5234 69.6392 42.2383 69.7038 41.9732 69.7933C41.7114 69.8795 41.4992 70.0104 41.3368 70.1861C41.1777 70.3584 41.0982 70.5937 41.0982 70.892C41.0982 71.2997 41.249 71.608 41.5506 71.8168C41.8555 72.0223 42.2417 72.125 42.709 72.125ZM49.3448 68.4062V73H48.1715V65.3636H49.305V66.5568H49.4045C49.5835 66.169 49.8552 65.8575 50.2198 65.6222C50.5844 65.3835 51.055 65.2642 51.6317 65.2642C52.1488 65.2642 52.6012 65.3703 52.989 65.5824C53.3768 65.7912 53.6784 66.1094 53.8938 66.5369C54.1093 66.9612 54.217 67.4981 54.217 68.1477V73H53.0437V68.2273C53.0437 67.6274 52.8879 67.16 52.5763 66.8253C52.2648 66.4872 51.8372 66.3182 51.2937 66.3182C50.9192 66.3182 50.5844 66.3994 50.2894 66.5618C49.9978 66.7242 49.7674 66.9612 49.5984 67.2727C49.4293 67.5843 49.3448 67.9621 49.3448 68.4062ZM59.2445 73.1591C58.6081 73.1591 58.0463 72.9983 57.5591 72.6768C57.0719 72.352 56.6908 71.8946 56.4157 71.3047C56.1406 70.7114 56.003 70.0104 56.003 69.2017C56.003 68.3996 56.1406 67.7036 56.4157 67.1136C56.6908 66.5237 57.0736 66.0679 57.5641 65.7464C58.0546 65.425 58.6214 65.2642 59.2644 65.2642C59.7615 65.2642 60.1543 65.3471 60.4426 65.5128C60.7343 65.6752 60.9564 65.8608 61.1088 66.0696C61.2646 66.2751 61.3856 66.4441 61.4718 66.5767H61.5712V62.8182H62.7445V73H61.611V71.8267H61.4718C61.3856 71.9659 61.263 72.1416 61.1039 72.3537C60.9448 72.5625 60.7177 72.7498 60.4228 72.9155C60.1278 73.0779 59.735 73.1591 59.2445 73.1591ZM59.4036 72.1051C59.8742 72.1051 60.272 71.9825 60.5968 71.7372C60.9216 71.4886 61.1685 71.1456 61.3375 70.7081C61.5066 70.2673 61.5911 69.7585 61.5911 69.1818C61.5911 68.6117 61.5082 68.1129 61.3425 67.6854C61.1768 67.2545 60.9315 66.9197 60.6067 66.6811C60.2819 66.4392 59.8809 66.3182 59.4036 66.3182C58.9064 66.3182 58.4921 66.4458 58.1607 66.701C57.8326 66.9529 57.5856 67.2959 57.4199 67.7301C57.2575 68.161 57.1763 68.6449 57.1763 69.1818C57.1763 69.7254 57.2592 70.2192 57.4249 70.6634C57.5939 71.1042 57.8425 71.4555 58.1706 71.7173C58.5021 71.9759 58.9131 72.1051 59.4036 72.1051ZM66.7864 73L64.4597 65.3636H65.6926L67.3432 71.2102H67.4228L69.0534 65.3636H70.3063L71.9171 71.1903H71.9966L73.6472 65.3636H74.8801L72.5534 73H71.4L69.7296 67.1335H69.6103L67.9398 73H66.7864ZM76.4313 73V65.3636H77.6046V73H76.4313ZM77.0279 64.0909C76.7992 64.0909 76.602 64.013 76.4363 63.8572C76.2739 63.7015 76.1926 63.5142 76.1926 63.2955C76.1926 63.0767 76.2739 62.8894 76.4363 62.7337C76.602 62.5779 76.7992 62.5 77.0279 62.5C77.2566 62.5 77.4521 62.5779 77.6145 62.7337C77.7802 62.8894 77.8631 63.0767 77.8631 63.2955C77.8631 63.5142 77.7802 63.7015 77.6145 63.8572C77.4521 64.013 77.2566 64.0909 77.0279 64.0909ZM82.6371 73.1591C82.0007 73.1591 81.4389 72.9983 80.9517 72.6768C80.4645 72.352 80.0833 71.8946 79.8082 71.3047C79.5331 70.7114 79.3956 70.0104 79.3956 69.2017C79.3956 68.3996 79.5331 67.7036 79.8082 67.1136C80.0833 66.5237 80.4661 66.0679 80.9567 65.7464C81.4472 65.425 82.014 65.2642 82.657 65.2642C83.1541 65.2642 83.5469 65.3471 83.8352 65.5128C84.1269 65.6752 84.349 65.8608 84.5014 66.0696C84.6572 66.2751 84.7782 66.4441 84.8643 66.5767H84.9638V62.8182H86.1371V73H85.0036V71.8267H84.8643C84.7782 71.9659 84.6555 72.1416 84.4964 72.3537C84.3374 72.5625 84.1103 72.7498 83.8153 72.9155C83.5204 73.0779 83.1276 73.1591 82.6371 73.1591ZM82.7962 72.1051C83.2668 72.1051 83.6645 71.9825 83.9893 71.7372C84.3142 71.4886 84.5611 71.1456 84.7301 70.7081C84.8991 70.2673 84.9837 69.7585 84.9837 69.1818C84.9837 68.6117 84.9008 68.1129 84.7351 67.6854C84.5694 67.2545 84.3241 66.9197 83.9993 66.6811C83.6745 66.4392 83.2734 66.3182 82.7962 66.3182C82.299 66.3182 81.8847 66.4458 81.5533 66.701C81.2251 66.9529 80.9782 67.2959 80.8125 67.7301C80.6501 68.161 80.5689 68.6449 80.5689 69.1818C80.5689 69.7254 80.6518 70.2192 80.8175 70.6634C80.9865 71.1042 81.2351 71.4555 81.5632 71.7173C81.8946 71.9759 82.3056 72.1051 82.7962 72.1051ZM91.7699 65.3636V66.358H87.8125V65.3636H91.7699ZM88.9659 63.5341H90.1392V70.8125C90.1392 71.1439 90.1873 71.3925 90.2834 71.5582C90.3828 71.7206 90.5088 71.83 90.6612 71.8864C90.817 71.9394 90.9811 71.9659 91.1534 71.9659C91.2827 71.9659 91.3887 71.9593 91.4716 71.946C91.5545 71.9295 91.6207 71.9162 91.6705 71.9062L91.9091 72.9602C91.8295 72.9901 91.7185 73.0199 91.576 73.0497C91.4335 73.0829 91.2528 73.0994 91.0341 73.0994C90.7027 73.0994 90.3778 73.0282 90.0597 72.8857C89.7448 72.7431 89.483 72.526 89.2741 72.2344C89.0687 71.9427 88.9659 71.5748 88.9659 71.1307V63.5341ZM94.8722 68.4062V73H93.6989V62.8182H94.8722V66.5568H94.9716C95.1506 66.1624 95.419 65.8492 95.777 65.6172C96.1383 65.3819 96.6188 65.2642 97.2188 65.2642C97.7391 65.2642 98.1948 65.3686 98.5859 65.5774C98.977 65.7829 99.2803 66.0994 99.4957 66.527C99.7145 66.9512 99.8239 67.4915 99.8239 68.1477V73H98.6506V68.2273C98.6506 67.6207 98.4931 67.1518 98.1783 66.8203C97.8667 66.4856 97.4342 66.3182 96.8807 66.3182C96.4962 66.3182 96.1515 66.3994 95.8466 66.5618C95.545 66.7242 95.3063 66.9612 95.1307 67.2727C94.9583 67.5843 94.8722 67.9621 94.8722 68.4062Z" fill="#616B7C"/>
<path d="M631.526 73V62.8182H634.966C635.762 62.8182 636.415 62.9541 636.925 63.2259C637.435 63.4943 637.813 63.8639 638.059 64.3345C638.304 64.8052 638.426 65.3404 638.426 65.9403C638.426 66.5402 638.304 67.0722 638.059 67.5362C637.813 68.0002 637.437 68.3648 636.93 68.63C636.423 68.8918 635.775 69.0227 634.986 69.0227H632.202V67.9091H634.946C635.49 67.9091 635.927 67.8295 636.259 67.6705C636.594 67.5114 636.836 67.286 636.985 66.9943C637.137 66.6993 637.213 66.348 637.213 65.9403C637.213 65.5327 637.137 65.1764 636.985 64.8714C636.832 64.5665 636.589 64.3312 636.254 64.1655C635.919 63.9964 635.477 63.9119 634.926 63.9119H632.759V73H631.526ZM636.319 68.4261L638.824 73H637.392L634.926 68.4261H636.319ZM643.442 73.1591C642.706 73.1591 642.071 72.9967 641.537 72.6719C641.007 72.3438 640.598 71.8864 640.309 71.2997C640.024 70.7098 639.882 70.0237 639.882 69.2415C639.882 68.4593 640.024 67.7699 640.309 67.1733C640.598 66.5734 640.999 66.1061 641.513 65.7713C642.03 65.4332 642.633 65.2642 643.322 65.2642C643.72 65.2642 644.113 65.3305 644.501 65.4631C644.888 65.5956 645.241 65.8111 645.559 66.1094C645.878 66.4044 646.131 66.7955 646.32 67.2827C646.509 67.7699 646.604 68.3698 646.604 69.0824V69.5795H640.717V68.5653H645.41C645.41 68.1345 645.324 67.75 645.152 67.4119C644.983 67.0739 644.741 66.8071 644.426 66.6115C644.114 66.416 643.747 66.3182 643.322 66.3182C642.855 66.3182 642.451 66.4342 642.109 66.6662C641.771 66.8949 641.511 67.1932 641.329 67.5611C641.146 67.929 641.055 68.3234 641.055 68.7443V69.4205C641.055 69.9972 641.155 70.486 641.354 70.8871C641.556 71.2848 641.836 71.5881 642.194 71.7969C642.552 72.0024 642.968 72.1051 643.442 72.1051C643.75 72.1051 644.028 72.062 644.277 71.9759C644.529 71.8864 644.746 71.7538 644.928 71.5781C645.11 71.3991 645.251 71.1771 645.351 70.9119L646.484 71.2301C646.365 71.6146 646.164 71.9527 645.883 72.2443C645.601 72.5327 645.253 72.758 644.839 72.9205C644.424 73.0795 643.959 73.1591 643.442 73.1591ZM653.599 75.8636V71.8267H653.499C653.413 71.9659 653.29 72.1416 653.131 72.3537C652.972 72.5625 652.745 72.7498 652.45 72.9155C652.155 73.0779 651.762 73.1591 651.272 73.1591C650.635 73.1591 650.074 72.9983 649.586 72.6768C649.099 72.352 648.718 71.8946 648.443 71.3047C648.168 70.7114 648.03 70.0104 648.03 69.2017C648.03 68.3996 648.168 67.7036 648.443 67.1136C648.718 66.5237 649.101 66.0679 649.591 65.7464C650.082 65.425 650.649 65.2642 651.292 65.2642C651.789 65.2642 652.182 65.3471 652.47 65.5128C652.762 65.6752 652.984 65.8608 653.136 66.0696C653.292 66.2751 653.413 66.4441 653.499 66.5767H653.638V65.3636H654.772V75.8636H653.599ZM651.431 72.1051C651.902 72.1051 652.299 71.9825 652.624 71.7372C652.949 71.4886 653.196 71.1456 653.365 70.7081C653.534 70.2673 653.618 69.7585 653.618 69.1818C653.618 68.6117 653.536 68.1129 653.37 67.6854C653.204 67.2545 652.959 66.9197 652.634 66.6811C652.309 66.4392 651.908 66.3182 651.431 66.3182C650.934 66.3182 650.519 66.4458 650.188 66.701C649.86 66.9529 649.613 67.2959 649.447 67.7301C649.285 68.161 649.204 68.6449 649.204 69.1818C649.204 69.7254 649.287 70.2192 649.452 70.6634C649.621 71.1042 649.87 71.4555 650.198 71.7173C650.529 71.9759 650.94 72.1051 651.431 72.1051ZM661.732 69.8778V65.3636H662.905V73H661.732V71.7074H661.653C661.474 72.0952 661.195 72.425 660.817 72.6967C660.439 72.9652 659.962 73.0994 659.385 73.0994C658.908 73.0994 658.484 72.995 658.113 72.7862C657.742 72.5741 657.45 72.2559 657.238 71.8317C657.026 71.4041 656.92 70.8655 656.92 70.2159V65.3636H658.093V70.1364C658.093 70.6932 658.249 71.1373 658.56 71.4688C658.875 71.8002 659.276 71.9659 659.763 71.9659C660.055 71.9659 660.352 71.8913 660.653 71.7422C660.958 71.593 661.213 71.3643 661.419 71.0561C661.628 70.7479 661.732 70.3551 661.732 69.8778ZM668.256 73.1591C667.52 73.1591 666.886 72.9967 666.352 72.6719C665.822 72.3438 665.412 71.8864 665.124 71.2997C664.839 70.7098 664.696 70.0237 664.696 69.2415C664.696 68.4593 664.839 67.7699 665.124 67.1733C665.412 66.5734 665.813 66.1061 666.327 65.7713C666.844 65.4332 667.447 65.2642 668.137 65.2642C668.534 65.2642 668.927 65.3305 669.315 65.4631C669.703 65.5956 670.056 65.8111 670.374 66.1094C670.692 66.4044 670.946 66.7955 671.135 67.2827C671.324 67.7699 671.418 68.3698 671.418 69.0824V69.5795H665.532V68.5653H670.225C670.225 68.1345 670.139 67.75 669.966 67.4119C669.797 67.0739 669.555 66.8071 669.24 66.6115C668.929 66.416 668.561 66.3182 668.137 66.3182C667.669 66.3182 667.265 66.4342 666.924 66.6662C666.586 66.8949 666.325 67.1932 666.143 67.5611C665.961 67.929 665.87 68.3234 665.87 68.7443V69.4205C665.87 69.9972 665.969 70.486 666.168 70.8871C666.37 71.2848 666.65 71.5881 667.008 71.7969C667.366 72.0024 667.782 72.1051 668.256 72.1051C668.564 72.1051 668.843 72.062 669.091 71.9759C669.343 71.8864 669.56 71.7538 669.743 71.5781C669.925 71.3991 670.066 71.1771 670.165 70.9119L671.299 71.2301C671.179 71.6146 670.979 71.9527 670.697 72.2443C670.415 72.5327 670.067 72.758 669.653 72.9205C669.239 73.0795 668.773 73.1591 668.256 73.1591ZM678.612 67.0739L677.558 67.3722C677.492 67.1965 677.394 67.0258 677.265 66.8601C677.139 66.6911 676.966 66.5518 676.748 66.4425C676.529 66.3331 676.249 66.2784 675.907 66.2784C675.44 66.2784 675.051 66.3861 674.739 66.6016C674.431 66.8137 674.277 67.0838 674.277 67.4119C674.277 67.7036 674.383 67.9339 674.595 68.103C674.807 68.272 675.138 68.4129 675.589 68.5256L676.723 68.804C677.405 68.9697 677.914 69.2232 678.249 69.5646C678.584 69.9027 678.751 70.3385 678.751 70.8722C678.751 71.3097 678.625 71.7008 678.373 72.0455C678.125 72.3902 677.777 72.6619 677.329 72.8608C676.882 73.0597 676.361 73.1591 675.768 73.1591C674.989 73.1591 674.345 72.9901 673.834 72.652C673.324 72.3139 673.001 71.8201 672.865 71.1705L673.978 70.892C674.084 71.303 674.285 71.6113 674.58 71.8168C674.878 72.0223 675.268 72.125 675.748 72.125C676.295 72.125 676.729 72.009 677.051 71.777C677.376 71.5417 677.538 71.2599 677.538 70.9318C677.538 70.6667 677.445 70.4446 677.26 70.2656C677.074 70.0833 676.789 69.9474 676.404 69.858L675.132 69.5597C674.432 69.3939 673.919 69.1371 673.591 68.7891C673.266 68.4377 673.103 67.9986 673.103 67.4716C673.103 67.0407 673.224 66.6596 673.466 66.3281C673.712 65.9967 674.045 65.7365 674.466 65.5476C674.89 65.3587 675.37 65.2642 675.907 65.2642C676.663 65.2642 677.256 65.4299 677.687 65.7614C678.121 66.0928 678.43 66.5303 678.612 67.0739ZM683.838 65.3636V66.358H679.881V65.3636H683.838ZM681.034 63.5341H682.208V70.8125C682.208 71.1439 682.256 71.3925 682.352 71.5582C682.451 71.7206 682.577 71.83 682.73 71.8864C682.885 71.9394 683.049 71.9659 683.222 71.9659C683.351 71.9659 683.457 71.9593 683.54 71.946C683.623 71.9295 683.689 71.9162 683.739 71.9062L683.977 72.9602C683.898 72.9901 683.787 73.0199 683.644 73.0497C683.502 73.0829 683.321 73.0994 683.102 73.0994C682.771 73.0994 682.446 73.0282 682.128 72.8857C681.813 72.7431 681.551 72.526 681.343 72.2344C681.137 71.9427 681.034 71.5748 681.034 71.1307V63.5341ZM690.876 67.0739L689.822 67.3722C689.755 67.1965 689.657 67.0258 689.528 66.8601C689.402 66.6911 689.23 66.5518 689.011 66.4425C688.792 66.3331 688.512 66.2784 688.171 66.2784C687.704 66.2784 687.314 66.3861 687.003 66.6016C686.694 66.8137 686.54 67.0838 686.54 67.4119C686.54 67.7036 686.646 67.9339 686.858 68.103C687.071 68.272 687.402 68.4129 687.853 68.5256L688.986 68.804C689.669 68.9697 690.178 69.2232 690.513 69.5646C690.847 69.9027 691.015 70.3385 691.015 70.8722C691.015 71.3097 690.889 71.7008 690.637 72.0455C690.388 72.3902 690.04 72.6619 689.593 72.8608C689.145 73.0597 688.625 73.1591 688.032 73.1591C687.253 73.1591 686.608 72.9901 686.098 72.652C685.587 72.3139 685.264 71.8201 685.128 71.1705L686.242 70.892C686.348 71.303 686.549 71.6113 686.844 71.8168C687.142 72.0223 687.531 72.125 688.012 72.125C688.559 72.125 688.993 72.009 689.314 71.777C689.639 71.5417 689.802 71.2599 689.802 70.9318C689.802 70.6667 689.709 70.4446 689.523 70.2656C689.338 70.0833 689.053 69.9474 688.668 69.858L687.395 69.5597C686.696 69.3939 686.182 69.1371 685.854 68.7891C685.529 68.4377 685.367 67.9986 685.367 67.4716C685.367 67.0407 685.488 66.6596 685.73 66.3281C685.975 65.9967 686.308 65.7365 686.729 65.5476C687.153 65.3587 687.634 65.2642 688.171 65.2642C688.927 65.2642 689.52 65.4299 689.951 65.7614C690.385 66.0928 690.693 66.5303 690.876 67.0739Z" fill="#616B7C"/>
<rect x="30" y="33" width="92" height="12" rx="6" fill="url(#paint2_linear_10_648)"/>
<rect x="512" y="33" width="40" height="12" rx="6" fill="url(#paint3_linear_10_648)"/>
<rect x="0.5" y="0.5" width="1167" height="341" rx="15.5" fill="url(#paint4_radial_10_648)" stroke="#2D2D31"/>
<defs>
<linearGradient id="paint0_linear_10_648" x1="628" y1="39" x2="712" y2="39" gradientUnits="userSpaceOnUse">
<stop stop-color="#6C6C71"/>
<stop offset="1" stop-color="#232325" stop-opacity="0.9"/>
</linearGradient>
<linearGradient id="paint1_linear_10_648" x1="1107" y1="40" x2="1150" y2="40.5" gradientUnits="userSpaceOnUse">
<stop stop-color="#6C6C71"/>
<stop offset="1" stop-color="#1B1B28"/>
</linearGradient>
<linearGradient id="paint2_linear_10_648" x1="30" y1="39" x2="114" y2="39" gradientUnits="userSpaceOnUse">
<stop stop-color="#6C6C71"/>
<stop offset="1" stop-color="#19191C"/>
</linearGradient>
<linearGradient id="paint3_linear_10_648" x1="509" y1="40" x2="552" y2="40.5" gradientUnits="userSpaceOnUse">
<stop stop-color="#6C6C71"/>
<stop offset="1" stop-color="#E8E9F0" stop-opacity="0"/>
</linearGradient>
<radialGradient id="paint4_radial_10_648" cx="0" cy="0" r="1" gradientUnits="userSpaceOnUse" gradientTransform="translate(1138.42 171) rotate(180) scale(1121.88 7550.23)">
<stop stop-color="#18181B" stop-opacity="0"/>
<stop offset="0.239583" stop-color="#18181B" stop-opacity="0.76"/>
<stop offset="0.505208" stop-color="#18181B"/>
<stop offset="0.756132" stop-color="#18181B" stop-opacity="0.74"/>
<stop offset="1" stop-color="#18181B" stop-opacity="0"/>
</radialGradient>
</defs>
</svg>
