<svg width="360" height="342" viewBox="0 0 360 342" fill="none" xmlns="http://www.w3.org/2000/svg">
<rect x="1" y="1" width="358" height="340" rx="16" fill="white" stroke="#FAFAFB"/>
<path opacity="0.5" d="M38.1378 132V131.233L41.0185 128.08C41.3565 127.71 41.6349 127.389 41.8537 127.116C42.0724 126.841 42.2344 126.582 42.3395 126.341C42.4474 126.097 42.5014 125.841 42.5014 125.574C42.5014 125.267 42.4276 125.001 42.2798 124.777C42.1349 124.553 41.9361 124.379 41.6832 124.257C41.4304 124.135 41.1463 124.074 40.831 124.074C40.4957 124.074 40.2031 124.143 39.9531 124.283C39.706 124.419 39.5142 124.611 39.3778 124.858C39.2443 125.105 39.1776 125.395 39.1776 125.727H38.1719C38.1719 125.216 38.2898 124.767 38.5256 124.381C38.7614 123.994 39.0824 123.693 39.4886 123.477C39.8977 123.261 40.3565 123.153 40.8651 123.153C41.3764 123.153 41.8295 123.261 42.2244 123.477C42.6193 123.693 42.929 123.984 43.1534 124.351C43.3778 124.717 43.4901 125.125 43.4901 125.574C43.4901 125.895 43.4318 126.209 43.3153 126.516C43.2017 126.82 43.0028 127.159 42.7188 127.534C42.4375 127.906 42.0469 128.361 41.5469 128.898L39.5866 130.994V131.062H43.6435V132H38.1378ZM48.25 132.119C47.608 132.119 47.0611 131.945 46.6094 131.595C46.1577 131.243 45.8125 130.733 45.5739 130.065C45.3352 129.395 45.2159 128.585 45.2159 127.636C45.2159 126.693 45.3352 125.888 45.5739 125.22C45.8153 124.55 46.1619 124.038 46.6136 123.686C47.0682 123.331 47.6136 123.153 48.25 123.153C48.8864 123.153 49.4304 123.331 49.8821 123.686C50.3366 124.038 50.6832 124.55 50.9219 125.22C51.1634 125.888 51.2841 126.693 51.2841 127.636C51.2841 128.585 51.1648 129.395 50.9261 130.065C50.6875 130.733 50.3423 131.243 49.8906 131.595C49.4389 131.945 48.892 132.119 48.25 132.119ZM48.25 131.182C48.8864 131.182 49.3807 130.875 49.733 130.261C50.0852 129.648 50.2614 128.773 50.2614 127.636C50.2614 126.881 50.1804 126.237 50.0185 125.706C49.8594 125.175 49.6293 124.77 49.3281 124.491C49.0298 124.213 48.6705 124.074 48.25 124.074C47.6193 124.074 47.1264 124.385 46.7713 125.007C46.4162 125.626 46.2386 126.503 46.2386 127.636C46.2386 128.392 46.3182 129.034 46.4773 129.562C46.6364 130.091 46.8651 130.493 47.1634 130.768C47.4645 131.044 47.8267 131.182 48.25 131.182ZM55.75 132.119C55.108 132.119 54.5611 131.945 54.1094 131.595C53.6577 131.243 53.3125 130.733 53.0739 130.065C52.8352 129.395 52.7159 128.585 52.7159 127.636C52.7159 126.693 52.8352 125.888 53.0739 125.22C53.3153 124.55 53.6619 124.038 54.1136 123.686C54.5682 123.331 55.1136 123.153 55.75 123.153C56.3864 123.153 56.9304 123.331 57.3821 123.686C57.8366 124.038 58.1832 124.55 58.4219 125.22C58.6634 125.888 58.7841 126.693 58.7841 127.636C58.7841 128.585 58.6648 129.395 58.4261 130.065C58.1875 130.733 57.8423 131.243 57.3906 131.595C56.9389 131.945 56.392 132.119 55.75 132.119ZM55.75 131.182C56.3864 131.182 56.8807 130.875 57.233 130.261C57.5852 129.648 57.7614 128.773 57.7614 127.636C57.7614 126.881 57.6804 126.237 57.5185 125.706C57.3594 125.175 57.1293 124.77 56.8281 124.491C56.5298 124.213 56.1705 124.074 55.75 124.074C55.1193 124.074 54.6264 124.385 54.2713 125.007C53.9162 125.626 53.7386 126.503 53.7386 127.636C53.7386 128.392 53.8182 129.034 53.9773 129.562C54.1364 130.091 54.3651 130.493 54.6634 130.768C54.9645 131.044 55.3267 131.182 55.75 131.182ZM63.25 132.119C62.608 132.119 62.0611 131.945 61.6094 131.595C61.1577 131.243 60.8125 130.733 60.5739 130.065C60.3352 129.395 60.2159 128.585 60.2159 127.636C60.2159 126.693 60.3352 125.888 60.5739 125.22C60.8153 124.55 61.1619 124.038 61.6136 123.686C62.0682 123.331 62.6136 123.153 63.25 123.153C63.8864 123.153 64.4304 123.331 64.8821 123.686C65.3366 124.038 65.6832 124.55 65.9219 125.22C66.1634 125.888 66.2841 126.693 66.2841 127.636C66.2841 128.585 66.1648 129.395 65.9261 130.065C65.6875 130.733 65.3423 131.243 64.8906 131.595C64.4389 131.945 63.892 132.119 63.25 132.119ZM63.25 131.182C63.8864 131.182 64.3807 130.875 64.733 130.261C65.0852 129.648 65.2614 128.773 65.2614 127.636C65.2614 126.881 65.1804 126.237 65.0185 125.706C64.8594 125.175 64.6293 124.77 64.3281 124.491C64.0298 124.213 63.6705 124.074 63.25 124.074C62.6193 124.074 62.1264 124.385 61.7713 125.007C61.4162 125.626 61.2386 126.503 61.2386 127.636C61.2386 128.392 61.3182 129.034 61.4773 129.562C61.6364 130.091 61.8651 130.493 62.1634 130.768C62.4645 131.044 62.8267 131.182 63.25 131.182Z" fill="#818186"/>
<line x1="83" y1="127.75" x2="327" y2="127.75" stroke="#D8D8DB" stroke-width="0.5"/>
<path opacity="0.5" d="M43.0927 160.273V169H42.0359V161.381H41.9847L39.854 162.795V161.722L42.0359 160.273H43.0927ZM48.3299 169.119C47.8299 169.119 47.3796 169.02 46.979 168.821C46.5785 168.622 46.2575 168.349 46.016 168.003C45.7745 167.656 45.6424 167.261 45.6197 166.818H46.6424C46.6822 167.213 46.8612 167.54 47.1793 167.798C47.5004 168.054 47.8839 168.182 48.3299 168.182C48.6879 168.182 49.006 168.098 49.2844 167.93C49.5657 167.763 49.7859 167.533 49.945 167.24C50.1069 166.945 50.1879 166.611 50.1879 166.239C50.1879 165.858 50.104 165.518 49.9364 165.22C49.7717 164.919 49.5444 164.682 49.2546 164.509C48.9648 164.335 48.6339 164.247 48.2617 164.244C47.9947 164.241 47.7205 164.283 47.4393 164.368C47.158 164.45 46.9265 164.557 46.7447 164.688L45.756 164.568L46.2844 160.273H50.8185V161.21H47.1708L46.864 163.784H46.9151C47.0941 163.642 47.3185 163.524 47.5884 163.43C47.8583 163.337 48.1396 163.29 48.4322 163.29C48.9663 163.29 49.4421 163.418 49.8597 163.673C50.2802 163.926 50.6097 164.273 50.8484 164.713C51.0898 165.153 51.2106 165.656 51.2106 166.222C51.2106 166.778 51.0856 167.276 50.8356 167.713C50.5884 168.148 50.2475 168.491 49.8129 168.744C49.3782 168.994 48.8839 169.119 48.3299 169.119ZM55.75 169.119C55.108 169.119 54.5611 168.945 54.1094 168.595C53.6577 168.243 53.3125 167.733 53.0739 167.065C52.8352 166.395 52.7159 165.585 52.7159 164.636C52.7159 163.693 52.8352 162.888 53.0739 162.22C53.3153 161.55 53.6619 161.038 54.1136 160.686C54.5682 160.331 55.1136 160.153 55.75 160.153C56.3864 160.153 56.9304 160.331 57.3821 160.686C57.8366 161.038 58.1832 161.55 58.4219 162.22C58.6634 162.888 58.7841 163.693 58.7841 164.636C58.7841 165.585 58.6648 166.395 58.4261 167.065C58.1875 167.733 57.8423 168.243 57.3906 168.595C56.9389 168.945 56.392 169.119 55.75 169.119ZM55.75 168.182C56.3864 168.182 56.8807 167.875 57.233 167.261C57.5852 166.648 57.7614 165.773 57.7614 164.636C57.7614 163.881 57.6804 163.237 57.5185 162.706C57.3594 162.175 57.1293 161.77 56.8281 161.491C56.5298 161.213 56.1705 161.074 55.75 161.074C55.1193 161.074 54.6264 161.385 54.2713 162.007C53.9162 162.626 53.7386 163.503 53.7386 164.636C53.7386 165.392 53.8182 166.034 53.9773 166.562C54.1364 167.091 54.3651 167.493 54.6634 167.768C54.9645 168.044 55.3267 168.182 55.75 168.182ZM63.25 169.119C62.608 169.119 62.0611 168.945 61.6094 168.595C61.1577 168.243 60.8125 167.733 60.5739 167.065C60.3352 166.395 60.2159 165.585 60.2159 164.636C60.2159 163.693 60.3352 162.888 60.5739 162.22C60.8153 161.55 61.1619 161.038 61.6136 160.686C62.0682 160.331 62.6136 160.153 63.25 160.153C63.8864 160.153 64.4304 160.331 64.8821 160.686C65.3366 161.038 65.6832 161.55 65.9219 162.22C66.1634 162.888 66.2841 163.693 66.2841 164.636C66.2841 165.585 66.1648 166.395 65.9261 167.065C65.6875 167.733 65.3423 168.243 64.8906 168.595C64.4389 168.945 63.892 169.119 63.25 169.119ZM63.25 168.182C63.8864 168.182 64.3807 167.875 64.733 167.261C65.0852 166.648 65.2614 165.773 65.2614 164.636C65.2614 163.881 65.1804 163.237 65.0185 162.706C64.8594 162.175 64.6293 161.77 64.3281 161.491C64.0298 161.213 63.6705 161.074 63.25 161.074C62.6193 161.074 62.1264 161.385 61.7713 162.007C61.4162 162.626 61.2386 163.503 61.2386 164.636C61.2386 165.392 61.3182 166.034 61.4773 166.562C61.6364 167.091 61.8651 167.493 62.1634 167.768C62.4645 168.044 62.8267 168.182 63.25 168.182Z" fill="#818186"/>
<line x1="83" y1="164.75" x2="327" y2="164.75" stroke="#D8D8DB" stroke-width="0.5"/>
<path opacity="0.5" d="M42.8935 198.773V207.5H41.8366V199.881H41.7855L39.6548 201.295V200.222L41.8366 198.773H42.8935ZM48.25 207.619C47.608 207.619 47.0611 207.445 46.6094 207.095C46.1577 206.743 45.8125 206.233 45.5739 205.565C45.3352 204.895 45.2159 204.085 45.2159 203.136C45.2159 202.193 45.3352 201.388 45.5739 200.72C45.8153 200.05 46.1619 199.538 46.6136 199.186C47.0682 198.831 47.6136 198.653 48.25 198.653C48.8864 198.653 49.4304 198.831 49.8821 199.186C50.3366 199.538 50.6832 200.05 50.9219 200.72C51.1634 201.388 51.2841 202.193 51.2841 203.136C51.2841 204.085 51.1648 204.895 50.9261 205.565C50.6875 206.233 50.3423 206.743 49.8906 207.095C49.4389 207.445 48.892 207.619 48.25 207.619ZM48.25 206.682C48.8864 206.682 49.3807 206.375 49.733 205.761C50.0852 205.148 50.2614 204.273 50.2614 203.136C50.2614 202.381 50.1804 201.737 50.0185 201.206C49.8594 200.675 49.6293 200.27 49.3281 199.991C49.0298 199.713 48.6705 199.574 48.25 199.574C47.6193 199.574 47.1264 199.885 46.7713 200.507C46.4162 201.126 46.2386 202.003 46.2386 203.136C46.2386 203.892 46.3182 204.534 46.4773 205.062C46.6364 205.591 46.8651 205.993 47.1634 206.268C47.4645 206.544 47.8267 206.682 48.25 206.682ZM55.75 207.619C55.108 207.619 54.5611 207.445 54.1094 207.095C53.6577 206.743 53.3125 206.233 53.0739 205.565C52.8352 204.895 52.7159 204.085 52.7159 203.136C52.7159 202.193 52.8352 201.388 53.0739 200.72C53.3153 200.05 53.6619 199.538 54.1136 199.186C54.5682 198.831 55.1136 198.653 55.75 198.653C56.3864 198.653 56.9304 198.831 57.3821 199.186C57.8366 199.538 58.1832 200.05 58.4219 200.72C58.6634 201.388 58.7841 202.193 58.7841 203.136C58.7841 204.085 58.6648 204.895 58.4261 205.565C58.1875 206.233 57.8423 206.743 57.3906 207.095C56.9389 207.445 56.392 207.619 55.75 207.619ZM55.75 206.682C56.3864 206.682 56.8807 206.375 57.233 205.761C57.5852 205.148 57.7614 204.273 57.7614 203.136C57.7614 202.381 57.6804 201.737 57.5185 201.206C57.3594 200.675 57.1293 200.27 56.8281 199.991C56.5298 199.713 56.1705 199.574 55.75 199.574C55.1193 199.574 54.6264 199.885 54.2713 200.507C53.9162 201.126 53.7386 202.003 53.7386 203.136C53.7386 203.892 53.8182 204.534 53.9773 205.062C54.1364 205.591 54.3651 205.993 54.6634 206.268C54.9645 206.544 55.3267 206.682 55.75 206.682ZM63.25 207.619C62.608 207.619 62.0611 207.445 61.6094 207.095C61.1577 206.743 60.8125 206.233 60.5739 205.565C60.3352 204.895 60.2159 204.085 60.2159 203.136C60.2159 202.193 60.3352 201.388 60.5739 200.72C60.8153 200.05 61.1619 199.538 61.6136 199.186C62.0682 198.831 62.6136 198.653 63.25 198.653C63.8864 198.653 64.4304 198.831 64.8821 199.186C65.3366 199.538 65.6832 200.05 65.9219 200.72C66.1634 201.388 66.2841 202.193 66.2841 203.136C66.2841 204.085 66.1648 204.895 65.9261 205.565C65.6875 206.233 65.3423 206.743 64.8906 207.095C64.4389 207.445 63.892 207.619 63.25 207.619ZM63.25 206.682C63.8864 206.682 64.3807 206.375 64.733 205.761C65.0852 205.148 65.2614 204.273 65.2614 203.136C65.2614 202.381 65.1804 201.737 65.0185 201.206C64.8594 200.675 64.6293 200.27 64.3281 199.991C64.0298 199.713 63.6705 199.574 63.25 199.574C62.6193 199.574 62.1264 199.885 61.7713 200.507C61.4162 201.126 61.2386 202.003 61.2386 203.136C61.2386 203.892 61.3182 204.534 61.4773 205.062C61.6364 205.591 61.8651 205.993 62.1634 206.268C62.4645 206.544 62.8267 206.682 63.25 206.682Z" fill="#818186"/>
<line x1="83" y1="203.25" x2="327" y2="203.25" stroke="#D8D8DB" stroke-width="0.5"/>
<path opacity="0.5" d="M48.3299 245.119C47.8299 245.119 47.3796 245.02 46.979 244.821C46.5785 244.622 46.2575 244.349 46.016 244.003C45.7745 243.656 45.6424 243.261 45.6197 242.818H46.6424C46.6822 243.213 46.8612 243.54 47.1793 243.798C47.5004 244.054 47.8839 244.182 48.3299 244.182C48.6879 244.182 49.006 244.098 49.2844 243.93C49.5657 243.763 49.7859 243.533 49.945 243.24C50.1069 242.945 50.1879 242.611 50.1879 242.239C50.1879 241.858 50.104 241.518 49.9364 241.22C49.7717 240.919 49.5444 240.682 49.2546 240.509C48.9648 240.335 48.6339 240.247 48.2617 240.244C47.9947 240.241 47.7205 240.283 47.4393 240.368C47.158 240.45 46.9265 240.557 46.7447 240.688L45.756 240.568L46.2844 236.273H50.8185V237.21H47.1708L46.864 239.784H46.9151C47.0941 239.642 47.3185 239.524 47.5884 239.43C47.8583 239.337 48.1396 239.29 48.4322 239.29C48.9663 239.29 49.4421 239.418 49.8597 239.673C50.2802 239.926 50.6097 240.273 50.8484 240.713C51.0898 241.153 51.2106 241.656 51.2106 242.222C51.2106 242.778 51.0856 243.276 50.8356 243.713C50.5884 244.148 50.2475 244.491 49.8129 244.744C49.3782 244.994 48.8839 245.119 48.3299 245.119ZM55.75 245.119C55.108 245.119 54.5611 244.945 54.1094 244.595C53.6577 244.243 53.3125 243.733 53.0739 243.065C52.8352 242.395 52.7159 241.585 52.7159 240.636C52.7159 239.693 52.8352 238.888 53.0739 238.22C53.3153 237.55 53.6619 237.038 54.1136 236.686C54.5682 236.331 55.1136 236.153 55.75 236.153C56.3864 236.153 56.9304 236.331 57.3821 236.686C57.8366 237.038 58.1832 237.55 58.4219 238.22C58.6634 238.888 58.7841 239.693 58.7841 240.636C58.7841 241.585 58.6648 242.395 58.4261 243.065C58.1875 243.733 57.8423 244.243 57.3906 244.595C56.9389 244.945 56.392 245.119 55.75 245.119ZM55.75 244.182C56.3864 244.182 56.8807 243.875 57.233 243.261C57.5852 242.648 57.7614 241.773 57.7614 240.636C57.7614 239.881 57.6804 239.237 57.5185 238.706C57.3594 238.175 57.1293 237.77 56.8281 237.491C56.5298 237.213 56.1705 237.074 55.75 237.074C55.1193 237.074 54.6264 237.385 54.2713 238.007C53.9162 238.626 53.7386 239.503 53.7386 240.636C53.7386 241.392 53.8182 242.034 53.9773 242.562C54.1364 243.091 54.3651 243.493 54.6634 243.768C54.9645 244.044 55.3267 244.182 55.75 244.182ZM63.25 245.119C62.608 245.119 62.0611 244.945 61.6094 244.595C61.1577 244.243 60.8125 243.733 60.5739 243.065C60.3352 242.395 60.2159 241.585 60.2159 240.636C60.2159 239.693 60.3352 238.888 60.5739 238.22C60.8153 237.55 61.1619 237.038 61.6136 236.686C62.0682 236.331 62.6136 236.153 63.25 236.153C63.8864 236.153 64.4304 236.331 64.8821 236.686C65.3366 237.038 65.6832 237.55 65.9219 238.22C66.1634 238.888 66.2841 239.693 66.2841 240.636C66.2841 241.585 66.1648 242.395 65.9261 243.065C65.6875 243.733 65.3423 244.243 64.8906 244.595C64.4389 244.945 63.892 245.119 63.25 245.119ZM63.25 244.182C63.8864 244.182 64.3807 243.875 64.733 243.261C65.0852 242.648 65.2614 241.773 65.2614 240.636C65.2614 239.881 65.1804 239.237 65.0185 238.706C64.8594 238.175 64.6293 237.77 64.3281 237.491C64.0298 237.213 63.6705 237.074 63.25 237.074C62.6193 237.074 62.1264 237.385 61.7713 238.007C61.4162 238.626 61.2386 239.503 61.2386 240.636C61.2386 241.392 61.3182 242.034 61.4773 242.562C61.6364 243.091 61.8651 243.493 62.1634 243.768C62.4645 244.044 62.8267 244.182 63.25 244.182Z" fill="#818186"/>
<line x1="83" y1="240.75" x2="327" y2="240.75" stroke="#D8D8DB" stroke-width="0.5"/>
<path opacity="0.5" d="M63.25 282.119C62.608 282.119 62.0611 281.945 61.6094 281.595C61.1577 281.243 60.8125 280.733 60.5739 280.065C60.3352 279.395 60.2159 278.585 60.2159 277.636C60.2159 276.693 60.3352 275.888 60.5739 275.22C60.8153 274.55 61.1619 274.038 61.6136 273.686C62.0682 273.331 62.6136 273.153 63.25 273.153C63.8864 273.153 64.4304 273.331 64.8821 273.686C65.3366 274.038 65.6832 274.55 65.9219 275.22C66.1634 275.888 66.2841 276.693 66.2841 277.636C66.2841 278.585 66.1648 279.395 65.9261 280.065C65.6875 280.733 65.3423 281.243 64.8906 281.595C64.4389 281.945 63.892 282.119 63.25 282.119ZM63.25 281.182C63.8864 281.182 64.3807 280.875 64.733 280.261C65.0852 279.648 65.2614 278.773 65.2614 277.636C65.2614 276.881 65.1804 276.237 65.0185 275.706C64.8594 275.175 64.6293 274.77 64.3281 274.491C64.0298 274.213 63.6705 274.074 63.25 274.074C62.6193 274.074 62.1264 274.385 61.7713 275.007C61.4162 275.626 61.2386 276.503 61.2386 277.636C61.2386 278.392 61.3182 279.034 61.4773 279.562C61.6364 280.091 61.8651 280.493 62.1634 280.768C62.4645 281.044 62.8267 281.182 63.25 281.182Z" fill="#818186"/>
<line x1="83" y1="277.75" x2="327" y2="277.75" stroke="#D8D8DB" stroke-width="0.5"/>
<path d="M83 164.761C83 163.236 84.2363 162 85.7614 162V162C87.2865 162 88.5229 163.236 88.5229 164.761V278.369H83V164.761Z" fill="#F02E65" fill-opacity="0.4"/>
<path d="M83 220.416C83 218.891 84.2363 217.655 85.7614 217.655V217.655C87.2865 217.655 88.5229 218.891 88.5229 220.416V278.369H83V220.416Z" fill="#F02E65"/>
<path d="M98.6484 203.214C98.6484 201.688 99.8848 200.452 101.41 200.452V200.452C102.935 200.452 104.171 201.688 104.171 203.214V278.369H98.6484V203.214Z" fill="#F02E65" fill-opacity="0.4"/>
<path d="M98.6484 233.571C98.6484 232.046 99.8848 230.81 101.41 230.81V230.81C102.935 230.81 104.171 232.046 104.171 233.571V278.369H98.6484V233.571Z" fill="#F02E65"/>
<path d="M114.296 233.571C114.296 232.046 115.532 230.81 117.057 230.81V230.81C118.582 230.81 119.819 232.046 119.819 233.571V278.369H114.296V233.571Z" fill="#F02E65" fill-opacity="0.4"/>
<path d="M114.296 256.845C114.296 255.32 115.532 254.083 117.057 254.083V254.083C118.582 254.083 119.819 255.32 119.819 256.845V278.369H114.296V256.845Z" fill="#F02E65"/>
<path d="M129.944 214.345C129.944 212.82 131.181 211.584 132.706 211.584V211.584C134.231 211.584 135.467 212.82 135.467 214.345V278.37H129.944V214.345Z" fill="#F02E65" fill-opacity="0.4"/>
<path d="M129.944 238.631C129.944 237.106 131.181 235.87 132.706 235.87V235.87C134.231 235.87 135.467 237.106 135.467 238.631V278.37H129.944V238.631Z" fill="#F02E65"/>
<path d="M145.593 183.988C145.593 182.463 146.829 181.227 148.354 181.227V181.227C149.879 181.227 151.116 182.463 151.116 183.988V278.37H145.593V183.988Z" fill="#F02E65" fill-opacity="0.4"/>
<path d="M145.593 211.309C145.593 209.784 146.829 208.548 148.354 208.548V208.548C149.879 208.548 151.116 209.784 151.116 211.309V278.369H145.593V211.309Z" fill="#F02E65"/>
<path d="M161.24 164.761C161.24 163.236 162.477 162 164.002 162V162C165.527 162 166.763 163.236 166.763 164.761V278.369H161.24V164.761Z" fill="#F02E65" fill-opacity="0.4"/>
<path d="M161.24 194.107C161.24 192.582 162.477 191.345 164.002 191.345V191.345C165.527 191.345 166.763 192.582 166.763 194.107V278.369H161.24V194.107Z" fill="#F02E65"/>
<path d="M176.889 203.214C176.889 201.688 178.125 200.452 179.65 200.452V200.452C181.175 200.452 182.412 201.688 182.412 203.214V278.369H176.889V203.214Z" fill="#F02E65" fill-opacity="0.4"/>
<path d="M176.889 228.511C176.889 226.986 178.125 225.75 179.65 225.75V225.75C181.175 225.75 182.412 226.986 182.412 228.511V278.369H176.889V228.511Z" fill="#F02E65"/>
<path d="M192.537 233.571C192.537 232.046 193.773 230.81 195.299 230.81V230.81C196.824 230.81 198.06 232.046 198.06 233.571V278.369H192.537V233.571Z" fill="#F02E65" fill-opacity="0.4"/>
<path d="M192.537 252.798C192.537 251.272 193.773 250.036 195.299 250.036V250.036C196.824 250.036 198.06 251.272 198.06 252.798V278.37H192.537V252.798Z" fill="#F02E65"/>
<path d="M208.185 214.345C208.185 212.82 209.421 211.584 210.946 211.584V211.584C212.471 211.584 213.707 212.82 213.707 214.345V278.37H208.185V214.345Z" fill="#F02E65" fill-opacity="0.4"/>
<path d="M208.185 228.511C208.185 226.986 209.421 225.75 210.946 225.75V225.75C212.471 225.75 213.707 226.986 213.707 228.511V278.369H208.185V228.511Z" fill="#F02E65"/>
<path d="M223.833 183.988C223.833 182.463 225.069 181.227 226.594 181.227V181.227C228.12 181.227 229.356 182.463 229.356 183.988V278.37H223.833V183.988Z" fill="#F02E65" fill-opacity="0.4"/>
<path d="M223.833 211.309C223.833 209.784 225.069 208.548 226.594 208.548V208.548C228.12 208.548 229.356 209.784 229.356 211.309V278.369H223.833V211.309Z" fill="#F02E65"/>
<path d="M239.481 203.214C239.481 201.688 240.718 200.452 242.243 200.452V200.452C243.768 200.452 245.004 201.688 245.004 203.214V278.369H239.481V203.214Z" fill="#F02E65" fill-opacity="0.4"/>
<path d="M239.481 228.511C239.481 226.986 240.718 225.75 242.243 225.75V225.75C243.768 225.75 245.004 226.986 245.004 228.511V278.369H239.481V228.511Z" fill="#F02E65"/>
<path d="M255.129 233.571C255.129 232.046 256.365 230.81 257.89 230.81V230.81C259.415 230.81 260.652 232.046 260.652 233.571V278.369H255.129V233.571Z" fill="#F02E65" fill-opacity="0.4"/>
<path d="M255.129 252.798C255.129 251.272 256.365 250.036 257.89 250.036V250.036C259.415 250.036 260.652 251.272 260.652 252.798V278.37H255.129V252.798Z" fill="#F02E65"/>
<path d="M270.777 214.345C270.777 212.82 272.014 211.584 273.539 211.584V211.584C275.064 211.584 276.3 212.82 276.3 214.345V278.37H270.777V214.345Z" fill="#F02E65" fill-opacity="0.4"/>
<path d="M270.777 233.571C270.777 232.046 272.014 230.81 273.539 230.81V230.81C275.064 230.81 276.3 232.046 276.3 233.571V278.369H270.777V233.571Z" fill="#F02E65"/>
<path d="M286.426 183.988C286.426 182.463 287.662 181.227 289.187 181.227V181.227C290.712 181.227 291.949 182.463 291.949 183.988V278.37H286.426V183.988Z" fill="#F02E65" fill-opacity="0.4"/>
<path d="M286.426 211.309C286.426 209.784 287.662 208.548 289.187 208.548V208.548C290.712 208.548 291.949 209.784 291.949 211.309V278.369H286.426V211.309Z" fill="#F02E65"/>
<path d="M302.073 214.345C302.073 212.82 303.31 211.584 304.835 211.584V211.584C306.36 211.584 307.596 212.82 307.596 214.345V278.37H302.073V214.345Z" fill="#F02E65" fill-opacity="0.4"/>
<path d="M302.073 238.631C302.073 237.106 303.31 235.87 304.835 235.87V235.87C306.36 235.87 307.596 237.106 307.596 238.631V278.37H302.073V238.631Z" fill="#F02E65"/>
<path d="M317.722 183.988C317.722 182.463 318.958 181.227 320.483 181.227V181.227C322.008 181.227 323.245 182.463 323.245 183.988V278.37H317.722V183.988Z" fill="#F02E65" fill-opacity="0.4"/>
<path d="M317.722 211.309C317.722 209.784 318.958 208.548 320.483 208.548V208.548C322.008 208.548 323.245 209.784 323.245 211.309V278.369H317.722V211.309Z" fill="#F02E65"/>
<path d="M34.3365 73V62.8182H37.8961C38.6054 62.8182 39.1904 62.9408 39.6511 63.1861C40.1118 63.428 40.4548 63.7545 40.6802 64.1655C40.9056 64.5732 41.0183 65.0256 41.0183 65.5227C41.0183 65.9602 40.9404 66.3215 40.7846 66.6065C40.6322 66.8916 40.43 67.117 40.1781 67.2827C39.9295 67.4484 39.6594 67.571 39.3677 67.6506V67.75C39.6793 67.7699 39.9925 67.8793 40.3074 68.0781C40.6222 68.277 40.8857 68.562 41.0978 68.9332C41.31 69.3045 41.416 69.7585 41.416 70.2955C41.416 70.8059 41.3 71.2649 41.068 71.6726C40.836 72.0803 40.4698 72.4034 39.9693 72.642C39.4688 72.8807 38.8175 73 38.0154 73H34.3365ZM35.5694 71.9062H38.0154C38.8208 71.9062 39.3926 71.7505 39.7306 71.4389C40.072 71.1241 40.2427 70.7429 40.2427 70.2955C40.2427 69.9508 40.1549 69.6326 39.9792 69.3409C39.8036 69.0459 39.5533 68.8106 39.2285 68.6349C38.9037 68.456 38.5192 68.3665 38.0751 68.3665H35.5694V71.9062ZM35.5694 67.2926H37.8564C38.2276 67.2926 38.5623 67.2197 38.8606 67.0739C39.1622 66.928 39.4009 66.7225 39.5765 66.4574C39.7555 66.1922 39.845 65.8807 39.845 65.5227C39.845 65.0753 39.6892 64.6958 39.3777 64.3842C39.0661 64.0694 38.5723 63.9119 37.8961 63.9119H35.5694V67.2926ZM45.53 73.179C45.0461 73.179 44.6069 73.0878 44.2125 72.9055C43.8181 72.7199 43.5049 72.4531 43.2729 72.1051C43.0409 71.7538 42.9249 71.3295 42.9249 70.8324C42.9249 70.3949 43.0111 70.0402 43.1834 69.7685C43.3558 69.4934 43.5861 69.2779 43.8745 69.1222C44.1628 68.9664 44.481 68.8504 44.829 68.7741C45.1803 68.6946 45.5333 68.6316 45.888 68.5852C46.352 68.5256 46.7282 68.4808 47.0165 68.451C47.3082 68.4179 47.5203 68.3632 47.6529 68.2869C47.7888 68.2107 47.8567 68.0781 47.8567 67.8892V67.8494C47.8567 67.3589 47.7225 66.9777 47.454 66.706C47.1889 66.4342 46.7862 66.2983 46.2459 66.2983C45.6858 66.2983 45.2466 66.4209 44.9284 66.6662C44.6103 66.9115 44.3865 67.1733 44.2573 67.4517L43.1436 67.054C43.3425 66.59 43.6077 66.2287 43.9391 65.9702C44.2739 65.7083 44.6384 65.526 45.0328 65.4233C45.4306 65.3172 45.8217 65.2642 46.2061 65.2642C46.4514 65.2642 46.7331 65.294 47.0513 65.3537C47.3728 65.41 47.6827 65.5277 47.981 65.7067C48.2826 65.8857 48.5328 66.1558 48.7317 66.517C48.9306 66.8783 49.03 67.3622 49.03 67.9688V73H47.8567V71.9659H47.7971C47.7175 72.1316 47.5849 72.3089 47.3993 72.4979C47.2137 72.6868 46.9668 72.8475 46.6586 72.9801C46.3503 73.1127 45.9741 73.179 45.53 73.179ZM45.709 72.125C46.173 72.125 46.5641 72.0339 46.8823 71.8516C47.2038 71.6693 47.4457 71.4339 47.6081 71.1456C47.7739 70.8572 47.8567 70.554 47.8567 70.2358V69.1619C47.807 69.2216 47.6976 69.2763 47.5286 69.326C47.3629 69.3724 47.1706 69.4138 46.9519 69.4503C46.7364 69.4834 46.526 69.5133 46.3205 69.5398C46.1183 69.563 45.9542 69.5829 45.8283 69.5994C45.5234 69.6392 45.2383 69.7038 44.9732 69.7933C44.7114 69.8795 44.4992 70.0104 44.3368 70.1861C44.1777 70.3584 44.0982 70.5937 44.0982 70.892C44.0982 71.2997 44.249 71.608 44.5506 71.8168C44.8555 72.0223 45.2417 72.125 45.709 72.125ZM52.3448 68.4062V73H51.1715V65.3636H52.305V66.5568H52.4045C52.5835 66.169 52.8552 65.8575 53.2198 65.6222C53.5844 65.3835 54.055 65.2642 54.6317 65.2642C55.1488 65.2642 55.6012 65.3703 55.989 65.5824C56.3768 65.7912 56.6784 66.1094 56.8938 66.5369C57.1093 66.9612 57.217 67.4981 57.217 68.1477V73H56.0437V68.2273C56.0437 67.6274 55.8879 67.16 55.5763 66.8253C55.2648 66.4872 54.8372 66.3182 54.2937 66.3182C53.9192 66.3182 53.5844 66.3994 53.2894 66.5618C52.9978 66.7242 52.7674 66.9612 52.5984 67.2727C52.4293 67.5843 52.3448 67.9621 52.3448 68.4062ZM62.2445 73.1591C61.6081 73.1591 61.0463 72.9983 60.5591 72.6768C60.0719 72.352 59.6908 71.8946 59.4157 71.3047C59.1406 70.7114 59.003 70.0104 59.003 69.2017C59.003 68.3996 59.1406 67.7036 59.4157 67.1136C59.6908 66.5237 60.0736 66.0679 60.5641 65.7464C61.0546 65.425 61.6214 65.2642 62.2644 65.2642C62.7615 65.2642 63.1543 65.3471 63.4426 65.5128C63.7343 65.6752 63.9564 65.8608 64.1088 66.0696C64.2646 66.2751 64.3856 66.4441 64.4718 66.5767H64.5712V62.8182H65.7445V73H64.611V71.8267H64.4718C64.3856 71.9659 64.263 72.1416 64.1039 72.3537C63.9448 72.5625 63.7177 72.7498 63.4228 72.9155C63.1278 73.0779 62.735 73.1591 62.2445 73.1591ZM62.4036 72.1051C62.8742 72.1051 63.272 71.9825 63.5968 71.7372C63.9216 71.4886 64.1685 71.1456 64.3375 70.7081C64.5066 70.2673 64.5911 69.7585 64.5911 69.1818C64.5911 68.6117 64.5082 68.1129 64.3425 67.6854C64.1768 67.2545 63.9315 66.9197 63.6067 66.6811C63.2819 66.4392 62.8809 66.3182 62.4036 66.3182C61.9064 66.3182 61.4921 66.4458 61.1607 66.701C60.8326 66.9529 60.5856 67.2959 60.4199 67.7301C60.2575 68.161 60.1763 68.6449 60.1763 69.1818C60.1763 69.7254 60.2592 70.2192 60.4249 70.6634C60.5939 71.1042 60.8425 71.4555 61.1706 71.7173C61.5021 71.9759 61.9131 72.1051 62.4036 72.1051ZM69.7864 73L67.4597 65.3636H68.6926L70.3432 71.2102H70.4228L72.0534 65.3636H73.3063L74.9171 71.1903H74.9966L76.6472 65.3636H77.8801L75.5534 73H74.4L72.7296 67.1335H72.6103L70.9398 73H69.7864ZM79.4313 73V65.3636H80.6046V73H79.4313ZM80.0279 64.0909C79.7992 64.0909 79.602 64.013 79.4363 63.8572C79.2739 63.7015 79.1926 63.5142 79.1926 63.2955C79.1926 63.0767 79.2739 62.8894 79.4363 62.7337C79.602 62.5779 79.7992 62.5 80.0279 62.5C80.2566 62.5 80.4521 62.5779 80.6145 62.7337C80.7802 62.8894 80.8631 63.0767 80.8631 63.2955C80.8631 63.5142 80.7802 63.7015 80.6145 63.8572C80.4521 64.013 80.2566 64.0909 80.0279 64.0909ZM85.6371 73.1591C85.0007 73.1591 84.4389 72.9983 83.9517 72.6768C83.4645 72.352 83.0833 71.8946 82.8082 71.3047C82.5331 70.7114 82.3956 70.0104 82.3956 69.2017C82.3956 68.3996 82.5331 67.7036 82.8082 67.1136C83.0833 66.5237 83.4661 66.0679 83.9567 65.7464C84.4472 65.425 85.014 65.2642 85.657 65.2642C86.1541 65.2642 86.5469 65.3471 86.8352 65.5128C87.1269 65.6752 87.349 65.8608 87.5014 66.0696C87.6572 66.2751 87.7782 66.4441 87.8643 66.5767H87.9638V62.8182H89.1371V73H88.0036V71.8267H87.8643C87.7782 71.9659 87.6555 72.1416 87.4964 72.3537C87.3374 72.5625 87.1103 72.7498 86.8153 72.9155C86.5204 73.0779 86.1276 73.1591 85.6371 73.1591ZM85.7962 72.1051C86.2668 72.1051 86.6645 71.9825 86.9893 71.7372C87.3142 71.4886 87.5611 71.1456 87.7301 70.7081C87.8991 70.2673 87.9837 69.7585 87.9837 69.1818C87.9837 68.6117 87.9008 68.1129 87.7351 67.6854C87.5694 67.2545 87.3241 66.9197 86.9993 66.6811C86.6745 66.4392 86.2734 66.3182 85.7962 66.3182C85.299 66.3182 84.8847 66.4458 84.5533 66.701C84.2251 66.9529 83.9782 67.2959 83.8125 67.7301C83.6501 68.161 83.5689 68.6449 83.5689 69.1818C83.5689 69.7254 83.6518 70.2192 83.8175 70.6634C83.9865 71.1042 84.2351 71.4555 84.5632 71.7173C84.8946 71.9759 85.3056 72.1051 85.7962 72.1051ZM94.7699 65.3636V66.358H90.8125V65.3636H94.7699ZM91.9659 63.5341H93.1392V70.8125C93.1392 71.1439 93.1873 71.3925 93.2834 71.5582C93.3828 71.7206 93.5088 71.83 93.6612 71.8864C93.817 71.9394 93.9811 71.9659 94.1534 71.9659C94.2827 71.9659 94.3887 71.9593 94.4716 71.946C94.5545 71.9295 94.6207 71.9162 94.6705 71.9062L94.9091 72.9602C94.8295 72.9901 94.7185 73.0199 94.576 73.0497C94.4335 73.0829 94.2528 73.0994 94.0341 73.0994C93.7027 73.0994 93.3778 73.0282 93.0597 72.8857C92.7448 72.7431 92.483 72.526 92.2741 72.2344C92.0687 71.9427 91.9659 71.5748 91.9659 71.1307V63.5341ZM97.8722 68.4062V73H96.6989V62.8182H97.8722V66.5568H97.9716C98.1506 66.1624 98.419 65.8492 98.777 65.6172C99.1383 65.3819 99.6188 65.2642 100.219 65.2642C100.739 65.2642 101.195 65.3686 101.586 65.5774C101.977 65.7829 102.28 66.0994 102.496 66.527C102.714 66.9512 102.824 67.4915 102.824 68.1477V73H101.651V68.2273C101.651 67.6207 101.493 67.1518 101.178 66.8203C100.867 66.4856 100.434 66.3182 99.8807 66.3182C99.4962 66.3182 99.1515 66.3994 98.8466 66.5618C98.545 66.7242 98.3063 66.9612 98.1307 67.2727C97.9583 67.5843 97.8722 67.9621 97.8722 68.4062Z" fill="#6C6C71"/>
<rect x="33" y="33" width="92" height="12" rx="6" fill="url(#paint0_linear_11_260)"/>
<rect x="2" y="3" width="355" height="336" rx="16" fill="url(#paint1_radial_11_260)"/>
<defs>
<linearGradient id="paint0_linear_11_260" x1="33" y1="39" x2="117" y2="39" gradientUnits="userSpaceOnUse">
<stop stop-color="#EDEDF0"/>
<stop offset="1" stop-color="#EDEDF0" stop-opacity="0"/>
</linearGradient>
<radialGradient id="paint1_radial_11_260" cx="0" cy="0" r="1" gradientUnits="userSpaceOnUse" gradientTransform="translate(357 74.0001) rotate(179.912) scale(327 7113.59)">
<stop stop-color="#FCFCFF" stop-opacity="0.5"/>
<stop offset="0.220284" stop-color="white" stop-opacity="0.9"/>
<stop offset="0.489583" stop-color="white"/>
<stop offset="0.756132" stop-color="white" stop-opacity="0.9"/>
<stop offset="0.926183" stop-color="#FDFDFF" stop-opacity="0.621077"/>
<stop offset="1" stop-color="#FCFCFF" stop-opacity="0.5"/>
</radialGradient>
</defs>
</svg>
