<svg width="1170" height="342" viewBox="0 0 1170 342" fill="none" xmlns="http://www.w3.org/2000/svg">
<rect x="1" y="1" width="572" height="340" rx="16" fill="white" stroke="#FAFAFB"/>
<path opacity="0.5" d="M33.1378 132V131.233L36.0185 128.08C36.3565 127.71 36.6349 127.389 36.8537 127.116C37.0724 126.841 37.2344 126.582 37.3395 126.341C37.4474 126.097 37.5014 125.841 37.5014 125.574C37.5014 125.267 37.4276 125.001 37.2798 124.777C37.1349 124.553 36.9361 124.379 36.6832 124.257C36.4304 124.135 36.1463 124.074 35.831 124.074C35.4957 124.074 35.2031 124.143 34.9531 124.283C34.706 124.419 34.5142 124.611 34.3778 124.858C34.2443 125.105 34.1776 125.395 34.1776 125.727H33.1719C33.1719 125.216 33.2898 124.767 33.5256 124.381C33.7614 123.994 34.0824 123.693 34.4886 123.477C34.8977 123.261 35.3565 123.153 35.8651 123.153C36.3764 123.153 36.8295 123.261 37.2244 123.477C37.6193 123.693 37.929 123.984 38.1534 124.351C38.3778 124.717 38.4901 125.125 38.4901 125.574C38.4901 125.895 38.4318 126.209 38.3153 126.516C38.2017 126.82 38.0028 127.159 37.7188 127.534C37.4375 127.906 37.0469 128.361 36.5469 128.898L34.5866 130.994V131.062H38.6435V132H33.1378ZM43.25 132.119C42.608 132.119 42.0611 131.945 41.6094 131.595C41.1577 131.243 40.8125 130.733 40.5739 130.065C40.3352 129.395 40.2159 128.585 40.2159 127.636C40.2159 126.693 40.3352 125.888 40.5739 125.22C40.8153 124.55 41.1619 124.038 41.6136 123.686C42.0682 123.331 42.6136 123.153 43.25 123.153C43.8864 123.153 44.4304 123.331 44.8821 123.686C45.3366 124.038 45.6832 124.55 45.9219 125.22C46.1634 125.888 46.2841 126.693 46.2841 127.636C46.2841 128.585 46.1648 129.395 45.9261 130.065C45.6875 130.733 45.3423 131.243 44.8906 131.595C44.4389 131.945 43.892 132.119 43.25 132.119ZM43.25 131.182C43.8864 131.182 44.3807 130.875 44.733 130.261C45.0852 129.648 45.2614 128.773 45.2614 127.636C45.2614 126.881 45.1804 126.237 45.0185 125.706C44.8594 125.175 44.6293 124.77 44.3281 124.491C44.0298 124.213 43.6705 124.074 43.25 124.074C42.6193 124.074 42.1264 124.385 41.7713 125.007C41.4162 125.626 41.2386 126.503 41.2386 127.636C41.2386 128.392 41.3182 129.034 41.4773 129.562C41.6364 130.091 41.8651 130.493 42.1634 130.768C42.4645 131.044 42.8267 131.182 43.25 131.182ZM50.75 132.119C50.108 132.119 49.5611 131.945 49.1094 131.595C48.6577 131.243 48.3125 130.733 48.0739 130.065C47.8352 129.395 47.7159 128.585 47.7159 127.636C47.7159 126.693 47.8352 125.888 48.0739 125.22C48.3153 124.55 48.6619 124.038 49.1136 123.686C49.5682 123.331 50.1136 123.153 50.75 123.153C51.3864 123.153 51.9304 123.331 52.3821 123.686C52.8366 124.038 53.1832 124.55 53.4219 125.22C53.6634 125.888 53.7841 126.693 53.7841 127.636C53.7841 128.585 53.6648 129.395 53.4261 130.065C53.1875 130.733 52.8423 131.243 52.3906 131.595C51.9389 131.945 51.392 132.119 50.75 132.119ZM50.75 131.182C51.3864 131.182 51.8807 130.875 52.233 130.261C52.5852 129.648 52.7614 128.773 52.7614 127.636C52.7614 126.881 52.6804 126.237 52.5185 125.706C52.3594 125.175 52.1293 124.77 51.8281 124.491C51.5298 124.213 51.1705 124.074 50.75 124.074C50.1193 124.074 49.6264 124.385 49.2713 125.007C48.9162 125.626 48.7386 126.503 48.7386 127.636C48.7386 128.392 48.8182 129.034 48.9773 129.562C49.1364 130.091 49.3651 130.493 49.6634 130.768C49.9645 131.044 50.3267 131.182 50.75 131.182ZM58.25 132.119C57.608 132.119 57.0611 131.945 56.6094 131.595C56.1577 131.243 55.8125 130.733 55.5739 130.065C55.3352 129.395 55.2159 128.585 55.2159 127.636C55.2159 126.693 55.3352 125.888 55.5739 125.22C55.8153 124.55 56.1619 124.038 56.6136 123.686C57.0682 123.331 57.6136 123.153 58.25 123.153C58.8864 123.153 59.4304 123.331 59.8821 123.686C60.3366 124.038 60.6832 124.55 60.9219 125.22C61.1634 125.888 61.2841 126.693 61.2841 127.636C61.2841 128.585 61.1648 129.395 60.9261 130.065C60.6875 130.733 60.3423 131.243 59.8906 131.595C59.4389 131.945 58.892 132.119 58.25 132.119ZM58.25 131.182C58.8864 131.182 59.3807 130.875 59.733 130.261C60.0852 129.648 60.2614 128.773 60.2614 127.636C60.2614 126.881 60.1804 126.237 60.0185 125.706C59.8594 125.175 59.6293 124.77 59.3281 124.491C59.0298 124.213 58.6705 124.074 58.25 124.074C57.6193 124.074 57.1264 124.385 56.7713 125.007C56.4162 125.626 56.2386 126.503 56.2386 127.636C56.2386 128.392 56.3182 129.034 56.4773 129.562C56.6364 130.091 56.8651 130.493 57.1634 130.768C57.4645 131.044 57.8267 131.182 58.25 131.182Z" fill="#97979B"/>
<line x1="78" y1="127.75" x2="541" y2="127.75" stroke="#FAFAFB" stroke-width="0.5"/>
<path opacity="0.5" d="M38.0927 160.273V169H37.0359V161.381H36.9847L34.854 162.795V161.722L37.0359 160.273H38.0927ZM43.3299 169.119C42.8299 169.119 42.3796 169.02 41.979 168.821C41.5785 168.622 41.2575 168.349 41.016 168.003C40.7745 167.656 40.6424 167.261 40.6197 166.818H41.6424C41.6822 167.213 41.8612 167.54 42.1793 167.798C42.5004 168.054 42.8839 168.182 43.3299 168.182C43.6879 168.182 44.006 168.098 44.2844 167.93C44.5657 167.763 44.7859 167.533 44.945 167.24C45.1069 166.945 45.1879 166.611 45.1879 166.239C45.1879 165.858 45.104 165.518 44.9364 165.22C44.7717 164.919 44.5444 164.682 44.2546 164.509C43.9648 164.335 43.6339 164.247 43.2617 164.244C42.9947 164.241 42.7205 164.283 42.4393 164.368C42.158 164.45 41.9265 164.557 41.7447 164.688L40.756 164.568L41.2844 160.273H45.8185V161.21H42.1708L41.864 163.784H41.9151C42.0941 163.642 42.3185 163.524 42.5884 163.43C42.8583 163.337 43.1396 163.29 43.4322 163.29C43.9663 163.29 44.4421 163.418 44.8597 163.673C45.2802 163.926 45.6097 164.273 45.8484 164.713C46.0898 165.153 46.2106 165.656 46.2106 166.222C46.2106 166.778 46.0856 167.276 45.8356 167.713C45.5884 168.148 45.2475 168.491 44.8129 168.744C44.3782 168.994 43.8839 169.119 43.3299 169.119ZM50.75 169.119C50.108 169.119 49.5611 168.945 49.1094 168.595C48.6577 168.243 48.3125 167.733 48.0739 167.065C47.8352 166.395 47.7159 165.585 47.7159 164.636C47.7159 163.693 47.8352 162.888 48.0739 162.22C48.3153 161.55 48.6619 161.038 49.1136 160.686C49.5682 160.331 50.1136 160.153 50.75 160.153C51.3864 160.153 51.9304 160.331 52.3821 160.686C52.8366 161.038 53.1832 161.55 53.4219 162.22C53.6634 162.888 53.7841 163.693 53.7841 164.636C53.7841 165.585 53.6648 166.395 53.4261 167.065C53.1875 167.733 52.8423 168.243 52.3906 168.595C51.9389 168.945 51.392 169.119 50.75 169.119ZM50.75 168.182C51.3864 168.182 51.8807 167.875 52.233 167.261C52.5852 166.648 52.7614 165.773 52.7614 164.636C52.7614 163.881 52.6804 163.237 52.5185 162.706C52.3594 162.175 52.1293 161.77 51.8281 161.491C51.5298 161.213 51.1705 161.074 50.75 161.074C50.1193 161.074 49.6264 161.385 49.2713 162.007C48.9162 162.626 48.7386 163.503 48.7386 164.636C48.7386 165.392 48.8182 166.034 48.9773 166.562C49.1364 167.091 49.3651 167.493 49.6634 167.768C49.9645 168.044 50.3267 168.182 50.75 168.182ZM58.25 169.119C57.608 169.119 57.0611 168.945 56.6094 168.595C56.1577 168.243 55.8125 167.733 55.5739 167.065C55.3352 166.395 55.2159 165.585 55.2159 164.636C55.2159 163.693 55.3352 162.888 55.5739 162.22C55.8153 161.55 56.1619 161.038 56.6136 160.686C57.0682 160.331 57.6136 160.153 58.25 160.153C58.8864 160.153 59.4304 160.331 59.8821 160.686C60.3366 161.038 60.6832 161.55 60.9219 162.22C61.1634 162.888 61.2841 163.693 61.2841 164.636C61.2841 165.585 61.1648 166.395 60.9261 167.065C60.6875 167.733 60.3423 168.243 59.8906 168.595C59.4389 168.945 58.892 169.119 58.25 169.119ZM58.25 168.182C58.8864 168.182 59.3807 167.875 59.733 167.261C60.0852 166.648 60.2614 165.773 60.2614 164.636C60.2614 163.881 60.1804 163.237 60.0185 162.706C59.8594 162.175 59.6293 161.77 59.3281 161.491C59.0298 161.213 58.6705 161.074 58.25 161.074C57.6193 161.074 57.1264 161.385 56.7713 162.007C56.4162 162.626 56.2386 163.503 56.2386 164.636C56.2386 165.392 56.3182 166.034 56.4773 166.562C56.6364 167.091 56.8651 167.493 57.1634 167.768C57.4645 168.044 57.8267 168.182 58.25 168.182Z" fill="#97979B"/>
<line x1="78" y1="164.75" x2="541" y2="164.75" stroke="#FAFAFB" stroke-width="0.5"/>
<path opacity="0.5" d="M37.8935 198.773V207.5H36.8366V199.881H36.7855L34.6548 201.295V200.222L36.8366 198.773H37.8935ZM43.25 207.619C42.608 207.619 42.0611 207.445 41.6094 207.095C41.1577 206.743 40.8125 206.233 40.5739 205.565C40.3352 204.895 40.2159 204.085 40.2159 203.136C40.2159 202.193 40.3352 201.388 40.5739 200.72C40.8153 200.05 41.1619 199.538 41.6136 199.186C42.0682 198.831 42.6136 198.653 43.25 198.653C43.8864 198.653 44.4304 198.831 44.8821 199.186C45.3366 199.538 45.6832 200.05 45.9219 200.72C46.1634 201.388 46.2841 202.193 46.2841 203.136C46.2841 204.085 46.1648 204.895 45.9261 205.565C45.6875 206.233 45.3423 206.743 44.8906 207.095C44.4389 207.445 43.892 207.619 43.25 207.619ZM43.25 206.682C43.8864 206.682 44.3807 206.375 44.733 205.761C45.0852 205.148 45.2614 204.273 45.2614 203.136C45.2614 202.381 45.1804 201.737 45.0185 201.206C44.8594 200.675 44.6293 200.27 44.3281 199.991C44.0298 199.713 43.6705 199.574 43.25 199.574C42.6193 199.574 42.1264 199.885 41.7713 200.507C41.4162 201.126 41.2386 202.003 41.2386 203.136C41.2386 203.892 41.3182 204.534 41.4773 205.062C41.6364 205.591 41.8651 205.993 42.1634 206.268C42.4645 206.544 42.8267 206.682 43.25 206.682ZM50.75 207.619C50.108 207.619 49.5611 207.445 49.1094 207.095C48.6577 206.743 48.3125 206.233 48.0739 205.565C47.8352 204.895 47.7159 204.085 47.7159 203.136C47.7159 202.193 47.8352 201.388 48.0739 200.72C48.3153 200.05 48.6619 199.538 49.1136 199.186C49.5682 198.831 50.1136 198.653 50.75 198.653C51.3864 198.653 51.9304 198.831 52.3821 199.186C52.8366 199.538 53.1832 200.05 53.4219 200.72C53.6634 201.388 53.7841 202.193 53.7841 203.136C53.7841 204.085 53.6648 204.895 53.4261 205.565C53.1875 206.233 52.8423 206.743 52.3906 207.095C51.9389 207.445 51.392 207.619 50.75 207.619ZM50.75 206.682C51.3864 206.682 51.8807 206.375 52.233 205.761C52.5852 205.148 52.7614 204.273 52.7614 203.136C52.7614 202.381 52.6804 201.737 52.5185 201.206C52.3594 200.675 52.1293 200.27 51.8281 199.991C51.5298 199.713 51.1705 199.574 50.75 199.574C50.1193 199.574 49.6264 199.885 49.2713 200.507C48.9162 201.126 48.7386 202.003 48.7386 203.136C48.7386 203.892 48.8182 204.534 48.9773 205.062C49.1364 205.591 49.3651 205.993 49.6634 206.268C49.9645 206.544 50.3267 206.682 50.75 206.682ZM58.25 207.619C57.608 207.619 57.0611 207.445 56.6094 207.095C56.1577 206.743 55.8125 206.233 55.5739 205.565C55.3352 204.895 55.2159 204.085 55.2159 203.136C55.2159 202.193 55.3352 201.388 55.5739 200.72C55.8153 200.05 56.1619 199.538 56.6136 199.186C57.0682 198.831 57.6136 198.653 58.25 198.653C58.8864 198.653 59.4304 198.831 59.8821 199.186C60.3366 199.538 60.6832 200.05 60.9219 200.72C61.1634 201.388 61.2841 202.193 61.2841 203.136C61.2841 204.085 61.1648 204.895 60.9261 205.565C60.6875 206.233 60.3423 206.743 59.8906 207.095C59.4389 207.445 58.892 207.619 58.25 207.619ZM58.25 206.682C58.8864 206.682 59.3807 206.375 59.733 205.761C60.0852 205.148 60.2614 204.273 60.2614 203.136C60.2614 202.381 60.1804 201.737 60.0185 201.206C59.8594 200.675 59.6293 200.27 59.3281 199.991C59.0298 199.713 58.6705 199.574 58.25 199.574C57.6193 199.574 57.1264 199.885 56.7713 200.507C56.4162 201.126 56.2386 202.003 56.2386 203.136C56.2386 203.892 56.3182 204.534 56.4773 205.062C56.6364 205.591 56.8651 205.993 57.1634 206.268C57.4645 206.544 57.8267 206.682 58.25 206.682Z" fill="#97979B"/>
<line x1="78" y1="203.25" x2="541" y2="203.25" stroke="#FAFAFB" stroke-width="0.5"/>
<path opacity="0.5" d="M43.3299 245.119C42.8299 245.119 42.3796 245.02 41.979 244.821C41.5785 244.622 41.2575 244.349 41.016 244.003C40.7745 243.656 40.6424 243.261 40.6197 242.818H41.6424C41.6822 243.213 41.8612 243.54 42.1793 243.798C42.5004 244.054 42.8839 244.182 43.3299 244.182C43.6879 244.182 44.006 244.098 44.2844 243.93C44.5657 243.763 44.7859 243.533 44.945 243.24C45.1069 242.945 45.1879 242.611 45.1879 242.239C45.1879 241.858 45.104 241.518 44.9364 241.22C44.7717 240.919 44.5444 240.682 44.2546 240.509C43.9648 240.335 43.6339 240.247 43.2617 240.244C42.9947 240.241 42.7205 240.283 42.4393 240.368C42.158 240.45 41.9265 240.557 41.7447 240.688L40.756 240.568L41.2844 236.273H45.8185V237.21H42.1708L41.864 239.784H41.9151C42.0941 239.642 42.3185 239.524 42.5884 239.43C42.8583 239.337 43.1396 239.29 43.4322 239.29C43.9663 239.29 44.4421 239.418 44.8597 239.673C45.2802 239.926 45.6097 240.273 45.8484 240.713C46.0898 241.153 46.2106 241.656 46.2106 242.222C46.2106 242.778 46.0856 243.276 45.8356 243.713C45.5884 244.148 45.2475 244.491 44.8129 244.744C44.3782 244.994 43.8839 245.119 43.3299 245.119ZM50.75 245.119C50.108 245.119 49.5611 244.945 49.1094 244.595C48.6577 244.243 48.3125 243.733 48.0739 243.065C47.8352 242.395 47.7159 241.585 47.7159 240.636C47.7159 239.693 47.8352 238.888 48.0739 238.22C48.3153 237.55 48.6619 237.038 49.1136 236.686C49.5682 236.331 50.1136 236.153 50.75 236.153C51.3864 236.153 51.9304 236.331 52.3821 236.686C52.8366 237.038 53.1832 237.55 53.4219 238.22C53.6634 238.888 53.7841 239.693 53.7841 240.636C53.7841 241.585 53.6648 242.395 53.4261 243.065C53.1875 243.733 52.8423 244.243 52.3906 244.595C51.9389 244.945 51.392 245.119 50.75 245.119ZM50.75 244.182C51.3864 244.182 51.8807 243.875 52.233 243.261C52.5852 242.648 52.7614 241.773 52.7614 240.636C52.7614 239.881 52.6804 239.237 52.5185 238.706C52.3594 238.175 52.1293 237.77 51.8281 237.491C51.5298 237.213 51.1705 237.074 50.75 237.074C50.1193 237.074 49.6264 237.385 49.2713 238.007C48.9162 238.626 48.7386 239.503 48.7386 240.636C48.7386 241.392 48.8182 242.034 48.9773 242.562C49.1364 243.091 49.3651 243.493 49.6634 243.768C49.9645 244.044 50.3267 244.182 50.75 244.182ZM58.25 245.119C57.608 245.119 57.0611 244.945 56.6094 244.595C56.1577 244.243 55.8125 243.733 55.5739 243.065C55.3352 242.395 55.2159 241.585 55.2159 240.636C55.2159 239.693 55.3352 238.888 55.5739 238.22C55.8153 237.55 56.1619 237.038 56.6136 236.686C57.0682 236.331 57.6136 236.153 58.25 236.153C58.8864 236.153 59.4304 236.331 59.8821 236.686C60.3366 237.038 60.6832 237.55 60.9219 238.22C61.1634 238.888 61.2841 239.693 61.2841 240.636C61.2841 241.585 61.1648 242.395 60.9261 243.065C60.6875 243.733 60.3423 244.243 59.8906 244.595C59.4389 244.945 58.892 245.119 58.25 245.119ZM58.25 244.182C58.8864 244.182 59.3807 243.875 59.733 243.261C60.0852 242.648 60.2614 241.773 60.2614 240.636C60.2614 239.881 60.1804 239.237 60.0185 238.706C59.8594 238.175 59.6293 237.77 59.3281 237.491C59.0298 237.213 58.6705 237.074 58.25 237.074C57.6193 237.074 57.1264 237.385 56.7713 238.007C56.4162 238.626 56.2386 239.503 56.2386 240.636C56.2386 241.392 56.3182 242.034 56.4773 242.562C56.6364 243.091 56.8651 243.493 57.1634 243.768C57.4645 244.044 57.8267 244.182 58.25 244.182Z" fill="#97979B"/>
<line x1="78" y1="240.75" x2="541" y2="240.75" stroke="#FAFAFB" stroke-width="0.5"/>
<path opacity="0.5" d="M58.25 282.119C57.608 282.119 57.0611 281.945 56.6094 281.595C56.1577 281.243 55.8125 280.733 55.5739 280.065C55.3352 279.395 55.2159 278.585 55.2159 277.636C55.2159 276.693 55.3352 275.888 55.5739 275.22C55.8153 274.55 56.1619 274.038 56.6136 273.686C57.0682 273.331 57.6136 273.153 58.25 273.153C58.8864 273.153 59.4304 273.331 59.8821 273.686C60.3366 274.038 60.6832 274.55 60.9219 275.22C61.1634 275.888 61.2841 276.693 61.2841 277.636C61.2841 278.585 61.1648 279.395 60.9261 280.065C60.6875 280.733 60.3423 281.243 59.8906 281.595C59.4389 281.945 58.892 282.119 58.25 282.119ZM58.25 281.182C58.8864 281.182 59.3807 280.875 59.733 280.261C60.0852 279.648 60.2614 278.773 60.2614 277.636C60.2614 276.881 60.1804 276.237 60.0185 275.706C59.8594 275.175 59.6293 274.77 59.3281 274.491C59.0298 274.213 58.6705 274.074 58.25 274.074C57.6193 274.074 57.1264 274.385 56.7713 275.007C56.4162 275.626 56.2386 276.503 56.2386 277.636C56.2386 278.392 56.3182 279.034 56.4773 279.562C56.6364 280.091 56.8651 280.493 57.1634 280.768C57.4645 281.044 57.8267 281.182 58.25 281.182Z" fill="#97979B"/>
<line x1="78" y1="277.75" x2="541" y2="277.75" stroke="#FAFAFB" stroke-width="0.5"/>
<path d="M78 164.761C78 163.236 79.2363 162 80.7614 162C82.2865 162 83.5229 163.236 83.5229 164.761V278.369H78V164.761Z" fill="#F02E65" fill-opacity="0.4"/>
<path d="M78 220.416C78 218.891 79.2363 217.655 80.7614 217.655C82.2865 217.655 83.5229 218.891 83.5229 220.416V278.369H78V220.416Z" fill="#F02E65"/>
<path d="M93.6484 203.214C93.6484 201.688 94.8848 200.452 96.4099 200.452C97.935 200.452 99.1713 201.688 99.1713 203.214V278.369H93.6484V203.214Z" fill="#F02E65" fill-opacity="0.4"/>
<path d="M93.6484 233.571C93.6484 232.046 94.8848 230.81 96.4099 230.81C97.935 230.81 99.1713 232.046 99.1713 233.571V278.369H93.6484V233.571Z" fill="#F02E65"/>
<path d="M109.296 233.571C109.296 232.046 110.532 230.81 112.057 230.81C113.582 230.81 114.819 232.046 114.819 233.571V278.369H109.296V233.571Z" fill="#F02E65" fill-opacity="0.4"/>
<path d="M109.296 256.845C109.296 255.32 110.532 254.083 112.057 254.083C113.582 254.083 114.819 255.32 114.819 256.845V278.369H109.296V256.845Z" fill="#F02E65"/>
<path d="M124.944 214.345C124.944 212.82 126.181 211.583 127.706 211.583C129.231 211.583 130.467 212.82 130.467 214.345V278.369H124.944V214.345Z" fill="#F02E65" fill-opacity="0.4"/>
<path d="M124.944 238.631C124.944 237.105 126.181 235.869 127.706 235.869C129.231 235.869 130.467 237.105 130.467 238.631V278.369H124.944V238.631Z" fill="#F02E65"/>
<path d="M140.593 183.988C140.593 182.463 141.829 181.227 143.354 181.227C144.879 181.227 146.116 182.463 146.116 183.988V278.37H140.593V183.988Z" fill="#F02E65" fill-opacity="0.4"/>
<path d="M140.593 211.309C140.593 209.784 141.829 208.548 143.354 208.548C144.879 208.548 146.116 209.784 146.116 211.309V278.369H140.593V211.309Z" fill="#F02E65"/>
<path d="M156.24 164.761C156.24 163.236 157.477 162 159.002 162C160.527 162 161.763 163.236 161.763 164.761V278.369H156.24V164.761Z" fill="#F02E65" fill-opacity="0.4"/>
<path d="M156.24 194.107C156.24 192.582 157.477 191.345 159.002 191.345C160.527 191.345 161.763 192.582 161.763 194.107V278.369H156.24V194.107Z" fill="#F02E65"/>
<path d="M171.889 203.214C171.889 201.688 173.125 200.452 174.65 200.452C176.175 200.452 177.412 201.688 177.412 203.214V278.369H171.889V203.214Z" fill="#F02E65" fill-opacity="0.4"/>
<path d="M171.889 228.511C171.889 226.986 173.125 225.75 174.65 225.75C176.175 225.75 177.412 226.986 177.412 228.511V278.369H171.889V228.511Z" fill="#F02E65"/>
<path d="M187.537 233.571C187.537 232.046 188.773 230.81 190.299 230.81C191.824 230.81 193.06 232.046 193.06 233.571V278.369H187.537V233.571Z" fill="#F02E65" fill-opacity="0.4"/>
<path d="M187.537 252.798C187.537 251.272 188.773 250.036 190.299 250.036C191.824 250.036 193.06 251.272 193.06 252.798V278.37H187.537V252.798Z" fill="#F02E65"/>
<path d="M203.185 214.345C203.185 212.82 204.421 211.584 205.946 211.584C207.471 211.584 208.707 212.82 208.707 214.345V278.37H203.185V214.345Z" fill="#F02E65" fill-opacity="0.4"/>
<path d="M203.185 228.511C203.185 226.986 204.421 225.75 205.946 225.75C207.471 225.75 208.707 226.986 208.707 228.511V278.369H203.185V228.511Z" fill="#F02E65"/>
<path d="M218.833 183.988C218.833 182.463 220.069 181.227 221.594 181.227C223.12 181.227 224.356 182.463 224.356 183.988V278.37H218.833V183.988Z" fill="#F02E65" fill-opacity="0.4"/>
<path d="M218.833 211.309C218.833 209.784 220.069 208.548 221.594 208.548C223.12 208.548 224.356 209.784 224.356 211.309V278.369H218.833V211.309Z" fill="#F02E65"/>
<path d="M234.481 203.214C234.481 201.688 235.718 200.452 237.243 200.452C238.768 200.452 240.004 201.688 240.004 203.214V278.369H234.481V203.214Z" fill="#F02E65" fill-opacity="0.4"/>
<path d="M234.481 228.511C234.481 226.986 235.718 225.75 237.243 225.75C238.768 225.75 240.004 226.986 240.004 228.511V278.369H234.481V228.511Z" fill="#F02E65"/>
<path d="M250.129 233.571C250.129 232.046 251.365 230.81 252.89 230.81C254.415 230.81 255.652 232.046 255.652 233.571V278.369H250.129V233.571Z" fill="#F02E65" fill-opacity="0.4"/>
<path d="M250.129 252.798C250.129 251.272 251.365 250.036 252.89 250.036C254.415 250.036 255.652 251.272 255.652 252.798V278.37H250.129V252.798Z" fill="#F02E65"/>
<path d="M265.777 214.345C265.777 212.82 267.014 211.583 268.539 211.583C270.064 211.583 271.3 212.82 271.3 214.345V278.369H265.777V214.345Z" fill="#F02E65" fill-opacity="0.4"/>
<path d="M265.777 233.571C265.777 232.045 267.014 230.809 268.539 230.809C270.064 230.809 271.3 232.045 271.3 233.571V278.369H265.777V233.571Z" fill="#F02E65"/>
<path d="M281.426 183.988C281.426 182.463 282.662 181.227 284.187 181.227C285.712 181.227 286.949 182.463 286.949 183.988V278.37H281.426V183.988Z" fill="#F02E65" fill-opacity="0.4"/>
<path d="M281.426 211.309C281.426 209.784 282.662 208.548 284.187 208.548C285.712 208.548 286.949 209.784 286.949 211.309V278.369H281.426V211.309Z" fill="#F02E65"/>
<path d="M297.073 214.345C297.073 212.82 298.31 211.584 299.835 211.584C301.36 211.584 302.596 212.82 302.596 214.345V278.37H297.073V214.345Z" fill="#F02E65" fill-opacity="0.4"/>
<path d="M297.073 238.631C297.073 237.106 298.31 235.87 299.835 235.87C301.36 235.87 302.596 237.106 302.596 238.631V278.37H297.073V238.631Z" fill="#F02E65"/>
<path d="M312.722 183.988C312.722 182.463 313.958 181.227 315.483 181.227C317.008 181.227 318.245 182.463 318.245 183.988V278.37H312.722V183.988Z" fill="#F02E65" fill-opacity="0.4"/>
<path d="M312.722 211.309C312.722 209.784 313.958 208.548 315.483 208.548C317.008 208.548 318.245 209.784 318.245 211.309V278.369H312.722V211.309Z" fill="#F02E65"/>
<path d="M328.37 214.345C328.37 212.82 329.606 211.584 331.132 211.584C332.657 211.584 333.893 212.82 333.893 214.345V278.37H328.37V214.345Z" fill="#F02E65" fill-opacity="0.4"/>
<path d="M328.37 238.631C328.37 237.106 329.606 235.87 331.132 235.87C332.657 235.87 333.893 237.106 333.893 238.631V278.37H328.37V238.631Z" fill="#F02E65"/>
<path d="M344.018 183.988C344.018 182.463 345.254 181.227 346.779 181.227C348.304 181.227 349.54 182.463 349.54 183.988V278.37H344.018V183.988Z" fill="#F02E65" fill-opacity="0.4"/>
<path d="M344.018 215.357C344.018 213.832 345.254 212.596 346.779 212.596C348.304 212.596 349.54 213.832 349.54 215.357V278.37H344.018V215.357Z" fill="#F02E65"/>
<path d="M360 177.253C360 175.872 361.119 174.753 362.5 174.753C363.881 174.753 365 175.872 365 177.253V278.369H360V177.253Z" fill="#F02E65" fill-opacity="0.4"/>
<path d="M360 211.526C360 210.146 361.119 209.026 362.5 209.026C363.881 209.026 365 210.146 365 211.526V278.37H360V211.526Z" fill="#F02E65"/>
<path d="M375.314 183.988C375.314 182.463 376.551 181.227 378.076 181.227C379.601 181.227 380.837 182.463 380.837 183.988V278.37H375.314V183.988Z" fill="#F02E65" fill-opacity="0.4"/>
<path d="M375.314 214.345C375.314 212.82 376.551 211.583 378.076 211.583C379.601 211.583 380.837 212.82 380.837 214.345V278.369H375.314V214.345Z" fill="#F02E65"/>
<path d="M390.962 214.345C390.962 212.82 392.198 211.584 393.723 211.584C395.248 211.584 396.485 212.82 396.485 214.345V278.37H390.962V214.345Z" fill="#F02E65" fill-opacity="0.4"/>
<path d="M390.962 238.631C390.962 237.106 392.198 235.87 393.723 235.87C395.248 235.87 396.485 237.106 396.485 238.631V278.37H390.962V238.631Z" fill="#F02E65"/>
<path d="M406.61 183.988C406.61 182.463 407.847 181.227 409.372 181.227C410.897 181.227 412.133 182.463 412.133 183.988V278.37H406.61V183.988Z" fill="#F02E65" fill-opacity="0.4"/>
<path d="M406.61 192.083C406.61 190.558 407.847 189.321 409.372 189.321C410.897 189.321 412.133 190.558 412.133 192.083V278.369H406.61V192.083Z" fill="#F02E65"/>
<path d="M422.259 214.345C422.259 212.82 423.495 211.584 425.02 211.584C426.545 211.584 427.782 212.82 427.782 214.345V278.37H422.259V214.345Z" fill="#F02E65" fill-opacity="0.4"/>
<path d="M422.259 236.607C422.259 235.082 423.495 233.845 425.02 233.845C426.545 233.845 427.782 235.082 427.782 236.607V278.369H422.259V236.607Z" fill="#F02E65"/>
<path d="M437.906 236.496C437.906 234.971 439.143 233.734 440.668 233.734C442.193 233.734 443.429 234.971 443.429 236.496V278.369H437.906V236.496Z" fill="#F02E65" fill-opacity="0.4"/>
<path d="M437.906 245.287C437.906 243.762 439.143 242.526 440.668 242.526C442.193 242.526 443.429 243.762 443.429 245.287V278.369H437.906V245.287Z" fill="#F02E65"/>
<path d="M453.555 214.345C453.555 212.82 454.791 211.583 456.316 211.583C457.841 211.583 459.078 212.82 459.078 214.345V278.369H453.555V214.345Z" fill="#F02E65" fill-opacity="0.4"/>
<path d="M453.555 227.5C453.555 225.975 454.791 224.738 456.316 224.738C457.841 224.738 459.078 225.975 459.078 227.5V278.369H453.555V227.5Z" fill="#F02E65"/>
<path d="M470.123 206.208C470.123 204.683 471.359 203.447 472.884 203.447C474.41 203.447 475.646 204.683 475.646 206.208V278.203H470.123V206.208Z" fill="#F02E65" fill-opacity="0.4"/>
<path d="M470.123 220.933C470.123 219.408 471.359 218.171 472.884 218.171C474.41 218.171 475.646 219.408 475.646 220.933V278.203H470.123V220.933Z" fill="#F02E65"/>
<path d="M486.691 214.178C486.691 212.653 487.928 211.417 489.453 211.417C490.978 211.417 492.214 212.653 492.214 214.178V278.203H486.691V214.178Z" fill="#F02E65" fill-opacity="0.4"/>
<path d="M486.691 227.333C486.691 225.808 487.928 224.571 489.453 224.571C490.978 224.571 492.214 225.808 492.214 227.333V278.202H486.691V227.333Z" fill="#F02E65"/>
<path d="M503.261 222.149C503.261 220.624 504.497 219.388 506.022 219.388C507.547 219.388 508.784 220.624 508.784 222.149V278.203H503.261V222.149Z" fill="#F02E65" fill-opacity="0.4"/>
<path d="M503.261 233.734C503.261 232.209 504.497 230.972 506.022 230.972C507.547 230.972 508.784 232.209 508.784 233.734V278.203H503.261V233.734Z" fill="#F02E65"/>
<path d="M519.829 199.832C519.829 198.307 521.065 197.07 522.591 197.07C524.116 197.07 525.352 198.307 525.352 199.832V279H519.829V199.832Z" fill="#F02E65" fill-opacity="0.4"/>
<path d="M519.829 215.969C519.829 214.444 521.065 213.208 522.591 213.208C524.116 213.208 525.352 214.444 525.352 215.969V279H519.829V215.969Z" fill="#F02E65"/>
<path d="M535.478 214.345C535.478 212.82 536.714 211.584 538.239 211.584C539.764 211.584 541 212.82 541 214.345V278.37H535.478V214.345Z" fill="#F02E65" fill-opacity="0.4"/>
<path d="M535.478 227.5C535.478 225.975 536.714 224.738 538.239 224.738C539.764 224.738 541 225.975 541 227.5V278.369H535.478V227.5Z" fill="#F02E65"/>
<rect x="597" y="1" width="572" height="340" rx="16" fill="white" stroke="#FAFAFB"/>
<path opacity="0.5" d="M629.5 131.707V130.838L633.335 124.77H633.966V126.116H633.539L630.642 130.702V130.77H635.806V131.707H629.5ZM633.608 133.497V131.443V131.038V124.77H634.613V133.497H633.608ZM640.25 133.616C639.608 133.616 639.061 133.442 638.609 133.092C638.158 132.74 637.813 132.23 637.574 131.562C637.335 130.892 637.216 130.082 637.216 129.133C637.216 128.19 637.335 127.385 637.574 126.717C637.815 126.047 638.162 125.535 638.614 125.183C639.068 124.828 639.614 124.65 640.25 124.65C640.886 124.65 641.43 124.828 641.882 125.183C642.337 125.535 642.683 126.047 642.922 126.717C643.163 127.385 643.284 128.19 643.284 129.133C643.284 130.082 643.165 130.892 642.926 131.562C642.688 132.23 642.342 132.74 641.891 133.092C641.439 133.442 640.892 133.616 640.25 133.616ZM640.25 132.679C640.886 132.679 641.381 132.372 641.733 131.758C642.085 131.145 642.261 130.27 642.261 129.133C642.261 128.378 642.18 127.734 642.018 127.203C641.859 126.672 641.629 126.267 641.328 125.989C641.03 125.71 640.67 125.571 640.25 125.571C639.619 125.571 639.126 125.882 638.771 126.504C638.416 127.123 638.239 128 638.239 129.133C638.239 129.889 638.318 130.531 638.477 131.06C638.636 131.588 638.865 131.99 639.163 132.266C639.464 132.541 639.827 132.679 640.25 132.679ZM647.75 133.616C647.108 133.616 646.561 133.442 646.109 133.092C645.658 132.74 645.313 132.23 645.074 131.562C644.835 130.892 644.716 130.082 644.716 129.133C644.716 128.19 644.835 127.385 645.074 126.717C645.315 126.047 645.662 125.535 646.114 125.183C646.568 124.828 647.114 124.65 647.75 124.65C648.386 124.65 648.93 124.828 649.382 125.183C649.837 125.535 650.183 126.047 650.422 126.717C650.663 127.385 650.784 128.19 650.784 129.133C650.784 130.082 650.665 130.892 650.426 131.562C650.188 132.23 649.842 132.74 649.391 133.092C648.939 133.442 648.392 133.616 647.75 133.616ZM647.75 132.679C648.386 132.679 648.881 132.372 649.233 131.758C649.585 131.145 649.761 130.27 649.761 129.133C649.761 128.378 649.68 127.734 649.518 127.203C649.359 126.672 649.129 126.267 648.828 125.989C648.53 125.71 648.17 125.571 647.75 125.571C647.119 125.571 646.626 125.882 646.271 126.504C645.916 127.123 645.739 128 645.739 129.133C645.739 129.889 645.818 130.531 645.977 131.06C646.136 131.588 646.365 131.99 646.663 132.266C646.964 132.541 647.327 132.679 647.75 132.679ZM655.25 133.616C654.608 133.616 654.061 133.442 653.609 133.092C653.158 132.74 652.813 132.23 652.574 131.562C652.335 130.892 652.216 130.082 652.216 129.133C652.216 128.19 652.335 127.385 652.574 126.717C652.815 126.047 653.162 125.535 653.614 125.183C654.068 124.828 654.614 124.65 655.25 124.65C655.886 124.65 656.43 124.828 656.882 125.183C657.337 125.535 657.683 126.047 657.922 126.717C658.163 127.385 658.284 128.19 658.284 129.133C658.284 130.082 658.165 130.892 657.926 131.562C657.688 132.23 657.342 132.74 656.891 133.092C656.439 133.442 655.892 133.616 655.25 133.616ZM655.25 132.679C655.886 132.679 656.381 132.372 656.733 131.758C657.085 131.145 657.261 130.27 657.261 129.133C657.261 128.378 657.18 127.734 657.018 127.203C656.859 126.672 656.629 126.267 656.328 125.989C656.03 125.71 655.67 125.571 655.25 125.571C654.619 125.571 654.126 125.882 653.771 126.504C653.416 127.123 653.239 128 653.239 129.133C653.239 129.889 653.318 130.531 653.477 131.06C653.636 131.588 653.865 131.99 654.163 132.266C654.464 132.541 654.827 132.679 655.25 132.679Z" fill="#97979B"/>
<line x1="675" y1="129.247" x2="1138" y2="129.247" stroke="#FAFAFB" stroke-width="0.5"/>
<path opacity="0.5" d="M632.712 168.886C632.149 168.886 631.648 168.789 631.207 168.596C630.77 168.403 630.422 168.134 630.163 167.791C629.908 167.444 629.768 167.042 629.746 166.585H630.82C630.842 166.866 630.939 167.109 631.109 167.313C631.28 167.515 631.503 167.671 631.778 167.782C632.054 167.893 632.359 167.948 632.695 167.948C633.07 167.948 633.402 167.883 633.692 167.752C633.982 167.622 634.209 167.44 634.374 167.207C634.538 166.974 634.621 166.704 634.621 166.397C634.621 166.076 634.541 165.794 634.382 165.549C634.223 165.302 633.99 165.109 633.683 164.97C633.376 164.831 633.001 164.761 632.558 164.761H631.859V163.823H632.558C632.905 163.823 633.209 163.761 633.47 163.636C633.734 163.511 633.94 163.335 634.088 163.108C634.239 162.88 634.314 162.613 634.314 162.306C634.314 162.011 634.249 161.754 634.118 161.535C633.987 161.316 633.803 161.146 633.564 161.024C633.328 160.902 633.05 160.84 632.729 160.84C632.428 160.84 632.143 160.896 631.876 161.007C631.612 161.115 631.396 161.272 631.229 161.48C631.061 161.684 630.97 161.931 630.956 162.221H629.933C629.95 161.764 630.088 161.363 630.347 161.019C630.605 160.673 630.943 160.403 631.361 160.21C631.781 160.017 632.243 159.92 632.746 159.92C633.286 159.92 633.749 160.029 634.135 160.248C634.521 160.464 634.818 160.75 635.026 161.105C635.233 161.46 635.337 161.843 635.337 162.255C635.337 162.747 635.207 163.166 634.949 163.512C634.693 163.859 634.345 164.099 633.905 164.233V164.301C634.456 164.392 634.886 164.626 635.196 165.004C635.506 165.379 635.661 165.843 635.661 166.397C635.661 166.872 635.531 167.298 635.273 167.676C635.017 168.051 634.668 168.346 634.224 168.562C633.781 168.778 633.277 168.886 632.712 168.886ZM640.25 168.886C639.608 168.886 639.061 168.711 638.609 168.362C638.158 168.009 637.813 167.5 637.574 166.832C637.335 166.161 637.216 165.352 637.216 164.403C637.216 163.46 637.335 162.654 637.574 161.987C637.815 161.316 638.162 160.805 638.614 160.453C639.068 160.098 639.614 159.92 640.25 159.92C640.886 159.92 641.43 160.098 641.882 160.453C642.337 160.805 642.683 161.316 642.922 161.987C643.163 162.654 643.284 163.46 643.284 164.403C643.284 165.352 643.165 166.161 642.926 166.832C642.688 167.5 642.342 168.009 641.891 168.362C641.439 168.711 640.892 168.886 640.25 168.886ZM640.25 167.948C640.886 167.948 641.381 167.642 641.733 167.028C642.085 166.414 642.261 165.539 642.261 164.403C642.261 163.647 642.18 163.004 642.018 162.473C641.859 161.941 641.629 161.536 641.328 161.258C641.03 160.98 640.67 160.84 640.25 160.84C639.619 160.84 639.126 161.152 638.771 161.774C638.416 162.393 638.239 163.269 638.239 164.403C638.239 165.159 638.318 165.801 638.477 166.329C638.636 166.858 638.865 167.259 639.163 167.535C639.464 167.811 639.827 167.948 640.25 167.948ZM647.75 168.886C647.108 168.886 646.561 168.711 646.109 168.362C645.658 168.009 645.313 167.5 645.074 166.832C644.835 166.161 644.716 165.352 644.716 164.403C644.716 163.46 644.835 162.654 645.074 161.987C645.315 161.316 645.662 160.805 646.114 160.453C646.568 160.098 647.114 159.92 647.75 159.92C648.386 159.92 648.93 160.098 649.382 160.453C649.837 160.805 650.183 161.316 650.422 161.987C650.663 162.654 650.784 163.46 650.784 164.403C650.784 165.352 650.665 166.161 650.426 166.832C650.188 167.5 649.842 168.009 649.391 168.362C648.939 168.711 648.392 168.886 647.75 168.886ZM647.75 167.948C648.386 167.948 648.881 167.642 649.233 167.028C649.585 166.414 649.761 165.539 649.761 164.403C649.761 163.647 649.68 163.004 649.518 162.473C649.359 161.941 649.129 161.536 648.828 161.258C648.53 160.98 648.17 160.84 647.75 160.84C647.119 160.84 646.626 161.152 646.271 161.774C645.916 162.393 645.739 163.269 645.739 164.403C645.739 165.159 645.818 165.801 645.977 166.329C646.136 166.858 646.365 167.259 646.663 167.535C646.964 167.811 647.327 167.948 647.75 167.948ZM655.25 168.886C654.608 168.886 654.061 168.711 653.609 168.362C653.158 168.009 652.813 167.5 652.574 166.832C652.335 166.161 652.216 165.352 652.216 164.403C652.216 163.46 652.335 162.654 652.574 161.987C652.815 161.316 653.162 160.805 653.614 160.453C654.068 160.098 654.614 159.92 655.25 159.92C655.886 159.92 656.43 160.098 656.882 160.453C657.337 160.805 657.683 161.316 657.922 161.987C658.163 162.654 658.284 163.46 658.284 164.403C658.284 165.352 658.165 166.161 657.926 166.832C657.688 167.5 657.342 168.009 656.891 168.362C656.439 168.711 655.892 168.886 655.25 168.886ZM655.25 167.948C655.886 167.948 656.381 167.642 656.733 167.028C657.085 166.414 657.261 165.539 657.261 164.403C657.261 163.647 657.18 163.004 657.018 162.473C656.859 161.941 656.629 161.536 656.328 161.258C656.03 160.98 655.67 160.84 655.25 160.84C654.619 160.84 654.126 161.152 653.771 161.774C653.416 162.393 653.239 163.269 653.239 164.403C653.239 165.159 653.318 165.801 653.477 166.329C653.636 166.858 653.865 167.259 654.163 167.535C654.464 167.811 654.827 167.948 655.25 167.948Z" fill="#97979B"/>
<line x1="675" y1="164.517" x2="1138" y2="164.517" stroke="#FAFAFB" stroke-width="0.5"/>
<path opacity="0.5" d="M630.138 204.964V204.197L633.018 201.044C633.357 200.675 633.635 200.354 633.854 200.081C634.072 199.805 634.234 199.547 634.339 199.305C634.447 199.061 634.501 198.805 634.501 198.538C634.501 198.231 634.428 197.966 634.28 197.741C634.135 197.517 633.936 197.344 633.683 197.221C633.43 197.099 633.146 197.038 632.831 197.038C632.496 197.038 632.203 197.108 631.953 197.247C631.706 197.383 631.514 197.575 631.378 197.822C631.244 198.069 631.178 198.359 631.178 198.692H630.172C630.172 198.18 630.29 197.731 630.526 197.345C630.761 196.959 631.082 196.658 631.489 196.442C631.898 196.226 632.357 196.118 632.865 196.118C633.376 196.118 633.83 196.226 634.224 196.442C634.619 196.658 634.929 196.949 635.153 197.315C635.378 197.682 635.49 198.089 635.49 198.538C635.49 198.859 635.432 199.173 635.315 199.48C635.202 199.784 635.003 200.123 634.719 200.498C634.438 200.871 634.047 201.325 633.547 201.862L631.587 203.959V204.027H635.643V204.964H630.138ZM640.25 205.084C639.608 205.084 639.061 204.909 638.609 204.56C638.158 204.207 637.813 203.697 637.574 203.03C637.335 202.359 637.216 201.55 637.216 200.601C637.216 199.658 637.335 198.852 637.574 198.185C637.815 197.514 638.162 197.003 638.614 196.65C639.068 196.295 639.614 196.118 640.25 196.118C640.886 196.118 641.43 196.295 641.882 196.65C642.337 197.003 642.683 197.514 642.922 198.185C643.163 198.852 643.284 199.658 643.284 200.601C643.284 201.55 643.165 202.359 642.926 203.03C642.688 203.697 642.342 204.207 641.891 204.56C641.439 204.909 640.892 205.084 640.25 205.084ZM640.25 204.146C640.886 204.146 641.381 203.839 641.733 203.226C642.085 202.612 642.261 201.737 642.261 200.601C642.261 199.845 642.18 199.202 642.018 198.67C641.859 198.139 641.629 197.734 641.328 197.456C641.03 197.177 640.67 197.038 640.25 197.038C639.619 197.038 639.126 197.349 638.771 197.971C638.416 198.591 638.239 199.467 638.239 200.601C638.239 201.356 638.318 201.998 638.477 202.527C638.636 203.055 638.865 203.457 639.163 203.733C639.464 204.008 639.827 204.146 640.25 204.146ZM647.75 205.084C647.108 205.084 646.561 204.909 646.109 204.56C645.658 204.207 645.313 203.697 645.074 203.03C644.835 202.359 644.716 201.55 644.716 200.601C644.716 199.658 644.835 198.852 645.074 198.185C645.315 197.514 645.662 197.003 646.114 196.65C646.568 196.295 647.114 196.118 647.75 196.118C648.386 196.118 648.93 196.295 649.382 196.65C649.837 197.003 650.183 197.514 650.422 198.185C650.663 198.852 650.784 199.658 650.784 200.601C650.784 201.55 650.665 202.359 650.426 203.03C650.188 203.697 649.842 204.207 649.391 204.56C648.939 204.909 648.392 205.084 647.75 205.084ZM647.75 204.146C648.386 204.146 648.881 203.839 649.233 203.226C649.585 202.612 649.761 201.737 649.761 200.601C649.761 199.845 649.68 199.202 649.518 198.67C649.359 198.139 649.129 197.734 648.828 197.456C648.53 197.177 648.17 197.038 647.75 197.038C647.119 197.038 646.626 197.349 646.271 197.971C645.916 198.591 645.739 199.467 645.739 200.601C645.739 201.356 645.818 201.998 645.977 202.527C646.136 203.055 646.365 203.457 646.663 203.733C646.964 204.008 647.327 204.146 647.75 204.146ZM655.25 205.084C654.608 205.084 654.061 204.909 653.609 204.56C653.158 204.207 652.813 203.697 652.574 203.03C652.335 202.359 652.216 201.55 652.216 200.601C652.216 199.658 652.335 198.852 652.574 198.185C652.815 197.514 653.162 197.003 653.614 196.65C654.068 196.295 654.614 196.118 655.25 196.118C655.886 196.118 656.43 196.295 656.882 196.65C657.337 197.003 657.683 197.514 657.922 198.185C658.163 198.852 658.284 199.658 658.284 200.601C658.284 201.55 658.165 202.359 657.926 203.03C657.688 203.697 657.342 204.207 656.891 204.56C656.439 204.909 655.892 205.084 655.25 205.084ZM655.25 204.146C655.886 204.146 656.381 203.839 656.733 203.226C657.085 202.612 657.261 201.737 657.261 200.601C657.261 199.845 657.18 199.202 657.018 198.67C656.859 198.139 656.629 197.734 656.328 197.456C656.03 197.177 655.67 197.038 655.25 197.038C654.619 197.038 654.126 197.349 653.771 197.971C653.416 198.591 653.239 199.467 653.239 200.601C653.239 201.356 653.318 201.998 653.477 202.527C653.636 203.055 653.865 203.457 654.163 203.733C654.464 204.008 654.827 204.146 655.25 204.146Z" fill="#97979B"/>
<line x1="675" y1="200.714" x2="1138" y2="200.714" stroke="#FAFAFB" stroke-width="0.5"/>
<path opacity="0.5" d="M634.893 231.507V240.234H633.837V232.615H633.786L631.655 234.029V232.955L633.837 231.507H634.893ZM640.25 240.353C639.608 240.353 639.061 240.178 638.609 239.829C638.158 239.477 637.813 238.967 637.574 238.299C637.335 237.629 637.216 236.819 637.216 235.87C637.216 234.927 637.335 234.122 637.574 233.454C637.815 232.784 638.162 232.272 638.614 231.92C639.068 231.565 639.614 231.387 640.25 231.387C640.886 231.387 641.43 231.565 641.882 231.92C642.337 232.272 642.683 232.784 642.922 233.454C643.163 234.122 643.284 234.927 643.284 235.87C643.284 236.819 643.165 237.629 642.926 238.299C642.688 238.967 642.342 239.477 641.891 239.829C641.439 240.178 640.892 240.353 640.25 240.353ZM640.25 239.416C640.886 239.416 641.381 239.109 641.733 238.495C642.085 237.882 642.261 237.007 642.261 235.87C642.261 235.115 642.18 234.471 642.018 233.94C641.859 233.409 641.629 233.004 641.328 232.725C641.03 232.447 640.67 232.308 640.25 232.308C639.619 232.308 639.126 232.619 638.771 233.241C638.416 233.86 638.239 234.737 638.239 235.87C638.239 236.626 638.318 237.268 638.477 237.796C638.636 238.325 638.865 238.727 639.163 239.002C639.464 239.278 639.827 239.416 640.25 239.416ZM647.75 240.353C647.108 240.353 646.561 240.178 646.109 239.829C645.658 239.477 645.313 238.967 645.074 238.299C644.835 237.629 644.716 236.819 644.716 235.87C644.716 234.927 644.835 234.122 645.074 233.454C645.315 232.784 645.662 232.272 646.114 231.92C646.568 231.565 647.114 231.387 647.75 231.387C648.386 231.387 648.93 231.565 649.382 231.92C649.837 232.272 650.183 232.784 650.422 233.454C650.663 234.122 650.784 234.927 650.784 235.87C650.784 236.819 650.665 237.629 650.426 238.299C650.188 238.967 649.842 239.477 649.391 239.829C648.939 240.178 648.392 240.353 647.75 240.353ZM647.75 239.416C648.386 239.416 648.881 239.109 649.233 238.495C649.585 237.882 649.761 237.007 649.761 235.87C649.761 235.115 649.68 234.471 649.518 233.94C649.359 233.409 649.129 233.004 648.828 232.725C648.53 232.447 648.17 232.308 647.75 232.308C647.119 232.308 646.626 232.619 646.271 233.241C645.916 233.86 645.739 234.737 645.739 235.87C645.739 236.626 645.818 237.268 645.977 237.796C646.136 238.325 646.365 238.727 646.663 239.002C646.964 239.278 647.327 239.416 647.75 239.416ZM655.25 240.353C654.608 240.353 654.061 240.178 653.609 239.829C653.158 239.477 652.813 238.967 652.574 238.299C652.335 237.629 652.216 236.819 652.216 235.87C652.216 234.927 652.335 234.122 652.574 233.454C652.815 232.784 653.162 232.272 653.614 231.92C654.068 231.565 654.614 231.387 655.25 231.387C655.886 231.387 656.43 231.565 656.882 231.92C657.337 232.272 657.683 232.784 657.922 233.454C658.163 234.122 658.284 234.927 658.284 235.87C658.284 236.819 658.165 237.629 657.926 238.299C657.688 238.967 657.342 239.477 656.891 239.829C656.439 240.178 655.892 240.353 655.25 240.353ZM655.25 239.416C655.886 239.416 656.381 239.109 656.733 238.495C657.085 237.882 657.261 237.007 657.261 235.87C657.261 235.115 657.18 234.471 657.018 233.94C656.859 233.409 656.629 233.004 656.328 232.725C656.03 232.447 655.67 232.308 655.25 232.308C654.619 232.308 654.126 232.619 653.771 233.241C653.416 233.86 653.239 234.737 653.239 235.87C653.239 236.626 653.318 237.268 653.477 237.796C653.636 238.325 653.865 238.727 654.163 239.002C654.464 239.278 654.827 239.416 655.25 239.416Z" fill="#97979B"/>
<line x1="675" y1="235.984" x2="1138" y2="235.984" stroke="#FAFAFB" stroke-width="0.5"/>
<path opacity="0.5" d="M655.25 275.622C654.608 275.622 654.061 275.448 653.609 275.098C653.158 274.746 652.813 274.236 652.574 273.568C652.335 272.898 652.216 272.088 652.216 271.139C652.216 270.196 652.335 269.391 652.574 268.723C652.815 268.053 653.162 267.541 653.614 267.189C654.068 266.834 654.614 266.656 655.25 266.656C655.886 266.656 656.43 266.834 656.882 267.189C657.337 267.541 657.683 268.053 657.922 268.723C658.163 269.391 658.284 270.196 658.284 271.139C658.284 272.088 658.165 272.898 657.926 273.568C657.688 274.236 657.342 274.746 656.891 275.098C656.439 275.448 655.892 275.622 655.25 275.622ZM655.25 274.685C655.886 274.685 656.381 274.378 656.733 273.764C657.085 273.151 657.261 272.276 657.261 271.139C657.261 270.384 657.18 269.74 657.018 269.209C656.859 268.678 656.629 268.273 656.328 267.994C656.03 267.716 655.67 267.577 655.25 267.577C654.619 267.577 654.126 267.888 653.771 268.51C653.416 269.129 653.239 270.006 653.239 271.139C653.239 271.895 653.318 272.537 653.477 273.065C653.636 273.594 653.865 273.996 654.163 274.271C654.464 274.547 654.827 274.685 655.25 274.685Z" fill="#97979B"/>
<line x1="675" y1="271.253" x2="1138" y2="271.253" stroke="#FAFAFB" stroke-width="0.5"/>
<path d="M675.5 272C680.5 265.5 687.5 262.5 697.259 231.884C701.736 217.842 713.887 168.103 731.921 164.565C765.068 158.062 781.154 200.517 807.964 200.517C829.9 200.517 838.858 190.24 856.32 174.025C873.781 157.81 884.576 168.129 890.29 171.077C896.005 174.025 923.944 198.348 942.676 151.545C957.661 114.102 984.36 127.959 996.648 138.278C1009.62 147.122 1041.32 210.133 1062.91 199.519C1084.5 188.905 1123.84 174.025 1137 212.501" stroke="#F02E65"/>
<rect x="629" y="33" width="92" height="12" rx="6" fill="url(#paint0_linear_10_857)"/>
<rect x="1111" y="33" width="40" height="12" rx="6" fill="url(#paint1_linear_10_857)"/>
<path d="M32.3365 73V62.8182H35.8961C36.6054 62.8182 37.1904 62.9408 37.6511 63.1861C38.1118 63.428 38.4548 63.7545 38.6802 64.1655C38.9056 64.5732 39.0183 65.0256 39.0183 65.5227C39.0183 65.9602 38.9404 66.3215 38.7846 66.6065C38.6322 66.8916 38.43 67.117 38.1781 67.2827C37.9295 67.4484 37.6594 67.571 37.3677 67.6506V67.75C37.6793 67.7699 37.9925 67.8793 38.3074 68.0781C38.6222 68.277 38.8857 68.562 39.0978 68.9332C39.31 69.3045 39.416 69.7585 39.416 70.2955C39.416 70.8059 39.3 71.2649 39.068 71.6726C38.836 72.0803 38.4698 72.4034 37.9693 72.642C37.4688 72.8807 36.8175 73 36.0154 73H32.3365ZM33.5694 71.9062H36.0154C36.8208 71.9062 37.3926 71.7505 37.7306 71.4389C38.072 71.1241 38.2427 70.7429 38.2427 70.2955C38.2427 69.9508 38.1549 69.6326 37.9792 69.3409C37.8036 69.0459 37.5533 68.8106 37.2285 68.6349C36.9037 68.456 36.5192 68.3665 36.0751 68.3665H33.5694V71.9062ZM33.5694 67.2926H35.8564C36.2276 67.2926 36.5623 67.2197 36.8606 67.0739C37.1622 66.928 37.4009 66.7225 37.5765 66.4574C37.7555 66.1922 37.845 65.8807 37.845 65.5227C37.845 65.0753 37.6892 64.6958 37.3777 64.3842C37.0661 64.0694 36.5723 63.9119 35.8961 63.9119H33.5694V67.2926ZM43.53 73.179C43.0461 73.179 42.6069 73.0878 42.2125 72.9055C41.8181 72.7199 41.5049 72.4531 41.2729 72.1051C41.0409 71.7538 40.9249 71.3295 40.9249 70.8324C40.9249 70.3949 41.0111 70.0402 41.1834 69.7685C41.3558 69.4934 41.5861 69.2779 41.8745 69.1222C42.1628 68.9664 42.481 68.8504 42.829 68.7741C43.1803 68.6946 43.5333 68.6316 43.888 68.5852C44.352 68.5256 44.7282 68.4808 45.0165 68.451C45.3082 68.4179 45.5203 68.3632 45.6529 68.2869C45.7888 68.2107 45.8567 68.0781 45.8567 67.8892V67.8494C45.8567 67.3589 45.7225 66.9777 45.454 66.706C45.1889 66.4342 44.7862 66.2983 44.2459 66.2983C43.6858 66.2983 43.2466 66.4209 42.9284 66.6662C42.6103 66.9115 42.3865 67.1733 42.2573 67.4517L41.1436 67.054C41.3425 66.59 41.6077 66.2287 41.9391 65.9702C42.2739 65.7083 42.6384 65.526 43.0328 65.4233C43.4306 65.3172 43.8217 65.2642 44.2061 65.2642C44.4514 65.2642 44.7331 65.294 45.0513 65.3537C45.3728 65.41 45.6827 65.5277 45.981 65.7067C46.2826 65.8857 46.5328 66.1558 46.7317 66.517C46.9306 66.8783 47.03 67.3622 47.03 67.9688V73H45.8567V71.9659H45.7971C45.7175 72.1316 45.5849 72.3089 45.3993 72.4979C45.2137 72.6868 44.9668 72.8475 44.6586 72.9801C44.3503 73.1127 43.9741 73.179 43.53 73.179ZM43.709 72.125C44.173 72.125 44.5641 72.0339 44.8823 71.8516C45.2038 71.6693 45.4457 71.4339 45.6081 71.1456C45.7739 70.8572 45.8567 70.554 45.8567 70.2358V69.1619C45.807 69.2216 45.6976 69.2763 45.5286 69.326C45.3629 69.3724 45.1706 69.4138 44.9519 69.4503C44.7364 69.4834 44.526 69.5133 44.3205 69.5398C44.1183 69.563 43.9542 69.5829 43.8283 69.5994C43.5234 69.6392 43.2383 69.7038 42.9732 69.7933C42.7114 69.8795 42.4992 70.0104 42.3368 70.1861C42.1777 70.3584 42.0982 70.5937 42.0982 70.892C42.0982 71.2997 42.249 71.608 42.5506 71.8168C42.8555 72.0223 43.2417 72.125 43.709 72.125ZM50.3448 68.4062V73H49.1715V65.3636H50.305V66.5568H50.4045C50.5835 66.169 50.8552 65.8575 51.2198 65.6222C51.5844 65.3835 52.055 65.2642 52.6317 65.2642C53.1488 65.2642 53.6012 65.3703 53.989 65.5824C54.3768 65.7912 54.6784 66.1094 54.8938 66.5369C55.1093 66.9612 55.217 67.4981 55.217 68.1477V73H54.0437V68.2273C54.0437 67.6274 53.8879 67.16 53.5763 66.8253C53.2648 66.4872 52.8372 66.3182 52.2937 66.3182C51.9192 66.3182 51.5844 66.3994 51.2894 66.5618C50.9978 66.7242 50.7674 66.9612 50.5984 67.2727C50.4293 67.5843 50.3448 67.9621 50.3448 68.4062ZM60.2445 73.1591C59.6081 73.1591 59.0463 72.9983 58.5591 72.6768C58.0719 72.352 57.6908 71.8946 57.4157 71.3047C57.1406 70.7114 57.003 70.0104 57.003 69.2017C57.003 68.3996 57.1406 67.7036 57.4157 67.1136C57.6908 66.5237 58.0736 66.0679 58.5641 65.7464C59.0546 65.425 59.6214 65.2642 60.2644 65.2642C60.7615 65.2642 61.1543 65.3471 61.4426 65.5128C61.7343 65.6752 61.9564 65.8608 62.1088 66.0696C62.2646 66.2751 62.3856 66.4441 62.4718 66.5767H62.5712V62.8182H63.7445V73H62.611V71.8267H62.4718C62.3856 71.9659 62.263 72.1416 62.1039 72.3537C61.9448 72.5625 61.7177 72.7498 61.4228 72.9155C61.1278 73.0779 60.735 73.1591 60.2445 73.1591ZM60.4036 72.1051C60.8742 72.1051 61.272 71.9825 61.5968 71.7372C61.9216 71.4886 62.1685 71.1456 62.3375 70.7081C62.5066 70.2673 62.5911 69.7585 62.5911 69.1818C62.5911 68.6117 62.5082 68.1129 62.3425 67.6854C62.1768 67.2545 61.9315 66.9197 61.6067 66.6811C61.2819 66.4392 60.8809 66.3182 60.4036 66.3182C59.9064 66.3182 59.4921 66.4458 59.1607 66.701C58.8326 66.9529 58.5856 67.2959 58.4199 67.7301C58.2575 68.161 58.1763 68.6449 58.1763 69.1818C58.1763 69.7254 58.2592 70.2192 58.4249 70.6634C58.5939 71.1042 58.8425 71.4555 59.1706 71.7173C59.5021 71.9759 59.9131 72.1051 60.4036 72.1051ZM67.7864 73L65.4597 65.3636H66.6926L68.3432 71.2102H68.4228L70.0534 65.3636H71.3063L72.9171 71.1903H72.9966L74.6472 65.3636H75.8801L73.5534 73H72.4L70.7296 67.1335H70.6103L68.9398 73H67.7864ZM77.4313 73V65.3636H78.6046V73H77.4313ZM78.0279 64.0909C77.7992 64.0909 77.602 64.013 77.4363 63.8572C77.2739 63.7015 77.1926 63.5142 77.1926 63.2955C77.1926 63.0767 77.2739 62.8894 77.4363 62.7337C77.602 62.5779 77.7992 62.5 78.0279 62.5C78.2566 62.5 78.4521 62.5779 78.6145 62.7337C78.7802 62.8894 78.8631 63.0767 78.8631 63.2955C78.8631 63.5142 78.7802 63.7015 78.6145 63.8572C78.4521 64.013 78.2566 64.0909 78.0279 64.0909ZM83.6371 73.1591C83.0007 73.1591 82.4389 72.9983 81.9517 72.6768C81.4645 72.352 81.0833 71.8946 80.8082 71.3047C80.5331 70.7114 80.3956 70.0104 80.3956 69.2017C80.3956 68.3996 80.5331 67.7036 80.8082 67.1136C81.0833 66.5237 81.4661 66.0679 81.9567 65.7464C82.4472 65.425 83.014 65.2642 83.657 65.2642C84.1541 65.2642 84.5469 65.3471 84.8352 65.5128C85.1269 65.6752 85.349 65.8608 85.5014 66.0696C85.6572 66.2751 85.7782 66.4441 85.8643 66.5767H85.9638V62.8182H87.1371V73H86.0036V71.8267H85.8643C85.7782 71.9659 85.6555 72.1416 85.4964 72.3537C85.3374 72.5625 85.1103 72.7498 84.8153 72.9155C84.5204 73.0779 84.1276 73.1591 83.6371 73.1591ZM83.7962 72.1051C84.2668 72.1051 84.6645 71.9825 84.9893 71.7372C85.3142 71.4886 85.5611 71.1456 85.7301 70.7081C85.8991 70.2673 85.9837 69.7585 85.9837 69.1818C85.9837 68.6117 85.9008 68.1129 85.7351 67.6854C85.5694 67.2545 85.3241 66.9197 84.9993 66.6811C84.6745 66.4392 84.2734 66.3182 83.7962 66.3182C83.299 66.3182 82.8847 66.4458 82.5533 66.701C82.2251 66.9529 81.9782 67.2959 81.8125 67.7301C81.6501 68.161 81.5689 68.6449 81.5689 69.1818C81.5689 69.7254 81.6518 70.2192 81.8175 70.6634C81.9865 71.1042 82.2351 71.4555 82.5632 71.7173C82.8946 71.9759 83.3056 72.1051 83.7962 72.1051ZM92.7699 65.3636V66.358H88.8125V65.3636H92.7699ZM89.9659 63.5341H91.1392V70.8125C91.1392 71.1439 91.1873 71.3925 91.2834 71.5582C91.3828 71.7206 91.5088 71.83 91.6612 71.8864C91.817 71.9394 91.9811 71.9659 92.1534 71.9659C92.2827 71.9659 92.3887 71.9593 92.4716 71.946C92.5545 71.9295 92.6207 71.9162 92.6705 71.9062L92.9091 72.9602C92.8295 72.9901 92.7185 73.0199 92.576 73.0497C92.4335 73.0829 92.2528 73.0994 92.0341 73.0994C91.7027 73.0994 91.3778 73.0282 91.0597 72.8857C90.7448 72.7431 90.483 72.526 90.2741 72.2344C90.0687 71.9427 89.9659 71.5748 89.9659 71.1307V63.5341ZM95.8722 68.4062V73H94.6989V62.8182H95.8722V66.5568H95.9716C96.1506 66.1624 96.419 65.8492 96.777 65.6172C97.1383 65.3819 97.6188 65.2642 98.2188 65.2642C98.7391 65.2642 99.1948 65.3686 99.5859 65.5774C99.977 65.7829 100.28 66.0994 100.496 66.527C100.714 66.9512 100.824 67.4915 100.824 68.1477V73H99.6506V68.2273C99.6506 67.6207 99.4931 67.1518 99.1783 66.8203C98.8667 66.4856 98.4342 66.3182 97.8807 66.3182C97.4962 66.3182 97.1515 66.3994 96.8466 66.5618C96.545 66.7242 96.3063 66.9612 96.1307 67.2727C95.9583 67.5843 95.8722 67.9621 95.8722 68.4062Z" fill="#6C6C71"/>
<path d="M632.526 73V62.8182H635.966C636.762 62.8182 637.415 62.9541 637.925 63.2259C638.435 63.4943 638.813 63.8639 639.059 64.3345C639.304 64.8052 639.426 65.3404 639.426 65.9403C639.426 66.5402 639.304 67.0722 639.059 67.5362C638.813 68.0002 638.437 68.3648 637.93 68.63C637.423 68.8918 636.775 69.0227 635.986 69.0227H633.202V67.9091H635.946C636.49 67.9091 636.927 67.8295 637.259 67.6705C637.594 67.5114 637.836 67.286 637.985 66.9943C638.137 66.6993 638.213 66.348 638.213 65.9403C638.213 65.5327 638.137 65.1764 637.985 64.8714C637.832 64.5665 637.589 64.3312 637.254 64.1655C636.919 63.9964 636.477 63.9119 635.926 63.9119H633.759V73H632.526ZM637.319 68.4261L639.824 73H638.392L635.926 68.4261H637.319ZM644.442 73.1591C643.706 73.1591 643.071 72.9967 642.537 72.6719C642.007 72.3438 641.598 71.8864 641.309 71.2997C641.024 70.7098 640.882 70.0237 640.882 69.2415C640.882 68.4593 641.024 67.7699 641.309 67.1733C641.598 66.5734 641.999 66.1061 642.513 65.7713C643.03 65.4332 643.633 65.2642 644.322 65.2642C644.72 65.2642 645.113 65.3305 645.501 65.4631C645.888 65.5956 646.241 65.8111 646.559 66.1094C646.878 66.4044 647.131 66.7955 647.32 67.2827C647.509 67.7699 647.604 68.3698 647.604 69.0824V69.5795H641.717V68.5653H646.41C646.41 68.1345 646.324 67.75 646.152 67.4119C645.983 67.0739 645.741 66.8071 645.426 66.6115C645.114 66.416 644.747 66.3182 644.322 66.3182C643.855 66.3182 643.451 66.4342 643.109 66.6662C642.771 66.8949 642.511 67.1932 642.329 67.5611C642.146 67.929 642.055 68.3234 642.055 68.7443V69.4205C642.055 69.9972 642.155 70.486 642.354 70.8871C642.556 71.2848 642.836 71.5881 643.194 71.7969C643.552 72.0024 643.968 72.1051 644.442 72.1051C644.75 72.1051 645.028 72.062 645.277 71.9759C645.529 71.8864 645.746 71.7538 645.928 71.5781C646.11 71.3991 646.251 71.1771 646.351 70.9119L647.484 71.2301C647.365 71.6146 647.164 71.9527 646.883 72.2443C646.601 72.5327 646.253 72.758 645.839 72.9205C645.424 73.0795 644.959 73.1591 644.442 73.1591ZM654.599 75.8636V71.8267H654.499C654.413 71.9659 654.29 72.1416 654.131 72.3537C653.972 72.5625 653.745 72.7498 653.45 72.9155C653.155 73.0779 652.762 73.1591 652.272 73.1591C651.635 73.1591 651.074 72.9983 650.586 72.6768C650.099 72.352 649.718 71.8946 649.443 71.3047C649.168 70.7114 649.03 70.0104 649.03 69.2017C649.03 68.3996 649.168 67.7036 649.443 67.1136C649.718 66.5237 650.101 66.0679 650.591 65.7464C651.082 65.425 651.649 65.2642 652.292 65.2642C652.789 65.2642 653.182 65.3471 653.47 65.5128C653.762 65.6752 653.984 65.8608 654.136 66.0696C654.292 66.2751 654.413 66.4441 654.499 66.5767H654.638V65.3636H655.772V75.8636H654.599ZM652.431 72.1051C652.902 72.1051 653.299 71.9825 653.624 71.7372C653.949 71.4886 654.196 71.1456 654.365 70.7081C654.534 70.2673 654.618 69.7585 654.618 69.1818C654.618 68.6117 654.536 68.1129 654.37 67.6854C654.204 67.2545 653.959 66.9197 653.634 66.6811C653.309 66.4392 652.908 66.3182 652.431 66.3182C651.934 66.3182 651.519 66.4458 651.188 66.701C650.86 66.9529 650.613 67.2959 650.447 67.7301C650.285 68.161 650.204 68.6449 650.204 69.1818C650.204 69.7254 650.287 70.2192 650.452 70.6634C650.621 71.1042 650.87 71.4555 651.198 71.7173C651.529 71.9759 651.94 72.1051 652.431 72.1051ZM662.732 69.8778V65.3636H663.905V73H662.732V71.7074H662.653C662.474 72.0952 662.195 72.425 661.817 72.6967C661.439 72.9652 660.962 73.0994 660.385 73.0994C659.908 73.0994 659.484 72.995 659.113 72.7862C658.742 72.5741 658.45 72.2559 658.238 71.8317C658.026 71.4041 657.92 70.8655 657.92 70.2159V65.3636H659.093V70.1364C659.093 70.6932 659.249 71.1373 659.56 71.4688C659.875 71.8002 660.276 71.9659 660.763 71.9659C661.055 71.9659 661.352 71.8913 661.653 71.7422C661.958 71.593 662.213 71.3643 662.419 71.0561C662.628 70.7479 662.732 70.3551 662.732 69.8778ZM669.256 73.1591C668.52 73.1591 667.886 72.9967 667.352 72.6719C666.822 72.3438 666.412 71.8864 666.124 71.2997C665.839 70.7098 665.696 70.0237 665.696 69.2415C665.696 68.4593 665.839 67.7699 666.124 67.1733C666.412 66.5734 666.813 66.1061 667.327 65.7713C667.844 65.4332 668.447 65.2642 669.137 65.2642C669.534 65.2642 669.927 65.3305 670.315 65.4631C670.703 65.5956 671.056 65.8111 671.374 66.1094C671.692 66.4044 671.946 66.7955 672.135 67.2827C672.324 67.7699 672.418 68.3698 672.418 69.0824V69.5795H666.532V68.5653H671.225C671.225 68.1345 671.139 67.75 670.966 67.4119C670.797 67.0739 670.555 66.8071 670.24 66.6115C669.929 66.416 669.561 66.3182 669.137 66.3182C668.669 66.3182 668.265 66.4342 667.924 66.6662C667.586 66.8949 667.325 67.1932 667.143 67.5611C666.961 67.929 666.87 68.3234 666.87 68.7443V69.4205C666.87 69.9972 666.969 70.486 667.168 70.8871C667.37 71.2848 667.65 71.5881 668.008 71.7969C668.366 72.0024 668.782 72.1051 669.256 72.1051C669.564 72.1051 669.843 72.062 670.091 71.9759C670.343 71.8864 670.56 71.7538 670.743 71.5781C670.925 71.3991 671.066 71.1771 671.165 70.9119L672.299 71.2301C672.179 71.6146 671.979 71.9527 671.697 72.2443C671.415 72.5327 671.067 72.758 670.653 72.9205C670.239 73.0795 669.773 73.1591 669.256 73.1591ZM679.612 67.0739L678.558 67.3722C678.492 67.1965 678.394 67.0258 678.265 66.8601C678.139 66.6911 677.966 66.5518 677.748 66.4425C677.529 66.3331 677.249 66.2784 676.907 66.2784C676.44 66.2784 676.051 66.3861 675.739 66.6016C675.431 66.8137 675.277 67.0838 675.277 67.4119C675.277 67.7036 675.383 67.9339 675.595 68.103C675.807 68.272 676.138 68.4129 676.589 68.5256L677.723 68.804C678.405 68.9697 678.914 69.2232 679.249 69.5646C679.584 69.9027 679.751 70.3385 679.751 70.8722C679.751 71.3097 679.625 71.7008 679.373 72.0455C679.125 72.3902 678.777 72.6619 678.329 72.8608C677.882 73.0597 677.361 73.1591 676.768 73.1591C675.989 73.1591 675.345 72.9901 674.834 72.652C674.324 72.3139 674.001 71.8201 673.865 71.1705L674.978 70.892C675.084 71.303 675.285 71.6113 675.58 71.8168C675.878 72.0223 676.268 72.125 676.748 72.125C677.295 72.125 677.729 72.009 678.051 71.777C678.376 71.5417 678.538 71.2599 678.538 70.9318C678.538 70.6667 678.445 70.4446 678.26 70.2656C678.074 70.0833 677.789 69.9474 677.404 69.858L676.132 69.5597C675.432 69.3939 674.919 69.1371 674.591 68.7891C674.266 68.4377 674.103 67.9986 674.103 67.4716C674.103 67.0407 674.224 66.6596 674.466 66.3281C674.712 65.9967 675.045 65.7365 675.466 65.5476C675.89 65.3587 676.37 65.2642 676.907 65.2642C677.663 65.2642 678.256 65.4299 678.687 65.7614C679.121 66.0928 679.43 66.5303 679.612 67.0739ZM684.838 65.3636V66.358H680.881V65.3636H684.838ZM682.034 63.5341H683.208V70.8125C683.208 71.1439 683.256 71.3925 683.352 71.5582C683.451 71.7206 683.577 71.83 683.73 71.8864C683.885 71.9394 684.049 71.9659 684.222 71.9659C684.351 71.9659 684.457 71.9593 684.54 71.946C684.623 71.9295 684.689 71.9162 684.739 71.9062L684.977 72.9602C684.898 72.9901 684.787 73.0199 684.644 73.0497C684.502 73.0829 684.321 73.0994 684.102 73.0994C683.771 73.0994 683.446 73.0282 683.128 72.8857C682.813 72.7431 682.551 72.526 682.343 72.2344C682.137 71.9427 682.034 71.5748 682.034 71.1307V63.5341ZM691.876 67.0739L690.822 67.3722C690.755 67.1965 690.657 67.0258 690.528 66.8601C690.402 66.6911 690.23 66.5518 690.011 66.4425C689.792 66.3331 689.512 66.2784 689.171 66.2784C688.704 66.2784 688.314 66.3861 688.003 66.6016C687.694 66.8137 687.54 67.0838 687.54 67.4119C687.54 67.7036 687.646 67.9339 687.858 68.103C688.071 68.272 688.402 68.4129 688.853 68.5256L689.986 68.804C690.669 68.9697 691.178 69.2232 691.513 69.5646C691.847 69.9027 692.015 70.3385 692.015 70.8722C692.015 71.3097 691.889 71.7008 691.637 72.0455C691.388 72.3902 691.04 72.6619 690.593 72.8608C690.145 73.0597 689.625 73.1591 689.032 73.1591C688.253 73.1591 687.608 72.9901 687.098 72.652C686.587 72.3139 686.264 71.8201 686.128 71.1705L687.242 70.892C687.348 71.303 687.549 71.6113 687.844 71.8168C688.142 72.0223 688.531 72.125 689.012 72.125C689.559 72.125 689.993 72.009 690.314 71.777C690.639 71.5417 690.802 71.2599 690.802 70.9318C690.802 70.6667 690.709 70.4446 690.523 70.2656C690.338 70.0833 690.053 69.9474 689.668 69.858L688.395 69.5597C687.696 69.3939 687.182 69.1371 686.854 68.7891C686.529 68.4377 686.367 67.9986 686.367 67.4716C686.367 67.0407 686.488 66.6596 686.73 66.3281C686.975 65.9967 687.308 65.7365 687.729 65.5476C688.153 65.3587 688.634 65.2642 689.171 65.2642C689.927 65.2642 690.52 65.4299 690.951 65.7614C691.385 66.0928 691.693 66.5303 691.876 67.0739Z" fill="#6C6C71"/>
<rect x="31" y="33" width="92" height="12" rx="6" fill="url(#paint2_linear_10_857)"/>
<rect x="513" y="33" width="40" height="12" rx="6" fill="url(#paint3_linear_10_857)"/>
<rect x="1.5" y="1.5" width="1167" height="339" rx="15.5" fill="url(#paint4_radial_10_857)" stroke="#FAFAFB"/>
<defs>
<linearGradient id="paint0_linear_10_857" x1="629" y1="39" x2="713" y2="39" gradientUnits="userSpaceOnUse">
<stop stop-color="#EDEDF0"/>
<stop offset="1" stop-color="#EDEDF0" stop-opacity="0"/>
</linearGradient>
<linearGradient id="paint1_linear_10_857" x1="1108" y1="40" x2="1151" y2="40.5" gradientUnits="userSpaceOnUse">
<stop stop-color="#EDEDF0"/>
<stop offset="1" stop-color="#EDEDF0" stop-opacity="0"/>
</linearGradient>
<linearGradient id="paint2_linear_10_857" x1="31" y1="39" x2="115" y2="39" gradientUnits="userSpaceOnUse">
<stop stop-color="#EDEDF0"/>
<stop offset="1" stop-color="#EDEDF0" stop-opacity="0"/>
</linearGradient>
<linearGradient id="paint3_linear_10_857" x1="510" y1="40" x2="553" y2="40.5" gradientUnits="userSpaceOnUse">
<stop stop-color="#EDEDF0"/>
<stop offset="1" stop-color="#EDEDF0" stop-opacity="0"/>
</linearGradient>
<radialGradient id="paint4_radial_10_857" cx="0" cy="0" r="1" gradientUnits="userSpaceOnUse" gradientTransform="translate(1139.42 171) rotate(180) scale(1121.88 7506.07)">
<stop stop-color="#FCFCFF" stop-opacity="0.5"/>
<stop offset="0.220284" stop-color="white" stop-opacity="0.9"/>
<stop offset="0.489583" stop-color="white"/>
<stop offset="0.756132" stop-color="white" stop-opacity="0.9"/>
<stop offset="0.926183" stop-color="#FDFDFF" stop-opacity="0.621077"/>
<stop offset="1" stop-color="#FCFCFF" stop-opacity="0.5"/>
</radialGradient>
</defs>
</svg>
