<svg width="360" height="365" viewBox="0 0 360 365" fill="none" xmlns="http://www.w3.org/2000/svg">
<rect x="1" y="1" width="358" height="340" rx="16" fill="white" stroke="#FAFAFB"/>
<path opacity="0.5" d="M37.4996 131.707V130.838L41.3349 124.77H41.9656V126.116H41.5394L38.6417 130.702V130.77H43.8065V131.707H37.4996ZM41.6076 133.497V131.443V131.038V124.77H42.6133V133.497H41.6076ZM48.25 133.616C47.608 133.616 47.0611 133.442 46.6094 133.092C46.1577 132.74 45.8125 132.23 45.5739 131.562C45.3352 130.892 45.2159 130.082 45.2159 129.133C45.2159 128.19 45.3352 127.385 45.5739 126.717C45.8153 126.047 46.1619 125.535 46.6136 125.183C47.0682 124.828 47.6136 124.65 48.25 124.65C48.8864 124.65 49.4304 124.828 49.8821 125.183C50.3366 125.535 50.6832 126.047 50.9219 126.717C51.1634 127.385 51.2841 128.19 51.2841 129.133C51.2841 130.082 51.1648 130.892 50.9261 131.562C50.6875 132.23 50.3423 132.74 49.8906 133.092C49.4389 133.442 48.892 133.616 48.25 133.616ZM48.25 132.679C48.8864 132.679 49.3807 132.372 49.733 131.758C50.0852 131.145 50.2614 130.27 50.2614 129.133C50.2614 128.378 50.1804 127.734 50.0185 127.203C49.8594 126.672 49.6293 126.267 49.3281 125.989C49.0298 125.71 48.6705 125.571 48.25 125.571C47.6193 125.571 47.1264 125.882 46.7713 126.504C46.4162 127.123 46.2386 128 46.2386 129.133C46.2386 129.889 46.3182 130.531 46.4773 131.06C46.6364 131.588 46.8651 131.99 47.1634 132.266C47.4645 132.541 47.8267 132.679 48.25 132.679ZM55.75 133.616C55.108 133.616 54.5611 133.442 54.1094 133.092C53.6577 132.74 53.3125 132.23 53.0739 131.562C52.8352 130.892 52.7159 130.082 52.7159 129.133C52.7159 128.19 52.8352 127.385 53.0739 126.717C53.3153 126.047 53.6619 125.535 54.1136 125.183C54.5682 124.828 55.1136 124.65 55.75 124.65C56.3864 124.65 56.9304 124.828 57.3821 125.183C57.8366 125.535 58.1832 126.047 58.4219 126.717C58.6634 127.385 58.7841 128.19 58.7841 129.133C58.7841 130.082 58.6648 130.892 58.4261 131.562C58.1875 132.23 57.8423 132.74 57.3906 133.092C56.9389 133.442 56.392 133.616 55.75 133.616ZM55.75 132.679C56.3864 132.679 56.8807 132.372 57.233 131.758C57.5852 131.145 57.7614 130.27 57.7614 129.133C57.7614 128.378 57.6804 127.734 57.5185 127.203C57.3594 126.672 57.1293 126.267 56.8281 125.989C56.5298 125.71 56.1705 125.571 55.75 125.571C55.1193 125.571 54.6264 125.882 54.2713 126.504C53.9162 127.123 53.7386 128 53.7386 129.133C53.7386 129.889 53.8182 130.531 53.9773 131.06C54.1364 131.588 54.3651 131.99 54.6634 132.266C54.9645 132.541 55.3267 132.679 55.75 132.679ZM63.25 133.616C62.608 133.616 62.0611 133.442 61.6094 133.092C61.1577 132.74 60.8125 132.23 60.5739 131.562C60.3352 130.892 60.2159 130.082 60.2159 129.133C60.2159 128.19 60.3352 127.385 60.5739 126.717C60.8153 126.047 61.1619 125.535 61.6136 125.183C62.0682 124.828 62.6136 124.65 63.25 124.65C63.8864 124.65 64.4304 124.828 64.8821 125.183C65.3366 125.535 65.6832 126.047 65.9219 126.717C66.1634 127.385 66.2841 128.19 66.2841 129.133C66.2841 130.082 66.1648 130.892 65.9261 131.562C65.6875 132.23 65.3423 132.74 64.8906 133.092C64.4389 133.442 63.892 133.616 63.25 133.616ZM63.25 132.679C63.8864 132.679 64.3807 132.372 64.733 131.758C65.0852 131.145 65.2614 130.27 65.2614 129.133C65.2614 128.378 65.1804 127.734 65.0185 127.203C64.8594 126.672 64.6293 126.267 64.3281 125.989C64.0298 125.71 63.6705 125.571 63.25 125.571C62.6193 125.571 62.1264 125.882 61.7713 126.504C61.4162 127.123 61.2386 128 61.2386 129.133C61.2386 129.889 61.3182 130.531 61.4773 131.06C61.6364 131.588 61.8651 131.99 62.1634 132.266C62.4645 132.541 62.8267 132.679 63.25 132.679Z" fill="#818186"/>
<line x1="83" y1="129.247" x2="327" y2="129.247" stroke="#D8D8DB" stroke-width="0.5"/>
<path opacity="0.5" d="M40.7116 168.886C40.1491 168.886 39.6477 168.789 39.2074 168.596C38.7699 168.403 38.4219 168.134 38.1634 167.791C37.9077 167.444 37.7685 167.042 37.7457 166.585H38.8196C38.8423 166.866 38.9389 167.109 39.1094 167.313C39.2798 167.515 39.5028 167.671 39.7784 167.782C40.054 167.893 40.3594 167.948 40.6946 167.948C41.0696 167.948 41.402 167.883 41.6918 167.752C41.9815 167.622 42.2088 167.44 42.3736 167.207C42.5384 166.974 42.6207 166.704 42.6207 166.397C42.6207 166.076 42.5412 165.794 42.3821 165.549C42.223 165.302 41.9901 165.109 41.6832 164.97C41.3764 164.831 41.0014 164.761 40.5582 164.761H39.8594V163.823H40.5582C40.9048 163.823 41.2088 163.761 41.4702 163.636C41.7344 163.511 41.9403 163.335 42.0881 163.108C42.2386 162.88 42.3139 162.613 42.3139 162.306C42.3139 162.011 42.2486 161.754 42.1179 161.535C41.9872 161.316 41.8026 161.146 41.5639 161.024C41.3281 160.902 41.0497 160.84 40.7287 160.84C40.4276 160.84 40.1435 160.896 39.8764 161.007C39.6122 161.115 39.3963 161.272 39.2287 161.48C39.0611 161.684 38.9702 161.931 38.956 162.221H37.9332C37.9503 161.764 38.0881 161.363 38.3466 161.019C38.6051 160.673 38.9432 160.403 39.3608 160.21C39.7813 160.017 40.2429 159.92 40.7457 159.92C41.2855 159.92 41.7486 160.029 42.1349 160.248C42.5213 160.464 42.8182 160.75 43.0256 161.105C43.233 161.46 43.3366 161.843 43.3366 162.255C43.3366 162.747 43.2074 163.166 42.9489 163.512C42.6932 163.859 42.3452 164.099 41.9048 164.233V164.301C42.456 164.392 42.8864 164.626 43.196 165.004C43.5057 165.379 43.6605 165.843 43.6605 166.397C43.6605 166.872 43.5313 167.298 43.2727 167.676C43.017 168.051 42.6676 168.346 42.2244 168.562C41.7813 168.778 41.277 168.886 40.7116 168.886ZM48.25 168.886C47.608 168.886 47.0611 168.711 46.6094 168.362C46.1577 168.009 45.8125 167.5 45.5739 166.832C45.3352 166.161 45.2159 165.352 45.2159 164.403C45.2159 163.46 45.3352 162.654 45.5739 161.987C45.8153 161.316 46.1619 160.805 46.6136 160.453C47.0682 160.098 47.6136 159.92 48.25 159.92C48.8864 159.92 49.4304 160.098 49.8821 160.453C50.3366 160.805 50.6832 161.316 50.9219 161.987C51.1634 162.654 51.2841 163.46 51.2841 164.403C51.2841 165.352 51.1648 166.161 50.9261 166.832C50.6875 167.5 50.3423 168.009 49.8906 168.362C49.4389 168.711 48.892 168.886 48.25 168.886ZM48.25 167.948C48.8864 167.948 49.3807 167.642 49.733 167.028C50.0852 166.414 50.2614 165.539 50.2614 164.403C50.2614 163.647 50.1804 163.004 50.0185 162.473C49.8594 161.941 49.6293 161.536 49.3281 161.258C49.0298 160.98 48.6705 160.84 48.25 160.84C47.6193 160.84 47.1264 161.152 46.7713 161.774C46.4162 162.393 46.2386 163.269 46.2386 164.403C46.2386 165.159 46.3182 165.801 46.4773 166.329C46.6364 166.858 46.8651 167.259 47.1634 167.535C47.4645 167.811 47.8267 167.948 48.25 167.948ZM55.75 168.886C55.108 168.886 54.5611 168.711 54.1094 168.362C53.6577 168.009 53.3125 167.5 53.0739 166.832C52.8352 166.161 52.7159 165.352 52.7159 164.403C52.7159 163.46 52.8352 162.654 53.0739 161.987C53.3153 161.316 53.6619 160.805 54.1136 160.453C54.5682 160.098 55.1136 159.92 55.75 159.92C56.3864 159.92 56.9304 160.098 57.3821 160.453C57.8366 160.805 58.1832 161.316 58.4219 161.987C58.6634 162.654 58.7841 163.46 58.7841 164.403C58.7841 165.352 58.6648 166.161 58.4261 166.832C58.1875 167.5 57.8423 168.009 57.3906 168.362C56.9389 168.711 56.392 168.886 55.75 168.886ZM55.75 167.948C56.3864 167.948 56.8807 167.642 57.233 167.028C57.5852 166.414 57.7614 165.539 57.7614 164.403C57.7614 163.647 57.6804 163.004 57.5185 162.473C57.3594 161.941 57.1293 161.536 56.8281 161.258C56.5298 160.98 56.1705 160.84 55.75 160.84C55.1193 160.84 54.6264 161.152 54.2713 161.774C53.9162 162.393 53.7386 163.269 53.7386 164.403C53.7386 165.159 53.8182 165.801 53.9773 166.329C54.1364 166.858 54.3651 167.259 54.6634 167.535C54.9645 167.811 55.3267 167.948 55.75 167.948ZM63.25 168.886C62.608 168.886 62.0611 168.711 61.6094 168.362C61.1577 168.009 60.8125 167.5 60.5739 166.832C60.3352 166.161 60.2159 165.352 60.2159 164.403C60.2159 163.46 60.3352 162.654 60.5739 161.987C60.8153 161.316 61.1619 160.805 61.6136 160.453C62.0682 160.098 62.6136 159.92 63.25 159.92C63.8864 159.92 64.4304 160.098 64.8821 160.453C65.3366 160.805 65.6832 161.316 65.9219 161.987C66.1634 162.654 66.2841 163.46 66.2841 164.403C66.2841 165.352 66.1648 166.161 65.9261 166.832C65.6875 167.5 65.3423 168.009 64.8906 168.362C64.4389 168.711 63.892 168.886 63.25 168.886ZM63.25 167.948C63.8864 167.948 64.3807 167.642 64.733 167.028C65.0852 166.414 65.2614 165.539 65.2614 164.403C65.2614 163.647 65.1804 163.004 65.0185 162.473C64.8594 161.941 64.6293 161.536 64.3281 161.258C64.0298 160.98 63.6705 160.84 63.25 160.84C62.6193 160.84 62.1264 161.152 61.7713 161.774C61.4162 162.393 61.2386 163.269 61.2386 164.403C61.2386 165.159 61.3182 165.801 61.4773 166.329C61.6364 166.858 61.8651 167.259 62.1634 167.535C62.4645 167.811 62.8267 167.948 63.25 167.948Z" fill="#818186"/>
<line x1="83" y1="164.517" x2="327" y2="164.517" stroke="#D8D8DB" stroke-width="0.5"/>
<path opacity="0.5" d="M38.1378 204.964V204.197L41.0185 201.043C41.3565 200.674 41.6349 200.353 41.8537 200.08C42.0724 199.805 42.2344 199.546 42.3395 199.305C42.4474 199.06 42.5014 198.805 42.5014 198.538C42.5014 198.231 42.4276 197.965 42.2798 197.741C42.1349 197.516 41.9361 197.343 41.6832 197.221C41.4304 197.099 41.1463 197.038 40.831 197.038C40.4957 197.038 40.2031 197.107 39.9531 197.247C39.706 197.383 39.5142 197.575 39.3778 197.822C39.2443 198.069 39.1776 198.359 39.1776 198.691H38.1719C38.1719 198.18 38.2898 197.731 38.5256 197.345C38.7614 196.958 39.0824 196.657 39.4886 196.441C39.8977 196.225 40.3565 196.117 40.8651 196.117C41.3764 196.117 41.8295 196.225 42.2244 196.441C42.6193 196.657 42.929 196.948 43.1534 197.315C43.3778 197.681 43.4901 198.089 43.4901 198.538C43.4901 198.859 43.4318 199.173 43.3153 199.479C43.2017 199.783 43.0028 200.123 42.7188 200.498C42.4375 200.87 42.0469 201.325 41.5469 201.862L39.5866 203.958V204.026H43.6435V204.964H38.1378ZM48.25 205.083C47.608 205.083 47.0611 204.908 46.6094 204.559C46.1577 204.207 45.8125 203.697 45.5739 203.029C45.3352 202.359 45.2159 201.549 45.2159 200.6C45.2159 199.657 45.3352 198.852 45.5739 198.184C45.8153 197.514 46.1619 197.002 46.6136 196.65C47.0682 196.295 47.6136 196.117 48.25 196.117C48.8864 196.117 49.4304 196.295 49.8821 196.65C50.3366 197.002 50.6832 197.514 50.9219 198.184C51.1634 198.852 51.2841 199.657 51.2841 200.6C51.2841 201.549 51.1648 202.359 50.9261 203.029C50.6875 203.697 50.3423 204.207 49.8906 204.559C49.4389 204.908 48.892 205.083 48.25 205.083ZM48.25 204.146C48.8864 204.146 49.3807 203.839 49.733 203.225C50.0852 202.612 50.2614 201.737 50.2614 200.6C50.2614 199.845 50.1804 199.201 50.0185 198.67C49.8594 198.139 49.6293 197.734 49.3281 197.455C49.0298 197.177 48.6705 197.038 48.25 197.038C47.6193 197.038 47.1264 197.349 46.7713 197.971C46.4162 198.59 46.2386 199.467 46.2386 200.6C46.2386 201.356 46.3182 201.998 46.4773 202.526C46.6364 203.055 46.8651 203.457 47.1634 203.732C47.4645 204.008 47.8267 204.146 48.25 204.146ZM55.75 205.083C55.108 205.083 54.5611 204.908 54.1094 204.559C53.6577 204.207 53.3125 203.697 53.0739 203.029C52.8352 202.359 52.7159 201.549 52.7159 200.6C52.7159 199.657 52.8352 198.852 53.0739 198.184C53.3153 197.514 53.6619 197.002 54.1136 196.65C54.5682 196.295 55.1136 196.117 55.75 196.117C56.3864 196.117 56.9304 196.295 57.3821 196.65C57.8366 197.002 58.1832 197.514 58.4219 198.184C58.6634 198.852 58.7841 199.657 58.7841 200.6C58.7841 201.549 58.6648 202.359 58.4261 203.029C58.1875 203.697 57.8423 204.207 57.3906 204.559C56.9389 204.908 56.392 205.083 55.75 205.083ZM55.75 204.146C56.3864 204.146 56.8807 203.839 57.233 203.225C57.5852 202.612 57.7614 201.737 57.7614 200.6C57.7614 199.845 57.6804 199.201 57.5185 198.67C57.3594 198.139 57.1293 197.734 56.8281 197.455C56.5298 197.177 56.1705 197.038 55.75 197.038C55.1193 197.038 54.6264 197.349 54.2713 197.971C53.9162 198.59 53.7386 199.467 53.7386 200.6C53.7386 201.356 53.8182 201.998 53.9773 202.526C54.1364 203.055 54.3651 203.457 54.6634 203.732C54.9645 204.008 55.3267 204.146 55.75 204.146ZM63.25 205.083C62.608 205.083 62.0611 204.908 61.6094 204.559C61.1577 204.207 60.8125 203.697 60.5739 203.029C60.3352 202.359 60.2159 201.549 60.2159 200.6C60.2159 199.657 60.3352 198.852 60.5739 198.184C60.8153 197.514 61.1619 197.002 61.6136 196.65C62.0682 196.295 62.6136 196.117 63.25 196.117C63.8864 196.117 64.4304 196.295 64.8821 196.65C65.3366 197.002 65.6832 197.514 65.9219 198.184C66.1634 198.852 66.2841 199.657 66.2841 200.6C66.2841 201.549 66.1648 202.359 65.9261 203.029C65.6875 203.697 65.3423 204.207 64.8906 204.559C64.4389 204.908 63.892 205.083 63.25 205.083ZM63.25 204.146C63.8864 204.146 64.3807 203.839 64.733 203.225C65.0852 202.612 65.2614 201.737 65.2614 200.6C65.2614 199.845 65.1804 199.201 65.0185 198.67C64.8594 198.139 64.6293 197.734 64.3281 197.455C64.0298 197.177 63.6705 197.038 63.25 197.038C62.6193 197.038 62.1264 197.349 61.7713 197.971C61.4162 198.59 61.2386 199.467 61.2386 200.6C61.2386 201.356 61.3182 201.998 61.4773 202.526C61.6364 203.055 61.8651 203.457 62.1634 203.732C62.4645 204.008 62.8267 204.146 63.25 204.146Z" fill="#818186"/>
<line x1="83" y1="200.714" x2="327" y2="200.714" stroke="#D8D8DB" stroke-width="0.5"/>
<path opacity="0.5" d="M42.8935 231.507V240.234H41.8366V232.615H41.7855L39.6548 234.029V232.955L41.8366 231.507H42.8935ZM48.25 240.353C47.608 240.353 47.0611 240.178 46.6094 239.829C46.1577 239.477 45.8125 238.967 45.5739 238.299C45.3352 237.629 45.2159 236.819 45.2159 235.87C45.2159 234.927 45.3352 234.122 45.5739 233.454C45.8153 232.784 46.1619 232.272 46.6136 231.92C47.0682 231.565 47.6136 231.387 48.25 231.387C48.8864 231.387 49.4304 231.565 49.8821 231.92C50.3366 232.272 50.6832 232.784 50.9219 233.454C51.1634 234.122 51.2841 234.927 51.2841 235.87C51.2841 236.819 51.1648 237.629 50.9261 238.299C50.6875 238.967 50.3423 239.477 49.8906 239.829C49.4389 240.178 48.892 240.353 48.25 240.353ZM48.25 239.416C48.8864 239.416 49.3807 239.109 49.733 238.495C50.0852 237.882 50.2614 237.007 50.2614 235.87C50.2614 235.115 50.1804 234.471 50.0185 233.94C49.8594 233.409 49.6293 233.004 49.3281 232.725C49.0298 232.447 48.6705 232.308 48.25 232.308C47.6193 232.308 47.1264 232.619 46.7713 233.241C46.4162 233.86 46.2386 234.737 46.2386 235.87C46.2386 236.626 46.3182 237.268 46.4773 237.796C46.6364 238.325 46.8651 238.727 47.1634 239.002C47.4645 239.278 47.8267 239.416 48.25 239.416ZM55.75 240.353C55.108 240.353 54.5611 240.178 54.1094 239.829C53.6577 239.477 53.3125 238.967 53.0739 238.299C52.8352 237.629 52.7159 236.819 52.7159 235.87C52.7159 234.927 52.8352 234.122 53.0739 233.454C53.3153 232.784 53.6619 232.272 54.1136 231.92C54.5682 231.565 55.1136 231.387 55.75 231.387C56.3864 231.387 56.9304 231.565 57.3821 231.92C57.8366 232.272 58.1832 232.784 58.4219 233.454C58.6634 234.122 58.7841 234.927 58.7841 235.87C58.7841 236.819 58.6648 237.629 58.4261 238.299C58.1875 238.967 57.8423 239.477 57.3906 239.829C56.9389 240.178 56.392 240.353 55.75 240.353ZM55.75 239.416C56.3864 239.416 56.8807 239.109 57.233 238.495C57.5852 237.882 57.7614 237.007 57.7614 235.87C57.7614 235.115 57.6804 234.471 57.5185 233.94C57.3594 233.409 57.1293 233.004 56.8281 232.725C56.5298 232.447 56.1705 232.308 55.75 232.308C55.1193 232.308 54.6264 232.619 54.2713 233.241C53.9162 233.86 53.7386 234.737 53.7386 235.87C53.7386 236.626 53.8182 237.268 53.9773 237.796C54.1364 238.325 54.3651 238.727 54.6634 239.002C54.9645 239.278 55.3267 239.416 55.75 239.416ZM63.25 240.353C62.608 240.353 62.0611 240.178 61.6094 239.829C61.1577 239.477 60.8125 238.967 60.5739 238.299C60.3352 237.629 60.2159 236.819 60.2159 235.87C60.2159 234.927 60.3352 234.122 60.5739 233.454C60.8153 232.784 61.1619 232.272 61.6136 231.92C62.0682 231.565 62.6136 231.387 63.25 231.387C63.8864 231.387 64.4304 231.565 64.8821 231.92C65.3366 232.272 65.6832 232.784 65.9219 233.454C66.1634 234.122 66.2841 234.927 66.2841 235.87C66.2841 236.819 66.1648 237.629 65.9261 238.299C65.6875 238.967 65.3423 239.477 64.8906 239.829C64.4389 240.178 63.892 240.353 63.25 240.353ZM63.25 239.416C63.8864 239.416 64.3807 239.109 64.733 238.495C65.0852 237.882 65.2614 237.007 65.2614 235.87C65.2614 235.115 65.1804 234.471 65.0185 233.94C64.8594 233.409 64.6293 233.004 64.3281 232.725C64.0298 232.447 63.6705 232.308 63.25 232.308C62.6193 232.308 62.1264 232.619 61.7713 233.241C61.4162 233.86 61.2386 234.737 61.2386 235.87C61.2386 236.626 61.3182 237.268 61.4773 237.796C61.6364 238.325 61.8651 238.727 62.1634 239.002C62.4645 239.278 62.8267 239.416 63.25 239.416Z" fill="#818186"/>
<line x1="83" y1="235.984" x2="327" y2="235.984" stroke="#D8D8DB" stroke-width="0.5"/>
<path opacity="0.5" d="M63.25 275.622C62.608 275.622 62.0611 275.448 61.6094 275.098C61.1577 274.746 60.8125 274.236 60.5739 273.568C60.3352 272.898 60.2159 272.088 60.2159 271.139C60.2159 270.196 60.3352 269.391 60.5739 268.723C60.8153 268.053 61.1619 267.541 61.6136 267.189C62.0682 266.834 62.6136 266.656 63.25 266.656C63.8864 266.656 64.4304 266.834 64.8821 267.189C65.3366 267.541 65.6832 268.053 65.9219 268.723C66.1634 269.391 66.2841 270.196 66.2841 271.139C66.2841 272.088 66.1648 272.898 65.9261 273.568C65.6875 274.236 65.3423 274.746 64.8906 275.098C64.4389 275.448 63.892 275.622 63.25 275.622ZM63.25 274.685C63.8864 274.685 64.3807 274.378 64.733 273.764C65.0852 273.151 65.2614 272.276 65.2614 271.139C65.2614 270.384 65.1804 269.74 65.0185 269.209C64.8594 268.678 64.6293 268.273 64.3281 267.994C64.0298 267.716 63.6705 267.577 63.25 267.577C62.6193 267.577 62.1264 267.888 61.7713 268.51C61.4162 269.129 61.2386 270.006 61.2386 271.139C61.2386 271.895 61.3182 272.537 61.4773 273.065C61.6364 273.594 61.8651 273.996 62.1634 274.271C62.4645 274.547 62.8267 274.685 63.25 274.685Z" fill="#818186"/>
<line x1="83" y1="271.253" x2="327" y2="271.253" stroke="#D8D8DB" stroke-width="0.5"/>
<path d="M84 272C86.6327 265.5 90.3185 262.5 95.4573 231.884C97.8142 217.842 104.213 168.103 113.708 164.565C131.161 158.062 139.632 200.517 153.748 200.517C165.298 200.517 170.015 190.24 179.209 174.025C188.404 157.81 194.088 168.129 197.097 171.077C200.106 174.025 214.817 198.348 224.68 151.545C232.57 114.102 246.628 127.959 253.099 138.278C259.931 147.122 276.619 210.133 287.986 199.519C299.354 188.905 320.07 174.025 327 212.501" stroke="#F02E65"/>
<rect x="33" y="33" width="92" height="12" rx="6" fill="url(#paint0_linear_11_323)"/>
<path d="M36.5259 73V62.8182H39.9663C40.7617 62.8182 41.4147 62.9541 41.9251 63.2259C42.4355 63.4943 42.8133 63.8639 43.0586 64.3345C43.3039 64.8052 43.4265 65.3404 43.4265 65.9403C43.4265 66.5402 43.3039 67.0722 43.0586 67.5362C42.8133 68.0002 42.4371 68.3648 41.93 68.63C41.4229 68.8918 40.775 69.0227 39.9862 69.0227H37.2021V67.9091H39.9464C40.4899 67.9091 40.9274 67.8295 41.2589 67.6705C41.5936 67.5114 41.8356 67.286 41.9847 66.9943C42.1372 66.6993 42.2134 66.348 42.2134 65.9403C42.2134 65.5327 42.1372 65.1764 41.9847 64.8714C41.8323 64.5665 41.5887 64.3312 41.2539 64.1655C40.9192 63.9964 40.4767 63.9119 39.9265 63.9119H37.7589V73H36.5259ZM41.3185 68.4261L43.8242 73H42.3924L39.9265 68.4261H41.3185ZM48.4416 73.1591C47.7058 73.1591 47.0711 72.9967 46.5375 72.6719C46.0072 72.3438 45.5978 71.8864 45.3095 71.2997C45.0244 70.7098 44.8819 70.0237 44.8819 69.2415C44.8819 68.4593 45.0244 67.7699 45.3095 67.1733C45.5978 66.5734 45.9989 66.1061 46.5126 65.7713C47.0297 65.4332 47.6329 65.2642 48.3223 65.2642C48.72 65.2642 49.1127 65.3305 49.5005 65.4631C49.8883 65.5956 50.2413 65.8111 50.5595 66.1094C50.8777 66.4044 51.1312 66.7955 51.3201 67.2827C51.5091 67.7699 51.6035 68.3698 51.6035 69.0824V69.5795H45.7172V68.5653H50.4103C50.4103 68.1345 50.3242 67.75 50.1518 67.4119C49.9828 67.0739 49.7408 66.8071 49.426 66.6115C49.1144 66.416 48.7465 66.3182 48.3223 66.3182C47.8549 66.3182 47.4506 66.4342 47.1092 66.6662C46.7711 66.8949 46.5109 67.1932 46.3287 67.5611C46.1464 67.929 46.0552 68.3234 46.0552 68.7443V69.4205C46.0552 69.9972 46.1547 70.486 46.3535 70.8871C46.5557 71.2848 46.8358 71.5881 47.1937 71.7969C47.5517 72.0024 47.9676 72.1051 48.4416 72.1051C48.7498 72.1051 49.0282 72.062 49.2768 71.9759C49.5287 71.8864 49.7458 71.7538 49.9281 71.5781C50.1104 71.3991 50.2512 71.1771 50.3507 70.9119L51.4842 71.2301C51.3649 71.6146 51.1644 71.9527 50.8826 72.2443C50.6009 72.5327 50.2529 72.758 49.8386 72.9205C49.4243 73.0795 48.9586 73.1591 48.4416 73.1591ZM58.5985 75.8636V71.8267H58.4991C58.4129 71.9659 58.2903 72.1416 58.1312 72.3537C57.9721 72.5625 57.7451 72.7498 57.4501 72.9155C57.1551 73.0779 56.7624 73.1591 56.2718 73.1591C55.6355 73.1591 55.0737 72.9983 54.5865 72.6768C54.0993 72.352 53.7181 71.8946 53.443 71.3047C53.1679 70.7114 53.0304 70.0104 53.0304 69.2017C53.0304 68.3996 53.1679 67.7036 53.443 67.1136C53.7181 66.5237 54.1009 66.0679 54.5914 65.7464C55.082 65.425 55.6487 65.2642 56.2917 65.2642C56.7889 65.2642 57.1816 65.3471 57.47 65.5128C57.7617 65.6752 57.9837 65.8608 58.1362 66.0696C58.292 66.2751 58.4129 66.4441 58.4991 66.5767H58.6383V65.3636H59.7718V75.8636H58.5985ZM56.4309 72.1051C56.9016 72.1051 57.2993 71.9825 57.6241 71.7372C57.9489 71.4886 58.1958 71.1456 58.3649 70.7081C58.5339 70.2673 58.6184 69.7585 58.6184 69.1818C58.6184 68.6117 58.5356 68.1129 58.3699 67.6854C58.2041 67.2545 57.9589 66.9197 57.6341 66.6811C57.3092 66.4392 56.9082 66.3182 56.4309 66.3182C55.9338 66.3182 55.5195 66.4458 55.188 66.701C54.8599 66.9529 54.613 67.2959 54.4473 67.7301C54.2849 68.161 54.2037 68.6449 54.2037 69.1818C54.2037 69.7254 54.2865 70.2192 54.4522 70.6634C54.6213 71.1042 54.8699 71.4555 55.198 71.7173C55.5294 71.9759 55.9404 72.1051 56.4309 72.1051ZM66.7321 69.8778V65.3636H67.9054V73H66.7321V71.7074H66.6525C66.4735 72.0952 66.1951 72.425 65.8173 72.6967C65.4395 72.9652 64.9622 73.0994 64.3855 73.0994C63.9082 73.0994 63.484 72.995 63.1127 72.7862C62.7415 72.5741 62.4499 72.2559 62.2377 71.8317C62.0256 71.4041 61.9196 70.8655 61.9196 70.2159V65.3636H63.0929V70.1364C63.0929 70.6932 63.2486 71.1373 63.5602 71.4688C63.8751 71.8002 64.2761 71.9659 64.7633 71.9659C65.055 71.9659 65.3516 71.8913 65.6532 71.7422C65.9582 71.593 66.2134 71.3643 66.4189 71.0561C66.6277 70.7479 66.7321 70.3551 66.7321 69.8778ZM73.256 73.1591C72.5202 73.1591 71.8855 72.9967 71.3519 72.6719C70.8216 72.3438 70.4123 71.8864 70.1239 71.2997C69.8389 70.7098 69.6964 70.0237 69.6964 69.2415C69.6964 68.4593 69.8389 67.7699 70.1239 67.1733C70.4123 66.5734 70.8133 66.1061 71.3271 65.7713C71.8441 65.4332 72.4473 65.2642 73.1367 65.2642C73.5344 65.2642 73.9272 65.3305 74.315 65.4631C74.7028 65.5956 75.0558 65.8111 75.3739 66.1094C75.6921 66.4044 75.9457 66.7955 76.1346 67.2827C76.3235 67.7699 76.418 68.3698 76.418 69.0824V69.5795H70.5316V68.5653H75.2248C75.2248 68.1345 75.1386 67.75 74.9663 67.4119C74.7972 67.0739 74.5553 66.8071 74.2404 66.6115C73.9289 66.416 73.561 66.3182 73.1367 66.3182C72.6694 66.3182 72.265 66.4342 71.9237 66.6662C71.5856 66.8949 71.3254 67.1932 71.1431 67.5611C70.9608 67.929 70.8697 68.3234 70.8697 68.7443V69.4205C70.8697 69.9972 70.9691 70.486 71.168 70.8871C71.3701 71.2848 71.6502 71.5881 72.0082 71.7969C72.3661 72.0024 72.7821 72.1051 73.256 72.1051C73.5643 72.1051 73.8427 72.062 74.0913 71.9759C74.3432 71.8864 74.5603 71.7538 74.7425 71.5781C74.9248 71.3991 75.0657 71.1771 75.1651 70.9119L76.2987 71.2301C76.1793 71.6146 75.9788 71.9527 75.6971 72.2443C75.4154 72.5327 75.0674 72.758 74.6531 72.9205C74.2388 73.0795 73.7731 73.1591 73.256 73.1591ZM83.6119 67.0739L82.5579 67.3722C82.4916 67.1965 82.3938 67.0258 82.2646 66.8601C82.1386 66.6911 81.9663 66.5518 81.7475 66.4425C81.5288 66.3331 81.2487 66.2784 80.9073 66.2784C80.44 66.2784 80.0505 66.3861 79.739 66.6016C79.4308 66.8137 79.2766 67.0838 79.2766 67.4119C79.2766 67.7036 79.3827 67.9339 79.5948 68.103C79.8069 68.272 80.1384 68.4129 80.5891 68.5256L81.7227 68.804C82.4054 68.9697 82.9142 69.2232 83.2489 69.5646C83.5837 69.9027 83.7511 70.3385 83.7511 70.8722C83.7511 71.3097 83.6251 71.7008 83.3732 72.0455C83.1246 72.3902 82.7766 72.6619 82.3292 72.8608C81.8817 73.0597 81.3614 73.1591 80.7681 73.1591C79.9892 73.1591 79.3446 72.9901 78.8342 72.652C78.3237 72.3139 78.0006 71.8201 77.8647 71.1705L78.9783 70.892C79.0844 71.303 79.2849 71.6113 79.5799 71.8168C79.8782 72.0223 80.2676 72.125 80.7482 72.125C81.2951 72.125 81.7293 72.009 82.0508 71.777C82.3756 71.5417 82.538 71.2599 82.538 70.9318C82.538 70.6667 82.4452 70.4446 82.2596 70.2656C82.074 70.0833 81.7889 69.9474 81.4045 69.858L80.1317 69.5597C79.4324 69.3939 78.9187 69.1371 78.5906 68.7891C78.2657 68.4377 78.1033 67.9986 78.1033 67.4716C78.1033 67.0407 78.2243 66.6596 78.4663 66.3281C78.7115 65.9967 79.0446 65.7365 79.4656 65.5476C79.8898 65.3587 80.3704 65.2642 80.9073 65.2642C81.663 65.2642 82.2563 65.4299 82.6871 65.7614C83.1213 66.0928 83.4296 66.5303 83.6119 67.0739ZM88.8382 65.3636V66.358H84.8809V65.3636H88.8382ZM86.0343 63.5341H87.2076V70.8125C87.2076 71.1439 87.2556 71.3925 87.3517 71.5582C87.4512 71.7206 87.5771 71.83 87.7296 71.8864C87.8854 71.9394 88.0494 71.9659 88.2218 71.9659C88.351 71.9659 88.4571 71.9593 88.54 71.946C88.6228 71.9295 88.6891 71.9162 88.7388 71.9062L88.9775 72.9602C88.8979 72.9901 88.7869 73.0199 88.6444 73.0497C88.5018 73.0829 88.3212 73.0994 88.1025 73.0994C87.771 73.0994 87.4462 73.0282 87.128 72.8857C86.8132 72.7431 86.5513 72.526 86.3425 72.2344C86.137 71.9427 86.0343 71.5748 86.0343 71.1307V63.5341ZM95.8755 67.0739L94.8216 67.3722C94.7553 67.1965 94.6575 67.0258 94.5282 66.8601C94.4023 66.6911 94.2299 66.5518 94.0112 66.4425C93.7924 66.3331 93.5124 66.2784 93.171 66.2784C92.7037 66.2784 92.3142 66.3861 92.0027 66.6016C91.6944 66.8137 91.5403 67.0838 91.5403 67.4119C91.5403 67.7036 91.6464 67.9339 91.8585 68.103C92.0706 68.272 92.402 68.4129 92.8528 68.5256L93.9863 68.804C94.6691 68.9697 95.1779 69.2232 95.5126 69.5646C95.8474 69.9027 96.0147 70.3385 96.0147 70.8722C96.0147 71.3097 95.8888 71.7008 95.6369 72.0455C95.3883 72.3902 95.0403 72.6619 94.5929 72.8608C94.1454 73.0597 93.6251 73.1591 93.0318 73.1591C92.2529 73.1591 91.6083 72.9901 91.0978 72.652C90.5874 72.3139 90.2643 71.8201 90.1284 71.1705L91.242 70.892C91.3481 71.303 91.5486 71.6113 91.8436 71.8168C92.1419 72.0223 92.5313 72.125 93.0119 72.125C93.5588 72.125 93.993 72.009 94.3145 71.777C94.6393 71.5417 94.8017 71.2599 94.8017 70.9318C94.8017 70.6667 94.7089 70.4446 94.5233 70.2656C94.3377 70.0833 94.0526 69.9474 93.6681 69.858L92.3954 69.5597C91.6961 69.3939 91.1824 69.1371 90.8542 68.7891C90.5294 68.4377 90.367 67.9986 90.367 67.4716C90.367 67.0407 90.488 66.6596 90.7299 66.3281C90.9752 65.9967 91.3083 65.7365 91.7292 65.5476C92.1535 65.3587 92.6341 65.2642 93.171 65.2642C93.9267 65.2642 94.5199 65.4299 94.9508 65.7614C95.385 66.0928 95.6932 66.5303 95.8755 67.0739Z" fill="#6C6C71"/>
<rect x="1" y="1" width="358" height="364" rx="19" fill="url(#paint1_linear_11_323)"/>
<defs>
<linearGradient id="paint0_linear_11_323" x1="33" y1="39" x2="117" y2="39" gradientUnits="userSpaceOnUse">
<stop stop-color="#EDEDF0"/>
<stop offset="1" stop-color="#EDEDF0" stop-opacity="0"/>
</linearGradient>
<linearGradient id="paint1_linear_11_323" x1="180" y1="1" x2="180" y2="365" gradientUnits="userSpaceOnUse">
<stop stop-color="white" stop-opacity="0.2"/>
<stop offset="0.702208" stop-color="#FAFAFB"/>
<stop offset="1" stop-color="#FAFAFB"/>
</linearGradient>
</defs>
</svg>
