<svg width="1171" height="389" viewBox="0 0 1171 389" fill="none" xmlns="http://www.w3.org/2000/svg">
<rect x="796" y="1" width="374" height="340" rx="16" fill="white" stroke="#FAFAFB"/>
<path d="M830.138 134.958V134.191L833.018 131.038C833.357 130.668 833.635 130.347 833.854 130.074C834.072 129.799 834.234 129.54 834.339 129.299C834.447 129.055 834.501 128.799 834.501 128.532C834.501 128.225 834.428 127.959 834.28 127.735C834.135 127.511 833.936 127.337 833.683 127.215C833.43 127.093 833.146 127.032 832.831 127.032C832.496 127.032 832.203 127.101 831.953 127.241C831.706 127.377 831.514 127.569 831.378 127.816C831.244 128.063 831.178 128.353 831.178 128.685H830.172C830.172 128.174 830.29 127.725 830.526 127.339C830.761 126.952 831.082 126.651 831.489 126.435C831.898 126.219 832.357 126.111 832.865 126.111C833.376 126.111 833.83 126.219 834.224 126.435C834.619 126.651 834.929 126.942 835.153 127.309C835.378 127.675 835.49 128.083 835.49 128.532C835.49 128.853 835.432 129.167 835.315 129.474C835.202 129.778 835.003 130.117 834.719 130.492C834.438 130.864 834.047 131.319 833.547 131.856L831.587 133.952V134.021H835.643V134.958H830.138ZM840.25 135.077C839.608 135.077 839.061 134.903 838.609 134.553C838.158 134.201 837.813 133.691 837.574 133.023C837.335 132.353 837.216 131.543 837.216 130.594C837.216 129.651 837.335 128.846 837.574 128.178C837.815 127.508 838.162 126.996 838.614 126.644C839.068 126.289 839.614 126.111 840.25 126.111C840.886 126.111 841.43 126.289 841.882 126.644C842.337 126.996 842.683 127.508 842.922 128.178C843.163 128.846 843.284 129.651 843.284 130.594C843.284 131.543 843.165 132.353 842.926 133.023C842.688 133.691 842.342 134.201 841.891 134.553C841.439 134.903 840.892 135.077 840.25 135.077ZM840.25 134.14C840.886 134.14 841.381 133.833 841.733 133.219C842.085 132.606 842.261 131.731 842.261 130.594C842.261 129.839 842.18 129.195 842.018 128.664C841.859 128.133 841.629 127.728 841.328 127.449C841.03 127.171 840.67 127.032 840.25 127.032C839.619 127.032 839.126 127.343 838.771 127.965C838.416 128.584 838.239 129.461 838.239 130.594C838.239 131.35 838.318 131.992 838.477 132.521C838.636 133.049 838.865 133.451 839.163 133.726C839.464 134.002 839.827 134.14 840.25 134.14Z" fill="#97979B"/>
<line x1="860" y1="130.708" x2="1138" y2="130.708" stroke="#FAFAFB" stroke-width="0.5"/>
<path d="M835.093 164.003V172.73H834.036V165.111H833.985L831.854 166.526V165.452L834.036 164.003H835.093ZM840.33 172.85C839.83 172.85 839.38 172.75 838.979 172.551C838.578 172.353 838.257 172.08 838.016 171.733C837.775 171.387 837.642 170.992 837.62 170.549H838.642C838.682 170.944 838.861 171.27 839.179 171.529C839.5 171.784 839.884 171.912 840.33 171.912C840.688 171.912 841.006 171.828 841.284 171.661C841.566 171.493 841.786 171.263 841.945 170.971C842.107 170.675 842.188 170.341 842.188 169.969C842.188 169.588 842.104 169.249 841.936 168.951C841.772 168.65 841.544 168.412 841.255 168.239C840.965 168.066 840.634 167.978 840.262 167.975C839.995 167.972 839.721 168.013 839.439 168.098C839.158 168.181 838.926 168.287 838.745 168.418L837.756 168.299L838.284 164.003H842.819V164.941H839.171L838.864 167.515H838.915C839.094 167.373 839.319 167.255 839.588 167.161C839.858 167.067 840.14 167.02 840.432 167.02C840.966 167.02 841.442 167.148 841.86 167.404C842.28 167.657 842.61 168.003 842.848 168.444C843.09 168.884 843.211 169.387 843.211 169.952C843.211 170.509 843.086 171.006 842.836 171.444C842.588 171.878 842.248 172.222 841.813 172.475C841.378 172.725 840.884 172.85 840.33 172.85Z" fill="#97979B"/>
<line x1="860" y1="168.48" x2="1138" y2="168.48" stroke="#FAFAFB" stroke-width="0.5"/>
<path d="M834.893 202.77V211.497H833.837V203.878H833.786L831.655 205.293V204.219L833.837 202.77H834.893ZM840.25 211.616C839.608 211.616 839.061 211.442 838.609 211.092C838.158 210.74 837.813 210.23 837.574 209.562C837.335 208.892 837.216 208.082 837.216 207.133C837.216 206.19 837.335 205.385 837.574 204.717C837.815 204.047 838.162 203.535 838.614 203.183C839.068 202.828 839.614 202.65 840.25 202.65C840.886 202.65 841.43 202.828 841.882 203.183C842.337 203.535 842.683 204.047 842.922 204.717C843.163 205.385 843.284 206.19 843.284 207.133C843.284 208.082 843.165 208.892 842.926 209.562C842.688 210.23 842.342 210.74 841.891 211.092C841.439 211.442 840.892 211.616 840.25 211.616ZM840.25 210.679C840.886 210.679 841.381 210.372 841.733 209.758C842.085 209.145 842.261 208.27 842.261 207.133C842.261 206.378 842.18 205.734 842.018 205.203C841.859 204.672 841.629 204.267 841.328 203.989C841.03 203.71 840.67 203.571 840.25 203.571C839.619 203.571 839.126 203.882 838.771 204.504C838.416 205.123 838.239 206 838.239 207.133C838.239 207.889 838.318 208.531 838.477 209.06C838.636 209.588 838.865 209.99 839.163 210.266C839.464 210.541 839.827 210.679 840.25 210.679Z" fill="#97979B"/>
<line x1="860" y1="207.247" x2="1138" y2="207.247" stroke="#FAFAFB" stroke-width="0.5"/>
<path d="M840.33 249.389C839.83 249.389 839.38 249.289 838.979 249.091C838.578 248.892 838.257 248.619 838.016 248.272C837.775 247.926 837.642 247.531 837.62 247.088H838.642C838.682 247.483 838.861 247.809 839.179 248.068C839.5 248.324 839.884 248.451 840.33 248.451C840.688 248.451 841.006 248.368 841.284 248.2C841.566 248.032 841.786 247.802 841.945 247.51C842.107 247.214 842.188 246.88 842.188 246.508C842.188 246.127 842.104 245.788 841.936 245.49C841.772 245.189 841.544 244.951 841.255 244.778C840.965 244.605 840.634 244.517 840.262 244.514C839.995 244.511 839.721 244.552 839.439 244.637C839.158 244.72 838.926 244.826 838.745 244.957L837.756 244.838L838.284 240.542H842.819V241.48H839.171L838.864 244.054H838.915C839.094 243.912 839.319 243.794 839.588 243.7C839.858 243.606 840.14 243.559 840.432 243.559C840.966 243.559 841.442 243.687 841.86 243.943C842.28 244.196 842.61 244.542 842.848 244.983C843.09 245.423 843.211 245.926 843.211 246.491C843.211 247.048 843.086 247.545 842.836 247.983C842.588 248.417 842.248 248.761 841.813 249.014C841.378 249.264 840.884 249.389 840.33 249.389Z" fill="#97979B"/>
<line x1="860" y1="245.02" x2="1138" y2="245.02" stroke="#FAFAFB" stroke-width="0.5"/>
<path d="M840.25 287.161C839.608 287.161 839.061 286.987 838.609 286.637C838.158 286.285 837.813 285.775 837.574 285.107C837.335 284.437 837.216 283.627 837.216 282.678C837.216 281.735 837.335 280.93 837.574 280.262C837.815 279.592 838.162 279.08 838.614 278.728C839.068 278.373 839.614 278.195 840.25 278.195C840.886 278.195 841.43 278.373 841.882 278.728C842.337 279.08 842.683 279.592 842.922 280.262C843.163 280.93 843.284 281.735 843.284 282.678C843.284 283.627 843.165 284.437 842.926 285.107C842.688 285.775 842.342 286.285 841.891 286.637C841.439 286.987 840.892 287.161 840.25 287.161ZM840.25 286.224C840.886 286.224 841.381 285.917 841.733 285.303C842.085 284.69 842.261 283.815 842.261 282.678C842.261 281.923 842.18 281.279 842.018 280.748C841.859 280.217 841.629 279.812 841.328 279.533C841.03 279.255 840.67 279.116 840.25 279.116C839.619 279.116 839.126 279.427 838.771 280.049C838.416 280.668 838.239 281.545 838.239 282.678C838.239 283.434 838.318 284.076 838.477 284.604C838.636 285.133 838.865 285.535 839.163 285.81C839.464 286.086 839.827 286.224 840.25 286.224Z" fill="#97979B"/>
<line x1="860" y1="282.792" x2="1138" y2="282.792" stroke="#FAFAFB" stroke-width="0.5"/>
<rect x="2" y="184" width="372" height="160" rx="16" fill="white" stroke="#FAFAFB"/>
<rect x="34" y="284" width="92" height="12" rx="6" fill="url(#paint0_linear_10_1003)"/>
<rect x="34" y="304" width="40" height="8" rx="4" fill="url(#paint1_linear_10_1003)"/>
<rect x="302" y="304" width="40" height="8" rx="4" fill="url(#paint2_linear_10_1003)"/>
<path d="M60.0391 230H58.6414L61.782 221.273H63.3034L66.444 230H65.0462L62.5789 222.858H62.5107L60.0391 230ZM60.2735 226.582H64.8076V227.69H60.2735V226.582ZM74.7565 221.273H76.0775V227.013C76.0775 227.624 75.934 228.165 75.6471 228.636C75.3602 229.105 74.9568 229.474 74.4369 229.744C73.917 230.011 73.3076 230.145 72.6088 230.145C71.9127 230.145 71.3048 230.011 70.7849 229.744C70.265 229.474 69.8616 229.105 69.5747 228.636C69.2877 228.165 69.1443 227.624 69.1443 227.013V221.273H70.461V226.906C70.461 227.301 70.5477 227.652 70.721 227.959C70.8971 228.266 71.1457 228.507 71.4667 228.683C71.7877 228.857 72.1684 228.943 72.6088 228.943C73.0519 228.943 73.434 228.857 73.7551 228.683C74.0789 228.507 74.3261 228.266 74.4965 227.959C74.6698 227.652 74.7565 227.301 74.7565 226.906V221.273ZM79.0015 222.406V221.273H85.7558V222.406H83.0328V230H81.7203V222.406H79.0015ZM88.6883 230V221.273H90.0051V225.065H94.356V221.273H95.677V230H94.356V226.195H90.0051V230H88.6883ZM99.0346 230V221.273H104.506V222.406H100.351V225.065H104.221V226.195H100.351V228.866H104.557V230H99.0346ZM114.749 221.273V230H113.539L109.103 223.599H109.022V230H107.705V221.273H108.924L113.364 227.682H113.445V221.273H114.749ZM117.68 222.406V221.273H124.434V222.406H121.711V230H120.398V222.406H117.68ZM128.683 221.273V230H127.366V221.273H128.683ZM139.289 224.111H137.96C137.909 223.827 137.813 223.577 137.674 223.361C137.535 223.145 137.365 222.962 137.163 222.811C136.961 222.661 136.735 222.547 136.485 222.47C136.238 222.393 135.975 222.355 135.697 222.355C135.194 222.355 134.744 222.482 134.346 222.734C133.951 222.987 133.639 223.358 133.409 223.847C133.181 224.335 133.068 224.932 133.068 225.636C133.068 226.347 133.181 226.946 133.409 227.435C133.639 227.923 133.953 228.293 134.35 228.543C134.748 228.793 135.196 228.918 135.693 228.918C135.968 228.918 136.23 228.881 136.477 228.807C136.727 228.73 136.953 228.618 137.154 228.47C137.356 228.322 137.526 228.142 137.666 227.929C137.808 227.713 137.906 227.466 137.96 227.188L139.289 227.192C139.218 227.621 139.08 228.016 138.876 228.376C138.674 228.734 138.414 229.044 138.096 229.305C137.781 229.564 137.42 229.764 137.014 229.906C136.607 230.048 136.164 230.119 135.684 230.119C134.928 230.119 134.255 229.94 133.664 229.582C133.073 229.222 132.607 228.706 132.267 228.036C131.928 227.365 131.759 226.565 131.759 225.636C131.759 224.705 131.93 223.905 132.271 223.237C132.612 222.567 133.078 222.053 133.669 221.695C134.259 221.334 134.931 221.153 135.684 221.153C136.147 221.153 136.579 221.22 136.98 221.354C137.383 221.484 137.745 221.678 138.066 221.933C138.387 222.186 138.653 222.496 138.863 222.862C139.073 223.226 139.215 223.642 139.289 224.111ZM142.984 230H141.586L144.726 221.273H146.248L149.388 230H147.991L145.523 222.858H145.455L142.984 230ZM143.218 226.582H147.752V227.69H143.218V226.582ZM150.627 222.406V221.273H157.381V222.406H154.658V230H153.346V222.406H150.627ZM161.631 221.273V230H160.314V221.273H161.631ZM172.569 225.636C172.569 226.568 172.399 227.369 172.058 228.04C171.717 228.707 171.25 229.222 170.656 229.582C170.065 229.94 169.393 230.119 168.64 230.119C167.884 230.119 167.21 229.94 166.616 229.582C166.025 229.222 165.559 228.706 165.218 228.036C164.877 227.365 164.707 226.565 164.707 225.636C164.707 224.705 164.877 223.905 165.218 223.237C165.559 222.567 166.025 222.053 166.616 221.695C167.21 221.334 167.884 221.153 168.64 221.153C169.393 221.153 170.065 221.334 170.656 221.695C171.25 222.053 171.717 222.567 172.058 223.237C172.399 223.905 172.569 224.705 172.569 225.636ZM171.265 225.636C171.265 224.926 171.15 224.328 170.92 223.842C170.693 223.354 170.38 222.984 169.982 222.734C169.588 222.482 169.14 222.355 168.64 222.355C168.137 222.355 167.688 222.482 167.294 222.734C166.899 222.984 166.586 223.354 166.356 223.842C166.129 224.328 166.015 224.926 166.015 225.636C166.015 226.347 166.129 226.946 166.356 227.435C166.586 227.92 166.899 228.29 167.294 228.543C167.688 228.793 168.137 228.918 168.64 228.918C169.14 228.918 169.588 228.793 169.982 228.543C170.38 228.29 170.693 227.92 170.92 227.435C171.15 226.946 171.265 226.347 171.265 225.636ZM182.695 221.273V230H181.485L177.049 223.599H176.968V230H175.651V221.273H176.87L181.31 227.682H181.391V221.273H182.695Z" fill="#97979B"/>
<rect x="399" y="184" width="372" height="160" rx="16" fill="white" stroke="#FAFAFB"/>
<rect x="431" y="284" width="92" height="12" rx="6" fill="url(#paint3_linear_10_1003)"/>
<rect x="431" y="304" width="40" height="8" rx="4" fill="url(#paint4_linear_10_1003)"/>
<rect x="699" y="304" width="40" height="8" rx="4" fill="url(#paint5_linear_10_1003)"/>
<path d="M456.384 229V220.273H461.796V221.406H457.701V224.065H461.408V225.195H457.701V229H456.384ZM470.468 220.273H471.789V226.013C471.789 226.624 471.645 227.165 471.358 227.636C471.072 228.105 470.668 228.474 470.148 228.744C469.628 229.011 469.019 229.145 468.32 229.145C467.624 229.145 467.016 229.011 466.496 228.744C465.976 228.474 465.573 228.105 465.286 227.636C464.999 227.165 464.856 226.624 464.856 226.013V220.273H466.172V225.906C466.172 226.301 466.259 226.652 466.432 226.959C466.608 227.266 466.857 227.507 467.178 227.683C467.499 227.857 467.88 227.943 468.32 227.943C468.763 227.943 469.145 227.857 469.466 227.683C469.79 227.507 470.037 227.266 470.208 226.959C470.381 226.652 470.468 226.301 470.468 225.906V220.273ZM482.187 220.273V229H480.977L476.541 222.599H476.46V229H475.143V220.273H476.362L480.802 226.682H480.883V220.273H482.187ZM492.797 223.111H491.467C491.416 222.827 491.321 222.577 491.182 222.361C491.042 222.145 490.872 221.962 490.67 221.811C490.469 221.661 490.243 221.547 489.993 221.47C489.746 221.393 489.483 221.355 489.204 221.355C488.702 221.355 488.251 221.482 487.853 221.734C487.459 221.987 487.146 222.358 486.916 222.847C486.689 223.335 486.575 223.932 486.575 224.636C486.575 225.347 486.689 225.946 486.916 226.435C487.146 226.923 487.46 227.293 487.858 227.543C488.255 227.793 488.703 227.918 489.2 227.918C489.476 227.918 489.737 227.881 489.984 227.807C490.234 227.73 490.46 227.618 490.662 227.47C490.863 227.322 491.034 227.142 491.173 226.929C491.315 226.713 491.413 226.466 491.467 226.188L492.797 226.192C492.726 226.621 492.588 227.016 492.383 227.376C492.182 227.734 491.922 228.044 491.603 228.305C491.288 228.564 490.927 228.764 490.521 228.906C490.115 229.048 489.672 229.119 489.192 229.119C488.436 229.119 487.763 228.94 487.172 228.582C486.581 228.222 486.115 227.706 485.774 227.036C485.436 226.365 485.267 225.565 485.267 224.636C485.267 223.705 485.437 222.905 485.778 222.237C486.119 221.567 486.585 221.053 487.176 220.695C487.767 220.334 488.439 220.153 489.192 220.153C489.655 220.153 490.086 220.22 490.487 220.354C490.89 220.484 491.253 220.678 491.574 220.933C491.895 221.186 492.16 221.496 492.371 221.862C492.581 222.226 492.723 222.642 492.797 223.111ZM495.382 221.406V220.273H502.136V221.406H499.413V229H498.101V221.406H495.382ZM506.385 220.273V229H505.069V220.273H506.385ZM517.324 224.636C517.324 225.568 517.154 226.369 516.813 227.04C516.472 227.707 516.004 228.222 515.411 228.582C514.82 228.94 514.148 229.119 513.395 229.119C512.639 229.119 511.965 228.94 511.371 228.582C510.78 228.222 510.314 227.706 509.973 227.036C509.632 226.365 509.462 225.565 509.462 224.636C509.462 223.705 509.632 222.905 509.973 222.237C510.314 221.567 510.78 221.053 511.371 220.695C511.965 220.334 512.639 220.153 513.395 220.153C514.148 220.153 514.82 220.334 515.411 220.695C516.004 221.053 516.472 221.567 516.813 222.237C517.154 222.905 517.324 223.705 517.324 224.636ZM516.02 224.636C516.02 223.926 515.905 223.328 515.675 222.842C515.448 222.354 515.135 221.984 514.737 221.734C514.343 221.482 513.895 221.355 513.395 221.355C512.892 221.355 512.443 221.482 512.048 221.734C511.654 221.984 511.341 222.354 511.111 222.842C510.884 223.328 510.77 223.926 510.77 224.636C510.77 225.347 510.884 225.946 511.111 226.435C511.341 226.92 511.654 227.29 512.048 227.543C512.443 227.793 512.892 227.918 513.395 227.918C513.895 227.918 514.343 227.793 514.737 227.543C515.135 227.29 515.448 226.92 515.675 226.435C515.905 225.946 516.02 225.347 516.02 224.636ZM527.45 220.273V229H526.24L521.803 222.599H521.723V229H520.406V220.273H521.625L526.065 226.682H526.146V220.273H527.45ZM535.571 222.565C535.525 222.162 535.338 221.849 535.008 221.628C534.679 221.403 534.264 221.291 533.764 221.291C533.406 221.291 533.096 221.348 532.835 221.462C532.573 221.572 532.37 221.726 532.225 221.922C532.083 222.115 532.012 222.335 532.012 222.582C532.012 222.79 532.061 222.969 532.157 223.119C532.257 223.27 532.386 223.396 532.545 223.499C532.707 223.598 532.88 223.682 533.065 223.75C533.25 223.815 533.427 223.869 533.598 223.912L534.45 224.134C534.728 224.202 535.014 224.294 535.306 224.411C535.599 224.527 535.87 224.68 536.12 224.871C536.37 225.061 536.572 225.297 536.725 225.578C536.882 225.859 536.96 226.196 536.96 226.588C536.96 227.082 536.832 227.521 536.576 227.905C536.323 228.288 535.955 228.591 535.473 228.812C534.992 229.034 534.411 229.145 533.73 229.145C533.076 229.145 532.511 229.041 532.034 228.834C531.556 228.626 531.183 228.332 530.913 227.952C530.643 227.568 530.494 227.114 530.465 226.588H531.786C531.812 226.903 531.914 227.166 532.093 227.376C532.275 227.584 532.507 227.739 532.788 227.841C533.072 227.94 533.383 227.99 533.721 227.99C534.093 227.99 534.424 227.932 534.714 227.815C535.007 227.696 535.237 227.531 535.404 227.321C535.572 227.108 535.656 226.859 535.656 226.575C535.656 226.317 535.582 226.105 535.434 225.94C535.289 225.776 535.092 225.639 534.842 225.531C534.595 225.423 534.315 225.328 534.002 225.246L532.971 224.964C532.272 224.774 531.718 224.494 531.309 224.125C530.903 223.756 530.7 223.267 530.7 222.659C530.7 222.156 530.836 221.717 531.109 221.342C531.382 220.967 531.751 220.676 532.217 220.469C532.683 220.259 533.208 220.153 533.794 220.153C534.384 220.153 534.906 220.257 535.357 220.464C535.812 220.672 536.17 220.957 536.431 221.321C536.693 221.682 536.829 222.097 536.84 222.565H535.571Z" fill="#97979B"/>
<rect x="2" y="1" width="372" height="160" rx="16" fill="white" stroke="#FAFAFB"/>
<path d="M66.2832 46H63.4579V37.2727H66.3726C67.2278 37.2727 67.9621 37.4474 68.5758 37.7969C69.1894 38.1435 69.6596 38.642 69.9863 39.2926C70.3158 39.9403 70.4806 40.7173 70.4806 41.6236C70.4806 42.5327 70.3144 43.3139 69.982 43.9673C69.6525 44.6207 69.1752 45.1236 68.5502 45.4759C67.9252 45.8253 67.1695 46 66.2832 46ZM64.7746 44.8494H66.2107C66.8755 44.8494 67.428 44.7244 67.8684 44.4744C68.3087 44.2216 68.6383 43.8565 68.857 43.3793C69.0758 42.8991 69.1851 42.3139 69.1851 41.6236C69.1851 40.9389 69.0758 40.358 68.857 39.8807C68.6411 39.4034 68.3187 39.0412 67.8897 38.794C67.4607 38.5469 66.928 38.4233 66.2917 38.4233H64.7746V44.8494ZM73.8616 46H72.4639L75.6045 37.2727H77.1259L80.2665 46H78.8687L76.4014 38.858H76.3332L73.8616 46ZM74.096 42.5824H78.6301V43.6903H74.096V42.5824ZM81.5051 38.4062V37.2727H88.2594V38.4062H85.5364V46H84.2239V38.4062H81.5051ZM90.8979 46H89.5002L92.6408 37.2727H94.1621L97.3027 46H95.905L93.4377 38.858H93.3695L90.8979 46ZM91.1323 42.5824H95.6664V43.6903H91.1323V42.5824ZM100.003 46V37.2727H103.199C103.818 37.2727 104.331 37.375 104.737 37.5795C105.144 37.7812 105.448 38.0554 105.649 38.402C105.851 38.7457 105.952 39.1335 105.952 39.5653C105.952 39.929 105.885 40.2358 105.752 40.4858C105.618 40.733 105.439 40.9318 105.215 41.0824C104.993 41.2301 104.749 41.3381 104.482 41.4062V41.4915C104.771 41.5057 105.054 41.5994 105.33 41.7727C105.608 41.9432 105.838 42.1861 106.02 42.5014C106.202 42.8168 106.293 43.2003 106.293 43.652C106.293 44.098 106.188 44.4986 105.977 44.8537C105.77 45.206 105.449 45.4858 105.014 45.6932C104.58 45.8977 104.024 46 103.348 46H100.003ZM101.32 44.8707H103.22C103.851 44.8707 104.303 44.7486 104.575 44.5043C104.848 44.2599 104.985 43.9545 104.985 43.5881C104.985 43.3125 104.915 43.0597 104.776 42.8295C104.637 42.5994 104.438 42.4162 104.179 42.2798C103.923 42.1435 103.62 42.0753 103.267 42.0753H101.32V44.8707ZM101.32 41.0483H103.084C103.379 41.0483 103.645 40.9915 103.881 40.8778C104.12 40.7642 104.308 40.6051 104.448 40.4006C104.59 40.1932 104.661 39.9489 104.661 39.6676C104.661 39.3068 104.534 39.0043 104.281 38.7599C104.029 38.5156 103.641 38.3935 103.118 38.3935H101.32V41.0483ZM110.032 46H108.634L111.775 37.2727H113.296L116.437 46H115.039L112.572 38.858H112.503L110.032 46ZM110.266 42.5824H114.8V43.6903H110.266V42.5824ZM123.827 39.5653C123.781 39.1619 123.594 38.8494 123.264 38.6278C122.935 38.4034 122.52 38.2912 122.02 38.2912C121.662 38.2912 121.352 38.348 121.091 38.4616C120.829 38.5724 120.626 38.7259 120.481 38.9219C120.339 39.1151 120.268 39.3352 120.268 39.5824C120.268 39.7898 120.317 39.9687 120.413 40.1193C120.513 40.2699 120.642 40.3963 120.801 40.4986C120.963 40.598 121.136 40.6818 121.321 40.75C121.506 40.8153 121.683 40.8693 121.854 40.9119L122.706 41.1335C122.984 41.2017 123.27 41.294 123.562 41.4105C123.855 41.527 124.126 41.6804 124.376 41.8707C124.626 42.0611 124.828 42.2969 124.981 42.5781C125.138 42.8594 125.216 43.196 125.216 43.5881C125.216 44.0824 125.088 44.5213 124.832 44.9048C124.579 45.2884 124.212 45.5909 123.729 45.8125C123.248 46.0341 122.667 46.1449 121.986 46.1449C121.332 46.1449 120.767 46.0412 120.29 45.8338C119.812 45.6264 119.439 45.3324 119.169 44.9517C118.899 44.5682 118.75 44.1136 118.721 43.5881H120.042C120.068 43.9034 120.17 44.1662 120.349 44.3764C120.531 44.5838 120.763 44.7386 121.044 44.8409C121.328 44.9403 121.639 44.9901 121.977 44.9901C122.349 44.9901 122.68 44.9318 122.97 44.8153C123.263 44.696 123.493 44.5312 123.66 44.321C123.828 44.108 123.912 43.8594 123.912 43.5753C123.912 43.3168 123.838 43.1051 123.69 42.9403C123.545 42.7756 123.348 42.6392 123.098 42.5312C122.851 42.4233 122.571 42.3281 122.258 42.2457L121.227 41.9645C120.528 41.7741 119.974 41.4943 119.565 41.125C119.159 40.7557 118.956 40.267 118.956 39.6591C118.956 39.1562 119.092 38.7173 119.365 38.3423C119.638 37.9673 120.007 37.6761 120.473 37.4688C120.939 37.2585 121.464 37.1534 122.05 37.1534C122.64 37.1534 123.162 37.2571 123.613 37.4645C124.068 37.6719 124.426 37.9574 124.687 38.321C124.949 38.6818 125.085 39.0966 125.096 39.5653H123.827ZM128.229 46V37.2727H133.701V38.4062H129.546V41.0653H133.415V42.1946H129.546V44.8665H133.752V46H128.229Z" fill="#97979B"/>
<rect x="399" y="1" width="372" height="160" rx="16" fill="white" stroke="#FAFAFB"/>
<rect x="431" y="100" width="92" height="12" rx="6" fill="url(#paint6_linear_10_1003)"/>
<rect x="431" y="120" width="40" height="8" rx="4" fill="url(#paint7_linear_10_1003)"/>
<rect x="699" y="120" width="40" height="8" rx="4" fill="url(#paint8_linear_10_1003)"/>
<path d="M432.601 38.8002C432.601 37.9165 433.317 37.2002 434.201 37.2002H438.201L439.801 38.8002H443.801C444.684 38.8002 445.401 39.5165 445.401 40.4002V45.2002C445.401 46.0839 444.684 46.8002 443.801 46.8002H434.201C433.317 46.8002 432.601 46.0839 432.601 45.2002V38.8002Z" fill="#97979B"/>
<path d="M460.733 39.5653C460.687 39.1619 460.5 38.8494 460.17 38.6278C459.841 38.4034 459.426 38.2912 458.926 38.2912C458.568 38.2912 458.258 38.348 457.997 38.4616C457.736 38.5724 457.532 38.7259 457.388 38.9219C457.246 39.1151 457.174 39.3352 457.174 39.5824C457.174 39.7898 457.223 39.9687 457.319 40.1193C457.419 40.2699 457.548 40.3963 457.707 40.4986C457.869 40.598 458.042 40.6818 458.227 40.75C458.412 40.8153 458.589 40.8693 458.76 40.9119L459.612 41.1335C459.89 41.2017 460.176 41.294 460.469 41.4105C460.761 41.527 461.032 41.6804 461.282 41.8707C461.532 42.0611 461.734 42.2969 461.888 42.5781C462.044 42.8594 462.122 43.196 462.122 43.5881C462.122 44.0824 461.994 44.5213 461.738 44.9048C461.486 45.2884 461.118 45.5909 460.635 45.8125C460.155 46.0341 459.574 46.1449 458.892 46.1449C458.238 46.1449 457.673 46.0412 457.196 45.8338C456.719 45.6264 456.345 45.3324 456.075 44.9517C455.805 44.5682 455.656 44.1136 455.628 43.5881H456.949C456.974 43.9034 457.076 44.1662 457.255 44.3764C457.437 44.5838 457.669 44.7386 457.95 44.8409C458.234 44.9403 458.545 44.9901 458.883 44.9901C459.255 44.9901 459.586 44.9318 459.876 44.8153C460.169 44.696 460.399 44.5312 460.567 44.321C460.734 44.108 460.818 43.8594 460.818 43.5753C460.818 43.3168 460.744 43.1051 460.596 42.9403C460.451 42.7756 460.254 42.6392 460.004 42.5312C459.757 42.4233 459.477 42.3281 459.165 42.2457L458.133 41.9645C457.434 41.7741 456.88 41.4943 456.471 41.125C456.065 40.7557 455.862 40.267 455.862 39.6591C455.862 39.1562 455.998 38.7173 456.271 38.3423C456.544 37.9673 456.913 37.6761 457.379 37.4688C457.845 37.2585 458.371 37.1534 458.956 37.1534C459.547 37.1534 460.068 37.2571 460.52 37.4645C460.974 37.6719 461.332 37.9574 461.594 38.321C461.855 38.6818 461.991 39.0966 462.003 39.5653H460.733ZM464.705 38.4062V37.2727H471.459V38.4062H468.736V46H467.424V38.4062H464.705ZM481.598 41.6364C481.598 42.5682 481.427 43.3693 481.086 44.0398C480.746 44.7074 480.278 45.2216 479.684 45.5824C479.094 45.9403 478.422 46.1193 477.669 46.1193C476.913 46.1193 476.238 45.9403 475.645 45.5824C475.054 45.2216 474.588 44.706 474.247 44.0355C473.906 43.3651 473.736 42.5653 473.736 41.6364C473.736 40.7045 473.906 39.9048 474.247 39.2372C474.588 38.5668 475.054 38.0526 475.645 37.6946C476.238 37.3338 476.913 37.1534 477.669 37.1534C478.422 37.1534 479.094 37.3338 479.684 37.6946C480.278 38.0526 480.746 38.5668 481.086 39.2372C481.427 39.9048 481.598 40.7045 481.598 41.6364ZM480.294 41.6364C480.294 40.9261 480.179 40.3281 479.949 39.8423C479.721 39.3537 479.409 38.9844 479.011 38.7344C478.616 38.4815 478.169 38.3551 477.669 38.3551C477.166 38.3551 476.717 38.4815 476.322 38.7344C475.927 38.9844 475.615 39.3537 475.385 39.8423C475.157 40.3281 475.044 40.9261 475.044 41.6364C475.044 42.3466 475.157 42.946 475.385 43.4347C475.615 43.9205 475.927 44.2898 476.322 44.5426C476.717 44.7926 477.166 44.9176 477.669 44.9176C478.169 44.9176 478.616 44.7926 479.011 44.5426C479.409 44.2898 479.721 43.9205 479.949 43.4347C480.179 42.946 480.294 42.3466 480.294 41.6364ZM484.68 46V37.2727H487.79C488.466 37.2727 489.028 37.3892 489.474 37.6222C489.922 37.8551 490.258 38.1776 490.479 38.5895C490.701 38.9986 490.812 39.4716 490.812 40.0085C490.812 40.5426 490.699 41.0128 490.475 41.419C490.253 41.8224 489.918 42.1364 489.469 42.3608C489.023 42.5852 488.462 42.6974 487.786 42.6974H485.43V41.5639H487.667C488.093 41.5639 488.439 41.5028 488.706 41.3807C488.976 41.2585 489.174 41.081 489.299 40.848C489.424 40.6151 489.486 40.3352 489.486 40.0085C489.486 39.679 489.422 39.3935 489.295 39.152C489.17 38.9105 488.972 38.7259 488.702 38.598C488.435 38.4673 488.084 38.402 487.65 38.402H485.996V46H484.68ZM488.988 42.0625L491.144 46H489.644L487.53 42.0625H488.988ZM494.591 46H493.193L496.334 37.2727H497.855L500.996 46H499.598L497.131 38.858H497.063L494.591 46ZM494.825 42.5824H499.36V43.6903H494.825V42.5824ZM509.192 40.0298C509.11 39.7713 508.999 39.5398 508.86 39.3352C508.724 39.1278 508.56 38.9517 508.37 38.8068C508.18 38.6591 507.962 38.5469 507.718 38.4702C507.476 38.3935 507.211 38.3551 506.921 38.3551C506.43 38.3551 505.986 38.4815 505.591 38.7344C505.197 38.9872 504.884 39.358 504.654 39.8466C504.427 40.3324 504.313 40.9276 504.313 41.6321C504.313 42.3395 504.428 42.9375 504.658 43.4261C504.888 43.9148 505.204 44.2855 505.604 44.5384C506.005 44.7912 506.461 44.9176 506.972 44.9176C507.447 44.9176 507.86 44.821 508.212 44.6278C508.567 44.4347 508.841 44.1619 509.035 43.8097C509.231 43.4545 509.329 43.0369 509.329 42.5568L509.67 42.6207H507.172V41.5341H510.603V42.527C510.603 43.2599 510.447 43.8963 510.134 44.4361C509.824 44.973 509.395 45.3878 508.847 45.6804C508.302 45.973 507.677 46.1193 506.972 46.1193C506.182 46.1193 505.489 45.9375 504.893 45.5739C504.299 45.2102 503.836 44.6946 503.503 44.027C503.171 43.3565 503.005 42.5611 503.005 41.6406C503.005 40.9446 503.101 40.3196 503.295 39.7656C503.488 39.2116 503.759 38.7415 504.109 38.3551C504.461 37.9659 504.874 37.669 505.349 37.4645C505.826 37.2571 506.347 37.1534 506.912 37.1534C507.384 37.1534 507.823 37.223 508.229 37.3622C508.638 37.5014 509.002 37.6989 509.32 37.9545C509.641 38.2102 509.907 38.5142 510.117 38.8665C510.327 39.2159 510.469 39.6037 510.543 40.0298H509.192ZM513.714 46V37.2727H519.186V38.4062H515.031V41.0653H518.9V42.1946H515.031V44.8665H519.237V46H513.714Z" fill="#97979B"/>
<path d="M36.3994 42.6001V45.0001C36.3994 46.3256 38.9066 47.4001 41.9994 47.4001C45.0922 47.4001 47.5994 46.3256 47.5994 45.0001V42.6001C47.5994 43.9256 45.0922 45.0001 41.9994 45.0001C38.9066 45.0001 36.3994 43.9256 36.3994 42.6001Z" fill="#97979B"/>
<path d="M36.3994 38.6001V41.0001C36.3994 42.3256 38.9066 43.4001 41.9994 43.4001C45.0922 43.4001 47.5994 42.3256 47.5994 41.0001V38.6001C47.5994 39.9256 45.0922 41.0001 41.9994 41.0001C38.9066 41.0001 36.3994 39.9256 36.3994 38.6001Z" fill="#97979B"/>
<path d="M47.5994 37.0001C47.5994 38.3256 45.0922 39.4001 41.9994 39.4001C38.9066 39.4001 36.3994 38.3256 36.3994 37.0001C36.3994 35.6746 38.9066 34.6001 41.9994 34.6001C45.0922 34.6001 47.5994 35.6746 47.5994 37.0001Z" fill="#97979B"/>
<path d="M44.3998 220.8C44.3998 222.125 43.3253 223.2 41.9998 223.2C40.6743 223.2 39.5998 222.125 39.5998 220.8C39.5998 219.474 40.6743 218.4 41.9998 218.4C43.3253 218.4 44.3998 219.474 44.3998 220.8Z" fill="#97979B"/>
<path d="M48.3998 222.4C48.3998 223.284 47.6835 224 46.7998 224C45.9161 224 45.1998 223.284 45.1998 222.4C45.1998 221.516 45.9161 220.8 46.7998 220.8C47.6835 220.8 48.3998 221.516 48.3998 222.4Z" fill="#97979B"/>
<path d="M45.1998 228C45.1998 226.233 43.7671 224.8 41.9998 224.8C40.2325 224.8 38.7998 226.233 38.7998 228V230.4H45.1998V228Z" fill="#97979B"/>
<path d="M38.7998 222.4C38.7998 223.284 38.0835 224 37.1998 224C36.3161 224 35.5998 223.284 35.5998 222.4C35.5998 221.516 36.3161 220.8 37.1998 220.8C38.0835 220.8 38.7998 221.516 38.7998 222.4Z" fill="#97979B"/>
<path d="M46.7998 230.4V228C46.7998 227.157 46.5823 226.364 46.2004 225.675C46.392 225.626 46.5928 225.6 46.7998 225.6C48.1253 225.6 49.1998 226.674 49.1998 228V230.4H46.7998Z" fill="#97979B"/>
<path d="M37.7992 225.675C37.4173 226.364 37.1998 227.157 37.1998 228V230.4H34.7998V228C34.7998 226.674 35.8743 225.6 37.1998 225.6C37.4068 225.6 37.6076 225.626 37.7992 225.675Z" fill="#97979B"/>
<path fill-rule="evenodd" clip-rule="evenodd" d="M440.04 216.837C440.373 216.942 440.599 217.251 440.599 217.6V221.6L443.799 221.6C444.098 221.6 444.371 221.766 444.509 222.03C444.647 222.295 444.626 222.614 444.455 222.859L438.855 230.859C438.655 231.145 438.292 231.268 437.959 231.163C437.626 231.058 437.399 230.749 437.399 230.4V226.4H434.199C433.901 226.4 433.628 226.234 433.49 225.969C433.352 225.705 433.373 225.385 433.544 225.141L439.144 217.141C439.344 216.855 439.707 216.732 440.04 216.837Z" fill="#97979B"/>
<rect x="820" y="33" width="92" height="12" rx="6" fill="url(#paint9_linear_10_1003)"/>
<path d="M821.71 71V60.8182H825.15C825.945 60.8182 826.598 60.9541 827.109 61.2259C827.619 61.4943 827.997 61.8639 828.242 62.3345C828.487 62.8052 828.61 63.3404 828.61 63.9403C828.61 64.5402 828.487 65.0722 828.242 65.5362C827.997 66.0002 827.621 66.3648 827.114 66.63C826.607 66.8918 825.959 67.0227 825.17 67.0227H822.386V65.9091H825.13C825.674 65.9091 826.111 65.8295 826.442 65.6705C826.777 65.5114 827.019 65.286 827.168 64.9943C827.321 64.6993 827.397 64.348 827.397 63.9403C827.397 63.5327 827.321 63.1764 827.168 62.8714C827.016 62.5665 826.772 62.3312 826.438 62.1655C826.103 61.9964 825.66 61.9119 825.11 61.9119H822.942V71H821.71ZM826.502 66.4261L829.008 71H827.576L825.11 66.4261H826.502ZM833.625 71.1591C832.889 71.1591 832.255 70.9967 831.721 70.6719C831.191 70.3438 830.781 69.8864 830.493 69.2997C830.208 68.7098 830.066 68.0237 830.066 67.2415C830.066 66.4593 830.208 65.7699 830.493 65.1733C830.781 64.5734 831.182 64.1061 831.696 63.7713C832.213 63.4332 832.816 63.2642 833.506 63.2642C833.904 63.2642 834.296 63.3305 834.684 63.4631C835.072 63.5956 835.425 63.8111 835.743 64.1094C836.061 64.4044 836.315 64.7955 836.504 65.2827C836.693 65.7699 836.787 66.3698 836.787 67.0824V67.5795H830.901V66.5653H835.594C835.594 66.1345 835.508 65.75 835.335 65.4119C835.166 65.0739 834.924 64.8071 834.61 64.6115C834.298 64.416 833.93 64.3182 833.506 64.3182C833.039 64.3182 832.634 64.4342 832.293 64.6662C831.955 64.8949 831.695 65.1932 831.512 65.5611C831.33 65.929 831.239 66.3234 831.239 66.7443V67.4205C831.239 67.9972 831.338 68.486 831.537 68.8871C831.739 69.2848 832.019 69.5881 832.377 69.7969C832.735 70.0024 833.151 70.1051 833.625 70.1051C833.933 70.1051 834.212 70.062 834.46 69.9759C834.712 69.8864 834.929 69.7538 835.112 69.5781C835.294 69.3991 835.435 69.1771 835.534 68.9119L836.668 69.2301C836.548 69.6146 836.348 69.9527 836.066 70.2443C835.785 70.5327 835.436 70.758 835.022 70.9205C834.608 71.0795 834.142 71.1591 833.625 71.1591ZM840.819 71.179C840.335 71.179 839.896 71.0878 839.502 70.9055C839.107 70.7199 838.794 70.4531 838.562 70.1051C838.33 69.7538 838.214 69.3295 838.214 68.8324C838.214 68.3949 838.3 68.0402 838.472 67.7685C838.645 67.4934 838.875 67.2779 839.164 67.1222C839.452 66.9664 839.77 66.8504 840.118 66.7741C840.469 66.6946 840.822 66.6316 841.177 66.5852C841.641 66.5256 842.017 66.4808 842.306 66.451C842.597 66.4179 842.809 66.3632 842.942 66.2869C843.078 66.2107 843.146 66.0781 843.146 65.8892V65.8494C843.146 65.3589 843.012 64.9777 842.743 64.706C842.478 64.4342 842.075 64.2983 841.535 64.2983C840.975 64.2983 840.536 64.4209 840.218 64.6662C839.899 64.9115 839.676 65.1733 839.546 65.4517L838.433 65.054C838.632 64.59 838.897 64.2287 839.228 63.9702C839.563 63.7083 839.927 63.526 840.322 63.4233C840.72 63.3172 841.111 63.2642 841.495 63.2642C841.74 63.2642 842.022 63.294 842.34 63.3537C842.662 63.41 842.972 63.5277 843.27 63.7067C843.572 63.8857 843.822 64.1558 844.021 64.517C844.22 64.8783 844.319 65.3622 844.319 65.9688V71H843.146V69.9659H843.086C843.007 70.1316 842.874 70.3089 842.688 70.4979C842.503 70.6868 842.256 70.8475 841.948 70.9801C841.639 71.1127 841.263 71.179 840.819 71.179ZM840.998 70.125C841.462 70.125 841.853 70.0339 842.171 69.8516C842.493 69.6693 842.735 69.4339 842.897 69.1456C843.063 68.8572 843.146 68.554 843.146 68.2358V67.1619C843.096 67.2216 842.987 67.2763 842.818 67.326C842.652 67.3724 842.46 67.4138 842.241 67.4503C842.026 67.4834 841.815 67.5133 841.61 67.5398C841.407 67.563 841.243 67.5829 841.117 67.5994C840.812 67.6392 840.527 67.7038 840.262 67.7933C840 67.8795 839.788 68.0104 839.626 68.1861C839.467 68.3584 839.387 68.5937 839.387 68.892C839.387 69.2997 839.538 69.608 839.84 69.8168C840.145 70.0223 840.531 70.125 840.998 70.125ZM847.634 60.8182V71H846.461V60.8182H847.634ZM853.104 63.3636V64.358H849.146V63.3636H853.104ZM850.3 61.5341H851.473V68.8125C851.473 69.1439 851.521 69.3925 851.617 69.5582C851.717 69.7206 851.843 69.83 851.995 69.8864C852.151 69.9394 852.315 69.9659 852.487 69.9659C852.617 69.9659 852.723 69.9593 852.806 69.946C852.888 69.9295 852.955 69.9162 853.004 69.9062L853.243 70.9602C853.164 70.9901 853.052 71.0199 852.91 71.0497C852.767 71.0829 852.587 71.0994 852.368 71.0994C852.037 71.0994 851.712 71.0282 851.394 70.8857C851.079 70.7431 850.817 70.526 850.608 70.2344C850.403 69.9427 850.3 69.5748 850.3 69.1307V61.5341ZM854.869 71V63.3636H856.042V71H854.869ZM855.465 62.0909C855.237 62.0909 855.039 62.013 854.874 61.8572C854.711 61.7015 854.63 61.5142 854.63 61.2955C854.63 61.0767 854.711 60.8894 854.874 60.7337C855.039 60.5779 855.237 60.5 855.465 60.5C855.694 60.5 855.89 60.5779 856.052 60.7337C856.218 60.8894 856.301 61.0767 856.301 61.2955C856.301 61.5142 856.218 61.7015 856.052 61.8572C855.89 62.013 855.694 62.0909 855.465 62.0909ZM858.191 71V63.3636H859.325V64.5568H859.424C859.583 64.1491 859.84 63.8326 860.195 63.6072C860.549 63.3786 860.975 63.2642 861.472 63.2642C861.976 63.2642 862.395 63.3786 862.73 63.6072C863.068 63.8326 863.332 64.1491 863.521 64.5568H863.6C863.796 64.1624 864.089 63.8492 864.48 63.6172C864.871 63.3819 865.34 63.2642 865.887 63.2642C866.57 63.2642 867.128 63.478 867.562 63.9055C867.997 64.3298 868.214 64.991 868.214 65.8892V71H867.04V65.8892C867.04 65.3258 866.886 64.9231 866.578 64.6811C866.27 64.4392 865.907 64.3182 865.489 64.3182C864.952 64.3182 864.536 64.4806 864.241 64.8054C863.946 65.1269 863.799 65.5346 863.799 66.0284V71H862.606V65.7699C862.606 65.3357 862.465 64.986 862.183 64.7209C861.902 64.4524 861.539 64.3182 861.094 64.3182C860.79 64.3182 860.504 64.3994 860.239 64.5618C859.978 64.7242 859.765 64.9496 859.603 65.2379C859.444 65.523 859.364 65.8527 859.364 66.2273V71H858.191ZM873.561 71.1591C872.825 71.1591 872.19 70.9967 871.657 70.6719C871.126 70.3438 870.717 69.8864 870.429 69.2997C870.144 68.7098 870.001 68.0237 870.001 67.2415C870.001 66.4593 870.144 65.7699 870.429 65.1733C870.717 64.5734 871.118 64.1061 871.632 63.7713C872.149 63.4332 872.752 63.2642 873.441 63.2642C873.839 63.2642 874.232 63.3305 874.62 63.4631C875.007 63.5956 875.36 63.8111 875.679 64.1094C875.997 64.4044 876.25 64.7955 876.439 65.2827C876.628 65.7699 876.723 66.3698 876.723 67.0824V67.5795H870.836V66.5653H875.529C875.529 66.1345 875.443 65.75 875.271 65.4119C875.102 65.0739 874.86 64.8071 874.545 64.6115C874.234 64.416 873.866 64.3182 873.441 64.3182C872.974 64.3182 872.57 64.4342 872.228 64.6662C871.89 64.8949 871.63 65.1932 871.448 65.5611C871.266 65.929 871.174 66.3234 871.174 66.7443V67.4205C871.174 67.9972 871.274 68.486 871.473 68.8871C871.675 69.2848 871.955 69.5881 872.313 69.7969C872.671 70.0024 873.087 70.1051 873.561 70.1051C873.869 70.1051 874.147 70.062 874.396 69.9759C874.648 69.8864 874.865 69.7538 875.047 69.5781C875.23 69.3991 875.37 69.1771 875.47 68.9119L876.603 69.2301C876.484 69.6146 876.283 69.9527 876.002 70.2443C875.72 70.5327 875.372 70.758 874.958 70.9205C874.543 71.0795 874.078 71.1591 873.561 71.1591ZM890.797 64H889.564C889.491 63.6454 889.364 63.3338 889.181 63.0653C889.002 62.7969 888.784 62.5715 888.525 62.3892C888.27 62.2036 887.987 62.0644 887.675 61.9716C887.364 61.8788 887.039 61.8324 886.701 61.8324C886.084 61.8324 885.526 61.9882 885.025 62.2997C884.528 62.6113 884.132 63.0703 883.837 63.6768C883.545 64.2834 883.4 65.0275 883.4 65.9091C883.4 66.7907 883.545 67.5348 883.837 68.1413C884.132 68.7479 884.528 69.2069 885.025 69.5185C885.526 69.83 886.084 69.9858 886.701 69.9858C887.039 69.9858 887.364 69.9394 887.675 69.8466C887.987 69.7538 888.27 69.6162 888.525 69.4339C888.784 69.2483 889.002 69.0213 889.181 68.7528C889.364 68.4811 889.491 68.1695 889.564 67.8182H890.797C890.704 68.3385 890.535 68.8042 890.29 69.2152C890.045 69.6262 889.74 69.9759 889.375 70.2642C889.011 70.5492 888.601 70.7663 888.147 70.9155C887.697 71.0646 887.214 71.1392 886.701 71.1392C885.832 71.1392 885.06 70.9271 884.384 70.5028C883.708 70.0786 883.176 69.4754 882.788 68.6932C882.4 67.911 882.206 66.983 882.206 65.9091C882.206 64.8352 882.4 63.9072 882.788 63.125C883.176 62.3428 883.708 61.7396 884.384 61.3153C885.06 60.8911 885.832 60.679 886.701 60.679C887.214 60.679 887.697 60.7536 888.147 60.9027C888.601 61.0518 889.011 61.2706 889.375 61.5589C889.74 61.844 890.045 62.192 890.29 62.603C890.535 63.0107 890.704 63.4763 890.797 64ZM895.733 71.1591C895.043 71.1591 894.439 70.995 893.918 70.6669C893.401 70.3388 892.997 69.8797 892.705 69.2898C892.417 68.6998 892.273 68.0104 892.273 67.2216C892.273 66.4261 892.417 65.7318 892.705 65.1385C892.997 64.5452 893.401 64.0845 893.918 63.7564C894.439 63.4283 895.043 63.2642 895.733 63.2642C896.422 63.2642 897.025 63.4283 897.542 63.7564C898.063 64.0845 898.467 64.5452 898.756 65.1385C899.047 65.7318 899.193 66.4261 899.193 67.2216C899.193 68.0104 899.047 68.6998 898.756 69.2898C898.467 69.8797 898.063 70.3388 897.542 70.6669C897.025 70.995 896.422 71.1591 895.733 71.1591ZM895.733 70.1051C896.256 70.1051 896.687 69.9709 897.025 69.7024C897.363 69.4339 897.614 69.081 897.776 68.6435C897.939 68.206 898.02 67.732 898.02 67.2216C898.02 66.7112 897.939 66.2356 897.776 65.7947C897.614 65.3539 897.363 64.9976 897.025 64.7259C896.687 64.4541 896.256 64.3182 895.733 64.3182C895.209 64.3182 894.778 64.4541 894.44 64.7259C894.102 64.9976 893.852 65.3539 893.689 65.7947C893.527 66.2356 893.446 66.7112 893.446 67.2216C893.446 67.732 893.527 68.206 893.689 68.6435C893.852 69.081 894.102 69.4339 894.44 69.7024C894.778 69.9709 895.209 70.1051 895.733 70.1051ZM902.157 66.4062V71H900.984V63.3636H902.118V64.5568H902.217C902.396 64.169 902.668 63.8575 903.032 63.6222C903.397 63.3835 903.868 63.2642 904.444 63.2642C904.961 63.2642 905.414 63.3703 905.801 63.5824C906.189 63.7912 906.491 64.1094 906.706 64.5369C906.922 64.9612 907.029 65.4981 907.029 66.1477V71H905.856V66.2273C905.856 65.6274 905.7 65.16 905.389 64.8253C905.077 64.4872 904.65 64.3182 904.106 64.3182C903.732 64.3182 903.397 64.3994 903.102 64.5618C902.81 64.7242 902.58 64.9612 902.411 65.2727C902.242 65.5843 902.157 65.9621 902.157 66.4062ZM910.347 66.4062V71H909.173V63.3636H910.307V64.5568H910.406C910.585 64.169 910.857 63.8575 911.222 63.6222C911.586 63.3835 912.057 63.2642 912.634 63.2642C913.151 63.2642 913.603 63.3703 913.991 63.5824C914.379 63.7912 914.68 64.1094 914.896 64.5369C915.111 64.9612 915.219 65.4981 915.219 66.1477V71H914.046V66.2273C914.046 65.6274 913.89 65.16 913.578 64.8253C913.267 64.4872 912.839 64.3182 912.296 64.3182C911.921 64.3182 911.586 64.3994 911.291 64.5618C911 64.7242 910.769 64.9612 910.6 65.2727C910.431 65.5843 910.347 65.9621 910.347 66.4062ZM920.565 71.1591C919.829 71.1591 919.194 70.9967 918.661 70.6719C918.13 70.3438 917.721 69.8864 917.433 69.2997C917.147 68.7098 917.005 68.0237 917.005 67.2415C917.005 66.4593 917.147 65.7699 917.433 65.1733C917.721 64.5734 918.122 64.1061 918.636 63.7713C919.153 63.4332 919.756 63.2642 920.445 63.2642C920.843 63.2642 921.236 63.3305 921.624 63.4631C922.011 63.5956 922.364 63.8111 922.683 64.1094C923.001 64.4044 923.254 64.7955 923.443 65.2827C923.632 65.7699 923.727 66.3698 923.727 67.0824V67.5795H917.84V66.5653H922.533C922.533 66.1345 922.447 65.75 922.275 65.4119C922.106 65.0739 921.864 64.8071 921.549 64.6115C921.237 64.416 920.87 64.3182 920.445 64.3182C919.978 64.3182 919.574 64.4342 919.232 64.6662C918.894 64.8949 918.634 65.1932 918.452 65.5611C918.269 65.929 918.178 66.3234 918.178 66.7443V67.4205C918.178 67.9972 918.278 68.486 918.477 68.8871C918.679 69.2848 918.959 69.5881 919.317 69.7969C919.675 70.0024 920.091 70.1051 920.565 70.1051C920.873 70.1051 921.151 70.062 921.4 69.9759C921.652 69.8864 921.869 69.7538 922.051 69.5781C922.233 69.3991 922.374 69.1771 922.474 68.9119L923.607 69.2301C923.488 69.6146 923.287 69.9527 923.006 70.2443C922.724 70.5327 922.376 70.758 921.962 70.9205C921.547 71.0795 921.082 71.1591 920.565 71.1591ZM928.614 71.1591C927.898 71.1591 927.281 70.9901 926.764 70.652C926.247 70.3139 925.849 69.8482 925.571 69.255C925.293 68.6617 925.153 67.9839 925.153 67.2216C925.153 66.446 925.296 65.7616 925.581 65.1683C925.869 64.5717 926.27 64.1061 926.784 63.7713C927.301 63.4332 927.904 63.2642 928.594 63.2642C929.131 63.2642 929.615 63.3636 930.045 63.5625C930.476 63.7614 930.829 64.0398 931.104 64.3977C931.379 64.7557 931.55 65.1733 931.616 65.6506H930.443C930.354 65.3026 930.155 64.9943 929.847 64.7259C929.542 64.4541 929.131 64.3182 928.614 64.3182C928.156 64.3182 927.755 64.4375 927.411 64.6761C927.069 64.9115 926.802 65.2446 926.61 65.6754C926.421 66.103 926.327 66.6051 926.327 67.1818C926.327 67.7718 926.42 68.2855 926.605 68.723C926.794 69.1605 927.059 69.5002 927.401 69.7422C927.745 69.9841 928.15 70.1051 928.614 70.1051C928.919 70.1051 929.195 70.0521 929.444 69.946C929.692 69.84 929.903 69.6875 930.075 69.4886C930.248 69.2898 930.37 69.0511 930.443 68.7727H931.616C931.55 69.2235 931.386 69.6295 931.124 69.9908C930.866 70.3487 930.523 70.6338 930.095 70.8459C929.671 71.0547 929.177 71.1591 928.614 71.1591ZM936.653 63.3636V64.358H932.695V63.3636H936.653ZM933.849 61.5341H935.022V68.8125C935.022 69.1439 935.07 69.3925 935.166 69.5582C935.266 69.7206 935.392 69.83 935.544 69.8864C935.7 69.9394 935.864 69.9659 936.036 69.9659C936.165 69.9659 936.272 69.9593 936.354 69.946C936.437 69.9295 936.504 69.9162 936.553 69.9062L936.792 70.9602C936.712 70.9901 936.601 71.0199 936.459 71.0497C936.316 71.0829 936.136 71.0994 935.917 71.0994C935.585 71.0994 935.261 71.0282 934.942 70.8857C934.628 70.7431 934.366 70.526 934.157 70.2344C933.951 69.9427 933.849 69.5748 933.849 69.1307V61.5341ZM938.418 71V63.3636H939.591V71H938.418ZM939.014 62.0909C938.786 62.0909 938.588 62.013 938.423 61.8572C938.26 61.7015 938.179 61.5142 938.179 61.2955C938.179 61.0767 938.26 60.8894 938.423 60.7337C938.588 60.5779 938.786 60.5 939.014 60.5C939.243 60.5 939.438 60.5779 939.601 60.7337C939.767 60.8894 939.849 61.0767 939.849 61.2955C939.849 61.5142 939.767 61.7015 939.601 61.8572C939.438 62.013 939.243 62.0909 939.014 62.0909ZM944.842 71.1591C944.153 71.1591 943.548 70.995 943.028 70.6669C942.51 70.3388 942.106 69.8797 941.814 69.2898C941.526 68.6998 941.382 68.0104 941.382 67.2216C941.382 66.4261 941.526 65.7318 941.814 65.1385C942.106 64.5452 942.51 64.0845 943.028 63.7564C943.548 63.4283 944.153 63.2642 944.842 63.2642C945.532 63.2642 946.135 63.4283 946.652 63.7564C947.172 64.0845 947.577 64.5452 947.865 65.1385C948.157 65.7318 948.302 66.4261 948.302 67.2216C948.302 68.0104 948.157 68.6998 947.865 69.2898C947.577 69.8797 947.172 70.3388 946.652 70.6669C946.135 70.995 945.532 71.1591 944.842 71.1591ZM944.842 70.1051C945.366 70.1051 945.797 69.9709 946.135 69.7024C946.473 69.4339 946.723 69.081 946.885 68.6435C947.048 68.206 947.129 67.732 947.129 67.2216C947.129 66.7112 947.048 66.2356 946.885 65.7947C946.723 65.3539 946.473 64.9976 946.135 64.7259C945.797 64.4541 945.366 64.3182 944.842 64.3182C944.318 64.3182 943.888 64.4541 943.55 64.7259C943.211 64.9976 942.961 65.3539 942.799 65.7947C942.636 66.2356 942.555 66.7112 942.555 67.2216C942.555 67.732 942.636 68.206 942.799 68.6435C942.961 69.081 943.211 69.4339 943.55 69.7024C943.888 69.9709 944.318 70.1051 944.842 70.1051ZM951.267 66.4062V71H950.093V63.3636H951.227V64.5568H951.326C951.505 64.169 951.777 63.8575 952.142 63.6222C952.506 63.3835 952.977 63.2642 953.554 63.2642C954.071 63.2642 954.523 63.3703 954.911 63.5824C955.299 63.7912 955.6 64.1094 955.816 64.5369C956.031 64.9612 956.139 65.4981 956.139 66.1477V71H954.966V66.2273C954.966 65.6274 954.81 65.16 954.498 64.8253C954.187 64.4872 953.759 64.3182 953.216 64.3182C952.841 64.3182 952.506 64.3994 952.211 64.5618C951.92 64.7242 951.689 64.9612 951.52 65.2727C951.351 65.5843 951.267 65.9621 951.267 66.4062ZM963.692 65.0739L962.638 65.3722C962.572 65.1965 962.474 65.0258 962.345 64.8601C962.219 64.6911 962.046 64.5518 961.828 64.4425C961.609 64.3331 961.329 64.2784 960.987 64.2784C960.52 64.2784 960.131 64.3861 959.819 64.6016C959.511 64.8137 959.357 65.0838 959.357 65.4119C959.357 65.7036 959.463 65.9339 959.675 66.103C959.887 66.272 960.218 66.4129 960.669 66.5256L961.803 66.804C962.485 66.9697 962.994 67.2232 963.329 67.5646C963.664 67.9027 963.831 68.3385 963.831 68.8722C963.831 69.3097 963.705 69.7008 963.453 70.0455C963.205 70.3902 962.857 70.6619 962.409 70.8608C961.962 71.0597 961.441 71.1591 960.848 71.1591C960.069 71.1591 959.425 70.9901 958.914 70.652C958.404 70.3139 958.081 69.8201 957.945 69.1705L959.058 68.892C959.164 69.303 959.365 69.6113 959.66 69.8168C959.958 70.0223 960.348 70.125 960.828 70.125C961.375 70.125 961.809 70.009 962.131 69.777C962.456 69.5417 962.618 69.2599 962.618 68.9318C962.618 68.6667 962.525 68.4446 962.34 68.2656C962.154 68.0833 961.869 67.9474 961.485 67.858L960.212 67.5597C959.512 67.3939 958.999 67.1371 958.671 66.7891C958.346 66.4377 958.183 65.9986 958.183 65.4716C958.183 65.0407 958.304 64.6596 958.546 64.3281C958.792 63.9967 959.125 63.7365 959.546 63.5476C959.97 63.3587 960.45 63.2642 960.987 63.2642C961.743 63.2642 962.336 63.4299 962.767 63.7614C963.201 64.0928 963.51 64.5303 963.692 65.0739Z" fill="#6C6C71"/>
<path d="M859 188.906C859 187.301 860.301 186 861.906 186C863.511 186 864.812 187.301 864.812 188.906V282.646H859V188.906Z" fill="#F02E65"/>
<path d="M883.812 220.841C883.812 219.236 885.113 217.935 886.717 217.935C888.322 217.935 889.623 219.236 889.623 220.841V282.646H883.812V220.841Z" fill="#F02E65"/>
<path d="M908.623 246.053C908.623 244.448 909.924 243.147 911.529 243.147C913.134 243.147 914.435 244.448 914.435 246.053V282.646H908.623V246.053Z" fill="#F02E65"/>
<path d="M933.436 230.086C933.436 228.481 934.737 227.18 936.341 227.18C937.946 227.18 939.247 228.481 939.247 230.086V282.646H933.436V230.086Z" fill="#F02E65"/>
<path d="M958.247 204.873C958.247 203.268 959.548 201.967 961.153 201.967C962.758 201.967 964.059 203.268 964.059 204.873V282.646H958.247V204.873Z" fill="#F02E65"/>
<path d="M983.059 188.906C983.059 187.301 984.36 186 985.965 186C987.569 186 988.87 187.301 988.87 188.906V282.646H983.059V188.906Z" fill="#F02E65"/>
<path d="M1007.87 220.841C1007.87 219.236 1009.17 217.935 1010.78 217.935C1012.38 217.935 1013.68 219.236 1013.68 220.841V282.646H1007.87V220.841Z" fill="#F02E65"/>
<path d="M1032.68 246.053C1032.68 244.448 1033.98 243.147 1035.59 243.147C1037.19 243.147 1038.49 244.448 1038.49 246.053V282.646H1032.68V246.053Z" fill="#F02E65"/>
<path d="M1057.49 230.086C1057.49 228.481 1058.8 227.18 1060.4 227.18C1062 227.18 1063.31 228.481 1063.31 230.086V282.646H1057.49V230.086Z" fill="#F02E65"/>
<path d="M1082.31 204.873C1082.31 203.268 1083.61 201.967 1085.21 201.967C1086.82 201.967 1088.12 203.268 1088.12 204.873V282.646H1082.31V204.873Z" fill="#F02E65"/>
<path d="M1107.12 220.841C1107.12 219.236 1108.42 217.935 1110.02 217.935C1111.63 217.935 1112.93 219.236 1112.93 220.841V282.646H1107.12V220.841Z" fill="#F02E65"/>
<path d="M1131.93 246.053C1131.93 244.448 1133.23 243.147 1134.84 243.147C1136.44 243.147 1137.74 244.448 1137.74 246.053V282.646H1131.93V246.053Z" fill="#F02E65"/>
<rect x="34" y="100" width="92" height="12" rx="6" fill="url(#paint10_linear_10_1003)"/>
<rect x="34" y="120" width="40" height="8" rx="4" fill="url(#paint11_linear_10_1003)"/>
<rect x="302" y="120" width="40" height="8" rx="4" fill="url(#paint12_linear_10_1003)"/>
<rect y="1" width="1170" height="388" rx="19" fill="url(#paint13_linear_10_1003)"/>
<defs>
<linearGradient id="paint0_linear_10_1003" x1="34" y1="290" x2="118" y2="290" gradientUnits="userSpaceOnUse">
<stop stop-color="#EDEDF0"/>
<stop offset="1" stop-color="#EDEDF0" stop-opacity="0"/>
</linearGradient>
<linearGradient id="paint1_linear_10_1003" x1="31" y1="308.667" x2="73.9927" y2="309.417" gradientUnits="userSpaceOnUse">
<stop stop-color="#EDEDF0"/>
<stop offset="1" stop-color="#EDEDF0" stop-opacity="0"/>
</linearGradient>
<linearGradient id="paint2_linear_10_1003" x1="299" y1="308.667" x2="341.993" y2="309.417" gradientUnits="userSpaceOnUse">
<stop stop-color="#EDEDF0"/>
<stop offset="1" stop-color="#EDEDF0" stop-opacity="0"/>
</linearGradient>
<linearGradient id="paint3_linear_10_1003" x1="431" y1="290" x2="515" y2="290" gradientUnits="userSpaceOnUse">
<stop stop-color="#EDEDF0"/>
<stop offset="1" stop-color="#EDEDF0" stop-opacity="0"/>
</linearGradient>
<linearGradient id="paint4_linear_10_1003" x1="428" y1="308.667" x2="470.993" y2="309.417" gradientUnits="userSpaceOnUse">
<stop stop-color="#EDEDF0"/>
<stop offset="1" stop-color="#EDEDF0" stop-opacity="0"/>
</linearGradient>
<linearGradient id="paint5_linear_10_1003" x1="696" y1="308.667" x2="738.993" y2="309.417" gradientUnits="userSpaceOnUse">
<stop stop-color="#EDEDF0"/>
<stop offset="1" stop-color="#EDEDF0" stop-opacity="0"/>
</linearGradient>
<linearGradient id="paint6_linear_10_1003" x1="431" y1="106" x2="515" y2="106" gradientUnits="userSpaceOnUse">
<stop stop-color="#EDEDF0"/>
<stop offset="1" stop-color="#EDEDF0" stop-opacity="0"/>
</linearGradient>
<linearGradient id="paint7_linear_10_1003" x1="428" y1="124.667" x2="470.993" y2="125.417" gradientUnits="userSpaceOnUse">
<stop stop-color="#EDEDF0"/>
<stop offset="1" stop-color="#EDEDF0" stop-opacity="0"/>
</linearGradient>
<linearGradient id="paint8_linear_10_1003" x1="696" y1="124.667" x2="738.993" y2="125.417" gradientUnits="userSpaceOnUse">
<stop stop-color="#EDEDF0"/>
<stop offset="1" stop-color="#EDEDF0" stop-opacity="0"/>
</linearGradient>
<linearGradient id="paint9_linear_10_1003" x1="820" y1="39" x2="904" y2="39" gradientUnits="userSpaceOnUse">
<stop stop-color="#EDEDF0"/>
<stop offset="1" stop-color="#EDEDF0" stop-opacity="0"/>
</linearGradient>
<linearGradient id="paint10_linear_10_1003" x1="34" y1="106" x2="118" y2="106" gradientUnits="userSpaceOnUse">
<stop stop-color="#EDEDF0"/>
<stop offset="1" stop-color="#EDEDF0" stop-opacity="0"/>
</linearGradient>
<linearGradient id="paint11_linear_10_1003" x1="31" y1="124.667" x2="73.9927" y2="125.417" gradientUnits="userSpaceOnUse">
<stop stop-color="#EDEDF0"/>
<stop offset="1" stop-color="#EDEDF0" stop-opacity="0"/>
</linearGradient>
<linearGradient id="paint12_linear_10_1003" x1="299" y1="124.667" x2="341.993" y2="125.417" gradientUnits="userSpaceOnUse">
<stop stop-color="#EDEDF0"/>
<stop offset="1" stop-color="#EDEDF0" stop-opacity="0"/>
</linearGradient>
<linearGradient id="paint13_linear_10_1003" x1="585" y1="1" x2="585" y2="389" gradientUnits="userSpaceOnUse">
<stop stop-color="white" stop-opacity="0.2"/>
<stop offset="0.702208" stop-color="#FAFAFB"/>
<stop offset="1" stop-color="#FAFAFB"/>
</linearGradient>
</defs>
</svg>
