<svg width="248" height="148" viewBox="0 0 248 148" fill="none" xmlns="http://www.w3.org/2000/svg">
<path d="M0 4C0 1.79086 1.79086 0 4 0H244C246.209 0 248 1.79086 248 4V144C248 146.209 246.209 148 244 148H4C1.79086 148 0 146.209 0 144V4Z" fill="#1D1D21"/>
<g filter="url(#filter0_f_1370_22428)">
<path d="M100.53 77.7829C77.0199 77.7171 57.9614 71.2986 57.9614 63.4468C57.9614 55.5949 77.0199 49.2831 100.53 49.3489C124.04 49.4147 143.098 55.8332 143.098 63.685C143.098 71.5368 124.04 77.8487 100.53 77.7829Z" fill="url(#paint0_radial_1370_22428)" fill-opacity="0.16"/>
</g>
<g filter="url(#filter1_f_1370_22428)">
<path d="M124.206 90.8688C82.3368 90.7517 48.3954 74.2219 48.3954 53.9485C48.3954 33.6751 82.3368 17.3352 124.206 17.4524C166.074 17.5696 200.016 34.0994 200.016 54.3728C200.016 74.6462 166.074 90.986 124.206 90.8688Z" fill="url(#paint1_radial_1370_22428)" fill-opacity="0.16"/>
</g>
<g filter="url(#filter2_f_1370_22428)">
<path d="M50.3719 45.3954C50.7789 54.1803 81.5696 59.6598 79.5161 62.4612C77.4627 65.2626 48.5736 72.0393 44.2326 65.3615C39.8915 58.6838 42.9326 24.7438 44.9861 21.9424C47.0395 19.141 46.0309 38.7176 50.3719 45.3954Z" fill="url(#paint2_radial_1370_22428)" fill-opacity="0.24"/>
</g>
<g filter="url(#filter3_f_1370_22428)">
<path d="M53.6776 79.0323C42.517 72.7498 41.8364 56.1169 52.1573 41.8815C62.4783 27.6462 79.8926 21.1991 91.0532 27.4816C102.214 33.764 102.894 50.397 92.5734 64.6323C82.2525 78.8676 64.8382 85.3147 53.6776 79.0323Z" fill="url(#paint3_radial_1370_22428)" fill-opacity="0.12"/>
</g>
<path d="M124.55 68.4V92C124.55 98.6274 119.177 104 112.55 104H93.7499C86.2388 104 80.1499 110.089 80.1499 117.6V123.6" stroke="#414146"/>
<path d="M169 123.6V117.6C169 110.089 162.911 104 155.4 104H136.6C129.973 104 124.6 98.6274 124.6 92V86.2" stroke="#414146"/>
<mask id="path-8-outside-1_1370_22428" maskUnits="userSpaceOnUse" x="53" y="45.5" width="142" height="30" fill="black">
<rect fill="white" x="53" y="45.5" width="142" height="30"/>
<path d="M54 59.3C54 54.8196 54 52.5794 54.8719 50.8681C55.6389 49.3628 56.8628 48.1389 58.3681 47.3719C60.0794 46.5 62.3196 46.5 66.8 46.5H181.2C185.68 46.5 187.921 46.5 189.632 47.3719C191.137 48.1389 192.361 49.3628 193.128 50.8681C194 52.5794 194 54.8196 194 59.3V61.7C194 66.1804 194 68.4206 193.128 70.1319C192.361 71.6372 191.137 72.8611 189.632 73.6281C187.921 74.5 185.68 74.5 181.2 74.5H66.8C62.3196 74.5 60.0794 74.5 58.3681 73.6281C56.8628 72.8611 55.6389 71.6372 54.8719 70.1319C54 68.4206 54 66.1804 54 61.7V59.3Z"/>
</mask>
<path d="M54 59.3C54 54.8196 54 52.5794 54.8719 50.8681C55.6389 49.3628 56.8628 48.1389 58.3681 47.3719C60.0794 46.5 62.3196 46.5 66.8 46.5H181.2C185.68 46.5 187.921 46.5 189.632 47.3719C191.137 48.1389 192.361 49.3628 193.128 50.8681C194 52.5794 194 54.8196 194 59.3V61.7C194 66.1804 194 68.4206 193.128 70.1319C192.361 71.6372 191.137 72.8611 189.632 73.6281C187.921 74.5 185.68 74.5 181.2 74.5H66.8C62.3196 74.5 60.0794 74.5 58.3681 73.6281C56.8628 72.8611 55.6389 71.6372 54.8719 70.1319C54 68.4206 54 66.1804 54 61.7V59.3Z" fill="#2D2D31"/>
<path d="M58.3681 73.6281L57.9141 74.5191L58.3681 73.6281ZM193.128 70.1319L192.237 69.6779L193.128 70.1319ZM189.632 73.6281L190.086 74.5191L189.632 73.6281ZM189.632 47.3719L189.178 48.263L189.632 47.3719ZM58.3681 47.3719L57.9141 46.4809L58.3681 47.3719ZM54.8719 50.8681L53.9809 50.4141L54.8719 50.8681ZM66.8 47.5H181.2V45.5H66.8V47.5ZM193 59.3V61.7H195V59.3H193ZM181.2 73.5H66.8V75.5H181.2V73.5ZM55 61.7V59.3H53V61.7H55ZM66.8 73.5C64.5433 73.5 62.9109 73.4992 61.627 73.3943C60.3549 73.2904 59.5132 73.0892 58.8221 72.737L57.9141 74.5191C58.9342 75.0388 60.0683 75.2736 61.4642 75.3877C62.8484 75.5008 64.5763 75.5 66.8 75.5V73.5ZM53 61.7C53 63.9237 52.9992 65.6516 53.1123 67.0358C53.2264 68.4317 53.4612 69.5658 53.9809 70.5859L55.763 69.6779C55.4108 68.9868 55.2096 68.1451 55.1057 66.873C55.0008 65.5891 55 63.9567 55 61.7H53ZM58.8221 72.737C57.5049 72.0659 56.4341 70.9951 55.763 69.6779L53.9809 70.5859C54.8438 72.2794 56.2206 73.6562 57.9141 74.5191L58.8221 72.737ZM193 61.7C193 63.9567 192.999 65.5891 192.894 66.873C192.79 68.1451 192.589 68.9868 192.237 69.6779L194.019 70.5859C194.539 69.5658 194.774 68.4317 194.888 67.0358C195.001 65.6516 195 63.9237 195 61.7H193ZM181.2 75.5C183.424 75.5 185.152 75.5008 186.536 75.3877C187.932 75.2736 189.066 75.0388 190.086 74.5191L189.178 72.737C188.487 73.0892 187.645 73.2904 186.373 73.3943C185.089 73.4992 183.457 73.5 181.2 73.5V75.5ZM192.237 69.6779C191.566 70.9951 190.495 72.0659 189.178 72.737L190.086 74.5191C191.779 73.6562 193.156 72.2794 194.019 70.5859L192.237 69.6779ZM181.2 47.5C183.457 47.5 185.089 47.5008 186.373 47.6057C187.645 47.7096 188.487 47.9108 189.178 48.263L190.086 46.4809C189.066 45.9612 187.932 45.7264 186.536 45.6123C185.152 45.4992 183.424 45.5 181.2 45.5V47.5ZM195 59.3C195 57.0763 195.001 55.3484 194.888 53.9642C194.774 52.5683 194.539 51.4342 194.019 50.4141L192.237 51.3221C192.589 52.0132 192.79 52.8549 192.894 54.127C192.999 55.4109 193 57.0433 193 59.3H195ZM189.178 48.263C190.495 48.9341 191.566 50.0049 192.237 51.3221L194.019 50.4141C193.156 48.7206 191.779 47.3438 190.086 46.4809L189.178 48.263ZM66.8 45.5C64.5763 45.5 62.8484 45.4992 61.4642 45.6123C60.0683 45.7264 58.9342 45.9612 57.9141 46.4809L58.8221 48.263C59.5132 47.9108 60.3549 47.7096 61.627 47.6057C62.9109 47.5008 64.5433 47.5 66.8 47.5V45.5ZM55 59.3C55 57.0433 55.0008 55.4109 55.1057 54.127C55.2096 52.8549 55.4108 52.0132 55.763 51.3221L53.9809 50.4141C53.4612 51.4342 53.2264 52.5683 53.1123 53.9642C52.9992 55.3484 53 57.0763 53 59.3H55ZM57.9141 46.4809C56.2206 47.3438 54.8438 48.7206 53.9809 50.4141L55.763 51.3221C56.4341 50.0049 57.5049 48.9341 58.8221 48.263L57.9141 46.4809Z" fill="url(#paint4_linear_1370_22428)" mask="url(#path-8-outside-1_1370_22428)"/>
<path d="M58.3681 73.6281L57.9141 74.5191L58.3681 73.6281ZM193.128 70.1319L192.237 69.6779L193.128 70.1319ZM189.632 73.6281L190.086 74.5191L189.632 73.6281ZM189.632 47.3719L189.178 48.263L189.632 47.3719ZM58.3681 47.3719L57.9141 46.4809L58.3681 47.3719ZM54.8719 50.8681L53.9809 50.4141L54.8719 50.8681ZM66.8 47.5H181.2V45.5H66.8V47.5ZM193 59.3V61.7H195V59.3H193ZM181.2 73.5H66.8V75.5H181.2V73.5ZM55 61.7V59.3H53V61.7H55ZM66.8 73.5C64.5433 73.5 62.9109 73.4992 61.627 73.3943C60.3549 73.2904 59.5132 73.0892 58.8221 72.737L57.9141 74.5191C58.9342 75.0388 60.0683 75.2736 61.4642 75.3877C62.8484 75.5008 64.5763 75.5 66.8 75.5V73.5ZM53 61.7C53 63.9237 52.9992 65.6516 53.1123 67.0358C53.2264 68.4317 53.4612 69.5658 53.9809 70.5859L55.763 69.6779C55.4108 68.9868 55.2096 68.1451 55.1057 66.873C55.0008 65.5891 55 63.9567 55 61.7H53ZM58.8221 72.737C57.5049 72.0659 56.4341 70.9951 55.763 69.6779L53.9809 70.5859C54.8438 72.2794 56.2206 73.6562 57.9141 74.5191L58.8221 72.737ZM193 61.7C193 63.9567 192.999 65.5891 192.894 66.873C192.79 68.1451 192.589 68.9868 192.237 69.6779L194.019 70.5859C194.539 69.5658 194.774 68.4317 194.888 67.0358C195.001 65.6516 195 63.9237 195 61.7H193ZM181.2 75.5C183.424 75.5 185.152 75.5008 186.536 75.3877C187.932 75.2736 189.066 75.0388 190.086 74.5191L189.178 72.737C188.487 73.0892 187.645 73.2904 186.373 73.3943C185.089 73.4992 183.457 73.5 181.2 73.5V75.5ZM192.237 69.6779C191.566 70.9951 190.495 72.0659 189.178 72.737L190.086 74.5191C191.779 73.6562 193.156 72.2794 194.019 70.5859L192.237 69.6779ZM181.2 47.5C183.457 47.5 185.089 47.5008 186.373 47.6057C187.645 47.7096 188.487 47.9108 189.178 48.263L190.086 46.4809C189.066 45.9612 187.932 45.7264 186.536 45.6123C185.152 45.4992 183.424 45.5 181.2 45.5V47.5ZM195 59.3C195 57.0763 195.001 55.3484 194.888 53.9642C194.774 52.5683 194.539 51.4342 194.019 50.4141L192.237 51.3221C192.589 52.0132 192.79 52.8549 192.894 54.127C192.999 55.4109 193 57.0433 193 59.3H195ZM189.178 48.263C190.495 48.9341 191.566 50.0049 192.237 51.3221L194.019 50.4141C193.156 48.7206 191.779 47.3438 190.086 46.4809L189.178 48.263ZM66.8 45.5C64.5763 45.5 62.8484 45.4992 61.4642 45.6123C60.0683 45.7264 58.9342 45.9612 57.9141 46.4809L58.8221 48.263C59.5132 47.9108 60.3549 47.7096 61.627 47.6057C62.9109 47.5008 64.5433 47.5 66.8 47.5V45.5ZM55 59.3C55 57.0433 55.0008 55.4109 55.1057 54.127C55.2096 52.8549 55.4108 52.0132 55.763 51.3221L53.9809 50.4141C53.4612 51.4342 53.2264 52.5683 53.1123 53.9642C52.9992 55.3484 53 57.0763 53 59.3H55ZM57.9141 46.4809C56.2206 47.3438 54.8438 48.7206 53.9809 50.4141L55.763 51.3221C56.4341 50.0049 57.5049 48.9341 58.8221 48.263L57.9141 46.4809Z" fill="url(#paint5_linear_1370_22428)" fill-opacity="0.6" mask="url(#path-8-outside-1_1370_22428)"/>
<path d="M70.2074 58.6108H68.8778C68.8267 58.3267 68.7315 58.0767 68.5923 57.8608C68.4531 57.6449 68.2827 57.4616 68.081 57.3111C67.8793 57.1605 67.6534 57.0469 67.4034 56.9702C67.1563 56.8935 66.8935 56.8551 66.6151 56.8551C66.1122 56.8551 65.6619 56.9815 65.2642 57.2344C64.8693 57.4872 64.5568 57.858 64.3267 58.3466C64.0994 58.8352 63.9858 59.4318 63.9858 60.1364C63.9858 60.8466 64.0994 61.446 64.3267 61.9347C64.5568 62.4233 64.8707 62.7926 65.2685 63.0426C65.6662 63.2926 66.1136 63.4176 66.6108 63.4176C66.8864 63.4176 67.1477 63.3807 67.3949 63.3068C67.6449 63.2301 67.8707 63.1179 68.0724 62.9702C68.2741 62.8224 68.4446 62.642 68.5838 62.429C68.7259 62.2131 68.8239 61.9659 68.8778 61.6875L70.2074 61.6918C70.1364 62.1207 69.9986 62.5156 69.794 62.8764C69.5923 63.2344 69.3324 63.544 69.0142 63.8054C68.6989 64.0639 68.3381 64.2642 67.9318 64.4062C67.5256 64.5483 67.0824 64.6193 66.6023 64.6193C65.8466 64.6193 65.1733 64.4403 64.5824 64.0824C63.9915 63.7216 63.5256 63.206 63.1847 62.5355C62.8466 61.8651 62.6776 61.0653 62.6776 60.1364C62.6776 59.2045 62.848 58.4048 63.1889 57.7372C63.5298 57.0668 63.9957 56.5526 64.5866 56.1946C65.1776 55.8338 65.8494 55.6534 66.6023 55.6534C67.0653 55.6534 67.4972 55.7202 67.8977 55.8537C68.3011 55.9844 68.6634 56.1776 68.9844 56.4332C69.3054 56.6861 69.571 56.9957 69.7812 57.3622C69.9915 57.7259 70.1335 58.142 70.2074 58.6108ZM74.3179 64.6321C73.7042 64.6321 73.1687 64.4915 72.7113 64.2102C72.2539 63.929 71.8988 63.5355 71.646 63.0298C71.3931 62.5241 71.2667 61.9332 71.2667 61.2571C71.2667 60.5781 71.3931 59.9844 71.646 59.4759C71.8988 58.9673 72.2539 58.5724 72.7113 58.2912C73.1687 58.0099 73.7042 57.8693 74.3179 57.8693C74.9315 57.8693 75.467 58.0099 75.9244 58.2912C76.3818 58.5724 76.7369 58.9673 76.9897 59.4759C77.2426 59.9844 77.369 60.5781 77.369 61.2571C77.369 61.9332 77.2426 62.5241 76.9897 63.0298C76.7369 63.5355 76.3818 63.929 75.9244 64.2102C75.467 64.4915 74.9315 64.6321 74.3179 64.6321ZM74.3221 63.5625C74.7198 63.5625 75.0494 63.4574 75.3108 63.2472C75.5721 63.0369 75.7653 62.7571 75.8903 62.4077C76.0181 62.0582 76.0821 61.6733 76.0821 61.2528C76.0821 60.8352 76.0181 60.4517 75.8903 60.1023C75.7653 59.75 75.5721 59.4673 75.3108 59.2543C75.0494 59.0412 74.7198 58.9347 74.3221 58.9347C73.9215 58.9347 73.5892 59.0412 73.325 59.2543C73.0636 59.4673 72.869 59.75 72.7412 60.1023C72.6162 60.4517 72.5537 60.8352 72.5537 61.2528C72.5537 61.6733 72.6162 62.0582 72.7412 62.4077C72.869 62.7571 73.0636 63.0369 73.325 63.2472C73.5892 63.4574 73.9215 63.5625 74.3221 63.5625ZM79.9454 60.6136V64.5H78.6712V57.9545H79.8942V59.0199H79.9752C80.1258 58.6733 80.3616 58.3949 80.6826 58.1847C81.0064 57.9744 81.4141 57.8693 81.9056 57.8693C82.3516 57.8693 82.7422 57.9631 83.0775 58.1506C83.4127 58.3352 83.6726 58.6108 83.8573 58.9773C84.042 59.3437 84.1343 59.7969 84.1343 60.3366V64.5H82.8601V60.4901C82.8601 60.0156 82.7366 59.6449 82.4894 59.3778C82.2422 59.108 81.9028 58.973 81.4709 58.973C81.1755 58.973 80.9127 59.0369 80.6826 59.1648C80.4553 59.2926 80.2749 59.4801 80.1414 59.7273C80.0107 59.9716 79.9454 60.267 79.9454 60.6136ZM86.9972 60.6136V64.5H85.7231V57.9545H86.9461V59.0199H87.0271C87.1776 58.6733 87.4134 58.3949 87.7345 58.1847C88.0583 57.9744 88.466 57.8693 88.9575 57.8693C89.4035 57.8693 89.7941 57.9631 90.1293 58.1506C90.4646 58.3352 90.7245 58.6108 90.9092 58.9773C91.0938 59.3437 91.1862 59.7969 91.1862 60.3366V64.5H89.912V60.4901C89.912 60.0156 89.7884 59.6449 89.5413 59.3778C89.2941 59.108 88.9546 58.973 88.5228 58.973C88.2274 58.973 87.9646 59.0369 87.7345 59.1648C87.5072 59.2926 87.3268 59.4801 87.1933 59.7273C87.0626 59.9716 86.9972 60.267 86.9972 60.6136ZM95.596 64.6321C94.9511 64.6321 94.3957 64.4943 93.9298 64.2188C93.4667 63.9403 93.1088 63.5497 92.8559 63.0469C92.6059 62.5412 92.4809 61.9489 92.4809 61.2699C92.4809 60.5994 92.6059 60.0085 92.8559 59.4972C93.1088 58.9858 93.4611 58.5866 93.9128 58.2997C94.3673 58.0128 94.8986 57.8693 95.5065 57.8693C95.8758 57.8693 96.2338 57.9304 96.5804 58.0526C96.927 58.1747 97.238 58.3665 97.5136 58.6278C97.7892 58.8892 98.0065 59.2287 98.1656 59.6463C98.3247 60.0611 98.4042 60.5653 98.4042 61.1591V61.6108H93.2011V60.6562H97.1557C97.1557 60.321 97.0875 60.0241 96.9511 59.7656C96.8147 59.5043 96.623 59.2983 96.3758 59.1477C96.1315 58.9972 95.8446 58.9219 95.515 58.9219C95.1571 58.9219 94.8446 59.0099 94.5775 59.1861C94.3133 59.3594 94.1088 59.5866 93.9639 59.8679C93.8218 60.1463 93.7508 60.4489 93.7508 60.7756V61.5213C93.7508 61.9588 93.8275 62.331 93.9809 62.6378C94.1372 62.9446 94.3545 63.179 94.6329 63.3409C94.9113 63.5 95.2366 63.5795 95.6088 63.5795C95.8503 63.5795 96.0704 63.5455 96.2693 63.4773C96.4682 63.4062 96.64 63.3011 96.7849 63.1619C96.9298 63.0227 97.0406 62.8509 97.1173 62.6463L98.3233 62.8636C98.2267 63.2187 98.0534 63.5298 97.8034 63.7969C97.5562 64.0611 97.2451 64.267 96.8701 64.4148C96.498 64.5597 96.0733 64.6321 95.596 64.6321ZM102.455 64.6321C101.822 64.6321 101.276 64.4886 100.819 64.2017C100.364 63.9119 100.015 63.5128 99.7704 63.0043C99.5261 62.4957 99.4039 61.9134 99.4039 61.2571C99.4039 60.5923 99.5289 60.0057 99.7789 59.4972C100.029 58.9858 100.381 58.5866 100.836 58.2997C101.29 58.0128 101.826 57.8693 102.442 57.8693C102.939 57.8693 103.383 57.9616 103.772 58.1463C104.161 58.3281 104.475 58.5838 104.714 58.9134C104.955 59.2429 105.099 59.6278 105.144 60.0682H103.904C103.836 59.7614 103.679 59.4972 103.435 59.2756C103.194 59.054 102.87 58.9432 102.464 58.9432C102.108 58.9432 101.797 59.0369 101.53 59.2244C101.266 59.4091 101.06 59.6733 100.912 60.017C100.765 60.358 100.691 60.7614 100.691 61.2273C100.691 61.7045 100.763 62.1165 100.908 62.4631C101.053 62.8097 101.258 63.0781 101.522 63.2685C101.789 63.4588 102.103 63.554 102.464 63.554C102.705 63.554 102.924 63.5099 103.12 63.4219C103.319 63.331 103.485 63.2017 103.618 63.0341C103.755 62.8665 103.85 62.6648 103.904 62.429H105.144C105.099 62.8523 104.961 63.2301 104.731 63.5625C104.5 63.8949 104.192 64.1562 103.806 64.3466C103.422 64.5369 102.972 64.6321 102.455 64.6321ZM109.442 57.9545V58.9773H105.867V57.9545H109.442ZM106.825 56.3864H108.1V62.5781C108.1 62.8253 108.137 63.0114 108.21 63.1364C108.284 63.2585 108.379 63.3423 108.496 63.3878C108.615 63.4304 108.744 63.4517 108.884 63.4517C108.986 63.4517 109.075 63.4446 109.152 63.4304C109.229 63.4162 109.289 63.4048 109.331 63.3963L109.561 64.4489C109.487 64.4773 109.382 64.5057 109.246 64.5341C109.11 64.5653 108.939 64.5824 108.735 64.5852C108.399 64.5909 108.087 64.5312 107.797 64.4062C107.507 64.2812 107.273 64.0881 107.094 63.8267C106.915 63.5653 106.825 63.2372 106.825 62.8423V56.3864ZM116.843 57.9545V58.9773H113.267V57.9545H116.843ZM114.226 56.3864H115.5V62.5781C115.5 62.8253 115.537 63.0114 115.611 63.1364C115.685 63.2585 115.78 63.3423 115.897 63.3878C116.016 63.4304 116.145 63.4517 116.284 63.4517C116.387 63.4517 116.476 63.4446 116.553 63.4304C116.629 63.4162 116.689 63.4048 116.732 63.3963L116.962 64.4489C116.888 64.4773 116.783 64.5057 116.647 64.5341C116.51 64.5653 116.34 64.5824 116.135 64.5852C115.8 64.5909 115.487 64.5312 115.198 64.4062C114.908 64.2812 114.674 64.0881 114.495 63.8267C114.316 63.5653 114.226 63.2372 114.226 62.8423V56.3864ZM120.819 64.6321C120.205 64.6321 119.67 64.4915 119.212 64.2102C118.755 63.929 118.4 63.5355 118.147 63.0298C117.894 62.5241 117.768 61.9332 117.768 61.2571C117.768 60.5781 117.894 59.9844 118.147 59.4759C118.4 58.9673 118.755 58.5724 119.212 58.2912C119.67 58.0099 120.205 57.8693 120.819 57.8693C121.432 57.8693 121.968 58.0099 122.425 58.2912C122.883 58.5724 123.238 58.9673 123.491 59.4759C123.744 59.9844 123.87 60.5781 123.87 61.2571C123.87 61.9332 123.744 62.5241 123.491 63.0298C123.238 63.5355 122.883 63.929 122.425 64.2102C121.968 64.4915 121.432 64.6321 120.819 64.6321ZM120.823 63.5625C121.221 63.5625 121.55 63.4574 121.812 63.2472C122.073 63.0369 122.266 62.7571 122.391 62.4077C122.519 62.0582 122.583 61.6733 122.583 61.2528C122.583 60.8352 122.519 60.4517 122.391 60.1023C122.266 59.75 122.073 59.4673 121.812 59.2543C121.55 59.0412 121.221 58.9347 120.823 58.9347C120.422 58.9347 120.09 59.0412 119.826 59.2543C119.565 59.4673 119.37 59.75 119.242 60.1023C119.117 60.4517 119.055 60.8352 119.055 61.2528C119.055 61.6733 119.117 62.0582 119.242 62.4077C119.37 62.7571 119.565 63.0369 119.826 63.2472C120.09 63.4574 120.422 63.5625 120.823 63.5625ZM134.236 58.5298C134.154 58.2713 134.043 58.0398 133.904 57.8352C133.768 57.6278 133.604 57.4517 133.414 57.3068C133.224 57.1591 133.006 57.0469 132.762 56.9702C132.521 56.8935 132.255 56.8551 131.965 56.8551C131.474 56.8551 131.03 56.9815 130.636 57.2344C130.241 57.4872 129.928 57.858 129.698 58.3466C129.471 58.8324 129.357 59.4276 129.357 60.1321C129.357 60.8395 129.472 61.4375 129.702 61.9261C129.932 62.4148 130.248 62.7855 130.648 63.0384C131.049 63.2912 131.505 63.4176 132.016 63.4176C132.491 63.4176 132.904 63.321 133.256 63.1278C133.611 62.9347 133.886 62.6619 134.079 62.3097C134.275 61.9545 134.373 61.5369 134.373 61.0568L134.714 61.1207H132.217V60.0341H135.647V61.027C135.647 61.7599 135.491 62.3963 135.178 62.9361C134.869 63.473 134.44 63.8878 133.891 64.1804C133.346 64.473 132.721 64.6193 132.016 64.6193C131.227 64.6193 130.533 64.4375 129.937 64.0739C129.343 63.7102 128.88 63.1946 128.548 62.527C128.215 61.8565 128.049 61.0611 128.049 60.1406C128.049 59.4446 128.146 58.8196 128.339 58.2656C128.532 57.7116 128.803 57.2415 129.153 56.8551C129.505 56.4659 129.918 56.169 130.393 55.9645C130.87 55.7571 131.391 55.6534 131.957 55.6534C132.428 55.6534 132.867 55.723 133.273 55.8622C133.682 56.0014 134.046 56.1989 134.364 56.4545C134.685 56.7102 134.951 57.0142 135.161 57.3665C135.371 57.7159 135.513 58.1037 135.587 58.5298H134.236ZM137.506 64.5V57.9545H138.781V64.5H137.506ZM138.15 56.9446C137.928 56.9446 137.738 56.8707 137.579 56.723C137.423 56.5724 137.344 56.3935 137.344 56.1861C137.344 55.9759 137.423 55.7969 137.579 55.6491C137.738 55.4986 137.928 55.4233 138.15 55.4233C138.371 55.4233 138.56 55.4986 138.717 55.6491C138.876 55.7969 138.955 55.9759 138.955 56.1861C138.955 56.3935 138.876 56.5724 138.717 56.723C138.56 56.8707 138.371 56.9446 138.15 56.9446ZM143.43 57.9545V58.9773H139.855V57.9545H143.43ZM140.814 56.3864H142.088V62.5781C142.088 62.8253 142.125 63.0114 142.199 63.1364C142.272 63.2585 142.368 63.3423 142.484 63.3878C142.603 63.4304 142.733 63.4517 142.872 63.4517C142.974 63.4517 143.064 63.4446 143.14 63.4304C143.217 63.4162 143.277 63.4048 143.319 63.3963L143.549 64.4489C143.476 64.4773 143.37 64.5057 143.234 64.5341C143.098 64.5653 142.927 64.5824 142.723 64.5852C142.387 64.5909 142.075 64.5312 141.785 64.4062C141.495 64.2812 141.261 64.0881 141.082 63.8267C140.903 63.5653 140.814 63.2372 140.814 62.8423V56.3864ZM144.962 64.5V55.7727H146.279V59.5653H150.63V55.7727H151.951V64.5H150.63V60.6946H146.279V64.5H144.962ZM157.793 61.7855V57.9545H159.071V64.5H157.818V63.3665H157.75C157.599 63.7159 157.358 64.0071 157.026 64.2401C156.696 64.4702 156.286 64.5852 155.794 64.5852C155.374 64.5852 155.001 64.4929 154.678 64.3082C154.357 64.1207 154.104 63.8438 153.919 63.4773C153.737 63.1108 153.646 62.6577 153.646 62.1179V57.9545H154.921V61.9645C154.921 62.4105 155.044 62.7656 155.291 63.0298C155.538 63.294 155.859 63.4261 156.254 63.4261C156.493 63.4261 156.73 63.3665 156.966 63.2472C157.205 63.1278 157.402 62.9474 157.558 62.706C157.717 62.4645 157.796 62.1577 157.793 61.7855ZM160.765 64.5V55.7727H162.04V59.0156H162.116C162.19 58.8793 162.297 58.7216 162.436 58.5426C162.575 58.3636 162.768 58.2074 163.015 58.0739C163.263 57.9375 163.589 57.8693 163.995 57.8693C164.524 57.8693 164.995 58.0028 165.41 58.2699C165.825 58.5369 166.15 58.9219 166.386 59.4247C166.625 59.9276 166.744 60.5327 166.744 61.2401C166.744 61.9474 166.626 62.554 166.39 63.0597C166.155 63.5625 165.831 63.9503 165.419 64.223C165.007 64.4929 164.537 64.6278 164.008 64.6278C163.611 64.6278 163.285 64.5611 163.032 64.4276C162.782 64.294 162.586 64.1378 162.444 63.9588C162.302 63.7798 162.193 63.6207 162.116 63.4815H162.01V64.5H160.765ZM162.014 61.2273C162.014 61.6875 162.081 62.0909 162.214 62.4375C162.348 62.7841 162.541 63.0554 162.794 63.2514C163.047 63.4446 163.356 63.5412 163.723 63.5412C164.103 63.5412 164.422 63.4403 164.677 63.2386C164.933 63.0341 165.126 62.7571 165.257 62.4077C165.39 62.0582 165.457 61.6648 165.457 61.2273C165.457 60.7955 165.392 60.4077 165.261 60.0639C165.133 59.7202 164.94 59.4489 164.682 59.25C164.426 59.0511 164.106 58.9517 163.723 58.9517C163.353 58.9517 163.041 59.0469 162.785 59.2372C162.532 59.4276 162.341 59.6932 162.21 60.0341C162.079 60.375 162.014 60.7727 162.014 61.2273Z" fill="#818186"/>
<path fill-rule="evenodd" clip-rule="evenodd" d="M180 54.5C176.686 54.5 174 57.254 174 60.6522C174 63.3699 175.719 65.6761 178.103 66.4893C178.403 66.5458 178.513 66.356 178.513 66.1926C178.513 66.0471 178.508 65.6595 178.505 65.1467C176.836 65.5183 176.483 64.3219 176.483 64.3219C176.211 63.6107 175.817 63.4215 175.817 63.4215C175.273 63.0407 175.859 63.0481 175.859 63.0481C176.461 63.0911 176.777 63.6819 176.777 63.6819C177.313 64.6216 178.182 64.3501 178.523 64.1929C178.579 63.7955 178.733 63.5247 178.905 63.3711C177.573 63.2157 176.172 62.6876 176.172 60.3304C176.172 59.6591 176.406 59.1094 176.789 58.6795C176.728 58.5241 176.522 57.8982 176.848 57.0519C176.848 57.0519 177.352 56.8861 178.498 57.682C178.988 57.5454 179.493 57.4758 180 57.4751C180.51 57.4775 181.023 57.5457 181.502 57.682C182.648 56.8861 183.151 57.0513 183.151 57.0513C183.478 57.8982 183.272 58.5241 183.211 58.6795C183.595 59.1094 183.827 59.6591 183.827 60.3304C183.827 62.6937 182.424 63.2139 181.088 63.3662C181.303 63.556 181.495 63.9313 181.495 64.5055C181.495 65.3273 181.487 65.9912 181.487 66.1926C181.487 66.3572 181.595 66.5489 181.9 66.4887C183.095 66.0785 184.134 65.2943 184.869 64.247C185.605 63.1996 186.001 61.9421 186 60.6522C186 57.254 183.313 54.5 180 54.5Z" fill="#C3C3C6"/>
<path d="M124.55 104V123.6" stroke="#414146"/>
<path d="M124.5 16V40.5" stroke="#414146"/>
<defs>
<filter id="filter0_f_1370_22428" x="54.3614" y="45.7484" width="92.3367" height="35.6349" filterUnits="userSpaceOnUse" color-interpolation-filters="sRGB">
<feFlood flood-opacity="0" result="BackgroundImageFix"/>
<feBlend mode="normal" in="SourceGraphic" in2="BackgroundImageFix" result="shape"/>
<feGaussianBlur stdDeviation="1.8" result="effect1_foregroundBlur_1370_22428"/>
</filter>
<filter id="filter1_f_1370_22428" x="44.7955" y="13.8518" width="158.82" height="80.6177" filterUnits="userSpaceOnUse" color-interpolation-filters="sRGB">
<feFlood flood-opacity="0" result="BackgroundImageFix"/>
<feBlend mode="normal" in="SourceGraphic" in2="BackgroundImageFix" result="shape"/>
<feGaussianBlur stdDeviation="1.8" result="effect1_foregroundBlur_1370_22428"/>
</filter>
<filter id="filter2_f_1370_22428" x="34.822" y="14.47" width="51.9923" height="60.9421" filterUnits="userSpaceOnUse" color-interpolation-filters="sRGB">
<feFlood flood-opacity="0" result="BackgroundImageFix"/>
<feBlend mode="normal" in="SourceGraphic" in2="BackgroundImageFix" result="shape"/>
<feGaussianBlur stdDeviation="3.6" result="effect1_foregroundBlur_1370_22428"/>
</filter>
<filter id="filter3_f_1370_22428" x="25.6408" y="5.87593" width="93.4493" height="94.7619" filterUnits="userSpaceOnUse" color-interpolation-filters="sRGB">
<feFlood flood-opacity="0" result="BackgroundImageFix"/>
<feBlend mode="normal" in="SourceGraphic" in2="BackgroundImageFix" result="shape"/>
<feGaussianBlur stdDeviation="9.6" result="effect1_foregroundBlur_1370_22428"/>
</filter>
<radialGradient id="paint0_radial_1370_22428" cx="0" cy="0" r="1" gradientUnits="userSpaceOnUse" gradientTransform="translate(78.7671 63.524) rotate(10.1017) scale(39.838 13.1072)">
<stop stop-color="#F02E65"/>
<stop offset="1" stop-color="#F02E65" stop-opacity="0"/>
</radialGradient>
<radialGradient id="paint1_radial_1370_22428" cx="0" cy="0" r="1" gradientUnits="userSpaceOnUse" gradientTransform="translate(124.206 54.1606) rotate(-179.84) scale(75.8104 36.7081)">
<stop stop-color="#F02E65"/>
<stop offset="1" stop-color="#F02E65" stop-opacity="0"/>
</radialGradient>
<radialGradient id="paint2_radial_1370_22428" cx="0" cy="0" r="1" gradientUnits="userSpaceOnUse" gradientTransform="translate(54.6447 61.463) rotate(-131.445) scale(15.5361 6.99108)">
<stop stop-color="#FE9567"/>
<stop offset="1" stop-color="#F97066" stop-opacity="0"/>
</radialGradient>
<radialGradient id="paint3_radial_1370_22428" cx="0" cy="0" r="1" gradientUnits="userSpaceOnUse" gradientTransform="translate(62.0092 47.4759) rotate(67.3466) scale(24.8685 25.4468)">
<stop stop-color="#F02E65"/>
<stop offset="1" stop-color="#F02E65" stop-opacity="0"/>
</radialGradient>
<linearGradient id="paint4_linear_1370_22428" x1="124" y1="46.5" x2="124" y2="74.5" gradientUnits="userSpaceOnUse">
<stop stop-color="#D8D8DB" stop-opacity="0.24"/>
<stop offset="1" stop-color="#E4E4E7" stop-opacity="0.5"/>
</linearGradient>
<linearGradient id="paint5_linear_1370_22428" x1="194" y1="54" x2="177.573" y2="124.223" gradientUnits="userSpaceOnUse">
<stop stop-color="#414146"/>
<stop offset="0.885635" stop-color="#FD366E"/>
<stop offset="1" stop-color="#FE5E56"/>
</linearGradient>
</defs>
</svg>
