<svg width="248" height="148" viewBox="0 0 248 148" fill="none" xmlns="http://www.w3.org/2000/svg">
<g clip-path="url(#clip0_1321_46934)">
<path d="M0 4C0 1.79086 1.79086 0 4 0H244C246.209 0 248 1.79086 248 4V144C248 146.209 246.209 148 244 148H4C1.79086 148 0 146.209 0 144V4Z" fill="white"/>
<g filter="url(#filter0_f_1321_46934)">
<path d="M143.477 125.611C114.09 125.517 90.2665 116.38 90.2665 105.202C90.2665 94.024 114.09 85.0384 143.477 85.1321C172.864 85.2257 196.688 94.3632 196.688 105.541C196.688 116.719 172.864 125.705 143.477 125.611Z" fill="url(#paint0_radial_1321_46934)" fill-opacity="0.16"/>
</g>
<g filter="url(#filter1_f_1321_46934)">
<path d="M173.071 144.24C120.735 144.073 78.3088 120.541 78.3088 91.68C78.3088 62.8186 120.735 39.557 173.071 39.7238C225.407 39.8906 267.834 63.4226 267.834 92.284C267.834 121.145 225.407 144.407 173.071 144.24Z" fill="url(#paint1_radial_1321_46934)" fill-opacity="0.1"/>
</g>
<g filter="url(#filter2_f_1321_46934)">
<path d="M85.7792 85.7538C86.288 98.26 124.776 106.061 122.21 110.049C119.643 114.037 83.5313 123.684 78.105 114.178C72.6787 104.671 76.4801 56.3539 79.0469 52.3659C81.6138 48.3778 80.3529 76.2473 85.7792 85.7538Z" fill="url(#paint2_radial_1321_46934)" fill-opacity="0.2"/>
</g>
<g filter="url(#filter3_f_1321_46934)">
<path d="M84.9116 127.39C70.9608 118.446 70.11 94.767 83.0113 74.5015C95.9125 54.2359 117.68 45.0577 131.631 54.0015C145.582 62.9452 146.433 86.6241 133.531 106.89C120.63 127.155 98.8623 136.333 84.9116 127.39Z" fill="url(#paint3_radial_1321_46934)" fill-opacity="0.08"/>
</g>
<g filter="url(#filter4_bd_1321_46934)">
<rect x="20.2505" y="14.515" width="156.816" height="98.208" rx="8.448" fill="white" fill-opacity="0.32" shape-rendering="crispEdges"/>
<rect x="20.7505" y="15.015" width="155.816" height="97.208" rx="7.948" stroke="#19191C" stroke-opacity="0.03" shape-rendering="crispEdges"/>
</g>
<path d="M27.0864 25.075C27.0864 23.0183 28.7537 21.351 30.8104 21.351H166.506C168.563 21.351 170.23 23.0183 170.23 25.075V102.163C170.23 104.22 168.563 105.887 166.506 105.887H30.8104C28.7537 105.887 27.0864 104.22 27.0864 102.163V25.075Z" fill="white"/>
<path d="M27.0864 25.075C27.0864 23.0183 28.7537 21.351 30.8104 21.351H166.506C168.563 21.351 170.23 23.0183 170.23 25.075V102.163C170.23 104.22 168.563 105.887 166.506 105.887H30.8104C28.7537 105.887 27.0864 104.22 27.0864 102.163V25.075Z" stroke="#EDEDF0"/>
<path d="M35.1069 53.0995V45.4195H37.8444C38.4419 45.4195 38.9369 45.5283 39.3294 45.7458C39.7219 45.9632 40.0157 46.2608 40.2107 46.6383C40.4057 47.0133 40.5032 47.4358 40.5032 47.9058C40.5032 48.3783 40.4044 48.8033 40.2069 49.1808C40.0119 49.5558 39.7169 49.8533 39.3219 50.0733C38.9294 50.2908 38.4357 50.3995 37.8407 50.3995H35.9582V49.417H37.7357C38.1132 49.417 38.4194 49.352 38.6544 49.222C38.8894 49.0895 39.0619 48.9095 39.1719 48.682C39.2819 48.4545 39.3369 48.1958 39.3369 47.9058C39.3369 47.6158 39.2819 47.3583 39.1719 47.1333C39.0619 46.9083 38.8882 46.732 38.6507 46.6045C38.4157 46.477 38.1057 46.4133 37.7207 46.4133H36.2657V53.0995H35.1069ZM44.0201 53.2158C43.4801 53.2158 43.0088 53.092 42.6063 52.8445C42.2038 52.597 41.8913 52.2508 41.6688 51.8058C41.4463 51.3608 41.3351 50.8408 41.3351 50.2458C41.3351 49.6483 41.4463 49.1258 41.6688 48.6783C41.8913 48.2308 42.2038 47.8833 42.6063 47.6358C43.0088 47.3883 43.4801 47.2645 44.0201 47.2645C44.5601 47.2645 45.0313 47.3883 45.4338 47.6358C45.8363 47.8833 46.1488 48.2308 46.3713 48.6783C46.5938 49.1258 46.7051 49.6483 46.7051 50.2458C46.7051 50.8408 46.5938 51.3608 46.3713 51.8058C46.1488 52.2508 45.8363 52.597 45.4338 52.8445C45.0313 53.092 44.5601 53.2158 44.0201 53.2158ZM44.0238 52.2745C44.3738 52.2745 44.6638 52.182 44.8938 51.997C45.1238 51.812 45.2938 51.5658 45.4038 51.2583C45.5163 50.9508 45.5726 50.612 45.5726 50.242C45.5726 49.8745 45.5163 49.537 45.4038 49.2295C45.2938 48.9195 45.1238 48.6708 44.8938 48.4833C44.6638 48.2958 44.3738 48.202 44.0238 48.202C43.6713 48.202 43.3788 48.2958 43.1463 48.4833C42.9163 48.6708 42.7451 48.9195 42.6326 49.2295C42.5226 49.537 42.4676 49.8745 42.4676 50.242C42.4676 50.612 42.5226 50.9508 42.6326 51.2583C42.7451 51.5658 42.9163 51.812 43.1463 51.997C43.3788 52.182 43.6713 52.2745 44.0238 52.2745ZM47.851 53.0995V47.3395H48.9348V48.2545H48.9948C49.0998 47.9445 49.2848 47.7008 49.5498 47.5233C49.8173 47.3433 50.1198 47.2533 50.4573 47.2533C50.5273 47.2533 50.6098 47.2558 50.7048 47.2608C50.8023 47.2658 50.8785 47.272 50.9335 47.2795V48.352C50.8885 48.3395 50.8085 48.3258 50.6935 48.3108C50.5785 48.2933 50.4635 48.2845 50.3485 48.2845C50.0835 48.2845 49.8473 48.3408 49.6398 48.4533C49.4348 48.5633 49.2723 48.717 49.1523 48.9145C49.0323 49.1095 48.9723 49.332 48.9723 49.582V53.0995H47.851ZM54.8273 47.3395V48.2395H51.6811V47.3395H54.8273ZM52.5248 45.9595H53.6461V51.4083C53.6461 51.6258 53.6786 51.7895 53.7436 51.8995C53.8086 52.007 53.8923 52.0808 53.9948 52.1208C54.0998 52.1583 54.2136 52.177 54.3361 52.177C54.4261 52.177 54.5048 52.1708 54.5723 52.1583C54.6398 52.1458 54.6923 52.1358 54.7298 52.1283L54.9323 53.0545C54.8673 53.0795 54.7748 53.1045 54.6548 53.1295C54.5348 53.157 54.3848 53.172 54.2048 53.1745C53.9098 53.1795 53.6348 53.127 53.3798 53.017C53.1248 52.907 52.9186 52.737 52.7611 52.507C52.6036 52.277 52.5248 51.9883 52.5248 51.6408V45.9595ZM58.7033 47.3395V48.2395H55.4483V47.3395H58.7033ZM56.3408 53.0995V46.672C56.3408 46.312 56.4195 46.0133 56.577 45.7758C56.7345 45.5358 56.9433 45.357 57.2033 45.2395C57.4633 45.1195 57.7458 45.0595 58.0508 45.0595C58.2758 45.0595 58.4683 45.0782 58.6283 45.1158C58.7883 45.1508 58.907 45.1833 58.9845 45.2133L58.722 46.1208C58.6695 46.1058 58.602 46.0883 58.5195 46.0683C58.437 46.0458 58.337 46.0345 58.2195 46.0345C57.947 46.0345 57.752 46.102 57.6345 46.237C57.5195 46.372 57.462 46.567 57.462 46.822V53.0995H56.3408ZM61.9539 53.2158C61.4139 53.2158 60.9427 53.092 60.5402 52.8445C60.1377 52.597 59.8252 52.2508 59.6027 51.8058C59.3802 51.3608 59.2689 50.8408 59.2689 50.2458C59.2689 49.6483 59.3802 49.1258 59.6027 48.6783C59.8252 48.2308 60.1377 47.8833 60.5402 47.6358C60.9427 47.3883 61.4139 47.2645 61.9539 47.2645C62.4939 47.2645 62.9652 47.3883 63.3677 47.6358C63.7702 47.8833 64.0827 48.2308 64.3052 48.6783C64.5277 49.1258 64.6389 49.6483 64.6389 50.2458C64.6389 50.8408 64.5277 51.3608 64.3052 51.8058C64.0827 52.2508 63.7702 52.597 63.3677 52.8445C62.9652 53.092 62.4939 53.2158 61.9539 53.2158ZM61.9577 52.2745C62.3077 52.2745 62.5977 52.182 62.8277 51.997C63.0577 51.812 63.2277 51.5658 63.3377 51.2583C63.4502 50.9508 63.5064 50.612 63.5064 50.242C63.5064 49.8745 63.4502 49.537 63.3377 49.2295C63.2277 48.9195 63.0577 48.6708 62.8277 48.4833C62.5977 48.2958 62.3077 48.202 61.9577 48.202C61.6052 48.202 61.3127 48.2958 61.0802 48.4833C60.8502 48.6708 60.6789 48.9195 60.5664 49.2295C60.4564 49.537 60.4014 49.8745 60.4014 50.242C60.4014 50.612 60.4564 50.9508 60.5664 51.2583C60.6789 51.5658 60.8502 51.812 61.0802 51.997C61.3127 52.182 61.6052 52.2745 61.9577 52.2745ZM66.9061 45.4195V53.0995H65.7849V45.4195H66.9061ZM68.309 53.0995V47.3395H69.4302V53.0995H68.309ZM68.8752 46.4508C68.6802 46.4508 68.5127 46.3858 68.3727 46.2557C68.2352 46.1233 68.1665 45.9658 68.1665 45.7832C68.1665 45.5983 68.2352 45.4408 68.3727 45.3107C68.5127 45.1783 68.6802 45.112 68.8752 45.112C69.0702 45.112 69.2365 45.1783 69.374 45.3107C69.514 45.4408 69.584 45.5983 69.584 45.7832C69.584 45.9658 69.514 46.1233 69.374 46.2557C69.2365 46.3858 69.0702 46.4508 68.8752 46.4508ZM73.2593 53.2158C72.7193 53.2158 72.2481 53.092 71.8456 52.8445C71.4431 52.597 71.1306 52.2508 70.9081 51.8058C70.6856 51.3608 70.5743 50.8408 70.5743 50.2458C70.5743 49.6483 70.6856 49.1258 70.9081 48.6783C71.1306 48.2308 71.4431 47.8833 71.8456 47.6358C72.2481 47.3883 72.7193 47.2645 73.2593 47.2645C73.7993 47.2645 74.2706 47.3883 74.6731 47.6358C75.0756 47.8833 75.3881 48.2308 75.6106 48.6783C75.8331 49.1258 75.9443 49.6483 75.9443 50.2458C75.9443 50.8408 75.8331 51.3608 75.6106 51.8058C75.3881 52.2508 75.0756 52.597 74.6731 52.8445C74.2706 53.092 73.7993 53.2158 73.2593 53.2158ZM73.2631 52.2745C73.6131 52.2745 73.9031 52.182 74.1331 51.997C74.3631 51.812 74.5331 51.5658 74.6431 51.2583C74.7556 50.9508 74.8118 50.612 74.8118 50.242C74.8118 49.8745 74.7556 49.537 74.6431 49.2295C74.5331 48.9195 74.3631 48.6708 74.1331 48.4833C73.9031 48.2958 73.6131 48.202 73.2631 48.202C72.9106 48.202 72.6181 48.2958 72.3856 48.4833C72.1556 48.6708 71.9843 48.9195 71.8718 49.2295C71.7618 49.537 71.7068 49.8745 71.7068 50.242C71.7068 50.612 71.7618 50.9508 71.8718 51.2583C71.9843 51.5658 72.1556 51.812 72.3856 51.997C72.6181 52.182 72.9106 52.2745 73.2631 52.2745Z" fill="#97979B"/>
<path d="M33.3828 66.7395C33.3828 64.7955 34.9588 63.2195 36.9028 63.2195H93.2228C95.1669 63.2195 96.7428 64.7955 96.7428 66.7395V105.46H33.3828V66.7395Z" fill="#F4F4F7"/>
<g filter="url(#filter5_f_1321_46934)">
<path d="M57.5017 104.871C52.2539 93.1877 72.4672 75.9453 102.649 66.3584C132.831 56.7716 161.553 58.4708 166.801 70.1537C172.049 81.8365 151.835 99.079 121.653 108.666C91.471 118.253 62.7494 116.553 57.5017 104.871Z" fill="url(#paint4_radial_1321_46934)" fill-opacity="0.08"/>
</g>
<path d="M101.143 66.7395C101.143 64.7955 102.719 63.2195 104.663 63.2195H160.983C162.927 63.2195 164.503 64.7955 164.503 66.7395V105.46H101.143V66.7395Z" fill="#F4F4F7"/>
<circle cx="34.5064" cy="28.771" r="1.584" fill="#E4E4E7"/>
<circle cx="40.8423" cy="28.771" r="1.584" fill="#E4E4E7"/>
<circle cx="47.1782" cy="28.771" r="1.584" fill="#E4E4E7"/>
<rect opacity="0.5" x="55.0981" y="27.187" width="109.296" height="3.168" rx="1.584" fill="#EDEDF0"/>
<g filter="url(#filter6_b_1321_46934)">
<rect x="75.9971" y="79.9396" width="156.816" height="98.208" rx="8.448" fill="white" fill-opacity="0.32"/>
<rect x="76.4971" y="80.4396" width="155.816" height="97.208" rx="7.948" stroke="#19191C" stroke-opacity="0.03"/>
</g>
<g filter="url(#filter7_d_1321_46934)">
<path d="M82.333 90.4996C82.333 88.1667 84.2242 86.2756 86.557 86.2756H222.253C224.586 86.2756 226.477 88.1667 226.477 90.4996V167.588C226.477 169.92 224.586 171.812 222.253 171.812H86.557C84.2242 171.812 82.333 169.92 82.333 167.588V90.4996Z" fill="white"/>
<path d="M82.333 90.4996C82.333 88.1667 84.2242 86.2756 86.557 86.2756H222.253C224.586 86.2756 226.477 88.1667 226.477 90.4996V167.588C226.477 169.92 224.586 171.812 222.253 171.812H86.557C84.2242 171.812 82.333 169.92 82.333 167.588V90.4996Z" stroke="#EDEDF0"/>
<path d="M82.333 90.4996C82.333 88.1667 84.2242 86.2756 86.557 86.2756H222.253C224.586 86.2756 226.477 88.1667 226.477 90.4996V167.588C226.477 169.92 224.586 171.812 222.253 171.812H86.557C84.2242 171.812 82.333 169.92 82.333 167.588V90.4996Z" stroke="url(#paint5_linear_1321_46934)" stroke-opacity="0.4"/>
</g>
<rect opacity="0.5" x="91.4629" y="128.34" width="48.048" height="5.808" rx="2.112" fill="#EDEDF0"/>
<rect opacity="0.5" x="91.4629" y="138.372" width="86.592" height="5.808" rx="2.112" fill="#EDEDF0"/>
<path d="M90.8535 118.524V110.844H93.666C94.211 110.844 94.6623 110.934 95.0198 111.114C95.3773 111.292 95.6448 111.533 95.8223 111.838C95.9998 112.14 96.0885 112.482 96.0885 112.862C96.0885 113.182 96.0298 113.452 95.9123 113.672C95.7948 113.889 95.6373 114.064 95.4398 114.197C95.2448 114.327 95.0298 114.422 94.7948 114.482V114.557C95.0498 114.569 95.2985 114.652 95.541 114.804C95.786 114.954 95.9885 115.168 96.1485 115.445C96.3085 115.723 96.3885 116.06 96.3885 116.458C96.3885 116.85 96.296 117.203 96.111 117.515C95.9285 117.825 95.646 118.072 95.2635 118.254C94.881 118.434 94.3923 118.524 93.7973 118.524H90.8535ZM92.0123 117.53H93.6848C94.2398 117.53 94.6373 117.423 94.8773 117.208C95.1173 116.993 95.2373 116.724 95.2373 116.402C95.2373 116.159 95.176 115.937 95.0535 115.734C94.931 115.532 94.756 115.37 94.5285 115.25C94.3035 115.13 94.036 115.07 93.726 115.07H92.0123V117.53ZM92.0123 114.167H93.5648C93.8248 114.167 94.0585 114.117 94.266 114.017C94.476 113.917 94.6423 113.777 94.7648 113.597C94.8898 113.414 94.9523 113.199 94.9523 112.952C94.9523 112.634 94.841 112.368 94.6185 112.153C94.396 111.938 94.0548 111.83 93.5948 111.83H92.0123V114.167ZM98.6885 110.844V118.524H97.5673V110.844H98.6885ZM102.518 118.64C101.978 118.64 101.506 118.517 101.104 118.269C100.701 118.022 100.389 117.675 100.166 117.23C99.9439 116.785 99.8326 116.265 99.8326 115.67C99.8326 115.073 99.9439 114.55 100.166 114.103C100.389 113.655 100.701 113.308 101.104 113.06C101.506 112.813 101.978 112.689 102.518 112.689C103.058 112.689 103.529 112.813 103.931 113.06C104.334 113.308 104.646 113.655 104.869 114.103C105.091 114.55 105.203 115.073 105.203 115.67C105.203 116.265 105.091 116.785 104.869 117.23C104.646 117.675 104.334 118.022 103.931 118.269C103.529 118.517 103.058 118.64 102.518 118.64ZM102.521 117.699C102.871 117.699 103.161 117.607 103.391 117.422C103.621 117.237 103.791 116.99 103.901 116.683C104.014 116.375 104.07 116.037 104.07 115.667C104.07 115.299 104.014 114.962 103.901 114.654C103.791 114.344 103.621 114.095 103.391 113.908C103.161 113.72 102.871 113.627 102.521 113.627C102.169 113.627 101.876 113.72 101.644 113.908C101.414 114.095 101.243 114.344 101.13 114.654C101.02 114.962 100.965 115.299 100.965 115.667C100.965 116.037 101.02 116.375 101.13 116.683C101.243 116.99 101.414 117.237 101.644 117.422C101.876 117.607 102.169 117.699 102.521 117.699ZM108.764 120.804C108.306 120.804 107.912 120.744 107.582 120.624C107.255 120.504 106.987 120.345 106.78 120.148C106.572 119.95 106.417 119.734 106.315 119.499L107.279 119.102C107.346 119.212 107.436 119.328 107.549 119.45C107.664 119.575 107.819 119.682 108.014 119.769C108.211 119.857 108.465 119.9 108.775 119.9C109.2 119.9 109.551 119.797 109.829 119.589C110.106 119.384 110.245 119.057 110.245 118.607V117.474H110.174C110.106 117.597 110.009 117.733 109.881 117.883C109.756 118.033 109.584 118.163 109.364 118.273C109.144 118.383 108.857 118.438 108.505 118.438C108.05 118.438 107.64 118.332 107.275 118.119C106.912 117.904 106.625 117.588 106.412 117.17C106.202 116.75 106.097 116.234 106.097 115.622C106.097 115.009 106.201 114.484 106.409 114.047C106.619 113.609 106.906 113.274 107.271 113.042C107.636 112.807 108.05 112.689 108.512 112.689C108.87 112.689 109.159 112.749 109.379 112.869C109.599 112.987 109.77 113.124 109.892 113.282C110.017 113.439 110.114 113.578 110.181 113.698H110.264V112.764H111.362V118.652C111.362 119.147 111.247 119.553 111.017 119.87C110.787 120.188 110.476 120.423 110.084 120.575C109.694 120.728 109.254 120.804 108.764 120.804ZM108.752 117.508C109.075 117.508 109.347 117.433 109.57 117.283C109.795 117.13 109.965 116.913 110.08 116.63C110.197 116.345 110.256 116.004 110.256 115.607C110.256 115.219 110.199 114.878 110.084 114.583C109.969 114.288 109.8 114.058 109.577 113.893C109.355 113.725 109.08 113.642 108.752 113.642C108.415 113.642 108.134 113.729 107.909 113.904C107.684 114.077 107.514 114.312 107.399 114.609C107.286 114.907 107.23 115.239 107.23 115.607C107.23 115.984 107.287 116.315 107.402 116.6C107.517 116.885 107.687 117.108 107.912 117.268C108.14 117.428 108.42 117.508 108.752 117.508Z" fill="#97979B"/>
<circle cx="90.2529" cy="94.1955" r="1.584" fill="#E4E4E7"/>
<circle cx="96.5889" cy="94.1955" r="1.584" fill="#E4E4E7"/>
<circle cx="102.925" cy="94.1955" r="1.584" fill="#E4E4E7"/>
<rect opacity="0.5" x="110.845" y="92.6115" width="109.296" height="3.168" rx="1.584" fill="#EDEDF0"/>
</g>
<defs>
<filter id="filter0_f_1321_46934" x="85.7666" y="80.6313" width="115.421" height="49.4804" filterUnits="userSpaceOnUse" color-interpolation-filters="sRGB">
<feFlood flood-opacity="0" result="BackgroundImageFix"/>
<feBlend mode="normal" in="SourceGraphic" in2="BackgroundImageFix" result="shape"/>
<feGaussianBlur stdDeviation="2.25" result="effect1_foregroundBlur_1321_46934"/>
</filter>
<filter id="filter1_f_1321_46934" x="73.8086" y="35.2229" width="198.525" height="113.518" filterUnits="userSpaceOnUse" color-interpolation-filters="sRGB">
<feFlood flood-opacity="0" result="BackgroundImageFix"/>
<feBlend mode="normal" in="SourceGraphic" in2="BackgroundImageFix" result="shape"/>
<feGaussianBlur stdDeviation="2.25" result="effect1_foregroundBlur_1321_46934"/>
</filter>
<filter id="filter2_f_1321_46934" x="66.3418" y="42.9781" width="64.9907" height="84.2579" filterUnits="userSpaceOnUse" color-interpolation-filters="sRGB">
<feFlood flood-opacity="0" result="BackgroundImageFix"/>
<feBlend mode="normal" in="SourceGraphic" in2="BackgroundImageFix" result="shape"/>
<feGaussianBlur stdDeviation="4.5" result="effect1_foregroundBlur_1321_46934"/>
</filter>
<filter id="filter3_f_1321_46934" x="49.8657" y="26.5768" width="116.812" height="128.237" filterUnits="userSpaceOnUse" color-interpolation-filters="sRGB">
<feFlood flood-opacity="0" result="BackgroundImageFix"/>
<feBlend mode="normal" in="SourceGraphic" in2="BackgroundImageFix" result="shape"/>
<feGaussianBlur stdDeviation="12" result="effect1_foregroundBlur_1321_46934"/>
</filter>
<filter id="filter4_bd_1321_46934" x="15.3084" y="12.403" width="166.7" height="110.204" filterUnits="userSpaceOnUse" color-interpolation-filters="sRGB">
<feFlood flood-opacity="0" result="BackgroundImageFix"/>
<feGaussianBlur in="BackgroundImageFix" stdDeviation="1.056"/>
<feComposite in2="SourceAlpha" operator="in" result="effect1_backgroundBlur_1321_46934"/>
<feColorMatrix in="SourceAlpha" type="matrix" values="0 0 0 0 0 0 0 0 0 0 0 0 0 0 0 0 0 0 127 0" result="hardAlpha"/>
<feOffset dy="4.94208"/>
<feGaussianBlur stdDeviation="2.47104"/>
<feComposite in2="hardAlpha" operator="out"/>
<feColorMatrix type="matrix" values="0 0 0 0 0 0 0 0 0 0 0 0 0 0 0 0 0 0 0.03 0"/>
<feBlend mode="normal" in2="effect1_backgroundBlur_1321_46934" result="effect2_dropShadow_1321_46934"/>
<feBlend mode="normal" in="SourceGraphic" in2="effect2_dropShadow_1321_46934" result="shape"/>
</filter>
<filter id="filter5_f_1321_46934" x="37.4729" y="40.9472" width="149.357" height="93.1298" filterUnits="userSpaceOnUse" color-interpolation-filters="sRGB">
<feFlood flood-opacity="0" result="BackgroundImageFix"/>
<feBlend mode="normal" in="SourceGraphic" in2="BackgroundImageFix" result="shape"/>
<feGaussianBlur stdDeviation="9.6" result="effect1_foregroundBlur_1321_46934"/>
</filter>
<filter id="filter6_b_1321_46934" x="73.8851" y="77.8276" width="161.04" height="102.432" filterUnits="userSpaceOnUse" color-interpolation-filters="sRGB">
<feFlood flood-opacity="0" result="BackgroundImageFix"/>
<feGaussianBlur in="BackgroundImageFix" stdDeviation="1.056"/>
<feComposite in2="SourceAlpha" operator="in" result="effect1_backgroundBlur_1321_46934"/>
<feBlend mode="normal" in="SourceGraphic" in2="effect1_backgroundBlur_1321_46934" result="shape"/>
</filter>
<filter id="filter7_d_1321_46934" x="79.721" y="85.7756" width="149.368" height="90.76" filterUnits="userSpaceOnUse" color-interpolation-filters="sRGB">
<feFlood flood-opacity="0" result="BackgroundImageFix"/>
<feColorMatrix in="SourceAlpha" type="matrix" values="0 0 0 0 0 0 0 0 0 0 0 0 0 0 0 0 0 0 127 0" result="hardAlpha"/>
<feOffset dy="2.112"/>
<feGaussianBlur stdDeviation="1.056"/>
<feComposite in2="hardAlpha" operator="out"/>
<feColorMatrix type="matrix" values="0 0 0 0 0 0 0 0 0 0 0 0 0 0 0 0 0 0 0.04 0"/>
<feBlend mode="normal" in2="BackgroundImageFix" result="effect1_dropShadow_1321_46934"/>
<feBlend mode="normal" in="SourceGraphic" in2="effect1_dropShadow_1321_46934" result="shape"/>
</filter>
<radialGradient id="paint0_radial_1321_46934" cx="0" cy="0" r="1" gradientUnits="userSpaceOnUse" gradientTransform="translate(116.274 105.312) rotate(11.4697) scale(50.0245 18.5748)">
<stop stop-color="#F02E65"/>
<stop offset="1" stop-color="#F02E65" stop-opacity="0"/>
</radialGradient>
<radialGradient id="paint1_radial_1321_46934" cx="0" cy="0" r="1" gradientUnits="userSpaceOnUse" gradientTransform="translate(173.071 91.982) rotate(-179.817) scale(94.7631 52.258)">
<stop stop-color="#F02E65"/>
<stop offset="1" stop-color="#F02E65" stop-opacity="0"/>
</radialGradient>
<radialGradient id="paint2_radial_1321_46934" cx="0" cy="0" r="1" gradientUnits="userSpaceOnUse" gradientTransform="translate(91.1202 108.628) rotate(-127.788) scale(20.9784 9.21331)">
<stop stop-color="#FE9567"/>
<stop offset="1" stop-color="#F97066" stop-opacity="0"/>
</radialGradient>
<radialGradient id="paint3_radial_1321_46934" cx="0" cy="0" r="1" gradientUnits="userSpaceOnUse" gradientTransform="translate(95.3261 82.4656) rotate(69.8743) scale(34.7964 32.363)">
<stop stop-color="#F02E65"/>
<stop offset="1" stop-color="#F02E65" stop-opacity="0"/>
</radialGradient>
<radialGradient id="paint4_radial_1321_46934" cx="0" cy="0" r="1" gradientUnits="userSpaceOnUse" gradientTransform="translate(107.22 76.7208) rotate(122.378) scale(33.0211 34.5156)">
<stop stop-color="#F02E65"/>
<stop offset="1" stop-color="#F02E65" stop-opacity="0"/>
</radialGradient>
<linearGradient id="paint5_linear_1321_46934" x1="-16.2698" y1="128.914" x2="42.1452" y2="201.011" gradientUnits="userSpaceOnUse">
<stop stop-color="#FE6054"/>
<stop offset="0.342973" stop-color="#FD366E"/>
<stop offset="1" stop-color="#EDEDF0"/>
</linearGradient>
<clipPath id="clip0_1321_46934">
<path d="M0 4C0 1.79086 1.79086 0 4 0H244C246.209 0 248 1.79086 248 4V144C248 146.209 246.209 148 244 148H4C1.79086 148 0 146.209 0 144V4Z" fill="white"/>
</clipPath>
</defs>
</svg>
