<svg width="328" height="427" viewBox="0 0 328 427" fill="none" xmlns="http://www.w3.org/2000/svg">
<path d="M1.14773 26V14.3636H5.51136C6.4053 14.3636 7.1553 14.5303 7.76136 14.8636C8.37121 15.197 8.83144 15.6553 9.14205 16.2386C9.45644 16.8182 9.61364 17.4773 9.61364 18.2159C9.61364 18.9621 9.45644 19.625 9.14205 20.2045C8.82765 20.7841 8.36364 21.2405 7.75 21.5739C7.13636 21.9034 6.38068 22.0682 5.48295 22.0682H2.59091V20.3352H5.19886C5.72159 20.3352 6.14962 20.2443 6.48295 20.0625C6.81629 19.8807 7.0625 19.6307 7.22159 19.3125C7.38447 18.9943 7.46591 18.6288 7.46591 18.2159C7.46591 17.803 7.38447 17.4394 7.22159 17.125C7.0625 16.8106 6.81439 16.5663 6.47727 16.392C6.14394 16.214 5.71402 16.125 5.1875 16.125H3.25568V26H1.14773ZM15.0355 26.1705C14.1832 26.1705 13.4446 25.983 12.8196 25.608C12.1946 25.233 11.7098 24.7083 11.3651 24.0341C11.0241 23.3598 10.8537 22.572 10.8537 21.6705C10.8537 20.7689 11.0241 19.9792 11.3651 19.3011C11.7098 18.6231 12.1946 18.0966 12.8196 17.7216C13.4446 17.3466 14.1832 17.1591 15.0355 17.1591C15.8878 17.1591 16.6264 17.3466 17.2514 17.7216C17.8764 18.0966 18.3594 18.6231 18.7003 19.3011C19.045 19.9792 19.2173 20.7689 19.2173 21.6705C19.2173 22.572 19.045 23.3598 18.7003 24.0341C18.3594 24.7083 17.8764 25.233 17.2514 25.608C16.6264 25.983 15.8878 26.1705 15.0355 26.1705ZM15.0469 24.5227C15.509 24.5227 15.8954 24.3958 16.206 24.142C16.5166 23.8845 16.7476 23.5398 16.8991 23.108C17.0545 22.6761 17.1321 22.1951 17.1321 21.6648C17.1321 21.1307 17.0545 20.6477 16.8991 20.2159C16.7476 19.7803 16.5166 19.4337 16.206 19.1761C15.8954 18.9186 15.509 18.7898 15.0469 18.7898C14.5734 18.7898 14.1795 18.9186 13.8651 19.1761C13.5545 19.4337 13.3215 19.7803 13.1662 20.2159C13.0147 20.6477 12.9389 21.1307 12.9389 21.6648C12.9389 22.1951 13.0147 22.6761 13.1662 23.108C13.3215 23.5398 13.5545 23.8845 13.8651 24.142C14.1795 24.3958 14.5734 24.5227 15.0469 24.5227ZM23.0199 14.3636V26H20.9631V14.3636H23.0199ZM25.1349 26V17.2727H27.1918V26H25.1349ZM26.169 16.0341C25.8433 16.0341 25.563 15.9261 25.3281 15.7102C25.0933 15.4905 24.9759 15.2273 24.9759 14.9205C24.9759 14.6098 25.0933 14.3466 25.3281 14.1307C25.563 13.911 25.8433 13.8011 26.169 13.8011C26.4986 13.8011 26.7789 13.911 27.0099 14.1307C27.2448 14.3466 27.3622 14.6098 27.3622 14.9205C27.3622 15.2273 27.2448 15.4905 27.0099 15.7102C26.7789 15.9261 26.4986 16.0341 26.169 16.0341ZM33.1136 26.1705C32.2424 26.1705 31.4943 25.9792 30.8693 25.5966C30.2481 25.214 29.7689 24.6856 29.4318 24.0114C29.0985 23.3333 28.9318 22.553 28.9318 21.6705C28.9318 20.7841 29.1023 20.0019 29.4432 19.3239C29.7841 18.642 30.2652 18.1117 30.8864 17.733C31.5114 17.3504 32.25 17.1591 33.1023 17.1591C33.8106 17.1591 34.4375 17.2898 34.983 17.5511C35.5322 17.8087 35.9697 18.1742 36.2955 18.6477C36.6212 19.1174 36.8068 19.6667 36.8523 20.2955H34.8864C34.8068 19.875 34.6174 19.5246 34.3182 19.2443C34.0227 18.9602 33.6269 18.8182 33.1307 18.8182C32.7102 18.8182 32.3409 18.9318 32.0227 19.1591C31.7045 19.3826 31.4564 19.7045 31.2784 20.125C31.1042 20.5455 31.017 21.0492 31.017 21.6364C31.017 22.2311 31.1042 22.7424 31.2784 23.1705C31.4527 23.5947 31.697 23.9223 32.0114 24.1534C32.3295 24.3807 32.7027 24.4943 33.1307 24.4943C33.4337 24.4943 33.7045 24.4375 33.9432 24.3239C34.1856 24.2064 34.3883 24.0379 34.5511 23.8182C34.714 23.5985 34.8258 23.3314 34.8864 23.017H36.8523C36.803 23.6345 36.6212 24.1818 36.3068 24.6591C35.9924 25.1326 35.5644 25.5038 35.0227 25.7727C34.4811 26.0379 33.8447 26.1705 33.1136 26.1705ZM38.5412 26V17.2727H40.598V26H38.5412ZM39.5753 16.0341C39.2495 16.0341 38.9692 15.9261 38.7344 15.7102C38.4995 15.4905 38.3821 15.2273 38.3821 14.9205C38.3821 14.6098 38.4995 14.3466 38.7344 14.1307C38.9692 13.911 39.2495 13.8011 39.5753 13.8011C39.9048 13.8011 40.1851 13.911 40.4162 14.1307C40.651 14.3466 40.7685 14.6098 40.7685 14.9205C40.7685 15.2273 40.651 15.4905 40.4162 15.7102C40.1851 15.9261 39.9048 16.0341 39.5753 16.0341ZM46.5767 26.1705C45.7017 26.1705 44.946 25.9886 44.3097 25.625C43.6771 25.2576 43.1903 24.7386 42.8494 24.0682C42.5085 23.3939 42.3381 22.6004 42.3381 21.6875C42.3381 20.7898 42.5085 20.0019 42.8494 19.3239C43.1941 18.642 43.6752 18.1117 44.2926 17.733C44.91 17.3504 45.6354 17.1591 46.4688 17.1591C47.0066 17.1591 47.5142 17.2462 47.9915 17.4205C48.4725 17.5909 48.8968 17.8561 49.2642 18.2159C49.6354 18.5758 49.9271 19.0341 50.1392 19.5909C50.3513 20.1439 50.4574 20.803 50.4574 21.5682V22.1989H43.304V20.8125H48.4858C48.482 20.4186 48.3968 20.0682 48.2301 19.7614C48.0634 19.4508 47.8305 19.2064 47.5312 19.0284C47.2358 18.8504 46.8911 18.7614 46.4972 18.7614C46.0767 18.7614 45.7074 18.8636 45.3892 19.0682C45.071 19.2689 44.8229 19.5341 44.6449 19.8636C44.4706 20.1894 44.3816 20.5473 44.3778 20.9375V22.1477C44.3778 22.6553 44.4706 23.0909 44.6562 23.4545C44.8419 23.8144 45.1013 24.0909 45.4347 24.2841C45.768 24.4735 46.1581 24.5682 46.6051 24.5682C46.9044 24.5682 47.1752 24.5265 47.4176 24.4432C47.66 24.3561 47.8703 24.2292 48.0483 24.0625C48.2263 23.8958 48.3608 23.6894 48.4517 23.4432L50.3722 23.6591C50.2509 24.1667 50.0199 24.6098 49.679 24.9886C49.3419 25.3636 48.91 25.6553 48.3835 25.8636C47.857 26.0682 47.2547 26.1705 46.5767 26.1705ZM59.0952 19.5795L57.2202 19.7841C57.1671 19.5947 57.0743 19.4167 56.9418 19.25C56.813 19.0833 56.6387 18.9489 56.419 18.8466C56.1993 18.7443 55.9304 18.6932 55.6122 18.6932C55.1842 18.6932 54.8243 18.786 54.5327 18.9716C54.2448 19.1572 54.1027 19.3977 54.1065 19.6932C54.1027 19.947 54.1955 20.1534 54.3849 20.3125C54.5781 20.4716 54.8963 20.6023 55.3395 20.7045L56.8281 21.0227C57.6539 21.2008 58.2675 21.483 58.669 21.8693C59.0743 22.2557 59.2789 22.7614 59.2827 23.3864C59.2789 23.9356 59.1179 24.4205 58.7997 24.8409C58.4853 25.2576 58.0478 25.5833 57.4872 25.8182C56.9266 26.053 56.2827 26.1705 55.5554 26.1705C54.4872 26.1705 53.6274 25.947 52.9759 25.5C52.3243 25.0492 51.9361 24.4223 51.8111 23.6193L53.8168 23.4261C53.9077 23.8201 54.1009 24.1174 54.3963 24.3182C54.6918 24.5189 55.0762 24.6193 55.5497 24.6193C56.0384 24.6193 56.4304 24.5189 56.7259 24.3182C57.0251 24.1174 57.1747 23.8693 57.1747 23.5739C57.1747 23.3239 57.0781 23.1174 56.8849 22.9545C56.6955 22.7917 56.4001 22.6667 55.9986 22.5795L54.5099 22.267C53.6728 22.0928 53.0535 21.7992 52.652 21.3864C52.2505 20.9697 52.0516 20.4432 52.0554 19.8068C52.0516 19.2689 52.1974 18.803 52.4929 18.4091C52.7921 18.0114 53.2069 17.7045 53.7372 17.4886C54.2713 17.2689 54.8868 17.1591 55.5838 17.1591C56.6065 17.1591 57.4115 17.3769 57.9986 17.8125C58.5895 18.2481 58.955 18.8371 59.0952 19.5795Z" fill="#373B4D"/>
<path d="M169.5 8C169.5 3.85786 172.858 0.5 177 0.5H320C324.142 0.5 327.5 3.85786 327.5 8V32C327.5 36.1421 324.142 39.5 320 39.5H177C172.858 39.5 169.5 36.1421 169.5 32V8Z" fill="#FAFAFB"/>
<path d="M169.5 8C169.5 3.85786 172.858 0.5 177 0.5H320C324.142 0.5 327.5 3.85786 327.5 8V32C327.5 36.1421 324.142 39.5 320 39.5H177C172.858 39.5 169.5 36.1421 169.5 32V8Z" stroke="#D8D8DB"/>
<path fill-rule="evenodd" clip-rule="evenodd" d="M193 15C193.552 15 194 15.4477 194 16V19L197 19C197.552 19 198 19.4477 198 20C198 20.5523 197.552 21 197 21H194V24C194 24.5523 193.552 25 193 25C192.448 25 192 24.5523 192 24V21H189C188.448 21 188 20.5523 188 20C188 19.4477 188.448 19 189 19L192 19V16C192 15.4477 192.448 15 193 15Z" fill="#6C6C71"/>
<path d="M222.108 18.2898H219.983C219.922 17.9413 219.811 17.6326 219.648 17.3636C219.485 17.0909 219.282 16.8598 219.04 16.6705C218.797 16.4811 218.521 16.339 218.21 16.2443C217.903 16.1458 217.572 16.0966 217.216 16.0966C216.583 16.0966 216.023 16.2557 215.534 16.5739C215.045 16.8883 214.663 17.3504 214.386 17.9602C214.11 18.5663 213.972 19.3068 213.972 20.1818C213.972 21.072 214.11 21.822 214.386 22.4318C214.667 23.0379 215.049 23.4962 215.534 23.8068C216.023 24.1136 216.581 24.267 217.21 24.267C217.559 24.267 217.884 24.2216 218.188 24.1307C218.494 24.036 218.769 23.8977 219.011 23.7159C219.258 23.5341 219.464 23.3106 219.631 23.0455C219.801 22.7803 219.919 22.4773 219.983 22.1364L222.108 22.1477C222.028 22.7008 221.856 23.2197 221.591 23.7045C221.33 24.1894 220.987 24.6174 220.562 24.9886C220.138 25.3561 219.642 25.6439 219.074 25.8523C218.506 26.0568 217.875 26.1591 217.182 26.1591C216.159 26.1591 215.246 25.9223 214.443 25.4489C213.64 24.9754 213.008 24.2917 212.545 23.3977C212.083 22.5038 211.852 21.4318 211.852 20.1818C211.852 18.928 212.085 17.8561 212.551 16.9659C213.017 16.072 213.652 15.3883 214.455 14.9148C215.258 14.4413 216.167 14.2045 217.182 14.2045C217.83 14.2045 218.432 14.2955 218.989 14.4773C219.545 14.6591 220.042 14.9261 220.477 15.2784C220.913 15.6269 221.271 16.0549 221.551 16.5625C221.835 17.0663 222.021 17.642 222.108 18.2898ZM223.947 26V17.2727H225.942V18.7273H226.033C226.192 18.2235 226.464 17.8352 226.851 17.5625C227.241 17.286 227.686 17.1477 228.186 17.1477C228.3 17.1477 228.427 17.1534 228.567 17.1648C228.711 17.1723 228.83 17.1856 228.925 17.2045V19.0966C228.838 19.0663 228.699 19.0398 228.51 19.017C228.324 18.9905 228.144 18.9773 227.97 18.9773C227.595 18.9773 227.258 19.0587 226.959 19.2216C226.663 19.3807 226.43 19.6023 226.26 19.8864C226.089 20.1705 226.004 20.4981 226.004 20.8693V26H223.947ZM233.795 26.1705C232.92 26.1705 232.165 25.9886 231.528 25.625C230.896 25.2576 230.409 24.7386 230.068 24.0682C229.727 23.3939 229.557 22.6004 229.557 21.6875C229.557 20.7898 229.727 20.0019 230.068 19.3239C230.413 18.642 230.894 18.1117 231.511 17.733C232.129 17.3504 232.854 17.1591 233.688 17.1591C234.225 17.1591 234.733 17.2462 235.21 17.4205C235.691 17.5909 236.116 17.8561 236.483 18.2159C236.854 18.5758 237.146 19.0341 237.358 19.5909C237.57 20.1439 237.676 20.803 237.676 21.5682V22.1989H230.523V20.8125H235.705C235.701 20.4186 235.616 20.0682 235.449 19.7614C235.282 19.4508 235.049 19.2064 234.75 19.0284C234.455 18.8504 234.11 18.7614 233.716 18.7614C233.295 18.7614 232.926 18.8636 232.608 19.0682C232.29 19.2689 232.042 19.5341 231.864 19.8636C231.689 20.1894 231.6 20.5473 231.597 20.9375V22.1477C231.597 22.6553 231.689 23.0909 231.875 23.4545C232.061 23.8144 232.32 24.0909 232.653 24.2841C232.987 24.4735 233.377 24.5682 233.824 24.5682C234.123 24.5682 234.394 24.5265 234.636 24.4432C234.879 24.3561 235.089 24.2292 235.267 24.0625C235.445 23.8958 235.58 23.6894 235.67 23.4432L237.591 23.6591C237.47 24.1667 237.239 24.6098 236.898 24.9886C236.561 25.3636 236.129 25.6553 235.602 25.8636C235.076 26.0682 234.473 26.1705 233.795 26.1705ZM241.928 26.1761C241.375 26.1761 240.876 26.0777 240.433 25.8807C239.994 25.6799 239.645 25.3845 239.388 24.9943C239.134 24.6042 239.007 24.1231 239.007 23.5511C239.007 23.0587 239.098 22.6515 239.28 22.3295C239.462 22.0076 239.71 21.75 240.024 21.5568C240.339 21.3636 240.693 21.2178 241.087 21.1193C241.484 21.017 241.895 20.9432 242.32 20.8977C242.831 20.8447 243.246 20.7973 243.564 20.7557C243.882 20.7102 244.113 20.642 244.257 20.5511C244.405 20.4564 244.479 20.3106 244.479 20.1136V20.0795C244.479 19.6515 244.352 19.3201 244.098 19.0852C243.844 18.8504 243.479 18.733 243.001 18.733C242.498 18.733 242.098 18.8428 241.803 19.0625C241.511 19.2822 241.314 19.5417 241.212 19.8409L239.291 19.5682C239.443 19.0379 239.693 18.5947 240.041 18.2386C240.39 17.8788 240.816 17.6098 241.32 17.4318C241.823 17.25 242.38 17.1591 242.99 17.1591C243.411 17.1591 243.829 17.2083 244.246 17.3068C244.662 17.4053 245.043 17.5682 245.388 17.7955C245.732 18.0189 246.009 18.3239 246.217 18.7102C246.429 19.0966 246.536 19.5795 246.536 20.1591V26H244.558V24.8011H244.49C244.365 25.0436 244.189 25.2708 243.962 25.483C243.738 25.6913 243.456 25.8598 243.115 25.9886C242.778 26.1136 242.382 26.1761 241.928 26.1761ZM242.462 24.6648C242.875 24.6648 243.232 24.5833 243.536 24.4205C243.839 24.2538 244.071 24.0341 244.234 23.7614C244.401 23.4886 244.484 23.1913 244.484 22.8693V21.8409C244.42 21.8939 244.31 21.9432 244.155 21.9886C244.003 22.0341 243.833 22.0739 243.643 22.108C243.454 22.142 243.267 22.1723 243.081 22.1989C242.895 22.2254 242.734 22.2481 242.598 22.267C242.291 22.3087 242.017 22.3769 241.774 22.4716C241.532 22.5663 241.34 22.6989 241.2 22.8693C241.06 23.036 240.99 23.2519 240.99 23.517C240.99 23.8958 241.128 24.1818 241.405 24.375C241.681 24.5682 242.034 24.6648 242.462 24.6648ZM252.962 17.2727V18.8636H247.945V17.2727H252.962ZM249.183 15.1818H251.24V23.375C251.24 23.6515 251.282 23.8636 251.365 24.0114C251.452 24.1553 251.566 24.2538 251.706 24.3068C251.846 24.3598 252.001 24.3864 252.172 24.3864C252.301 24.3864 252.418 24.3769 252.524 24.358C252.634 24.339 252.717 24.322 252.774 24.3068L253.121 25.9148C253.011 25.9527 252.854 25.9943 252.649 26.0398C252.448 26.0852 252.202 26.1117 251.911 26.1193C251.395 26.1345 250.931 26.0568 250.518 25.8864C250.106 25.7121 249.778 25.4432 249.536 25.0795C249.297 24.7159 249.179 24.2614 249.183 23.7159V15.1818ZM258.452 26.1705C257.577 26.1705 256.821 25.9886 256.185 25.625C255.552 25.2576 255.065 24.7386 254.724 24.0682C254.384 23.3939 254.213 22.6004 254.213 21.6875C254.213 20.7898 254.384 20.0019 254.724 19.3239C255.069 18.642 255.55 18.1117 256.168 17.733C256.785 17.3504 257.51 17.1591 258.344 17.1591C258.882 17.1591 259.389 17.2462 259.866 17.4205C260.348 17.5909 260.772 17.8561 261.139 18.2159C261.51 18.5758 261.802 19.0341 262.014 19.5909C262.226 20.1439 262.332 20.803 262.332 21.5682V22.1989H255.179V20.8125H260.361C260.357 20.4186 260.272 20.0682 260.105 19.7614C259.938 19.4508 259.705 19.2064 259.406 19.0284C259.111 18.8504 258.766 18.7614 258.372 18.7614C257.952 18.7614 257.582 18.8636 257.264 19.0682C256.946 19.2689 256.698 19.5341 256.52 19.8636C256.346 20.1894 256.257 20.5473 256.253 20.9375V22.1477C256.253 22.6553 256.346 23.0909 256.531 23.4545C256.717 23.8144 256.976 24.0909 257.31 24.2841C257.643 24.4735 258.033 24.5682 258.48 24.5682C258.779 24.5682 259.05 24.5265 259.293 24.4432C259.535 24.3561 259.745 24.2292 259.923 24.0625C260.101 23.8958 260.236 23.6894 260.327 23.4432L262.247 23.6591C262.126 24.1667 261.895 24.6098 261.554 24.9886C261.217 25.3636 260.785 25.6553 260.259 25.8636C259.732 26.0682 259.13 26.1705 258.452 26.1705ZM268.041 29.2727V17.2727H270.064V18.7159H270.183C270.289 18.5038 270.439 18.2784 270.632 18.0398C270.825 17.7973 271.087 17.5909 271.416 17.4205C271.746 17.2462 272.166 17.1591 272.678 17.1591C273.352 17.1591 273.96 17.3314 274.501 17.6761C275.047 18.017 275.479 18.5227 275.797 19.1932C276.119 19.8598 276.28 20.678 276.28 21.6477C276.28 22.6061 276.123 23.4205 275.808 24.0909C275.494 24.7614 275.066 25.2727 274.524 25.625C273.982 25.9773 273.369 26.1534 272.683 26.1534C272.183 26.1534 271.768 26.0701 271.439 25.9034C271.109 25.7367 270.844 25.536 270.643 25.3011C270.446 25.0625 270.293 24.8371 270.183 24.625H270.098V29.2727H268.041ZM270.058 21.6364C270.058 22.2008 270.138 22.6951 270.297 23.1193C270.46 23.5436 270.693 23.875 270.996 24.1136C271.303 24.3485 271.674 24.4659 272.109 24.4659C272.564 24.4659 272.945 24.3447 273.251 24.1023C273.558 23.8561 273.789 23.5208 273.945 23.0966C274.104 22.6686 274.183 22.1818 274.183 21.6364C274.183 21.0947 274.106 20.6136 273.95 20.1932C273.795 19.7727 273.564 19.4432 273.257 19.2045C272.95 18.9659 272.568 18.8466 272.109 18.8466C271.67 18.8466 271.297 18.9621 270.99 19.1932C270.683 19.4242 270.45 19.7481 270.291 20.1648C270.136 20.5814 270.058 21.072 270.058 21.6364ZM281.848 26.1705C280.996 26.1705 280.257 25.983 279.632 25.608C279.007 25.233 278.522 24.7083 278.178 24.0341C277.837 23.3598 277.666 22.572 277.666 21.6705C277.666 20.7689 277.837 19.9792 278.178 19.3011C278.522 18.6231 279.007 18.0966 279.632 17.7216C280.257 17.3466 280.996 17.1591 281.848 17.1591C282.7 17.1591 283.439 17.3466 284.064 17.7216C284.689 18.0966 285.172 18.6231 285.513 19.3011C285.857 19.9792 286.03 20.7689 286.03 21.6705C286.03 22.572 285.857 23.3598 285.513 24.0341C285.172 24.7083 284.689 25.233 284.064 25.608C283.439 25.983 282.7 26.1705 281.848 26.1705ZM281.859 24.5227C282.321 24.5227 282.708 24.3958 283.018 24.142C283.329 23.8845 283.56 23.5398 283.712 23.108C283.867 22.6761 283.945 22.1951 283.945 21.6648C283.945 21.1307 283.867 20.6477 283.712 20.2159C283.56 19.7803 283.329 19.4337 283.018 19.1761C282.708 18.9186 282.321 18.7898 281.859 18.7898C281.386 18.7898 280.992 18.9186 280.678 19.1761C280.367 19.4337 280.134 19.7803 279.979 20.2159C279.827 20.6477 279.751 21.1307 279.751 21.6648C279.751 22.1951 279.827 22.6761 279.979 23.108C280.134 23.5398 280.367 23.8845 280.678 24.142C280.992 24.3958 281.386 24.5227 281.859 24.5227ZM289.832 14.3636V26H287.776V14.3636H289.832ZM291.947 26V17.2727H294.004V26H291.947ZM292.982 16.0341C292.656 16.0341 292.375 15.9261 292.141 15.7102C291.906 15.4905 291.788 15.2273 291.788 14.9205C291.788 14.6098 291.906 14.3466 292.141 14.1307C292.375 13.911 292.656 13.8011 292.982 13.8011C293.311 13.8011 293.591 13.911 293.822 14.1307C294.057 14.3466 294.175 14.6098 294.175 14.9205C294.175 15.2273 294.057 15.4905 293.822 15.7102C293.591 15.9261 293.311 16.0341 292.982 16.0341ZM299.926 26.1705C299.055 26.1705 298.307 25.9792 297.682 25.5966C297.061 25.214 296.581 24.6856 296.244 24.0114C295.911 23.3333 295.744 22.553 295.744 21.6705C295.744 20.7841 295.915 20.0019 296.256 19.3239C296.597 18.642 297.078 18.1117 297.699 17.733C298.324 17.3504 299.063 17.1591 299.915 17.1591C300.623 17.1591 301.25 17.2898 301.795 17.5511C302.345 17.8087 302.782 18.1742 303.108 18.6477C303.434 19.1174 303.619 19.6667 303.665 20.2955H301.699C301.619 19.875 301.43 19.5246 301.131 19.2443C300.835 18.9602 300.439 18.8182 299.943 18.8182C299.523 18.8182 299.153 18.9318 298.835 19.1591C298.517 19.3826 298.269 19.7045 298.091 20.125C297.917 20.5455 297.83 21.0492 297.83 21.6364C297.83 22.2311 297.917 22.7424 298.091 23.1705C298.265 23.5947 298.509 23.9223 298.824 24.1534C299.142 24.3807 299.515 24.4943 299.943 24.4943C300.246 24.4943 300.517 24.4375 300.756 24.3239C300.998 24.2064 301.201 24.0379 301.364 23.8182C301.527 23.5985 301.638 23.3314 301.699 23.017H303.665C303.616 23.6345 303.434 24.1818 303.119 24.6591C302.805 25.1326 302.377 25.5038 301.835 25.7727C301.294 26.0379 300.657 26.1705 299.926 26.1705ZM306.632 29.2727C306.352 29.2727 306.092 29.25 305.854 29.2045C305.619 29.1629 305.431 29.1136 305.291 29.0568L305.768 27.4545C306.068 27.5417 306.335 27.5833 306.57 27.5795C306.804 27.5758 307.011 27.5019 307.189 27.358C307.371 27.2178 307.524 26.983 307.649 26.6534L307.825 26.1818L304.661 17.2727H306.842L308.854 23.8636H308.945L310.962 17.2727H313.149L309.655 27.0568C309.492 27.5189 309.276 27.9148 309.007 28.2443C308.738 28.5777 308.409 28.8314 308.018 29.0057C307.632 29.1837 307.17 29.2727 306.632 29.2727Z" fill="#6C6C71"/>
<mask id="path-5-inside-1_951_36042" fill="white">
<path d="M0 64C0 59.5817 3.58172 56 8 56H320C324.418 56 328 59.5817 328 64V417C328 421.418 324.418 425 320 425H7.99999C3.58171 425 0 421.418 0 417V64Z"/>
</mask>
<path d="M0 64C0 59.5817 3.58172 56 8 56H320C324.418 56 328 59.5817 328 64V417C328 421.418 324.418 425 320 425H7.99999C3.58171 425 0 421.418 0 417V64Z" fill="white"/>
<path d="M8 57H320V55H8V57ZM327 64V417H329V64H327ZM320 424H7.99999V426H320V424ZM1 417V64H-1V417H1ZM7.99999 424C4.134 424 1 420.866 1 417H-1C-1 421.971 3.02943 426 7.99999 426V424ZM327 417C327 420.866 323.866 424 320 424V426C324.971 426 329 421.971 329 417H327ZM320 57C323.866 57 327 60.134 327 64H329C329 59.0294 324.971 55 320 55V57ZM8 55C3.02944 55 -1 59.0294 -1 64H1C1 60.134 4.13401 57 8 57V55Z" fill="#EDEDF0" mask="url(#path-5-inside-1_951_36042)"/>
<path d="M171.627 133L171.627 165" stroke="#EDEDF0" stroke-linecap="round"/>
<path d="M7.62695 181H320.627" stroke="#EDEDF0"/>
<path d="M164 258L164 290" stroke="#EDEDF0" stroke-linecap="round"/>
<path d="M7.62695 304H320.627" stroke="#EDEDF0"/>
<path d="M164 381L164 413" stroke="#EDEDF0" stroke-linecap="round"/>
<rect x="15" y="75" width="91" height="12" rx="6" fill="url(#paint0_linear_951_36042)"/>
<rect x="15" y="201" width="91" height="12" rx="6" fill="url(#paint1_linear_951_36042)"/>
<rect x="15" y="326" width="91" height="12" rx="6" fill="url(#paint2_linear_951_36042)"/>
<rect x="16" y="153" width="108" height="8" rx="4" fill="url(#paint3_linear_951_36042)"/>
<rect x="16" y="279" width="108" height="8" rx="4" fill="url(#paint4_linear_951_36042)"/>
<rect x="16" y="404" width="108" height="8" rx="4" fill="url(#paint5_linear_951_36042)"/>
<rect x="186" y="153" width="108" height="8" rx="4" fill="url(#paint6_linear_951_36042)"/>
<rect x="186" y="279" width="108" height="8" rx="4" fill="url(#paint7_linear_951_36042)"/>
<rect x="186" y="404" width="108" height="8" rx="4" fill="url(#paint8_linear_951_36042)"/>
<rect x="16" y="137" width="61" height="8" rx="4" fill="url(#paint9_linear_951_36042)"/>
<rect x="16" y="263" width="61" height="8" rx="4" fill="url(#paint10_linear_951_36042)"/>
<rect x="16" y="388" width="61" height="8" rx="4" fill="url(#paint11_linear_951_36042)"/>
<rect x="186" y="137" width="61" height="8" rx="4" fill="url(#paint12_linear_951_36042)"/>
<rect x="186" y="263" width="61" height="8" rx="4" fill="url(#paint13_linear_951_36042)"/>
<rect x="186" y="388" width="61" height="8" rx="4" fill="url(#paint14_linear_951_36042)"/>
<rect x="15" y="99" width="247" height="8" rx="4" fill="url(#paint15_linear_951_36042)"/>
<rect x="15" y="225" width="247" height="8" rx="4" fill="url(#paint16_linear_951_36042)"/>
<rect x="15" y="350" width="247" height="8" rx="4" fill="url(#paint17_linear_951_36042)"/>
<rect width="328" height="425" transform="matrix(1 0 0 -1 0 426)" fill="url(#paint18_linear_951_36042)"/>
<defs>
<linearGradient id="paint0_linear_951_36042" x1="15" y1="81" x2="116.537" y2="81" gradientUnits="userSpaceOnUse">
<stop stop-color="#EDEDF0"/>
<stop offset="1" stop-color="white"/>
</linearGradient>
<linearGradient id="paint1_linear_951_36042" x1="15" y1="207" x2="116.537" y2="207" gradientUnits="userSpaceOnUse">
<stop stop-color="#EDEDF0"/>
<stop offset="1" stop-color="white"/>
</linearGradient>
<linearGradient id="paint2_linear_951_36042" x1="15" y1="332" x2="116.537" y2="332" gradientUnits="userSpaceOnUse">
<stop stop-color="#EDEDF0"/>
<stop offset="1" stop-color="white"/>
</linearGradient>
<linearGradient id="paint3_linear_951_36042" x1="16" y1="157" x2="118.094" y2="157" gradientUnits="userSpaceOnUse">
<stop stop-color="#EDEDF0"/>
<stop offset="1" stop-color="white"/>
</linearGradient>
<linearGradient id="paint4_linear_951_36042" x1="16" y1="283" x2="118.094" y2="283" gradientUnits="userSpaceOnUse">
<stop stop-color="#EDEDF0"/>
<stop offset="1" stop-color="white"/>
</linearGradient>
<linearGradient id="paint5_linear_951_36042" x1="16" y1="408" x2="118.094" y2="408" gradientUnits="userSpaceOnUse">
<stop stop-color="#EDEDF0"/>
<stop offset="1" stop-color="white"/>
</linearGradient>
<linearGradient id="paint6_linear_951_36042" x1="186" y1="157" x2="288.094" y2="157" gradientUnits="userSpaceOnUse">
<stop stop-color="#EDEDF0"/>
<stop offset="1" stop-color="white"/>
</linearGradient>
<linearGradient id="paint7_linear_951_36042" x1="186" y1="283" x2="288.094" y2="283" gradientUnits="userSpaceOnUse">
<stop stop-color="#EDEDF0"/>
<stop offset="1" stop-color="white"/>
</linearGradient>
<linearGradient id="paint8_linear_951_36042" x1="186" y1="408" x2="288.094" y2="408" gradientUnits="userSpaceOnUse">
<stop stop-color="#EDEDF0"/>
<stop offset="1" stop-color="white"/>
</linearGradient>
<linearGradient id="paint9_linear_951_36042" x1="16" y1="141" x2="73.6641" y2="141" gradientUnits="userSpaceOnUse">
<stop stop-color="#EDEDF0"/>
<stop offset="1" stop-color="white"/>
</linearGradient>
<linearGradient id="paint10_linear_951_36042" x1="16" y1="267" x2="73.6641" y2="267" gradientUnits="userSpaceOnUse">
<stop stop-color="#EDEDF0"/>
<stop offset="1" stop-color="white"/>
</linearGradient>
<linearGradient id="paint11_linear_951_36042" x1="16" y1="392" x2="73.6641" y2="392" gradientUnits="userSpaceOnUse">
<stop stop-color="#EDEDF0"/>
<stop offset="1" stop-color="white"/>
</linearGradient>
<linearGradient id="paint12_linear_951_36042" x1="186" y1="141" x2="243.664" y2="141" gradientUnits="userSpaceOnUse">
<stop stop-color="#EDEDF0"/>
<stop offset="1" stop-color="white"/>
</linearGradient>
<linearGradient id="paint13_linear_951_36042" x1="186" y1="267" x2="243.664" y2="267" gradientUnits="userSpaceOnUse">
<stop stop-color="#EDEDF0"/>
<stop offset="1" stop-color="white"/>
</linearGradient>
<linearGradient id="paint14_linear_951_36042" x1="186" y1="392" x2="243.664" y2="392" gradientUnits="userSpaceOnUse">
<stop stop-color="#EDEDF0"/>
<stop offset="1" stop-color="white"/>
</linearGradient>
<linearGradient id="paint15_linear_951_36042" x1="15" y1="103" x2="248.492" y2="103" gradientUnits="userSpaceOnUse">
<stop stop-color="#EDEDF0"/>
<stop offset="1" stop-color="white"/>
</linearGradient>
<linearGradient id="paint16_linear_951_36042" x1="15" y1="229" x2="248.492" y2="229" gradientUnits="userSpaceOnUse">
<stop stop-color="#EDEDF0"/>
<stop offset="1" stop-color="white"/>
</linearGradient>
<linearGradient id="paint17_linear_951_36042" x1="15" y1="354" x2="248.492" y2="354" gradientUnits="userSpaceOnUse">
<stop stop-color="#EDEDF0"/>
<stop offset="1" stop-color="white"/>
</linearGradient>
<linearGradient id="paint18_linear_951_36042" x1="0" y1="0" x2="0" y2="732" gradientUnits="userSpaceOnUse">
<stop offset="0.156199" stop-color="#FAFAFB"/>
<stop offset="0.519517" stop-color="#FAFAFB" stop-opacity="0.6"/>
<stop offset="1" stop-color="#FAFAFB" stop-opacity="0"/>
</linearGradient>
</defs>
</svg>
