<svg width="282" height="152" viewBox="0 0 282 152" fill="none" xmlns="http://www.w3.org/2000/svg">
<g clip-path="url(#clip0_643_12477)">
<g filter="url(#filter0_f_643_12477)">
<path d="M94.0002 132.427C44.847 132.328 5.00048 122.683 5.00048 110.884C5.00048 99.085 44.847 89.6002 94.0002 89.699C143.153 89.7979 183 99.443 183 111.242C183 123.041 143.153 132.526 94.0002 132.427Z" fill="url(#paint0_radial_643_12477)" fill-opacity="0.16"/>
</g>
<g filter="url(#filter1_f_643_12477)">
<path d="M143.5 152.091C55.9632 151.915 -14.9995 127.076 -14.9995 96.6107C-14.9995 66.1459 55.9632 41.592 143.5 41.7681C231.037 41.9441 302 66.7835 302 97.2483C302 127.713 231.037 152.267 143.5 152.091Z" fill="url(#paint1_radial_643_12477)" fill-opacity="0.1"/>
</g>
<g opacity="0.8">
<mask id="path-3-inside-1_643_12477" fill="white">
<path d="M20.6074 39.64C20.6074 35.7519 23.7593 32.6 27.6474 32.6H255.743C259.632 32.6 262.783 35.7519 262.783 39.64V72.024C262.783 75.9121 259.632 79.064 255.743 79.064H27.6474C23.7593 79.064 20.6074 75.9121 20.6074 72.024V39.64Z"/>
</mask>
<path d="M20.6074 39.64C20.6074 35.7519 23.7593 32.6 27.6474 32.6H255.743C259.632 32.6 262.783 35.7519 262.783 39.64V72.024C262.783 75.9121 259.632 79.064 255.743 79.064H27.6474C23.7593 79.064 20.6074 75.9121 20.6074 72.024V39.64Z" fill="#1D1D21"/>
<path d="M27.6474 33.304H255.743V31.896H27.6474V33.304ZM262.079 39.64V72.024H263.487V39.64H262.079ZM255.743 78.36H27.6474V79.768H255.743V78.36ZM21.3114 72.024V39.64H19.9034V72.024H21.3114ZM27.6474 78.36C24.1481 78.36 21.3114 75.5233 21.3114 72.024H19.9034C19.9034 76.3009 23.3705 79.768 27.6474 79.768V78.36ZM262.079 72.024C262.079 75.5233 259.243 78.36 255.743 78.36V79.768C260.02 79.768 263.487 76.3009 263.487 72.024H262.079ZM255.743 33.304C259.243 33.304 262.079 36.1407 262.079 39.64H263.487C263.487 35.3631 260.02 31.896 255.743 31.896V33.304ZM27.6474 31.896C23.3705 31.896 19.9034 35.3631 19.9034 39.64H21.3114C21.3114 36.1407 24.1481 33.304 27.6474 33.304V31.896Z" fill="#2D2D31" mask="url(#path-3-inside-1_643_12477)"/>
<g opacity="0.5">
<rect x="31.873" y="42.456" width="86" height="8" rx="4" fill="#6C6C71"/>
<rect x="31.873" y="42.456" width="86" height="8" rx="4" fill="url(#paint2_linear_643_12477)"/>
</g>
</g>
<g filter="url(#filter2_f_643_12477)">
<path d="M17.5667 90.3551C18.4177 103.556 82.7933 111.79 78.5 116C74.2067 120.21 13.8069 130.393 4.73091 120.358C-4.34508 110.324 2.013 59.322 6.30631 55.1123C10.5996 50.9027 8.49073 80.3205 17.5667 90.3551Z" fill="url(#paint3_radial_643_12477)" fill-opacity="0.2"/>
</g>
<mask id="path-8-inside-2_643_12477" fill="white">
<path d="M5 66C5 61.5817 8.58172 58 13 58H270C274.418 58 278 61.5817 278 66V103C278 107.418 274.418 111 270 111H13C8.58172 111 5 107.418 5 103V66Z"/>
</mask>
<path d="M5 66C5 61.5817 8.58172 58 13 58H270C274.418 58 278 61.5817 278 66V103C278 107.418 274.418 111 270 111H13C8.58172 111 5 107.418 5 103V66Z" fill="#1D1D21"/>
<path d="M13 58.8H270V57.2H13V58.8ZM277.2 66V103H278.8V66H277.2ZM270 110.2H13V111.8H270V110.2ZM5.8 103V66H4.2V103H5.8ZM13 110.2C9.02355 110.2 5.8 106.976 5.8 103H4.2C4.2 107.86 8.13989 111.8 13 111.8V110.2ZM277.2 103C277.2 106.976 273.976 110.2 270 110.2V111.8C274.86 111.8 278.8 107.86 278.8 103H277.2ZM270 58.8C273.976 58.8 277.2 62.0236 277.2 66H278.8C278.8 61.1399 274.86 57.2 270 57.2V58.8ZM13 57.2C8.13989 57.2 4.2 61.1399 4.2 66H5.8C5.8 62.0236 9.02355 58.8 13 58.8V57.2Z" fill="#2D2D31" mask="url(#path-8-inside-2_643_12477)"/>
<path d="M13 58.8H270V57.2H13V58.8ZM277.2 66V103H278.8V66H277.2ZM270 110.2H13V111.8H270V110.2ZM5.8 103V66H4.2V103H5.8ZM13 110.2C9.02355 110.2 5.8 106.976 5.8 103H4.2C4.2 107.86 8.13989 111.8 13 111.8V110.2ZM277.2 103C277.2 106.976 273.976 110.2 270 110.2V111.8C274.86 111.8 278.8 107.86 278.8 103H277.2ZM270 58.8C273.976 58.8 277.2 62.0236 277.2 66H278.8C278.8 61.1399 274.86 57.2 270 57.2V58.8ZM13 57.2C8.13989 57.2 4.2 61.1399 4.2 66H5.8C5.8 62.0236 9.02355 58.8 13 58.8V57.2Z" fill="url(#paint4_linear_643_12477)" fill-opacity="0.4" mask="url(#path-8-inside-2_643_12477)"/>
<path d="M20.2906 80.4L18.0315 72.2545H19.3241L20.911 78.5625H20.9866L22.6371 72.2545H23.9178L25.5684 78.5664H25.644L27.2269 72.2545H28.5235L26.2604 80.4H25.0235L23.3093 74.2988H23.2457L21.5315 80.4H20.2906ZM31.5296 80.5233C30.9277 80.5233 30.4094 80.3947 29.9745 80.1375C29.5423 79.8776 29.2082 79.513 28.9723 79.0437C28.7389 78.5717 28.6223 78.0189 28.6223 77.3852C28.6223 76.7594 28.7389 76.2079 28.9723 75.7306C29.2082 75.2534 29.537 74.8808 29.9586 74.613C30.3829 74.3452 30.8787 74.2113 31.4461 74.2113C31.7908 74.2113 32.1249 74.2683 32.4484 74.3823C32.7719 74.4964 33.0622 74.6753 33.3194 74.9193C33.5766 75.1632 33.7795 75.4801 33.9279 75.8698C34.0764 76.257 34.1507 76.7276 34.1507 77.2818V77.7034H29.2944V76.8125H32.9853C32.9853 76.4996 32.9217 76.2225 32.7944 75.9812C32.6671 75.7373 32.4882 75.545 32.2575 75.4045C32.0295 75.264 31.7617 75.1937 31.4541 75.1937C31.12 75.1937 30.8283 75.2759 30.5791 75.4403C30.3325 75.602 30.1416 75.8142 30.0063 76.0767C29.8738 76.3365 29.8075 76.6189 29.8075 76.9238V77.6198C29.8075 78.0282 29.8791 78.3755 30.0223 78.6619C30.1681 78.9483 30.3709 79.167 30.6308 79.3181C30.8906 79.4666 31.1942 79.5409 31.5416 79.5409C31.767 79.5409 31.9724 79.5091 32.1581 79.4454C32.3437 79.3791 32.5041 79.281 32.6393 79.1511C32.7745 79.0212 32.8779 78.8608 32.9495 78.6698L34.0751 78.8727C33.9849 79.2041 33.8232 79.4945 33.5899 79.7437C33.3592 79.9903 33.0688 80.1825 32.7188 80.3204C32.3715 80.4556 31.9751 80.5233 31.5296 80.5233ZM38.0527 80.5233C37.4508 80.5233 36.9324 80.3947 36.4976 80.1375C36.0654 79.8776 35.7313 79.513 35.4953 79.0437C35.262 78.5717 35.1453 78.0189 35.1453 77.3852C35.1453 76.7594 35.262 76.2079 35.4953 75.7306C35.7313 75.2534 36.0601 74.8808 36.4817 74.613C36.9059 74.3452 37.4017 74.2113 37.9692 74.2113C38.3139 74.2113 38.6479 74.2683 38.9714 74.3823C39.2949 74.4964 39.5853 74.6753 39.8425 74.9193C40.0997 75.1632 40.3025 75.4801 40.451 75.8698C40.5995 76.257 40.6737 76.7276 40.6737 77.2818V77.7034H35.8175V76.8125H39.5084C39.5084 76.4996 39.4447 76.2225 39.3175 75.9812C39.1902 75.7373 39.0112 75.545 38.7805 75.4045C38.5525 75.264 38.2847 75.1937 37.9771 75.1937C37.643 75.1937 37.3514 75.2759 37.1021 75.4403C36.8555 75.602 36.6646 75.8142 36.5294 76.0767C36.3968 76.3365 36.3305 76.6189 36.3305 76.9238V77.6198C36.3305 78.0282 36.4021 78.3755 36.5453 78.6619C36.6911 78.9483 36.894 79.167 37.1538 79.3181C37.4137 79.4666 37.7173 79.5409 38.0646 79.5409C38.29 79.5409 38.4955 79.5091 38.6811 79.4454C38.8667 79.3791 39.0271 79.281 39.1623 79.1511C39.2976 79.0212 39.401 78.8608 39.4726 78.6698L40.5981 78.8727C40.508 79.2041 40.3462 79.4945 40.1129 79.7437C39.8822 79.9903 39.5919 80.1825 39.2419 80.3204C38.8945 80.4556 38.4981 80.5233 38.0527 80.5233ZM43.0365 78.3278L43.0286 76.8761H43.2354L45.6695 74.2909H47.0933L44.3172 77.2341H44.1303L43.0365 78.3278ZM41.9428 80.4V72.2545H43.132V80.4H41.9428ZM45.8007 80.4L43.6132 77.4966L44.4325 76.6653L47.2604 80.4H45.8007ZM49.3159 72.2545V80.4H48.1267V72.2545H49.3159ZM51.6171 82.6909C51.4395 82.6909 51.2777 82.6763 51.1319 82.6471C50.986 82.6206 50.8773 82.5914 50.8057 82.5596L51.0921 81.5852C51.3095 81.6435 51.5031 81.6687 51.6728 81.6608C51.8425 81.6528 51.9923 81.5892 52.1222 81.4698C52.2548 81.3505 52.3715 81.1556 52.4722 80.8852L52.6194 80.4795L50.3841 74.2909H51.6569L53.204 79.0318H53.2677L54.8148 74.2909H56.0915L53.5739 81.2153C53.4573 81.5335 53.3088 81.8026 53.1285 82.0227C52.9482 82.2454 52.7334 82.4125 52.4841 82.5238C52.2349 82.6352 51.9459 82.6909 51.6171 82.6909ZM60.1679 80.4V72.2545H61.3571V75.2812H61.4287C61.4976 75.1539 61.597 75.0068 61.727 74.8397C61.8569 74.6727 62.0372 74.5269 62.2679 74.4022C62.4985 74.275 62.8035 74.2113 63.1826 74.2113C63.6758 74.2113 64.116 74.3359 64.5031 74.5852C64.8902 74.8344 65.1938 75.1937 65.4139 75.663C65.6366 76.1323 65.748 76.6971 65.748 77.3573C65.748 78.0176 65.6379 78.5837 65.4179 79.0556C65.1978 79.525 64.8955 79.8869 64.511 80.1414C64.1266 80.3933 63.6878 80.5193 63.1946 80.5193C62.8234 80.5193 62.5198 80.457 62.2838 80.3323C62.0504 80.2077 61.8675 80.0619 61.7349 79.8948C61.6023 79.7278 61.5003 79.5793 61.4287 79.4494H61.3292V80.4H60.1679ZM61.3332 77.3454C61.3332 77.775 61.3955 78.1515 61.5201 78.475C61.6448 78.7984 61.8251 79.0517 62.061 79.2346C62.297 79.4149 62.586 79.5051 62.9281 79.5051C63.2834 79.5051 63.5804 79.4109 63.819 79.2227C64.0576 79.0318 64.2379 78.7733 64.3599 78.4471C64.4845 78.121 64.5468 77.7538 64.5468 77.3454C64.5468 76.9424 64.4859 76.5805 64.3639 76.2596C64.2446 75.9388 64.0643 75.6856 63.823 75.5C63.5843 75.3144 63.286 75.2216 62.9281 75.2216C62.5834 75.2216 62.2917 75.3104 62.0531 75.488C61.8171 75.6657 61.6381 75.9136 61.5162 76.2318C61.3942 76.55 61.3332 76.9212 61.3332 77.3454ZM68.8108 80.5352C68.4237 80.5352 68.0737 80.4636 67.7608 80.3204C67.4479 80.1746 67.2 79.9638 67.017 79.688C66.8367 79.4123 66.7466 79.0742 66.7466 78.6738C66.7466 78.3291 66.8129 78.0454 66.9454 77.8227C67.078 77.6 67.257 77.4236 67.4824 77.2937C67.7078 77.1638 67.9597 77.0657 68.2381 76.9994C68.5165 76.9331 68.8002 76.8827 69.0892 76.8483C69.4551 76.8058 69.7521 76.7714 69.9801 76.7448C70.2081 76.7157 70.3739 76.6693 70.4773 76.6056C70.5807 76.542 70.6324 76.4386 70.6324 76.2954V76.2676C70.6324 75.9202 70.5343 75.6511 70.3381 75.4602C70.1445 75.2693 69.8555 75.1738 69.471 75.1738C69.0706 75.1738 68.7551 75.2627 68.5244 75.4403C68.2964 75.6153 68.1386 75.8102 68.0511 76.025L66.9335 75.7704C67.0661 75.3992 67.2597 75.0996 67.5142 74.8716C67.7714 74.6409 68.067 74.4738 68.4011 74.3704C68.7352 74.2644 69.0865 74.2113 69.4551 74.2113C69.699 74.2113 69.9576 74.2405 70.2307 74.2988C70.5064 74.3545 70.7636 74.4579 71.0023 74.6091C71.2436 74.7602 71.4411 74.9763 71.5949 75.2573C71.7487 75.5358 71.8256 75.8977 71.8256 76.3431V80.4H70.6642V79.5647H70.6165C70.5396 79.7185 70.4242 79.8697 70.2704 80.0181C70.1167 80.1666 69.9191 80.2899 69.6778 80.388C69.4365 80.4861 69.1475 80.5352 68.8108 80.5352ZM69.0693 79.5806C69.3981 79.5806 69.6792 79.5157 69.9125 79.3858C70.1485 79.2558 70.3275 79.0861 70.4494 78.8767C70.574 78.6645 70.6364 78.4378 70.6364 78.1966V77.4091C70.5939 77.4515 70.5117 77.4913 70.3898 77.5284C70.2704 77.5628 70.1339 77.5933 69.9801 77.6198C69.8263 77.6437 69.6765 77.6663 69.5307 77.6875C69.3848 77.706 69.2629 77.7219 69.1648 77.7352C68.9341 77.7644 68.7233 77.8134 68.5324 77.8823C68.3441 77.9513 68.193 78.0507 68.079 78.1806C67.9676 78.3079 67.9119 78.4776 67.9119 78.6897C67.9119 78.9841 68.0206 79.2068 68.2381 79.3579C68.4555 79.5064 68.7326 79.5806 69.0693 79.5806ZM75.9324 80.5233C75.3411 80.5233 74.832 80.3894 74.4051 80.1216C73.9809 79.8511 73.6548 79.4786 73.4267 79.0039C73.1987 78.5293 73.0847 77.9858 73.0847 77.3733C73.0847 76.7528 73.2013 76.2053 73.4347 75.7306C73.668 75.2534 73.9968 74.8808 74.421 74.613C74.8453 74.3452 75.3451 74.2113 75.9205 74.2113C76.3845 74.2113 76.7981 74.2975 77.1614 74.4698C77.5246 74.6395 77.8176 74.8782 78.0404 75.1858C78.2657 75.4933 78.3996 75.8526 78.4421 76.2636H77.2847C77.221 75.9772 77.0752 75.7306 76.8472 75.5238C76.6218 75.317 76.3195 75.2136 75.9404 75.2136C75.6089 75.2136 75.3186 75.3011 75.0693 75.4761C74.8227 75.6484 74.6305 75.895 74.4926 76.2159C74.3548 76.5341 74.2858 76.9106 74.2858 77.3454C74.2858 77.7909 74.3534 78.1753 74.4887 78.4988C74.6239 78.8223 74.8148 79.0729 75.0614 79.2505C75.3106 79.4282 75.6036 79.517 75.9404 79.517C76.1657 79.517 76.3699 79.4759 76.5529 79.3937C76.7385 79.3089 76.8936 79.1882 77.0182 79.0318C77.1455 78.8753 77.2343 78.6871 77.2847 78.467H78.4421C78.3996 78.8621 78.271 79.2147 78.0563 79.525C77.8415 79.8352 77.5538 80.0791 77.1932 80.2568C76.8352 80.4344 76.415 80.5233 75.9324 80.5233ZM80.7571 78.3278L80.7492 76.8761H80.956L83.3901 74.2909H84.814L82.0378 77.2341H81.8509L80.7571 78.3278ZM79.6634 80.4V72.2545H80.8526V80.4H79.6634ZM83.5214 80.4L81.3339 77.4966L82.1532 76.6653L84.981 80.4H83.5214ZM89.7173 77.8664V74.2909H90.9104V80.4H89.7411V79.342H89.6775C89.537 79.6681 89.3116 79.9399 89.0014 80.1573C88.6938 80.3721 88.3106 80.4795 87.8519 80.4795C87.4595 80.4795 87.1121 80.3933 86.8099 80.221C86.5103 80.046 86.2743 79.7875 86.1019 79.4454C85.9322 79.1034 85.8474 78.6805 85.8474 78.1767V74.2909H87.0366V78.0335C87.0366 78.4498 87.1519 78.7812 87.3826 79.0278C87.6133 79.2744 87.9129 79.3977 88.2815 79.3977C88.5042 79.3977 88.7256 79.342 88.9457 79.2306C89.1684 79.1193 89.3527 78.9509 89.4985 78.7255C89.647 78.5002 89.7199 78.2138 89.7173 77.8664ZM92.4579 82.6909V74.2909H93.6193V75.2812H93.7187C93.7876 75.1539 93.8871 75.0068 94.017 74.8397C94.1469 74.6727 94.3272 74.5269 94.5579 74.4022C94.7886 74.275 95.0935 74.2113 95.4727 74.2113C95.9659 74.2113 96.406 74.3359 96.7931 74.5852C97.1803 74.8344 97.4839 75.1937 97.7039 75.663C97.9267 76.1323 98.038 76.6971 98.038 77.3573C98.038 78.0176 97.928 78.5837 97.7079 79.0556C97.4878 79.525 97.1856 79.8869 96.8011 80.1414C96.4166 80.3933 95.9778 80.5193 95.4846 80.5193C95.1134 80.5193 94.8098 80.457 94.5738 80.3323C94.3405 80.2077 94.1575 80.0619 94.025 79.8948C93.8924 79.7278 93.7903 79.5793 93.7187 79.4494H93.6471V82.6909H92.4579ZM93.6233 77.3454C93.6233 77.775 93.6856 78.1515 93.8102 78.475C93.9348 78.7984 94.1151 79.0517 94.3511 79.2346C94.5871 79.4149 94.8761 79.5051 95.2181 79.5051C95.5734 79.5051 95.8704 79.4109 96.109 79.2227C96.3477 79.0318 96.528 78.7733 96.65 78.4471C96.7746 78.121 96.8369 77.7538 96.8369 77.3454C96.8369 76.9424 96.7759 76.5805 96.6539 76.2596C96.5346 75.9388 96.3543 75.6856 96.113 75.5C95.8744 75.3144 95.5761 75.2216 95.2181 75.2216C94.8734 75.2216 94.5818 75.3104 94.3431 75.488C94.1072 75.6657 93.9282 75.9136 93.8062 76.2318C93.6842 76.55 93.6233 76.9212 93.6233 77.3454Z" fill="#C3C3C6"/>
<g opacity="0.8">
<path d="M18.6462 97.4V90.4181H21.0053C21.5508 90.4181 21.9985 90.5113 22.3485 90.6977C22.6985 90.8818 22.9576 91.1352 23.1258 91.4579C23.294 91.7806 23.3781 92.1477 23.3781 92.5591C23.3781 92.9704 23.294 93.3352 23.1258 93.6534C22.9576 93.9716 22.6996 94.2216 22.3519 94.4034C22.0042 94.5829 21.5599 94.6727 21.019 94.6727H19.1099V93.9091H20.9917C21.3644 93.9091 21.6644 93.8545 21.8917 93.7454C22.1212 93.6363 22.2871 93.4818 22.3894 93.2818C22.494 93.0795 22.5462 92.8386 22.5462 92.5591C22.5462 92.2795 22.494 92.0352 22.3894 91.8261C22.2849 91.617 22.1178 91.4556 21.8883 91.342C21.6587 91.2261 21.3553 91.1681 20.9781 91.1681H19.4917V97.4H18.6462ZM21.9326 94.2636L23.6508 97.4H22.669L20.9781 94.2636H21.9326ZM27.8818 95.2591V92.1636H28.6863V97.4H27.8818V96.5136H27.8272C27.7045 96.7795 27.5136 97.0056 27.2545 97.192C26.9954 97.3761 26.6681 97.4681 26.2727 97.4681C25.9454 97.4681 25.6545 97.3966 25.4 97.2534C25.1454 97.1079 24.9454 96.8897 24.8 96.5988C24.6545 96.3056 24.5818 95.9363 24.5818 95.4909V92.1636H25.3863V95.4363C25.3863 95.8181 25.4931 96.1227 25.7068 96.35C25.9227 96.5772 26.1977 96.6909 26.5318 96.6909C26.7318 96.6909 26.9352 96.6397 27.142 96.5375C27.3511 96.4352 27.5261 96.2784 27.667 96.067C27.8102 95.8556 27.8818 95.5863 27.8818 95.2591ZM30.8684 94.25V97.4H30.0639V92.1636H30.8412V92.9818H30.9094C31.0321 92.7159 31.2184 92.5022 31.4684 92.3409C31.7184 92.1772 32.0412 92.0954 32.4366 92.0954C32.7912 92.0954 33.1014 92.1681 33.3673 92.3136C33.6332 92.4568 33.84 92.675 33.9878 92.9681C34.1355 93.2591 34.2094 93.6272 34.2094 94.0727V97.4H33.4048V94.1272C33.4048 93.7159 33.298 93.3954 33.0844 93.1659C32.8707 92.9341 32.5775 92.8181 32.2048 92.8181C31.948 92.8181 31.7184 92.8738 31.5162 92.9852C31.3162 93.0966 31.1582 93.2591 31.0423 93.4727C30.9264 93.6863 30.8684 93.9454 30.8684 94.25ZM39.2926 93.3363L38.5699 93.5409C38.5244 93.4204 38.4574 93.3034 38.3687 93.1897C38.2824 93.0738 38.1642 92.9784 38.0142 92.9034C37.8642 92.8284 37.6722 92.7909 37.4381 92.7909C37.1176 92.7909 36.8506 92.8647 36.6369 93.0125C36.4256 93.1579 36.3199 93.3431 36.3199 93.5681C36.3199 93.7681 36.3926 93.9261 36.5381 94.042C36.6835 94.1579 36.9108 94.2545 37.2199 94.3318L37.9972 94.5227C38.4653 94.6363 38.8142 94.8102 39.0437 95.0443C39.2733 95.2761 39.3881 95.575 39.3881 95.9409C39.3881 96.2409 39.3017 96.5091 39.129 96.7454C38.9585 96.9818 38.7199 97.1681 38.4131 97.3045C38.1062 97.4409 37.7494 97.5091 37.3426 97.5091C36.8085 97.5091 36.3665 97.3931 36.0165 97.1613C35.6665 96.9295 35.4449 96.5909 35.3517 96.1454L36.1153 95.9545C36.1881 96.2363 36.3256 96.4477 36.5278 96.5886C36.7324 96.7295 36.9994 96.8 37.329 96.8C37.704 96.8 38.0017 96.7204 38.2222 96.5613C38.4449 96.4 38.5562 96.2068 38.5562 95.9818C38.5562 95.8 38.4926 95.6477 38.3653 95.525C38.2381 95.4 38.0426 95.3068 37.779 95.2454L36.9062 95.0409C36.4267 94.9272 36.0744 94.7511 35.8494 94.5125C35.6267 94.2716 35.5153 93.9704 35.5153 93.6091C35.5153 93.3136 35.5983 93.0522 35.7642 92.825C35.9324 92.5977 36.1608 92.4193 36.4494 92.2897C36.7403 92.1602 37.0699 92.0954 37.4381 92.0954C37.9562 92.0954 38.3631 92.2091 38.6585 92.4363C38.9562 92.6636 39.1676 92.9636 39.2926 93.3363ZM44.2935 97.4L42.6981 92.1636H43.5435L44.6753 96.1727H44.7299L45.8481 92.1636H46.7071L47.8117 96.1591H47.8662L48.9981 92.1636H49.8435L48.2481 97.4H47.4571L46.3117 93.3772H46.2299L45.0844 97.4H44.2935ZM52.8285 97.5091C52.3239 97.5091 51.8887 97.3977 51.5228 97.175C51.1592 96.95 50.8785 96.6363 50.6807 96.2341C50.4853 95.8295 50.3876 95.3591 50.3876 94.8227C50.3876 94.2863 50.4853 93.8136 50.6807 93.4045C50.8785 92.9931 51.1535 92.6727 51.5057 92.4431C51.8603 92.2113 52.2739 92.0954 52.7467 92.0954C53.0194 92.0954 53.2887 92.1409 53.5546 92.2318C53.8205 92.3227 54.0626 92.4704 54.2807 92.675C54.4989 92.8772 54.6728 93.1454 54.8023 93.4795C54.9319 93.8136 54.9967 94.225 54.9967 94.7136V95.0545H50.9603V94.3591H54.1785C54.1785 94.0636 54.1194 93.8 54.0012 93.5681C53.8853 93.3363 53.7194 93.1534 53.5035 93.0193C53.2898 92.8852 53.0376 92.8181 52.7467 92.8181C52.4262 92.8181 52.1489 92.8977 51.9148 93.0568C51.683 93.2136 51.5046 93.4181 51.3796 93.6704C51.2546 93.9227 51.1921 94.1931 51.1921 94.4818V94.9454C51.1921 95.3409 51.2603 95.6761 51.3967 95.9511C51.5353 96.2238 51.7273 96.4318 51.9728 96.575C52.2182 96.7159 52.5035 96.7863 52.8285 96.7863C53.0398 96.7863 53.2307 96.7568 53.4012 96.6977C53.5739 96.6363 53.7228 96.5454 53.8478 96.425C53.9728 96.3022 54.0694 96.15 54.1376 95.9681L54.9148 96.1863C54.833 96.45 54.6955 96.6818 54.5023 96.8818C54.3092 97.0795 54.0705 97.2341 53.7864 97.3454C53.5023 97.4545 53.183 97.5091 52.8285 97.5091ZM58.32 97.5091C57.8154 97.5091 57.3802 97.3977 57.0143 97.175C56.6507 96.95 56.37 96.6363 56.1722 96.2341C55.9768 95.8295 55.8791 95.3591 55.8791 94.8227C55.8791 94.2863 55.9768 93.8136 56.1722 93.4045C56.37 92.9931 56.645 92.6727 56.9972 92.4431C57.3518 92.2113 57.7654 92.0954 58.2382 92.0954C58.5109 92.0954 58.7802 92.1409 59.0461 92.2318C59.312 92.3227 59.5541 92.4704 59.7722 92.675C59.9904 92.8772 60.1643 93.1454 60.2938 93.4795C60.4234 93.8136 60.4882 94.225 60.4882 94.7136V95.0545H56.4518V94.3591H59.67C59.67 94.0636 59.6109 93.8 59.4927 93.5681C59.3768 93.3363 59.2109 93.1534 58.995 93.0193C58.7813 92.8852 58.5291 92.8181 58.2382 92.8181C57.9177 92.8181 57.6404 92.8977 57.4063 93.0568C57.1745 93.2136 56.9961 93.4181 56.8711 93.6704C56.7461 93.9227 56.6836 94.1931 56.6836 94.4818V94.9454C56.6836 95.3409 56.7518 95.6761 56.8882 95.9511C57.0268 96.2238 57.2188 96.4318 57.4643 96.575C57.7097 96.7159 57.995 96.7863 58.32 96.7863C58.5313 96.7863 58.7222 96.7568 58.8927 96.6977C59.0654 96.6363 59.2143 96.5454 59.3393 96.425C59.4643 96.3022 59.5609 96.15 59.6291 95.9681L60.4063 96.1863C60.3245 96.45 60.187 96.6818 59.9938 96.8818C59.8007 97.0795 59.562 97.2341 59.2779 97.3454C58.9938 97.4545 58.6745 97.5091 58.32 97.5091ZM62.366 95.4909L62.3524 94.4954H62.516L64.8069 92.1636H65.8024L63.3615 94.6318H63.2933L62.366 95.4909ZM61.616 97.4V90.4181H62.4206V97.4H61.616ZM64.9433 97.4L62.8978 94.8091L63.4706 94.25L65.966 97.4H64.9433ZM67.5464 90.4181V97.4H66.7419V90.4181H67.5464ZM69.4422 99.3636C69.3058 99.3636 69.1842 99.3522 69.0774 99.3295C68.9706 99.3091 68.8967 99.2886 68.8558 99.2681L69.0604 98.5591C69.2558 98.6091 69.4286 98.6272 69.5786 98.6136C69.7286 98.6 69.8615 98.5329 69.9774 98.4125C70.0956 98.2943 70.2036 98.1022 70.3013 97.8363L70.4513 97.4272L68.5149 92.1636H69.3877L70.8331 96.3363H70.8877L72.3331 92.1636H73.2058L70.9831 98.1636C70.8831 98.4341 70.7592 98.6579 70.6115 98.8352C70.4638 99.0147 70.2922 99.1477 70.0967 99.2341C69.9036 99.3204 69.6854 99.3636 69.4422 99.3636ZM78.903 97.5091C78.4303 97.5091 78.0155 97.3966 77.6587 97.1716C77.3042 96.9466 77.0269 96.6318 76.8269 96.2272C76.6292 95.8227 76.5303 95.35 76.5303 94.8091C76.5303 94.2636 76.6292 93.7875 76.8269 93.3806C77.0269 92.9738 77.3042 92.6579 77.6587 92.4329C78.0155 92.2079 78.4303 92.0954 78.903 92.0954C79.3758 92.0954 79.7894 92.2079 80.144 92.4329C80.5008 92.6579 80.778 92.9738 80.9758 93.3806C81.1758 93.7875 81.2758 94.2636 81.2758 94.8091C81.2758 95.35 81.1758 95.8227 80.9758 96.2272C80.778 96.6318 80.5008 96.9466 80.144 97.1716C79.7894 97.3966 79.3758 97.5091 78.903 97.5091ZM78.903 96.7863C79.2621 96.7863 79.5576 96.6943 79.7894 96.5102C80.0212 96.3261 80.1928 96.0841 80.3042 95.7841C80.4155 95.4841 80.4712 95.1591 80.4712 94.8091C80.4712 94.4591 80.4155 94.1329 80.3042 93.8306C80.1928 93.5284 80.0212 93.2841 79.7894 93.0977C79.5576 92.9113 79.2621 92.8181 78.903 92.8181C78.544 92.8181 78.2485 92.9113 78.0167 93.0977C77.7849 93.2841 77.6133 93.5284 77.5019 93.8306C77.3905 94.1329 77.3349 94.4591 77.3349 94.8091C77.3349 95.1591 77.3905 95.4841 77.5019 95.7841C77.6133 96.0841 77.7849 96.3261 78.0167 96.5102C78.2485 96.6943 78.544 96.7863 78.903 96.7863ZM83.2124 94.25V97.4H82.4079V92.1636H83.1852V92.9818H83.2533C83.3761 92.7159 83.5624 92.5022 83.8124 92.3409C84.0624 92.1772 84.3852 92.0954 84.7806 92.0954C85.1352 92.0954 85.4454 92.1681 85.7113 92.3136C85.9772 92.4568 86.184 92.675 86.3318 92.9681C86.4795 93.2591 86.5534 93.6272 86.5534 94.0727V97.4H85.7488V94.1272C85.7488 93.7159 85.642 93.3954 85.4284 93.1659C85.2147 92.9341 84.9215 92.8181 84.5488 92.8181C84.292 92.8181 84.0624 92.8738 83.8602 92.9852C83.6602 93.0966 83.5022 93.2591 83.3863 93.4727C83.2704 93.6863 83.2124 93.9454 83.2124 94.25ZM90.6406 90.4181H91.6497L94.0224 96.2136H94.1042L96.477 90.4181H97.4861V97.4H96.6952V92.0954H96.627L94.4452 97.4H93.6815L91.4997 92.0954H91.4315V97.4H90.6406V90.4181ZM101.103 97.5091C100.631 97.5091 100.216 97.3966 99.8591 97.1716C99.5046 96.9466 99.2273 96.6318 99.0273 96.2272C98.8296 95.8227 98.7307 95.35 98.7307 94.8091C98.7307 94.2636 98.8296 93.7875 99.0273 93.3806C99.2273 92.9738 99.5046 92.6579 99.8591 92.4329C100.216 92.2079 100.631 92.0954 101.103 92.0954C101.576 92.0954 101.99 92.2079 102.344 92.4329C102.701 92.6579 102.978 92.9738 103.176 93.3806C103.376 93.7875 103.476 94.2636 103.476 94.8091C103.476 95.35 103.376 95.8227 103.176 96.2272C102.978 96.6318 102.701 96.9466 102.344 97.1716C101.99 97.3966 101.576 97.5091 101.103 97.5091ZM101.103 96.7863C101.463 96.7863 101.758 96.6943 101.99 96.5102C102.222 96.3261 102.393 96.0841 102.505 95.7841C102.616 95.4841 102.672 95.1591 102.672 94.8091C102.672 94.4591 102.616 94.1329 102.505 93.8306C102.393 93.5284 102.222 93.2841 101.99 93.0977C101.758 92.9113 101.463 92.8181 101.103 92.8181C100.744 92.8181 100.449 92.9113 100.217 93.0977C99.9852 93.2841 99.8136 93.5284 99.7023 93.8306C99.5909 94.1329 99.5352 94.4591 99.5352 94.8091C99.5352 95.1591 99.5909 95.4841 99.7023 95.7841C99.8136 96.0841 99.9852 96.3261 100.217 96.5102C100.449 96.6943 100.744 96.7863 101.103 96.7863ZM105.413 94.25V97.4H104.608V92.1636H105.386V92.9818H105.454C105.576 92.7159 105.763 92.5022 106.013 92.3409C106.263 92.1772 106.586 92.0954 106.981 92.0954C107.336 92.0954 107.646 92.1681 107.912 92.3136C108.178 92.4568 108.384 92.675 108.532 92.9681C108.68 93.2591 108.754 93.6272 108.754 94.0727V97.4H107.949V94.1272C107.949 93.7159 107.842 93.3954 107.629 93.1659C107.415 92.9341 107.122 92.8181 106.749 92.8181C106.492 92.8181 106.263 92.8738 106.061 92.9852C105.861 93.0966 105.703 93.2591 105.587 93.4727C105.471 93.6863 105.413 93.9454 105.413 94.25ZM112.105 97.5091C111.669 97.5091 111.284 97.3988 110.949 97.1784C110.615 96.9556 110.354 96.642 110.165 96.2375C109.977 95.8306 109.882 95.35 109.882 94.7954C109.882 94.2454 109.977 93.7681 110.165 93.3636C110.354 92.9591 110.617 92.6466 110.953 92.4261C111.289 92.2056 111.678 92.0954 112.119 92.0954C112.46 92.0954 112.729 92.1522 112.927 92.2659C113.127 92.3772 113.279 92.5045 113.384 92.6477C113.49 92.7886 113.573 92.9045 113.632 92.9954H113.701V90.4181H114.505V97.4H113.728V96.5954H113.632C113.573 96.6909 113.489 96.8113 113.38 96.9568C113.271 97.1 113.115 97.2284 112.913 97.342C112.711 97.4534 112.442 97.5091 112.105 97.5091ZM112.214 96.7863C112.537 96.7863 112.81 96.7022 113.032 96.5341C113.255 96.3636 113.424 96.1284 113.54 95.8284C113.656 95.5261 113.714 95.1772 113.714 94.7818C113.714 94.3909 113.657 94.0488 113.544 93.7556C113.43 93.4602 113.262 93.2306 113.039 93.067C112.817 92.9011 112.542 92.8181 112.214 92.8181C111.873 92.8181 111.589 92.9056 111.362 93.0806C111.137 93.2534 110.968 93.4886 110.854 93.7863C110.743 94.0818 110.687 94.4136 110.687 94.7818C110.687 95.1545 110.744 95.4931 110.857 95.7977C110.973 96.1 111.144 96.3409 111.369 96.5204C111.596 96.6977 111.878 96.7863 112.214 96.7863ZM117.535 97.5227C117.203 97.5227 116.902 97.4602 116.632 97.3352C116.361 97.2079 116.147 97.025 115.988 96.7863C115.828 96.5454 115.749 96.2545 115.749 95.9136C115.749 95.6136 115.808 95.3704 115.926 95.1841C116.044 94.9954 116.202 94.8477 116.4 94.7409C116.598 94.6341 116.816 94.5545 117.055 94.5022C117.296 94.4477 117.538 94.4045 117.781 94.3727C118.099 94.3318 118.357 94.3011 118.555 94.2806C118.755 94.2579 118.9 94.2204 118.991 94.1681C119.084 94.1159 119.131 94.025 119.131 93.8954V93.8681C119.131 93.5318 119.039 93.2704 118.855 93.0841C118.673 92.8977 118.397 92.8045 118.026 92.8045C117.642 92.8045 117.341 92.8886 117.123 93.0568C116.905 93.225 116.751 93.4045 116.663 93.5954L115.899 93.3227C116.035 93.0045 116.217 92.7568 116.444 92.5795C116.674 92.4 116.924 92.275 117.194 92.2045C117.467 92.1318 117.735 92.0954 117.999 92.0954C118.167 92.0954 118.36 92.1159 118.578 92.1568C118.799 92.1954 119.011 92.2761 119.216 92.3988C119.423 92.5216 119.594 92.7068 119.731 92.9545C119.867 93.2022 119.935 93.5341 119.935 93.95V97.4H119.131V96.6909H119.09C119.035 96.8045 118.944 96.9261 118.817 97.0556C118.69 97.1852 118.521 97.2954 118.309 97.3863C118.098 97.4772 117.84 97.5227 117.535 97.5227ZM117.658 96.8C117.976 96.8 118.244 96.7375 118.463 96.6125C118.683 96.4875 118.849 96.3261 118.96 96.1284C119.074 95.9306 119.131 95.7227 119.131 95.5045V94.7681C119.097 94.8091 119.022 94.8466 118.906 94.8806C118.792 94.9125 118.66 94.9409 118.51 94.9659C118.363 94.9886 118.218 95.0091 118.077 95.0272C117.939 95.0431 117.826 95.0568 117.74 95.0681C117.531 95.0954 117.335 95.1397 117.153 95.2011C116.974 95.2602 116.828 95.35 116.717 95.4704C116.608 95.5886 116.553 95.75 116.553 95.9545C116.553 96.2341 116.657 96.4454 116.864 96.5886C117.073 96.7295 117.338 96.8 117.658 96.8ZM121.638 99.3636C121.502 99.3636 121.381 99.3522 121.274 99.3295C121.167 99.3091 121.093 99.2886 121.052 99.2681L121.257 98.5591C121.452 98.6091 121.625 98.6272 121.775 98.6136C121.925 98.6 122.058 98.5329 122.174 98.4125C122.292 98.2943 122.4 98.1022 122.498 97.8363L122.648 97.4272L120.711 92.1636H121.584L123.029 96.3363H123.084L124.529 92.1636H125.402L123.179 98.1636C123.079 98.4341 122.956 98.6579 122.808 98.8352C122.66 99.0147 122.488 99.1477 122.293 99.2341C122.1 99.3204 121.882 99.3636 121.638 99.3636ZM130.077 93.3363L129.354 93.5409C129.309 93.4204 129.242 93.3034 129.153 93.1897C129.067 93.0738 128.949 92.9784 128.799 92.9034C128.649 92.8284 128.457 92.7909 128.223 92.7909C127.902 92.7909 127.635 92.8647 127.421 93.0125C127.21 93.1579 127.104 93.3431 127.104 93.5681C127.104 93.7681 127.177 93.9261 127.323 94.042C127.468 94.1579 127.695 94.2545 128.004 94.3318L128.782 94.5227C129.25 94.6363 129.599 94.8102 129.828 95.0443C130.058 95.2761 130.173 95.575 130.173 95.9409C130.173 96.2409 130.086 96.5091 129.913 96.7454C129.743 96.9818 129.504 97.1681 129.198 97.3045C128.891 97.4409 128.534 97.5091 128.127 97.5091C127.593 97.5091 127.151 97.3931 126.801 97.1613C126.451 96.9295 126.229 96.5909 126.136 96.1454L126.9 95.9545C126.973 96.2363 127.11 96.4477 127.312 96.5886C127.517 96.7295 127.784 96.8 128.113 96.8C128.488 96.8 128.786 96.7204 129.007 96.5613C129.229 96.4 129.341 96.2068 129.341 95.9818C129.341 95.8 129.277 95.6477 129.15 95.525C129.023 95.4 128.827 95.3068 128.563 95.2454L127.691 95.0409C127.211 94.9272 126.859 94.7511 126.634 94.5125C126.411 94.2716 126.3 93.9704 126.3 93.6091C126.3 93.3136 126.383 93.0522 126.549 92.825C126.717 92.5977 126.945 92.4193 127.234 92.2897C127.525 92.1602 127.854 92.0954 128.223 92.0954C128.741 92.0954 129.148 92.2091 129.443 92.4363C129.741 92.6636 129.952 92.9636 130.077 93.3363Z" fill="#818186"/>
<circle cx="136.402" cy="94.4" r="0.8" fill="#818186"/>
<path d="M142.845 97.4V90.4181H145.205C145.75 90.4181 146.198 90.5113 146.548 90.6977C146.898 90.8818 147.157 91.1352 147.325 91.4579C147.493 91.7806 147.577 92.1477 147.577 92.5591C147.577 92.9704 147.493 93.3352 147.325 93.6534C147.157 93.9716 146.899 94.2216 146.551 94.4034C146.203 94.5829 145.759 94.6727 145.218 94.6727H143.309V93.9091H145.191C145.564 93.9091 145.864 93.8545 146.091 93.7454C146.32 93.6363 146.486 93.4818 146.589 93.2818C146.693 93.0795 146.745 92.8386 146.745 92.5591C146.745 92.2795 146.693 92.0352 146.589 91.8261C146.484 91.617 146.317 91.4556 146.088 91.342C145.858 91.2261 145.555 91.1681 145.177 91.1681H143.691V97.4H142.845ZM146.132 94.2636L147.85 97.4H146.868L145.177 94.2636H146.132ZM150.92 97.5091C150.416 97.5091 149.98 97.3977 149.615 97.175C149.251 96.95 148.97 96.6363 148.772 96.2341C148.577 95.8295 148.479 95.3591 148.479 94.8227C148.479 94.2863 148.577 93.8136 148.772 93.4045C148.97 92.9931 149.245 92.6727 149.597 92.4431C149.952 92.2113 150.366 92.0954 150.838 92.0954C151.111 92.0954 151.38 92.1409 151.646 92.2318C151.912 92.3227 152.154 92.4704 152.372 92.675C152.591 92.8772 152.765 93.1454 152.894 93.4795C153.024 93.8136 153.088 94.225 153.088 94.7136V95.0545H149.052V94.3591H152.27C152.27 94.0636 152.211 93.8 152.093 93.5681C151.977 93.3363 151.811 93.1534 151.595 93.0193C151.382 92.8852 151.129 92.8181 150.838 92.8181C150.518 92.8181 150.241 92.8977 150.007 93.0568C149.775 93.2136 149.596 93.4181 149.471 93.6704C149.346 93.9227 149.284 94.1931 149.284 94.4818V94.9454C149.284 95.3409 149.352 95.6761 149.488 95.9511C149.627 96.2238 149.819 96.4318 150.065 96.575C150.31 96.7159 150.595 96.7863 150.92 96.7863C151.132 96.7863 151.322 96.7568 151.493 96.6977C151.666 96.6363 151.815 96.5454 151.94 96.425C152.065 96.3022 152.161 96.15 152.229 95.9681L153.007 96.1863C152.925 96.45 152.787 96.6818 152.594 96.8818C152.401 97.0795 152.162 97.2341 151.878 97.3454C151.594 97.4545 151.275 97.5091 150.92 97.5091ZM156.494 92.1636V92.8454H153.78V92.1636H156.494ZM154.571 90.9091H155.375V95.9C155.375 96.1272 155.408 96.2977 155.474 96.4113C155.542 96.5227 155.629 96.5977 155.733 96.6363C155.84 96.6727 155.953 96.6909 156.071 96.6909C156.159 96.6909 156.232 96.6863 156.289 96.6772C156.346 96.6659 156.391 96.6568 156.425 96.65L156.589 97.3727C156.534 97.3931 156.458 97.4136 156.361 97.4341C156.263 97.4568 156.139 97.4681 155.989 97.4681C155.762 97.4681 155.539 97.4193 155.321 97.3216C155.105 97.2238 154.925 97.075 154.782 96.875C154.641 96.675 154.571 96.4227 154.571 96.1181V90.9091ZM159.149 97.5227C158.817 97.5227 158.516 97.4602 158.245 97.3352C157.975 97.2079 157.76 97.025 157.601 96.7863C157.442 96.5454 157.362 96.2545 157.362 95.9136C157.362 95.6136 157.421 95.3704 157.54 95.1841C157.658 94.9954 157.816 94.8477 158.013 94.7409C158.211 94.6341 158.429 94.5545 158.668 94.5022C158.909 94.4477 159.151 94.4045 159.394 94.3727C159.712 94.3318 159.97 94.3011 160.168 94.2806C160.368 94.2579 160.513 94.2204 160.604 94.1681C160.698 94.1159 160.744 94.025 160.744 93.8954V93.8681C160.744 93.5318 160.652 93.2704 160.468 93.0841C160.286 92.8977 160.01 92.8045 159.64 92.8045C159.255 92.8045 158.954 92.8886 158.736 93.0568C158.518 93.225 158.365 93.4045 158.276 93.5954L157.512 93.3227C157.649 93.0045 157.83 92.7568 158.058 92.5795C158.287 92.4 158.537 92.275 158.808 92.2045C159.08 92.1318 159.349 92.0954 159.612 92.0954C159.78 92.0954 159.974 92.1159 160.192 92.1568C160.412 92.1954 160.625 92.2761 160.829 92.3988C161.036 92.5216 161.208 92.7068 161.344 92.9545C161.48 93.2022 161.549 93.5341 161.549 93.95V97.4H160.744V96.6909H160.703C160.649 96.8045 160.558 96.9261 160.43 97.0556C160.303 97.1852 160.134 97.2954 159.923 97.3863C159.711 97.4772 159.453 97.5227 159.149 97.5227ZM159.271 96.8C159.59 96.8 159.858 96.7375 160.076 96.6125C160.296 96.4875 160.462 96.3261 160.574 96.1284C160.687 95.9306 160.744 95.7227 160.744 95.5045V94.7681C160.71 94.8091 160.635 94.8466 160.519 94.8806C160.405 94.9125 160.274 94.9409 160.124 94.9659C159.976 94.9886 159.832 95.0091 159.691 95.0272C159.552 95.0431 159.44 95.0568 159.353 95.0681C159.144 95.0954 158.949 95.1397 158.767 95.2011C158.587 95.2602 158.442 95.35 158.33 95.4704C158.221 95.5886 158.167 95.75 158.167 95.9545C158.167 96.2341 158.27 96.4454 158.477 96.5886C158.686 96.7295 158.951 96.8 159.271 96.8ZM162.921 97.4V92.1636H163.726V97.4H162.921ZM163.33 91.2909C163.173 91.2909 163.038 91.2375 162.925 91.1306C162.813 91.0238 162.757 90.8954 162.757 90.7454C162.757 90.5954 162.813 90.467 162.925 90.3602C163.038 90.2534 163.173 90.2 163.33 90.2C163.487 90.2 163.621 90.2534 163.732 90.3602C163.846 90.467 163.903 90.5954 163.903 90.7454C163.903 90.8954 163.846 91.0238 163.732 91.1306C163.621 91.2375 163.487 91.2909 163.33 91.2909ZM165.908 94.25V97.4H165.103V92.1636H165.881V92.9818H165.949C166.071 92.7159 166.258 92.5022 166.508 92.3409C166.758 92.1772 167.081 92.0954 167.476 92.0954C167.831 92.0954 168.141 92.1681 168.407 92.3136C168.673 92.4568 168.879 92.675 169.027 92.9681C169.175 93.2591 169.249 93.6272 169.249 94.0727V97.4H168.444V94.1272C168.444 93.7159 168.337 93.3954 168.124 93.1659C167.91 92.9341 167.617 92.8181 167.244 92.8181C166.987 92.8181 166.758 92.8738 166.556 92.9852C166.356 93.0966 166.198 93.2591 166.082 93.4727C165.966 93.6863 165.908 93.9454 165.908 94.25ZM172.818 97.5091C172.314 97.5091 171.879 97.3977 171.513 97.175C171.149 96.95 170.868 96.6363 170.671 96.2341C170.475 95.8295 170.377 95.3591 170.377 94.8227C170.377 94.2863 170.475 93.8136 170.671 93.4045C170.868 92.9931 171.143 92.6727 171.496 92.4431C171.85 92.2113 172.264 92.0954 172.737 92.0954C173.009 92.0954 173.279 92.1409 173.544 92.2318C173.81 92.3227 174.052 92.4704 174.271 92.675C174.489 92.8772 174.663 93.1454 174.792 93.4795C174.922 93.8136 174.987 94.225 174.987 94.7136V95.0545H170.95V94.3591H174.168C174.168 94.0636 174.109 93.8 173.991 93.5681C173.875 93.3363 173.709 93.1534 173.493 93.0193C173.28 92.8852 173.027 92.8181 172.737 92.8181C172.416 92.8181 172.139 92.8977 171.905 93.0568C171.673 93.2136 171.494 93.4181 171.369 93.6704C171.244 93.9227 171.182 94.1931 171.182 94.4818V94.9454C171.182 95.3409 171.25 95.6761 171.387 95.9511C171.525 96.2238 171.717 96.4318 171.963 96.575C172.208 96.7159 172.493 96.7863 172.818 96.7863C173.03 96.7863 173.221 96.7568 173.391 96.6977C173.564 96.6363 173.713 96.5454 173.838 96.425C173.963 96.3022 174.059 96.15 174.127 95.9681L174.905 96.1863C174.823 96.45 174.685 96.6818 174.492 96.8818C174.299 97.0795 174.06 97.2341 173.776 97.3454C173.492 97.4545 173.173 97.5091 172.818 97.5091ZM178.092 97.5091C177.655 97.5091 177.27 97.3988 176.936 97.1784C176.602 96.9556 176.341 96.642 176.152 96.2375C175.963 95.8306 175.869 95.35 175.869 94.7954C175.869 94.2454 175.963 93.7681 176.152 93.3636C176.341 92.9591 176.603 92.6466 176.939 92.4261C177.276 92.2056 177.664 92.0954 178.105 92.0954C178.446 92.0954 178.716 92.1522 178.913 92.2659C179.113 92.3772 179.266 92.5045 179.37 92.6477C179.477 92.7886 179.56 92.9045 179.619 92.9954H179.687V90.4181H180.492V97.4H179.714V96.5954H179.619C179.56 96.6909 179.476 96.8113 179.367 96.9568C179.258 97.1 179.102 97.2284 178.9 97.342C178.697 97.4534 178.428 97.5091 178.092 97.5091ZM178.201 96.7863C178.523 96.7863 178.796 96.7022 179.019 96.5341C179.242 96.3636 179.411 96.1284 179.527 95.8284C179.643 95.5261 179.701 95.1772 179.701 94.7818C179.701 94.3909 179.644 94.0488 179.53 93.7556C179.417 93.4602 179.248 93.2306 179.026 93.067C178.803 92.9011 178.528 92.8181 178.201 92.8181C177.86 92.8181 177.576 92.9056 177.348 93.0806C177.123 93.2534 176.954 93.4886 176.841 93.7863C176.729 94.0818 176.673 94.4136 176.673 94.7818C176.673 95.1545 176.73 95.4931 176.844 95.7977C176.96 96.1 177.13 96.3409 177.355 96.5204C177.583 96.6977 177.864 96.7863 178.201 96.7863ZM186.917 92.1636V92.8454H184.094V92.1636H186.917ZM184.939 97.4V91.4409C184.939 91.1409 185.01 90.8909 185.151 90.6909C185.292 90.4909 185.475 90.3409 185.7 90.2409C185.925 90.1409 186.162 90.0909 186.412 90.0909C186.61 90.0909 186.771 90.1068 186.896 90.1386C187.021 90.1704 187.114 90.2 187.176 90.2272L186.944 90.9227C186.903 90.9091 186.846 90.892 186.774 90.8716C186.703 90.8511 186.61 90.8409 186.494 90.8409C186.228 90.8409 186.036 90.9079 185.918 91.042C185.802 91.1761 185.744 91.3727 185.744 91.6318V97.4H184.939ZM189.86 97.5091C189.387 97.5091 188.972 97.3966 188.616 97.1716C188.261 96.9466 187.984 96.6318 187.784 96.2272C187.586 95.8227 187.487 95.35 187.487 94.8091C187.487 94.2636 187.586 93.7875 187.784 93.3806C187.984 92.9738 188.261 92.6579 188.616 92.4329C188.972 92.2079 189.387 92.0954 189.86 92.0954C190.333 92.0954 190.746 92.2079 191.101 92.4329C191.458 92.6579 191.735 92.9738 191.933 93.3806C192.133 93.7875 192.233 94.2636 192.233 94.8091C192.233 95.35 192.133 95.8227 191.933 96.2272C191.735 96.6318 191.458 96.9466 191.101 97.1716C190.746 97.3966 190.333 97.5091 189.86 97.5091ZM189.86 96.7863C190.219 96.7863 190.514 96.6943 190.746 96.5102C190.978 96.3261 191.15 96.0841 191.261 95.7841C191.372 95.4841 191.428 95.1591 191.428 94.8091C191.428 94.4591 191.372 94.1329 191.261 93.8306C191.15 93.5284 190.978 93.2841 190.746 93.0977C190.514 92.9113 190.219 92.8181 189.86 92.8181C189.501 92.8181 189.205 92.9113 188.974 93.0977C188.742 93.2841 188.57 93.5284 188.459 93.8306C188.347 94.1329 188.292 94.4591 188.292 94.8091C188.292 95.1591 188.347 95.4841 188.459 95.7841C188.57 96.0841 188.742 96.3261 188.974 96.5102C189.205 96.6943 189.501 96.7863 189.86 96.7863ZM193.365 97.4V92.1636H194.142V92.9545H194.197C194.292 92.6954 194.465 92.4852 194.715 92.3238C194.965 92.1625 195.247 92.0818 195.56 92.0818C195.619 92.0818 195.693 92.0829 195.782 92.0852C195.87 92.0875 195.937 92.0909 195.983 92.0954V92.9136C195.956 92.9068 195.893 92.8966 195.795 92.8829C195.7 92.867 195.599 92.8591 195.492 92.8591C195.237 92.8591 195.01 92.9125 194.81 93.0193C194.612 93.1238 194.456 93.2693 194.34 93.4556C194.226 93.6397 194.169 93.85 194.169 94.0863V97.4H193.365ZM199.649 97.4L202.772 91.2227V91.1681H199.172V90.4181H203.645V91.2091L200.536 97.4H199.649ZM209.414 97.5091C208.978 97.5091 208.593 97.3988 208.259 97.1784C207.924 96.9556 207.663 96.642 207.474 96.2375C207.286 95.8306 207.192 95.35 207.192 94.7954C207.192 94.2454 207.286 93.7681 207.474 93.3636C207.663 92.9591 207.926 92.6466 208.262 92.4261C208.598 92.2056 208.987 92.0954 209.428 92.0954C209.769 92.0954 210.038 92.1522 210.236 92.2659C210.436 92.3772 210.588 92.5045 210.693 92.6477C210.799 92.7886 210.882 92.9045 210.942 92.9954H211.01V90.4181H211.814V97.4H211.037V96.5954H210.942C210.882 96.6909 210.798 96.8113 210.689 96.9568C210.58 97.1 210.424 97.2284 210.222 97.342C210.02 97.4534 209.751 97.5091 209.414 97.5091ZM209.523 96.7863C209.846 96.7863 210.119 96.7022 210.342 96.5341C210.564 96.3636 210.734 96.1284 210.849 95.8284C210.965 95.5261 211.023 95.1772 211.023 94.7818C211.023 94.3909 210.967 94.0488 210.853 93.7556C210.739 93.4602 210.571 93.2306 210.348 93.067C210.126 92.9011 209.851 92.8181 209.523 92.8181C209.182 92.8181 208.898 92.9056 208.671 93.0806C208.446 93.2534 208.277 93.4886 208.163 93.7863C208.052 94.0818 207.996 94.4136 207.996 94.7818C207.996 95.1545 208.053 95.4931 208.167 95.7977C208.282 96.1 208.453 96.3409 208.678 96.5204C208.905 96.6977 209.187 96.7863 209.523 96.7863ZM214.844 97.5227C214.513 97.5227 214.211 97.4602 213.941 97.3352C213.671 97.2079 213.456 97.025 213.297 96.7863C213.138 96.5454 213.058 96.2545 213.058 95.9136C213.058 95.6136 213.117 95.3704 213.235 95.1841C213.353 94.9954 213.511 94.8477 213.709 94.7409C213.907 94.6341 214.125 94.5545 214.364 94.5022C214.605 94.4477 214.847 94.4045 215.09 94.3727C215.408 94.3318 215.666 94.3011 215.864 94.2806C216.064 94.2579 216.209 94.2204 216.3 94.1681C216.393 94.1159 216.44 94.025 216.44 93.8954V93.8681C216.44 93.5318 216.348 93.2704 216.164 93.0841C215.982 92.8977 215.706 92.8045 215.335 92.8045C214.951 92.8045 214.65 92.8886 214.432 93.0568C214.214 93.225 214.06 93.4045 213.972 93.5954L213.208 93.3227C213.344 93.0045 213.526 92.7568 213.753 92.5795C213.983 92.4 214.233 92.275 214.503 92.2045C214.776 92.1318 215.044 92.0954 215.308 92.0954C215.476 92.0954 215.669 92.1159 215.888 92.1568C216.108 92.1954 216.321 92.2761 216.525 92.3988C216.732 92.5216 216.903 92.7068 217.04 92.9545C217.176 93.2022 217.244 93.5341 217.244 93.95V97.4H216.44V96.6909H216.399C216.344 96.8045 216.253 96.9261 216.126 97.0556C215.999 97.1852 215.83 97.2954 215.618 97.3863C215.407 97.4772 215.149 97.5227 214.844 97.5227ZM214.967 96.8C215.285 96.8 215.553 96.7375 215.772 96.6125C215.992 96.4875 216.158 96.3261 216.269 96.1284C216.383 95.9306 216.44 95.7227 216.44 95.5045V94.7681C216.406 94.8091 216.331 94.8466 216.215 94.8806C216.101 94.9125 215.969 94.9409 215.819 94.9659C215.672 94.9886 215.527 95.0091 215.386 95.0272C215.248 95.0431 215.135 95.0568 215.049 95.0681C214.84 95.0954 214.644 95.1397 214.463 95.2011C214.283 95.2602 214.138 95.35 214.026 95.4704C213.917 95.5886 213.863 95.75 213.863 95.9545C213.863 96.2341 213.966 96.4454 214.173 96.5886C214.382 96.7295 214.647 96.8 214.967 96.8ZM218.948 99.3636C218.811 99.3636 218.69 99.3522 218.583 99.3295C218.476 99.3091 218.402 99.2886 218.361 99.2681L218.566 98.5591C218.761 98.6091 218.934 98.6272 219.084 98.6136C219.234 98.6 219.367 98.5329 219.483 98.4125C219.601 98.2943 219.709 98.1022 219.807 97.8363L219.957 97.4272L218.02 92.1636H218.893L220.338 96.3363H220.393L221.838 92.1636H222.711L220.488 98.1636C220.388 98.4341 220.265 98.6579 220.117 98.8352C219.969 99.0147 219.798 99.1477 219.602 99.2341C219.409 99.3204 219.191 99.3636 218.948 99.3636ZM227.386 93.3363L226.663 93.5409C226.618 93.4204 226.551 93.3034 226.462 93.1897C226.376 93.0738 226.258 92.9784 226.108 92.9034C225.958 92.8284 225.766 92.7909 225.532 92.7909C225.211 92.7909 224.944 92.8647 224.731 93.0125C224.519 93.1579 224.413 93.3431 224.413 93.5681C224.413 93.7681 224.486 93.9261 224.632 94.042C224.777 94.1579 225.004 94.2545 225.313 94.3318L226.091 94.5227C226.559 94.6363 226.908 94.8102 227.137 95.0443C227.367 95.2761 227.482 95.575 227.482 95.9409C227.482 96.2409 227.395 96.5091 227.223 96.7454C227.052 96.9818 226.813 97.1681 226.507 97.3045C226.2 97.4409 225.843 97.5091 225.436 97.5091C224.902 97.5091 224.46 97.3931 224.11 97.1613C223.76 96.9295 223.538 96.5909 223.445 96.1454L224.209 95.9545C224.282 96.2363 224.419 96.4477 224.621 96.5886C224.826 96.7295 225.093 96.8 225.423 96.8C225.798 96.8 226.095 96.7204 226.316 96.5613C226.538 96.4 226.65 96.2068 226.65 95.9818C226.65 95.8 226.586 95.6477 226.459 95.525C226.332 95.4 226.136 95.3068 225.873 95.2454L225 95.0409C224.52 94.9272 224.168 94.7511 223.943 94.5125C223.72 94.2716 223.609 93.9704 223.609 93.6091C223.609 93.3136 223.692 93.0522 223.858 92.825C224.026 92.5977 224.254 92.4193 224.543 92.2897C224.834 92.1602 225.163 92.0954 225.532 92.0954C226.05 92.0954 226.457 92.2091 226.752 92.4363C227.05 92.6636 227.261 92.9636 227.386 93.3363Z" fill="#818186"/>
</g>
</g>
<defs>
<filter id="filter0_f_643_12477" x="-2.5" y="82.1983" width="193" height="57.7292" filterUnits="userSpaceOnUse" color-interpolation-filters="sRGB">
<feFlood flood-opacity="0" result="BackgroundImageFix"/>
<feBlend mode="normal" in="SourceGraphic" in2="BackgroundImageFix" result="shape"/>
<feGaussianBlur stdDeviation="3.75" result="effect1_foregroundBlur_643_12477"/>
</filter>
<filter id="filter1_f_643_12477" x="-22.5" y="34.2672" width="332" height="125.325" filterUnits="userSpaceOnUse" color-interpolation-filters="sRGB">
<feFlood flood-opacity="0" result="BackgroundImageFix"/>
<feBlend mode="normal" in="SourceGraphic" in2="BackgroundImageFix" result="shape"/>
<feGaussianBlur stdDeviation="3.75" result="effect1_foregroundBlur_643_12477"/>
</filter>
<filter id="filter2_f_643_12477" x="-14.8906" y="39.703" width="108.596" height="99.939" filterUnits="userSpaceOnUse" color-interpolation-filters="sRGB">
<feFlood flood-opacity="0" result="BackgroundImageFix"/>
<feBlend mode="normal" in="SourceGraphic" in2="BackgroundImageFix" result="shape"/>
<feGaussianBlur stdDeviation="7.5" result="effect1_foregroundBlur_643_12477"/>
</filter>
<radialGradient id="paint0_radial_643_12477" cx="0" cy="0" r="1" gradientUnits="userSpaceOnUse" gradientTransform="translate(48.5 111) rotate(7.29695) scale(82.6695 19.8443)">
<stop stop-color="#F02E65"/>
<stop offset="1" stop-color="#F02E65" stop-opacity="0"/>
</radialGradient>
<radialGradient id="paint1_radial_643_12477" cx="0" cy="0" r="1" gradientUnits="userSpaceOnUse" gradientTransform="translate(143.5 96.9295) rotate(-179.885) scale(158.5 55.1613)">
<stop stop-color="#F02E65"/>
<stop offset="1" stop-color="#F02E65" stop-opacity="0"/>
</radialGradient>
<linearGradient id="paint2_linear_643_12477" x1="31.873" y1="46.456" x2="117.873" y2="46.456" gradientUnits="userSpaceOnUse">
<stop stop-color="#6C6C71"/>
<stop offset="1" stop-color="#19191C"/>
</linearGradient>
<radialGradient id="paint3_radial_643_12477" cx="0" cy="0" r="1" gradientUnits="userSpaceOnUse" gradientTransform="translate(26.5 114.5) rotate(-140.856) scale(27.7218 12.3095)">
<stop stop-color="#FE9567"/>
<stop offset="1" stop-color="#F97066" stop-opacity="0"/>
</radialGradient>
<linearGradient id="paint4_linear_643_12477" x1="11.944" y1="111" x2="44.7405" y2="58.1444" gradientUnits="userSpaceOnUse">
<stop stop-color="#FD366E"/>
<stop offset="0.2" stop-color="#FF453A" stop-opacity="0.32"/>
<stop offset="1" stop-color="#2D2D31"/>
</linearGradient>
<clipPath id="clip0_643_12477">
<rect width="282" height="152" fill="white"/>
</clipPath>
</defs>
</svg>
