<svg width="1177" height="628" viewBox="0 0 1177 628" fill="none" xmlns="http://www.w3.org/2000/svg">
<path d="M1.14773 26V14.3636H5.51136C6.4053 14.3636 7.1553 14.5303 7.76136 14.8636C8.37121 15.197 8.83144 15.6553 9.14205 16.2386C9.45644 16.8182 9.61364 17.4773 9.61364 18.2159C9.61364 18.9621 9.45644 19.625 9.14205 20.2045C8.82765 20.7841 8.36364 21.2405 7.75 21.5739C7.13636 21.9034 6.38068 22.0682 5.48295 22.0682H2.59091V20.3352H5.19886C5.72159 20.3352 6.14962 20.2443 6.48295 20.0625C6.81629 19.8807 7.0625 19.6307 7.22159 19.3125C7.38447 18.9943 7.46591 18.6288 7.46591 18.2159C7.46591 17.803 7.38447 17.4394 7.22159 17.125C7.0625 16.8106 6.81439 16.5663 6.47727 16.392C6.14394 16.214 5.71402 16.125 5.1875 16.125H3.25568V26H1.14773ZM15.0355 26.1705C14.1832 26.1705 13.4446 25.983 12.8196 25.608C12.1946 25.233 11.7098 24.7083 11.3651 24.0341C11.0241 23.3598 10.8537 22.572 10.8537 21.6705C10.8537 20.7689 11.0241 19.9792 11.3651 19.3011C11.7098 18.6231 12.1946 18.0966 12.8196 17.7216C13.4446 17.3466 14.1832 17.1591 15.0355 17.1591C15.8878 17.1591 16.6264 17.3466 17.2514 17.7216C17.8764 18.0966 18.3594 18.6231 18.7003 19.3011C19.045 19.9792 19.2173 20.7689 19.2173 21.6705C19.2173 22.572 19.045 23.3598 18.7003 24.0341C18.3594 24.7083 17.8764 25.233 17.2514 25.608C16.6264 25.983 15.8878 26.1705 15.0355 26.1705ZM15.0469 24.5227C15.509 24.5227 15.8954 24.3958 16.206 24.142C16.5166 23.8845 16.7476 23.5398 16.8991 23.108C17.0545 22.6761 17.1321 22.1951 17.1321 21.6648C17.1321 21.1307 17.0545 20.6477 16.8991 20.2159C16.7476 19.7803 16.5166 19.4337 16.206 19.1761C15.8954 18.9186 15.509 18.7898 15.0469 18.7898C14.5734 18.7898 14.1795 18.9186 13.8651 19.1761C13.5545 19.4337 13.3215 19.7803 13.1662 20.2159C13.0147 20.6477 12.9389 21.1307 12.9389 21.6648C12.9389 22.1951 13.0147 22.6761 13.1662 23.108C13.3215 23.5398 13.5545 23.8845 13.8651 24.142C14.1795 24.3958 14.5734 24.5227 15.0469 24.5227ZM23.0199 14.3636V26H20.9631V14.3636H23.0199ZM25.1349 26V17.2727H27.1918V26H25.1349ZM26.169 16.0341C25.8433 16.0341 25.563 15.9261 25.3281 15.7102C25.0933 15.4905 24.9759 15.2273 24.9759 14.9205C24.9759 14.6098 25.0933 14.3466 25.3281 14.1307C25.563 13.911 25.8433 13.8011 26.169 13.8011C26.4986 13.8011 26.7789 13.911 27.0099 14.1307C27.2448 14.3466 27.3622 14.6098 27.3622 14.9205C27.3622 15.2273 27.2448 15.4905 27.0099 15.7102C26.7789 15.9261 26.4986 16.0341 26.169 16.0341ZM33.1136 26.1705C32.2424 26.1705 31.4943 25.9792 30.8693 25.5966C30.2481 25.214 29.7689 24.6856 29.4318 24.0114C29.0985 23.3333 28.9318 22.553 28.9318 21.6705C28.9318 20.7841 29.1023 20.0019 29.4432 19.3239C29.7841 18.642 30.2652 18.1117 30.8864 17.733C31.5114 17.3504 32.25 17.1591 33.1023 17.1591C33.8106 17.1591 34.4375 17.2898 34.983 17.5511C35.5322 17.8087 35.9697 18.1742 36.2955 18.6477C36.6212 19.1174 36.8068 19.6667 36.8523 20.2955H34.8864C34.8068 19.875 34.6174 19.5246 34.3182 19.2443C34.0227 18.9602 33.6269 18.8182 33.1307 18.8182C32.7102 18.8182 32.3409 18.9318 32.0227 19.1591C31.7045 19.3826 31.4564 19.7045 31.2784 20.125C31.1042 20.5455 31.017 21.0492 31.017 21.6364C31.017 22.2311 31.1042 22.7424 31.2784 23.1705C31.4527 23.5947 31.697 23.9223 32.0114 24.1534C32.3295 24.3807 32.7027 24.4943 33.1307 24.4943C33.4337 24.4943 33.7045 24.4375 33.9432 24.3239C34.1856 24.2064 34.3883 24.0379 34.5511 23.8182C34.714 23.5985 34.8258 23.3314 34.8864 23.017H36.8523C36.803 23.6345 36.6212 24.1818 36.3068 24.6591C35.9924 25.1326 35.5644 25.5038 35.0227 25.7727C34.4811 26.0379 33.8447 26.1705 33.1136 26.1705ZM38.5412 26V17.2727H40.598V26H38.5412ZM39.5753 16.0341C39.2495 16.0341 38.9692 15.9261 38.7344 15.7102C38.4995 15.4905 38.3821 15.2273 38.3821 14.9205C38.3821 14.6098 38.4995 14.3466 38.7344 14.1307C38.9692 13.911 39.2495 13.8011 39.5753 13.8011C39.9048 13.8011 40.1851 13.911 40.4162 14.1307C40.651 14.3466 40.7685 14.6098 40.7685 14.9205C40.7685 15.2273 40.651 15.4905 40.4162 15.7102C40.1851 15.9261 39.9048 16.0341 39.5753 16.0341ZM46.5767 26.1705C45.7017 26.1705 44.946 25.9886 44.3097 25.625C43.6771 25.2576 43.1903 24.7386 42.8494 24.0682C42.5085 23.3939 42.3381 22.6004 42.3381 21.6875C42.3381 20.7898 42.5085 20.0019 42.8494 19.3239C43.1941 18.642 43.6752 18.1117 44.2926 17.733C44.91 17.3504 45.6354 17.1591 46.4688 17.1591C47.0066 17.1591 47.5142 17.2462 47.9915 17.4205C48.4725 17.5909 48.8968 17.8561 49.2642 18.2159C49.6354 18.5758 49.9271 19.0341 50.1392 19.5909C50.3513 20.1439 50.4574 20.803 50.4574 21.5682V22.1989H43.304V20.8125H48.4858C48.482 20.4186 48.3968 20.0682 48.2301 19.7614C48.0634 19.4508 47.8305 19.2064 47.5312 19.0284C47.2358 18.8504 46.8911 18.7614 46.4972 18.7614C46.0767 18.7614 45.7074 18.8636 45.3892 19.0682C45.071 19.2689 44.8229 19.5341 44.6449 19.8636C44.4706 20.1894 44.3816 20.5473 44.3778 20.9375V22.1477C44.3778 22.6553 44.4706 23.0909 44.6562 23.4545C44.8419 23.8144 45.1013 24.0909 45.4347 24.2841C45.768 24.4735 46.1581 24.5682 46.6051 24.5682C46.9044 24.5682 47.1752 24.5265 47.4176 24.4432C47.66 24.3561 47.8703 24.2292 48.0483 24.0625C48.2263 23.8958 48.3608 23.6894 48.4517 23.4432L50.3722 23.6591C50.2509 24.1667 50.0199 24.6098 49.679 24.9886C49.3419 25.3636 48.91 25.6553 48.3835 25.8636C47.857 26.0682 47.2547 26.1705 46.5767 26.1705ZM59.0952 19.5795L57.2202 19.7841C57.1671 19.5947 57.0743 19.4167 56.9418 19.25C56.813 19.0833 56.6387 18.9489 56.419 18.8466C56.1993 18.7443 55.9304 18.6932 55.6122 18.6932C55.1842 18.6932 54.8243 18.786 54.5327 18.9716C54.2448 19.1572 54.1027 19.3977 54.1065 19.6932C54.1027 19.947 54.1955 20.1534 54.3849 20.3125C54.5781 20.4716 54.8963 20.6023 55.3395 20.7045L56.8281 21.0227C57.6539 21.2008 58.2675 21.483 58.669 21.8693C59.0743 22.2557 59.2789 22.7614 59.2827 23.3864C59.2789 23.9356 59.1179 24.4205 58.7997 24.8409C58.4853 25.2576 58.0478 25.5833 57.4872 25.8182C56.9266 26.053 56.2827 26.1705 55.5554 26.1705C54.4872 26.1705 53.6274 25.947 52.9759 25.5C52.3243 25.0492 51.9361 24.4223 51.8111 23.6193L53.8168 23.4261C53.9077 23.8201 54.1009 24.1174 54.3963 24.3182C54.6918 24.5189 55.0762 24.6193 55.5497 24.6193C56.0384 24.6193 56.4304 24.5189 56.7259 24.3182C57.0251 24.1174 57.1747 23.8693 57.1747 23.5739C57.1747 23.3239 57.0781 23.1174 56.8849 22.9545C56.6955 22.7917 56.4001 22.6667 55.9986 22.5795L54.5099 22.267C53.6728 22.0928 53.0535 21.7992 52.652 21.3864C52.2505 20.9697 52.0516 20.4432 52.0554 19.8068C52.0516 19.2689 52.1974 18.803 52.4929 18.4091C52.7921 18.0114 53.2069 17.7045 53.7372 17.4886C54.2713 17.2689 54.8868 17.1591 55.5838 17.1591C56.6065 17.1591 57.4115 17.3769 57.9986 17.8125C58.5895 18.2481 58.955 18.8371 59.0952 19.5795Z" fill="#EDEDF0"/>
<path d="M181.5 8C181.5 3.85786 184.858 0.5 189 0.5H336C340.142 0.5 343.5 3.85786 343.5 8V32C343.5 36.1421 340.142 39.5 336 39.5H189C184.858 39.5 181.5 36.1421 181.5 32V8Z" fill="#1D1D21"/>
<path d="M181.5 8C181.5 3.85786 184.858 0.5 189 0.5H336C340.142 0.5 343.5 3.85786 343.5 8V32C343.5 36.1421 340.142 39.5 336 39.5H189C184.858 39.5 181.5 36.1421 181.5 32V8Z" stroke="#414146"/>
<path fill-rule="evenodd" clip-rule="evenodd" d="M207 14C207.663 14 208.2 14.5373 208.2 15.2V18.8L211.8 18.8C212.463 18.8 213 19.3373 213 20C213 20.6627 212.463 21.2 211.8 21.2H208.2V24.8C208.2 25.4627 207.663 26 207 26C206.337 26 205.8 25.4627 205.8 24.8V21.2H202.2C201.537 21.2 201 20.6627 201 20C201 19.3373 201.537 18.8 202.2 18.8H205.8V15.2C205.8 14.5373 206.337 14 207 14Z" fill="white"/>
<path d="M238.108 18.2898H235.983C235.922 17.9413 235.811 17.6326 235.648 17.3636C235.485 17.0909 235.282 16.8598 235.04 16.6705C234.797 16.4811 234.521 16.339 234.21 16.2443C233.903 16.1458 233.572 16.0966 233.216 16.0966C232.583 16.0966 232.023 16.2557 231.534 16.5739C231.045 16.8883 230.663 17.3504 230.386 17.9602C230.11 18.5663 229.972 19.3068 229.972 20.1818C229.972 21.072 230.11 21.822 230.386 22.4318C230.667 23.0379 231.049 23.4962 231.534 23.8068C232.023 24.1136 232.581 24.267 233.21 24.267C233.559 24.267 233.884 24.2216 234.188 24.1307C234.494 24.036 234.769 23.8977 235.011 23.7159C235.258 23.5341 235.464 23.3106 235.631 23.0455C235.801 22.7803 235.919 22.4773 235.983 22.1364L238.108 22.1477C238.028 22.7008 237.856 23.2197 237.591 23.7045C237.33 24.1894 236.987 24.6174 236.562 24.9886C236.138 25.3561 235.642 25.6439 235.074 25.8523C234.506 26.0568 233.875 26.1591 233.182 26.1591C232.159 26.1591 231.246 25.9223 230.443 25.4489C229.64 24.9754 229.008 24.2917 228.545 23.3977C228.083 22.5038 227.852 21.4318 227.852 20.1818C227.852 18.928 228.085 17.8561 228.551 16.9659C229.017 16.072 229.652 15.3883 230.455 14.9148C231.258 14.4413 232.167 14.2045 233.182 14.2045C233.83 14.2045 234.432 14.2955 234.989 14.4773C235.545 14.6591 236.042 14.9261 236.477 15.2784C236.913 15.6269 237.271 16.0549 237.551 16.5625C237.835 17.0663 238.021 17.642 238.108 18.2898ZM239.947 26V17.2727H241.942V18.7273H242.033C242.192 18.2235 242.464 17.8352 242.851 17.5625C243.241 17.286 243.686 17.1477 244.186 17.1477C244.3 17.1477 244.427 17.1534 244.567 17.1648C244.711 17.1723 244.83 17.1856 244.925 17.2045V19.0966C244.838 19.0663 244.699 19.0398 244.51 19.017C244.324 18.9905 244.144 18.9773 243.97 18.9773C243.595 18.9773 243.258 19.0587 242.959 19.2216C242.663 19.3807 242.43 19.6023 242.26 19.8864C242.089 20.1705 242.004 20.4981 242.004 20.8693V26H239.947ZM249.795 26.1705C248.92 26.1705 248.165 25.9886 247.528 25.625C246.896 25.2576 246.409 24.7386 246.068 24.0682C245.727 23.3939 245.557 22.6004 245.557 21.6875C245.557 20.7898 245.727 20.0019 246.068 19.3239C246.413 18.642 246.894 18.1117 247.511 17.733C248.129 17.3504 248.854 17.1591 249.688 17.1591C250.225 17.1591 250.733 17.2462 251.21 17.4205C251.691 17.5909 252.116 17.8561 252.483 18.2159C252.854 18.5758 253.146 19.0341 253.358 19.5909C253.57 20.1439 253.676 20.803 253.676 21.5682V22.1989H246.523V20.8125H251.705C251.701 20.4186 251.616 20.0682 251.449 19.7614C251.282 19.4508 251.049 19.2064 250.75 19.0284C250.455 18.8504 250.11 18.7614 249.716 18.7614C249.295 18.7614 248.926 18.8636 248.608 19.0682C248.29 19.2689 248.042 19.5341 247.864 19.8636C247.689 20.1894 247.6 20.5473 247.597 20.9375V22.1477C247.597 22.6553 247.689 23.0909 247.875 23.4545C248.061 23.8144 248.32 24.0909 248.653 24.2841C248.987 24.4735 249.377 24.5682 249.824 24.5682C250.123 24.5682 250.394 24.5265 250.636 24.4432C250.879 24.3561 251.089 24.2292 251.267 24.0625C251.445 23.8958 251.58 23.6894 251.67 23.4432L253.591 23.6591C253.47 24.1667 253.239 24.6098 252.898 24.9886C252.561 25.3636 252.129 25.6553 251.602 25.8636C251.076 26.0682 250.473 26.1705 249.795 26.1705ZM257.928 26.1761C257.375 26.1761 256.876 26.0777 256.433 25.8807C255.994 25.6799 255.645 25.3845 255.388 24.9943C255.134 24.6042 255.007 24.1231 255.007 23.5511C255.007 23.0587 255.098 22.6515 255.28 22.3295C255.462 22.0076 255.71 21.75 256.024 21.5568C256.339 21.3636 256.693 21.2178 257.087 21.1193C257.484 21.017 257.895 20.9432 258.32 20.8977C258.831 20.8447 259.246 20.7973 259.564 20.7557C259.882 20.7102 260.113 20.642 260.257 20.5511C260.405 20.4564 260.479 20.3106 260.479 20.1136V20.0795C260.479 19.6515 260.352 19.3201 260.098 19.0852C259.844 18.8504 259.479 18.733 259.001 18.733C258.498 18.733 258.098 18.8428 257.803 19.0625C257.511 19.2822 257.314 19.5417 257.212 19.8409L255.291 19.5682C255.443 19.0379 255.693 18.5947 256.041 18.2386C256.39 17.8788 256.816 17.6098 257.32 17.4318C257.823 17.25 258.38 17.1591 258.99 17.1591C259.411 17.1591 259.829 17.2083 260.246 17.3068C260.662 17.4053 261.043 17.5682 261.388 17.7955C261.732 18.0189 262.009 18.3239 262.217 18.7102C262.429 19.0966 262.536 19.5795 262.536 20.1591V26H260.558V24.8011H260.49C260.365 25.0436 260.189 25.2708 259.962 25.483C259.738 25.6913 259.456 25.8598 259.115 25.9886C258.778 26.1136 258.382 26.1761 257.928 26.1761ZM258.462 24.6648C258.875 24.6648 259.232 24.5833 259.536 24.4205C259.839 24.2538 260.071 24.0341 260.234 23.7614C260.401 23.4886 260.484 23.1913 260.484 22.8693V21.8409C260.42 21.8939 260.31 21.9432 260.155 21.9886C260.003 22.0341 259.833 22.0739 259.643 22.108C259.454 22.142 259.267 22.1723 259.081 22.1989C258.895 22.2254 258.734 22.2481 258.598 22.267C258.291 22.3087 258.017 22.3769 257.774 22.4716C257.532 22.5663 257.34 22.6989 257.2 22.8693C257.06 23.036 256.99 23.2519 256.99 23.517C256.99 23.8958 257.128 24.1818 257.405 24.375C257.681 24.5682 258.034 24.6648 258.462 24.6648ZM268.962 17.2727V18.8636H263.945V17.2727H268.962ZM265.183 15.1818H267.24V23.375C267.24 23.6515 267.282 23.8636 267.365 24.0114C267.452 24.1553 267.566 24.2538 267.706 24.3068C267.846 24.3598 268.001 24.3864 268.172 24.3864C268.301 24.3864 268.418 24.3769 268.524 24.358C268.634 24.339 268.717 24.322 268.774 24.3068L269.121 25.9148C269.011 25.9527 268.854 25.9943 268.649 26.0398C268.448 26.0852 268.202 26.1117 267.911 26.1193C267.395 26.1345 266.931 26.0568 266.518 25.8864C266.106 25.7121 265.778 25.4432 265.536 25.0795C265.297 24.7159 265.179 24.2614 265.183 23.7159V15.1818ZM274.452 26.1705C273.577 26.1705 272.821 25.9886 272.185 25.625C271.552 25.2576 271.065 24.7386 270.724 24.0682C270.384 23.3939 270.213 22.6004 270.213 21.6875C270.213 20.7898 270.384 20.0019 270.724 19.3239C271.069 18.642 271.55 18.1117 272.168 17.733C272.785 17.3504 273.51 17.1591 274.344 17.1591C274.882 17.1591 275.389 17.2462 275.866 17.4205C276.348 17.5909 276.772 17.8561 277.139 18.2159C277.51 18.5758 277.802 19.0341 278.014 19.5909C278.226 20.1439 278.332 20.803 278.332 21.5682V22.1989H271.179V20.8125H276.361C276.357 20.4186 276.272 20.0682 276.105 19.7614C275.938 19.4508 275.705 19.2064 275.406 19.0284C275.111 18.8504 274.766 18.7614 274.372 18.7614C273.952 18.7614 273.582 18.8636 273.264 19.0682C272.946 19.2689 272.698 19.5341 272.52 19.8636C272.346 20.1894 272.257 20.5473 272.253 20.9375V22.1477C272.253 22.6553 272.346 23.0909 272.531 23.4545C272.717 23.8144 272.976 24.0909 273.31 24.2841C273.643 24.4735 274.033 24.5682 274.48 24.5682C274.779 24.5682 275.05 24.5265 275.293 24.4432C275.535 24.3561 275.745 24.2292 275.923 24.0625C276.101 23.8958 276.236 23.6894 276.327 23.4432L278.247 23.6591C278.126 24.1667 277.895 24.6098 277.554 24.9886C277.217 25.3636 276.785 25.6553 276.259 25.8636C275.732 26.0682 275.13 26.1705 274.452 26.1705ZM284.041 29.2727V17.2727H286.064V18.7159H286.183C286.289 18.5038 286.439 18.2784 286.632 18.0398C286.825 17.7973 287.087 17.5909 287.416 17.4205C287.746 17.2462 288.166 17.1591 288.678 17.1591C289.352 17.1591 289.96 17.3314 290.501 17.6761C291.047 18.017 291.479 18.5227 291.797 19.1932C292.119 19.8598 292.28 20.678 292.28 21.6477C292.28 22.6061 292.123 23.4205 291.808 24.0909C291.494 24.7614 291.066 25.2727 290.524 25.625C289.982 25.9773 289.369 26.1534 288.683 26.1534C288.183 26.1534 287.768 26.0701 287.439 25.9034C287.109 25.7367 286.844 25.536 286.643 25.3011C286.446 25.0625 286.293 24.8371 286.183 24.625H286.098V29.2727H284.041ZM286.058 21.6364C286.058 22.2008 286.138 22.6951 286.297 23.1193C286.46 23.5436 286.693 23.875 286.996 24.1136C287.303 24.3485 287.674 24.4659 288.109 24.4659C288.564 24.4659 288.945 24.3447 289.251 24.1023C289.558 23.8561 289.789 23.5208 289.945 23.0966C290.104 22.6686 290.183 22.1818 290.183 21.6364C290.183 21.0947 290.106 20.6136 289.95 20.1932C289.795 19.7727 289.564 19.4432 289.257 19.2045C288.95 18.9659 288.568 18.8466 288.109 18.8466C287.67 18.8466 287.297 18.9621 286.99 19.1932C286.683 19.4242 286.45 19.7481 286.291 20.1648C286.136 20.5814 286.058 21.072 286.058 21.6364ZM297.848 26.1705C296.996 26.1705 296.257 25.983 295.632 25.608C295.007 25.233 294.522 24.7083 294.178 24.0341C293.837 23.3598 293.666 22.572 293.666 21.6705C293.666 20.7689 293.837 19.9792 294.178 19.3011C294.522 18.6231 295.007 18.0966 295.632 17.7216C296.257 17.3466 296.996 17.1591 297.848 17.1591C298.7 17.1591 299.439 17.3466 300.064 17.7216C300.689 18.0966 301.172 18.6231 301.513 19.3011C301.857 19.9792 302.03 20.7689 302.03 21.6705C302.03 22.572 301.857 23.3598 301.513 24.0341C301.172 24.7083 300.689 25.233 300.064 25.608C299.439 25.983 298.7 26.1705 297.848 26.1705ZM297.859 24.5227C298.321 24.5227 298.708 24.3958 299.018 24.142C299.329 23.8845 299.56 23.5398 299.712 23.108C299.867 22.6761 299.945 22.1951 299.945 21.6648C299.945 21.1307 299.867 20.6477 299.712 20.2159C299.56 19.7803 299.329 19.4337 299.018 19.1761C298.708 18.9186 298.321 18.7898 297.859 18.7898C297.386 18.7898 296.992 18.9186 296.678 19.1761C296.367 19.4337 296.134 19.7803 295.979 20.2159C295.827 20.6477 295.751 21.1307 295.751 21.6648C295.751 22.1951 295.827 22.6761 295.979 23.108C296.134 23.5398 296.367 23.8845 296.678 24.142C296.992 24.3958 297.386 24.5227 297.859 24.5227ZM305.832 14.3636V26H303.776V14.3636H305.832ZM307.947 26V17.2727H310.004V26H307.947ZM308.982 16.0341C308.656 16.0341 308.375 15.9261 308.141 15.7102C307.906 15.4905 307.788 15.2273 307.788 14.9205C307.788 14.6098 307.906 14.3466 308.141 14.1307C308.375 13.911 308.656 13.8011 308.982 13.8011C309.311 13.8011 309.591 13.911 309.822 14.1307C310.057 14.3466 310.175 14.6098 310.175 14.9205C310.175 15.2273 310.057 15.4905 309.822 15.7102C309.591 15.9261 309.311 16.0341 308.982 16.0341ZM315.926 26.1705C315.055 26.1705 314.307 25.9792 313.682 25.5966C313.061 25.214 312.581 24.6856 312.244 24.0114C311.911 23.3333 311.744 22.553 311.744 21.6705C311.744 20.7841 311.915 20.0019 312.256 19.3239C312.597 18.642 313.078 18.1117 313.699 17.733C314.324 17.3504 315.063 17.1591 315.915 17.1591C316.623 17.1591 317.25 17.2898 317.795 17.5511C318.345 17.8087 318.782 18.1742 319.108 18.6477C319.434 19.1174 319.619 19.6667 319.665 20.2955H317.699C317.619 19.875 317.43 19.5246 317.131 19.2443C316.835 18.9602 316.439 18.8182 315.943 18.8182C315.523 18.8182 315.153 18.9318 314.835 19.1591C314.517 19.3826 314.269 19.7045 314.091 20.125C313.917 20.5455 313.83 21.0492 313.83 21.6364C313.83 22.2311 313.917 22.7424 314.091 23.1705C314.265 23.5947 314.509 23.9223 314.824 24.1534C315.142 24.3807 315.515 24.4943 315.943 24.4943C316.246 24.4943 316.517 24.4375 316.756 24.3239C316.998 24.2064 317.201 24.0379 317.364 23.8182C317.527 23.5985 317.638 23.3314 317.699 23.017H319.665C319.616 23.6345 319.434 24.1818 319.119 24.6591C318.805 25.1326 318.377 25.5038 317.835 25.7727C317.294 26.0379 316.657 26.1705 315.926 26.1705ZM322.632 29.2727C322.352 29.2727 322.092 29.25 321.854 29.2045C321.619 29.1629 321.431 29.1136 321.291 29.0568L321.768 27.4545C322.068 27.5417 322.335 27.5833 322.57 27.5795C322.804 27.5758 323.011 27.5019 323.189 27.358C323.371 27.2178 323.524 26.983 323.649 26.6534L323.825 26.1818L320.661 17.2727H322.842L324.854 23.8636H324.945L326.962 17.2727H329.149L325.655 27.0568C325.492 27.5189 325.276 27.9148 325.007 28.2443C324.738 28.5777 324.409 28.8314 324.018 29.0057C323.632 29.1837 323.17 29.2727 322.632 29.2727Z" fill="white"/>
<mask id="path-5-inside-1_916_86582" fill="white">
<path d="M0 64C0 59.5817 3.58172 56 8 56H336C340.418 56 344 59.5817 344 64V417C344 421.418 340.418 425 336 425H8C3.58173 425 0 421.418 0 417V64Z"/>
</mask>
<path d="M0 64C0 59.5817 3.58172 56 8 56H336C340.418 56 344 59.5817 344 64V417C344 421.418 340.418 425 336 425H8C3.58173 425 0 421.418 0 417V64Z" fill="#1D1D21"/>
<path d="M8 57H336V55H8V57ZM343 64V417H345V64H343ZM336 424H8V426H336V424ZM1 417V64H-1V417H1ZM8 424C4.13401 424 1 420.866 1 417H-1C-1 421.971 3.02944 426 8 426V424ZM343 417C343 420.866 339.866 424 336 424V426C340.971 426 345 421.971 345 417H343ZM336 57C339.866 57 343 60.134 343 64H345C345 59.0294 340.971 55 336 55V57ZM8 55C3.02944 55 -1 59.0294 -1 64H1C1 60.134 4.13401 57 8 57V55Z" fill="#2D2D31" mask="url(#path-5-inside-1_916_86582)"/>
<rect width="328" height="363" transform="translate(8 64)" fill="#1D1D21"/>
<path d="M172 133L172 165" stroke="#2D2D31" stroke-linecap="round"/>
<path d="M8 181H336" stroke="#2D2D31"/>
<path d="M172 258L172 290" stroke="#2D2D31" stroke-linecap="round"/>
<path d="M8 304H336" stroke="#2D2D31"/>
<path d="M172 381L172 413" stroke="#2D2D31" stroke-linecap="round"/>
<path d="M386.148 26V14.3636H390.602C391.443 14.3636 392.142 14.4962 392.699 14.7614C393.259 15.0227 393.678 15.3807 393.955 15.8352C394.235 16.2898 394.375 16.8049 394.375 17.3807C394.375 17.8542 394.284 18.2595 394.102 18.5966C393.92 18.9299 393.676 19.2008 393.369 19.4091C393.062 19.6174 392.72 19.767 392.341 19.858V19.9716C392.754 19.9943 393.15 20.1212 393.528 20.3523C393.911 20.5795 394.223 20.9015 394.466 21.3182C394.708 21.7348 394.83 22.2386 394.83 22.8295C394.83 23.4318 394.684 23.9735 394.392 24.4545C394.1 24.9318 393.661 25.3087 393.074 25.5852C392.487 25.8617 391.748 26 390.858 26H386.148ZM388.256 24.2386H390.523C391.288 24.2386 391.839 24.0928 392.176 23.8011C392.517 23.5057 392.688 23.1269 392.688 22.6648C392.688 22.3201 392.602 22.0095 392.432 21.733C392.261 21.4527 392.019 21.233 391.705 21.0739C391.39 20.911 391.015 20.8295 390.58 20.8295H388.256V24.2386ZM388.256 19.3125H390.341C390.705 19.3125 391.032 19.2462 391.324 19.1136C391.616 18.9773 391.845 18.786 392.011 18.5398C392.182 18.2898 392.267 17.9943 392.267 17.6534C392.267 17.2027 392.108 16.8314 391.79 16.5398C391.475 16.2481 391.008 16.1023 390.386 16.1023H388.256V19.3125ZM399.084 26.1761C398.531 26.1761 398.033 26.0777 397.589 25.8807C397.15 25.6799 396.802 25.3845 396.544 24.9943C396.29 24.6042 396.163 24.1231 396.163 23.5511C396.163 23.0587 396.254 22.6515 396.436 22.3295C396.618 22.0076 396.866 21.75 397.18 21.5568C397.495 21.3636 397.849 21.2178 398.243 21.1193C398.641 21.017 399.052 20.9432 399.476 20.8977C399.987 20.8447 400.402 20.7973 400.72 20.7557C401.038 20.7102 401.269 20.642 401.413 20.5511C401.561 20.4564 401.635 20.3106 401.635 20.1136V20.0795C401.635 19.6515 401.508 19.3201 401.254 19.0852C401 18.8504 400.635 18.733 400.158 18.733C399.654 18.733 399.254 18.8428 398.959 19.0625C398.667 19.2822 398.47 19.5417 398.368 19.8409L396.447 19.5682C396.599 19.0379 396.849 18.5947 397.197 18.2386C397.546 17.8788 397.972 17.6098 398.476 17.4318C398.98 17.25 399.536 17.1591 400.146 17.1591C400.567 17.1591 400.985 17.2083 401.402 17.3068C401.819 17.4053 402.199 17.5682 402.544 17.7955C402.889 18.0189 403.165 18.3239 403.374 18.7102C403.586 19.0966 403.692 19.5795 403.692 20.1591V26H401.714V24.8011H401.646C401.521 25.0436 401.345 25.2708 401.118 25.483C400.894 25.6913 400.612 25.8598 400.271 25.9886C399.934 26.1136 399.538 26.1761 399.084 26.1761ZM399.618 24.6648C400.031 24.6648 400.389 24.5833 400.692 24.4205C400.995 24.2538 401.228 24.0341 401.391 23.7614C401.557 23.4886 401.641 23.1913 401.641 22.8693V21.8409C401.576 21.8939 401.466 21.9432 401.311 21.9886C401.16 22.0341 400.989 22.0739 400.8 22.108C400.61 22.142 400.423 22.1723 400.237 22.1989C400.052 22.2254 399.891 22.2481 399.754 22.267C399.447 22.3087 399.173 22.3769 398.93 22.4716C398.688 22.5663 398.497 22.6989 398.357 22.8693C398.216 23.036 398.146 23.2519 398.146 23.517C398.146 23.8958 398.285 24.1818 398.561 24.375C398.838 24.5682 399.19 24.6648 399.618 24.6648ZM409.567 26.1705C408.696 26.1705 407.947 25.9792 407.322 25.5966C406.701 25.214 406.222 24.6856 405.885 24.0114C405.552 23.3333 405.385 22.553 405.385 21.6705C405.385 20.7841 405.555 20.0019 405.896 19.3239C406.237 18.642 406.718 18.1117 407.339 17.733C407.964 17.3504 408.703 17.1591 409.555 17.1591C410.264 17.1591 410.891 17.2898 411.436 17.5511C411.985 17.8087 412.423 18.1742 412.749 18.6477C413.074 19.1174 413.26 19.6667 413.305 20.2955H411.339C411.26 19.875 411.071 19.5246 410.771 19.2443C410.476 18.9602 410.08 18.8182 409.584 18.8182C409.163 18.8182 408.794 18.9318 408.476 19.1591C408.158 19.3826 407.91 19.7045 407.732 20.125C407.557 20.5455 407.47 21.0492 407.47 21.6364C407.47 22.2311 407.557 22.7424 407.732 23.1705C407.906 23.5947 408.15 23.9223 408.464 24.1534C408.783 24.3807 409.156 24.4943 409.584 24.4943C409.887 24.4943 410.158 24.4375 410.396 24.3239C410.639 24.2064 410.841 24.0379 411.004 23.8182C411.167 23.5985 411.279 23.3314 411.339 23.017H413.305C413.256 23.6345 413.074 24.1818 412.76 24.6591C412.446 25.1326 412.018 25.5038 411.476 25.7727C410.934 26.0379 410.298 26.1705 409.567 26.1705ZM416.869 23.2614L416.864 20.7784H417.193L420.33 17.2727H422.733L418.875 21.5682H418.449L416.869 23.2614ZM414.994 26V14.3636H417.051V26H414.994ZM420.472 26L417.631 22.0284L419.017 20.5795L422.932 26H420.472ZM429.666 22.3295V17.2727H431.723V26H429.729V24.4489H429.638C429.441 24.9375 429.117 25.3371 428.666 25.6477C428.219 25.9583 427.668 26.1136 427.013 26.1136C426.441 26.1136 425.935 25.9867 425.496 25.733C425.06 25.4754 424.719 25.1023 424.473 24.6136C424.227 24.1212 424.104 23.5265 424.104 22.8295V17.2727H426.161V22.5114C426.161 23.0644 426.312 23.5038 426.615 23.8295C426.918 24.1553 427.316 24.3182 427.808 24.3182C428.111 24.3182 428.405 24.2443 428.689 24.0966C428.973 23.9489 429.206 23.7292 429.388 23.4375C429.573 23.142 429.666 22.7727 429.666 22.3295ZM433.838 29.2727V17.2727H435.861V18.7159H435.98C436.086 18.5038 436.236 18.2784 436.429 18.0398C436.622 17.7973 436.884 17.5909 437.213 17.4205C437.543 17.2462 437.963 17.1591 438.474 17.1591C439.149 17.1591 439.757 17.3314 440.298 17.6761C440.844 18.017 441.276 18.5227 441.594 19.1932C441.916 19.8598 442.077 20.678 442.077 21.6477C442.077 22.6061 441.92 23.4205 441.605 24.0909C441.291 24.7614 440.863 25.2727 440.321 25.625C439.779 25.9773 439.166 26.1534 438.48 26.1534C437.98 26.1534 437.565 26.0701 437.236 25.9034C436.906 25.7367 436.641 25.536 436.44 25.3011C436.243 25.0625 436.09 24.8371 435.98 24.625H435.895V29.2727H433.838ZM435.855 21.6364C435.855 22.2008 435.935 22.6951 436.094 23.1193C436.257 23.5436 436.49 23.875 436.793 24.1136C437.099 24.3485 437.471 24.4659 437.906 24.4659C438.361 24.4659 438.741 24.3447 439.048 24.1023C439.355 23.8561 439.586 23.5208 439.741 23.0966C439.901 22.6686 439.98 22.1818 439.98 21.6364C439.98 21.0947 439.902 20.6136 439.747 20.1932C439.592 19.7727 439.361 19.4432 439.054 19.2045C438.747 18.9659 438.365 18.8466 437.906 18.8466C437.467 18.8466 437.094 18.9621 436.787 19.1932C436.48 19.4242 436.247 19.7481 436.088 20.1648C435.933 20.5814 435.855 21.072 435.855 21.6364ZM450.736 19.5795L448.861 19.7841C448.808 19.5947 448.715 19.4167 448.582 19.25C448.454 19.0833 448.279 18.9489 448.06 18.8466C447.84 18.7443 447.571 18.6932 447.253 18.6932C446.825 18.6932 446.465 18.786 446.173 18.9716C445.885 19.1572 445.743 19.3977 445.747 19.6932C445.743 19.947 445.836 20.1534 446.026 20.3125C446.219 20.4716 446.537 20.6023 446.98 20.7045L448.469 21.0227C449.295 21.2008 449.908 21.483 450.31 21.8693C450.715 22.2557 450.92 22.7614 450.923 23.3864C450.92 23.9356 450.759 24.4205 450.44 24.8409C450.126 25.2576 449.688 25.5833 449.128 25.8182C448.567 26.053 447.923 26.1705 447.196 26.1705C446.128 26.1705 445.268 25.947 444.616 25.5C443.965 25.0492 443.577 24.4223 443.452 23.6193L445.457 23.4261C445.548 23.8201 445.741 24.1174 446.037 24.3182C446.332 24.5189 446.717 24.6193 447.19 24.6193C447.679 24.6193 448.071 24.5189 448.366 24.3182C448.666 24.1174 448.815 23.8693 448.815 23.5739C448.815 23.3239 448.719 23.1174 448.526 22.9545C448.336 22.7917 448.041 22.6667 447.639 22.5795L446.151 22.267C445.313 22.0928 444.694 21.7992 444.293 21.3864C443.891 20.9697 443.692 20.4432 443.696 19.8068C443.692 19.2689 443.838 18.803 444.134 18.4091C444.433 18.0114 444.848 17.7045 445.378 17.4886C445.912 17.2689 446.527 17.1591 447.224 17.1591C448.247 17.1591 449.052 17.3769 449.639 17.8125C450.23 18.2481 450.596 18.8371 450.736 19.5795Z" fill="#EDEDF0"/>
<path d="M966.5 8C966.5 3.85786 969.858 0.5 974 0.5H1136C1140.14 0.5 1143.5 3.85786 1143.5 8V32C1143.5 36.1421 1140.14 39.5 1136 39.5H974C969.858 39.5 966.5 36.1421 966.5 32V8Z" fill="#1D1D21"/>
<path d="M966.5 8C966.5 3.85786 969.858 0.5 974 0.5H1136C1140.14 0.5 1143.5 3.85786 1143.5 8V32C1143.5 36.1421 1140.14 39.5 1136 39.5H974C969.858 39.5 966.5 36.1421 966.5 32V8Z" stroke="#414146"/>
<path fill-rule="evenodd" clip-rule="evenodd" d="M992 14C992.663 14 993.2 14.5373 993.2 15.2V18.8L996.8 18.8C997.463 18.8 998 19.3373 998 20C998 20.6627 997.463 21.2 996.8 21.2H993.2V24.8C993.2 25.4627 992.663 26 992 26C991.337 26 990.8 25.4627 990.8 24.8V21.2H987.2C986.537 21.2 986 20.6627 986 20C986 19.3373 986.537 18.8 987.2 18.8H990.8V15.2C990.8 14.5373 991.337 14 992 14Z" fill="white"/>
<path d="M1013.15 14.3636H1015.73L1019.18 22.7955H1019.32L1022.77 14.3636H1025.35V26H1023.33V18.0057H1023.22L1020.01 25.9659H1018.49L1015.28 17.9886H1015.17V26H1013.15V14.3636ZM1030.07 26.1761C1029.52 26.1761 1029.02 26.0777 1028.57 25.8807C1028.13 25.6799 1027.79 25.3845 1027.53 24.9943C1027.27 24.6042 1027.15 24.1231 1027.15 23.5511C1027.15 23.0587 1027.24 22.6515 1027.42 22.3295C1027.6 22.0076 1027.85 21.75 1028.16 21.5568C1028.48 21.3636 1028.83 21.2178 1029.23 21.1193C1029.63 21.017 1030.04 20.9432 1030.46 20.8977C1030.97 20.8447 1031.39 20.7973 1031.7 20.7557C1032.02 20.7102 1032.25 20.642 1032.4 20.5511C1032.55 20.4564 1032.62 20.3106 1032.62 20.1136V20.0795C1032.62 19.6515 1032.49 19.3201 1032.24 19.0852C1031.98 18.8504 1031.62 18.733 1031.14 18.733C1030.64 18.733 1030.24 18.8428 1029.94 19.0625C1029.65 19.2822 1029.45 19.5417 1029.35 19.8409L1027.43 19.5682C1027.58 19.0379 1027.83 18.5947 1028.18 18.2386C1028.53 17.8788 1028.96 17.6098 1029.46 17.4318C1029.96 17.25 1030.52 17.1591 1031.13 17.1591C1031.55 17.1591 1031.97 17.2083 1032.39 17.3068C1032.8 17.4053 1033.18 17.5682 1033.53 17.7955C1033.87 18.0189 1034.15 18.3239 1034.36 18.7102C1034.57 19.0966 1034.68 19.5795 1034.68 20.1591V26H1032.7V24.8011H1032.63C1032.51 25.0436 1032.33 25.2708 1032.1 25.483C1031.88 25.6913 1031.6 25.8598 1031.26 25.9886C1030.92 26.1136 1030.52 26.1761 1030.07 26.1761ZM1030.6 24.6648C1031.02 24.6648 1031.37 24.5833 1031.68 24.4205C1031.98 24.2538 1032.21 24.0341 1032.38 23.7614C1032.54 23.4886 1032.62 23.1913 1032.62 22.8693V21.8409C1032.56 21.8939 1032.45 21.9432 1032.3 21.9886C1032.14 22.0341 1031.97 22.0739 1031.78 22.108C1031.59 22.142 1031.41 22.1723 1031.22 22.1989C1031.04 22.2254 1030.88 22.2481 1030.74 22.267C1030.43 22.3087 1030.16 22.3769 1029.91 22.4716C1029.67 22.5663 1029.48 22.6989 1029.34 22.8693C1029.2 23.036 1029.13 23.2519 1029.13 23.517C1029.13 23.8958 1029.27 24.1818 1029.55 24.375C1029.82 24.5682 1030.17 24.6648 1030.6 24.6648ZM1038.8 20.8864V26H1036.74V17.2727H1038.71V18.7557H1038.81C1039.01 18.267 1039.33 17.8788 1039.77 17.5909C1040.22 17.303 1040.76 17.1591 1041.41 17.1591C1042.02 17.1591 1042.54 17.2879 1042.99 17.5455C1043.44 17.803 1043.79 18.1761 1044.03 18.6648C1044.28 19.1534 1044.41 19.7462 1044.4 20.4432V26H1042.35V20.7614C1042.35 20.178 1042.2 19.7216 1041.89 19.392C1041.59 19.0625 1041.18 18.8977 1040.65 18.8977C1040.29 18.8977 1039.97 18.9773 1039.69 19.1364C1039.41 19.2917 1039.19 19.517 1039.03 19.8125C1038.88 20.108 1038.8 20.4659 1038.8 20.8864ZM1052.06 22.3295V17.2727H1054.11V26H1052.12V24.4489H1052.03C1051.83 24.9375 1051.51 25.3371 1051.06 25.6477C1050.61 25.9583 1050.06 26.1136 1049.4 26.1136C1048.83 26.1136 1048.33 25.9867 1047.89 25.733C1047.45 25.4754 1047.11 25.1023 1046.86 24.6136C1046.62 24.1212 1046.49 23.5265 1046.49 22.8295V17.2727H1048.55V22.5114C1048.55 23.0644 1048.7 23.5038 1049.01 23.8295C1049.31 24.1553 1049.71 24.3182 1050.2 24.3182C1050.5 24.3182 1050.8 24.2443 1051.08 24.0966C1051.36 23.9489 1051.6 23.7292 1051.78 23.4375C1051.96 23.142 1052.06 22.7727 1052.06 22.3295ZM1058.74 26.1761C1058.19 26.1761 1057.69 26.0777 1057.25 25.8807C1056.81 25.6799 1056.46 25.3845 1056.2 24.9943C1055.95 24.6042 1055.82 24.1231 1055.82 23.5511C1055.82 23.0587 1055.91 22.6515 1056.09 22.3295C1056.27 22.0076 1056.52 21.75 1056.84 21.5568C1057.15 21.3636 1057.51 21.2178 1057.9 21.1193C1058.3 21.017 1058.71 20.9432 1059.13 20.8977C1059.64 20.8447 1060.06 20.7973 1060.38 20.7557C1060.69 20.7102 1060.93 20.642 1061.07 20.5511C1061.22 20.4564 1061.29 20.3106 1061.29 20.1136V20.0795C1061.29 19.6515 1061.16 19.3201 1060.91 19.0852C1060.66 18.8504 1060.29 18.733 1059.81 18.733C1059.31 18.733 1058.91 18.8428 1058.62 19.0625C1058.32 19.2822 1058.13 19.5417 1058.02 19.8409L1056.1 19.5682C1056.26 19.0379 1056.51 18.5947 1056.85 18.2386C1057.2 17.8788 1057.63 17.6098 1058.13 17.4318C1058.64 17.25 1059.19 17.1591 1059.8 17.1591C1060.22 17.1591 1060.64 17.2083 1061.06 17.3068C1061.47 17.4053 1061.86 17.5682 1062.2 17.7955C1062.54 18.0189 1062.82 18.3239 1063.03 18.7102C1063.24 19.0966 1063.35 19.5795 1063.35 20.1591V26H1061.37V24.8011H1061.3C1061.18 25.0436 1061 25.2708 1060.77 25.483C1060.55 25.6913 1060.27 25.8598 1059.93 25.9886C1059.59 26.1136 1059.19 26.1761 1058.74 26.1761ZM1059.27 24.6648C1059.69 24.6648 1060.04 24.5833 1060.35 24.4205C1060.65 24.2538 1060.88 24.0341 1061.05 23.7614C1061.21 23.4886 1061.3 23.1913 1061.3 22.8693V21.8409C1061.23 21.8939 1061.12 21.9432 1060.97 21.9886C1060.82 22.0341 1060.65 22.0739 1060.46 22.108C1060.27 22.142 1060.08 22.1723 1059.89 22.1989C1059.71 22.2254 1059.55 22.2481 1059.41 22.267C1059.1 22.3087 1058.83 22.3769 1058.59 22.4716C1058.34 22.5663 1058.15 22.6989 1058.01 22.8693C1057.87 23.036 1057.8 23.2519 1057.8 23.517C1057.8 23.8958 1057.94 24.1818 1058.22 24.375C1058.49 24.5682 1058.85 24.6648 1059.27 24.6648ZM1067.47 14.3636V26H1065.42V14.3636H1067.47ZM1073.65 26V14.3636H1075.7V18.7159H1075.79C1075.9 18.5038 1076.05 18.2784 1076.24 18.0398C1076.43 17.7973 1076.69 17.5909 1077.02 17.4205C1077.35 17.2462 1077.77 17.1591 1078.28 17.1591C1078.96 17.1591 1079.57 17.3314 1080.11 17.6761C1080.65 18.017 1081.09 18.5227 1081.4 19.1932C1081.73 19.8598 1081.89 20.678 1081.89 21.6477C1081.89 22.6061 1081.73 23.4205 1081.41 24.0909C1081.1 24.7614 1080.67 25.2727 1080.13 25.625C1079.59 25.9773 1078.98 26.1534 1078.29 26.1534C1077.79 26.1534 1077.38 26.0701 1077.05 25.9034C1076.72 25.7367 1076.45 25.536 1076.25 25.3011C1076.05 25.0625 1075.9 24.8371 1075.79 24.625H1075.67V26H1073.65ZM1075.66 21.6364C1075.66 22.2008 1075.74 22.6951 1075.9 23.1193C1076.07 23.5436 1076.3 23.875 1076.6 24.1136C1076.91 24.3485 1077.28 24.4659 1077.72 24.4659C1078.17 24.4659 1078.55 24.3447 1078.86 24.1023C1079.16 23.8561 1079.4 23.5208 1079.55 23.0966C1079.71 22.6686 1079.79 22.1818 1079.79 21.6364C1079.79 21.0947 1079.71 20.6136 1079.56 20.1932C1079.4 19.7727 1079.17 19.4432 1078.86 19.2045C1078.56 18.9659 1078.17 18.8466 1077.72 18.8466C1077.28 18.8466 1076.9 18.9621 1076.6 19.1932C1076.29 19.4242 1076.06 19.7481 1075.9 20.1648C1075.74 20.5814 1075.66 21.072 1075.66 21.6364ZM1086.15 26.1761C1085.59 26.1761 1085.1 26.0777 1084.65 25.8807C1084.21 25.6799 1083.86 25.3845 1083.61 24.9943C1083.35 24.6042 1083.23 24.1231 1083.23 23.5511C1083.23 23.0587 1083.32 22.6515 1083.5 22.3295C1083.68 22.0076 1083.93 21.75 1084.24 21.5568C1084.56 21.3636 1084.91 21.2178 1085.31 21.1193C1085.7 21.017 1086.11 20.9432 1086.54 20.8977C1087.05 20.8447 1087.46 20.7973 1087.78 20.7557C1088.1 20.7102 1088.33 20.642 1088.48 20.5511C1088.62 20.4564 1088.7 20.3106 1088.7 20.1136V20.0795C1088.7 19.6515 1088.57 19.3201 1088.32 19.0852C1088.06 18.8504 1087.7 18.733 1087.22 18.733C1086.72 18.733 1086.32 18.8428 1086.02 19.0625C1085.73 19.2822 1085.53 19.5417 1085.43 19.8409L1083.51 19.5682C1083.66 19.0379 1083.91 18.5947 1084.26 18.2386C1084.61 17.8788 1085.03 17.6098 1085.54 17.4318C1086.04 17.25 1086.6 17.1591 1087.21 17.1591C1087.63 17.1591 1088.05 17.2083 1088.46 17.3068C1088.88 17.4053 1089.26 17.5682 1089.61 17.7955C1089.95 18.0189 1090.23 18.3239 1090.44 18.7102C1090.65 19.0966 1090.75 19.5795 1090.75 20.1591V26H1088.78V24.8011H1088.71C1088.58 25.0436 1088.41 25.2708 1088.18 25.483C1087.96 25.6913 1087.67 25.8598 1087.33 25.9886C1087 26.1136 1086.6 26.1761 1086.15 26.1761ZM1086.68 24.6648C1087.09 24.6648 1087.45 24.5833 1087.75 24.4205C1088.06 24.2538 1088.29 24.0341 1088.45 23.7614C1088.62 23.4886 1088.7 23.1913 1088.7 22.8693V21.8409C1088.64 21.8939 1088.53 21.9432 1088.37 21.9886C1088.22 22.0341 1088.05 22.0739 1087.86 22.108C1087.67 22.142 1087.49 22.1723 1087.3 22.1989C1087.11 22.2254 1086.95 22.2481 1086.82 22.267C1086.51 22.3087 1086.24 22.3769 1085.99 22.4716C1085.75 22.5663 1085.56 22.6989 1085.42 22.8693C1085.28 23.036 1085.21 23.2519 1085.21 23.517C1085.21 23.8958 1085.35 24.1818 1085.62 24.375C1085.9 24.5682 1086.25 24.6648 1086.68 24.6648ZM1096.63 26.1705C1095.76 26.1705 1095.01 25.9792 1094.38 25.5966C1093.76 25.214 1093.28 24.6856 1092.95 24.0114C1092.61 23.3333 1092.45 22.553 1092.45 21.6705C1092.45 20.7841 1092.62 20.0019 1092.96 19.3239C1093.3 18.642 1093.78 18.1117 1094.4 17.733C1095.03 17.3504 1095.77 17.1591 1096.62 17.1591C1097.33 17.1591 1097.95 17.2898 1098.5 17.5511C1099.05 17.8087 1099.49 18.1742 1099.81 18.6477C1100.14 19.1174 1100.32 19.6667 1100.37 20.2955H1098.4C1098.32 19.875 1098.13 19.5246 1097.83 19.2443C1097.54 18.9602 1097.14 18.8182 1096.65 18.8182C1096.23 18.8182 1095.86 18.9318 1095.54 19.1591C1095.22 19.3826 1094.97 19.7045 1094.79 20.125C1094.62 20.5455 1094.53 21.0492 1094.53 21.6364C1094.53 22.2311 1094.62 22.7424 1094.79 23.1705C1094.97 23.5947 1095.21 23.9223 1095.53 24.1534C1095.85 24.3807 1096.22 24.4943 1096.65 24.4943C1096.95 24.4943 1097.22 24.4375 1097.46 24.3239C1097.7 24.2064 1097.9 24.0379 1098.07 23.8182C1098.23 23.5985 1098.34 23.3314 1098.4 23.017H1100.37C1100.32 23.6345 1100.14 24.1818 1099.82 24.6591C1099.51 25.1326 1099.08 25.5038 1098.54 25.7727C1098 26.0379 1097.36 26.1705 1096.63 26.1705ZM1103.93 23.2614L1103.93 20.7784H1104.26L1107.39 17.2727H1109.8L1105.94 21.5682H1105.51L1103.93 23.2614ZM1102.06 26V14.3636H1104.11V26H1102.06ZM1107.53 26L1104.69 22.0284L1106.08 20.5795L1109.99 26H1107.53ZM1116.73 22.3295V17.2727H1118.79V26H1116.79V24.4489H1116.7C1116.5 24.9375 1116.18 25.3371 1115.73 25.6477C1115.28 25.9583 1114.73 26.1136 1114.08 26.1136C1113.5 26.1136 1113 25.9867 1112.56 25.733C1112.12 25.4754 1111.78 25.1023 1111.54 24.6136C1111.29 24.1212 1111.17 23.5265 1111.17 22.8295V17.2727H1113.22V22.5114C1113.22 23.0644 1113.37 23.5038 1113.68 23.8295C1113.98 24.1553 1114.38 24.3182 1114.87 24.3182C1115.17 24.3182 1115.47 24.2443 1115.75 24.0966C1116.04 23.9489 1116.27 23.7292 1116.45 23.4375C1116.64 23.142 1116.73 22.7727 1116.73 22.3295ZM1120.9 29.2727V17.2727H1122.92V18.7159H1123.04C1123.15 18.5038 1123.3 18.2784 1123.49 18.0398C1123.68 17.7973 1123.95 17.5909 1124.28 17.4205C1124.61 17.2462 1125.03 17.1591 1125.54 17.1591C1126.21 17.1591 1126.82 17.3314 1127.36 17.6761C1127.91 18.017 1128.34 18.5227 1128.66 19.1932C1128.98 19.8598 1129.14 20.678 1129.14 21.6477C1129.14 22.6061 1128.98 23.4205 1128.67 24.0909C1128.35 24.7614 1127.93 25.2727 1127.38 25.625C1126.84 25.9773 1126.23 26.1534 1125.54 26.1534C1125.04 26.1534 1124.63 26.0701 1124.3 25.9034C1123.97 25.7367 1123.7 25.536 1123.5 25.3011C1123.31 25.0625 1123.15 24.8371 1123.04 24.625H1122.96V29.2727H1120.9ZM1122.92 21.6364C1122.92 22.2008 1123 22.6951 1123.16 23.1193C1123.32 23.5436 1123.55 23.875 1123.86 24.1136C1124.16 24.3485 1124.53 24.4659 1124.97 24.4659C1125.42 24.4659 1125.8 24.3447 1126.11 24.1023C1126.42 23.8561 1126.65 23.5208 1126.8 23.0966C1126.96 22.6686 1127.04 22.1818 1127.04 21.6364C1127.04 21.0947 1126.96 20.6136 1126.81 20.1932C1126.65 19.7727 1126.42 19.4432 1126.12 19.2045C1125.81 18.9659 1125.43 18.8466 1124.97 18.8466C1124.53 18.8466 1124.16 18.9621 1123.85 19.1932C1123.54 19.4242 1123.31 19.7481 1123.15 20.1648C1123 20.5814 1122.92 21.072 1122.92 21.6364Z" fill="white"/>
<g filter="url(#filter0_d_916_86582)">
<rect x="385" y="56" width="759" height="523" rx="16" fill="#1D1D21"/>
<rect x="384.5" y="55.5" width="760" height="524" rx="16.5" stroke="#2D2D31"/>
<rect x="385" y="109" width="224" height="1" fill="#2D2D31"/>
<path d="M385 72C385 63.1634 392.163 56 401 56H609V109H385V72Z" fill="#1D1D21"/>
<rect x="385" y="163.135" width="224" height="1" fill="#2D2D31"/>
<rect width="224" height="53.2703" transform="translate(385 110)" fill="#1D1D21"/>
<rect x="385" y="217.135" width="224" height="1" fill="#2D2D31"/>
<rect width="224" height="53.2703" transform="translate(385 164)" fill="#1D1D21"/>
<rect x="385" y="271.135" width="224" height="1" fill="#2D2D31"/>
<rect width="224" height="53.2703" transform="translate(385 218)" fill="#1D1D21"/>
<rect x="385" y="325.135" width="224" height="1" fill="#2D2D31"/>
<rect width="224" height="53.2703" transform="translate(385 272)" fill="#1D1D21"/>
<rect x="385" y="379.135" width="224" height="1" fill="#2D2D31"/>
<rect width="224" height="53.2703" transform="translate(385 326)" fill="#1D1D21"/>
<rect x="385" y="433.135" width="224" height="1" fill="#2D2D31"/>
<rect width="224" height="53.2703" transform="translate(385 380)" fill="#1D1D21"/>
<rect x="385" y="487.135" width="224" height="1" fill="#2D2D31"/>
<rect width="224" height="53.2703" transform="translate(385 434)" fill="#1D1D21"/>
<rect x="385" y="541.135" width="224" height="1" fill="#2D2D31"/>
<rect width="224" height="53.2703" transform="translate(385 488)" fill="#1D1D21"/>
<rect x="385" y="578.25" width="224" height="1" fill="#2D2D31"/>
<rect width="224" height="36.5" transform="translate(385 542)" fill="#1D1D21"/>
<rect x="609" y="109" width="151.667" height="1" fill="#2D2D31"/>
<path d="M609 56H760.667V109H609V56Z" fill="#1D1D21"/>
<rect x="609" y="163.135" width="151.667" height="1" fill="#2D2D31"/>
<rect width="151.667" height="53.2703" transform="translate(609 110)" fill="#1D1D21"/>
<rect x="609" y="217.135" width="151.667" height="1" fill="#2D2D31"/>
<rect width="151.667" height="53.2703" transform="translate(609 164)" fill="#1D1D21"/>
<rect x="609" y="271.135" width="151.667" height="1" fill="#2D2D31"/>
<rect width="151.667" height="53.2703" transform="translate(609 218)" fill="#1D1D21"/>
<rect x="609" y="325.135" width="151.667" height="1" fill="#2D2D31"/>
<rect width="151.667" height="53.2703" transform="translate(609 272)" fill="#1D1D21"/>
<rect x="609" y="379.135" width="151.667" height="1" fill="#2D2D31"/>
<rect width="151.667" height="53.2703" transform="translate(609 326)" fill="#1D1D21"/>
<rect x="609" y="433.135" width="151.667" height="1" fill="#2D2D31"/>
<rect width="151.667" height="53.2703" transform="translate(609 380)" fill="#1D1D21"/>
<rect x="609" y="487.135" width="151.667" height="1" fill="#2D2D31"/>
<rect width="151.667" height="53.2703" transform="translate(609 434)" fill="#1D1D21"/>
<rect x="609" y="541.135" width="151.667" height="1" fill="#2D2D31"/>
<rect width="151.667" height="53.2703" transform="translate(609 488)" fill="#1D1D21"/>
<rect x="609" y="578.25" width="151.667" height="1" fill="#2D2D31"/>
<rect width="151.667" height="36.5" transform="translate(609 542)" fill="#1D1D21"/>
<rect x="760.666" y="109" width="151.667" height="1" fill="#2D2D31"/>
<path d="M760.666 56H912.333V109H760.666V56Z" fill="#1D1D21"/>
<rect x="760.666" y="163.135" width="151.667" height="1" fill="#2D2D31"/>
<rect width="151.667" height="53.2703" transform="translate(760.666 110)" fill="#1D1D21"/>
<rect x="760.666" y="217.135" width="151.667" height="1" fill="#2D2D31"/>
<rect width="151.667" height="53.2703" transform="translate(760.666 164)" fill="#1D1D21"/>
<rect x="760.666" y="271.135" width="151.667" height="1" fill="#2D2D31"/>
<rect width="151.667" height="53.2703" transform="translate(760.666 218)" fill="#1D1D21"/>
<rect x="760.666" y="325.135" width="151.667" height="1" fill="#2D2D31"/>
<rect width="151.667" height="53.2703" transform="translate(760.666 272)" fill="#1D1D21"/>
<rect x="760.666" y="379.135" width="151.667" height="1" fill="#2D2D31"/>
<rect width="151.667" height="53.2703" transform="translate(760.666 326)" fill="#1D1D21"/>
<rect x="760.666" y="433.135" width="151.667" height="1" fill="#2D2D31"/>
<rect width="151.667" height="53.2703" transform="translate(760.666 380)" fill="#1D1D21"/>
<rect x="760.666" y="487.135" width="151.667" height="1" fill="#2D2D31"/>
<rect width="151.667" height="53.2703" transform="translate(760.666 434)" fill="#1D1D21"/>
<rect x="760.666" y="541.135" width="151.667" height="1" fill="#2D2D31"/>
<rect width="151.667" height="53.2703" transform="translate(760.666 488)" fill="#1D1D21"/>
<rect x="760.666" y="578.25" width="151.667" height="1" fill="#2D2D31"/>
<rect width="151.667" height="36.5" transform="translate(760.666 542)" fill="#1D1D21"/>
<rect x="912.334" y="109" width="151.667" height="1" fill="#2D2D31"/>
<path d="M912.334 56H1064V109H912.334V56Z" fill="#1D1D21"/>
<rect x="912.334" y="163.135" width="151.667" height="1" fill="#2D2D31"/>
<rect width="151.667" height="53.2703" transform="translate(912.334 110)" fill="#1D1D21"/>
<rect x="912.334" y="217.135" width="151.667" height="1" fill="#2D2D31"/>
<rect width="151.667" height="53.2703" transform="translate(912.334 164)" fill="#1D1D21"/>
<rect x="912.334" y="271.135" width="151.667" height="1" fill="#2D2D31"/>
<rect width="151.667" height="53.2703" transform="translate(912.334 218)" fill="#1D1D21"/>
<rect x="912.334" y="325.135" width="151.667" height="1" fill="#2D2D31"/>
<rect width="151.667" height="53.2703" transform="translate(912.334 272)" fill="#1D1D21"/>
<rect x="912.334" y="379.135" width="151.667" height="1" fill="#2D2D31"/>
<rect width="151.667" height="53.2703" transform="translate(912.334 326)" fill="#1D1D21"/>
<rect x="912.334" y="433.135" width="151.667" height="1" fill="#2D2D31"/>
<rect width="151.667" height="53.2703" transform="translate(912.334 380)" fill="#1D1D21"/>
<rect x="912.334" y="487.135" width="151.667" height="1" fill="#2D2D31"/>
<rect width="151.667" height="53.2703" transform="translate(912.334 434)" fill="#1D1D21"/>
<rect x="912.334" y="541.135" width="151.667" height="1" fill="#2D2D31"/>
<rect width="151.667" height="53.2703" transform="translate(912.334 488)" fill="#1D1D21"/>
<rect x="912.334" y="578.25" width="151.667" height="1" fill="#2D2D31"/>
<rect width="151.667" height="36.5" transform="translate(912.334 542)" fill="#1D1D21"/>
<rect x="1064" y="109" width="80" height="1" fill="#2D2D31"/>
<path d="M1064 56H1128C1136.84 56 1144 63.1634 1144 72V109H1064V56Z" fill="#1D1D21"/>
<rect x="1064" y="163.135" width="80" height="1" fill="#2D2D31"/>
<rect width="80" height="53.2703" transform="translate(1064 110)" fill="#1D1D21"/>
<rect x="1064" y="217.135" width="80" height="1" fill="#2D2D31"/>
<rect width="80" height="53.2703" transform="translate(1064 164)" fill="#1D1D21"/>
<rect x="1064" y="271.135" width="80" height="1" fill="#2D2D31"/>
<rect width="80" height="53.2703" transform="translate(1064 218)" fill="#1D1D21"/>
<rect x="1064" y="325.135" width="80" height="1" fill="#2D2D31"/>
<rect width="80" height="53.2703" transform="translate(1064 272)" fill="#1D1D21"/>
<rect x="1064" y="379.135" width="80" height="1" fill="#2D2D31"/>
<rect width="80" height="53.2703" transform="translate(1064 326)" fill="#1D1D21"/>
<rect x="1064" y="433.135" width="80" height="1" fill="#2D2D31"/>
<rect width="80" height="53.2703" transform="translate(1064 380)" fill="#1D1D21"/>
<rect x="1064" y="487.135" width="80" height="1" fill="#2D2D31"/>
<rect width="80" height="53.2703" transform="translate(1064 434)" fill="#1D1D21"/>
<rect x="1064" y="541.135" width="80" height="1" fill="#2D2D31"/>
<rect width="80" height="53.2703" transform="translate(1064 488)" fill="#1D1D21"/>
<rect x="1064" y="578.25" width="80" height="1" fill="#2D2D31"/>
<rect width="80" height="36.5" transform="translate(1064 542)" fill="#1D1D21"/>
</g>
<rect x="401" y="78" width="95" height="12" rx="6" fill="url(#paint0_linear_916_86582)"/>
<rect x="16" y="75" width="95" height="12" rx="6" fill="url(#paint1_linear_916_86582)"/>
<rect x="16" y="201" width="95" height="12" rx="6" fill="url(#paint2_linear_916_86582)"/>
<rect x="16" y="326" width="95" height="12" rx="6" fill="url(#paint3_linear_916_86582)"/>
<rect x="401" y="294" width="95" height="12" rx="6" fill="url(#paint4_linear_916_86582)"/>
<rect x="625" y="294" width="95" height="12" rx="6" fill="url(#paint5_linear_916_86582)"/>
<rect x="777" y="294" width="95" height="12" rx="6" fill="url(#paint6_linear_916_86582)"/>
<rect x="928" y="294" width="95" height="12" rx="6" fill="url(#paint7_linear_916_86582)"/>
<rect x="401" y="185" width="95" height="12" rx="6" fill="url(#paint8_linear_916_86582)"/>
<rect x="625" y="185" width="95" height="12" rx="6" fill="url(#paint9_linear_916_86582)"/>
<rect x="777" y="185" width="95" height="12" rx="6" fill="url(#paint10_linear_916_86582)"/>
<rect x="928" y="185" width="95" height="12" rx="6" fill="url(#paint11_linear_916_86582)"/>
<rect x="401" y="401" width="95" height="12" rx="6" fill="url(#paint12_linear_916_86582)"/>
<rect x="625" y="401" width="95" height="12" rx="6" fill="url(#paint13_linear_916_86582)"/>
<rect x="777" y="401" width="95" height="12" rx="6" fill="url(#paint14_linear_916_86582)"/>
<rect x="928" y="401" width="95" height="12" rx="6" fill="url(#paint15_linear_916_86582)"/>
<rect x="401" y="131" width="95" height="12" rx="6" fill="url(#paint16_linear_916_86582)"/>
<rect x="625" y="131" width="95" height="12" rx="6" fill="url(#paint17_linear_916_86582)"/>
<rect x="777" y="131" width="95" height="12" rx="6" fill="url(#paint18_linear_916_86582)"/>
<rect x="928" y="131" width="95" height="12" rx="6" fill="url(#paint19_linear_916_86582)"/>
<rect x="401" y="347" width="95" height="12" rx="6" fill="url(#paint20_linear_916_86582)"/>
<rect x="625" y="347" width="95" height="12" rx="6" fill="url(#paint21_linear_916_86582)"/>
<rect x="777" y="347" width="95" height="12" rx="6" fill="url(#paint22_linear_916_86582)"/>
<rect x="928" y="347" width="95" height="12" rx="6" fill="url(#paint23_linear_916_86582)"/>
<rect x="401" y="238" width="95" height="12" rx="6" fill="url(#paint24_linear_916_86582)"/>
<rect x="625" y="238" width="95" height="12" rx="6" fill="url(#paint25_linear_916_86582)"/>
<rect x="777" y="238" width="95" height="12" rx="6" fill="url(#paint26_linear_916_86582)"/>
<rect x="928" y="238" width="95" height="12" rx="6" fill="url(#paint27_linear_916_86582)"/>
<rect x="401" y="454" width="95" height="12" rx="6" fill="url(#paint28_linear_916_86582)"/>
<rect x="625" y="454" width="95" height="12" rx="6" fill="url(#paint29_linear_916_86582)"/>
<rect x="777" y="454" width="95" height="12" rx="6" fill="url(#paint30_linear_916_86582)"/>
<rect x="928" y="454" width="95" height="12" rx="6" fill="url(#paint31_linear_916_86582)"/>
<rect x="401" y="507" width="95" height="12" rx="6" fill="url(#paint32_linear_916_86582)"/>
<rect x="401" y="560" width="95" height="12" rx="6" fill="url(#paint33_linear_916_86582)"/>
<rect x="625" y="507" width="95" height="12" rx="6" fill="url(#paint34_linear_916_86582)"/>
<rect x="625" y="560" width="95" height="12" rx="6" fill="url(#paint35_linear_916_86582)"/>
<rect x="777" y="507" width="95" height="12" rx="6" fill="url(#paint36_linear_916_86582)"/>
<rect x="777" y="560" width="95" height="12" rx="6" fill="url(#paint37_linear_916_86582)"/>
<rect x="928" y="507" width="95" height="12" rx="6" fill="url(#paint38_linear_916_86582)"/>
<rect x="928" y="560" width="95" height="12" rx="6" fill="url(#paint39_linear_916_86582)"/>
<rect x="777" y="78" width="95" height="12" rx="6" fill="url(#paint40_linear_916_86582)"/>
<rect x="625" y="78" width="95" height="12" rx="6" fill="url(#paint41_linear_916_86582)"/>
<rect x="928" y="78" width="95" height="12" rx="6" fill="url(#paint42_linear_916_86582)"/>
<rect x="17" y="153" width="113" height="8" rx="4" fill="url(#paint43_linear_916_86582)"/>
<rect x="17" y="279" width="113" height="8" rx="4" fill="url(#paint44_linear_916_86582)"/>
<rect x="17" y="404" width="113" height="8" rx="4" fill="url(#paint45_linear_916_86582)"/>
<rect x="195" y="153" width="113" height="8" rx="4" fill="url(#paint46_linear_916_86582)"/>
<rect x="195" y="279" width="113" height="8" rx="4" fill="url(#paint47_linear_916_86582)"/>
<rect x="195" y="404" width="113" height="8" rx="4" fill="url(#paint48_linear_916_86582)"/>
<rect x="17" y="137" width="64" height="8" rx="4" fill="url(#paint49_linear_916_86582)"/>
<rect x="17" y="263" width="64" height="8" rx="4" fill="url(#paint50_linear_916_86582)"/>
<rect x="17" y="388" width="64" height="8" rx="4" fill="url(#paint51_linear_916_86582)"/>
<rect x="195" y="137" width="64" height="8" rx="4" fill="url(#paint52_linear_916_86582)"/>
<rect x="195" y="263" width="64" height="8" rx="4" fill="url(#paint53_linear_916_86582)"/>
<rect x="195" y="388" width="64" height="8" rx="4" fill="url(#paint54_linear_916_86582)"/>
<rect x="16" y="99" width="259" height="8" rx="4" fill="url(#paint55_linear_916_86582)"/>
<rect x="16" y="225" width="259" height="8" rx="4" fill="url(#paint56_linear_916_86582)"/>
<rect x="16" y="350" width="259" height="8" rx="4" fill="url(#paint57_linear_916_86582)"/>
<rect width="1145" height="579" transform="matrix(1 0 0 -1 0 579)" fill="url(#paint58_linear_916_86582)"/>
<defs>
<filter id="filter0_d_916_86582" x="352" y="39" width="825" height="589" filterUnits="userSpaceOnUse" color-interpolation-filters="sRGB">
<feFlood flood-opacity="0" result="BackgroundImageFix"/>
<feColorMatrix in="SourceAlpha" type="matrix" values="0 0 0 0 0 0 0 0 0 0 0 0 0 0 0 0 0 0 127 0" result="hardAlpha"/>
<feOffset dy="16"/>
<feGaussianBlur stdDeviation="16"/>
<feColorMatrix type="matrix" values="0 0 0 0 0.215686 0 0 0 0 0.231373 0 0 0 0 0.301961 0 0 0 0.02 0"/>
<feBlend mode="normal" in2="BackgroundImageFix" result="effect1_dropShadow_916_86582"/>
<feBlend mode="normal" in="SourceGraphic" in2="effect1_dropShadow_916_86582" result="shape"/>
</filter>
<linearGradient id="paint0_linear_916_86582" x1="401" y1="84" x2="507" y2="84" gradientUnits="userSpaceOnUse">
<stop stop-color="#2D2D33"/>
<stop offset="1" stop-color="#1D1D21"/>
</linearGradient>
<linearGradient id="paint1_linear_916_86582" x1="16" y1="81" x2="122" y2="81" gradientUnits="userSpaceOnUse">
<stop stop-color="#2D2D33"/>
<stop offset="1" stop-color="#1D1D21"/>
</linearGradient>
<linearGradient id="paint2_linear_916_86582" x1="16" y1="207" x2="122" y2="207" gradientUnits="userSpaceOnUse">
<stop stop-color="#2D2D33"/>
<stop offset="1" stop-color="#1D1D21"/>
</linearGradient>
<linearGradient id="paint3_linear_916_86582" x1="16" y1="332" x2="122" y2="332" gradientUnits="userSpaceOnUse">
<stop stop-color="#2D2D33"/>
<stop offset="1" stop-color="#1D1D21"/>
</linearGradient>
<linearGradient id="paint4_linear_916_86582" x1="401" y1="300" x2="507" y2="300" gradientUnits="userSpaceOnUse">
<stop stop-color="#2D2D33"/>
<stop offset="1" stop-color="#1D1D21"/>
</linearGradient>
<linearGradient id="paint5_linear_916_86582" x1="625" y1="300" x2="731" y2="300" gradientUnits="userSpaceOnUse">
<stop stop-color="#2D2D33"/>
<stop offset="1" stop-color="#1D1D21"/>
</linearGradient>
<linearGradient id="paint6_linear_916_86582" x1="777" y1="300" x2="883" y2="300" gradientUnits="userSpaceOnUse">
<stop stop-color="#2D2D33"/>
<stop offset="1" stop-color="#1D1D21"/>
</linearGradient>
<linearGradient id="paint7_linear_916_86582" x1="928" y1="300" x2="1034" y2="300" gradientUnits="userSpaceOnUse">
<stop stop-color="#2D2D33"/>
<stop offset="1" stop-color="#1D1D21"/>
</linearGradient>
<linearGradient id="paint8_linear_916_86582" x1="401" y1="191" x2="507" y2="191" gradientUnits="userSpaceOnUse">
<stop stop-color="#2D2D33"/>
<stop offset="1" stop-color="#1D1D21"/>
</linearGradient>
<linearGradient id="paint9_linear_916_86582" x1="625" y1="191" x2="731" y2="191" gradientUnits="userSpaceOnUse">
<stop stop-color="#2D2D33"/>
<stop offset="1" stop-color="#1D1D21"/>
</linearGradient>
<linearGradient id="paint10_linear_916_86582" x1="777" y1="191" x2="883" y2="191" gradientUnits="userSpaceOnUse">
<stop stop-color="#2D2D33"/>
<stop offset="1" stop-color="#1D1D21"/>
</linearGradient>
<linearGradient id="paint11_linear_916_86582" x1="928" y1="191" x2="1034" y2="191" gradientUnits="userSpaceOnUse">
<stop stop-color="#2D2D33"/>
<stop offset="1" stop-color="#1D1D21"/>
</linearGradient>
<linearGradient id="paint12_linear_916_86582" x1="401" y1="407" x2="507" y2="407" gradientUnits="userSpaceOnUse">
<stop stop-color="#2D2D33"/>
<stop offset="1" stop-color="#1D1D21"/>
</linearGradient>
<linearGradient id="paint13_linear_916_86582" x1="625" y1="407" x2="731" y2="407" gradientUnits="userSpaceOnUse">
<stop stop-color="#2D2D33"/>
<stop offset="1" stop-color="#1D1D21"/>
</linearGradient>
<linearGradient id="paint14_linear_916_86582" x1="777" y1="407" x2="883" y2="407" gradientUnits="userSpaceOnUse">
<stop stop-color="#2D2D33"/>
<stop offset="1" stop-color="#1D1D21"/>
</linearGradient>
<linearGradient id="paint15_linear_916_86582" x1="928" y1="407" x2="1034" y2="407" gradientUnits="userSpaceOnUse">
<stop stop-color="#2D2D33"/>
<stop offset="1" stop-color="#1D1D21"/>
</linearGradient>
<linearGradient id="paint16_linear_916_86582" x1="401" y1="137" x2="507" y2="137" gradientUnits="userSpaceOnUse">
<stop stop-color="#2D2D33"/>
<stop offset="1" stop-color="#1D1D21"/>
</linearGradient>
<linearGradient id="paint17_linear_916_86582" x1="625" y1="137" x2="731" y2="137" gradientUnits="userSpaceOnUse">
<stop stop-color="#2D2D33"/>
<stop offset="1" stop-color="#1D1D21"/>
</linearGradient>
<linearGradient id="paint18_linear_916_86582" x1="777" y1="137" x2="883" y2="137" gradientUnits="userSpaceOnUse">
<stop stop-color="#2D2D33"/>
<stop offset="1" stop-color="#1D1D21"/>
</linearGradient>
<linearGradient id="paint19_linear_916_86582" x1="928" y1="137" x2="1034" y2="137" gradientUnits="userSpaceOnUse">
<stop stop-color="#2D2D33"/>
<stop offset="1" stop-color="#1D1D21"/>
</linearGradient>
<linearGradient id="paint20_linear_916_86582" x1="401" y1="353" x2="507" y2="353" gradientUnits="userSpaceOnUse">
<stop stop-color="#2D2D33"/>
<stop offset="1" stop-color="#1D1D21"/>
</linearGradient>
<linearGradient id="paint21_linear_916_86582" x1="625" y1="353" x2="731" y2="353" gradientUnits="userSpaceOnUse">
<stop stop-color="#2D2D33"/>
<stop offset="1" stop-color="#1D1D21"/>
</linearGradient>
<linearGradient id="paint22_linear_916_86582" x1="777" y1="353" x2="883" y2="353" gradientUnits="userSpaceOnUse">
<stop stop-color="#2D2D33"/>
<stop offset="1" stop-color="#1D1D21"/>
</linearGradient>
<linearGradient id="paint23_linear_916_86582" x1="928" y1="353" x2="1034" y2="353" gradientUnits="userSpaceOnUse">
<stop stop-color="#2D2D33"/>
<stop offset="1" stop-color="#1D1D21"/>
</linearGradient>
<linearGradient id="paint24_linear_916_86582" x1="401" y1="244" x2="507" y2="244" gradientUnits="userSpaceOnUse">
<stop stop-color="#2D2D33"/>
<stop offset="1" stop-color="#1D1D21"/>
</linearGradient>
<linearGradient id="paint25_linear_916_86582" x1="625" y1="244" x2="731" y2="244" gradientUnits="userSpaceOnUse">
<stop stop-color="#2D2D33"/>
<stop offset="1" stop-color="#1D1D21"/>
</linearGradient>
<linearGradient id="paint26_linear_916_86582" x1="777" y1="244" x2="883" y2="244" gradientUnits="userSpaceOnUse">
<stop stop-color="#2D2D33"/>
<stop offset="1" stop-color="#1D1D21"/>
</linearGradient>
<linearGradient id="paint27_linear_916_86582" x1="928" y1="244" x2="1034" y2="244" gradientUnits="userSpaceOnUse">
<stop stop-color="#2D2D33"/>
<stop offset="1" stop-color="#1D1D21"/>
</linearGradient>
<linearGradient id="paint28_linear_916_86582" x1="401" y1="460" x2="507" y2="460" gradientUnits="userSpaceOnUse">
<stop stop-color="#2D2D33"/>
<stop offset="1" stop-color="#1D1D21"/>
</linearGradient>
<linearGradient id="paint29_linear_916_86582" x1="625" y1="460" x2="731" y2="460" gradientUnits="userSpaceOnUse">
<stop stop-color="#2D2D33"/>
<stop offset="1" stop-color="#1D1D21"/>
</linearGradient>
<linearGradient id="paint30_linear_916_86582" x1="777" y1="460" x2="883" y2="460" gradientUnits="userSpaceOnUse">
<stop stop-color="#2D2D33"/>
<stop offset="1" stop-color="#1D1D21"/>
</linearGradient>
<linearGradient id="paint31_linear_916_86582" x1="928" y1="460" x2="1034" y2="460" gradientUnits="userSpaceOnUse">
<stop stop-color="#2D2D33"/>
<stop offset="1" stop-color="#1D1D21"/>
</linearGradient>
<linearGradient id="paint32_linear_916_86582" x1="401" y1="513" x2="507" y2="513" gradientUnits="userSpaceOnUse">
<stop stop-color="#2D2D33"/>
<stop offset="1" stop-color="#1D1D21"/>
</linearGradient>
<linearGradient id="paint33_linear_916_86582" x1="401" y1="566" x2="507" y2="566" gradientUnits="userSpaceOnUse">
<stop stop-color="#2D2D33"/>
<stop offset="1" stop-color="#1D1D21"/>
</linearGradient>
<linearGradient id="paint34_linear_916_86582" x1="625" y1="513" x2="731" y2="513" gradientUnits="userSpaceOnUse">
<stop stop-color="#2D2D33"/>
<stop offset="1" stop-color="#1D1D21"/>
</linearGradient>
<linearGradient id="paint35_linear_916_86582" x1="625" y1="566" x2="731" y2="566" gradientUnits="userSpaceOnUse">
<stop stop-color="#2D2D33"/>
<stop offset="1" stop-color="#1D1D21"/>
</linearGradient>
<linearGradient id="paint36_linear_916_86582" x1="777" y1="513" x2="883" y2="513" gradientUnits="userSpaceOnUse">
<stop stop-color="#2D2D33"/>
<stop offset="1" stop-color="#1D1D21"/>
</linearGradient>
<linearGradient id="paint37_linear_916_86582" x1="777" y1="566" x2="883" y2="566" gradientUnits="userSpaceOnUse">
<stop stop-color="#2D2D33"/>
<stop offset="1" stop-color="#1D1D21"/>
</linearGradient>
<linearGradient id="paint38_linear_916_86582" x1="928" y1="513" x2="1034" y2="513" gradientUnits="userSpaceOnUse">
<stop stop-color="#2D2D33"/>
<stop offset="1" stop-color="#1D1D21"/>
</linearGradient>
<linearGradient id="paint39_linear_916_86582" x1="928" y1="566" x2="1034" y2="566" gradientUnits="userSpaceOnUse">
<stop stop-color="#2D2D33"/>
<stop offset="1" stop-color="#1D1D21"/>
</linearGradient>
<linearGradient id="paint40_linear_916_86582" x1="777" y1="84" x2="883" y2="84" gradientUnits="userSpaceOnUse">
<stop stop-color="#2D2D33"/>
<stop offset="1" stop-color="#1D1D21"/>
</linearGradient>
<linearGradient id="paint41_linear_916_86582" x1="625" y1="84" x2="746" y2="84" gradientUnits="userSpaceOnUse">
<stop stop-color="#2D2D33"/>
<stop offset="1" stop-color="#1D1D21"/>
</linearGradient>
<linearGradient id="paint42_linear_916_86582" x1="928" y1="84" x2="1049" y2="84" gradientUnits="userSpaceOnUse">
<stop stop-color="#2D2D33"/>
<stop offset="1" stop-color="#1D1D21"/>
</linearGradient>
<linearGradient id="paint43_linear_916_86582" x1="17" y1="157" x2="123.82" y2="157" gradientUnits="userSpaceOnUse">
<stop stop-color="#2D2D33"/>
<stop offset="1" stop-color="#1D1D21"/>
</linearGradient>
<linearGradient id="paint44_linear_916_86582" x1="17" y1="283" x2="123.82" y2="283" gradientUnits="userSpaceOnUse">
<stop stop-color="#2D2D33"/>
<stop offset="1" stop-color="#1D1D21"/>
</linearGradient>
<linearGradient id="paint45_linear_916_86582" x1="17" y1="408" x2="123.82" y2="408" gradientUnits="userSpaceOnUse">
<stop stop-color="#2D2D33"/>
<stop offset="1" stop-color="#1D1D21"/>
</linearGradient>
<linearGradient id="paint46_linear_916_86582" x1="195" y1="157" x2="301.82" y2="157" gradientUnits="userSpaceOnUse">
<stop stop-color="#2D2D33"/>
<stop offset="1" stop-color="#1D1D21"/>
</linearGradient>
<linearGradient id="paint47_linear_916_86582" x1="195" y1="283" x2="301.82" y2="283" gradientUnits="userSpaceOnUse">
<stop stop-color="#2D2D33"/>
<stop offset="1" stop-color="#1D1D21"/>
</linearGradient>
<linearGradient id="paint48_linear_916_86582" x1="195" y1="408" x2="301.82" y2="408" gradientUnits="userSpaceOnUse">
<stop stop-color="#2D2D33"/>
<stop offset="1" stop-color="#1D1D21"/>
</linearGradient>
<linearGradient id="paint49_linear_916_86582" x1="17" y1="141" x2="77.5" y2="141" gradientUnits="userSpaceOnUse">
<stop stop-color="#2D2D33"/>
<stop offset="1" stop-color="#1D1D21"/>
</linearGradient>
<linearGradient id="paint50_linear_916_86582" x1="17" y1="267" x2="77.5" y2="267" gradientUnits="userSpaceOnUse">
<stop stop-color="#2D2D33"/>
<stop offset="1" stop-color="#1D1D21"/>
</linearGradient>
<linearGradient id="paint51_linear_916_86582" x1="17" y1="392" x2="77.5" y2="392" gradientUnits="userSpaceOnUse">
<stop stop-color="#2D2D33"/>
<stop offset="1" stop-color="#1D1D21"/>
</linearGradient>
<linearGradient id="paint52_linear_916_86582" x1="195" y1="141" x2="255.5" y2="141" gradientUnits="userSpaceOnUse">
<stop stop-color="#2D2D33"/>
<stop offset="1" stop-color="#1D1D21"/>
</linearGradient>
<linearGradient id="paint53_linear_916_86582" x1="195" y1="267" x2="255.5" y2="267" gradientUnits="userSpaceOnUse">
<stop stop-color="#2D2D33"/>
<stop offset="1" stop-color="#1D1D21"/>
</linearGradient>
<linearGradient id="paint54_linear_916_86582" x1="195" y1="392" x2="255.5" y2="392" gradientUnits="userSpaceOnUse">
<stop stop-color="#2D2D33"/>
<stop offset="1" stop-color="#1D1D21"/>
</linearGradient>
<linearGradient id="paint55_linear_916_86582" x1="16" y1="103" x2="260.836" y2="103" gradientUnits="userSpaceOnUse">
<stop stop-color="#2D2D33"/>
<stop offset="1" stop-color="#1D1D21"/>
</linearGradient>
<linearGradient id="paint56_linear_916_86582" x1="16" y1="229" x2="260.836" y2="229" gradientUnits="userSpaceOnUse">
<stop stop-color="#2D2D33"/>
<stop offset="1" stop-color="#1D1D21"/>
</linearGradient>
<linearGradient id="paint57_linear_916_86582" x1="16" y1="354" x2="260.836" y2="354" gradientUnits="userSpaceOnUse">
<stop stop-color="#2D2D33"/>
<stop offset="1" stop-color="#1D1D21"/>
</linearGradient>
<linearGradient id="paint58_linear_916_86582" x1="0" y1="0" x2="0" y2="673.928" gradientUnits="userSpaceOnUse">
<stop offset="0.156199" stop-color="#141416"/>
<stop offset="0.404133" stop-color="#141416" stop-opacity="0.6"/>
<stop offset="1" stop-color="#141416" stop-opacity="0"/>
</linearGradient>
</defs>
</svg>
