<svg width="56" height="21" viewBox="0 0 56 21" fill="none" xmlns="http://www.w3.org/2000/svg">
<path d="M55.3536 4.85355C55.5488 4.65829 55.5488 4.34171 55.3536 4.14645L52.1716 0.964466C51.9763 0.769204 51.6597 0.769204 51.4645 0.964466C51.2692 1.15973 51.2692 1.47631 51.4645 1.67157L54.2929 4.5L51.4645 7.32843C51.2692 7.52369 51.2692 7.84027 51.4645 8.03553C51.6597 8.2308 51.9763 8.2308 52.1716 8.03553L55.3536 4.85355ZM1 5H55V4H1V5Z" fill="#868EA3"/>
<path d="M0.646442 16.8536C0.45118 16.6583 0.45118 16.3417 0.646442 16.1464L3.82842 12.9645C4.02369 12.7692 4.34027 12.7692 4.53553 12.9645C4.73079 13.1597 4.73079 13.4763 4.53553 13.6716L1.7071 16.5L4.53553 19.3284C4.73079 19.5237 4.73079 19.8403 4.53553 20.0355C4.34027 20.2308 4.02369 20.2308 3.82842 20.0355L0.646442 16.8536ZM55 17H0.999996V16H55V17Z" fill="#868EA3"/>
</svg>
