<svg width="160" height="29" viewBox="0 0 160 29" fill="none" xmlns="http://www.w3.org/2000/svg">
<path d="M46.7351 23.5567C49.352 23.5567 50.6748 22.2115 51.25 21.2957H51.5088C51.6238 22.2688 52.314 23.1846 53.6656 23.1846H56.2249V20.3226H55.5635C55.1034 20.3226 54.8734 20.065 54.8734 19.6643V8.18751H51.48V10.0192H51.2212C50.5598 9.10336 49.1794 7.81544 46.6488 7.81544C42.6228 7.81544 39.6321 11.1354 39.6321 15.6861C39.6321 20.2367 42.6803 23.5567 46.7351 23.5567ZM47.339 20.294C44.9522 20.294 43.0829 18.5481 43.0829 15.7147C43.0829 12.9385 44.8946 11.0496 47.3102 11.0496C49.6108 11.0496 51.5375 12.7382 51.5375 15.7147C51.5375 18.2619 49.8984 20.294 47.339 20.294Z" fill="#19191D"/>
<path d="M58.2284 29H61.6217V21.2957H61.8805C62.5132 22.2115 63.8648 23.5567 66.5392 23.5567C70.5652 23.5567 73.4984 20.1795 73.4984 15.6861C73.4984 11.164 70.3639 7.81544 66.3091 7.81544C63.721 7.81544 62.4557 9.21785 61.8518 9.9906H61.593V8.18751H58.2284V29ZM65.8203 20.3798C63.4909 20.3798 61.5642 18.6626 61.5642 15.6861C61.5642 13.1389 63.2034 10.9923 65.7628 10.9923C68.1496 10.9923 70.0188 12.8526 70.0188 15.6861C70.0188 18.4623 68.2071 20.3798 65.8203 20.3798Z" fill="#19191D"/>
<path d="M75.2494 29H78.6428V21.2957H78.9016C79.5342 22.2115 80.8858 23.5567 83.5602 23.5567C87.5862 23.5567 90.2399 20.1795 90.2399 15.6861C90.2399 11.164 87.3849 7.81544 83.3302 7.81544C80.742 7.81544 79.4767 9.21785 78.8728 9.9906H78.614V8.18751H75.2494V29ZM82.8413 20.3798C80.512 20.3798 78.5852 18.6626 78.5852 15.6861C78.5852 13.1389 80.2244 10.9923 82.7838 10.9923C85.1706 10.9923 87.0398 12.8526 87.0398 15.6861C87.0398 18.4623 85.2281 20.3798 82.8413 20.3798Z" fill="#19191D"/>
<path d="M94.7255 23.5329H99.528L102.26 11.7699H102.432L105.164 23.5329H109.938L113.761 8.53576H110.341L107.609 20.3274H107.35L104.618 8.53576H100.103L97.3424 20.3274H97.0836L94.3804 8.53576H90.757L94.7255 23.5329Z" fill="#19191D"/>
<path d="M115.48 23.5329H118.873V16.1202C118.873 13.2868 120.196 11.5409 122.669 11.5409H124.164V8.1637H123.043C121.116 8.1637 119.65 9.48024 119.074 10.7395H118.844V8.53576H115.48V23.5329Z" fill="#19191D"/>
<path d="M141.004 23.5329H143.65V20.5277H141.033C139.997 20.5277 139.566 20.0698 139.566 19.0109V11.5123H143.822V8.53576H139.566V4.32855H136.345V8.53576H133.527V11.5123H136.144V19.0395C136.144 22.2164 138.071 23.5329 141.004 23.5329Z" fill="#19191D"/>
<path d="M152.753 23.5567C155.888 23.5567 158.649 22.0112 159.626 18.8916L156.521 18.1474C155.974 19.8074 154.392 20.666 152.725 20.666C150.251 20.666 148.612 19.0633 148.584 16.5447H160V15.6002C160 11.1354 157.211 7.81544 152.61 7.81544C148.555 7.81544 145.075 10.9923 145.075 15.7147C145.075 20.294 148.152 23.5567 152.753 23.5567ZM148.612 14.0833C148.814 12.2802 150.453 10.7634 152.61 10.7634C154.68 10.7634 156.377 12.0513 156.549 14.0833H148.612Z" fill="#19191D"/>
<path fill-rule="evenodd" clip-rule="evenodd" d="M132.018 23.5329H128.625V11.5123H125.979V8.53576H132.018V23.5329Z" fill="#19191D"/>
<path d="M130.069 6.45459C131.306 6.45459 132.226 5.53873 132.226 4.33667C132.226 3.16323 131.306 2.24738 130.069 2.24738C128.833 2.24738 127.912 3.16323 127.912 4.33667C127.912 5.53873 128.833 6.45459 130.069 6.45459Z" fill="#19191D"/>
<path d="M29.6277 19.8556V26.4741H13.0326C8.19779 26.4741 3.97629 23.8122 1.71769 19.8556C1.38936 19.2803 1.10198 18.6769 0.860926 18.0505C0.387713 16.8231 0.0902487 15.506 0 14.1317V12.3423C0.0195935 12.0361 0.050468 11.7322 0.0908425 11.432C0.173373 10.8159 0.298058 10.213 0.461931 9.62693C2.01219 4.07099 7.05306 0 13.0326 0C19.0122 0 24.0525 4.07099 25.6027 9.62693H18.5069C17.342 7.81587 15.3257 6.61852 13.0326 6.61852C10.7396 6.61852 8.72326 7.81587 7.55833 9.62693C7.20328 10.1775 6.92778 10.7846 6.74728 11.432C6.58697 12.006 6.50147 12.6113 6.50147 13.237C6.50147 15.1341 7.28877 16.8441 8.55107 18.0505C9.72074 19.1702 11.2977 19.8556 13.0326 19.8556H29.6277Z" fill="#FD366E"/>
<path d="M29.6277 11.432V18.0505H17.5142C18.7765 16.8442 19.5638 15.1342 19.5638 13.2371C19.5638 12.6113 19.4783 12.006 19.3179 11.432H29.6277Z" fill="#FD366E"/>
</svg>
