<svg width="32" height="32" viewBox="0 0 32 32" fill="none" xmlns="http://www.w3.org/2000/svg">
    <path d="M14.3916 26.4365C14.8232 26.4368 15.1729 26.7871 15.1729 27.2188C15.1726 27.6502 14.823 27.9998 14.3916 28C13.96 28 13.6096 27.6503 13.6094 27.2188C13.6094 26.787 13.9598 26.4365 14.3916 26.4365ZM17.5947 26.4365C18.0263 26.4368 18.376 26.7871 18.376 27.2188C18.3758 27.6502 18.0261 27.9998 17.5947 28C17.1631 28 16.8127 27.6503 16.8125 27.2188C16.8125 26.787 17.163 26.4365 17.5947 26.4365ZM11.1826 26.6611C11.4902 26.6613 11.7393 26.9111 11.7393 27.2188C11.739 27.5262 11.4901 27.7752 11.1826 27.7754C10.875 27.7754 10.6252 27.5263 10.625 27.2188C10.625 26.911 10.8749 26.6611 11.1826 26.6611ZM20.7998 26.6611C21.1074 26.6613 21.3564 26.9111 21.3564 27.2188C21.3562 27.5262 21.1073 27.7752 20.7998 27.7754C20.4922 27.7754 20.2424 27.5263 20.2422 27.2188C20.2422 26.911 20.492 26.6611 20.7998 26.6611ZM7.97168 27.0117C8.08561 27.0117 8.17864 27.1039 8.17871 27.2178C8.17871 27.3318 8.08566 27.4238 7.97168 27.4238C7.85785 27.4237 7.76562 27.3316 7.76562 27.2178C7.7657 27.104 7.8579 27.0119 7.97168 27.0117ZM24.0107 27.0117C24.1247 27.0117 24.2177 27.1039 24.2178 27.2178C24.2178 27.3318 24.1247 27.4238 24.0107 27.4238C23.8969 27.4237 23.8047 27.3316 23.8047 27.2178C23.8048 27.104 23.897 27.0119 24.0107 27.0117ZM16.3291 9.93457C17.277 9.01356 18.8942 9.38782 19.2773 10.6621L19.585 10.1445C21.1971 8.48805 23.504 10.8613 21.8018 12.4258L21.3184 12.7031C21.9961 12.8868 22.5171 13.5264 22.5498 14.2266L22.6543 13.8936C23.1823 12.5044 25.2055 12.7214 25.4287 14.1494C25.6957 15.8549 23.3078 16.4996 22.6631 14.9062L22.5498 14.5508C22.5212 15.1514 22.1134 15.7644 21.5449 15.9766L21.999 16.2832C22.3057 16.5831 22.5387 16.998 22.5498 17.4336L22.6631 17.0781C23.1471 15.8331 24.9593 15.8705 25.3691 17.125C25.9461 18.8922 23.4009 19.8344 22.6729 18.1367L22.5498 17.7578C22.5155 18.48 22.0054 19.0409 21.3506 19.2969C22.2936 19.6545 22.6954 20.7903 22.1543 21.6553C21.4503 22.7807 19.7521 22.5822 19.293 21.3545C19.037 22.0089 18.4767 22.5192 17.7549 22.5537L18.0869 22.6572C19.4765 23.185 19.2592 25.2094 17.8311 25.4326C16.1261 25.699 15.4813 23.3118 17.0742 22.667L17.4307 22.5537C16.83 22.5252 16.2171 22.1174 16.0049 21.5488L15.6973 22.0029C15.3973 22.3096 14.9825 22.5427 14.5469 22.5537L14.8799 22.6572C16.524 23.2819 15.8368 25.7347 14.1182 25.4277C12.7066 25.1754 12.5169 23.1788 13.8906 22.6572L14.2227 22.5537C13.5227 22.5209 12.8839 21.9998 12.7002 21.3223L12.3926 21.8408C10.4385 23.7267 8.19972 20.3978 10.6592 19.2969C9.13286 18.7923 8.97386 16.6926 10.4326 15.9922C8.98356 15.3095 9.12451 13.1706 10.6592 12.7031L10.3115 12.5166C8.27721 10.9524 10.9443 8.27893 12.5137 10.3154L12.7002 10.6621C13.1537 9.13686 15.3256 8.97951 15.9727 10.4355L16.3291 9.93457ZM20.8115 22.7617C21.5014 22.7617 22.0614 23.3209 22.0615 24.0107C22.0615 24.7007 21.5015 25.2598 20.8115 25.2598C20.1217 25.2596 19.5625 24.7006 19.5625 24.0107C19.5626 23.321 20.1217 22.7619 20.8115 22.7617ZM11.1816 22.7666C11.8687 22.7666 12.4257 23.3237 12.4258 24.0107C12.4258 24.6978 11.8687 25.2549 11.1816 25.2549C10.4945 25.2549 9.9375 24.6978 9.9375 24.0107C9.93757 23.3237 10.4946 22.7666 11.1816 22.7666ZM24.0068 23.2383C24.4336 23.2383 24.7793 23.584 24.7793 24.0107C24.7793 24.4375 24.4336 24.7832 24.0068 24.7832C23.5802 24.7831 23.2344 24.4374 23.2344 24.0107C23.2344 23.5841 23.5802 23.2384 24.0068 23.2383ZM7.97754 23.2451C8.40048 23.2453 8.74307 23.5878 8.74316 24.0107C8.74316 24.4338 8.40053 24.7771 7.97754 24.7773C7.55437 24.7773 7.21094 24.4339 7.21094 24.0107C7.21103 23.5876 7.55442 23.2451 7.97754 23.2451ZM4.76855 23.8047C4.88253 23.8047 4.97559 23.8968 4.97559 24.0107C4.97553 24.1247 4.8825 24.2168 4.76855 24.2168C4.65476 24.2166 4.56256 24.1246 4.5625 24.0107C4.5625 23.8969 4.65472 23.8049 4.76855 23.8047ZM27.2217 23.8047C27.3357 23.8047 27.4287 23.8968 27.4287 24.0107C27.4287 24.1247 27.3356 24.2168 27.2217 24.2168C27.1079 24.2166 27.0157 24.1246 27.0156 24.0107C27.0156 23.8969 27.1078 23.8049 27.2217 23.8047ZM24.0068 19.5537C24.6968 19.5537 25.2568 20.1138 25.2568 20.8037C25.2566 21.4935 24.6967 22.0527 24.0068 22.0527C23.3171 22.0526 22.758 21.4934 22.7578 20.8037C22.7578 20.1138 23.317 19.5538 24.0068 19.5537ZM7.9707 19.5674C8.6535 19.5674 9.20703 20.1209 9.20703 20.8037C9.20693 21.4864 8.65343 22.04 7.9707 22.04C7.28797 22.04 6.73448 21.4864 6.73438 20.8037C6.73438 20.1209 7.2879 19.5674 7.9707 19.5674ZM27.2217 20.2461C27.5293 20.2463 27.7783 20.4961 27.7783 20.8037C27.7782 21.1112 27.5292 21.3602 27.2217 21.3604C26.914 21.3604 26.6642 21.1113 26.6641 20.8037C26.6641 20.496 26.9139 20.2461 27.2217 20.2461ZM4.76074 20.2617C5.06009 20.2617 5.30273 20.5044 5.30273 20.8037C5.30265 21.103 5.06004 21.3457 4.76074 21.3457C4.46146 21.3457 4.21883 21.103 4.21875 20.8037C4.21875 20.5044 4.46141 20.2617 4.76074 20.2617ZM16 12.625C14.1361 12.625 12.6251 14.1361 12.625 16C12.625 17.864 14.136 19.375 16 19.375C17.864 19.375 19.375 17.864 19.375 16C19.3749 14.1361 17.8639 12.625 16 12.625ZM7.97168 16.1631C8.76288 16.1631 9.40424 16.8045 9.4043 17.5957C9.4043 18.3869 8.76291 19.0283 7.97168 19.0283C7.18046 19.0283 6.53906 18.3869 6.53906 17.5957C6.53911 16.8045 7.1805 16.1631 7.97168 16.1631ZM27.2197 16.8145C27.6512 16.8147 28.0008 17.1643 28.001 17.5957C28.001 18.0273 27.6513 18.3777 27.2197 18.3779C26.788 18.3779 26.4375 18.0275 26.4375 17.5957C26.4377 17.1641 26.7881 16.8145 27.2197 16.8145ZM4.7666 16.8301C5.18954 16.8303 5.53214 17.1727 5.53223 17.5957C5.53223 18.0187 5.1896 18.3621 4.7666 18.3623C4.34343 18.3623 4 18.0189 4 17.5957C4.00009 17.1726 4.34349 16.8301 4.7666 16.8301ZM7.97168 12.9561C8.76291 12.9561 9.4043 13.5974 9.4043 14.3887C9.40418 15.1798 8.76284 15.8213 7.97168 15.8213C7.18053 15.8213 6.53918 15.1798 6.53906 14.3887C6.53906 13.5975 7.18046 12.9561 7.97168 12.9561ZM27.2197 13.6064C27.6513 13.6067 28.001 13.9571 28.001 14.3887C28.0008 14.8201 27.6512 15.1697 27.2197 15.1699C26.7881 15.1699 26.4377 14.8203 26.4375 14.3887C26.4375 13.9569 26.788 13.6064 27.2197 13.6064ZM4.7666 13.6221C5.1896 13.6223 5.53223 13.9656 5.53223 14.3887C5.53215 14.8117 5.18955 15.1541 4.7666 15.1543C4.34348 15.1543 4.00007 14.8118 4 14.3887C4 13.9655 4.34343 13.6221 4.7666 13.6221ZM24.0098 9.9375C24.6968 9.93752 25.2539 10.4946 25.2539 11.1816C25.2537 11.8685 24.6967 12.4258 24.0098 12.4258C23.3228 12.4258 22.7658 11.8685 22.7656 11.1816C22.7656 10.4945 23.3227 9.9375 24.0098 9.9375ZM7.97559 9.94727C8.6568 9.94727 9.20972 10.4995 9.20996 11.1807C9.20996 11.862 8.65695 12.415 7.97559 12.415C7.29437 12.4149 6.74219 11.8619 6.74219 11.1807C6.74243 10.4996 7.29452 9.94744 7.97559 9.94727ZM27.2217 10.624C27.5292 10.6242 27.7781 10.8732 27.7783 11.1807C27.7783 11.4883 27.5293 11.7381 27.2217 11.7383C26.9139 11.7383 26.6641 11.4884 26.6641 11.1807C26.6643 10.8731 26.914 10.624 27.2217 10.624ZM4.76465 10.6514C5.05756 10.6514 5.29492 10.8887 5.29492 11.1816C5.2947 11.4744 5.05742 11.7119 4.76465 11.7119C4.47191 11.7119 4.23459 11.4743 4.23438 11.1816C4.23438 10.8888 4.47178 10.6514 4.76465 10.6514ZM14.3857 6.54102C15.177 6.54102 15.8184 7.1824 15.8184 7.97363C15.8183 8.76482 15.1769 9.40625 14.3857 9.40625C13.5946 9.40623 12.9532 8.76481 12.9531 7.97363C12.9531 7.18241 13.5945 6.54103 14.3857 6.54102ZM17.5967 6.54102C18.3879 6.54102 19.0293 7.1824 19.0293 7.97363C19.0292 8.76482 18.3879 9.40625 17.5967 9.40625C16.8055 9.40623 16.1641 8.76481 16.1641 7.97363C16.1641 7.18241 16.8055 6.54103 17.5967 6.54102ZM20.8066 6.7373C21.4894 6.73731 22.0428 7.29094 22.043 7.97363C22.043 8.65643 21.4894 9.20996 20.8066 9.20996C20.1238 9.20996 19.5703 8.65643 19.5703 7.97363C19.5704 7.29094 20.1239 6.7373 20.8066 6.7373ZM11.1709 6.74023C11.8522 6.74023 12.4052 7.29236 12.4053 7.97363C12.4053 8.655 11.8523 9.20801 11.1709 9.20801C10.4897 9.20783 9.9375 8.65489 9.9375 7.97363C9.93761 7.29247 10.4897 6.74041 11.1709 6.74023ZM24.0088 7.20703C24.4318 7.20724 24.7744 7.55059 24.7744 7.97363C24.7744 8.39667 24.4318 8.74003 24.0088 8.74023C23.5856 8.74023 23.2422 8.3968 23.2422 7.97363C23.2422 7.55046 23.5856 7.20703 24.0088 7.20703ZM7.96582 7.22656C8.37861 7.22656 8.71387 7.56084 8.71387 7.97363C8.7138 8.38637 8.37857 8.7207 7.96582 8.7207C7.55324 8.72051 7.21882 8.38625 7.21875 7.97363C7.21875 7.56096 7.55319 7.22676 7.96582 7.22656ZM4.76855 7.7666C4.88253 7.7666 4.97559 7.85965 4.97559 7.97363C4.97543 8.08748 4.88244 8.17969 4.76855 8.17969C4.65482 8.17951 4.56266 8.08737 4.5625 7.97363C4.5625 7.85976 4.65472 7.76678 4.76855 7.7666ZM27.2217 7.7666C27.3357 7.7666 27.4287 7.85965 27.4287 7.97363C27.4286 8.08748 27.3356 8.17969 27.2217 8.17969C27.1079 8.17951 27.0158 8.08737 27.0156 7.97363C27.0156 7.85976 27.1078 7.76678 27.2217 7.7666ZM14.3916 4C14.8146 4.00021 15.1572 4.34356 15.1572 4.7666C15.157 5.18947 14.8145 5.53202 14.3916 5.53223C13.9686 5.53223 13.6252 5.1896 13.625 4.7666C13.625 4.34343 13.9684 4 14.3916 4ZM17.5947 4C18.0177 4.00021 18.3604 4.34356 18.3604 4.7666C18.3601 5.18947 18.0176 5.53202 17.5947 5.53223C17.1717 5.53223 16.8283 5.1896 16.8281 4.7666C16.8281 4.34343 17.1716 4 17.5947 4ZM20.792 4.22461C21.0913 4.22461 21.334 4.46725 21.334 4.7666C21.3337 5.06574 21.0912 5.30859 20.792 5.30859C20.4928 5.30858 20.2502 5.06573 20.25 4.7666C20.25 4.46726 20.4927 4.22463 20.792 4.22461ZM11.1865 4.23633C11.4794 4.23633 11.7168 4.47369 11.7168 4.7666C11.7166 5.05933 11.4793 5.29688 11.1865 5.29688C10.8938 5.29683 10.6565 5.0593 10.6562 4.7666C10.6562 4.47372 10.8937 4.23637 11.1865 4.23633ZM7.97168 4.55957C8.08555 4.55957 8.17854 4.65179 8.17871 4.76562C8.17871 4.8796 8.08566 4.97266 7.97168 4.97266C7.85785 4.97248 7.76562 4.8795 7.76562 4.76562C7.7658 4.6519 7.85796 4.55974 7.97168 4.55957ZM24.0107 4.55957C24.1246 4.55957 24.2176 4.65179 24.2178 4.76562C24.2178 4.8796 24.1247 4.97266 24.0107 4.97266C23.8969 4.97248 23.8047 4.8795 23.8047 4.76562C23.8049 4.6519 23.897 4.55974 24.0107 4.55957Z" fill="white"/>
</svg>
