<svg width="24" height="24" viewBox="0 0 24 24" fill="none" xmlns="http://www.w3.org/2000/svg">
	<style>
		path {
			fill: #000000;
		}
		@media (prefers-color-scheme: dark) {
			path {
				fill: #ffffff;
			}
		}
	</style>
	<g clip-path="url(#clip0_1224_1530)">
		<path d="M16.8032 21.2598C17.4931 21.2598 18.0525 20.7005 18.0525 20.0105C18.0525 19.3206 17.4931 18.7613 16.8032 18.7613C16.1132 18.7613 15.5539 19.3206 15.5539 20.0105C15.5539 20.7005 16.1132 21.2598 16.8032 21.2598Z"/>
		<path d="M20.0104 18.0523C20.7004 18.0523 21.2597 17.493 21.2597 16.8031C21.2597 16.1131 20.7004 15.5538 20.0104 15.5538C19.3205 15.5538 18.7612 16.1131 18.7612 16.8031C18.7612 17.493 19.3205 18.0523 20.0104 18.0523Z"/>
		<path d="M20.0104 8.42498C20.6975 8.42498 21.2545 7.86799 21.2545 7.18091C21.2545 6.49382 20.6975 5.93683 20.0104 5.93683C19.3233 5.93683 18.7663 6.49382 18.7663 7.18091C18.7663 7.86799 19.3233 8.42498 20.0104 8.42498Z"/>
		<path d="M7.18117 21.2545C7.86826 21.2545 8.42526 20.6976 8.42526 20.0105C8.42526 19.3234 7.86826 18.7664 7.18117 18.7664C6.49407 18.7664 5.93707 19.3234 5.93707 20.0105C5.93707 20.6976 6.49407 21.2545 7.18117 21.2545Z"/>
		<path d="M16.8034 5.20985C17.4862 5.20985 18.0397 4.65634 18.0397 3.97355C18.0397 3.29075 17.4862 2.73724 16.8034 2.73724C16.1206 2.73724 15.5671 3.29075 15.5671 3.97355C15.5671 4.65634 16.1206 5.20985 16.8034 5.20985Z"/>
		<path d="M3.97333 18.0394C4.65613 18.0394 5.20965 17.4859 5.20965 16.8031C5.20965 16.1203 4.65613 15.5668 3.97333 15.5668C3.29053 15.5668 2.73701 16.1203 2.73701 16.8031C2.73701 17.4859 3.29053 18.0394 3.97333 18.0394Z"/>
		<path d="M7.18105 5.20723C7.86242 5.20723 8.41478 4.65488 8.41478 3.97352C8.41478 3.29216 7.86242 2.73981 7.18105 2.73981C6.49969 2.73981 5.94733 3.29216 5.94733 3.97352C5.94733 4.65488 6.49969 5.20723 7.18105 5.20723Z"/>
		<path d="M23.2183 11.1701C23.65 11.1701 24 10.8201 24 10.3883C24 9.95654 23.65 9.60654 23.2183 9.60654C22.7865 9.60654 22.4365 9.95654 22.4365 10.3883C22.4365 10.8201 22.7865 11.1701 23.2183 11.1701Z"/>
		<path d="M13.5956 23.9996C14.0273 23.9996 14.3773 23.6496 14.3773 23.2179C14.3773 22.7861 14.0273 22.4361 13.5956 22.4361C13.1638 22.4361 12.8138 22.7861 12.8138 23.2179C12.8138 23.6496 13.1638 23.9996 13.5956 23.9996Z"/>
		<path d="M10.3883 23.9996C10.8201 23.9996 11.1701 23.6496 11.1701 23.2179C11.1701 22.7861 10.8201 22.4361 10.3883 22.4361C9.95657 22.4361 9.60656 22.7861 9.60656 23.2179C9.60656 23.6496 9.95657 23.9996 10.3883 23.9996Z"/>
		<path d="M23.2183 14.3775C23.65 14.3775 24 14.0275 24 13.5958C24 13.164 23.65 12.814 23.2183 12.814C22.7865 12.814 22.4365 13.164 22.4365 13.5958C22.4365 14.0275 22.7865 14.3775 23.2183 14.3775Z"/>
		<path d="M20.0107 20.7832C20.4375 20.7832 20.7834 20.4372 20.7834 20.0105C20.7834 19.5837 20.4375 19.2378 20.0107 19.2378C19.584 19.2378 19.238 19.5837 19.238 20.0105C19.238 20.4372 19.584 20.7832 20.0107 20.7832Z"/>
		<path d="M20.0108 4.73979C20.434 4.73979 20.777 4.39674 20.777 3.97358C20.777 3.55041 20.434 3.20737 20.0108 3.20737C19.5876 3.20737 19.2446 3.55041 19.2446 3.97358C19.2446 4.39674 19.5876 4.73979 20.0108 4.73979Z"/>
		<path d="M10.3881 1.53242C10.8113 1.53242 11.1543 1.18937 11.1543 0.766209C11.1543 0.343044 10.8113 0 10.3881 0C9.96492 0 9.62187 0.343044 9.62187 0.766209C9.62187 1.18937 9.96492 1.53242 10.3881 1.53242Z"/>
		<path d="M0.766202 11.1545C1.18937 11.1545 1.53242 10.8115 1.53242 10.3883C1.53242 9.96514 1.18937 9.6221 0.766202 9.6221C0.343031 9.6221 -1.71661e-05 9.96514 -1.71661e-05 10.3883C-1.71661e-05 10.8115 0.343031 11.1545 0.766202 11.1545Z"/>
		<path d="M0.766202 14.3619C1.18937 14.3619 1.53242 14.0188 1.53242 13.5957C1.53242 13.1725 1.18937 12.8295 0.766202 12.8295C0.343031 12.8295 -1.71661e-05 13.1725 -1.71661e-05 13.5957C-1.71661e-05 14.0188 0.343031 14.3619 0.766202 14.3619Z"/>
		<path d="M13.5961 1.53242C14.0193 1.53242 14.3624 1.18937 14.3624 0.766209C14.3624 0.343044 14.0193 0 13.5961 0C13.173 0 12.8299 0.343044 12.8299 0.766209C12.8299 1.18937 13.173 1.53242 13.5961 1.53242Z"/>
		<path d="M3.97345 20.7767C4.39662 20.7767 4.73967 20.4337 4.73967 20.0105C4.73967 19.5873 4.39662 19.2443 3.97345 19.2443C3.55028 19.2443 3.20723 19.5873 3.20723 20.0105C3.20723 20.4337 3.55028 20.7767 3.97345 20.7767Z"/>
		<path d="M7.18134 23.7751C7.48911 23.7751 7.7386 23.5256 7.7386 23.2178C7.7386 22.9101 7.48911 22.6606 7.18134 22.6606C6.87358 22.6606 6.62409 22.9101 6.62409 23.2178C6.62409 23.5256 6.87358 23.7751 7.18134 23.7751Z"/>
		<path d="M23.2179 17.3603C23.5256 17.3603 23.7751 17.1108 23.7751 16.8031C23.7751 16.4953 23.5256 16.2458 23.2179 16.2458C22.9101 16.2458 22.6606 16.4953 22.6606 16.8031C22.6606 17.1108 22.9101 17.3603 23.2179 17.3603Z"/>
		<path d="M23.2179 7.73814C23.5256 7.73814 23.7751 7.48866 23.7751 7.1809C23.7751 6.87314 23.5256 6.62366 23.2179 6.62366C22.9101 6.62366 22.6606 6.87314 22.6606 7.1809C22.6606 7.48866 22.9101 7.73814 23.2179 7.73814Z"/>
		<path d="M16.8032 23.7751C17.111 23.7751 17.3605 23.5256 17.3605 23.2178C17.3605 22.9101 17.111 22.6606 16.8032 22.6606C16.4955 22.6606 16.246 22.9101 16.246 23.2178C16.246 23.5256 16.4955 23.7751 16.8032 23.7751Z"/>
		<path d="M16.8035 1.30815C17.1028 1.30815 17.3455 1.06548 17.3455 0.766137C17.3455 0.46679 17.1028 0.224121 16.8035 0.224121C16.5041 0.224121 16.2614 0.46679 16.2614 0.766137C16.2614 1.06548 16.5041 1.30815 16.8035 1.30815Z"/>
		<path d="M0.766129 17.3451C1.06548 17.3451 1.30815 17.1024 1.30815 16.8031C1.30815 16.5037 1.06548 16.261 0.766129 16.261C0.466778 16.261 0.224106 16.5037 0.224106 16.8031C0.224106 17.1024 0.466778 17.3451 0.766129 17.3451Z"/>
		<path d="M7.18082 1.29655C7.47373 1.29655 7.71118 1.0591 7.71118 0.766193C7.71118 0.473287 7.47373 0.23584 7.18082 0.23584C6.88791 0.23584 6.65046 0.473287 6.65046 0.766193C6.65046 1.0591 6.88791 1.29655 7.18082 1.29655Z"/>
		<path d="M0.766184 7.71128C1.05909 7.71128 1.29654 7.47383 1.29654 7.18093C1.29654 6.88802 1.05909 6.65057 0.766184 6.65057C0.473275 6.65057 0.235825 6.88802 0.235825 7.18093C0.235825 7.47383 0.473275 7.71128 0.766184 7.71128Z"/>
		<path d="M3.97399 23.4239C4.08797 23.4239 4.18036 23.3315 4.18036 23.2175C4.18036 23.1035 4.08797 23.0111 3.97399 23.0111C3.86001 23.0111 3.76761 23.1035 3.76761 23.2175C3.76761 23.3315 3.86001 23.4239 3.97399 23.4239Z"/>
		<path d="M20.0113 23.4239C20.1253 23.4239 20.2177 23.3315 20.2177 23.2175C20.2177 23.1035 20.1253 23.0111 20.0113 23.0111C19.8973 23.0111 19.8049 23.1035 19.8049 23.2175C19.8049 23.3315 19.8973 23.4239 20.0113 23.4239Z"/>
		<path d="M3.97367 8.41469C4.65504 8.41469 5.2074 7.86233 5.2074 7.18098C5.2074 6.49962 4.65504 5.94727 3.97367 5.94727C3.2923 5.94727 2.73994 6.49962 2.73994 7.18098C2.73994 7.86233 3.2923 8.41469 3.97367 8.41469Z"/>
		<path d="M3.9737 4.72097C4.3865 4.72097 4.72113 4.38634 4.72113 3.97355C4.72113 3.56077 4.3865 3.22614 3.9737 3.22614C3.56091 3.22614 3.22628 3.56077 3.22628 3.97355C3.22628 4.38634 3.56091 4.72097 3.9737 4.72097Z"/>
		<path d="M0.766603 20.2165C0.880582 20.2165 0.972981 20.1241 0.972981 20.0101C0.972981 19.8962 0.880582 19.8038 0.766603 19.8038C0.652625 19.8038 0.560226 19.8962 0.560226 20.0101C0.560226 20.1241 0.652625 20.2165 0.766603 20.2165Z"/>
		<path d="M23.2186 20.2165C23.3325 20.2165 23.4249 20.1241 23.4249 20.0101C23.4249 19.8962 23.3325 19.8038 23.2186 19.8038C23.1046 19.8038 23.0122 19.8962 23.0122 20.0101C23.0122 20.1241 23.1046 20.2165 23.2186 20.2165Z"/>
		<path d="M23.2186 4.17959C23.3325 4.17959 23.4249 4.0872 23.4249 3.97322C23.4249 3.85924 23.3325 3.76685 23.2186 3.76685C23.1046 3.76685 23.0122 3.85924 23.0122 3.97322C23.0122 4.0872 23.1046 4.17959 23.2186 4.17959Z"/>
		<path d="M0.766603 4.17959C0.880582 4.17959 0.972981 4.0872 0.972981 3.97322C0.972981 3.85924 0.880582 3.76685 0.766603 3.76685C0.652625 3.76685 0.560226 3.85924 0.560226 3.97322C0.560226 4.0872 0.652625 4.17959 0.766603 4.17959Z"/>
		<path d="M20.0113 0.972227C20.1253 0.972227 20.2177 0.87983 20.2177 0.765853C20.2177 0.651876 20.1253 0.559479 20.0113 0.559479C19.8973 0.559479 19.8049 0.651876 19.8049 0.765853C19.8049 0.87983 19.8973 0.972227 20.0113 0.972227Z"/>
		<path d="M3.97399 0.972227C4.08797 0.972227 4.18036 0.87983 4.18036 0.765853C4.18036 0.651876 4.08797 0.559479 3.97399 0.559479C3.86001 0.559479 3.76761 0.651876 3.76761 0.765853C3.76761 0.87983 3.86001 0.972227 3.97399 0.972227Z"/>
		<path d="M13.0862 5.32745C11.4422 4.70274 12.1293 2.24997 13.8479 2.55695C15.2592 2.80952 15.4489 4.80582 14.0754 5.32745L13.7434 5.43195C13.7502 5.43226 13.7572 5.43251 13.7639 5.43292C13.7814 5.4346 13.7992 5.43562 13.8166 5.43781C14.0985 5.46487 14.3679 5.57024 14.5989 5.73175C14.6236 5.74851 14.6472 5.76739 14.6711 5.78546C14.6835 5.79508 14.6962 5.80481 14.7082 5.81476C14.9633 6.01872 15.1662 6.29745 15.2746 6.64679L15.5735 6.14484C15.6686 6.05303 15.7657 5.97549 15.8616 5.90753C15.874 5.89844 15.8852 5.88789 15.8977 5.87921L15.9416 5.84991C15.9523 5.8431 15.9632 5.83692 15.9739 5.83038C16.0013 5.81316 16.0283 5.79589 16.0559 5.78058L16.1262 5.74542C16.1306 5.74324 16.1355 5.74171 16.1399 5.73956C16.189 5.71572 16.238 5.69425 16.2873 5.67609C16.3017 5.67071 16.316 5.66538 16.3303 5.66046C16.3677 5.64793 16.4053 5.63766 16.4426 5.62823C16.4698 5.6211 16.4967 5.61423 16.5237 5.6087C16.5357 5.60637 16.5478 5.60389 16.5598 5.60187C16.8668 5.54676 17.1586 5.59422 17.4162 5.7132C17.4328 5.72051 17.4497 5.72779 17.466 5.73566C17.4788 5.74213 17.4915 5.74935 17.5041 5.75616C18.2241 6.12762 18.6611 7.03211 18.2317 7.87335C18.2284 7.87965 18.2243 7.88562 18.2209 7.89191C18.1246 8.07477 17.9899 8.25612 17.8049 8.42609L17.3303 8.69757C17.3851 8.71645 17.4383 8.73719 17.4895 8.76007C18.0836 8.9961 18.523 9.58585 18.553 10.2269L18.6575 9.89386C19.1853 8.50441 21.2087 8.72165 21.4319 10.1497C21.6983 11.8547 19.3111 12.4993 18.6662 10.9066L18.553 10.5511C18.5255 11.124 18.153 11.7071 17.6252 11.9437C17.6022 11.9563 17.5789 11.9689 17.5549 11.9808L18.0022 12.2835C18.3088 12.5835 18.5419 12.9983 18.553 13.4339L18.6662 13.0784C19.1503 11.8334 20.9625 11.8709 21.3723 13.1253C21.9486 14.8922 19.4041 15.8334 18.676 14.136L18.553 13.7581C18.5185 14.4801 18.0084 15.0413 17.3537 15.2972C18.2967 15.655 18.6988 16.7906 18.1575 17.6556C17.8949 18.0752 17.4937 18.3097 17.0705 18.3763C17.0693 18.3765 17.0679 18.377 17.0666 18.3773C17.0638 18.3777 17.0607 18.3778 17.0578 18.3782C16.7402 18.4397 16.3984 18.3979 16.0696 18.2161C15.8329 18.0963 15.6213 17.9198 15.4651 17.6849C15.4612 17.6799 15.4563 17.6752 15.4524 17.6702L15.428 17.6253C15.3974 17.5746 15.3685 17.5216 15.343 17.4661L15.2903 17.3685C15.0318 18.016 14.4745 18.5188 13.758 18.553L14.0901 18.6575C15.4792 19.1854 15.2628 21.2084 13.8352 21.4319C12.1298 21.6989 11.4843 19.3112 13.0774 18.6663L13.4319 18.553C13.4231 18.5524 13.4142 18.5509 13.4055 18.5501C13.2563 18.5401 13.1067 18.5074 12.9631 18.4544C12.9424 18.447 12.922 18.4382 12.9016 18.43C12.8916 18.4258 12.8813 18.4216 12.8713 18.4173C12.506 18.2627 12.189 17.9799 11.9993 17.5609L11.7004 18.0023C11.4005 18.309 10.9857 18.542 10.55 18.553L10.883 18.6575C12.5268 19.2823 11.8398 21.7349 10.1213 21.428C8.70977 21.1756 8.52011 19.1791 9.89378 18.6575L10.2268 18.553C10.2218 18.5528 10.2162 18.5514 10.2112 18.5511C10.1911 18.5492 10.1706 18.5487 10.1506 18.5462C9.86619 18.5185 9.59378 18.4127 9.36156 18.2484C9.34479 18.2369 9.32909 18.2233 9.31273 18.2112C9.28868 18.1929 9.26452 18.1742 9.24144 18.1546C8.99551 17.952 8.79928 17.6787 8.69359 17.3382L8.39574 17.8401C8.30698 17.9258 8.21567 17.998 8.12621 18.0628C8.09861 18.0835 8.072 18.1047 8.04417 18.1234C8.02978 18.1328 8.01462 18.1408 8.00023 18.1497C7.9516 18.1805 7.90281 18.2079 7.85374 18.2327C7.84528 18.237 7.83681 18.2413 7.82835 18.2454C7.77667 18.2705 7.72496 18.2921 7.67308 18.3109C7.66428 18.3141 7.6555 18.3175 7.64671 18.3206C7.60829 18.3337 7.56986 18.345 7.53148 18.3548C7.49841 18.3636 7.46563 18.3718 7.43285 18.3782C7.43095 18.3786 7.42888 18.3789 7.42699 18.3792C7.11303 18.4395 6.8149 18.3925 6.55199 18.2708C6.53541 18.2635 6.5185 18.2562 6.50218 18.2484C6.48941 18.2419 6.47668 18.2347 6.4641 18.2278C5.7454 17.8564 5.30834 16.9538 5.73558 16.1136C5.73991 16.1051 5.74472 16.0967 5.74925 16.0882C5.84548 15.9068 5.98077 15.7275 6.16429 15.5589L6.63695 15.2874C6.57712 15.2667 6.51961 15.2426 6.4641 15.2171C5.87824 14.9769 5.44605 14.3932 5.41624 13.7581L5.31175 14.0911C4.78392 15.4804 2.76079 15.263 2.53734 13.8353C2.27086 12.1302 4.65823 11.4854 5.30296 13.0784L5.41624 13.4349C5.44337 12.8633 5.81342 12.2803 6.3391 12.0423C6.36336 12.0289 6.38806 12.0158 6.41331 12.0032L5.96703 11.7015C5.66034 11.4015 5.42735 10.9867 5.41624 10.5511L5.30296 10.9075C4.81881 12.152 3.00716 12.1143 2.59691 10.8607C2.0199 9.09335 4.56521 8.15097 5.2932 9.84894L5.41624 10.2269C5.45074 9.50492 5.96083 8.94469 6.61546 8.68878C5.67239 8.33112 5.27047 7.19442 5.81175 6.32941C6.07999 5.90071 6.49282 5.66543 6.92601 5.6048C7.23918 5.54748 7.57523 5.5894 7.89867 5.76788C8.13641 5.88806 8.34855 6.06585 8.50511 6.30206C8.50867 6.30656 8.51332 6.31119 8.51683 6.31573L8.53831 6.35577C8.56815 6.40495 8.59627 6.4564 8.62132 6.51007L8.67894 6.61652C8.93746 5.96898 9.49463 5.46619 10.2112 5.43195L9.87914 5.32745C8.48971 4.79974 8.70627 2.77658 10.134 2.55304C11.8392 2.28629 12.4848 4.6738 10.8918 5.31866L10.5354 5.43195C10.6945 5.43953 10.8549 5.47388 11.008 5.53058C11.0254 5.53681 11.0426 5.54431 11.0598 5.55109C11.073 5.55644 11.0868 5.56102 11.0998 5.56671C11.4642 5.72127 11.7794 6.00523 11.969 6.42316L12.2688 5.98273C12.5688 5.676 12.9835 5.44296 13.4192 5.43195L13.0862 5.32745ZM12.0002 8.32452C9.97058 8.32452 8.32445 9.97066 8.32445 12.0003C8.32461 14.0298 9.97068 15.6751 12.0002 15.6751C14.0296 15.6749 15.6749 14.0297 15.675 12.0003C15.675 9.97082 14.0297 8.32478 12.0002 8.32452Z"/>
	</g>
	<defs>
		<clipPath id="clip0_1224_1530">
			<rect width="24" height="24" fill="white"/>
		</clipPath>
	</defs>
</svg>
