<svg  viewBox="0 0 258 146" fill="none" xmlns="http://www.w3.org/2000/svg">
<rect width="258" height="146" fill="#19191C"/>
<path d="M60.733 78V67.8182H64.1733C64.9721 67.8182 65.625 67.9624 66.1321 68.2507C66.6425 68.5357 67.0204 68.9219 67.2656 69.4091C67.5109 69.8963 67.6335 70.4399 67.6335 71.0398C67.6335 71.6397 67.5109 72.1849 67.2656 72.6754C67.0237 73.166 66.6491 73.5571 66.142 73.8487C65.6349 74.1371 64.9853 74.2812 64.1932 74.2812H61.7273V73.1875H64.1534C64.7003 73.1875 65.1394 73.093 65.4709 72.9041C65.8023 72.7152 66.0426 72.46 66.1918 72.1385C66.3442 71.8137 66.4205 71.4474 66.4205 71.0398C66.4205 70.6321 66.3442 70.2675 66.1918 69.946C66.0426 69.6245 65.8007 69.3726 65.4659 69.1903C65.1312 69.0047 64.687 68.9119 64.1335 68.9119H61.9659V78H60.733ZM69.3976 78V70.3636H70.5311V71.517H70.6107C70.7499 71.1392 71.0017 70.8326 71.3663 70.5973C71.7309 70.362 72.1419 70.2443 72.5993 70.2443C72.6855 70.2443 72.7932 70.246 72.9224 70.2493C73.0517 70.2526 73.1495 70.2576 73.2158 70.2642V71.4574C73.176 71.4474 73.0848 71.4325 72.9423 71.4126C72.8031 71.3894 72.6556 71.3778 72.4999 71.3778C72.1286 71.3778 71.7972 71.4557 71.5055 71.6115C71.2172 71.764 70.9885 71.9761 70.8195 72.2479C70.6537 72.5163 70.5709 72.8229 70.5709 73.1676V78H69.3976ZM77.5128 78.1591C76.7771 78.1591 76.1423 77.9967 75.6087 77.6719C75.0784 77.3438 74.6691 76.8864 74.3807 76.2997C74.0957 75.7098 73.9532 75.0237 73.9532 74.2415C73.9532 73.4593 74.0957 72.7699 74.3807 72.1733C74.6691 71.5734 75.0701 71.1061 75.5839 70.7713C76.1009 70.4332 76.7041 70.2642 77.3935 70.2642C77.7913 70.2642 78.184 70.3305 78.5718 70.4631C78.9596 70.5956 79.3126 70.8111 79.6307 71.1094C79.9489 71.4044 80.2025 71.7955 80.3914 72.2827C80.5803 72.7699 80.6748 73.3698 80.6748 74.0824V74.5795H74.7884V73.5653H79.4816C79.4816 73.1345 79.3954 72.75 79.2231 72.4119C79.054 72.0739 78.8121 71.8071 78.4972 71.6115C78.1857 71.416 77.8178 71.3182 77.3935 71.3182C76.9262 71.3182 76.5218 71.4342 76.1805 71.6662C75.8424 71.8949 75.5822 72.1932 75.3999 72.5611C75.2176 72.929 75.1265 73.3234 75.1265 73.7443V74.4205C75.1265 74.9972 75.2259 75.486 75.4248 75.8871C75.627 76.2848 75.907 76.5881 76.265 76.7969C76.6229 77.0024 77.0389 77.1051 77.5128 77.1051C77.8211 77.1051 78.0995 77.062 78.3481 76.9759C78.6 76.8864 78.8171 76.7538 78.9994 76.5781C79.1816 76.3991 79.3225 76.1771 79.4219 75.9119L80.5555 76.2301C80.4361 76.6146 80.2356 76.9527 79.9539 77.2443C79.6722 77.5327 79.3242 77.758 78.9099 77.9205C78.4956 78.0795 78.0299 78.1591 77.5128 78.1591ZM88.4085 70.3636L85.5846 78H84.3914L81.5676 70.3636H82.8403L84.9483 76.4489H85.0278L87.1358 70.3636H88.4085ZM89.8941 78V70.3636H91.0674V78H89.8941ZM90.4907 69.0909C90.262 69.0909 90.0648 69.013 89.8991 68.8572C89.7367 68.7015 89.6555 68.5142 89.6555 68.2955C89.6555 68.0767 89.7367 67.8894 89.8991 67.7337C90.0648 67.5779 90.262 67.5 90.4907 67.5C90.7194 67.5 90.915 67.5779 91.0774 67.7337C91.2431 67.8894 91.3259 68.0767 91.3259 68.2955C91.3259 68.5142 91.2431 68.7015 91.0774 68.8572C90.915 69.013 90.7194 69.0909 90.4907 69.0909ZM96.3551 78.1591C95.6193 78.1591 94.9846 77.9967 94.451 77.6719C93.9207 77.3438 93.5114 76.8864 93.223 76.2997C92.938 75.7098 92.7954 75.0237 92.7954 74.2415C92.7954 73.4593 92.938 72.7699 93.223 72.1733C93.5114 71.5734 93.9124 71.1061 94.4261 70.7713C94.9432 70.4332 95.5464 70.2642 96.2358 70.2642C96.6335 70.2642 97.0263 70.3305 97.414 70.4631C97.8018 70.5956 98.1548 70.8111 98.473 71.1094C98.7912 71.4044 99.0447 71.7955 99.2337 72.2827C99.4226 72.7699 99.517 73.3698 99.517 74.0824V74.5795H93.6307V73.5653H98.3239C98.3239 73.1345 98.2377 72.75 98.0653 72.4119C97.8963 72.0739 97.6543 71.8071 97.3395 71.6115C97.0279 71.416 96.66 71.3182 96.2358 71.3182C95.7685 71.3182 95.3641 71.4342 95.0227 71.6662C94.6846 71.8949 94.4245 72.1932 94.2422 72.5611C94.0599 72.929 93.9687 73.3234 93.9687 73.7443V74.4205C93.9687 74.9972 94.0682 75.486 94.267 75.8871C94.4692 76.2848 94.7493 76.5881 95.1072 76.7969C95.4652 77.0024 95.8811 77.1051 96.3551 77.1051C96.6633 77.1051 96.9417 77.062 97.1903 76.9759C97.4422 76.8864 97.6593 76.7538 97.8416 76.5781C98.0239 76.3991 98.1648 76.1771 98.2642 75.9119L99.3977 76.2301C99.2784 76.6146 99.0779 76.9527 98.7962 77.2443C98.5144 77.5327 98.1664 77.758 97.7521 77.9205C97.3378 78.0795 96.8721 78.1591 96.3551 78.1591ZM102.969 78L100.642 70.3636H101.875L103.526 76.2102H103.605L105.236 70.3636H106.489L108.1 76.1903H108.179L109.83 70.3636H111.063L108.736 78H107.583L105.912 72.1335H105.793L104.122 78H102.969ZM117.599 73.4062V78H116.425V70.3636H117.559V71.5568H117.658C117.837 71.169 118.109 70.8575 118.474 70.6222C118.838 70.3835 119.309 70.2642 119.886 70.2642C120.403 70.2642 120.855 70.3703 121.243 70.5824C121.631 70.7912 121.932 71.1094 122.148 71.5369C122.363 71.9612 122.471 72.4981 122.471 73.1477V78H121.297V73.2273C121.297 72.6274 121.142 72.16 120.83 71.8253C120.519 71.4872 120.091 71.3182 119.547 71.3182C119.173 71.3182 118.838 71.3994 118.543 71.5618C118.252 71.7242 118.021 71.9612 117.852 72.2727C117.683 72.5843 117.599 72.9621 117.599 73.4062ZM127.654 78.1591C126.965 78.1591 126.36 77.995 125.839 77.6669C125.322 77.3388 124.918 76.8797 124.626 76.2898C124.338 75.6998 124.194 75.0104 124.194 74.2216C124.194 73.4261 124.338 72.7318 124.626 72.1385C124.918 71.5452 125.322 71.0845 125.839 70.7564C126.36 70.4283 126.965 70.2642 127.654 70.2642C128.343 70.2642 128.947 70.4283 129.464 70.7564C129.984 71.0845 130.388 71.5452 130.677 72.1385C130.968 72.7318 131.114 73.4261 131.114 74.2216C131.114 75.0104 130.968 75.6998 130.677 76.2898C130.388 76.8797 129.984 77.3388 129.464 77.6669C128.947 77.995 128.343 78.1591 127.654 78.1591ZM127.654 77.1051C128.178 77.1051 128.609 76.9709 128.947 76.7024C129.285 76.4339 129.535 76.081 129.697 75.6435C129.86 75.206 129.941 74.732 129.941 74.2216C129.941 73.7112 129.86 73.2356 129.697 72.7947C129.535 72.3539 129.285 71.9976 128.947 71.7259C128.609 71.4541 128.178 71.3182 127.654 71.3182C127.13 71.3182 126.7 71.4541 126.361 71.7259C126.023 71.9976 125.773 72.3539 125.611 72.7947C125.448 73.2356 125.367 73.7112 125.367 74.2216C125.367 74.732 125.448 75.206 125.611 75.6435C125.773 76.081 126.023 76.4339 126.361 76.7024C126.7 76.9709 127.13 77.1051 127.654 77.1051ZM136.163 70.3636V71.358H132.206V70.3636H136.163ZM133.359 68.5341H134.533V75.8125C134.533 76.1439 134.581 76.3925 134.677 76.5582C134.776 76.7206 134.902 76.83 135.055 76.8864C135.21 76.9394 135.375 76.9659 135.547 76.9659C135.676 76.9659 135.782 76.9593 135.865 76.946C135.948 76.9295 136.014 76.9162 136.064 76.9062L136.303 77.9602C136.223 77.9901 136.112 78.0199 135.969 78.0497C135.827 78.0829 135.646 78.0994 135.428 78.0994C135.096 78.0994 134.771 78.0282 134.453 77.8857C134.138 77.7431 133.876 77.526 133.668 77.2344C133.462 76.9427 133.359 76.5748 133.359 76.1307V68.5341ZM143.987 78.179C143.503 78.179 143.064 78.0878 142.669 77.9055C142.275 77.7199 141.962 77.4531 141.73 77.1051C141.498 76.7538 141.382 76.3295 141.382 75.8324C141.382 75.3949 141.468 75.0402 141.64 74.7685C141.813 74.4934 142.043 74.2779 142.331 74.1222C142.62 73.9664 142.938 73.8504 143.286 73.7741C143.637 73.6946 143.99 73.6316 144.345 73.5852C144.809 73.5256 145.185 73.4808 145.473 73.451C145.765 73.4179 145.977 73.3632 146.11 73.2869C146.246 73.2107 146.314 73.0781 146.314 72.8892V72.8494C146.314 72.3589 146.179 71.9777 145.911 71.706C145.646 71.4342 145.243 71.2983 144.703 71.2983C144.143 71.2983 143.704 71.4209 143.385 71.6662C143.067 71.9115 142.843 72.1733 142.714 72.4517L141.601 72.054C141.799 71.59 142.065 71.2287 142.396 70.9702C142.731 70.7083 143.095 70.526 143.49 70.4233C143.887 70.3172 144.279 70.2642 144.663 70.2642C144.908 70.2642 145.19 70.294 145.508 70.3537C145.83 70.41 146.14 70.5277 146.438 70.7067C146.74 70.8857 146.99 71.1558 147.189 71.517C147.387 71.8783 147.487 72.3622 147.487 72.9688V78H146.314V76.9659H146.254C146.174 77.1316 146.042 77.3089 145.856 77.4979C145.671 77.6868 145.424 77.8475 145.115 77.9801C144.807 78.1127 144.431 78.179 143.987 78.179ZM144.166 77.125C144.63 77.125 145.021 77.0339 145.339 76.8516C145.661 76.6693 145.903 76.4339 146.065 76.1456C146.231 75.8572 146.314 75.554 146.314 75.2358V74.1619C146.264 74.2216 146.155 74.2763 145.985 74.326C145.82 74.3724 145.628 74.4138 145.409 74.4503C145.193 74.4834 144.983 74.5133 144.777 74.5398C144.575 74.563 144.411 74.5829 144.285 74.5994C143.98 74.6392 143.695 74.7038 143.43 74.7933C143.168 74.8795 142.956 75.0104 142.794 75.1861C142.635 75.3584 142.555 75.5937 142.555 75.892C142.555 76.2997 142.706 76.608 143.007 76.8168C143.312 77.0223 143.699 77.125 144.166 77.125ZM155.536 70.3636L152.712 78H151.519L148.695 70.3636H149.968L152.076 76.4489H152.156L154.264 70.3636H155.536ZM159.037 78.179C158.553 78.179 158.114 78.0878 157.719 77.9055C157.325 77.7199 157.012 77.4531 156.78 77.1051C156.548 76.7538 156.432 76.3295 156.432 75.8324C156.432 75.3949 156.518 75.0402 156.69 74.7685C156.862 74.4934 157.093 74.2779 157.381 74.1222C157.669 73.9664 157.988 73.8504 158.336 73.7741C158.687 73.6946 159.04 73.6316 159.395 73.5852C159.859 73.5256 160.235 73.4808 160.523 73.451C160.815 73.4179 161.027 73.3632 161.16 73.2869C161.295 73.2107 161.363 73.0781 161.363 72.8892V72.8494C161.363 72.3589 161.229 71.9777 160.961 71.706C160.696 71.4342 160.293 71.2983 159.753 71.2983C159.192 71.2983 158.753 71.4209 158.435 71.6662C158.117 71.9115 157.893 72.1733 157.764 72.4517L156.65 72.054C156.849 71.59 157.114 71.2287 157.446 70.9702C157.781 70.7083 158.145 70.526 158.54 70.4233C158.937 70.3172 159.328 70.2642 159.713 70.2642C159.958 70.2642 160.24 70.294 160.558 70.3537C160.879 70.41 161.189 70.5277 161.488 70.7067C161.789 70.8857 162.04 71.1558 162.238 71.517C162.437 71.8783 162.537 72.3622 162.537 72.9688V78H161.363V76.9659H161.304C161.224 77.1316 161.092 77.3089 160.906 77.4979C160.72 77.6868 160.473 77.8475 160.165 77.9801C159.857 78.1127 159.481 78.179 159.037 78.179ZM159.216 77.125C159.68 77.125 160.071 77.0339 160.389 76.8516C160.71 76.6693 160.952 76.4339 161.115 76.1456C161.281 75.8572 161.363 75.554 161.363 75.2358V74.1619C161.314 74.2216 161.204 74.2763 161.035 74.326C160.87 74.3724 160.677 74.4138 160.459 74.4503C160.243 74.4834 160.033 74.5133 159.827 74.5398C159.625 74.563 159.461 74.5829 159.335 74.5994C159.03 74.6392 158.745 74.7038 158.48 74.7933C158.218 74.8795 158.006 75.0104 157.843 75.1861C157.684 75.3584 157.605 75.5937 157.605 75.892C157.605 76.2997 157.756 76.608 158.057 76.8168C158.362 77.0223 158.748 77.125 159.216 77.125ZM164.615 78V70.3636H165.788V78H164.615ZM165.212 69.0909C164.983 69.0909 164.786 69.013 164.62 68.8572C164.458 68.7015 164.377 68.5142 164.377 68.2955C164.377 68.0767 164.458 67.8894 164.62 67.7337C164.786 67.5779 164.983 67.5 165.212 67.5C165.44 67.5 165.636 67.5779 165.798 67.7337C165.964 67.8894 166.047 68.0767 166.047 68.2955C166.047 68.5142 165.964 68.7015 165.798 68.8572C165.636 69.013 165.44 69.0909 165.212 69.0909ZM169.048 67.8182V78H167.874V67.8182H169.048ZM173.381 78.179C172.897 78.179 172.458 78.0878 172.063 77.9055C171.669 77.7199 171.356 77.4531 171.124 77.1051C170.892 76.7538 170.776 76.3295 170.776 75.8324C170.776 75.3949 170.862 75.0402 171.034 74.7685C171.207 74.4934 171.437 74.2779 171.725 74.1222C172.014 73.9664 172.332 73.8504 172.68 73.7741C173.031 73.6946 173.384 73.6316 173.739 73.5852C174.203 73.5256 174.579 73.4808 174.867 73.451C175.159 73.4179 175.371 73.3632 175.504 73.2869C175.64 73.2107 175.708 73.0781 175.708 72.8892V72.8494C175.708 72.3589 175.573 71.9777 175.305 71.706C175.04 71.4342 174.637 71.2983 174.097 71.2983C173.537 71.2983 173.098 71.4209 172.779 71.6662C172.461 71.9115 172.237 72.1733 172.108 72.4517L170.995 72.054C171.193 71.59 171.459 71.2287 171.79 70.9702C172.125 70.7083 172.489 70.526 172.884 70.4233C173.281 70.3172 173.673 70.2642 174.057 70.2642C174.302 70.2642 174.584 70.294 174.902 70.3537C175.224 70.41 175.534 70.5277 175.832 70.7067C176.133 70.8857 176.384 71.1558 176.583 71.517C176.781 71.8783 176.881 72.3622 176.881 72.9688V78H175.708V76.9659H175.648C175.568 77.1316 175.436 77.3089 175.25 77.4979C175.065 77.6868 174.818 77.8475 174.509 77.9801C174.201 78.1127 173.825 78.179 173.381 78.179ZM173.56 77.125C174.024 77.125 174.415 77.0339 174.733 76.8516C175.055 76.6693 175.297 76.4339 175.459 76.1456C175.625 75.8572 175.708 75.554 175.708 75.2358V74.1619C175.658 74.2216 175.548 74.2763 175.379 74.326C175.214 74.3724 175.022 74.4138 174.803 74.4503C174.587 74.4834 174.377 74.5133 174.171 74.5398C173.969 74.563 173.805 74.5829 173.679 74.5994C173.374 74.6392 173.089 74.7038 172.824 74.7933C172.562 74.8795 172.35 75.0104 172.188 75.1861C172.029 75.3584 171.949 75.5937 171.949 75.892C171.949 76.2997 172.1 76.608 172.401 76.8168C172.706 77.0223 173.093 77.125 173.56 77.125ZM179.118 78V67.8182H180.292V71.5767H180.391C180.477 71.4441 180.597 71.2751 180.749 71.0696C180.905 70.8608 181.127 70.6752 181.415 70.5128C181.707 70.3471 182.101 70.2642 182.599 70.2642C183.242 70.2642 183.808 70.425 184.299 70.7464C184.789 71.0679 185.172 71.5237 185.447 72.1136C185.722 72.7036 185.86 73.3996 185.86 74.2017C185.86 75.0104 185.722 75.7114 185.447 76.3047C185.172 76.8946 184.791 77.352 184.304 77.6768C183.817 77.9983 183.255 78.1591 182.618 78.1591C182.128 78.1591 181.735 78.0779 181.44 77.9155C181.145 77.7498 180.918 77.5625 180.759 77.3537C180.6 77.1416 180.477 76.9659 180.391 76.8267H180.252V78H179.118ZM180.272 74.1818C180.272 74.7585 180.356 75.2673 180.525 75.7081C180.694 76.1456 180.941 76.4886 181.266 76.7372C181.591 76.9825 181.989 77.1051 182.459 77.1051C182.95 77.1051 183.359 76.9759 183.687 76.7173C184.019 76.4555 184.267 76.1042 184.433 75.6634C184.602 75.2192 184.687 74.7254 184.687 74.1818C184.687 73.6449 184.604 73.161 184.438 72.7301C184.276 72.2959 184.029 71.9529 183.697 71.701C183.369 71.4458 182.957 71.3182 182.459 71.3182C181.982 71.3182 181.581 71.4392 181.256 71.6811C180.931 71.9197 180.686 72.2545 180.52 72.6854C180.355 73.1129 180.272 73.6117 180.272 74.1818ZM188.765 67.8182V78H187.592V67.8182H188.765ZM194.053 78.1591C193.317 78.1591 192.682 77.9967 192.149 77.6719C191.618 77.3438 191.209 76.8864 190.921 76.2997C190.636 75.7098 190.493 75.0237 190.493 74.2415C190.493 73.4593 190.636 72.7699 190.921 72.1733C191.209 71.5734 191.61 71.1061 192.124 70.7713C192.641 70.4332 193.244 70.2642 193.933 70.2642C194.331 70.2642 194.724 70.3305 195.112 70.4631C195.499 70.5956 195.852 70.8111 196.171 71.1094C196.489 71.4044 196.742 71.7955 196.931 72.2827C197.12 72.7699 197.215 73.3698 197.215 74.0824V74.5795H191.328V73.5653H196.021C196.021 73.1345 195.935 72.75 195.763 72.4119C195.594 72.0739 195.352 71.8071 195.037 71.6115C194.726 71.416 194.358 71.3182 193.933 71.3182C193.466 71.3182 193.062 71.4342 192.72 71.6662C192.382 71.8949 192.122 72.1932 191.94 72.5611C191.757 72.929 191.666 73.3234 191.666 73.7443V74.4205C191.666 74.9972 191.766 75.486 191.965 75.8871C192.167 76.2848 192.447 76.5881 192.805 76.7969C193.163 77.0024 193.579 77.1051 194.053 77.1051C194.361 77.1051 194.639 77.062 194.888 76.9759C195.14 76.8864 195.357 76.7538 195.539 76.5781C195.721 76.3991 195.862 76.1771 195.962 75.9119L197.095 76.2301C196.976 76.6146 196.775 76.9527 196.494 77.2443C196.212 77.5327 195.864 77.758 195.45 77.9205C195.035 78.0795 194.57 78.1591 194.053 78.1591Z" fill="#818186"/>
</svg>
