<svg width="307" height="290" viewBox="0 0 307 290" fill="none" xmlns="http://www.w3.org/2000/svg">
    <path d="M11.6704 157.002L64.2175 201.477L215.821 130.058L65.7018 42.4055L11.6704 157.002Z" fill="url(#paint0_linear_1208_52938)" />
    <path d="M63.3384 200.552L53.7234 84.0257C53.2124 77.8327 57.1557 72.144 63.1342 70.4494L226.762 24.0695C227.101 23.9732 227.461 23.9685 227.803 24.056L230.954 24.8618L236.442 139.925L298.956 196.341C301.129 198.302 300.528 201.857 297.831 202.996L126.064 275.492C124.404 276.193 122.48 275.697 121.366 274.281L63.3384 200.552Z" fill="url(#paint1_linear_1208_52938)" />
    <path d="M125.229 269.56L67.3418 198.277L235.847 139.925L301.248 196.778L285.031 203.503L266.44 210.623L198.801 239.893L125.229 269.56Z" fill="url(#paint2_linear_1208_52938)" />
    <path d="M121.7 253.819L87.2109 210.494L241.524 153.267L279.875 184.644C282.212 186.557 281.668 190.27 278.881 191.432L126.369 255.02C124.719 255.708 122.813 255.218 121.7 253.819Z" fill="#373B4D" />
    <path d="M67.4787 198.36L58.7996 83.0807C58.4056 77.8475 61.7634 73.0647 66.8194 71.6576L228.753 26.5917C230.011 26.2415 231.262 27.172 231.289 28.478L233.61 142.983L67.4787 198.36Z" fill="url(#paint3_linear_1208_52938)" />
    <path d="M71.4339 197.568L64.4884 81.6836C64.3773 79.8291 65.5576 78.1423 67.3378 77.6112L226.559 30.1146C227.786 29.7486 229.036 30.6139 229.126 31.8913L236.774 141.005L71.4339 197.568Z" fill="url(#paint4_linear_1208_52938)" />
    <path d="M91.7659 225.254L248.189 163.404" stroke="url(#paint5_radial_1208_52938)" stroke-opacity="0.2" />
    <path d="M98.8048 234.022L255.25 169.799" stroke="url(#paint6_radial_1208_52938)" stroke-opacity="0.2" />
    <path d="M103.456 244.35L263.856 180.163" stroke="url(#paint7_radial_1208_52938)" stroke-opacity="0.2" />
    <path d="M111.309 250.75L270.127 186.549" stroke="url(#paint8_radial_1208_52938)" stroke-opacity="0.2" />
    <path d="M115.73 200.158L150.165 240.823" stroke="url(#paint9_radial_1208_52938)" stroke-opacity="0.2" />
    <path d="M124.49 193.91L158.926 234.575" stroke="url(#paint10_radial_1208_52938)" stroke-opacity="0.2" />
    <path d="M137.206 187.699L171.641 228.364" stroke="url(#paint11_radial_1208_52938)" stroke-opacity="0.2" />
    <path d="M149.122 182.27L183.558 222.934" stroke="url(#paint12_radial_1208_52938)" stroke-opacity="0.2" />
    <path d="M162.607 178.439L197.042 219.104" stroke="url(#paint13_radial_1208_52938)" stroke-opacity="0.2" />
    <path d="M172.95 172.205L207.385 212.87" stroke="url(#paint14_radial_1208_52938)" stroke-opacity="0.2" />
    <path d="M185.644 168.367L220.079 209.032" stroke="url(#paint15_radial_1208_52938)" stroke-opacity="0.2" />
    <path d="M204.658 165.377L221.875 185.709L239.093 206.042" stroke="url(#paint16_radial_1208_52938)" stroke-opacity="0.2" />
    <path d="M220.559 156.82L237.777 177.153L254.995 197.485" stroke="url(#paint17_radial_1208_52938)" stroke-opacity="0.2" />
    <path d="M87.3515 214.948L87.3515 210.482L121.977 251.497C123.659 253.489 126.437 254.167 128.848 253.173L279.102 191.24L279.278 194.71L127.47 257.146C125.46 257.972 123.147 257.406 121.746 255.744L87.3515 214.948Z" fill="url(#paint18_linear_1208_52938)" />
    <path d="M172.321 125.22C172.266 127.429 173.91 128.622 175.994 127.884C178.077 127.146 179.81 124.757 179.865 122.548C179.919 120.339 178.275 119.146 176.192 119.884C174.109 120.621 172.376 123.01 172.321 125.22Z" fill="url(#paint19_linear_1208_52938)" />
    <path d="M177.561 122.698C177.187 121.29 175.109 122.026 174.657 123.726L171.837 134.344C171.54 135.461 172.238 136.219 173.238 135.864L178.399 134.037C179.399 133.683 180.147 132.413 179.901 131.489L177.561 122.698Z" fill="url(#paint20_linear_1208_52938)" />
    <path d="M296.889 112.159C298.402 112.96 299.512 113.728 300.188 114.457L299.821 114.797C300.349 115.366 300.502 115.816 300.46 116.163C300.418 116.511 300.162 116.911 299.513 117.338L299.788 117.756C298.957 118.302 297.696 118.783 296.035 119.199L295.914 118.714C294.806 118.992 293.511 119.241 292.035 119.463L292.109 119.957C290.902 120.138 289.579 120.3 288.146 120.442L288.096 119.944C286.852 120.068 285.522 120.177 284.111 120.271L284.144 120.77C282.869 120.855 281.529 120.928 280.125 120.989L280.103 120.49C278.819 120.546 277.482 120.592 276.094 120.628L276.107 121.128C274.814 121.162 273.476 121.187 272.096 121.203L272.09 120.703C270.794 120.719 269.46 120.726 268.09 120.727L268.09 121.227C266.788 121.227 265.454 121.22 264.087 121.207L264.092 120.707C262.788 120.694 261.454 120.676 260.093 120.65L260.083 121.15C258.773 121.126 257.436 121.096 256.075 121.061L256.088 120.561C254.774 120.527 253.436 120.487 252.076 120.442L252.059 120.942C250.739 120.898 249.397 120.85 248.034 120.796L248.054 120.297C246.742 120.245 245.411 120.189 244.061 120.128L244.039 120.627C242.723 120.568 241.39 120.505 240.04 120.437L240.065 119.937C238.744 119.871 237.407 119.8 236.054 119.725L236.026 120.224C234.703 120.151 233.365 120.074 232.012 119.993L232.042 119.494C230.727 119.415 229.398 119.332 228.055 119.246L228.023 119.745C226.7 119.66 225.364 119.571 224.016 119.479L224.05 118.98C222.726 118.889 221.389 118.795 220.041 118.697L220.005 119.196C218.687 119.1 217.358 119.002 216.018 118.899L216.056 118.401C214.731 118.3 213.396 118.196 212.051 118.088L212.011 118.587C210.688 118.481 209.355 118.372 208.013 118.26L208.055 117.762C206.734 117.652 205.404 117.538 204.066 117.422L204.022 117.92C202.694 117.805 201.357 117.686 200.011 117.565L200.056 117.067C198.738 116.948 197.411 116.827 196.077 116.702L196.031 117.2C194.706 117.076 193.373 116.95 192.032 116.82L192.08 116.323C190.757 116.195 189.427 116.065 188.09 115.931L188.04 116.429C186.718 116.297 185.388 116.163 184.053 116.026L184.104 115.528C182.777 115.392 181.444 115.254 180.105 115.112L180.053 115.61C178.733 115.47 177.406 115.328 176.075 115.184L176.129 114.687C174.802 114.543 173.47 114.396 172.133 114.247L172.077 114.744C170.757 114.597 169.431 114.448 168.1 114.296L168.157 113.799C166.832 113.648 165.503 113.494 164.169 113.338L164.11 113.835C162.788 113.68 161.461 113.523 160.129 113.363L160.189 112.867C159.523 112.787 158.857 112.707 158.189 112.626C157.522 112.545 156.856 112.463 156.19 112.382L156.13 112.878C154.799 112.715 153.472 112.55 152.151 112.385L152.213 111.889C150.881 111.721 149.553 111.553 148.231 111.383L148.167 111.879C146.838 111.709 145.515 111.537 144.198 111.365L144.263 110.869C142.928 110.694 141.6 110.518 140.277 110.341L140.211 110.836C138.883 110.658 137.562 110.479 136.246 110.299L136.314 109.804C134.98 109.621 133.653 109.437 132.332 109.252L132.263 109.748C130.933 109.561 129.61 109.374 128.295 109.186L128.365 108.691C127.035 108.501 125.712 108.31 124.397 108.118L124.325 108.612C122.992 108.418 121.668 108.222 120.351 108.026L120.425 107.531C119.1 107.333 117.783 107.135 116.474 106.935L116.399 107.429C115.063 107.226 113.737 107.021 112.419 106.816L112.496 106.321C111.168 106.114 109.85 105.907 108.541 105.698L108.462 106.192C107.133 105.98 105.812 105.767 104.503 105.554L104.583 105.06C103.251 104.843 101.929 104.625 100.619 104.407L100.537 104.9C99.2113 104.679 97.8972 104.458 96.5946 104.236L96.6787 103.743C95.3462 103.515 94.0259 103.288 92.7181 103.059L92.6321 103.552C91.3007 103.319 89.9823 103.086 88.6773 102.853L88.7653 102.361C87.4413 102.124 86.1311 101.886 84.8351 101.649L84.745 102.14C83.4119 101.896 82.094 101.651 80.7916 101.406L80.8841 100.915C79.5524 100.664 78.2371 100.413 76.9386 100.162L76.8437 100.653C75.5164 100.396 74.2067 100.14 72.9151 99.8829L73.0126 99.3925C71.6875 99.129 70.3816 98.8655 69.0953 98.6022L68.995 99.092C67.6591 98.8184 66.3444 98.545 65.0516 98.2718L65.155 97.7826C63.8233 97.5011 62.5149 97.22 61.2306 96.9393L61.1238 97.4278C59.7932 97.137 58.4884 96.8466 57.2101 96.5569L57.3206 96.0693C55.9924 95.7683 54.693 95.468 53.4232 95.1687L53.3085 95.6553C51.9785 95.3417 50.6809 95.0292 49.4168 94.7178L49.5364 94.2323C48.206 93.9046 46.9128 93.5783 45.6582 93.2537L45.533 93.7378C44.1967 93.392 42.9038 93.0481 41.6559 92.7064L41.7879 92.2241C40.4484 91.8573 39.1612 91.4931 37.9279 91.132L37.7874 91.6118C36.4391 91.217 35.1548 90.8256 33.9369 90.4382L34.0884 89.9617C32.7409 89.5332 31.4759 89.1098 30.2966 88.6925L30.1298 89.1639C28.7721 88.6834 27.526 88.2103 26.3967 87.7459L26.5869 87.2835C25.2073 86.7161 24.0093 86.164 22.9998 85.6298L22.7659 86.0717C21.2526 85.2708 20.1431 84.5025 19.4667 83.7735L19.8332 83.4334C19.3052 82.8642 19.1527 82.4149 19.1949 82.0669C19.237 81.719 19.4925 81.3191 20.1413 80.8926L19.8666 80.4748C20.6976 79.9285 21.9586 79.4476 23.6194 79.0314L23.7409 79.5164C24.8488 79.2389 26.144 78.9891 27.6193 78.7678L27.5451 78.2733C28.7527 78.0921 30.0756 77.9305 31.5089 77.7884L31.5582 78.286C32.8031 78.1625 34.1326 78.0537 35.5435 77.9595L35.5102 77.4606C36.7853 77.3755 38.126 77.3023 39.5296 77.241L39.5514 77.7405C40.8352 77.6845 42.1722 77.6385 43.5605 77.6023L43.5475 77.1025C44.8409 77.0689 46.1785 77.0438 47.5588 77.0274L47.5647 77.5273C48.8606 77.5119 50.1942 77.504 51.5644 77.5037L51.5643 77.0037C52.8662 77.0034 54.2008 77.01 55.5672 77.0233L55.5624 77.5233C56.8668 77.536 58.2004 77.5549 59.562 77.5799L59.5712 77.08C60.8817 77.1042 62.2182 77.134 63.5797 77.1696L63.5666 77.6694C64.8808 77.7037 66.2185 77.7433 67.5789 77.7882L67.5954 77.2885C68.916 77.3321 70.258 77.3807 71.6205 77.4343L71.6009 77.9339C72.9128 77.9855 74.2439 78.0417 75.5935 78.1025L75.616 77.603C76.9316 77.6622 78.2647 77.7258 79.6149 77.7938L79.5897 78.2932C80.9106 78.3597 82.2477 78.4303 83.6007 78.5052L83.6283 78.0059C84.9515 78.0791 86.2898 78.1563 87.6427 78.2374L87.6127 78.7365C88.9279 78.8154 90.2569 78.898 91.5992 78.9844L91.6313 78.4854C92.9542 78.5705 94.2901 78.6592 95.6385 78.7516L95.6043 79.2504C96.9288 79.3412 98.2654 79.4354 99.6135 79.5331L99.6497 79.0344C100.968 79.1299 102.297 79.2288 103.636 79.3309L103.598 79.8295C104.923 79.9305 106.258 80.0348 107.604 80.1423L107.644 79.6439C108.966 79.7496 110.299 79.8585 111.641 79.9704L111.6 80.4687C112.92 80.5789 114.25 80.6921 115.589 80.8083L115.632 80.3102C116.961 80.4256 118.298 80.5439 119.644 80.6652L119.599 81.1632C120.917 81.2821 122.243 81.4037 123.577 81.5283L123.624 81.0304C124.949 81.1542 126.282 81.2807 127.622 81.4101L127.574 81.9077C128.897 82.0354 130.228 82.1659 131.565 82.299L131.614 81.8015C132.937 81.9332 134.266 82.0675 135.602 82.2046L135.551 82.702C136.877 82.8381 138.21 82.9768 139.549 83.1181L139.602 82.6209C140.922 82.7603 142.248 82.9022 143.58 83.0466L143.526 83.5437C144.852 83.6876 146.185 83.834 147.522 83.983L147.577 83.486C148.898 83.6331 150.224 83.7827 151.555 83.9346L151.498 84.4314C152.823 84.5827 154.152 84.7364 155.486 84.8925L155.544 84.3959C156.867 84.5507 158.194 84.7078 159.525 84.8674L159.466 85.3638C160.131 85.4436 160.798 85.5239 161.465 85.6048C162.133 85.6857 162.799 85.767 163.464 85.8486L163.525 85.3523C164.856 85.5155 166.182 85.68 167.503 85.8457L167.441 86.3418C168.774 86.5089 170.102 86.6774 171.424 86.847L171.488 86.351C172.816 86.5214 174.139 86.693 175.457 86.8658L175.392 87.3615C176.726 87.5365 178.055 87.7126 179.377 87.8898L179.444 87.3943C180.771 87.5722 182.093 87.7512 183.408 87.9314L183.34 88.4267C184.674 88.6094 186.002 88.7932 187.323 88.978L187.392 88.4829C188.721 88.6689 190.044 88.8561 191.36 89.0442L191.289 89.5392C192.619 89.7294 193.942 89.9206 195.258 90.1127L195.33 89.618C196.662 89.8126 197.987 90.0083 199.303 90.2048L199.23 90.6993C200.555 90.8971 201.872 91.0959 203.18 91.2954L203.256 90.8012C204.591 91.0049 205.918 91.2095 207.236 91.4149L207.159 91.9089C208.486 92.1159 209.805 92.3238 211.113 92.5323L211.192 92.0386C212.522 92.2505 213.842 92.4632 215.152 92.6767L215.072 93.1702C216.404 93.3872 217.725 93.605 219.036 93.8235L219.118 93.3303C220.443 93.5512 221.757 93.7728 223.06 93.9949L222.976 94.4878C224.308 94.7151 225.629 94.9429 226.937 95.1713L227.023 94.6787C228.354 94.9112 229.672 95.1443 230.977 95.3777L230.889 95.8699C232.213 96.1068 233.524 96.3441 234.819 96.5818L234.91 96.09C236.243 96.3344 237.561 96.5793 238.863 96.8244L238.771 97.3158C240.102 97.5664 241.418 97.8173 242.716 98.0683L242.811 97.5774C244.138 97.834 245.448 98.0907 246.74 98.3475L246.642 98.8379C247.967 99.1014 249.273 99.3649 250.559 99.6283L250.66 99.1384C251.995 99.412 253.31 99.6854 254.603 99.9587L254.5 100.448C255.831 100.729 257.14 101.01 258.424 101.291L258.531 100.803C259.861 101.093 261.166 101.384 262.445 101.674L262.334 102.161C263.662 102.462 264.962 102.762 266.231 103.062L266.346 102.575C267.676 102.889 268.974 103.201 270.238 103.513L270.118 103.998C271.449 104.326 272.742 104.652 273.996 104.977L274.122 104.493C275.458 104.838 276.751 105.182 277.999 105.524L277.867 106.006C279.206 106.373 280.493 106.737 281.727 107.098L281.867 106.619C283.215 107.013 284.5 107.405 285.718 107.792L285.566 108.269C286.914 108.697 288.179 109.121 289.358 109.538L289.525 109.067C290.883 109.547 292.129 110.02 293.258 110.485L293.068 110.947C294.447 111.514 295.645 112.066 296.655 112.601L296.889 112.159Z" stroke="url(#paint21_linear_1208_52938)" stroke-dasharray="4 4" />
    <g opacity="0.9">
        <g filter="url(#filter0_d_1208_52938)">
            <ellipse rx="18.3575" ry="24.1091" transform="matrix(0.977376 0.227267 -0.161319 0.994776 283.832 120.282)" fill="url(#paint22_linear_1208_52938)" shape-rendering="crispEdges" />
        </g>
        <ellipse rx="16.5001" ry="24.1091" transform="matrix(0.977376 0.227267 -0.161319 0.994776 286.19 119.733)" fill="url(#paint23_linear_1208_52938)" />
        <path fill-rule="evenodd" clip-rule="evenodd" d="M280.778 130.158L279.697 119.859L282.92 119.495L287.481 134.259L284.589 135.588L280.778 130.158Z" fill="#43485F" />
        <path fill-rule="evenodd" clip-rule="evenodd" d="M279.65 119.803L282.462 118.511L285.39 119.244L292.03 123.391L289.21 124.688L280.281 125.557L279.65 119.803Z" fill="#43485F" />
        <path fill-rule="evenodd" clip-rule="evenodd" d="M278.752 110.901L279.353 116.714L293.255 115.36L296.058 114.071L289.415 109.888L281.577 109.602L278.752 110.901Z" fill="#43485F" />
        <path fill-rule="evenodd" clip-rule="evenodd" d="M282.507 118.491L288.247 117.932L292.067 123.375L283.138 124.245L282.507 118.491Z" fill="#5A607B" />
        <path fill-rule="evenodd" clip-rule="evenodd" d="M281.607 109.588L282.208 115.401L296.11 114.047L292.27 108.575L281.607 109.588Z" fill="#5A607B" />
    </g>
    <g opacity="0.8">
        <g filter="url(#filter1_d_1208_52938)">
            <ellipse rx="19.5" ry="22" transform="matrix(0.989651 0.143493 0 1 27.2568 86.3723)" fill="#424254" />
        </g>
        <ellipse rx="19.5" ry="21.5" transform="matrix(0.989651 0.143493 0 1 23.2982 85.2981)" fill="#292B3A" />
        <g filter="url(#filter2_f_1208_52938)">
            <path d="M31.7544 83.3847L29.2195 82.5077L32.2613 87.6919L29.2195 90.8695L31.6819 91.7215L34.7238 88.6422L31.7544 83.3847Z" fill="#373B4D" fill-opacity="0.44" />
        </g>
        <path fill-rule="evenodd" clip-rule="evenodd" d="M18.9117 79.5958L16.3769 78.7188L13.4075 81.9215L16.4493 87.1056L17.1003 87.3309L15.1462 87.2446L17.5362 88.0715L18.9113 87.9575L18.9117 87.9576L18.9116 87.9574L18.9123 87.9574L18.9114 87.9571L15.8699 82.6751L18.9117 79.5958Z" fill="#43485F" />
        <g filter="url(#filter3_f_1208_52938)">
            <path d="M17.2675 78.4707L19.8023 79.3478L16.7605 82.427L19.8023 87.7096L17.3399 86.8576L14.2981 81.6734L17.2675 78.4707Z" fill="#373B4D" />
        </g>
        <g filter="url(#filter4_f_1208_52938)">
            <path d="M25.5993 74.3675L27.4824 75.019L23.7163 94.9648L21.8333 94.3133L25.5993 74.3675Z" fill="#373B4D" />
        </g>
        <path fill-rule="evenodd" clip-rule="evenodd" d="M28.3289 82.7527L30.8638 83.6297L33.8332 88.8872L30.7913 91.9665L28.3289 91.1145L31.3707 87.9369L28.3289 82.7527ZM27.0227 91.2537L29.4851 92.1056L30.7888 91.9664L29.8473 91.6407L27.0227 91.2537Z" fill="#43485F" />
        <path fill-rule="evenodd" clip-rule="evenodd" d="M26.591 75.2654L24.7079 74.6139L20.9419 94.5597L22.8249 95.2112L26.591 75.2654ZM19.637 94.6994L21.5924 94.7857L22.8236 95.2117L21.5924 95.3759L19.637 94.6994Z" fill="#43485F" />
        <path d="M15.0741 78.8574L17.609 79.7345L14.5672 82.8138L17.609 88.0963L15.1466 87.2443L12.1047 82.0602L15.0741 78.8574Z" fill="#5A607B" />
        <path d="M29.5584 83.7695L27.0236 82.8925L30.0654 88.0766L27.0236 91.2543L29.486 92.1063L32.5278 89.027L29.5584 83.7695Z" fill="#5A607B" />
        <path d="M23.4027 74.7542L25.2857 75.4057L21.5196 95.3515L19.6366 94.7L23.4027 74.7542Z" fill="#5A607B" />
        <path d="M16.379 78.7167L15.0753 78.8559L17.6102 79.7329L18.9138 79.5937L16.379 78.7167Z" fill="#777E9B" />
        <path d="M24.7071 74.6151L23.4034 74.7543L25.2865 75.4058L26.5901 75.2666L24.7071 74.6151Z" fill="#777E9B" />
        <path d="M28.3259 82.7538L27.0222 82.893L29.5571 83.77L30.8607 83.6308L28.3259 82.7538Z" fill="#777E9B" />
    </g>
    <circle cx="153.498" cy="113.422" r="44.5" fill="url(#paint24_linear_1208_52938)" />
    <circle cx="155.502" cy="113.578" r="44.5" fill="url(#paint25_linear_1208_52938)" />
    <path d="M171.51 101.658C171.227 101.908 166.223 105.262 166.223 111.549C166.223 118.822 172.59 120.725 172.781 120.769C172.752 120.929 171.769 124.399 169.424 128.075C167.332 131.314 165.148 134.557 161.825 134.907C158.503 135.256 157.647 133.41 153.812 133.813C150.073 134.206 148.744 136.345 145.705 136.665C142.665 136.984 140.545 134.414 138.106 131.24C135.282 127.508 133 121.49 133 115.551C133 106.024 139.177 100.323 145.255 99.6838C148.485 99.3443 151.178 101.188 153.206 100.975C155.136 100.772 158.146 98.2015 161.82 97.8153C163.213 97.669 168.217 97.2705 171.51 101.658ZM160.076 93.9656C161.596 91.9976 162.671 89.3755 162.671 86.8665C162.671 86.5185 162.641 86.1688 162.578 85.8912C160.105 86.2442 157.164 88.1118 155.39 90.3613C153.997 92.0954 152.697 94.7411 152.697 97.2845C152.697 97.6667 152.761 98.0423 152.79 98.1617C152.947 98.1747 153.201 98.1822 153.455 98.1555C155.673 97.9224 158.463 96.1394 160.076 93.9656Z" fill="#171723" />
    <path d="M172.51 101.84C172.227 102.09 167.223 105.444 167.223 111.731C167.223 119.003 173.59 120.907 173.781 120.95C173.752 121.11 172.769 124.58 170.424 128.257C168.332 131.496 166.148 134.739 162.825 135.088C159.503 135.438 158.647 133.592 154.812 133.995C151.073 134.388 149.744 136.527 146.705 136.846C143.665 137.166 141.545 134.595 139.106 131.421C136.282 127.69 134 121.672 134 115.732C134 106.206 140.177 100.504 146.255 99.8655C149.485 99.526 152.178 101.37 154.206 101.157C156.136 100.954 159.146 98.3832 162.82 97.997C164.213 97.8506 169.217 97.4521 172.51 101.84ZM161.076 94.1472C162.596 92.1792 163.671 89.5572 163.671 87.0481C163.671 86.7002 163.641 86.3504 163.578 86.0729C161.105 86.4259 158.164 88.2934 156.39 90.5429C154.997 92.2771 153.697 94.9227 153.697 97.4661C153.697 97.8483 153.761 98.2239 153.79 98.3433C153.947 98.3563 154.201 98.3639 154.455 98.3372C156.673 98.104 159.463 96.321 161.076 94.1472Z" fill="#8A94A7" />
    <path d="M37.9132 244.944C35.1997 241.458 36.2527 237.131 40.2651 235.282L59.5058 226.412C63.5182 224.562 68.9706 225.889 71.6841 229.376L101.683 267.925C104.397 271.412 103.344 275.738 99.3312 277.588L76.458 288.133C74.4518 289.058 71.7256 288.394 70.3688 286.651L37.9132 244.944Z" fill="url(#paint26_linear_1208_52938)" />
    <rect x="0.380573" y="0.0926329" width="33.7568" height="63.446" rx="3.75" transform="matrix(0.908143 -0.41866 0.614147 0.789191 35.5308 237.521)" fill="url(#paint27_linear_1208_52938)" stroke="url(#paint28_linear_1208_52938)" stroke-width="0.5" />
    <defs>
        <filter id="filter0_d_1208_52938" x="261.469" y="95.9355" width="44.7256" height="56.6934" filterUnits="userSpaceOnUse" color-interpolation-filters="sRGB">
            <feFlood flood-opacity="0" result="BackgroundImageFix" />
            <feColorMatrix in="SourceAlpha" type="matrix" values="0 0 0 0 0 0 0 0 0 0 0 0 0 0 0 0 0 0 127 0" result="hardAlpha" />
            <feOffset dy="4" />
            <feGaussianBlur stdDeviation="2" />
            <feComposite in2="hardAlpha" operator="out" />
            <feColorMatrix type="matrix" values="0 0 0 0 0 0 0 0 0 0 0 0 0 0 0 0 0 0 0.05 0" />
            <feBlend mode="normal" in2="BackgroundImageFix" result="effect1_dropShadow_1208_52938" />
            <feBlend mode="normal" in="SourceGraphic" in2="effect1_dropShadow_1208_52938" result="shape" />
        </filter>
        <filter id="filter1_d_1208_52938" x="0.958618" y="53.1934" width="68.5964" height="74.3594" filterUnits="userSpaceOnUse" color-interpolation-filters="sRGB">
            <feFlood flood-opacity="0" result="BackgroundImageFix" />
            <feColorMatrix in="SourceAlpha" type="matrix" values="0 0 0 0 0 0 0 0 0 0 0 0 0 0 0 0 0 0 127 0" result="hardAlpha" />
            <feOffset dx="8" dy="4" />
            <feGaussianBlur stdDeviation="7.5" />
            <feComposite in2="hardAlpha" operator="out" />
            <feColorMatrix type="matrix" values="0 0 0 0 0 0 0 0 0 0 0 0 0 0 0 0 0 0 0.05 0" />
            <feBlend mode="normal" in2="BackgroundImageFix" result="effect1_dropShadow_1208_52938" />
            <feBlend mode="normal" in="SourceGraphic" in2="effect1_dropShadow_1208_52938" result="shape" />
        </filter>
        <filter id="filter2_f_1208_52938" x="17.2195" y="70.5078" width="29.5043" height="33.2129" filterUnits="userSpaceOnUse" color-interpolation-filters="sRGB">
            <feFlood flood-opacity="0" result="BackgroundImageFix" />
            <feBlend mode="normal" in="SourceGraphic" in2="BackgroundImageFix" result="shape" />
            <feGaussianBlur stdDeviation="6" result="effect1_foregroundBlur_1208_52938" />
        </filter>
        <filter id="filter3_f_1208_52938" x="2.2981" y="66.4707" width="29.5043" height="33.2383" filterUnits="userSpaceOnUse" color-interpolation-filters="sRGB">
            <feFlood flood-opacity="0" result="BackgroundImageFix" />
            <feBlend mode="normal" in="SourceGraphic" in2="BackgroundImageFix" result="shape" />
            <feGaussianBlur stdDeviation="6" result="effect1_foregroundBlur_1208_52938" />
        </filter>
        <filter id="filter4_f_1208_52938" x="9.83325" y="62.3672" width="29.649" height="44.5977" filterUnits="userSpaceOnUse" color-interpolation-filters="sRGB">
            <feFlood flood-opacity="0" result="BackgroundImageFix" />
            <feBlend mode="normal" in="SourceGraphic" in2="BackgroundImageFix" result="shape" />
            <feGaussianBlur stdDeviation="6" result="effect1_foregroundBlur_1208_52938" />
        </filter>
        <linearGradient id="paint0_linear_1208_52938" x1="138.161" y1="228.355" x2="34.8507" y2="146.164" gradientUnits="userSpaceOnUse">
            <stop stop-color="#2D3041" stop-opacity="0.45" />
            <stop offset="1" stop-color="white" stop-opacity="0" />
        </linearGradient>
        <linearGradient id="paint1_linear_1208_52938" x1="23.5005" y1="100.5" x2="615.497" y2="286.111" gradientUnits="userSpaceOnUse">
            <stop stop-color="#333749" />
            <stop offset="0.34172" stop-color="#1F212B" />
            <stop offset="0.489488" stop-color="#3C4158" />
        </linearGradient>
        <linearGradient id="paint2_linear_1208_52938" x1="291.934" y1="84.043" x2="-108.241" y2="692.017" gradientUnits="userSpaceOnUse">
            <stop stop-color="#282A3B" />
            <stop offset="1" stop-color="#14141F" />
        </linearGradient>
        <linearGradient id="paint3_linear_1208_52938" x1="79.8786" y1="143.145" x2="322.391" y2="44.1851" gradientUnits="userSpaceOnUse">
            <stop stop-color="#1B1B28" />
            <stop offset="1" stop-color="#4F5769" />
        </linearGradient>
        <linearGradient id="paint4_linear_1208_52938" x1="416.5" y1="-96.0005" x2="21.123" y2="235.911" gradientUnits="userSpaceOnUse">
            <stop stop-color="#373B4D" />
            <stop offset="0.851966" stop-color="#171723" stop-opacity="0.8" />
        </linearGradient>
        <radialGradient id="paint5_radial_1208_52938" cx="0" cy="0" r="1" gradientUnits="userSpaceOnUse" gradientTransform="translate(169.977 194.329) rotate(90.5277) scale(31.644 77.9233)">
            <stop stop-color="#E8E9F0" />
            <stop offset="1" stop-color="#F7F7F7" stop-opacity="0" />
        </radialGradient>
        <radialGradient id="paint6_radial_1208_52938" cx="0" cy="0" r="1" gradientUnits="userSpaceOnUse" gradientTransform="translate(177.027 201.91) rotate(90.5277) scale(32.8306 77.9233)">
            <stop stop-color="#E8E9F0" />
            <stop offset="1" stop-color="#F7F7F7" stop-opacity="0" />
        </radialGradient>
        <radialGradient id="paint7_radial_1208_52938" cx="0" cy="0" r="1" gradientUnits="userSpaceOnUse" gradientTransform="translate(183.656 212.256) rotate(90.5277) scale(32.8306 79.901)">
            <stop stop-color="#E8E9F0" />
            <stop offset="1" stop-color="#F7F7F7" stop-opacity="0" />
        </radialGradient>
        <radialGradient id="paint8_radial_1208_52938" cx="0" cy="0" r="1" gradientUnits="userSpaceOnUse" gradientTransform="translate(190.718 218.65) rotate(90.5277) scale(32.8306 79.1099)">
            <stop stop-color="#E8E9F0" />
            <stop offset="1" stop-color="#F7F7F7" stop-opacity="0" />
        </radialGradient>
        <radialGradient id="paint9_radial_1208_52938" cx="0" cy="0" r="1" gradientUnits="userSpaceOnUse" gradientTransform="translate(132.948 220.491) rotate(90.5277) scale(20.173 17.4042)">
            <stop stop-color="#E8E9F0" />
            <stop offset="1" stop-color="#F7F7F7" stop-opacity="0" />
        </radialGradient>
        <radialGradient id="paint10_radial_1208_52938" cx="0" cy="0" r="1" gradientUnits="userSpaceOnUse" gradientTransform="translate(141.708 214.243) rotate(90.5277) scale(20.173 17.4042)">
            <stop stop-color="#E8E9F0" />
            <stop offset="1" stop-color="#F7F7F7" stop-opacity="0" />
        </radialGradient>
        <radialGradient id="paint11_radial_1208_52938" cx="0" cy="0" r="1" gradientUnits="userSpaceOnUse" gradientTransform="translate(154.423 208.032) rotate(90.5277) scale(20.173 17.4042)">
            <stop stop-color="#E8E9F0" />
            <stop offset="1" stop-color="#F7F7F7" stop-opacity="0" />
        </radialGradient>
        <radialGradient id="paint12_radial_1208_52938" cx="0" cy="0" r="1" gradientUnits="userSpaceOnUse" gradientTransform="translate(166.34 202.602) rotate(90.5277) scale(20.173 17.4042)">
            <stop stop-color="#E8E9F0" />
            <stop offset="1" stop-color="#F7F7F7" stop-opacity="0" />
        </radialGradient>
        <radialGradient id="paint13_radial_1208_52938" cx="0" cy="0" r="1" gradientUnits="userSpaceOnUse" gradientTransform="translate(179.824 198.772) rotate(90.5277) scale(20.173 17.4042)">
            <stop stop-color="#E8E9F0" />
            <stop offset="1" stop-color="#F7F7F7" stop-opacity="0" />
        </radialGradient>
        <radialGradient id="paint14_radial_1208_52938" cx="0" cy="0" r="1" gradientUnits="userSpaceOnUse" gradientTransform="translate(190.167 192.538) rotate(90.5277) scale(20.173 17.4042)">
            <stop stop-color="#E8E9F0" />
            <stop offset="1" stop-color="#F7F7F7" stop-opacity="0" />
        </radialGradient>
        <radialGradient id="paint15_radial_1208_52938" cx="0" cy="0" r="1" gradientUnits="userSpaceOnUse" gradientTransform="translate(202.861 188.7) rotate(90.5277) scale(20.173 17.4042)">
            <stop stop-color="#E8E9F0" />
            <stop offset="1" stop-color="#F7F7F7" stop-opacity="0" />
        </radialGradient>
        <radialGradient id="paint16_radial_1208_52938" cx="0" cy="0" r="1" gradientUnits="userSpaceOnUse" gradientTransform="translate(221.875 185.709) rotate(90.5277) scale(20.173 17.4042)">
            <stop stop-color="#E8E9F0" />
            <stop offset="1" stop-color="#F7F7F7" stop-opacity="0" />
        </radialGradient>
        <radialGradient id="paint17_radial_1208_52938" cx="0" cy="0" r="1" gradientUnits="userSpaceOnUse" gradientTransform="translate(237.777 177.153) rotate(90.5277) scale(20.173 17.4042)">
            <stop stop-color="#E8E9F0" />
            <stop offset="1" stop-color="#F7F7F7" stop-opacity="0" />
        </radialGradient>
        <linearGradient id="paint18_linear_1208_52938" x1="125.388" y1="267.973" x2="338.823" y2="134.011" gradientUnits="userSpaceOnUse">
            <stop stop-color="#4F5469" />
            <stop offset="0.738994" stop-color="#4F5469" stop-opacity="0" />
        </linearGradient>
        <linearGradient id="paint19_linear_1208_52938" x1="176.413" y1="114.406" x2="180.115" y2="135.231" gradientUnits="userSpaceOnUse">
            <stop offset="0.186067" stop-color="white" stop-opacity="0.07" />
            <stop offset="0.312763" stop-color="white" stop-opacity="0.858597" />
            <stop offset="0.603529" stop-color="white" />
            <stop offset="1" stop-color="white" stop-opacity="0" />
        </linearGradient>
        <linearGradient id="paint20_linear_1208_52938" x1="176.413" y1="114.406" x2="180.115" y2="135.231" gradientUnits="userSpaceOnUse">
            <stop offset="0.186067" stop-color="white" stop-opacity="0.07" />
            <stop offset="0.312763" stop-color="white" stop-opacity="0.858597" />
            <stop offset="0.603529" stop-color="white" />
            <stop offset="1" stop-color="white" stop-opacity="0" />
        </linearGradient>
        <linearGradient id="paint21_linear_1208_52938" x1="158.42" y1="113.157" x2="161.816" y2="85.1437" gradientUnits="userSpaceOnUse">
            <stop stop-color="#798196" stop-opacity="0.53" />
            <stop offset="1" stop-color="#798196" stop-opacity="0" />
        </linearGradient>
        <linearGradient id="paint22_linear_1208_52938" x1="18.3575" y1="0" x2="18.3575" y2="48.2182" gradientUnits="userSpaceOnUse">
            <stop stop-color="#424254" />
            <stop offset="1" stop-color="#3B3B55" stop-opacity="0.33" />
        </linearGradient>
        <linearGradient id="paint23_linear_1208_52938" x1="-31.4299" y1="-5.38633" x2="95.5878" y2="14.7331" gradientUnits="userSpaceOnUse">
            <stop stop-color="#1D1E2B" />
            <stop offset="1" stop-color="#2B2D3D" />
        </linearGradient>
        <linearGradient id="paint24_linear_1208_52938" x1="114" y1="108" x2="193.781" y2="170.733" gradientUnits="userSpaceOnUse">
            <stop stop-color="#171723" />
            <stop offset="0.940675" stop-color="#171723" stop-opacity="0" />
        </linearGradient>
        <linearGradient id="paint25_linear_1208_52938" x1="45.5" y1="47.4995" x2="335" y2="253" gradientUnits="userSpaceOnUse">
            <stop stop-color="#45495C" />
            <stop offset="1" stop-color="#171723" />
        </linearGradient>
        <linearGradient id="paint26_linear_1208_52938" x1="72" y1="292.5" x2="103.799" y2="168.326" gradientUnits="userSpaceOnUse">
            <stop stop-color="#424659" />
            <stop offset="1" stop-color="#272839" />
        </linearGradient>
        <linearGradient id="paint27_linear_1208_52938" x1="-20.5779" y1="-29.0892" x2="48.668" y2="110.752" gradientUnits="userSpaceOnUse">
            <stop stop-color="#373B4D" />
            <stop offset="1" stop-color="#171723" stop-opacity="0.8" />
        </linearGradient>
        <linearGradient id="paint28_linear_1208_52938" x1="4.81289" y1="-8.01685" x2="34.0683" y2="76.9259" gradientUnits="userSpaceOnUse">
            <stop stop-color="#686982" />
            <stop offset="1" stop-color="#686982" stop-opacity="0" />
        </linearGradient>
    </defs>
</svg>
