<svg width="307" height="290" viewBox="0 0 307 290" fill="none" xmlns="http://www.w3.org/2000/svg">
    <path d="M11.6704 157.098L64.2175 201.572L215.821 130.154L65.7018 42.5012L11.6704 157.098Z" fill="url(#paint0_linear_1208_52085)" />
    <path d="M63.3384 200.647L53.7233 84.1214C53.2123 77.9284 57.1556 72.2397 63.1341 70.5451L226.762 24.1652C227.101 24.0689 227.461 24.0642 227.803 24.1517L230.954 24.9575L236.442 140.02L298.956 196.437C301.129 198.398 300.528 201.953 297.831 203.091L126.064 275.588C124.404 276.288 122.48 275.792 121.366 274.376L63.3384 200.647Z" fill="url(#paint1_linear_1208_52085)" />
    <path d="M125.229 269.655L67.3417 198.373L235.847 140.021L301.248 196.874L285.031 203.599L266.44 210.718L198.801 239.989L125.229 269.655Z" fill="url(#paint2_linear_1208_52085)" />
    <path d="M121.7 253.915L87.2108 210.59L241.524 153.363L279.875 184.74C282.212 186.652 281.668 190.366 278.881 191.528L126.369 255.116C124.719 255.804 122.813 255.313 121.7 253.915Z" fill="white" />
    <path d="M67.4786 198.456L58.7996 83.1764C58.4056 77.9432 61.7634 73.1604 66.8193 71.7533L228.753 26.6874C230.011 26.3372 231.262 27.2677 231.288 28.5737L233.61 143.079L67.4786 198.456Z" fill="url(#paint3_linear_1208_52085)" />
    <path d="M71.4338 197.664L64.4883 81.7793C64.3771 79.9248 65.5574 78.238 67.3377 77.7069L226.559 30.2103C227.786 29.8443 229.036 30.7097 229.125 31.987L236.774 141.1L71.4338 197.664Z" fill="url(#paint4_linear_1208_52085)" />
    <path d="M91.7658 225.35L248.189 163.5" stroke="url(#paint5_radial_1208_52085)" />
    <path d="M98.8048 234.117L255.249 169.894" stroke="url(#paint6_radial_1208_52085)" />
    <path d="M103.456 244.446L263.856 180.259" stroke="url(#paint7_radial_1208_52085)" />
    <path d="M111.309 250.846L270.127 186.645" stroke="url(#paint8_radial_1208_52085)" />
    <path d="M115.73 200.254L150.165 240.919" stroke="url(#paint9_radial_1208_52085)" />
    <path d="M124.49 194.006L158.926 234.671" stroke="url(#paint10_radial_1208_52085)" />
    <path d="M137.205 187.795L171.641 228.46" stroke="url(#paint11_radial_1208_52085)" />
    <path d="M149.122 182.365L183.558 223.03" stroke="url(#paint12_radial_1208_52085)" />
    <path d="M162.607 178.535L197.042 219.2" stroke="url(#paint13_radial_1208_52085)" />
    <path d="M172.95 172.301L207.385 212.966" stroke="url(#paint14_radial_1208_52085)" />
    <path d="M185.644 168.463L220.079 209.128" stroke="url(#paint15_radial_1208_52085)" />
    <path d="M204.658 165.473L221.875 185.805L239.093 206.138" stroke="url(#paint16_radial_1208_52085)" />
    <path d="M220.559 156.916L237.777 177.248L254.995 197.581" stroke="url(#paint17_radial_1208_52085)" />
    <path d="M87.3515 215.044L87.3514 210.578L121.977 251.592C123.659 253.585 126.437 254.263 128.848 253.269L279.102 191.336L279.278 194.806L127.47 257.241C125.46 258.068 123.146 257.502 121.746 255.84L87.3515 215.044Z" fill="url(#paint18_linear_1208_52085)" />
    <path d="M205.567 37.6267C204.639 38.6455 204.719 40.2247 205.744 41.1447L207.631 42.8375C208.671 43.7703 210.281 43.635 211.151 42.5418C211.925 41.5683 211.838 40.1671 210.949 39.297L209.138 37.5239C208.133 36.5405 206.513 36.5871 205.567 37.6267Z" fill="url(#paint19_linear_1208_52085)" fill-opacity="0.4" />
    <path d="M172.321 125.315C172.266 127.524 173.91 128.717 175.994 127.98C178.077 127.242 179.81 124.853 179.864 122.644C179.919 120.435 178.275 119.242 176.192 119.979C174.109 120.717 172.376 123.106 172.321 125.315Z" fill="url(#paint20_linear_1208_52085)" />
    <path d="M177.561 122.794C177.187 121.386 175.109 122.121 174.657 123.822L171.837 134.44C171.54 135.557 172.238 136.314 173.238 135.96L178.398 134.133C179.399 133.779 180.147 132.509 179.901 131.584L177.561 122.794Z" fill="url(#paint21_linear_1208_52085)" />
    <path d="M296.889 112.254C298.402 113.055 299.512 113.824 300.188 114.553L299.821 114.893C300.349 115.462 300.502 115.911 300.46 116.259C300.418 116.607 300.162 117.007 299.513 117.434L299.788 117.851C298.957 118.398 297.696 118.879 296.035 119.295L295.914 118.81C294.806 119.087 293.511 119.337 292.035 119.558L292.109 120.053C290.902 120.234 289.579 120.396 288.146 120.538L288.096 120.04C286.852 120.164 285.522 120.272 284.111 120.367L284.144 120.866C282.869 120.951 281.529 121.024 280.125 121.085L280.103 120.586C278.819 120.642 277.482 120.688 276.094 120.724L276.107 121.224C274.814 121.257 273.476 121.282 272.096 121.299L272.09 120.799C270.794 120.814 269.46 120.822 268.09 120.822L268.09 121.322C266.788 121.323 265.454 121.316 264.087 121.303L264.092 120.803C262.788 120.79 261.454 120.771 260.093 120.746L260.083 121.246C258.773 121.222 257.436 121.192 256.075 121.157L256.088 120.657C254.774 120.622 253.436 120.583 252.076 120.538L252.059 121.038C250.739 120.994 249.397 120.945 248.034 120.892L248.054 120.392C246.742 120.341 245.411 120.284 244.061 120.224L244.039 120.723C242.723 120.664 241.39 120.6 240.04 120.532L240.065 120.033C238.744 119.966 237.407 119.896 236.054 119.821L236.026 120.32C234.703 120.247 233.365 120.17 232.012 120.089L232.042 119.59C230.727 119.511 229.398 119.428 228.055 119.342L228.023 119.841C226.7 119.756 225.364 119.667 224.016 119.575L224.05 119.076C222.726 118.985 221.389 118.891 220.041 118.793L220.005 119.292C218.687 119.196 217.358 119.097 216.018 118.995L216.056 118.497C214.731 118.396 213.396 118.291 212.051 118.184L212.011 118.682C210.688 118.577 209.355 118.468 208.013 118.356L208.055 117.857C206.734 117.747 205.404 117.634 204.066 117.518L204.022 118.016C202.694 117.901 201.357 117.782 200.011 117.661L200.056 117.163C198.738 117.044 197.411 116.922 196.077 116.798L196.031 117.296C194.706 117.172 193.373 117.045 192.032 116.916L192.08 116.418C190.757 116.291 189.427 116.16 188.09 116.027L188.04 116.525C186.718 116.393 185.388 116.259 184.053 116.122L184.104 115.624C182.777 115.488 181.444 115.349 180.105 115.208L180.053 115.705C178.733 115.566 177.406 115.424 176.075 115.279L176.129 114.782C174.802 114.639 173.47 114.492 172.133 114.343L172.077 114.84C170.757 114.693 169.431 114.543 168.1 114.391L168.157 113.895C166.832 113.743 165.503 113.59 164.169 113.434L164.11 113.93C162.788 113.775 161.461 113.618 160.129 113.459L160.189 112.962C159.523 112.883 158.857 112.802 158.189 112.721C157.522 112.64 156.856 112.559 156.19 112.478L156.13 112.974C154.799 112.811 153.472 112.646 152.151 112.48L152.213 111.984C150.881 111.817 149.553 111.649 148.231 111.479L148.167 111.975C146.838 111.805 145.515 111.633 144.198 111.46L144.263 110.965C142.928 110.79 141.6 110.614 140.277 110.436L140.211 110.932C138.883 110.754 137.562 110.575 136.246 110.395L136.314 109.899C134.98 109.717 133.653 109.533 132.332 109.348L132.263 109.843C130.933 109.657 129.61 109.47 128.295 109.282L128.365 108.787C127.035 108.597 125.712 108.406 124.397 108.213L124.325 108.708C122.992 108.513 121.668 108.318 120.351 108.121L120.425 107.627C119.1 107.429 117.783 107.23 116.474 107.031L116.399 107.525C115.063 107.321 113.737 107.117 112.419 106.911L112.496 106.417C111.168 106.21 109.85 106.002 108.541 105.794L108.462 106.288C107.133 106.076 105.812 105.863 104.503 105.649L104.583 105.156C103.251 104.939 101.929 104.721 100.619 104.503L100.537 104.996C99.2113 104.775 97.8972 104.553 96.5946 104.331L96.6787 103.838C95.3462 103.611 94.0259 103.383 92.7181 103.155L92.6321 103.647C91.3007 103.415 89.9823 103.182 88.6773 102.948L88.7653 102.456C87.4413 102.219 86.1311 101.982 84.8351 101.744L84.745 102.236C83.4119 101.992 82.094 101.747 80.7916 101.502L80.8841 101.01C79.5524 100.76 78.2371 100.509 76.9386 100.258L76.8437 100.749C75.5164 100.492 74.2067 100.235 72.9151 99.9786L73.0126 99.4882C71.6875 99.2247 70.3816 98.9612 69.0953 98.6979L68.995 99.1877C67.6591 98.9141 66.3444 98.6407 65.0516 98.3675L65.155 97.8783C63.8233 97.5968 62.5149 97.3157 61.2306 97.035L61.1238 97.5235C59.7932 97.2327 58.4884 96.9423 57.2101 96.6526L57.3206 96.165C55.9924 95.864 54.693 95.5637 53.4232 95.2644L53.3085 95.751C51.9785 95.4374 50.6809 95.1249 49.4168 94.8135L49.5364 94.328C48.206 94.0003 46.9128 93.6741 45.6582 93.3494L45.533 93.8335C44.1967 93.4877 42.9038 93.1438 41.6559 92.8021L41.7879 92.3198C40.4484 91.953 39.1612 91.5889 37.9279 91.2277L37.7874 91.7075C36.4391 91.3127 35.1548 90.9213 33.9369 90.5339L34.0884 90.0575C32.7409 89.6289 31.4759 89.2055 30.2966 88.7882L30.1298 89.2596C28.7721 88.7791 27.526 88.306 26.3967 87.8416L26.5869 87.3792C25.2073 86.8118 24.0093 86.2597 22.9998 85.7255L22.7659 86.1674C21.2526 85.3665 20.1431 84.5982 19.4667 83.8692L19.8332 83.5291C19.3052 82.9599 19.1527 82.5106 19.1949 82.1626C19.237 81.8147 19.4925 81.4148 20.1413 80.9883L19.8666 80.5705C20.6976 80.0242 21.9586 79.5433 23.6194 79.1271L23.7409 79.6121C24.8488 79.3346 26.144 79.0848 27.6193 78.8635L27.5451 78.369C28.7527 78.1878 30.0756 78.0262 31.5089 77.8841L31.5582 78.3817C32.8031 78.2582 34.1326 78.1494 35.5435 78.0552L35.5102 77.5563C36.7853 77.4712 38.126 77.398 39.5296 77.3367L39.5514 77.8363C40.8352 77.7802 42.1722 77.7342 43.5605 77.698L43.5475 77.1982C44.8409 77.1646 46.1785 77.1395 47.5588 77.1231L47.5647 77.623C48.8606 77.6076 50.1942 77.5997 51.5644 77.5994L51.5643 77.0994C52.8662 77.0992 54.2008 77.1057 55.5672 77.119L55.5624 77.619C56.8668 77.6317 58.2004 77.6506 59.562 77.6756L59.5712 77.1757C60.8817 77.1999 62.2182 77.2297 63.5797 77.2653L63.5666 77.7651C64.8808 77.7994 66.2185 77.839 67.5789 77.8839L67.5954 77.3842C68.916 77.4278 70.258 77.4764 71.6205 77.53L71.6009 78.0296C72.9128 78.0812 74.2439 78.1374 75.5935 78.1982L75.616 77.6987C76.9316 77.7579 78.2647 77.8215 79.6149 77.8895L79.5897 78.3889C80.9106 78.4554 82.2477 78.5261 83.6007 78.6009L83.6283 78.1016C84.9515 78.1748 86.2898 78.252 87.6427 78.3331L87.6127 78.8322C88.9279 78.9111 90.2569 78.9937 91.5992 79.0801L91.6313 78.5811C92.9542 78.6662 94.2901 78.755 95.6385 78.8473L95.6043 79.3461C96.9288 79.4369 98.2654 79.5311 99.6135 79.6288L99.6497 79.1301C100.968 79.2256 102.297 79.3245 103.636 79.4266L103.598 79.9252C104.923 80.0262 106.258 80.1305 107.604 80.238L107.644 79.7396C108.966 79.8453 110.299 79.9542 111.641 80.0661L111.6 80.5644C112.92 80.6746 114.25 80.7878 115.589 80.904L115.632 80.4059C116.961 80.5213 118.298 80.6396 119.644 80.7609L119.599 81.2589C120.917 81.3778 122.243 81.4994 123.577 81.624L123.624 81.1262C124.949 81.2499 126.282 81.3764 127.622 81.5058L127.574 82.0035C128.897 82.1311 130.228 82.2616 131.565 82.3947L131.614 81.8972C132.937 82.0289 134.266 82.1632 135.602 82.3003L135.551 82.7977C136.877 82.9338 138.21 83.0725 139.549 83.2138L139.602 82.7166C140.922 82.856 142.248 82.9979 143.58 83.1423L143.526 83.6394C144.852 83.7833 146.185 83.9297 147.522 84.0787L147.577 83.5817C148.898 83.7288 150.224 83.8784 151.555 84.0303L151.498 84.5271C152.823 84.6784 154.152 84.8321 155.486 84.9882L155.544 84.4916C156.867 84.6464 158.194 84.8036 159.525 84.9631L159.466 85.4595C160.131 85.5393 160.798 85.6196 161.465 85.7005C162.133 85.7814 162.799 85.8627 163.464 85.9443L163.525 85.448C164.856 85.6112 166.182 85.7757 167.503 85.9414L167.441 86.4375C168.774 86.6046 170.102 86.7731 171.424 86.9427L171.488 86.4467C172.816 86.6171 174.139 86.7887 175.457 86.9615L175.392 87.4573C176.726 87.6322 178.055 87.8083 179.377 87.9855L179.444 87.49C180.771 87.6679 182.093 87.8469 183.408 88.0271L183.34 88.5224C184.674 88.7051 186.002 88.8889 187.323 89.0737L187.392 88.5786C188.721 88.7646 190.044 88.9518 191.36 89.1399L191.289 89.6349C192.619 89.8251 193.942 90.0163 195.258 90.2085L195.33 89.7137C196.662 89.9083 197.987 90.104 199.303 90.3005L199.23 90.795C200.555 90.9928 201.872 91.1916 203.18 91.3911L203.256 90.8969C204.591 91.1006 205.918 91.3052 207.236 91.5106L207.159 92.0046C208.486 92.2116 209.805 92.4195 211.113 92.628L211.192 92.1343C212.522 92.3462 213.842 92.5589 215.152 92.7724L215.072 93.2659C216.404 93.4829 217.725 93.7007 219.036 93.9192L219.118 93.426C220.443 93.6469 221.757 93.8685 223.06 94.0906L222.976 94.5835C224.308 94.8108 225.629 95.0386 226.937 95.267L227.023 94.7744C228.354 95.0069 229.672 95.24 230.977 95.4734L230.889 95.9656C232.213 96.2025 233.524 96.4398 234.819 96.6775L234.91 96.1857C236.243 96.4301 237.561 96.675 238.863 96.9201L238.771 97.4115C240.102 97.6621 241.418 97.913 242.716 98.164L242.811 97.6731C244.138 97.9297 245.448 98.1864 246.74 98.4432L246.642 98.9336C247.967 99.1971 249.273 99.4606 250.559 99.724L250.66 99.2341C251.995 99.5077 253.31 99.7812 254.603 100.054L254.5 100.544C255.831 100.825 257.14 101.106 258.424 101.387L258.531 100.898C259.861 101.189 261.166 101.48 262.445 101.769L262.334 102.257C263.662 102.558 264.962 102.858 266.231 103.157L266.346 102.671C267.676 102.984 268.974 103.297 270.238 103.608L270.118 104.094C271.449 104.421 272.742 104.748 273.996 105.072L274.122 104.588C275.458 104.934 276.751 105.278 277.999 105.62L277.867 106.102C279.206 106.469 280.493 106.833 281.727 107.194L281.867 106.714C283.215 107.109 284.5 107.501 285.718 107.888L285.566 108.364C286.914 108.793 288.179 109.216 289.358 109.634L289.525 109.162C290.883 109.643 292.129 110.116 293.258 110.58L293.068 111.043C294.447 111.61 295.645 112.162 296.655 112.696L296.889 112.254Z" stroke="url(#paint22_linear_1208_52085)" stroke-dasharray="4 4" />
    <g opacity="0.9">
        <g filter="url(#filter0_d_1208_52085)">
            <ellipse rx="18.3575" ry="24.1091" transform="matrix(0.977376 0.227267 -0.161319 0.994776 283.831 120.378)" fill="url(#paint23_linear_1208_52085)" />
        </g>
        <ellipse rx="16.5001" ry="24.1091" transform="matrix(0.977376 0.227267 -0.161319 0.994776 286.19 119.829)" fill="url(#paint24_linear_1208_52085)" />
        <path fill-rule="evenodd" clip-rule="evenodd" d="M280.778 130.254L279.697 119.955L282.92 119.591L287.481 134.355L284.589 135.684L280.778 130.254Z" fill="url(#paint25_linear_1208_52085)" />
        <path fill-rule="evenodd" clip-rule="evenodd" d="M279.65 119.899L282.462 118.606L285.39 119.34L292.03 123.487L289.21 124.783L280.281 125.653L279.65 119.899Z" fill="url(#paint26_linear_1208_52085)" />
        <path fill-rule="evenodd" clip-rule="evenodd" d="M278.752 110.996L279.353 116.81L293.255 115.456L296.058 114.167L289.415 109.984L281.577 109.698L278.752 110.996Z" fill="url(#paint27_linear_1208_52085)" />
        <path fill-rule="evenodd" clip-rule="evenodd" d="M282.507 118.586L288.247 118.028L292.067 123.471L283.138 124.341L282.507 118.586Z" fill="#C5C7D8" />
        <path fill-rule="evenodd" clip-rule="evenodd" d="M281.607 109.683L282.208 115.497L296.11 114.143L292.27 108.671L281.607 109.683Z" fill="#C5C7D8" />
    </g>
    <g opacity="0.8">
        <g filter="url(#filter1_d_1208_52085)">
            <ellipse rx="19.5" ry="22" transform="matrix(0.989651 0.143493 0 1 27.2568 86.468)" fill="#E1E2EB" />
        </g>
        <ellipse rx="19.5" ry="21.5" transform="matrix(0.989651 0.143493 0 1 23.2982 85.3938)" fill="#F7F7FD" />
        <g filter="url(#filter2_f_1208_52085)">
            <path d="M17.2683 78.5664L19.8031 79.4435L16.7613 82.5227L19.8031 87.8053L17.3407 86.9533L14.2989 81.7692L17.2683 78.5664Z" fill="#A3A8BD" fill-opacity="0.44" />
        </g>
        <g filter="url(#filter3_f_1208_52085)">
            <path d="M31.7542 83.4804L29.2194 82.6034L32.2612 87.7876L29.2194 90.9652L31.6818 91.8172L34.7236 88.7379L31.7542 83.4804Z" fill="#A3A8BD" fill-opacity="0.44" />
        </g>
        <g filter="url(#filter4_f_1208_52085)">
            <path d="M25.5985 74.4632L27.4816 75.1147L23.7155 95.0605L21.8325 94.409L25.5985 74.4632Z" fill="#A3A8BD" fill-opacity="0.44" />
        </g>
        <path fill-rule="evenodd" clip-rule="evenodd" d="M18.9117 79.6915L16.3768 78.8145L13.4074 82.0172L16.4492 87.2013L17.1002 87.4266L15.1462 87.3403L17.5362 88.1672L18.9113 88.0532L18.9117 88.0533L18.9116 88.0531L18.9122 88.0531L18.9114 88.0528L15.8698 82.7708L18.9117 79.6915Z" fill="url(#paint28_linear_1208_52085)" />
        <path fill-rule="evenodd" clip-rule="evenodd" d="M28.3287 82.8484L30.8635 83.7254L33.8329 88.9829L30.7911 92.0622L28.3287 91.2102L31.3705 88.0326L28.3287 82.8484ZM27.0225 91.3494L29.4849 92.2013L30.7885 92.0621L29.847 91.7364L27.0225 91.3494Z" fill="url(#paint29_linear_1208_52085)" />
        <path fill-rule="evenodd" clip-rule="evenodd" d="M26.5909 75.3611L24.7079 74.7096L20.9418 94.6554L22.8248 95.3069L26.5909 75.3611ZM19.6369 94.7951L21.5924 94.8814L22.8236 95.3074L21.5924 95.4716L19.6369 94.7951Z" fill="url(#paint30_linear_1208_52085)" />
        <path d="M15.0741 78.9531L17.6089 79.8302L14.5671 82.9095L17.6089 88.192L15.1465 87.34L12.1047 82.1559L15.0741 78.9531Z" fill="url(#paint31_linear_1208_52085)" />
        <path d="M29.5584 83.8652L27.0235 82.9882L30.0653 88.1723L27.0235 91.35L29.4859 92.202L32.5278 89.1227L29.5584 83.8652Z" fill="url(#paint32_linear_1208_52085)" />
        <path d="M23.4027 74.8499L25.2857 75.5014L21.5196 95.4472L19.6366 94.7957L23.4027 74.8499Z" fill="url(#paint33_linear_1208_52085)" />
        <path d="M16.3788 78.8124L15.0752 78.9516L17.61 79.8286L18.9137 79.6894L16.3788 78.8124Z" fill="url(#paint34_linear_1208_52085)" />
        <path d="M24.707 74.7108L23.4034 74.85L25.2864 75.5015L26.5901 75.3623L24.707 74.7108Z" fill="url(#paint35_linear_1208_52085)" />
        <path d="M28.3259 82.8495L27.0222 82.9887L29.5571 83.8657L30.8607 83.7265L28.3259 82.8495Z" fill="url(#paint36_linear_1208_52085)" />
    </g>
    <circle cx="153.498" cy="113.518" r="44.5" fill="url(#paint37_linear_1208_52085)" />
    <circle cx="155.501" cy="113.674" r="44.5" fill="url(#paint38_linear_1208_52085)" />
    <path d="M171.51 101.754C171.227 102.004 166.223 105.358 166.223 111.645C166.223 118.917 172.59 120.821 172.781 120.865C172.752 121.024 171.769 124.494 169.424 128.171C167.332 131.41 165.148 134.653 161.825 135.002C158.503 135.352 157.647 133.506 153.812 133.909C150.073 134.302 148.744 136.441 145.705 136.76C142.665 137.08 140.545 134.509 138.106 131.335C135.282 127.604 133 121.586 133 115.647C133 106.12 139.177 100.418 145.255 99.7795C148.485 99.44 151.178 101.284 153.206 101.071C155.136 100.868 158.146 98.2973 161.82 97.911C163.213 97.7647 168.217 97.3662 171.51 101.754ZM160.076 94.0613C161.596 92.0933 162.671 89.4712 162.671 86.9622C162.671 86.6142 162.641 86.2645 162.578 85.9869C160.105 86.3399 157.164 88.2075 155.39 90.457C153.997 92.1911 152.697 94.8368 152.697 97.3802C152.697 97.7624 152.761 98.138 152.79 98.2574C152.947 98.2704 153.201 98.278 153.455 98.2512C155.673 98.0181 158.463 96.2351 160.076 94.0613Z" fill="#B7B8BE" />
    <path d="M172.51 101.936C172.227 102.186 167.223 105.539 167.223 111.827C167.223 119.099 173.59 121.003 173.781 121.046C173.752 121.206 172.769 124.676 170.424 128.353C168.332 131.591 166.148 134.835 162.825 135.184C159.503 135.533 158.647 133.687 154.812 134.091C151.073 134.483 149.744 136.623 146.705 136.942C143.665 137.261 141.545 134.691 139.106 131.517C136.282 127.786 134 121.768 134 115.828C134 106.302 140.177 100.6 146.255 99.9612C149.485 99.6217 152.178 101.465 154.206 101.252C156.136 101.049 159.146 98.4789 162.82 98.0927C164.213 97.9463 169.217 97.5478 172.51 101.936ZM161.076 94.2429C162.596 92.2749 163.671 89.6529 163.671 87.1438C163.671 86.7959 163.641 86.4461 163.578 86.1686C161.105 86.5216 158.164 88.3891 156.39 90.6386C154.997 92.3728 153.697 95.0184 153.697 97.5618C153.697 97.944 153.761 98.3196 153.79 98.439C153.947 98.452 154.201 98.4596 154.455 98.4329C156.673 98.1997 159.463 96.4167 161.076 94.2429Z" fill="#4E4E4E" />
    <path d="M37.9132 245.04C35.1997 241.553 36.2527 237.227 40.2651 235.377L59.5058 226.507C63.5182 224.657 68.9706 225.985 71.6841 229.471L101.683 268.021C104.397 271.508 103.344 275.834 99.3312 277.684L76.458 288.228C74.4518 289.153 71.7256 288.49 70.3688 286.746L37.9132 245.04Z" fill="url(#paint39_linear_1208_52085)" />
    <rect x="0.380573" y="0.0926329" width="33.7568" height="63.446" rx="3.75" transform="matrix(0.908143 -0.41866 0.614147 0.789191 35.5308 237.616)" fill="url(#paint40_linear_1208_52085)" stroke="url(#paint41_linear_1208_52085)" stroke-width="0.5" />
    <defs>
        <filter id="filter0_d_1208_52085" x="261.469" y="96.0312" width="44.7255" height="56.6934" filterUnits="userSpaceOnUse" color-interpolation-filters="sRGB">
            <feFlood flood-opacity="0" result="BackgroundImageFix" />
            <feColorMatrix in="SourceAlpha" type="matrix" values="0 0 0 0 0 0 0 0 0 0 0 0 0 0 0 0 0 0 127 0" result="hardAlpha" />
            <feOffset dy="4" />
            <feGaussianBlur stdDeviation="2" />
            <feComposite in2="hardAlpha" operator="out" />
            <feColorMatrix type="matrix" values="0 0 0 0 0 0 0 0 0 0 0 0 0 0 0 0 0 0 0.05 0" />
            <feBlend mode="normal" in2="BackgroundImageFix" result="effect1_dropShadow_1208_52085" />
            <feBlend mode="normal" in="SourceGraphic" in2="effect1_dropShadow_1208_52085" result="shape" />
        </filter>
        <filter id="filter1_d_1208_52085" x="0.958618" y="53.2891" width="68.5964" height="74.3594" filterUnits="userSpaceOnUse" color-interpolation-filters="sRGB">
            <feFlood flood-opacity="0" result="BackgroundImageFix" />
            <feColorMatrix in="SourceAlpha" type="matrix" values="0 0 0 0 0 0 0 0 0 0 0 0 0 0 0 0 0 0 127 0" result="hardAlpha" />
            <feOffset dx="8" dy="4" />
            <feGaussianBlur stdDeviation="7.5" />
            <feComposite in2="hardAlpha" operator="out" />
            <feColorMatrix type="matrix" values="0 0 0 0 0 0 0 0 0 0 0 0 0 0 0 0 0 0 0.05 0" />
            <feBlend mode="normal" in2="BackgroundImageFix" result="effect1_dropShadow_1208_52085" />
            <feBlend mode="normal" in="SourceGraphic" in2="effect1_dropShadow_1208_52085" result="shape" />
        </filter>
        <filter id="filter2_f_1208_52085" x="2.29889" y="66.5664" width="29.5043" height="33.2383" filterUnits="userSpaceOnUse" color-interpolation-filters="sRGB">
            <feFlood flood-opacity="0" result="BackgroundImageFix" />
            <feBlend mode="normal" in="SourceGraphic" in2="BackgroundImageFix" result="shape" />
            <feGaussianBlur stdDeviation="6" result="effect1_foregroundBlur_1208_52085" />
        </filter>
        <filter id="filter3_f_1208_52085" x="17.2194" y="70.6035" width="29.5043" height="33.2129" filterUnits="userSpaceOnUse" color-interpolation-filters="sRGB">
            <feFlood flood-opacity="0" result="BackgroundImageFix" />
            <feBlend mode="normal" in="SourceGraphic" in2="BackgroundImageFix" result="shape" />
            <feGaussianBlur stdDeviation="6" result="effect1_foregroundBlur_1208_52085" />
        </filter>
        <filter id="filter4_f_1208_52085" x="9.83246" y="62.4629" width="29.6491" height="44.5977" filterUnits="userSpaceOnUse" color-interpolation-filters="sRGB">
            <feFlood flood-opacity="0" result="BackgroundImageFix" />
            <feBlend mode="normal" in="SourceGraphic" in2="BackgroundImageFix" result="shape" />
            <feGaussianBlur stdDeviation="6" result="effect1_foregroundBlur_1208_52085" />
        </filter>
        <linearGradient id="paint0_linear_1208_52085" x1="138.161" y1="228.451" x2="34.8507" y2="146.26" gradientUnits="userSpaceOnUse">
            <stop stop-color="#798196" />
            <stop offset="1" stop-color="white" stop-opacity="0" />
        </linearGradient>
        <linearGradient id="paint1_linear_1208_52085" x1="17.2333" y1="267.535" x2="615.497" y2="286.207" gradientUnits="userSpaceOnUse">
            <stop stop-color="#C4C6D7" />
            <stop offset="0.34172" stop-color="#E8E8F1" />
            <stop offset="1" stop-color="#FCFCFF" />
        </linearGradient>
        <linearGradient id="paint2_linear_1208_52085" x1="291.934" y1="84.1387" x2="-108.241" y2="692.112" gradientUnits="userSpaceOnUse">
            <stop stop-color="#FAFAFF" />
            <stop offset="1" stop-color="#FAFAFF" stop-opacity="0" />
        </linearGradient>
        <linearGradient id="paint3_linear_1208_52085" x1="79.8786" y1="143.24" x2="381.993" y2="143.302" gradientUnits="userSpaceOnUse">
            <stop stop-color="#E8E8F1" />
            <stop offset="1" stop-color="#FCFCFF" />
        </linearGradient>
        <linearGradient id="paint4_linear_1208_52085" x1="384.395" y1="-113.462" x2="135.163" y2="137.192" gradientUnits="userSpaceOnUse">
            <stop stop-color="#E8E8F1" />
            <stop offset="1" stop-color="#FCFCFF" />
        </linearGradient>
        <radialGradient id="paint5_radial_1208_52085" cx="0" cy="0" r="1" gradientUnits="userSpaceOnUse" gradientTransform="translate(169.977 194.425) rotate(90.5277) scale(31.644 77.9233)">
            <stop stop-color="#E8E9F0" />
            <stop offset="1" stop-color="#F7F7F7" stop-opacity="0" />
        </radialGradient>
        <radialGradient id="paint6_radial_1208_52085" cx="0" cy="0" r="1" gradientUnits="userSpaceOnUse" gradientTransform="translate(177.027 202.006) rotate(90.5277) scale(32.8306 77.9233)">
            <stop stop-color="#E8E9F0" />
            <stop offset="1" stop-color="#F7F7F7" stop-opacity="0" />
        </radialGradient>
        <radialGradient id="paint7_radial_1208_52085" cx="0" cy="0" r="1" gradientUnits="userSpaceOnUse" gradientTransform="translate(183.656 212.352) rotate(90.5277) scale(32.8306 79.901)">
            <stop stop-color="#E8E9F0" />
            <stop offset="1" stop-color="#F7F7F7" stop-opacity="0" />
        </radialGradient>
        <radialGradient id="paint8_radial_1208_52085" cx="0" cy="0" r="1" gradientUnits="userSpaceOnUse" gradientTransform="translate(190.718 218.745) rotate(90.5277) scale(32.8306 79.1099)">
            <stop stop-color="#E8E9F0" />
            <stop offset="1" stop-color="#F7F7F7" stop-opacity="0" />
        </radialGradient>
        <radialGradient id="paint9_radial_1208_52085" cx="0" cy="0" r="1" gradientUnits="userSpaceOnUse" gradientTransform="translate(132.948 220.586) rotate(90.5277) scale(20.173 17.4042)">
            <stop stop-color="#E8E9F0" />
            <stop offset="1" stop-color="#F7F7F7" stop-opacity="0" />
        </radialGradient>
        <radialGradient id="paint10_radial_1208_52085" cx="0" cy="0" r="1" gradientUnits="userSpaceOnUse" gradientTransform="translate(141.708 214.338) rotate(90.5277) scale(20.173 17.4042)">
            <stop stop-color="#E8E9F0" />
            <stop offset="1" stop-color="#F7F7F7" stop-opacity="0" />
        </radialGradient>
        <radialGradient id="paint11_radial_1208_52085" cx="0" cy="0" r="1" gradientUnits="userSpaceOnUse" gradientTransform="translate(154.423 208.127) rotate(90.5277) scale(20.173 17.4042)">
            <stop stop-color="#E8E9F0" />
            <stop offset="1" stop-color="#F7F7F7" stop-opacity="0" />
        </radialGradient>
        <radialGradient id="paint12_radial_1208_52085" cx="0" cy="0" r="1" gradientUnits="userSpaceOnUse" gradientTransform="translate(166.34 202.698) rotate(90.5277) scale(20.173 17.4042)">
            <stop stop-color="#E8E9F0" />
            <stop offset="1" stop-color="#F7F7F7" stop-opacity="0" />
        </radialGradient>
        <radialGradient id="paint13_radial_1208_52085" cx="0" cy="0" r="1" gradientUnits="userSpaceOnUse" gradientTransform="translate(179.824 198.868) rotate(90.5277) scale(20.173 17.4042)">
            <stop stop-color="#E8E9F0" />
            <stop offset="1" stop-color="#F7F7F7" stop-opacity="0" />
        </radialGradient>
        <radialGradient id="paint14_radial_1208_52085" cx="0" cy="0" r="1" gradientUnits="userSpaceOnUse" gradientTransform="translate(190.167 192.633) rotate(90.5277) scale(20.173 17.4042)">
            <stop stop-color="#E8E9F0" />
            <stop offset="1" stop-color="#F7F7F7" stop-opacity="0" />
        </radialGradient>
        <radialGradient id="paint15_radial_1208_52085" cx="0" cy="0" r="1" gradientUnits="userSpaceOnUse" gradientTransform="translate(202.861 188.795) rotate(90.5277) scale(20.173 17.4042)">
            <stop stop-color="#E8E9F0" />
            <stop offset="1" stop-color="#F7F7F7" stop-opacity="0" />
        </radialGradient>
        <radialGradient id="paint16_radial_1208_52085" cx="0" cy="0" r="1" gradientUnits="userSpaceOnUse" gradientTransform="translate(221.875 185.805) rotate(90.5277) scale(20.173 17.4042)">
            <stop stop-color="#E8E9F0" />
            <stop offset="1" stop-color="#F7F7F7" stop-opacity="0" />
        </radialGradient>
        <radialGradient id="paint17_radial_1208_52085" cx="0" cy="0" r="1" gradientUnits="userSpaceOnUse" gradientTransform="translate(237.777 177.248) rotate(90.5277) scale(20.173 17.4042)">
            <stop stop-color="#E8E9F0" />
            <stop offset="1" stop-color="#F7F7F7" stop-opacity="0" />
        </radialGradient>
        <linearGradient id="paint18_linear_1208_52085" x1="125.388" y1="268.069" x2="338.823" y2="134.107" gradientUnits="userSpaceOnUse">
            <stop stop-color="#C4C6D7" />
            <stop offset="0.441811" stop-color="#E8E8F1" />
            <stop offset="1" stop-color="#EBEBEB" stop-opacity="0" />
        </linearGradient>
        <linearGradient id="paint19_linear_1208_52085" x1="211.713" y1="33.8213" x2="205.831" y2="44.1918" gradientUnits="userSpaceOnUse">
            <stop stop-color="#E6ECEF" />
            <stop offset="1" stop-color="#E6ECEF" stop-opacity="0" />
            <stop offset="1" stop-color="#EAF4FA" stop-opacity="0" />
        </linearGradient>
        <linearGradient id="paint20_linear_1208_52085" x1="176.413" y1="114.502" x2="180.115" y2="135.326" gradientUnits="userSpaceOnUse">
            <stop offset="0.186067" stop-color="white" stop-opacity="0.07" />
            <stop offset="0.312763" stop-color="white" stop-opacity="0.858597" />
            <stop offset="0.603529" stop-color="white" />
            <stop offset="1" stop-color="white" stop-opacity="0" />
        </linearGradient>
        <linearGradient id="paint21_linear_1208_52085" x1="176.413" y1="114.502" x2="180.115" y2="135.326" gradientUnits="userSpaceOnUse">
            <stop offset="0.186067" stop-color="white" stop-opacity="0.07" />
            <stop offset="0.312763" stop-color="white" stop-opacity="0.858597" />
            <stop offset="0.603529" stop-color="white" />
            <stop offset="1" stop-color="white" stop-opacity="0" />
        </linearGradient>
        <linearGradient id="paint22_linear_1208_52085" x1="158.42" y1="113.253" x2="161.816" y2="85.2394" gradientUnits="userSpaceOnUse">
            <stop stop-color="#798196" stop-opacity="0.53" />
            <stop offset="1" stop-color="#798196" stop-opacity="0" />
        </linearGradient>
        <linearGradient id="paint23_linear_1208_52085" x1="18.3575" y1="0" x2="18.3575" y2="48.2182" gradientUnits="userSpaceOnUse">
            <stop stop-color="#D5D7E3" />
            <stop offset="1" stop-color="#DADBE6" />
        </linearGradient>
        <linearGradient id="paint24_linear_1208_52085" x1="-31.4299" y1="-5.38633" x2="39.5002" y2="43.8833" gradientUnits="userSpaceOnUse">
            <stop stop-color="#E6E7F0" />
            <stop offset="1" stop-color="#FAFAFF" />
        </linearGradient>
        <linearGradient id="paint25_linear_1208_52085" x1="284.645" y1="122.048" x2="278.196" y2="126.574" gradientUnits="userSpaceOnUse">
            <stop stop-color="#E8E8F1" />
            <stop offset="1" stop-color="#C4C6D7" />
        </linearGradient>
        <linearGradient id="paint26_linear_1208_52085" x1="285.601" y1="119.641" x2="279.209" y2="124.126" gradientUnits="userSpaceOnUse">
            <stop stop-color="#E8E8F1" />
            <stop offset="1" stop-color="#C4C6D7" />
        </linearGradient>
        <linearGradient id="paint27_linear_1208_52085" x1="288.175" y1="108.218" x2="278.224" y2="115.201" gradientUnits="userSpaceOnUse">
            <stop stop-color="#E8E8F1" />
            <stop offset="1" stop-color="#C4C6D7" />
        </linearGradient>
        <linearGradient id="paint28_linear_1208_52085" x1="17.0154" y1="78.4662" x2="12.9856" y2="85.9912" gradientUnits="userSpaceOnUse">
            <stop stop-color="#A3A8BD" />
            <stop offset="1" stop-color="#C4C6D7" />
        </linearGradient>
        <linearGradient id="paint29_linear_1208_52085" x1="32.6144" y1="82.3442" x2="21.2693" y2="93.0355" gradientUnits="userSpaceOnUse">
            <stop stop-color="#C4C6D7" />
            <stop offset="1" stop-color="#A3A8BD" />
        </linearGradient>
        <linearGradient id="paint30_linear_1208_52085" x1="24.9719" y1="74.4679" x2="6.35763" y2="102.161" gradientUnits="userSpaceOnUse">
            <stop stop-color="#C4C6D7" />
            <stop offset="1" stop-color="#A3A8BD" />
        </linearGradient>
        <linearGradient id="paint31_linear_1208_52085" x1="16.41" y1="80.685" x2="12.3921" y2="78.9648" gradientUnits="userSpaceOnUse">
            <stop stop-color="#C4C6D7" />
            <stop offset="1" stop-color="white" />
        </linearGradient>
        <linearGradient id="paint32_linear_1208_52085" x1="34.3765" y1="89.6594" x2="19.7844" y2="77.941" gradientUnits="userSpaceOnUse">
            <stop stop-color="#A3A8BD" />
            <stop offset="1" stop-color="white" />
        </linearGradient>
        <linearGradient id="paint33_linear_1208_52085" x1="28.191" y1="80.2891" x2="18.2172" y2="75.9771" gradientUnits="userSpaceOnUse">
            <stop stop-color="#C4C6D7" />
            <stop offset="1" stop-color="white" />
        </linearGradient>
        <linearGradient id="paint34_linear_1208_52085" x1="15.4393" y1="78.3172" x2="17.9845" y2="82.1086" gradientUnits="userSpaceOnUse">
            <stop stop-color="#A3A8BD" />
            <stop offset="1" stop-color="white" />
        </linearGradient>
        <linearGradient id="paint35_linear_1208_52085" x1="23.8243" y1="74.3472" x2="25.5161" y2="77.06" gradientUnits="userSpaceOnUse">
            <stop stop-color="#A3A8BD" />
            <stop offset="1" stop-color="white" />
        </linearGradient>
        <linearGradient id="paint36_linear_1208_52085" x1="27.7232" y1="82.798" x2="30.4601" y2="85.8644" gradientUnits="userSpaceOnUse">
            <stop stop-color="#A3A8BD" />
            <stop offset="1" stop-color="white" />
        </linearGradient>
        <linearGradient id="paint37_linear_1208_52085" x1="114" y1="108.096" x2="193.781" y2="170.829" gradientUnits="userSpaceOnUse">
            <stop stop-color="#C6C8D9" />
            <stop offset="0.940675" stop-color="#ECEEF8" />
        </linearGradient>
        <linearGradient id="paint38_linear_1208_52085" x1="257.001" y1="273.674" x2="80.0011" y2="8.67383" gradientUnits="userSpaceOnUse">
            <stop stop-color="#E6E7F0" />
            <stop offset="1" stop-color="white" />
        </linearGradient>
        <linearGradient id="paint39_linear_1208_52085" x1="78.4961" y1="287.393" x2="90.0387" y2="198.584" gradientUnits="userSpaceOnUse">
            <stop stop-color="#C4C6D7" />
            <stop offset="1" stop-color="#F7F7FD" />
        </linearGradient>
        <linearGradient id="paint40_linear_1208_52085" x1="-112.765" y1="-150.853" x2="2.78202" y2="46.8081" gradientUnits="userSpaceOnUse">
            <stop stop-color="#E8E8F1" />
            <stop offset="1" stop-color="#FCFCFF" />
        </linearGradient>
        <linearGradient id="paint41_linear_1208_52085" x1="16.9204" y1="3.47454" x2="36.34" y2="75.953" gradientUnits="userSpaceOnUse">
            <stop stop-color="#C4C6D7" />
            <stop offset="1" stop-color="#C4C6D7" stop-opacity="0" />
        </linearGradient>
    </defs>
</svg>