<svg width="273" height="133" viewBox="0 0 273 133" fill="none" xmlns="http://www.w3.org/2000/svg">
<g clip-path="url(#clip0_4936_34744)">
<rect y="0.712891" width="273" height="132" rx="8" fill="url(#paint0_linear_4936_34744)"/>
<g filter="url(#filter0_f_4936_34744)">
<path d="M91.0008 115.715C43.4163 115.629 4.84146 107.253 4.84146 97.0068C4.84146 86.7604 43.4163 78.5236 91.0008 78.6094C138.585 78.6953 177.16 87.0713 177.16 97.3177C177.16 107.564 138.585 115.801 91.0008 115.715Z" fill="url(#paint1_radial_4936_34744)" fill-opacity="0.16"/>
</g>
<g filter="url(#filter1_f_4936_34744)">
<path d="M138.922 132.792C54.1787 132.639 -14.5193 111.068 -14.5193 84.6116C-14.5193 58.1553 54.1787 36.8322 138.922 36.9851C223.665 37.138 292.363 58.709 292.363 85.1653C292.363 111.622 223.665 132.945 138.922 132.792Z" fill="url(#paint2_radial_4936_34744)" fill-opacity="0.1"/>
</g>
<g opacity="0.8">
<mask id="path-4-inside-1_4936_34744" fill="white">
<path d="M19.9492 36.0634C19.9492 32.1754 23.1011 29.0234 26.9892 29.0234H247.356C251.244 29.0234 254.396 32.1754 254.396 36.0634V62.3338C254.396 66.2218 251.244 69.3738 247.356 69.3738H26.9892C23.1011 69.3738 19.9492 66.2218 19.9492 62.3338V36.0634Z"/>
</mask>
<path d="M19.9492 36.0634C19.9492 32.1754 23.1011 29.0234 26.9892 29.0234H247.356C251.244 29.0234 254.396 32.1754 254.396 36.0634V62.3338C254.396 66.2218 251.244 69.3738 247.356 69.3738H26.9892C23.1011 69.3738 19.9492 66.2218 19.9492 62.3338V36.0634Z" fill="#1D1D21"/>
<path d="M26.9892 29.7274H247.356V28.3194H26.9892V29.7274ZM253.692 36.0634V62.3338H255.1V36.0634H253.692ZM247.356 68.6698H26.9892V70.0778H247.356V68.6698ZM20.6532 62.3338V36.0634H19.2452V62.3338H20.6532ZM26.9892 68.6698C23.4899 68.6698 20.6532 65.833 20.6532 62.3338H19.2452C19.2452 66.6106 22.7123 70.0778 26.9892 70.0778V68.6698ZM253.692 62.3338C253.692 65.833 250.856 68.6698 247.356 68.6698V70.0778C251.633 70.0778 255.1 66.6107 255.1 62.3338H253.692ZM247.356 29.7274C250.856 29.7274 253.692 32.5642 253.692 36.0634H255.1C255.1 31.7865 251.633 28.3194 247.356 28.3194V29.7274ZM26.9892 28.3194C22.7123 28.3194 19.2452 31.7865 19.2452 36.0634H20.6532C20.6532 32.5642 23.4899 29.7274 26.9892 29.7274V28.3194Z" fill="#2D2D31" mask="url(#path-4-inside-1_4936_34744)"/>
<g opacity="0.5">
<rect x="31.0352" y="38.1384" width="86" height="8" rx="4" fill="#6C6C71"/>
<rect x="31.0352" y="38.1384" width="86" height="8" rx="4" fill="url(#paint3_linear_4936_34744)"/>
</g>
</g>
<g filter="url(#filter2_f_4936_34744)">
<path d="M17.0068 79.1792C17.8306 90.6433 80.1516 97.794 75.9953 101.45C71.8391 105.105 13.3669 113.949 4.58059 105.235C-4.20574 96.5204 1.94943 52.2294 6.10571 48.5737C10.262 44.9179 8.22042 70.465 17.0068 79.1792Z" fill="url(#paint4_radial_4936_34744)" fill-opacity="0.2"/>
</g>
<mask id="path-9-inside-2_4936_34744" fill="white">
<path d="M4.83984 59.0813C4.83984 54.663 8.42157 51.0813 12.8398 51.0813H261.127C265.545 51.0813 269.127 54.663 269.127 59.0813V89.1076C269.127 93.5259 265.545 97.1076 261.127 97.1076H12.8398C8.42157 97.1076 4.83984 93.5259 4.83984 89.1076V59.0813Z"/>
</mask>
<path d="M4.83984 59.0813C4.83984 54.663 8.42157 51.0813 12.8398 51.0813H261.127C265.545 51.0813 269.127 54.663 269.127 59.0813V89.1076C269.127 93.5259 265.545 97.1076 261.127 97.1076H12.8398C8.42157 97.1076 4.83984 93.5259 4.83984 89.1076V59.0813Z" fill="#1D1D21"/>
<path d="M12.8398 51.8813H261.127V50.2813H12.8398V51.8813ZM268.327 59.0813V89.1076H269.927V59.0813H268.327ZM261.127 96.3076H12.8398V97.9076H261.127V96.3076ZM5.63984 89.1076V59.0813H4.03984V89.1076H5.63984ZM12.8398 96.3076C8.86339 96.3076 5.63984 93.0841 5.63984 89.1076H4.03984C4.03984 93.9677 7.97974 97.9076 12.8398 97.9076V96.3076ZM268.327 89.1076C268.327 93.0841 265.104 96.3076 261.127 96.3076V97.9076C265.987 97.9076 269.927 93.9677 269.927 89.1076H268.327ZM261.127 51.8813C265.104 51.8813 268.327 55.1048 268.327 59.0813H269.927C269.927 54.2212 265.987 50.2813 261.127 50.2813V51.8813ZM12.8398 50.2813C7.97974 50.2813 4.03984 54.2212 4.03984 59.0813H5.63984C5.63984 55.1048 8.86339 51.8813 12.8398 51.8813V50.2813Z" fill="#2D2D31" mask="url(#path-9-inside-2_4936_34744)"/>
<path d="M12.8398 51.8813H261.127V50.2813H12.8398V51.8813ZM268.327 59.0813V89.1076H269.927V59.0813H268.327ZM261.127 96.3076H12.8398V97.9076H261.127V96.3076ZM5.63984 89.1076V59.0813H4.03984V89.1076H5.63984ZM12.8398 96.3076C8.86339 96.3076 5.63984 93.0841 5.63984 89.1076H4.03984C4.03984 93.9677 7.97974 97.9076 12.8398 97.9076V96.3076ZM268.327 89.1076C268.327 93.0841 265.104 96.3076 261.127 96.3076V97.9076C265.987 97.9076 269.927 93.9677 269.927 89.1076H268.327ZM261.127 51.8813C265.104 51.8813 268.327 55.1048 268.327 59.0813H269.927C269.927 54.2212 265.987 50.2813 261.127 50.2813V51.8813ZM12.8398 50.2813C7.97974 50.2813 4.03984 54.2212 4.03984 59.0813H5.63984C5.63984 55.1048 8.86339 51.8813 12.8398 51.8813V50.2813Z" fill="url(#paint5_linear_4936_34744)" fill-opacity="0.4" mask="url(#path-9-inside-2_4936_34744)"/>
<path d="M19.9273 70.0076L17.6682 61.8621H18.9608L20.5477 68.1701H20.6233L22.2739 61.8621H23.5545L25.2051 68.174H25.2807L26.8636 61.8621H28.1602L25.8972 70.0076H24.6602L22.946 63.9064H22.8824L21.1682 70.0076H19.9273ZM31.1664 70.1309C30.5645 70.1309 30.0461 70.0023 29.6112 69.7451C29.1791 69.4852 28.845 69.1206 28.609 68.6513C28.3756 68.1793 28.259 67.6265 28.259 66.9928C28.259 66.367 28.3756 65.8155 28.609 65.3382C28.845 64.861 29.1737 64.4884 29.5953 64.2206C30.0196 63.9528 30.5154 63.8189 31.0828 63.8189C31.4275 63.8189 31.7616 63.8759 32.0851 63.99C32.4086 64.104 32.6989 64.2829 32.9561 64.5269C33.2133 64.7708 33.4162 65.0877 33.5647 65.4775C33.7131 65.8646 33.7874 66.3352 33.7874 66.8894V67.311H28.9311V66.4201H32.622C32.622 66.1072 32.5584 65.8301 32.4311 65.5888C32.3039 65.3449 32.1249 65.1526 31.8942 65.0121C31.6662 64.8716 31.3984 64.8013 31.0908 64.8013C30.7567 64.8013 30.465 64.8835 30.2158 65.0479C29.9692 65.2097 29.7783 65.4218 29.6431 65.6843C29.5105 65.9441 29.4442 66.2265 29.4442 66.5314V67.2275C29.4442 67.6358 29.5158 67.9831 29.659 68.2695C29.8048 68.5559 30.0076 68.7746 30.2675 68.9258C30.5273 69.0742 30.8309 69.1485 31.1783 69.1485C31.4037 69.1485 31.6092 69.1167 31.7948 69.053C31.9804 68.9867 32.1408 68.8886 32.276 68.7587C32.4112 68.6288 32.5147 68.4684 32.5862 68.2775L33.7118 68.4803C33.6217 68.8117 33.4599 69.1021 33.2266 69.3513C32.9959 69.5979 32.7056 69.7901 32.3556 69.928C32.0082 70.0633 31.6118 70.1309 31.1664 70.1309ZM37.6894 70.1309C37.0875 70.1309 36.5691 70.0023 36.1343 69.7451C35.7021 69.4852 35.368 69.1206 35.132 68.6513C34.8987 68.1793 34.782 67.6265 34.782 66.9928C34.782 66.367 34.8987 65.8155 35.132 65.3382C35.368 64.861 35.6968 64.4884 36.1184 64.2206C36.5426 63.9528 37.0385 63.8189 37.6059 63.8189C37.9506 63.8189 38.2847 63.8759 38.6081 63.99C38.9316 64.104 39.222 64.2829 39.4792 64.5269C39.7364 64.7708 39.9392 65.0877 40.0877 65.4775C40.2362 65.8646 40.3104 66.3352 40.3104 66.8894V67.311H35.4542V66.4201H39.1451C39.1451 66.1072 39.0814 65.8301 38.9542 65.5888C38.8269 65.3449 38.6479 65.1526 38.4172 65.0121C38.1892 64.8716 37.9214 64.8013 37.6138 64.8013C37.2797 64.8013 36.9881 64.8835 36.7388 65.0479C36.4922 65.2097 36.3013 65.4218 36.1661 65.6843C36.0335 65.9441 35.9672 66.2265 35.9672 66.5314V67.2275C35.9672 67.6358 36.0388 67.9831 36.182 68.2695C36.3278 68.5559 36.5307 68.7746 36.7905 68.9258C37.0504 69.0742 37.354 69.1485 37.7013 69.1485C37.9267 69.1485 38.1322 69.1167 38.3178 69.053C38.5034 68.9867 38.6638 68.8886 38.7991 68.7587C38.9343 68.6288 39.0377 68.4684 39.1093 68.2775L40.2349 68.4803C40.1447 68.8117 39.983 69.1021 39.7496 69.3513C39.5189 69.5979 39.2286 69.7901 38.8786 69.928C38.5313 70.0633 38.1349 70.1309 37.6894 70.1309ZM42.6732 67.9354L42.6653 66.4837H42.8721L45.3062 63.8985H46.7301L43.9539 66.8417H43.767L42.6732 67.9354ZM41.5795 70.0076V61.8621H42.7687V70.0076H41.5795ZM45.4374 70.0076L43.2499 67.1042L44.0693 66.2729L46.8971 70.0076H45.4374ZM48.9527 61.8621V70.0076H47.7635V61.8621H48.9527ZM51.2538 72.2985C51.0762 72.2985 50.9144 72.2839 50.7686 72.2547C50.6228 72.2282 50.514 72.199 50.4425 72.1672L50.7288 71.1928C50.9462 71.2511 51.1398 71.2763 51.3095 71.2684C51.4792 71.2604 51.629 71.1968 51.7589 71.0775C51.8915 70.9581 52.0082 70.7633 52.1089 70.4928L52.2561 70.0871L50.0209 63.8985H51.2936L52.8408 68.6394H52.9044L54.4515 63.8985H55.7283L53.2106 70.8229C53.094 71.1411 52.9455 71.4102 52.7652 71.6303C52.5849 71.853 52.3701 72.0201 52.1209 72.1314C51.8716 72.2428 51.5826 72.2985 51.2538 72.2985ZM59.8046 70.0076V61.8621H60.9938V64.8888H61.0654C61.1343 64.7615 61.2338 64.6144 61.3637 64.4473C61.4936 64.2803 61.6739 64.1345 61.9046 64.0098C62.1353 63.8826 62.4402 63.8189 62.8194 63.8189C63.3125 63.8189 63.7527 63.9436 64.1398 64.1928C64.5269 64.442 64.8305 64.8013 65.0506 65.2706C65.2733 65.74 65.3847 66.3047 65.3847 66.965C65.3847 67.6252 65.2747 68.1913 65.0546 68.6633C64.8345 69.1326 64.5322 69.4945 64.1478 69.749C63.7633 70.0009 63.3245 70.1269 62.8313 70.1269C62.4601 70.1269 62.1565 70.0646 61.9205 69.94C61.6872 69.8153 61.5042 69.6695 61.3716 69.5025C61.2391 69.3354 61.137 69.1869 61.0654 69.057H60.9659V70.0076H59.8046ZM60.9699 66.953C60.9699 67.3826 61.0322 67.7591 61.1569 68.0826C61.2815 68.4061 61.4618 68.6593 61.6978 68.8422C61.9338 69.0225 62.2228 69.1127 62.5648 69.1127C62.9201 69.1127 63.2171 69.0186 63.4557 68.8303C63.6944 68.6394 63.8747 68.3809 63.9966 68.0547C64.1213 67.7286 64.1836 67.3614 64.1836 66.953C64.1836 66.55 64.1226 66.1881 64.0006 65.8672C63.8813 65.5464 63.701 65.2932 63.4597 65.1076C63.2211 64.922 62.9228 64.8292 62.5648 64.8292C62.2201 64.8292 61.9284 64.918 61.6898 65.0956C61.4538 65.2733 61.2749 65.5212 61.1529 65.8394C61.0309 66.1576 60.9699 66.5288 60.9699 66.953ZM68.4475 70.1428C68.0604 70.1428 67.7104 70.0712 67.3975 69.928C67.0846 69.7822 66.8367 69.5714 66.6538 69.2956C66.4735 69.0199 66.3833 68.6818 66.3833 68.2814C66.3833 67.9367 66.4496 67.653 66.5822 67.4303C66.7147 67.2076 66.8937 67.0312 67.1191 66.9013C67.3445 66.7714 67.5964 66.6733 67.8748 66.607C68.1532 66.5407 68.4369 66.4903 68.7259 66.4559C69.0918 66.4134 69.3888 66.379 69.6168 66.3525C69.8449 66.3233 70.0106 66.2769 70.114 66.2133C70.2174 66.1496 70.2691 66.0462 70.2691 65.903V65.8752C70.2691 65.5278 70.171 65.2587 69.9748 65.0678C69.7812 64.8769 69.4922 64.7814 69.1077 64.7814C68.7074 64.7814 68.3918 64.8703 68.1611 65.0479C67.9331 65.2229 67.7753 65.4178 67.6878 65.6326L66.5702 65.378C66.7028 65.0068 66.8964 64.7072 67.1509 64.4792C67.4081 64.2485 67.7038 64.0814 68.0378 63.978C68.3719 63.872 68.7233 63.8189 69.0918 63.8189C69.3358 63.8189 69.5943 63.8481 69.8674 63.9064C70.1432 63.9621 70.4003 64.0655 70.639 64.2167C70.8803 64.3678 71.0778 64.5839 71.2316 64.865C71.3854 65.1434 71.4623 65.5053 71.4623 65.9508V70.0076H70.3009V69.1723H70.2532C70.1763 69.3261 70.061 69.4773 69.9072 69.6258C69.7534 69.7742 69.5558 69.8975 69.3146 69.9956C69.0733 70.0937 68.7843 70.1428 68.4475 70.1428ZM68.706 69.1883C69.0348 69.1883 69.3159 69.1233 69.5492 68.9934C69.7852 68.8634 69.9642 68.6937 70.0861 68.4843C70.2108 68.2722 70.2731 68.0454 70.2731 67.8042V67.0167C70.2307 67.0591 70.1485 67.0989 70.0265 67.136C69.9072 67.1704 69.7706 67.2009 69.6168 67.2275C69.463 67.2513 69.3132 67.2739 69.1674 67.2951C69.0216 67.3136 68.8996 67.3295 68.8015 67.3428C68.5708 67.372 68.36 67.421 68.1691 67.49C67.9808 67.5589 67.8297 67.6583 67.7157 67.7883C67.6043 67.9155 67.5486 68.0852 67.5486 68.2973C67.5486 68.5917 67.6574 68.8144 67.8748 68.9655C68.0922 69.114 68.3693 69.1883 68.706 69.1883ZM75.5691 70.1309C74.9778 70.1309 74.4687 69.997 74.0419 69.7292C73.6176 69.4587 73.2915 69.0862 73.0634 68.6115C72.8354 68.1369 72.7214 67.5934 72.7214 66.9809C72.7214 66.3604 72.8381 65.8129 73.0714 65.3382C73.3047 64.861 73.6335 64.4884 74.0578 64.2206C74.482 63.9528 74.9818 63.8189 75.5572 63.8189C76.0212 63.8189 76.4348 63.9051 76.7981 64.0775C77.1614 64.2472 77.4544 64.4858 77.6771 64.7934C77.9025 65.1009 78.0364 65.4602 78.0788 65.8712H76.9214C76.8578 65.5848 76.7119 65.3383 76.4839 65.1314C76.2585 64.9246 75.9562 64.8212 75.5771 64.8212C75.2456 64.8212 74.9553 64.9087 74.7061 65.0837C74.4595 65.2561 74.2672 65.5026 74.1294 65.8235C73.9915 66.1417 73.9225 66.5182 73.9225 66.953C73.9225 67.3985 73.9901 67.7829 74.1254 68.1064C74.2606 68.4299 74.4515 68.6805 74.6981 68.8581C74.9473 69.0358 75.2403 69.1246 75.5771 69.1246C75.8025 69.1246 76.0066 69.0835 76.1896 69.0013C76.3752 68.9165 76.5303 68.7958 76.6549 68.6394C76.7822 68.4829 76.871 68.2947 76.9214 68.0746H78.0788C78.0364 68.4697 77.9078 68.8223 77.693 69.1326C77.4782 69.4428 77.1905 69.6867 76.8299 69.8644C76.472 70.042 76.0517 70.1309 75.5691 70.1309ZM80.3939 67.9354L80.3859 66.4837H80.5927L83.0268 63.8985H84.4507L81.6746 66.8417H81.4876L80.3939 67.9354ZM79.3001 70.0076V61.8621H80.4893V70.0076H79.3001ZM83.1581 70.0076L80.9706 67.1042L81.7899 66.2729L84.6177 70.0076H83.1581ZM89.354 67.474V63.8985H90.5472V70.0076H89.3778V68.9496H89.3142C89.1737 69.2758 88.9483 69.5475 88.6381 69.765C88.3305 69.9797 87.9474 70.0871 87.4886 70.0871C87.0962 70.0871 86.7489 70.0009 86.4466 69.8286C86.147 69.6536 85.911 69.3951 85.7386 69.053C85.5689 68.711 85.4841 68.2881 85.4841 67.7843V63.8985H86.6733V67.6411C86.6733 68.0574 86.7886 68.3888 87.0193 68.6354C87.25 68.882 87.5496 69.0053 87.9182 69.0053C88.1409 69.0053 88.3623 68.9496 88.5824 68.8383C88.8051 68.7269 88.9894 68.5585 89.1352 68.3331C89.2837 68.1078 89.3566 67.8214 89.354 67.474ZM92.0946 72.2985V63.8985H93.256V64.8888H93.3554C93.4244 64.7615 93.5238 64.6144 93.6537 64.4473C93.7836 64.2803 93.9639 64.1345 94.1946 64.0098C94.4253 63.8826 94.7302 63.8189 95.1094 63.8189C95.6026 63.8189 96.0427 63.9436 96.4299 64.1928C96.817 64.442 97.1206 64.8013 97.3407 65.2706C97.5634 65.74 97.6747 66.3047 97.6747 66.965C97.6747 67.6252 97.5647 68.1913 97.3446 68.6633C97.1246 69.1326 96.8223 69.4945 96.4378 69.749C96.0533 70.0009 95.6145 70.1269 95.1213 70.1269C94.7501 70.1269 94.4465 70.0646 94.2105 69.94C93.9772 69.8153 93.7942 69.6695 93.6617 69.5025C93.5291 69.3354 93.427 69.1869 93.3554 69.057H93.2838V72.2985H92.0946ZM93.26 66.953C93.26 67.3826 93.3223 67.7591 93.4469 68.0826C93.5715 68.4061 93.7518 68.6593 93.9878 68.8422C94.2238 69.0225 94.5128 69.1127 94.8549 69.1127C95.2102 69.1127 95.5071 69.0186 95.7458 68.8303C95.9844 68.6394 96.1647 68.3809 96.2867 68.0547C96.4113 67.7286 96.4736 67.3614 96.4736 66.953C96.4736 66.55 96.4126 66.1881 96.2907 65.8672C96.1713 65.5464 95.991 65.2932 95.7497 65.1076C95.5111 64.922 95.2128 64.8292 94.8549 64.8292C94.5102 64.8292 94.2185 64.918 93.9799 65.0956C93.7439 65.2733 93.5649 65.5212 93.4429 65.8394C93.321 66.1576 93.26 66.5288 93.26 66.953Z" fill="#C3C3C6"/>
<g opacity="0.8">
<path d="M18.283 87.0076V80.0257H20.642C21.1875 80.0257 21.6352 80.1189 21.9852 80.3053C22.3352 80.4894 22.5943 80.7428 22.7625 81.0655C22.9307 81.3882 23.0148 81.7553 23.0148 82.1667C23.0148 82.578 22.9307 82.9428 22.7625 83.261C22.5943 83.5792 22.3364 83.8292 21.9886 84.011C21.6409 84.1905 21.1966 84.2803 20.6557 84.2803H18.7466V83.5167H20.6284C21.0011 83.5167 21.3011 83.4621 21.5284 83.353C21.758 83.2439 21.9239 83.0894 22.0261 82.8894C22.1307 82.6871 22.183 82.4462 22.183 82.1667C22.183 81.8871 22.1307 81.6428 22.0261 81.4337C21.9216 81.2246 21.7545 81.0632 21.525 80.9496C21.2955 80.8337 20.992 80.7757 20.6148 80.7757H19.1284V87.0076H18.283ZM21.5693 83.8712L23.2875 87.0076H22.3057L20.6148 83.8712H21.5693ZM27.5185 84.8667V81.7712H28.323V87.0076H27.5185V86.1212H27.4639C27.3412 86.3871 27.1503 86.6133 26.8912 86.7996C26.6321 86.9837 26.3049 87.0758 25.9094 87.0758C25.5821 87.0758 25.2912 87.0042 25.0367 86.861C24.7821 86.7155 24.5821 86.4973 24.4367 86.2064C24.2912 85.9133 24.2185 85.5439 24.2185 85.0985V81.7712H25.023V85.0439C25.023 85.4258 25.1299 85.7303 25.3435 85.9576C25.5594 86.1848 25.8344 86.2985 26.1685 86.2985C26.3685 86.2985 26.5719 86.2473 26.7787 86.1451C26.9878 86.0428 27.1628 85.886 27.3037 85.6746C27.4469 85.4633 27.5185 85.1939 27.5185 84.8667ZM30.5052 83.8576V87.0076H29.7006V81.7712H30.4779V82.5894H30.5461C30.6688 82.3235 30.8552 82.1098 31.1052 81.9485C31.3552 81.7848 31.6779 81.703 32.0733 81.703C32.4279 81.703 32.7381 81.7757 33.004 81.9212C33.2699 82.0644 33.4768 82.2826 33.6245 82.5757C33.7722 82.8667 33.8461 83.2348 33.8461 83.6803V87.0076H33.0415V83.7348C33.0415 83.3235 32.9347 83.003 32.7211 82.7735C32.5074 82.5417 32.2143 82.4257 31.8415 82.4257C31.5847 82.4257 31.3552 82.4814 31.1529 82.5928C30.9529 82.7042 30.7949 82.8667 30.679 83.0803C30.5631 83.2939 30.5052 83.553 30.5052 83.8576ZM38.9293 82.9439L38.2066 83.1485C38.1611 83.028 38.0941 82.911 38.0055 82.7973C37.9191 82.6814 37.8009 82.586 37.6509 82.511C37.5009 82.436 37.3089 82.3985 37.0748 82.3985C36.7543 82.3985 36.4873 82.4723 36.2736 82.6201C36.0623 82.7655 35.9566 82.9507 35.9566 83.1757C35.9566 83.3757 36.0293 83.5337 36.1748 83.6496C36.3202 83.7655 36.5475 83.8621 36.8566 83.9394L37.6339 84.1303C38.1021 84.2439 38.4509 84.4178 38.6805 84.6519C38.91 84.8837 39.0248 85.1826 39.0248 85.5485C39.0248 85.8485 38.9384 86.1167 38.7657 86.353C38.5952 86.5894 38.3566 86.7758 38.0498 86.9121C37.743 87.0485 37.3861 87.1167 36.9793 87.1167C36.4452 87.1167 36.0032 87.0008 35.6532 86.7689C35.3032 86.5371 35.0816 86.1985 34.9884 85.753L35.7521 85.5621C35.8248 85.8439 35.9623 86.0553 36.1646 86.1962C36.3691 86.3371 36.6361 86.4076 36.9657 86.4076C37.3407 86.4076 37.6384 86.328 37.8589 86.1689C38.0816 86.0076 38.193 85.8144 38.193 85.5894C38.193 85.4076 38.1293 85.2553 38.0021 85.1326C37.8748 85.0076 37.6793 84.9144 37.4157 84.853L36.543 84.6485C36.0634 84.5348 35.7111 84.3587 35.4861 84.1201C35.2634 83.8792 35.1521 83.578 35.1521 83.2167C35.1521 82.9212 35.235 82.6598 35.4009 82.4326C35.5691 82.2053 35.7975 82.0269 36.0861 81.8973C36.3771 81.7678 36.7066 81.703 37.0748 81.703C37.593 81.703 37.9998 81.8167 38.2952 82.0439C38.593 82.2712 38.8043 82.5712 38.9293 82.9439ZM43.9302 87.0076L42.3348 81.7712H43.1802L44.312 85.7803H44.3666L45.4848 81.7712H46.3439L47.4484 85.7667H47.503L48.6348 81.7712H49.4802L47.8848 87.0076H47.0939L45.9484 82.9848H45.8666L44.7211 87.0076H43.9302ZM52.4652 87.1167C51.9606 87.1167 51.5254 87.0053 51.1595 86.7826C50.7959 86.5576 50.5152 86.2439 50.3175 85.8417C50.122 85.4371 50.0243 84.9667 50.0243 84.4303C50.0243 83.8939 50.122 83.4212 50.3175 83.0121C50.5152 82.6007 50.7902 82.2803 51.1425 82.0507C51.497 81.8189 51.9106 81.703 52.3834 81.703C52.6561 81.703 52.9254 81.7485 53.1913 81.8394C53.4572 81.9303 53.6993 82.078 53.9175 82.2826C54.1356 82.4848 54.3095 82.753 54.4391 83.0871C54.5686 83.4212 54.6334 83.8326 54.6334 84.3212V84.6621H50.597V83.9667H53.8152C53.8152 83.6712 53.7561 83.4076 53.6379 83.1757C53.522 82.9439 53.3561 82.761 53.1402 82.6269C52.9266 82.4928 52.6743 82.4257 52.3834 82.4257C52.0629 82.4257 51.7856 82.5053 51.5516 82.6644C51.3197 82.8212 51.1413 83.0257 51.0163 83.278C50.8913 83.5303 50.8288 83.8007 50.8288 84.0894V84.553C50.8288 84.9485 50.897 85.2837 51.0334 85.5587C51.172 85.8314 51.3641 86.0394 51.6095 86.1826C51.855 86.3235 52.1402 86.3939 52.4652 86.3939C52.6766 86.3939 52.8675 86.3644 53.0379 86.3053C53.2106 86.2439 53.3595 86.153 53.4845 86.0326C53.6095 85.9098 53.7061 85.7576 53.7743 85.5758L54.5516 85.7939C54.4697 86.0576 54.3322 86.2894 54.1391 86.4894C53.9459 86.6871 53.7072 86.8417 53.4231 86.953C53.1391 87.0621 52.8197 87.1167 52.4652 87.1167ZM57.9567 87.1167C57.4521 87.1167 57.0169 87.0053 56.651 86.7826C56.2874 86.5576 56.0067 86.2439 55.809 85.8417C55.6135 85.4371 55.5158 84.9667 55.5158 84.4303C55.5158 83.8939 55.6135 83.4212 55.809 83.0121C56.0067 82.6007 56.2817 82.2803 56.634 82.0507C56.9885 81.8189 57.4021 81.703 57.8749 81.703C58.1476 81.703 58.4169 81.7485 58.6828 81.8394C58.9487 81.9303 59.1908 82.078 59.409 82.2826C59.6271 82.4848 59.801 82.753 59.9306 83.0871C60.0601 83.4212 60.1249 83.8326 60.1249 84.3212V84.6621H56.0885V83.9667H59.3067C59.3067 83.6712 59.2476 83.4076 59.1294 83.1757C59.0135 82.9439 58.8476 82.761 58.6317 82.6269C58.4181 82.4928 58.1658 82.4257 57.8749 82.4257C57.5544 82.4257 57.2771 82.5053 57.0431 82.6644C56.8112 82.8212 56.6328 83.0257 56.5078 83.278C56.3828 83.5303 56.3203 83.8007 56.3203 84.0894V84.553C56.3203 84.9485 56.3885 85.2837 56.5249 85.5587C56.6635 85.8314 56.8556 86.0394 57.101 86.1826C57.3465 86.3235 57.6317 86.3939 57.9567 86.3939C58.1681 86.3939 58.359 86.3644 58.5294 86.3053C58.7021 86.2439 58.851 86.153 58.976 86.0326C59.101 85.9098 59.1976 85.7576 59.2658 85.5758L60.0431 85.7939C59.9612 86.0576 59.8237 86.2894 59.6306 86.4894C59.4374 86.6871 59.1987 86.8417 58.9146 86.953C58.6306 87.0621 58.3112 87.1167 57.9567 87.1167ZM62.0027 85.0985L61.9891 84.103H62.1527L64.4436 81.7712H65.4391L62.9982 84.2394H62.93L62.0027 85.0985ZM61.2527 87.0076V80.0257H62.0573V87.0076H61.2527ZM64.58 87.0076L62.5346 84.4167L63.1073 83.8576L65.6027 87.0076H64.58ZM67.1832 80.0257V87.0076H66.3786V80.0257H67.1832ZM69.0789 88.9712C68.9426 88.9712 68.821 88.9598 68.7141 88.9371C68.6073 88.9167 68.5335 88.8962 68.4926 88.8758L68.6971 88.1667C68.8926 88.2167 69.0653 88.2348 69.2153 88.2212C69.3653 88.2076 69.4982 88.1405 69.6141 88.0201C69.7323 87.9019 69.8403 87.7098 69.938 87.4439L70.088 87.0348L68.1516 81.7712H69.0244L70.4698 85.9439H70.5244L71.9698 81.7712H72.8426L70.6198 87.7712C70.5198 88.0417 70.396 88.2655 70.2482 88.4428C70.1005 88.6223 69.9289 88.7553 69.7335 88.8417C69.5403 88.928 69.3221 88.9712 69.0789 88.9712ZM78.5398 87.1167C78.067 87.1167 77.6523 87.0042 77.2954 86.7792C76.9409 86.5542 76.6636 86.2394 76.4636 85.8348C76.2659 85.4303 76.167 84.9576 76.167 84.4167C76.167 83.8712 76.2659 83.3951 76.4636 82.9882C76.6636 82.5814 76.9409 82.2655 77.2954 82.0405C77.6523 81.8155 78.067 81.703 78.5398 81.703C79.0125 81.703 79.4261 81.8155 79.7807 82.0405C80.1375 82.2655 80.4148 82.5814 80.6125 82.9882C80.8125 83.3951 80.9125 83.8712 80.9125 84.4167C80.9125 84.9576 80.8125 85.4303 80.6125 85.8348C80.4148 86.2394 80.1375 86.5542 79.7807 86.7792C79.4261 87.0042 79.0125 87.1167 78.5398 87.1167ZM78.5398 86.3939C78.8989 86.3939 79.1943 86.3019 79.4261 86.1178C79.6579 85.9337 79.8295 85.6917 79.9409 85.3917C80.0523 85.0917 80.1079 84.7667 80.1079 84.4167C80.1079 84.0667 80.0523 83.7405 79.9409 83.4382C79.8295 83.136 79.6579 82.8917 79.4261 82.7053C79.1943 82.5189 78.8989 82.4257 78.5398 82.4257C78.1807 82.4257 77.8852 82.5189 77.6534 82.7053C77.4216 82.8917 77.25 83.136 77.1386 83.4382C77.0273 83.7405 76.9716 84.0667 76.9716 84.4167C76.9716 84.7667 77.0273 85.0917 77.1386 85.3917C77.25 85.6917 77.4216 85.9337 77.6534 86.1178C77.8852 86.3019 78.1807 86.3939 78.5398 86.3939ZM82.8492 83.8576V87.0076H82.0446V81.7712H82.8219V82.5894H82.8901C83.0128 82.3235 83.1992 82.1098 83.4492 81.9485C83.6992 81.7848 84.0219 81.703 84.4173 81.703C84.7719 81.703 85.0821 81.7757 85.348 81.9212C85.6139 82.0644 85.8208 82.2826 85.9685 82.5757C86.1162 82.8667 86.1901 83.2348 86.1901 83.6803V87.0076H85.3855V83.7348C85.3855 83.3235 85.2787 83.003 85.0651 82.7735C84.8514 82.5417 84.5583 82.4257 84.1855 82.4257C83.9287 82.4257 83.6992 82.4814 83.4969 82.5928C83.2969 82.7042 83.1389 82.8667 83.023 83.0803C82.9071 83.2939 82.8492 83.553 82.8492 83.8576ZM90.2773 80.0257H91.2864L93.6592 85.8212H93.741L96.1137 80.0257H97.1228V87.0076H96.3319V81.703H96.2637L94.0819 87.0076H93.3182L91.1364 81.703H91.0682V87.0076H90.2773V80.0257ZM100.74 87.1167C100.267 87.1167 99.8526 87.0042 99.4958 86.7792C99.1413 86.5542 98.864 86.2394 98.664 85.8348C98.4663 85.4303 98.3674 84.9576 98.3674 84.4167C98.3674 83.8712 98.4663 83.3951 98.664 82.9882C98.864 82.5814 99.1413 82.2655 99.4958 82.0405C99.8526 81.8155 100.267 81.703 100.74 81.703C101.213 81.703 101.627 81.8155 101.981 82.0405C102.338 82.2655 102.615 82.5814 102.813 82.9882C103.013 83.3951 103.113 83.8712 103.113 84.4167C103.113 84.9576 103.013 85.4303 102.813 85.8348C102.615 86.2394 102.338 86.5542 101.981 86.7792C101.627 87.0042 101.213 87.1167 100.74 87.1167ZM100.74 86.3939C101.099 86.3939 101.395 86.3019 101.627 86.1178C101.858 85.9337 102.03 85.6917 102.141 85.3917C102.253 85.0917 102.308 84.7667 102.308 84.4167C102.308 84.0667 102.253 83.7405 102.141 83.4382C102.03 83.136 101.858 82.8917 101.627 82.7053C101.395 82.5189 101.099 82.4257 100.74 82.4257C100.381 82.4257 100.086 82.5189 99.8538 82.7053C99.622 82.8917 99.4504 83.136 99.339 83.4382C99.2276 83.7405 99.172 84.0667 99.172 84.4167C99.172 84.7667 99.2276 85.0917 99.339 85.3917C99.4504 85.6917 99.622 85.9337 99.8538 86.1178C100.086 86.3019 100.381 86.3939 100.74 86.3939ZM105.05 83.8576V87.0076H104.245V81.7712H105.022V82.5894H105.09C105.213 82.3235 105.4 82.1098 105.65 81.9485C105.9 81.7848 106.222 81.703 106.618 81.703C106.972 81.703 107.282 81.7757 107.548 81.9212C107.814 82.0644 108.021 82.2826 108.169 82.5757C108.317 82.8667 108.39 83.2348 108.39 83.6803V87.0076H107.586V83.7348C107.586 83.3235 107.479 83.003 107.265 82.7735C107.052 82.5417 106.759 82.4257 106.386 82.4257C106.129 82.4257 105.9 82.4814 105.697 82.5928C105.497 82.7042 105.339 82.8667 105.223 83.0803C105.107 83.2939 105.05 83.553 105.05 83.8576ZM111.742 87.1167C111.306 87.1167 110.92 87.0064 110.586 86.786C110.252 86.5633 109.991 86.2496 109.802 85.8451C109.613 85.4383 109.519 84.9576 109.519 84.403C109.519 83.853 109.613 83.3757 109.802 82.9712C109.991 82.5667 110.253 82.2542 110.59 82.0337C110.926 81.8132 111.315 81.703 111.756 81.703C112.096 81.703 112.366 81.7598 112.563 81.8735C112.763 81.9848 112.916 82.1121 113.02 82.2553C113.127 82.3962 113.21 82.5121 113.269 82.603H113.337V80.0257H114.142V87.0076H113.365V86.203H113.269C113.21 86.2985 113.126 86.4189 113.017 86.5644C112.908 86.7076 112.752 86.836 112.55 86.9496C112.348 87.061 112.078 87.1167 111.742 87.1167ZM111.851 86.3939C112.174 86.3939 112.446 86.3098 112.669 86.1417C112.892 85.9712 113.061 85.736 113.177 85.436C113.293 85.1337 113.351 84.7848 113.351 84.3894C113.351 83.9985 113.294 83.6564 113.181 83.3632C113.067 83.0678 112.899 82.8382 112.676 82.6746C112.453 82.5087 112.178 82.4257 111.851 82.4257C111.51 82.4257 111.226 82.5132 110.999 82.6882C110.774 82.861 110.604 83.0962 110.491 83.3939C110.379 83.6894 110.324 84.0212 110.324 84.3894C110.324 84.7621 110.381 85.1008 110.494 85.4053C110.61 85.7076 110.781 85.9485 111.006 86.128C111.233 86.3053 111.515 86.3939 111.851 86.3939ZM117.172 87.1303C116.84 87.1303 116.539 87.0678 116.269 86.9428C115.998 86.8155 115.783 86.6326 115.624 86.3939C115.465 86.153 115.386 85.8621 115.386 85.5212C115.386 85.2212 115.445 84.978 115.563 84.7917C115.681 84.603 115.839 84.4553 116.037 84.3485C116.235 84.2417 116.453 84.1621 116.691 84.1098C116.932 84.0553 117.174 84.0121 117.417 83.9803C117.736 83.9394 117.994 83.9087 118.191 83.8882C118.391 83.8655 118.537 83.828 118.628 83.7757C118.721 83.7235 118.767 83.6326 118.767 83.503V83.4757C118.767 83.1394 118.675 82.878 118.491 82.6917C118.31 82.5053 118.033 82.4121 117.663 82.4121C117.279 82.4121 116.978 82.4962 116.76 82.6644C116.541 82.8326 116.388 83.0121 116.299 83.203L115.536 82.9303C115.672 82.6121 115.854 82.3644 116.081 82.1871C116.311 82.0076 116.561 81.8826 116.831 81.8121C117.104 81.7394 117.372 81.703 117.636 81.703C117.804 81.703 117.997 81.7235 118.215 81.7644C118.436 81.803 118.648 81.8837 118.853 82.0064C119.06 82.1292 119.231 82.3144 119.367 82.5621C119.504 82.8098 119.572 83.1417 119.572 83.5576V87.0076H118.767V86.2985H118.727C118.672 86.4121 118.581 86.5337 118.454 86.6633C118.327 86.7928 118.157 86.903 117.946 86.9939C117.735 87.0848 117.477 87.1303 117.172 87.1303ZM117.295 86.4076C117.613 86.4076 117.881 86.3451 118.099 86.2201C118.32 86.0951 118.486 85.9337 118.597 85.736C118.711 85.5383 118.767 85.3303 118.767 85.1121V84.3757C118.733 84.4167 118.658 84.4542 118.542 84.4882C118.429 84.5201 118.297 84.5485 118.147 84.5735C117.999 84.5962 117.855 84.6167 117.714 84.6348C117.575 84.6508 117.463 84.6644 117.377 84.6758C117.167 84.703 116.972 84.7473 116.79 84.8087C116.611 84.8678 116.465 84.9576 116.354 85.078C116.245 85.1962 116.19 85.3576 116.19 85.5621C116.19 85.8417 116.294 86.053 116.5 86.1962C116.71 86.3371 116.974 86.4076 117.295 86.4076ZM121.275 88.9712C121.139 88.9712 121.017 88.9598 120.91 88.9371C120.804 88.9167 120.73 88.8962 120.689 88.8758L120.893 88.1667C121.089 88.2167 121.262 88.2348 121.412 88.2212C121.562 88.2076 121.694 88.1405 121.81 88.0201C121.929 87.9019 122.037 87.7098 122.134 87.4439L122.284 87.0348L120.348 81.7712H121.221L122.666 85.9439H122.721L124.166 81.7712H125.039L122.816 87.7712C122.716 88.0417 122.592 88.2655 122.444 88.4428C122.297 88.6223 122.125 88.7553 121.93 88.8417C121.737 88.928 121.518 88.9712 121.275 88.9712ZM129.714 82.9439L128.991 83.1485C128.946 83.028 128.879 82.911 128.79 82.7973C128.704 82.6814 128.585 82.586 128.435 82.511C128.285 82.436 128.093 82.3985 127.859 82.3985C127.539 82.3985 127.272 82.4723 127.058 82.6201C126.847 82.7655 126.741 82.9507 126.741 83.1757C126.741 83.3757 126.814 83.5337 126.959 83.6496C127.105 83.7655 127.332 83.8621 127.641 83.9394L128.418 84.1303C128.887 84.2439 129.235 84.4178 129.465 84.6519C129.695 84.8837 129.809 85.1826 129.809 85.5485C129.809 85.8485 129.723 86.1167 129.55 86.353C129.38 86.5894 129.141 86.7758 128.834 86.9121C128.527 87.0485 128.171 87.1167 127.764 87.1167C127.23 87.1167 126.788 87.0008 126.438 86.7689C126.088 86.5371 125.866 86.1985 125.773 85.753L126.537 85.5621C126.609 85.8439 126.747 86.0553 126.949 86.1962C127.154 86.3371 127.421 86.4076 127.75 86.4076C128.125 86.4076 128.423 86.328 128.643 86.1689C128.866 86.0076 128.977 85.8144 128.977 85.5894C128.977 85.4076 128.914 85.2553 128.787 85.1326C128.659 85.0076 128.464 84.9144 128.2 84.853L127.327 84.6485C126.848 84.5348 126.496 84.3587 126.271 84.1201C126.048 83.8792 125.937 83.578 125.937 83.2167C125.937 82.9212 126.02 82.6598 126.185 82.4326C126.354 82.2053 126.582 82.0269 126.871 81.8973C127.162 81.7678 127.491 81.703 127.859 81.703C128.377 81.703 128.784 81.8167 129.08 82.0439C129.377 82.2712 129.589 82.5712 129.714 82.9439Z" fill="#818186"/>
<circle cx="136.038" cy="84.0075" r="0.8" fill="#818186"/>
<path d="M142.482 87.0076V80.0257H144.841C145.387 80.0257 145.834 80.1189 146.184 80.3053C146.534 80.4894 146.794 80.7428 146.962 81.0655C147.13 81.3882 147.214 81.7553 147.214 82.1667C147.214 82.578 147.13 82.9428 146.962 83.261C146.794 83.5792 146.536 83.8292 146.188 84.011C145.84 84.1905 145.396 84.2803 144.855 84.2803H142.946V83.5167H144.828C145.2 83.5167 145.5 83.4621 145.728 83.353C145.957 83.2439 146.123 83.0894 146.225 82.8894C146.33 82.6871 146.382 82.4462 146.382 82.1667C146.382 81.8871 146.33 81.6428 146.225 81.4337C146.121 81.2246 145.954 81.0632 145.724 80.9496C145.495 80.8337 145.191 80.7757 144.814 80.7757H143.328V87.0076H142.482ZM145.769 83.8712L147.487 87.0076H146.505L144.814 83.8712H145.769ZM150.557 87.1167C150.052 87.1167 149.617 87.0053 149.251 86.7826C148.888 86.5576 148.607 86.2439 148.409 85.8417C148.214 85.4371 148.116 84.9667 148.116 84.4303C148.116 83.8939 148.214 83.4212 148.409 83.0121C148.607 82.6007 148.882 82.2803 149.234 82.0507C149.589 81.8189 150.002 81.703 150.475 81.703C150.748 81.703 151.017 81.7485 151.283 81.8394C151.549 81.9303 151.791 82.078 152.009 82.2826C152.227 82.4848 152.401 82.753 152.531 83.0871C152.66 83.4212 152.725 83.8326 152.725 84.3212V84.6621H148.689V83.9667H151.907C151.907 83.6712 151.848 83.4076 151.73 83.1757C151.614 82.9439 151.448 82.761 151.232 82.6269C151.018 82.4928 150.766 82.4257 150.475 82.4257C150.155 82.4257 149.877 82.5053 149.643 82.6644C149.411 82.8212 149.233 83.0257 149.108 83.278C148.983 83.5303 148.921 83.8007 148.921 84.0894V84.553C148.921 84.9485 148.989 85.2837 149.125 85.5587C149.264 85.8314 149.456 86.0394 149.701 86.1826C149.947 86.3235 150.232 86.3939 150.557 86.3939C150.768 86.3939 150.959 86.3644 151.13 86.3053C151.302 86.2439 151.451 86.153 151.576 86.0326C151.701 85.9098 151.798 85.7576 151.866 85.5758L152.643 85.7939C152.561 86.0576 152.424 86.2894 152.231 86.4894C152.038 86.6871 151.799 86.8417 151.515 86.953C151.231 87.0621 150.911 87.1167 150.557 87.1167ZM156.13 81.7712V82.453H153.417V81.7712H156.13ZM154.208 80.5167H155.012V85.5076C155.012 85.7348 155.045 85.9053 155.111 86.0189C155.179 86.1303 155.265 86.2053 155.37 86.2439C155.477 86.2803 155.589 86.2985 155.708 86.2985C155.796 86.2985 155.869 86.2939 155.926 86.2848C155.983 86.2735 156.028 86.2644 156.062 86.2576L156.226 86.9803C156.171 87.0008 156.095 87.0212 155.997 87.0417C155.9 87.0644 155.776 87.0758 155.626 87.0758C155.398 87.0758 155.176 87.0269 154.958 86.9292C154.742 86.8314 154.562 86.6826 154.419 86.4826C154.278 86.2826 154.208 86.0303 154.208 85.7258V80.5167ZM158.785 87.1303C158.454 87.1303 158.152 87.0678 157.882 86.9428C157.612 86.8155 157.397 86.6326 157.238 86.3939C157.079 86.153 156.999 85.8621 156.999 85.5212C156.999 85.2212 157.058 84.978 157.176 84.7917C157.294 84.603 157.452 84.4553 157.65 84.3485C157.848 84.2417 158.066 84.1621 158.305 84.1098C158.546 84.0553 158.788 84.0121 159.031 83.9803C159.349 83.9394 159.607 83.9087 159.805 83.8882C160.005 83.8655 160.15 83.828 160.241 83.7757C160.334 83.7235 160.381 83.6326 160.381 83.503V83.4757C160.381 83.1394 160.289 82.878 160.105 82.6917C159.923 82.5053 159.647 82.4121 159.276 82.4121C158.892 82.4121 158.591 82.4962 158.373 82.6644C158.155 82.8326 158.001 83.0121 157.913 83.203L157.149 82.9303C157.285 82.6121 157.467 82.3644 157.694 82.1871C157.924 82.0076 158.174 81.8826 158.444 81.8121C158.717 81.7394 158.985 81.703 159.249 81.703C159.417 81.703 159.61 81.7235 159.829 81.7644C160.049 81.803 160.262 81.8837 160.466 82.0064C160.673 82.1292 160.844 82.3144 160.981 82.5621C161.117 82.8098 161.185 83.1417 161.185 83.5576V87.0076H160.381V86.2985H160.34C160.285 86.4121 160.194 86.5337 160.067 86.6633C159.94 86.7928 159.771 86.903 159.559 86.9939C159.348 87.0848 159.09 87.1303 158.785 87.1303ZM158.908 86.4076C159.226 86.4076 159.494 86.3451 159.713 86.2201C159.933 86.0951 160.099 85.9337 160.21 85.736C160.324 85.5383 160.381 85.3303 160.381 85.1121V84.3757C160.347 84.4167 160.272 84.4542 160.156 84.4882C160.042 84.5201 159.91 84.5485 159.76 84.5735C159.613 84.5962 159.468 84.6167 159.327 84.6348C159.189 84.6508 159.076 84.6644 158.99 84.6758C158.781 84.703 158.585 84.7473 158.404 84.8087C158.224 84.8678 158.079 84.9576 157.967 85.078C157.858 85.1962 157.804 85.3576 157.804 85.5621C157.804 85.8417 157.907 86.053 158.114 86.1962C158.323 86.3371 158.588 86.4076 158.908 86.4076ZM162.558 87.0076V81.7712H163.362V87.0076H162.558ZM162.967 80.8985C162.81 80.8985 162.675 80.8451 162.561 80.7382C162.45 80.6314 162.394 80.503 162.394 80.353C162.394 80.203 162.45 80.0746 162.561 79.9678C162.675 79.861 162.81 79.8076 162.967 79.8076C163.124 79.8076 163.258 79.861 163.369 79.9678C163.483 80.0746 163.54 80.203 163.54 80.353C163.54 80.503 163.483 80.6314 163.369 80.7382C163.258 80.8451 163.124 80.8985 162.967 80.8985ZM165.545 83.8576V87.0076H164.74V81.7712H165.517V82.5894H165.585C165.708 82.3235 165.895 82.1098 166.145 81.9485C166.395 81.7848 166.717 81.703 167.113 81.703C167.467 81.703 167.777 81.7757 168.043 81.9212C168.309 82.0644 168.516 82.2826 168.664 82.5757C168.812 82.8667 168.885 83.2348 168.885 83.6803V87.0076H168.081V83.7348C168.081 83.3235 167.974 83.003 167.76 82.7735C167.547 82.5417 167.254 82.4257 166.881 82.4257C166.624 82.4257 166.395 82.4814 166.192 82.5928C165.992 82.7042 165.834 82.8667 165.718 83.0803C165.602 83.2939 165.545 83.553 165.545 83.8576ZM172.455 87.1167C171.95 87.1167 171.515 87.0053 171.149 86.7826C170.786 86.5576 170.505 86.2439 170.307 85.8417C170.112 85.4371 170.014 84.9667 170.014 84.4303C170.014 83.8939 170.112 83.4212 170.307 83.0121C170.505 82.6007 170.78 82.2803 171.132 82.0507C171.487 81.8189 171.9 81.703 172.373 81.703C172.646 81.703 172.915 81.7485 173.181 81.8394C173.447 81.9303 173.689 82.078 173.907 82.2826C174.125 82.4848 174.299 82.753 174.429 83.0871C174.558 83.4212 174.623 83.8326 174.623 84.3212V84.6621H170.587V83.9667H173.805C173.805 83.6712 173.746 83.4076 173.628 83.1757C173.512 82.9439 173.346 82.761 173.13 82.6269C172.916 82.4928 172.664 82.4257 172.373 82.4257C172.053 82.4257 171.775 82.5053 171.541 82.6644C171.31 82.8212 171.131 83.0257 171.006 83.278C170.881 83.5303 170.819 83.8007 170.819 84.0894V84.553C170.819 84.9485 170.887 85.2837 171.023 85.5587C171.162 85.8314 171.354 86.0394 171.599 86.1826C171.845 86.3235 172.13 86.3939 172.455 86.3939C172.666 86.3939 172.857 86.3644 173.028 86.3053C173.2 86.2439 173.349 86.153 173.474 86.0326C173.599 85.9098 173.696 85.7576 173.764 85.5758L174.541 85.7939C174.46 86.0576 174.322 86.2894 174.129 86.4894C173.936 86.6871 173.697 86.8417 173.413 86.953C173.129 87.0621 172.81 87.1167 172.455 87.1167ZM177.728 87.1167C177.292 87.1167 176.907 87.0064 176.573 86.786C176.239 86.5633 175.977 86.2496 175.789 85.8451C175.6 85.4383 175.506 84.9576 175.506 84.403C175.506 83.853 175.6 83.3757 175.789 82.9712C175.977 82.5667 176.24 82.2542 176.576 82.0337C176.912 81.8132 177.301 81.703 177.742 81.703C178.083 81.703 178.352 81.7598 178.55 81.8735C178.75 81.9848 178.902 82.1121 179.007 82.2553C179.114 82.3962 179.197 82.5121 179.256 82.603H179.324V80.0257H180.128V87.0076H179.351V86.203H179.256C179.197 86.2985 179.112 86.4189 179.003 86.5644C178.894 86.7076 178.739 86.836 178.536 86.9496C178.334 87.061 178.065 87.1167 177.728 87.1167ZM177.837 86.3939C178.16 86.3939 178.433 86.3098 178.656 86.1417C178.878 85.9712 179.048 85.736 179.164 85.436C179.279 85.1337 179.337 84.7848 179.337 84.3894C179.337 83.9985 179.281 83.6564 179.167 83.3632C179.053 83.0678 178.885 82.8382 178.662 82.6746C178.44 82.5087 178.165 82.4257 177.837 82.4257C177.497 82.4257 177.212 82.5132 176.985 82.6882C176.76 82.861 176.591 83.0962 176.477 83.3939C176.366 83.6894 176.31 84.0212 176.31 84.3894C176.31 84.7621 176.367 85.1008 176.481 85.4053C176.597 85.7076 176.767 85.9485 176.992 86.128C177.219 86.3053 177.501 86.3939 177.837 86.3939ZM186.553 81.7712V82.453H183.731V81.7712H186.553ZM184.576 87.0076V81.0485C184.576 80.7485 184.647 80.4985 184.787 80.2985C184.928 80.0985 185.111 79.9485 185.336 79.8485C185.561 79.7485 185.799 79.6985 186.049 79.6985C186.247 79.6985 186.408 79.7144 186.533 79.7462C186.658 79.778 186.751 79.8076 186.812 79.8348L186.581 80.5303C186.54 80.5167 186.483 80.4996 186.41 80.4792C186.34 80.4587 186.247 80.4485 186.131 80.4485C185.865 80.4485 185.673 80.5155 185.555 80.6496C185.439 80.7837 185.381 80.9803 185.381 81.2394V87.0076H184.576ZM189.497 87.1167C189.024 87.1167 188.609 87.0042 188.252 86.7792C187.898 86.5542 187.62 86.2394 187.42 85.8348C187.223 85.4303 187.124 84.9576 187.124 84.4167C187.124 83.8712 187.223 83.3951 187.42 82.9882C187.62 82.5814 187.898 82.2655 188.252 82.0405C188.609 81.8155 189.024 81.703 189.497 81.703C189.969 81.703 190.383 81.8155 190.738 82.0405C191.094 82.2655 191.372 82.5814 191.569 82.9882C191.769 83.3951 191.869 83.8712 191.869 84.4167C191.869 84.9576 191.769 85.4303 191.569 85.8348C191.372 86.2394 191.094 86.5542 190.738 86.7792C190.383 87.0042 189.969 87.1167 189.497 87.1167ZM189.497 86.3939C189.856 86.3939 190.151 86.3019 190.383 86.1178C190.615 85.9337 190.786 85.6917 190.898 85.3917C191.009 85.0917 191.065 84.7667 191.065 84.4167C191.065 84.0667 191.009 83.7405 190.898 83.4382C190.786 83.136 190.615 82.8917 190.383 82.7053C190.151 82.5189 189.856 82.4257 189.497 82.4257C189.138 82.4257 188.842 82.5189 188.61 82.7053C188.378 82.8917 188.207 83.136 188.095 83.4382C187.984 83.7405 187.928 84.0667 187.928 84.4167C187.928 84.7667 187.984 85.0917 188.095 85.3917C188.207 85.6917 188.378 85.9337 188.61 86.1178C188.842 86.3019 189.138 86.3939 189.497 86.3939ZM193.001 87.0076V81.7712H193.779V82.5621H193.833C193.929 82.303 194.101 82.0928 194.351 81.9314C194.601 81.7701 194.883 81.6894 195.197 81.6894C195.256 81.6894 195.33 81.6905 195.419 81.6928C195.507 81.6951 195.574 81.6985 195.62 81.703V82.5212C195.592 82.5144 195.53 82.5042 195.432 82.4905C195.337 82.4746 195.236 82.4667 195.129 82.4667C194.874 82.4667 194.647 82.5201 194.447 82.6269C194.249 82.7314 194.092 82.8769 193.976 83.0632C193.863 83.2473 193.806 83.4576 193.806 83.6939V87.0076H193.001ZM199.286 87.0076L202.409 80.8303V80.7757H198.809V80.0257H203.281V80.8167L200.172 87.0076H199.286ZM209.051 87.1167C208.615 87.1167 208.229 87.0064 207.895 86.786C207.561 86.5633 207.3 86.2496 207.111 85.8451C206.923 85.4383 206.828 84.9576 206.828 84.403C206.828 83.853 206.923 83.3757 207.111 82.9712C207.3 82.5667 207.562 82.2542 207.899 82.0337C208.235 81.8132 208.624 81.703 209.065 81.703C209.406 81.703 209.675 81.7598 209.873 81.8735C210.073 81.9848 210.225 82.1121 210.329 82.2553C210.436 82.3962 210.519 82.5121 210.578 82.603H210.646V80.0257H211.451V87.0076H210.674V86.203H210.578C210.519 86.2985 210.435 86.4189 210.326 86.5644C210.217 86.7076 210.061 86.836 209.859 86.9496C209.657 87.061 209.387 87.1167 209.051 87.1167ZM209.16 86.3939C209.483 86.3939 209.756 86.3098 209.978 86.1417C210.201 85.9712 210.37 85.736 210.486 85.436C210.602 85.1337 210.66 84.7848 210.66 84.3894C210.66 83.9985 210.603 83.6564 210.49 83.3632C210.376 83.0678 210.208 82.8382 209.985 82.6746C209.762 82.5087 209.487 82.4257 209.16 82.4257C208.819 82.4257 208.535 82.5132 208.308 82.6882C208.083 82.861 207.913 83.0962 207.8 83.3939C207.688 83.6894 207.633 84.0212 207.633 84.3894C207.633 84.7621 207.69 85.1008 207.803 85.4053C207.919 85.7076 208.09 85.9485 208.315 86.128C208.542 86.3053 208.824 86.3939 209.16 86.3939ZM214.481 87.1303C214.149 87.1303 213.848 87.0678 213.578 86.9428C213.307 86.8155 213.092 86.6326 212.933 86.3939C212.774 86.153 212.695 85.8621 212.695 85.5212C212.695 85.2212 212.754 84.978 212.872 84.7917C212.99 84.603 213.148 84.4553 213.346 84.3485C213.544 84.2417 213.762 84.1621 214 84.1098C214.241 84.0553 214.483 84.0121 214.727 83.9803C215.045 83.9394 215.303 83.9087 215.5 83.8882C215.7 83.8655 215.846 83.828 215.937 83.7757C216.03 83.7235 216.077 83.6326 216.077 83.503V83.4757C216.077 83.1394 215.985 82.878 215.8 82.6917C215.619 82.5053 215.342 82.4121 214.972 82.4121C214.588 82.4121 214.287 82.4962 214.069 82.6644C213.85 82.8326 213.697 83.0121 213.608 83.203L212.845 82.9303C212.981 82.6121 213.163 82.3644 213.39 82.1871C213.62 82.0076 213.87 81.8826 214.14 81.8121C214.413 81.7394 214.681 81.703 214.945 81.703C215.113 81.703 215.306 81.7235 215.524 81.7644C215.745 81.803 215.957 81.8837 216.162 82.0064C216.369 82.1292 216.54 82.3144 216.677 82.5621C216.813 82.8098 216.881 83.1417 216.881 83.5576V87.0076H216.077V86.2985H216.036C215.981 86.4121 215.89 86.5337 215.763 86.6633C215.636 86.7928 215.466 86.903 215.255 86.9939C215.044 87.0848 214.786 87.1303 214.481 87.1303ZM214.604 86.4076C214.922 86.4076 215.19 86.3451 215.408 86.2201C215.629 86.0951 215.795 85.9337 215.906 85.736C216.02 85.5383 216.077 85.3303 216.077 85.1121V84.3757C216.042 84.4167 215.967 84.4542 215.852 84.4882C215.738 84.5201 215.606 84.5485 215.456 84.5735C215.308 84.5962 215.164 84.6167 215.023 84.6348C214.885 84.6508 214.772 84.6644 214.686 84.6758C214.477 84.703 214.281 84.7473 214.099 84.8087C213.92 84.8678 213.774 84.9576 213.663 85.078C213.554 85.1962 213.499 85.3576 213.499 85.5621C213.499 85.8417 213.603 86.053 213.81 86.1962C214.019 86.3371 214.283 86.4076 214.604 86.4076ZM218.584 88.9712C218.448 88.9712 218.326 88.9598 218.219 88.9371C218.113 88.9167 218.039 88.8962 217.998 88.8758L218.202 88.1667C218.398 88.2167 218.571 88.2348 218.721 88.2212C218.871 88.2076 219.004 88.1405 219.119 88.0201C219.238 87.9019 219.346 87.7098 219.443 87.4439L219.593 87.0348L217.657 81.7712H218.53L219.975 85.9439H220.03L221.475 81.7712H222.348L220.125 87.7712C220.025 88.0417 219.901 88.2655 219.754 88.4428C219.606 88.6223 219.434 88.7553 219.239 88.8417C219.046 88.928 218.827 88.9712 218.584 88.9712ZM227.023 82.9439L226.3 83.1485C226.255 83.028 226.188 82.911 226.099 82.7973C226.013 82.6814 225.895 82.586 225.745 82.511C225.595 82.436 225.402 82.3985 225.168 82.3985C224.848 82.3985 224.581 82.4723 224.367 82.6201C224.156 82.7655 224.05 82.9507 224.05 83.1757C224.05 83.3757 224.123 83.5337 224.268 83.6496C224.414 83.7655 224.641 83.8621 224.95 83.9394L225.727 84.1303C226.196 84.2439 226.545 84.4178 226.774 84.6519C227.004 84.8837 227.118 85.1826 227.118 85.5485C227.118 85.8485 227.032 86.1167 226.859 86.353C226.689 86.5894 226.45 86.7758 226.143 86.9121C225.837 87.0485 225.48 87.1167 225.073 87.1167C224.539 87.1167 224.097 87.0008 223.747 86.7689C223.397 86.5371 223.175 86.1985 223.082 85.753L223.846 85.5621C223.918 85.8439 224.056 86.0553 224.258 86.1962C224.463 86.3371 224.73 86.4076 225.059 86.4076C225.434 86.4076 225.732 86.328 225.952 86.1689C226.175 86.0076 226.287 85.8144 226.287 85.5894C226.287 85.4076 226.223 85.2553 226.096 85.1326C225.968 85.0076 225.773 84.9144 225.509 84.853L224.637 84.6485C224.157 84.5348 223.805 84.3587 223.58 84.1201C223.357 83.8792 223.246 83.578 223.246 83.2167C223.246 82.9212 223.329 82.6598 223.495 82.4326C223.663 82.2053 223.891 82.0269 224.18 81.8973C224.471 81.7678 224.8 81.703 225.168 81.703C225.687 81.703 226.093 81.8167 226.389 82.0439C226.687 82.2712 226.898 82.5712 227.023 82.9439Z" fill="#818186"/>
</g>
</g>
<defs>
<filter id="filter0_f_4936_34744" x="-2.66016" y="71.1089" width="187.32" height="52.1069" filterUnits="userSpaceOnUse" color-interpolation-filters="sRGB">
<feFlood flood-opacity="0" result="BackgroundImageFix"/>
<feBlend mode="normal" in="SourceGraphic" in2="BackgroundImageFix" result="shape"/>
<feGaussianBlur stdDeviation="3.75" result="effect1_foregroundBlur_4936_34744"/>
</filter>
<filter id="filter1_f_4936_34744" x="-22.0195" y="29.4844" width="321.883" height="110.808" filterUnits="userSpaceOnUse" color-interpolation-filters="sRGB">
<feFlood flood-opacity="0" result="BackgroundImageFix"/>
<feBlend mode="normal" in="SourceGraphic" in2="BackgroundImageFix" result="shape"/>
<feGaussianBlur stdDeviation="3.75" result="effect1_foregroundBlur_4936_34744"/>
</filter>
<filter id="filter2_f_4936_34744" x="-14.8945" y="33.2183" width="106.09" height="90.7363" filterUnits="userSpaceOnUse" color-interpolation-filters="sRGB">
<feFlood flood-opacity="0" result="BackgroundImageFix"/>
<feBlend mode="normal" in="SourceGraphic" in2="BackgroundImageFix" result="shape"/>
<feGaussianBlur stdDeviation="7.5" result="effect1_foregroundBlur_4936_34744"/>
</filter>
<linearGradient id="paint0_linear_4936_34744" x1="136.5" y1="0.712891" x2="136.5" y2="132.713" gradientUnits="userSpaceOnUse">
<stop offset="0.285948" stop-color="#19191C" stop-opacity="0"/>
<stop offset="1" stop-color="#474749"/>
</linearGradient>
<radialGradient id="paint1_radial_4936_34744" cx="0" cy="0" r="1" gradientUnits="userSpaceOnUse" gradientTransform="translate(46.9527 97.1077) rotate(6.55263) scale(79.905 17.2604)">
<stop stop-color="#F02E65"/>
<stop offset="1" stop-color="#F02E65" stop-opacity="0"/>
</radialGradient>
<radialGradient id="paint2_radial_4936_34744" cx="0" cy="0" r="1" gradientUnits="userSpaceOnUse" gradientTransform="translate(138.922 84.8885) rotate(-179.897) scale(153.442 47.9033)">
<stop stop-color="#F02E65"/>
<stop offset="1" stop-color="#F02E65" stop-opacity="0"/>
</radialGradient>
<linearGradient id="paint3_linear_4936_34744" x1="31.0352" y1="42.1384" x2="117.035" y2="42.1384" gradientUnits="userSpaceOnUse">
<stop stop-color="#6C6C71"/>
<stop offset="1" stop-color="#19191C"/>
</linearGradient>
<radialGradient id="paint4_radial_4936_34744" cx="0" cy="0" r="1" gradientUnits="userSpaceOnUse" gradientTransform="translate(25.6549 100.147) rotate(-143.865) scale(25.7716 11.1317)">
<stop stop-color="#FE9567"/>
<stop offset="1" stop-color="#F97066" stop-opacity="0"/>
</radialGradient>
<linearGradient id="paint5_linear_4936_34744" x1="11.5623" y1="97.1076" x2="38.5779" y2="48.5717" gradientUnits="userSpaceOnUse">
<stop stop-color="#FD366E"/>
<stop offset="0.2" stop-color="#FF453A" stop-opacity="0.32"/>
<stop offset="1" stop-color="#2D2D31"/>
</linearGradient>
<clipPath id="clip0_4936_34744">
<rect y="0.712891" width="273" height="132" rx="8" fill="white"/>
</clipPath>
</defs>
</svg>
