<svg xmlns="http://www.w3.org/2000/svg" width="18" height="12" viewBox="0 0 18 12" fill="none">
  <path
    d="M6.15638 3.92787C6.14928 3.9455 6.05752 4.30532 5.95902 4.73224C5.85654 5.15904 5.69426 5.83283 5.60268 6.23135C5.4262 6.96159 5.32036 7.44133 5.32036 7.50475C5.32036 7.52232 5.42981 7.53659 5.56369 7.53659H5.80726L5.91647 7.04968C5.98008 6.78523 6.1213 6.1784 6.23406 5.7022C6.347 5.22601 6.48443 4.64746 6.53744 4.41454C6.59033 4.18173 6.64328 3.97029 6.65387 3.9455C6.66446 3.91379 6.60441 3.90332 6.42095 3.90332C6.28334 3.90332 6.16336 3.91379 6.15638 3.92787ZM4.262 5.4552L3.9375 5.80804L4.03287 5.92093C4.08564 5.98435 4.23047 6.14314 4.35383 6.27377L4.57965 6.51343H5.22174L4.91823 6.18544C4.75234 6.00926 4.61479 5.83975 4.61479 5.81869C4.61479 5.79396 4.74181 5.63535 4.89717 5.46591C5.05229 5.29322 5.17932 5.14484 5.17932 5.12727C5.17932 5.11306 5.04531 5.10253 4.88309 5.10253H4.59024L4.262 5.4552ZM6.73131 5.12371C6.73131 5.13437 6.79137 5.20122 6.86538 5.27535C7.14072 5.55051 7.33465 5.78343 7.324 5.8291C7.31708 5.85401 7.1829 6.01967 7.02068 6.19248L6.72794 6.51343H7.05594L7.38399 6.51L7.6837 6.18189C7.84972 5.99861 7.98372 5.83614 7.98372 5.81508C7.98372 5.79751 7.84262 5.63168 7.66614 5.44479L7.34891 5.10253H7.0418C6.86893 5.10253 6.73131 5.11306 6.73131 5.12371Z"
    fill="url(#paint0_linear_598_58741)" fill-opacity="0.8" />
  <mask id="path-2-inside-1_598_58741" fill="white">
    <path fill-rule="evenodd" clip-rule="evenodd"
      d="M8.99832 11.1877C9.8811 11.6997 10.9066 11.9929 12.0006 11.9929C15.3102 11.9929 17.993 9.31022 17.993 6.00105C17.993 2.69188 15.3102 0.00927734 12.0006 0.00927734C10.9071 0.00927734 9.88211 0.302156 8.99959 0.813692C5.36865 -1.31465 0.583686 0.92861 0.0457609 5.26024C-0.218391 7.38758 0.67407 9.49392 2.38612 10.784C4.45312 12.3436 7.03283 12.3191 8.99832 11.1877ZM10.4211 8.08168C10.0732 8.82164 9.54502 9.46011 8.8932 9.94057C8.59484 10.1577 8.26409 10.3462 7.90173 10.4997C6.29455 11.1807 4.44597 10.9525 3.05258 9.901C0.0502737 7.63552 0.626354 2.96986 4.08969 1.50272C5.3555 0.966514 6.77101 0.994119 7.99592 1.54365C7.99533 1.54418 7.99473 1.54471 7.99414 1.54525C9.65279 2.28896 10.821 3.93029 10.8806 5.85103C10.902 6.61658 10.7459 7.38355 10.4211 8.08168Z" />
  </mask>
  <path fill-rule="evenodd" clip-rule="evenodd"
    d="M8.99832 11.1877C9.8811 11.6997 10.9066 11.9929 12.0006 11.9929C15.3102 11.9929 17.993 9.31022 17.993 6.00105C17.993 2.69188 15.3102 0.00927734 12.0006 0.00927734C10.9071 0.00927734 9.88211 0.302156 8.99959 0.813692C5.36865 -1.31465 0.583686 0.92861 0.0457609 5.26024C-0.218391 7.38758 0.67407 9.49392 2.38612 10.784C4.45312 12.3436 7.03283 12.3191 8.99832 11.1877ZM10.4211 8.08168C10.0732 8.82164 9.54502 9.46011 8.8932 9.94057C8.59484 10.1577 8.26409 10.3462 7.90173 10.4997C6.29455 11.1807 4.44597 10.9525 3.05258 9.901C0.0502737 7.63552 0.626354 2.96986 4.08969 1.50272C5.3555 0.966514 6.77101 0.994119 7.99592 1.54365C7.99533 1.54418 7.99473 1.54471 7.99414 1.54525C9.65279 2.28896 10.821 3.93029 10.8806 5.85103C10.902 6.61658 10.7459 7.38355 10.4211 8.08168Z"
    fill="url(#paint1_linear_598_58741)" fill-opacity="0.8" />
  <path
    d="M8.99832 11.1877L9.09866 11.0147L8.9987 10.9567L8.89854 11.0143L8.99832 11.1877ZM8.99959 0.813692L8.89845 0.986235L8.99903 1.04519L9.09989 0.986726L8.99959 0.813692ZM0.0457609 5.26024L-0.152715 5.23559L-0.152715 5.2356L0.0457609 5.26024ZM2.38612 10.784L2.50659 10.6243L2.50648 10.6243L2.38612 10.784ZM8.8932 9.94057L9.01088 10.1023L9.01186 10.1016L8.8932 9.94057ZM10.4211 8.08168L10.6021 8.16678L10.6024 8.16604L10.4211 8.08168ZM7.90173 10.4997L7.82371 10.3155L7.8237 10.3156L7.90173 10.4997ZM3.05258 9.901L3.17305 9.74135L3.17305 9.74135L3.05258 9.901ZM4.08969 1.50272L4.01168 1.31856L4.01168 1.31856L4.08969 1.50272ZM7.99592 1.54365L8.12958 1.69243L8.35825 1.487L8.07778 1.36117L7.99592 1.54365ZM7.99414 1.54525L7.86039 1.39655L7.63195 1.60203L7.91231 1.72774L7.99414 1.54525ZM10.8806 5.85103L11.0806 5.84545L11.0805 5.84483L10.8806 5.85103ZM12.0006 11.7929C10.9428 11.7929 9.95179 11.5095 9.09866 11.0147L8.89798 11.3607C9.81041 11.8899 10.8704 12.1929 12.0006 12.1929V11.7929ZM17.793 6.00105C17.793 9.19975 15.1997 11.7929 12.0006 11.7929V12.1929C15.4206 12.1929 18.193 9.4207 18.193 6.00105H17.793ZM12.0006 0.209277C15.1998 0.209277 17.793 2.80236 17.793 6.00105H18.193C18.193 2.58141 15.4206 -0.190723 12.0006 -0.190723V0.209277ZM9.09989 0.986726C9.95276 0.492375 10.9433 0.209277 12.0006 0.209277V-0.190723C10.8709 -0.190723 9.81146 0.111937 8.8993 0.640658L9.09989 0.986726ZM9.10073 0.641149C5.34805 -1.55855 0.403246 0.758733 -0.152715 5.23559L0.244236 5.28489C0.764126 1.09849 5.38925 -1.07074 8.89845 0.986235L9.10073 0.641149ZM-0.152715 5.2356C-0.425684 7.43394 0.496568 9.61059 2.26576 10.9437L2.50648 10.6243C0.851572 9.37725 -0.011098 7.34121 0.244237 5.28489L-0.152715 5.2356ZM2.26566 10.9436C4.40191 12.5556 7.06895 12.529 9.0981 11.361L8.89854 11.0143C6.99671 12.1091 4.50432 12.1317 2.50659 10.6243L2.26566 10.9436ZM9.01186 10.1016C9.69018 9.60158 10.2399 8.93712 10.6021 8.16678L10.2401 7.99657C9.90647 8.70615 9.39987 9.31865 8.77453 9.77957L9.01186 10.1016ZM8.77552 9.77885C8.48954 9.98696 8.1721 10.168 7.82371 10.3155L7.97974 10.6839C8.35607 10.5244 8.70014 10.3284 9.01088 10.1023L8.77552 9.77885ZM7.8237 10.3156C6.28232 10.9686 4.5094 10.7498 3.17305 9.74135L2.93211 10.0606C4.38253 11.1551 6.30678 11.3927 7.97975 10.6839L7.8237 10.3156ZM3.17305 9.74135C0.293644 7.56861 0.846137 3.09396 4.16771 1.68687L4.01168 1.31856C0.406571 2.84575 -0.193096 7.70243 2.93211 10.0606L3.17305 9.74135ZM4.16771 1.68688C5.38167 1.17263 6.73925 1.19908 7.91405 1.72613L8.07778 1.36117C6.80276 0.78916 5.32933 0.760396 4.01168 1.31856L4.16771 1.68688ZM8.12789 1.69394C8.12849 1.69341 8.12868 1.69324 8.12958 1.69243L7.86226 1.39487C7.86198 1.39512 7.86098 1.39602 7.86039 1.39655L8.12789 1.69394ZM11.0805 5.84483C11.0185 3.845 9.80209 2.13672 8.07597 1.36275L7.91231 1.72774C9.50349 2.4412 10.6236 4.01559 10.6807 5.85723L11.0805 5.84483ZM10.6807 5.85661C10.7012 6.59148 10.5514 7.32762 10.2398 7.99731L10.6024 8.16604C10.9405 7.43947 11.1028 6.64168 11.0806 5.84545L10.6807 5.85661Z"
    fill="url(#paint2_linear_598_58741)" mask="url(#path-2-inside-1_598_58741)" />
  <defs>
    <linearGradient id="paint0_linear_598_58741" x1="5.96061" y1="2.08669" x2="5.96061" y2="8.29351"
      gradientUnits="userSpaceOnUse">
      <stop stop-color="#F02E65" />
      <stop offset="1" stop-color="#F02E65" stop-opacity="0.48" />
    </linearGradient>
    <linearGradient id="paint1_linear_598_58741" x1="12.9936" y1="-5.98253" x2="12.9936" y2="14.4895"
      gradientUnits="userSpaceOnUse">
      <stop stop-color="#F02E65" />
      <stop offset="1" stop-color="#F02E65" stop-opacity="0.35" />
    </linearGradient>
    <linearGradient id="paint2_linear_598_58741" x1="23.5" y1="4.5" x2="-13" y2="13.5" gradientUnits="userSpaceOnUse">
      <stop stop-color="#F02E65" stop-opacity="0.57" />
      <stop offset="1" stop-color="white" stop-opacity="0" />
    </linearGradient>
  </defs>
</svg>