<svg width="215" height="19" viewBox="0 0 215 19" fill="none" xmlns="http://www.w3.org/2000/svg">
<path d="M7.82529 15.1522H2.60847L1.64748 17.8121H6.10352e-05L4.32453 5.9198H6.12639L10.4337 17.8121H8.78628L7.82529 15.1522ZM7.37911 13.8823L5.21688 7.84179L3.05464 13.8823H7.37911Z" fill="white"/>
<path d="M23.7474 9.35192C23.7474 10.3472 23.4041 11.1767 22.7177 11.8402C22.0427 12.4923 21.0074 12.8184 19.6117 12.8184H17.3121V17.8121H15.7505V5.85116H19.6117C20.9616 5.85116 21.9855 6.17721 22.6834 6.82931C23.3927 7.48141 23.7474 8.32228 23.7474 9.35192ZM19.6117 11.5313C20.4811 11.5313 21.1218 11.3425 21.5336 10.965C21.9455 10.5875 22.1514 10.0498 22.1514 9.35192C22.1514 7.87611 21.3048 7.1382 19.6117 7.1382H17.3121V11.5313H19.6117Z" fill="white"/>
<path d="M37.1172 9.35192C37.1172 10.3472 36.774 11.1767 36.0876 11.8402C35.4126 12.4923 34.3772 12.8184 32.9815 12.8184H30.682V17.8121H29.1204V5.85116H32.9815C34.3315 5.85116 35.3554 6.17721 36.0532 6.82931C36.7625 7.48141 37.1172 8.32228 37.1172 9.35192ZM32.9815 11.5313C33.851 11.5313 34.4916 11.3425 34.9035 10.965C35.3153 10.5875 35.5213 10.0498 35.5213 9.35192C35.5213 7.87611 34.6747 7.1382 32.9815 7.1382H30.682V11.5313H32.9815Z" fill="white"/>
<path d="M57.5229 5.85116L54.0564 17.8121H52.306L49.526 8.185L46.6431 17.8121L44.9098 17.8292L41.5635 5.85116H43.2281L45.8365 15.9931L48.7195 5.85116H50.4699L53.2156 15.9587L55.8411 5.85116H57.5229Z" fill="white"/>
<path d="M68.9619 17.8121L66.1132 12.9213H64.2255V17.8121H62.6639V5.85116H66.5251C67.4288 5.85116 68.1896 6.0056 68.8074 6.31449C69.4366 6.62338 69.9057 7.04096 70.2146 7.56722C70.5235 8.09347 70.6779 8.69409 70.6779 9.36908C70.6779 10.1928 70.4377 10.9192 69.9572 11.5485C69.4881 12.1777 68.7788 12.5953 67.8293 12.8012L70.8324 17.8121H68.9619ZM64.2255 11.6686H66.5251C67.3717 11.6686 68.0066 11.4627 68.4299 11.0508C68.8532 10.6275 69.0648 10.0669 69.0648 9.36908C69.0648 8.65977 68.8532 8.11063 68.4299 7.72166C68.018 7.33269 67.3831 7.1382 66.5251 7.1382H64.2255V11.6686Z" fill="white"/>
<path d="M78.0981 5.85116V17.8121H76.5365V5.85116H78.0981Z" fill="white"/>
<path d="M91.5536 5.85116V7.12104H88.2931V17.8121H86.7315V7.12104H83.4538V5.85116H91.5536Z" fill="white"/>
<path d="M98.4696 7.12104V11.1195H102.828V12.4065H98.4696V16.525H103.343V17.8121H96.908V5.834H103.343V7.12104H98.4696Z" fill="white"/>
<path d="M108.383 11.7716C108.383 10.5818 108.641 9.52352 109.155 8.59685C109.67 7.65874 110.385 6.93228 111.3 6.41746C112.227 5.8912 113.274 5.62807 114.441 5.62807C115.871 5.62807 117.095 6.0056 118.113 6.76067C119.131 7.51573 119.812 8.54537 120.155 9.84957H116.929C116.689 9.3462 116.346 8.96294 115.9 8.69981C115.465 8.43669 114.967 8.30512 114.407 8.30512C113.503 8.30512 112.771 8.61973 112.21 9.24895C111.649 9.87817 111.369 10.719 111.369 11.7716C111.369 12.8241 111.649 13.6649 112.21 14.2942C112.771 14.9234 113.503 15.238 114.407 15.238C114.967 15.238 115.465 15.1064 115.9 14.8433C116.346 14.5802 116.689 14.1969 116.929 13.6935H120.155C119.812 14.9977 119.131 16.0274 118.113 16.7824C117.095 17.5261 115.871 17.8979 114.441 17.8979C113.274 17.8979 112.227 17.6405 111.3 17.1257C110.385 16.5994 109.67 15.8729 109.155 14.9463C108.641 14.0196 108.383 12.9614 108.383 11.7716Z" fill="white"/>
<path d="M128.319 15.5469H132.163V17.8121H125.385V5.76536H128.319V15.5469Z" fill="white"/>
<path d="M142.692 17.9322C141.559 17.9322 140.518 17.6691 139.569 17.1428C138.631 16.6166 137.881 15.8844 137.321 14.9463C136.772 13.9967 136.497 12.9328 136.497 11.7544C136.497 10.576 136.772 9.5178 137.321 8.57969C137.881 7.64158 138.631 6.90939 139.569 6.38314C140.518 5.85688 141.559 5.59375 142.692 5.59375C143.825 5.59375 144.86 5.85688 145.798 6.38314C146.748 6.90939 147.491 7.64158 148.029 8.57969C148.578 9.5178 148.853 10.576 148.853 11.7544C148.853 12.9328 148.578 13.9967 148.029 14.9463C147.48 15.8844 146.736 16.6166 145.798 17.1428C144.86 17.6691 143.825 17.9322 142.692 17.9322ZM142.692 15.2552C143.653 15.2552 144.42 14.9348 144.992 14.2942C145.575 13.6535 145.867 12.8069 145.867 11.7544C145.867 10.6904 145.575 9.84385 144.992 9.21463C144.42 8.57397 143.653 8.25364 142.692 8.25364C141.72 8.25364 140.942 8.56825 140.358 9.19747C139.786 9.82669 139.5 10.679 139.5 11.7544C139.5 12.8184 139.786 13.6707 140.358 14.3113C140.942 14.9405 141.72 15.2552 142.692 15.2552Z" fill="white"/>
<path d="M156.8 5.76536V12.9728C156.8 13.6935 156.978 14.2484 157.332 14.6374C157.687 15.0263 158.207 15.2208 158.894 15.2208C159.58 15.2208 160.107 15.0263 160.473 14.6374C160.839 14.2484 161.022 13.6935 161.022 12.9728V5.76536H163.956V12.9556C163.956 14.031 163.727 14.9405 163.27 15.6842C162.812 16.4278 162.194 16.9884 161.416 17.3659C160.65 17.7434 159.792 17.9322 158.842 17.9322C157.893 17.9322 157.041 17.7492 156.285 17.3831C155.542 17.0055 154.953 16.445 154.518 15.7013C154.083 14.9463 153.866 14.031 153.866 12.9556V5.76536H156.8Z" fill="white"/>
<path d="M173.962 5.76536C175.232 5.76536 176.342 6.01704 177.291 6.52042C178.241 7.0238 178.973 7.7331 179.488 8.64833C180.014 9.55212 180.277 10.5989 180.277 11.7887C180.277 12.9671 180.014 14.0139 179.488 14.9291C178.973 15.8443 178.235 16.5536 177.274 17.057C176.325 17.5604 175.221 17.8121 173.962 17.8121H169.449V5.76536H173.962ZM173.773 15.2723C174.883 15.2723 175.747 14.9691 176.365 14.3628C176.982 13.7565 177.291 12.8984 177.291 11.7887C177.291 10.679 176.982 9.81525 176.365 9.19747C175.747 8.57969 174.883 8.2708 173.773 8.2708H172.383V15.2723H173.773Z" fill="white"/>
<path d="M195.974 18.1164C193.085 18.1164 190.743 15.7507 190.743 12.8325C190.743 10.1024 192.792 7.85585 195.422 7.57752C195.294 7.08627 195.226 6.57056 195.226 6.03881C195.226 2.70367 197.903 0 201.205 0C204.013 0 206.369 1.95563 207.011 4.59213C207.311 4.55057 207.618 4.5291 207.931 4.5291C211.645 4.5291 214.656 7.57073 214.656 11.3228C214.656 15.0748 211.645 18.1164 207.931 18.1164H195.974Z" fill="url(#paint0_linear_511_23621)"/>
<defs>
<linearGradient id="paint0_linear_511_23621" x1="202.699" y1="0" x2="202.699" y2="23.7487" gradientUnits="userSpaceOnUse">
<stop stop-color="white"/>
<stop offset="1" stop-color="white" stop-opacity="0.7"/>
</linearGradient>
</defs>
</svg>
