<svg width="220" height="221" viewBox="0 0 220 221" fill="none" xmlns="http://www.w3.org/2000/svg">
<mask id="path-1-inside-1_5272_24665" fill="white">
<path d="M0 1C0 0.447715 0.447715 0 1 0H32V32H0V1Z"/>
</mask>
<path d="M-1 1C-1 -0.104569 -0.104569 -1 1 -1H32V1H1H-1ZM32 32H0H32ZM-1 32V1C-1 -0.104569 -0.104569 -1 1 -1V1V32H-1ZM32 0V32V0Z" fill="#C3C3C6" mask="url(#path-1-inside-1_5272_24665)"/>
<mask id="path-3-inside-2_5272_24665" fill="white">
<path d="M219 -4.37114e-08C219.552 -1.95703e-08 220 0.447715 220 1L220 32L188 32L188 -1.39876e-06L219 -4.37114e-08Z"/>
</mask>
<path d="M219 -1C220.105 -1 221 -0.104569 221 1L221 32L219 32L219 1L219 -1ZM188 32L188 -1.39876e-06L188 32ZM188 -1L219 -1C220.105 -1 221 -0.104569 221 1L219 1L188 0.999999L188 -1ZM220 32L188 32L220 32Z" fill="#C3C3C6" mask="url(#path-3-inside-2_5272_24665)"/>
<mask id="path-5-inside-3_5272_24665" fill="white">
<path d="M1 221C0.447715 221 -1.95703e-08 220.552 -4.37114e-08 220L-1.39876e-06 189L32 189L32 221L1 221Z"/>
</mask>
<path d="M1 222C-0.104569 222 -1 221.105 -1 220L-1 189L0.999999 189L1 220L1 222ZM32 189L32 221L32 189ZM32 222L1 222C-0.104569 222 -1 221.105 -1 220L1 220L32 220L32 222ZM-1.39876e-06 189L32 189L-1.39876e-06 189Z" fill="#C3C3C6" mask="url(#path-5-inside-3_5272_24665)"/>
<mask id="path-7-inside-4_5272_24665" fill="white">
<path d="M220 220C220 220.552 219.552 221 219 221L188 221L188 189L220 189L220 220Z"/>
</mask>
<path d="M221 220C221 221.105 220.105 222 219 222L188 222L188 220L219 220L221 220ZM188 189L220 189L188 189ZM221 189L221 220C221 221.105 220.105 222 219 222L219 220L219 189L221 189ZM188 221L188 189L188 221Z" fill="#C3C3C6" mask="url(#path-7-inside-4_5272_24665)"/>
</svg>
