<svg width="220" height="221" viewBox="0 0 220 221" fill="none" xmlns="http://www.w3.org/2000/svg">
<mask id="path-1-inside-1_5602_13938" fill="white">
<path d="M0 1.00006C0 0.447776 0.447715 6.10352e-05 1 6.10352e-05H32V32.0001H0V1.00006Z"/>
</mask>
<path d="M-1 1.00006C-1 -0.104508 -0.104569 -0.999939 1 -0.999939H32V1.00006H1H-1ZM32 32.0001H0H32ZM-1 32.0001V1.00006C-1 -0.104508 -0.104569 -0.999939 1 -0.999939V1.00006V32.0001H-1ZM32 6.10352e-05V32.0001V6.10352e-05Z" fill="#C3C3C6" mask="url(#path-1-inside-1_5602_13938)"/>
<mask id="path-3-inside-2_5602_13938" fill="white">
<path d="M219 6.09914e-05C219.552 6.10156e-05 220 0.447776 220 1.00006L220 32.0001L188 32.0001L188 5.96364e-05L219 6.09914e-05Z"/>
</mask>
<path d="M219 -0.999939C220.105 -0.999939 221 -0.104508 221 1.00006L221 32.0001L219 32.0001L219 1.00006L219 -0.999939ZM188 32.0001L188 5.96364e-05L188 32.0001ZM188 -0.99994L219 -0.999939C220.105 -0.999939 221 -0.104508 221 1.00006L219 1.00006L188 1.00006L188 -0.99994ZM220 32.0001L188 32.0001L220 32.0001Z" fill="#C3C3C6" mask="url(#path-3-inside-2_5602_13938)"/>
<mask id="path-5-inside-3_5602_13938" fill="white">
<path d="M1 221C0.447715 221 -1.95703e-08 220.552 -4.37114e-08 220L-1.39876e-06 189L32 189L32 221L1 221Z"/>
</mask>
<path d="M1 222C-0.104569 222 -1 221.105 -1 220L-1 189L0.999999 189L1 220L1 222ZM32 189L32 221L32 189ZM32 222L1 222C-0.104569 222 -1 221.105 -1 220L1 220L32 220L32 222ZM-1.39876e-06 189L32 189L-1.39876e-06 189Z" fill="#C3C3C6" mask="url(#path-5-inside-3_5602_13938)"/>
<mask id="path-7-inside-4_5602_13938" fill="white">
<path d="M220 220C220 220.552 219.552 221 219 221L188 221L188 189L220 189L220 220Z"/>
</mask>
<path d="M221 220C221 221.105 220.105 222 219 222L188 222L188 220L219 220L221 220ZM188 189L220 189L188 189ZM221 189L221 220C221 221.105 220.105 222 219 222L219 220L219 189L221 189ZM188 221L188 189L188 221Z" fill="#C3C3C6" mask="url(#path-7-inside-4_5602_13938)"/>
</svg>
