<svg width="351" height="215" viewBox="0 0 351 215" fill="none" xmlns="http://www.w3.org/2000/svg">
<g clip-path="url(#clip0_1189_2664)">
<mask id="mask0_1189_2664" style="mask-type:luminance" maskUnits="userSpaceOnUse" x="0" y="0" width="351" height="215">
<path d="M351 0H0V215H351V0Z" fill="white"/>
</mask>
<g mask="url(#mask0_1189_2664)">
<g opacity="0.98" filter="url(#filter0_f_1189_2664)">
<path d="M266.731 77.958L75.955 60L70 123.262L260.776 141.22L266.731 77.958Z" fill="url(#paint0_linear_1189_2664)" fill-opacity="0.6"/>
</g>
<g opacity="0.6" filter="url(#filter1_d_1189_2664)">
<path d="M286.58 50.9682L51.1073 64.7692C46.6966 65.0277 43.3306 68.8129 43.5891 73.2236L45.083 98.7128C45.3415 103.123 49.1266 106.489 53.5374 106.231L289.01 92.4299C293.421 92.1714 296.787 88.3863 296.529 83.9756L295.035 58.4864C294.776 54.0757 290.991 50.7097 286.58 50.9682Z" fill="url(#paint1_linear_1189_2664)"/>
<path d="M286.609 51.4672L51.1367 65.2682C47.0016 65.5106 43.846 69.0592 44.0883 73.1942L45.5823 98.6834C45.8246 102.819 49.3732 105.974 53.5082 105.732L288.981 91.9307C293.116 91.6883 296.272 88.1397 296.029 84.0047L294.535 58.5155C294.293 54.3805 290.744 51.2248 286.609 51.4672Z" stroke="url(#paint2_linear_1189_2664)"/>
</g>
<g opacity="0.8">
<path d="M305.717 68.5492L37.0485 79.1972C32.6337 79.3722 29.1966 83.093 29.3716 87.5078L30.595 118.376C30.7699 122.79 34.4907 126.228 38.9055 126.053L307.574 115.404C311.989 115.23 315.426 111.509 315.251 107.094L314.028 76.2261C313.853 71.8113 310.132 68.3742 305.717 68.5492Z" fill="url(#paint3_linear_1189_2664)"/>
<path d="M305.717 68.5492L37.0485 79.1972C32.6337 79.3722 29.1966 83.093 29.3716 87.5078L30.595 118.376C30.7699 122.79 34.4907 126.228 38.9055 126.053L307.574 115.404C311.989 115.23 315.426 111.509 315.251 107.094L314.028 76.2261C313.853 71.8113 310.132 68.3742 305.717 68.5492Z" fill="white"/>
<path d="M305.737 69.0487L37.0683 79.6968C32.9294 79.8608 29.7072 83.349 29.8712 87.4879L31.0946 118.356C31.2586 122.495 34.7468 125.717 38.8857 125.553L307.555 114.905C311.694 114.741 314.916 111.253 314.752 107.114L313.529 76.2458C313.365 72.1069 309.876 68.8847 305.737 69.0487Z" stroke="url(#paint4_linear_1189_2664)"/>
</g>
<g filter="url(#filter2_d_1189_2664)">
<path d="M18 105.8C18 101.32 18 99.0794 18.8719 97.3681C19.6389 95.8628 20.8628 94.6389 22.3681 93.8719C24.0794 93 26.3196 93 30.8 93H308.2C312.68 93 314.921 93 316.632 93.8719C318.137 94.6389 319.361 95.8628 320.128 97.3681C321 99.0794 321 101.32 321 105.8V137.2C321 141.68 321 143.921 320.128 145.632C319.361 147.137 318.137 148.361 316.632 149.128C314.921 150 312.68 150 308.2 150H267.144C266.435 150 266.081 150 265.729 150.031C265.417 150.059 265.107 150.105 264.8 150.169C264.455 150.241 264.116 150.343 263.437 150.548L239.472 157.798C237.997 158.244 237.26 158.468 236.51 158.547C235.844 158.618 235.172 158.604 234.509 158.508C233.762 158.398 233.034 158.147 231.579 157.643L211.534 150.704C210.774 150.441 210.393 150.309 210.004 150.217C209.658 150.134 209.307 150.075 208.953 150.04C208.555 150 208.152 150 207.347 150H30.8C26.3196 150 24.0794 150 22.3681 149.128C20.8628 148.361 19.6389 147.137 18.8719 145.632C18 143.921 18 141.68 18 137.2V105.8Z" fill="url(#paint5_linear_1189_2664)"/>
<path d="M18 105.8C18 101.32 18 99.0794 18.8719 97.3681C19.6389 95.8628 20.8628 94.6389 22.3681 93.8719C24.0794 93 26.3196 93 30.8 93H308.2C312.68 93 314.921 93 316.632 93.8719C318.137 94.6389 319.361 95.8628 320.128 97.3681C321 99.0794 321 101.32 321 105.8V137.2C321 141.68 321 143.921 320.128 145.632C319.361 147.137 318.137 148.361 316.632 149.128C314.921 150 312.68 150 308.2 150H267.144C266.435 150 266.081 150 265.729 150.031C265.417 150.059 265.107 150.105 264.8 150.169C264.455 150.241 264.116 150.343 263.437 150.548L239.472 157.798C237.997 158.244 237.26 158.468 236.51 158.547C235.844 158.618 235.172 158.604 234.509 158.508C233.762 158.398 233.034 158.147 231.579 157.643L211.534 150.704C210.774 150.441 210.393 150.309 210.004 150.217C209.658 150.134 209.307 150.075 208.953 150.04C208.555 150 208.152 150 207.347 150H30.8C26.3196 150 24.0794 150 22.3681 149.128C20.8628 148.361 19.6389 147.137 18.8719 145.632C18 143.921 18 141.68 18 137.2V105.8Z" fill="white" fill-opacity="0.8"/>
<path d="M30.8 93.5H308.2C310.448 93.5 312.105 93.5004 313.414 93.6073C314.717 93.7138 315.632 93.9234 316.405 94.3175C317.816 95.0365 318.964 96.1839 319.683 97.5951C320.077 98.3685 320.286 99.2832 320.393 100.586C320.5 101.895 320.5 103.552 320.5 105.8V137.2C320.5 139.448 320.5 141.105 320.393 142.414C320.286 143.717 320.077 144.632 319.683 145.405C318.964 146.816 317.816 147.963 316.405 148.683C315.632 149.077 314.717 149.286 313.414 149.393C312.105 149.5 310.448 149.5 308.2 149.5H267.144H267.117C266.434 149.5 266.059 149.5 265.685 149.533C265.354 149.562 265.024 149.611 264.698 149.679C264.331 149.756 263.972 149.864 263.318 150.062L263.293 150.07L239.327 157.32C237.835 157.771 237.15 157.976 236.457 158.05C235.833 158.116 235.202 158.104 234.581 158.013C233.892 157.912 233.215 157.68 231.742 157.17L211.698 150.232L211.669 150.222C210.935 149.968 210.533 149.829 210.119 149.73C209.752 149.643 209.379 149.58 209.003 149.542C208.58 149.5 208.154 149.5 207.378 149.5H207.347H30.8C28.5515 149.5 26.8953 149.5 25.5863 149.393C24.2832 149.286 23.3685 149.077 22.5951 148.683C21.1839 147.963 20.0365 146.816 19.3175 145.405C18.9234 144.632 18.7138 143.717 18.6073 142.414C18.5004 141.105 18.5 139.448 18.5 137.2V105.8C18.5 103.552 18.5004 101.895 18.6073 100.586C18.7138 99.2832 18.9234 98.3685 19.3175 97.5951C20.0365 96.1839 21.1839 95.0365 22.5951 94.3175C23.3685 93.9234 24.2832 93.7138 25.5863 93.6073C26.8953 93.5004 28.5515 93.5 30.8 93.5Z" stroke="url(#paint6_linear_1189_2664)" stroke-opacity="0.3"/>
</g>
<path d="M71.125 115.5H44.125C41.9159 115.5 40.125 117.291 40.125 119.5V123.5C40.125 125.709 41.9159 127.5 44.125 127.5H71.125C73.3341 127.5 75.125 125.709 75.125 123.5V119.5C75.125 117.291 73.3341 115.5 71.125 115.5Z" fill="url(#paint7_linear_1189_2664)" fill-opacity="0.4"/>
<path d="M295 116H94C91.7909 116 90 117.791 90 120V124C90 126.209 91.7909 128 94 128H295C297.209 128 299 126.209 299 124V120C299 117.791 297.209 116 295 116Z" fill="url(#paint8_linear_1189_2664)"/>
<path d="M211.875 113.5H261.875L264.375 121.5L264.875 129.5H208.875V121.5L211.875 113.5Z" fill="url(#paint9_linear_1189_2664)" fill-opacity="0.9"/>
<g filter="url(#filter3_di_1189_2664)">
<path fill-rule="evenodd" clip-rule="evenodd" d="M195.387 126.806C195.387 103.994 213.88 85.5 236.693 85.5C259.506 85.5 278 103.994 278 126.806C278 136.498 274.662 145.41 269.073 152.456L286.607 169.989C289.265 172.647 289.265 176.956 286.607 179.614C283.949 182.272 279.639 182.272 276.981 179.614L258.966 161.599C252.54 165.722 244.896 168.113 236.693 168.113C213.88 168.113 195.387 149.619 195.387 126.806ZM236.694 154.749C252.126 154.749 264.636 142.239 264.636 126.806C264.636 111.374 252.126 98.8639 236.694 98.8639C221.261 98.8639 208.751 111.374 208.751 126.806C208.751 142.239 221.261 154.749 236.694 154.749Z" fill="url(#paint10_linear_1189_2664)" fill-opacity="0.6"/>
<mask id="mask1_1189_2664" style="mask-type:luminance" maskUnits="userSpaceOnUse" x="195" y="85" width="94" height="97">
<path fill-rule="evenodd" clip-rule="evenodd" d="M195.387 126.806C195.387 103.994 213.88 85.5 236.693 85.5C259.506 85.5 278 103.994 278 126.806C278 136.498 274.662 145.41 269.073 152.456L286.607 169.989C289.265 172.647 289.265 176.956 286.607 179.614C283.949 182.272 279.639 182.272 276.981 179.614L258.966 161.599C252.54 165.722 244.896 168.113 236.693 168.113C213.88 168.113 195.387 149.619 195.387 126.806ZM236.694 154.749C252.126 154.749 264.636 142.239 264.636 126.806C264.636 111.374 252.126 98.8639 236.694 98.8639C221.261 98.8639 208.751 111.374 208.751 126.806C208.751 142.239 221.261 154.749 236.694 154.749Z" fill="url(#paint11_linear_1189_2664)"/>
</mask>
<g mask="url(#mask1_1189_2664)">
<path d="M269.073 152.456L268.878 152.3L268.739 152.475L268.897 152.632L269.073 152.456ZM258.966 161.599L259.143 161.423L259.001 161.28L258.831 161.389L258.966 161.599ZM236.693 85.25C213.742 85.25 195.137 103.855 195.137 126.806H195.637C195.637 104.132 214.018 85.75 236.693 85.75V85.25ZM278.25 126.806C278.25 103.855 259.644 85.25 236.693 85.25V85.75C259.368 85.75 277.75 104.132 277.75 126.806H278.25ZM269.269 152.611C274.892 145.523 278.25 136.556 278.25 126.806H277.75C277.75 136.44 274.432 145.297 268.878 152.3L269.269 152.611ZM286.784 169.812L269.25 152.279L268.897 152.632L286.43 170.166L286.784 169.812ZM286.784 179.791C289.539 177.036 289.539 172.568 286.784 169.812L286.43 170.166C288.99 172.726 288.99 176.877 286.43 179.438L286.784 179.791ZM276.805 179.791C279.56 182.547 284.028 182.547 286.784 179.791L286.43 179.438C283.87 181.998 279.718 181.998 277.158 179.438L276.805 179.791ZM258.79 161.776L276.805 179.791L277.158 179.438L259.143 161.423L258.79 161.776ZM236.693 168.363C244.945 168.363 252.636 165.958 259.101 161.81L258.831 161.389C252.444 165.487 244.846 167.863 236.693 167.863V168.363ZM195.137 126.806C195.137 149.757 213.742 168.363 236.693 168.363V167.863C214.018 167.863 195.637 149.481 195.637 126.806H195.137ZM264.386 126.806C264.386 142.101 251.988 154.499 236.694 154.499V154.999C252.264 154.999 264.886 142.377 264.886 126.806H264.386ZM236.694 99.1139C251.988 99.1139 264.386 111.512 264.386 126.806H264.886C264.886 111.236 252.264 98.6139 236.694 98.6139V99.1139ZM209.001 126.806C209.001 111.512 221.399 99.1139 236.694 99.1139V98.6139C221.123 98.6139 208.501 111.236 208.501 126.806H209.001ZM236.694 154.499C221.399 154.499 209.001 142.101 209.001 126.806H208.501C208.501 142.377 221.123 154.999 236.694 154.999V154.499Z" fill="url(#paint12_linear_1189_2664)"/>
</g>
</g>
<path d="M237 155C252.464 155 265 142.464 265 127C265 111.536 252.464 99 237 99C221.536 99 209 111.536 209 127C209 142.464 221.536 155 237 155Z" fill="url(#paint13_linear_1189_2664)" fill-opacity="0.4"/>
</g>
</g>
<defs>
<filter id="filter0_f_1189_2664" x="-30" y="-40" width="396.731" height="281.22" filterUnits="userSpaceOnUse" color-interpolation-filters="sRGB">
<feFlood flood-opacity="0" result="BackgroundImageFix"/>
<feBlend mode="normal" in="SourceGraphic" in2="BackgroundImageFix" result="shape"/>
<feGaussianBlur stdDeviation="50" result="effect1_foregroundBlur_1189_2664"/>
</filter>
<filter id="filter1_d_1189_2664" x="30.5752" y="46.9542" width="278.968" height="81.2908" filterUnits="userSpaceOnUse" color-interpolation-filters="sRGB">
<feFlood flood-opacity="0" result="BackgroundImageFix"/>
<feColorMatrix in="SourceAlpha" type="matrix" values="0 0 0 0 0 0 0 0 0 0 0 0 0 0 0 0 0 0 127 0" result="hardAlpha"/>
<feOffset dy="9"/>
<feGaussianBlur stdDeviation="6.5"/>
<feComposite in2="hardAlpha" operator="out"/>
<feColorMatrix type="matrix" values="0 0 0 0 0 0 0 0 0 0 0 0 0 0 0 0 0 0 0.25 0"/>
<feBlend mode="normal" in2="BackgroundImageFix" result="effect1_dropShadow_1189_2664"/>
<feBlend mode="normal" in="SourceGraphic" in2="effect1_dropShadow_1189_2664" result="shape"/>
</filter>
<filter id="filter2_d_1189_2664" x="4" y="74" width="331" height="93.5918" filterUnits="userSpaceOnUse" color-interpolation-filters="sRGB">
<feFlood flood-opacity="0" result="BackgroundImageFix"/>
<feColorMatrix in="SourceAlpha" type="matrix" values="0 0 0 0 0 0 0 0 0 0 0 0 0 0 0 0 0 0 127 0" result="hardAlpha"/>
<feOffset dy="-5"/>
<feGaussianBlur stdDeviation="7"/>
<feComposite in2="hardAlpha" operator="out"/>
<feColorMatrix type="matrix" values="0 0 0 0 0 0 0 0 0 0 0 0 0 0 0 0 0 0 0.02 0"/>
<feBlend mode="normal" in2="BackgroundImageFix" result="effect1_dropShadow_1189_2664"/>
<feBlend mode="normal" in="SourceGraphic" in2="effect1_dropShadow_1189_2664" result="shape"/>
</filter>
<filter id="filter3_di_1189_2664" x="167.387" y="69.5" width="143.214" height="146.107" filterUnits="userSpaceOnUse" color-interpolation-filters="sRGB">
<feFlood flood-opacity="0" result="BackgroundImageFix"/>
<feColorMatrix in="SourceAlpha" type="matrix" values="0 0 0 0 0 0 0 0 0 0 0 0 0 0 0 0 0 0 127 0" result="hardAlpha"/>
<feOffset dx="-3" dy="9"/>
<feGaussianBlur stdDeviation="12.5"/>
<feComposite in2="hardAlpha" operator="out"/>
<feColorMatrix type="matrix" values="0 0 0 0 0 0 0 0 0 0 0 0 0 0 0 0 0 0 0.06 0"/>
<feBlend mode="normal" in2="BackgroundImageFix" result="effect1_dropShadow_1189_2664"/>
<feBlend mode="normal" in="SourceGraphic" in2="effect1_dropShadow_1189_2664" result="shape"/>
<feColorMatrix in="SourceAlpha" type="matrix" values="0 0 0 0 0 0 0 0 0 0 0 0 0 0 0 0 0 0 127 0" result="hardAlpha"/>
<feOffset dy="4"/>
<feGaussianBlur stdDeviation="1.5"/>
<feComposite in2="hardAlpha" operator="arithmetic" k2="-1" k3="1"/>
<feColorMatrix type="matrix" values="0 0 0 0 1 0 0 0 0 1 0 0 0 0 1 0 0 0 0.08 0"/>
<feBlend mode="normal" in2="shape" result="effect2_innerShadow_1189_2664"/>
</filter>
<linearGradient id="paint0_linear_1189_2664" x1="267" y1="158" x2="198.094" y2="38.241" gradientUnits="userSpaceOnUse">
<stop stop-color="#818186"/>
<stop offset="0.897695" stop-color="#E4E4E7"/>
<stop offset="1" stop-color="white"/>
</linearGradient>
<linearGradient id="paint1_linear_1189_2664" x1="75.0508" y1="66.2481" x2="90.1003" y2="139.029" gradientUnits="userSpaceOnUse">
<stop stop-color="white" stop-opacity="0.4"/>
<stop offset="1" stop-color="white" stop-opacity="0"/>
</linearGradient>
<linearGradient id="paint2_linear_1189_2664" x1="160.106" y1="55.5346" x2="162.455" y2="117.071" gradientUnits="userSpaceOnUse">
<stop stop-color="#B6B6B6" stop-opacity="0.16"/>
<stop offset="1" stop-color="white" stop-opacity="0"/>
</linearGradient>
<linearGradient id="paint3_linear_1189_2664" x1="65.14" y1="81.335" x2="80.5525" y2="163.821" gradientUnits="userSpaceOnUse">
<stop stop-color="white" stop-opacity="0.4"/>
<stop offset="1" stop-color="white" stop-opacity="0"/>
</linearGradient>
<linearGradient id="paint4_linear_1189_2664" x1="161.565" y1="71.038" x2="162.871" y2="127.567" gradientUnits="userSpaceOnUse">
<stop stop-color="#C8C8C8" stop-opacity="0.16"/>
<stop offset="1" stop-color="white" stop-opacity="0"/>
</linearGradient>
<linearGradient id="paint5_linear_1189_2664" x1="29" y1="144" x2="118.196" y2="391.383" gradientUnits="userSpaceOnUse">
<stop stop-color="white"/>
<stop offset="0.128278" stop-color="white" stop-opacity="0.28"/>
<stop offset="0.348958" stop-color="#E4E4E7" stop-opacity="0.15"/>
<stop offset="0.776042" stop-color="#E4E4E7"/>
</linearGradient>
<linearGradient id="paint6_linear_1189_2664" x1="105" y1="26" x2="111.589" y2="153.624" gradientUnits="userSpaceOnUse">
<stop stop-color="white" stop-opacity="0.16"/>
<stop offset="1" stop-color="#9A9A9A" stop-opacity="0.53"/>
</linearGradient>
<linearGradient id="paint7_linear_1189_2664" x1="37.3585" y1="115.5" x2="106.32" y2="126.101" gradientUnits="userSpaceOnUse">
<stop stop-color="#D8D8DB"/>
<stop offset="1" stop-color="#C3C3C6"/>
</linearGradient>
<linearGradient id="paint8_linear_1189_2664" x1="73.4798" y1="116" x2="487.954" y2="141.831" gradientUnits="userSpaceOnUse">
<stop stop-color="#E4E4E7"/>
<stop offset="1" stop-color="#EDEDF0" stop-opacity="0.18"/>
</linearGradient>
<linearGradient id="paint9_linear_1189_2664" x1="190.208" y1="121.5" x2="297.494" y2="130.1" gradientUnits="userSpaceOnUse">
<stop stop-color="#FD366E"/>
<stop offset="1" stop-color="#FE9567"/>
</linearGradient>
<linearGradient id="paint10_linear_1189_2664" x1="195" y1="78" x2="327.644" y2="190.14" gradientUnits="userSpaceOnUse">
<stop stop-color="white" stop-opacity="0"/>
<stop offset="0.322917" stop-color="white" stop-opacity="0.843374"/>
<stop offset="0.432292" stop-color="white"/>
<stop offset="0.640625" stop-color="white" stop-opacity="0.807339"/>
<stop offset="1" stop-color="white" stop-opacity="0"/>
</linearGradient>
<linearGradient id="paint11_linear_1189_2664" x1="276.172" y1="144.861" x2="222.966" y2="197.053" gradientUnits="userSpaceOnUse">
<stop stop-color="white"/>
<stop offset="1" stop-color="white" stop-opacity="0"/>
</linearGradient>
<linearGradient id="paint12_linear_1189_2664" x1="276.172" y1="144.861" x2="222.966" y2="197.053" gradientUnits="userSpaceOnUse">
<stop stop-color="white"/>
<stop offset="1" stop-color="white" stop-opacity="0"/>
</linearGradient>
<linearGradient id="paint13_linear_1189_2664" x1="219.818" y1="105.364" x2="237" y2="155" gradientUnits="userSpaceOnUse">
<stop stop-color="#FD366E" stop-opacity="0.64"/>
<stop offset="1" stop-color="#FD366E" stop-opacity="0"/>
</linearGradient>
<clipPath id="clip0_1189_2664">
<rect width="351" height="215" fill="white"/>
</clipPath>
</defs>
</svg>
