<svg width="317" height="175" viewBox="0 0 317 175" fill="none" xmlns="http://www.w3.org/2000/svg">
<g opacity="0.6" filter="url(#filter0_b_496_3638)">
<rect x="33.1211" y="30.7373" width="251.877" height="41.5329" rx="8" transform="rotate(-3.35426 33.1211 30.7373)" fill="url(#paint0_linear_496_3638)" fill-opacity="0.16"/>
<rect x="33.6495" y="31.2072" width="250.877" height="40.5329" rx="7.5" transform="rotate(-3.35426 33.6495 31.2072)" stroke="url(#paint1_linear_496_3638)"/>
</g>
<g opacity="0.8" filter="url(#filter1_b_496_3638)">
<rect x="19.0547" y="45.0142" width="284.88" height="46.892" rx="8" transform="rotate(-2.2696 19.0547 45.0142)" fill="url(#paint2_linear_496_3638)" fill-opacity="0.16"/>
<rect x="19.5741" y="45.494" width="283.88" height="45.892" rx="7.5" transform="rotate(-2.2696 19.5741 45.494)" stroke="url(#paint3_linear_496_3638)"/>
</g>
<g filter="url(#filter2_b_496_3638)">
<rect x="9.125" y="60" width="302" height="49" rx="8" fill="url(#paint4_linear_496_3638)" fill-opacity="0.16"/>
<rect x="9.625" y="60.5" width="301" height="48" rx="7.5" stroke="url(#paint5_linear_496_3638)"/>
</g>
<rect x="27.125" y="79" width="35" height="12" rx="4" fill="url(#paint6_linear_496_3638)" fill-opacity="0.16"/>
<rect x="79.875" y="79" width="207" height="12" rx="4" fill="url(#paint7_linear_496_3638)" fill-opacity="0.24"/>
<rect x="198.875" y="77" width="56" height="16" fill="url(#paint8_linear_496_3638)" fill-opacity="0.9"/>
<g filter="url(#filter3_bdi_496_3638)">
<mask id="path-10-inside-1_496_3638" fill="white">
<path fill-rule="evenodd" clip-rule="evenodd" d="M185.387 90.3065C185.387 67.4935 203.88 49 226.693 49C249.506 49 268 67.4935 268 90.3065C268 99.998 264.662 108.91 259.073 115.956L276.607 133.489C279.265 136.147 279.265 140.456 276.607 143.114C273.949 145.772 269.639 145.772 266.981 143.114L248.966 125.099C242.54 129.222 234.896 131.613 226.693 131.613C203.88 131.613 185.387 113.119 185.387 90.3065ZM226.694 118.249C242.126 118.249 254.636 105.739 254.636 90.3065C254.636 74.8742 242.126 62.3639 226.694 62.3639C211.261 62.3639 198.751 74.8742 198.751 90.3065C198.751 105.739 211.261 118.249 226.694 118.249Z"/>
</mask>
<path fill-rule="evenodd" clip-rule="evenodd" d="M185.387 90.3065C185.387 67.4935 203.88 49 226.693 49C249.506 49 268 67.4935 268 90.3065C268 99.998 264.662 108.91 259.073 115.956L276.607 133.489C279.265 136.147 279.265 140.456 276.607 143.114C273.949 145.772 269.639 145.772 266.981 143.114L248.966 125.099C242.54 129.222 234.896 131.613 226.693 131.613C203.88 131.613 185.387 113.119 185.387 90.3065ZM226.694 118.249C242.126 118.249 254.636 105.739 254.636 90.3065C254.636 74.8742 242.126 62.3639 226.694 62.3639C211.261 62.3639 198.751 74.8742 198.751 90.3065C198.751 105.739 211.261 118.249 226.694 118.249Z" fill="url(#paint9_linear_496_3638)" fill-opacity="0.4" shape-rendering="crispEdges"/>
<path d="M259.073 115.956L258.878 115.8L258.739 115.975L258.897 116.132L259.073 115.956ZM276.607 133.489L276.43 133.666V133.666L276.607 133.489ZM248.966 125.099L249.143 124.923L249.001 124.78L248.831 124.889L248.966 125.099ZM226.693 48.75C203.742 48.75 185.137 67.3555 185.137 90.3065H185.637C185.637 67.6316 204.018 49.25 226.693 49.25V48.75ZM268.25 90.3065C268.25 67.3555 249.644 48.75 226.693 48.75V49.25C249.368 49.25 267.75 67.6316 267.75 90.3065H268.25ZM259.269 116.111C264.892 109.023 268.25 100.056 268.25 90.3065H267.75C267.75 99.9396 264.432 108.797 258.878 115.8L259.269 116.111ZM276.784 133.312L259.25 115.779L258.897 116.132L276.43 133.666L276.784 133.312ZM276.784 143.291C279.539 140.536 279.539 136.068 276.784 133.312L276.43 133.666C278.99 136.226 278.99 140.377 276.43 142.938L276.784 143.291ZM266.805 143.291C269.56 146.047 274.028 146.047 276.784 143.291L276.43 142.938C273.87 145.498 269.718 145.498 267.158 142.938L266.805 143.291ZM248.79 125.276L266.805 143.291L267.158 142.938L249.143 124.923L248.79 125.276ZM226.693 131.863C234.945 131.863 242.636 129.458 249.101 125.31L248.831 124.889C242.444 128.987 234.846 131.363 226.693 131.363V131.863ZM185.137 90.3065C185.137 113.257 203.742 131.863 226.693 131.863V131.363C204.018 131.363 185.637 112.981 185.637 90.3065H185.137ZM254.386 90.3065C254.386 105.601 241.988 117.999 226.694 117.999V118.499C242.264 118.499 254.886 105.877 254.886 90.3065H254.386ZM226.694 62.6139C241.988 62.6139 254.386 75.0123 254.386 90.3065H254.886C254.886 74.7361 242.264 62.1139 226.694 62.1139V62.6139ZM199.001 90.3065C199.001 75.0123 211.399 62.6139 226.694 62.6139V62.1139C211.123 62.1139 198.501 74.7361 198.501 90.3065H199.001ZM226.694 117.999C211.399 117.999 199.001 105.601 199.001 90.3065H198.501C198.501 105.877 211.123 118.499 226.694 118.499V117.999Z" fill="url(#paint10_linear_496_3638)" mask="url(#path-10-inside-1_496_3638)"/>
</g>
<ellipse cx="226.875" cy="90.5" rx="28" ry="28.5" fill="url(#paint11_linear_496_3638)" fill-opacity="0.4"/>
<defs>
<filter id="filter0_b_496_3638" x="-30.334" y="-47.4552" width="380.786" height="183.11" filterUnits="userSpaceOnUse" color-interpolation-filters="sRGB">
<feFlood flood-opacity="0" result="BackgroundImageFix"/>
<feGaussianBlur in="BackgroundImageFix" stdDeviation="32"/>
<feComposite in2="SourceAlpha" operator="in" result="effect1_backgroundBlur_496_3638"/>
<feBlend mode="normal" in="SourceGraphic" in2="effect1_backgroundBlur_496_3638" result="shape"/>
</filter>
<filter id="filter1_b_496_3638" x="-44.5586" y="-29.8804" width="413.739" height="185.363" filterUnits="userSpaceOnUse" color-interpolation-filters="sRGB">
<feFlood flood-opacity="0" result="BackgroundImageFix"/>
<feGaussianBlur in="BackgroundImageFix" stdDeviation="32"/>
<feComposite in2="SourceAlpha" operator="in" result="effect1_backgroundBlur_496_3638"/>
<feBlend mode="normal" in="SourceGraphic" in2="effect1_backgroundBlur_496_3638" result="shape"/>
</filter>
<filter id="filter2_b_496_3638" x="-54.875" y="-4" width="430" height="177" filterUnits="userSpaceOnUse" color-interpolation-filters="sRGB">
<feFlood flood-opacity="0" result="BackgroundImageFix"/>
<feGaussianBlur in="BackgroundImageFix" stdDeviation="32"/>
<feComposite in2="SourceAlpha" operator="in" result="effect1_backgroundBlur_496_3638"/>
<feBlend mode="normal" in="SourceGraphic" in2="effect1_backgroundBlur_496_3638" result="shape"/>
</filter>
<filter id="filter3_bdi_496_3638" x="180.053" y="43.6667" width="103.881" height="106.775" filterUnits="userSpaceOnUse" color-interpolation-filters="sRGB">
<feFlood flood-opacity="0" result="BackgroundImageFix"/>
<feGaussianBlur in="BackgroundImageFix" stdDeviation="2.66667"/>
<feComposite in2="SourceAlpha" operator="in" result="effect1_backgroundBlur_496_3638"/>
<feColorMatrix in="SourceAlpha" type="matrix" values="0 0 0 0 0 0 0 0 0 0 0 0 0 0 0 0 0 0 127 0" result="hardAlpha"/>
<feOffset dx="-2" dy="-2"/>
<feGaussianBlur stdDeviation="1"/>
<feComposite in2="hardAlpha" operator="out"/>
<feColorMatrix type="matrix" values="0 0 0 0 0 0 0 0 0 0 0 0 0 0 0 0 0 0 0.08 0"/>
<feBlend mode="normal" in2="effect1_backgroundBlur_496_3638" result="effect2_dropShadow_496_3638"/>
<feBlend mode="normal" in="SourceGraphic" in2="effect2_dropShadow_496_3638" result="shape"/>
<feColorMatrix in="SourceAlpha" type="matrix" values="0 0 0 0 0 0 0 0 0 0 0 0 0 0 0 0 0 0 127 0" result="hardAlpha"/>
<feOffset dy="4"/>
<feGaussianBlur stdDeviation="1.5"/>
<feComposite in2="hardAlpha" operator="arithmetic" k2="-1" k3="1"/>
<feColorMatrix type="matrix" values="0 0 0 0 1 0 0 0 0 1 0 0 0 0 1 0 0 0 0.08 0"/>
<feBlend mode="normal" in2="shape" result="effect3_innerShadow_496_3638"/>
</filter>
<linearGradient id="paint0_linear_496_3638" x1="64.9371" y1="33.6146" x2="75.7024" y2="107.151" gradientUnits="userSpaceOnUse">
<stop stop-color="white" stop-opacity="0.4"/>
<stop offset="1" stop-color="white" stop-opacity="0"/>
</linearGradient>
<linearGradient id="paint1_linear_496_3638" x1="150.502" y1="27.866" x2="149.673" y2="77.9411" gradientUnits="userSpaceOnUse">
<stop stop-color="white" stop-opacity="0.16"/>
<stop offset="1" stop-color="white" stop-opacity="0"/>
</linearGradient>
<linearGradient id="paint2_linear_496_3638" x1="55.0395" y1="48.2627" x2="67.1733" y2="131.294" gradientUnits="userSpaceOnUse">
<stop stop-color="white" stop-opacity="0.4"/>
<stop offset="1" stop-color="white" stop-opacity="0"/>
</linearGradient>
<linearGradient id="paint3_linear_496_3638" x1="151.816" y1="41.7723" x2="150.882" y2="98.3089" gradientUnits="userSpaceOnUse">
<stop stop-color="white" stop-opacity="0.16"/>
<stop offset="1" stop-color="white" stop-opacity="0"/>
</linearGradient>
<linearGradient id="paint4_linear_496_3638" x1="-80.125" y1="98.5" x2="-23.4358" y2="230.888" gradientUnits="userSpaceOnUse">
<stop stop-color="white"/>
<stop offset="0.447917" stop-color="white" stop-opacity="0.28"/>
<stop offset="1" stop-color="white" stop-opacity="0"/>
</linearGradient>
<linearGradient id="paint5_linear_496_3638" x1="149.865" y1="56.6124" x2="148.902" y2="115.691" gradientUnits="userSpaceOnUse">
<stop stop-color="white" stop-opacity="0.16"/>
<stop offset="1" stop-color="white" stop-opacity="0"/>
</linearGradient>
<linearGradient id="paint6_linear_496_3638" x1="24.3585" y1="79" x2="93.3198" y2="89.6008" gradientUnits="userSpaceOnUse">
<stop stop-color="white"/>
<stop offset="1" stop-color="white" stop-opacity="0.6"/>
</linearGradient>
<linearGradient id="paint7_linear_496_3638" x1="63.5129" y1="79" x2="474.052" y2="104.341" gradientUnits="userSpaceOnUse">
<stop stop-color="white"/>
<stop offset="0.0001" stop-color="#FFEBE2" stop-opacity="0.807292"/>
<stop offset="1" stop-color="white" stop-opacity="0.32"/>
</linearGradient>
<linearGradient id="paint8_linear_496_3638" x1="180.208" y1="85" x2="287.494" y2="93.5997" gradientUnits="userSpaceOnUse">
<stop stop-color="#FD366E"/>
<stop offset="1" stop-color="#FE9567"/>
</linearGradient>
<linearGradient id="paint9_linear_496_3638" x1="235.101" y1="43.3466" x2="201.025" y2="149.954" gradientUnits="userSpaceOnUse">
<stop stop-color="white" stop-opacity="0.4"/>
<stop offset="0.432292" stop-color="white" stop-opacity="0.4"/>
<stop offset="1" stop-color="white" stop-opacity="0"/>
</linearGradient>
<linearGradient id="paint10_linear_496_3638" x1="266.172" y1="108.361" x2="212.966" y2="160.553" gradientUnits="userSpaceOnUse">
<stop stop-color="white" stop-opacity="0.08"/>
<stop offset="1" stop-color="white" stop-opacity="0"/>
</linearGradient>
<linearGradient id="paint11_linear_496_3638" x1="209.693" y1="68.4773" x2="227.426" y2="118.806" gradientUnits="userSpaceOnUse">
<stop stop-color="#FD366E" stop-opacity="0.64"/>
<stop offset="1" stop-color="#FD366E" stop-opacity="0"/>
</linearGradient>
</defs>
</svg>
