<svg width="155" height="120" fill="none" xmlns="http://www.w3.org/2000/svg"><path d="m154.22 46.099-40.998 39.146-64.144-30.217L61.48 25.49l92.74 20.609Z" fill="url(#a)"/><path d="m113.594 84.854 4.034-48.893a6 6 0 0 0-4.343-6.266L44.44 10.181a1.57 1.57 0 0 0-1.995 1.392l-.958 12.486-2.52.504-1.007 13.1 2.771 4.409-1.007 17.382-25.49 23.294a2 2 0 0 0 .571 3.32l70.627 29.809c1.66.7 3.584.204 4.7-1.212l23.462-29.811Z" fill="url(#b)"/><path d="m87.408 114.051 24.492-30.16-72.114-24.776-25.673 23.082a1 1 0 0 0 .285 1.667l5.397 2.238 7.866 3.013 28.618 12.384 31.129 12.552Z" fill="url(#c)"/><path d="m89.042 107.214 14.451-18.153-65.29-24.213-14.615 13.838a2 2 0 0 0 .612 3.301l62.514 25.829a2 2 0 0 0 2.328-.602Z" fill="#fff"/><path d="m111.842 83.926 3.59-47.689a6 6 0 0 0-4.356-6.226l-65.609-18.48a2 2 0 0 0-2.54 1.835L40.87 59.115l70.971 24.811Z" fill="url(#d)"/><path d="m110.168 83.591 2.829-47.203a4 4 0 0 0-2.85-4.073L45.993 13.192a2 2 0 0 0-2.567 1.792l-.386 6.167-2.827 3.286-2.757 2.393v11.337l3.653 6.046-1.323 14.902 70.382 24.476Z" fill="url(#e)"/><path d="M101.567 95.305 35.384 69.137" stroke="url(#f)"/><path d="M98.588 99.015 32.396 71.842" stroke="url(#g)"/><path d="M96.62 103.384 28.755 76.227" stroke="url(#h)"/><path d="M93.298 106.093 26.102 78.929" stroke="url(#i)"/><path d="m91.427 84.687-14.57 17.206" stroke="url(#j)"/><path d="M87.72 82.044 73.15 99.249" stroke="url(#k)"/><path d="M82.34 79.415 67.77 96.621" stroke="url(#l)"/><path d="m77.298 77.119-14.57 17.205" stroke="url(#m)"/><path d="m71.594 75.498-14.57 17.205" stroke="url(#n)"/><path d="m67.218 72.86-14.57 17.205" stroke="url(#o)"/><path d="m61.847 71.236-14.57 17.205" stroke="url(#p)"/><path d="m53.801 69.971-7.284 8.603-7.285 8.603" stroke="url(#q)"/><path d="m47.073 66.351-7.285 8.603-7.284 8.602" stroke="url(#r)"/><path d="M103.434 90.945v-1.89l-13.02 15.424a6 6 0 0 1-6.872 1.676L22.304 80.914l-.074 1.468 62.284 25.616a5 5 0 0 0 5.724-1.401l13.196-15.652Z" fill="url(#s)"/><path d="M53.416 15.88a1.05 1.05 0 0 1-.075 1.488l-.798.716a1.027 1.027 0 0 1-1.404-1.497l.766-.75a1.05 1.05 0 0 1 1.511.043Z" fill="url(#t)" fill-opacity=".4"/><g filter="url(#u)"><mask id="w" fill="#fff"><ellipse rx="16.089" ry="22.93" transform="matrix(.82897 -.63026 .55176 .78176 51.155 39.041)"/></mask><path d="M47.913 41.507c1.501 2.127 1.72 3.893 1.709 4.378-.005.194-.033-.258.372-1.156.44-.978 1.322-2.29 2.778-3.397l22.07 31.27c10.56-8.028 14.366-19.794 14.6-29.393.236-9.673-2.885-19.14-8.37-26.913l-33.16 25.21Zm4.859-.175c1.456-1.107 2.926-1.583 3.958-1.724.947-.13 1.353.034 1.174-.02-.45-.135-2.005-.884-3.507-3.012L21.24 61.786c5.485 7.773 13.241 13.716 22.198 16.4 8.888 2.663 20.845 2.445 31.405-5.583l-22.07-31.27Zm1.625-4.756c-1.501-2.127-1.72-3.893-1.709-4.378.005-.194.033.258-.372 1.156-.44.978-1.322 2.29-2.778 3.397L27.468 5.48c-10.56 8.028-14.366 19.794-14.6 29.393-.236 9.673 2.885 19.14 8.37 26.913l33.16-25.21Zm-4.859.175c-1.456 1.107-2.926 1.583-3.958 1.724-.947.13-1.354-.034-1.174.02.449.134 2.005.884 3.507 3.012l33.158-25.21C75.585 8.523 67.83 2.58 58.873-.104 49.984-2.766 38.028-2.548 27.468 5.48l22.07 31.27Z" fill="url(#v)" mask="url(#w)"/><ellipse rx="11.318" ry="17.605" transform="matrix(.83887 -.61593 .53659 .7931 49.985 40.058)" fill="#F6F6FD"/><path transform="matrix(.90428 .33568 -.41702 .94641 68.622 47.386)" fill="url(#x)" d="M0 0h8.086v5.306H0z"/><path transform="matrix(.90428 .33568 -.41702 .94641 74.69 48.684)" fill="url(#y)" d="M0 0h23.267v6.834H0z"/><ellipse rx="1.137" ry="2.6" transform="matrix(.91688 .30592 -.38854 .95644 67.444 49.852)" fill="url(#z)"/><ellipse rx="1.464" ry="3.348" transform="matrix(.91688 .30592 -.38854 .95644 73.172 51.86)" fill="url(#A)"/><ellipse rx="1.923" ry="3.333" transform="matrix(.91688 .30592 -.38854 .95644 94.208 59.714)" fill="url(#B)"/><g style="mix-blend-mode:lighten" opacity=".79" fill="#fff"><path d="M43.279 41.565c-1.877.4-3.729-2.804-1.936-3.534 1.486-.606 2.264.708 3.177 1.676.82.87.57 1.471-1.241 1.858ZM47.02 48.662c-2.117-1.52-4.833-5.283-3.514-5.337 2.927-.118 4.466-.808 6.024 2.88.469 1.109 2.893 3.643 2.587 4.409-.304.765-3.448-.77-5.096-1.952Z"/></g></g><defs><radialGradient id="f" cx="0" cy="0" r="1" gradientUnits="userSpaceOnUse" gradientTransform="matrix(.1233 13.38803 -32.968 .30365 68.475 82.221)"><stop stop-color="#E8E9F0"/><stop offset="1" stop-color="#F7F7F7" stop-opacity="0"/></radialGradient><radialGradient id="g" cx="0" cy="0" r="1" gradientUnits="userSpaceOnUse" gradientTransform="rotate(89.472 -10.363 75.763) scale(13.8907 32.9694)"><stop stop-color="#E8E9F0"/><stop offset="1" stop-color="#F7F7F7" stop-opacity="0"/></radialGradient><radialGradient id="h" cx="0" cy="0" r="1" gradientUnits="userSpaceOnUse" gradientTransform="rotate(89.472 -13.974 76.537) scale(13.8907 33.8062)"><stop stop-color="#E8E9F0"/><stop offset="1" stop-color="#F7F7F7" stop-opacity="0"/></radialGradient><radialGradient id="i" cx="0" cy="0" r="1" gradientUnits="userSpaceOnUse" gradientTransform="rotate(89.472 -16.834 76.381) scale(13.8907 33.4715)"><stop stop-color="#E8E9F0"/><stop offset="1" stop-color="#F7F7F7" stop-opacity="0"/></radialGradient><radialGradient id="j" cx="0" cy="0" r="1" gradientUnits="userSpaceOnUse" gradientTransform="matrix(.0786 8.53486 -7.3634 .06782 84.142 93.29)"><stop stop-color="#E8E9F0"/><stop offset="1" stop-color="#F7F7F7" stop-opacity="0"/></radialGradient><radialGradient id="k" cx="0" cy="0" r="1" gradientUnits="userSpaceOnUse" gradientTransform="matrix(.0786 8.53486 -7.3634 .06782 80.435 90.646)"><stop stop-color="#E8E9F0"/><stop offset="1" stop-color="#F7F7F7" stop-opacity="0"/></radialGradient><radialGradient id="l" cx="0" cy="0" r="1" gradientUnits="userSpaceOnUse" gradientTransform="matrix(.0786 8.53486 -7.3634 .06782 75.055 88.018)"><stop stop-color="#E8E9F0"/><stop offset="1" stop-color="#F7F7F7" stop-opacity="0"/></radialGradient><radialGradient id="m" cx="0" cy="0" r="1" gradientUnits="userSpaceOnUse" gradientTransform="rotate(89.472 -8.25 78.191) scale(8.53522 7.36372)"><stop stop-color="#E8E9F0"/><stop offset="1" stop-color="#F7F7F7" stop-opacity="0"/></radialGradient><radialGradient id="n" cx="0" cy="0" r="1" gradientUnits="userSpaceOnUse" gradientTransform="matrix(.0786 8.53486 -7.3634 .06782 64.309 84.1)"><stop stop-color="#E8E9F0"/><stop offset="1" stop-color="#F7F7F7" stop-opacity="0"/></radialGradient><radialGradient id="o" cx="0" cy="0" r="1" gradientUnits="userSpaceOnUse" gradientTransform="matrix(.0786 8.53486 -7.3634 .06782 59.933 81.463)"><stop stop-color="#E8E9F0"/><stop offset="1" stop-color="#F7F7F7" stop-opacity="0"/></radialGradient><radialGradient id="p" cx="0" cy="0" r="1" gradientUnits="userSpaceOnUse" gradientTransform="matrix(.0786 8.53486 -7.3634 .06782 54.562 79.839)"><stop stop-color="#E8E9F0"/><stop offset="1" stop-color="#F7F7F7" stop-opacity="0"/></radialGradient><radialGradient id="q" cx="0" cy="0" r="1" gradientUnits="userSpaceOnUse" gradientTransform="matrix(.0786 8.53486 -7.3634 .06782 46.517 78.574)"><stop stop-color="#E8E9F0"/><stop offset="1" stop-color="#F7F7F7" stop-opacity="0"/></radialGradient><radialGradient id="r" cx="0" cy="0" r="1" gradientUnits="userSpaceOnUse" gradientTransform="matrix(.0786 8.53486 -7.3634 .06782 39.788 74.954)"><stop stop-color="#E8E9F0"/><stop offset="1" stop-color="#F7F7F7" stop-opacity="0"/></radialGradient><linearGradient id="a" x1="81.938" y1="96.618" x2="125.649" y2="61.843" gradientUnits="userSpaceOnUse"><stop stop-color="#798196"/><stop offset="1" stop-color="#fff" stop-opacity="0"/></linearGradient><linearGradient id="b" x1="133.101" y1="113.154" x2="-120.025" y2="121.054" gradientUnits="userSpaceOnUse"><stop stop-color="#C4C6D7"/><stop offset=".342" stop-color="#E8E8F1"/><stop offset="1" stop-color="#FCFCFF"/></linearGradient><linearGradient id="c" x1="16.875" y1="35.559" x2="186.189" y2="292.793" gradientUnits="userSpaceOnUse"><stop stop-color="#FAFAFF"/><stop offset="1" stop-color="#FAFAFF" stop-opacity="0"/></linearGradient><linearGradient id="d" x1="106.595" y1="60.564" x2="-21.23" y2="60.591" gradientUnits="userSpaceOnUse"><stop stop-color="#E8E8F1"/><stop offset="1" stop-color="#FCFCFF"/></linearGradient><linearGradient id="e" x1="-22.247" y1="-48.046" x2="83.204" y2="58.006" gradientUnits="userSpaceOnUse"><stop stop-color="#E8E8F1"/><stop offset="1" stop-color="#FCFCFF"/></linearGradient><linearGradient id="s" x1="87.341" y1="113.38" x2="-2.963" y2="56.7" gradientUnits="userSpaceOnUse"><stop stop-color="#C4C6D7"/><stop offset=".442" stop-color="#E8E8F1"/><stop offset="1" stop-color="#EBEBEB" stop-opacity="0"/></linearGradient><linearGradient id="t" x1="50.816" y1="14.27" x2="53.304" y2="18.657" gradientUnits="userSpaceOnUse"><stop stop-color="#E6ECEF"/><stop offset="1" stop-color="#E6ECEF" stop-opacity="0"/><stop offset="1" stop-color="#EAF4FA" stop-opacity="0"/></linearGradient><linearGradient id="v" x1="84.819" y1="44.087" x2="37.963" y2="55.293" gradientUnits="userSpaceOnUse"><stop stop-color="#B6B9D0"/><stop offset="1" stop-color="#E9E9F1"/></linearGradient><linearGradient id="x" x1="4.043" y1="0" x2="4.043" y2="5.306" gradientUnits="userSpaceOnUse"><stop stop-color="#FEFEFE"/><stop offset="1" stop-color="#E5E6EF"/></linearGradient><linearGradient id="y" x1="11.634" y1="0" x2="11.634" y2="6.834" gradientUnits="userSpaceOnUse"><stop stop-color="#EDEDF6"/><stop offset="1" stop-color="#C9CBDD"/></linearGradient><linearGradient id="z" x1="1.137" y1="0" x2="1.137" y2="5.2" gradientUnits="userSpaceOnUse"><stop stop-color="#FEFEFE"/><stop offset="1" stop-color="#E5E6EF"/></linearGradient><linearGradient id="A" x1="1.464" y1="0" x2="1.464" y2="6.697" gradientUnits="userSpaceOnUse"><stop stop-color="#EDEDF6"/><stop offset="1" stop-color="#D9D9E6"/></linearGradient><linearGradient id="B" x1="1.923" y1="0" x2="1.923" y2="6.666" gradientUnits="userSpaceOnUse"><stop stop-color="#C9CBDB"/><stop offset="1" stop-color="#DCDCE8"/></linearGradient><filter id="u" x=".771" y="2.443" width="127.625" height="108.519" filterUnits="userSpaceOnUse" color-interpolation-filters="sRGB"><feFlood flood-opacity="0" result="BackgroundImageFix"/><feColorMatrix in="SourceAlpha" values="0 0 0 0 0 0 0 0 0 0 0 0 0 0 0 0 0 0 127 0" result="hardAlpha"/><feOffset dy="16"/><feGaussianBlur stdDeviation="16"/><feColorMatrix values="0 0 0 0 0.215686 0 0 0 0 0.231373 0 0 0 0 0.301961 0 0 0 0.02 0"/><feBlend in2="BackgroundImageFix" result="effect1_dropShadow_5537_63807"/><feBlend in="SourceGraphic" in2="effect1_dropShadow_5537_63807" result="shape"/></filter></defs></svg>