<svg width="1170" height="292" viewBox="0 0 1170 292" fill="none" xmlns="http://www.w3.org/2000/svg">
<path d="M122.727 20.2045C125.269 20.2045 127.33 18.144 127.33 15.6023C127.33 13.0605 125.269 11 122.727 11C120.186 11 118.125 13.0605 118.125 15.6023C118.125 18.144 120.186 20.2045 122.727 20.2045Z" fill="white"/>
<path d="M170.284 18.6705C171.979 18.6705 173.352 17.2968 173.352 15.6023C173.352 13.9078 171.979 12.5341 170.284 12.5341C168.59 12.5341 167.216 13.9078 167.216 15.6023C167.216 17.2968 168.59 18.6705 170.284 18.6705Z" fill="white"/>
<path d="M56.7614 40.1477C56.7614 42.6895 54.7009 44.75 52.1591 44.75C49.6173 44.75 47.5568 42.6895 47.5568 40.1477C47.5568 37.606 49.6173 35.5455 52.1591 35.5455C54.7009 35.5455 56.7614 37.606 56.7614 40.1477Z" fill="white"/>
<path fill-rule="evenodd" clip-rule="evenodd" d="M62.8977 87.7045C62.8977 80.0793 69.0793 73.8977 76.7045 73.8977C70.7738 73.8977 65.9659 69.0899 65.9659 63.1591C65.9659 57.2283 70.7738 52.4205 76.7045 52.4205C82.6353 52.4205 87.4432 57.2283 87.4432 63.1591C87.4432 56.3811 92.9379 50.8864 99.7159 50.8864C104.262 50.8864 108.231 53.3581 110.352 57.031C111.733 54.2462 114.027 51.9942 116.842 50.6657C113.919 48.7469 111.989 45.4398 111.989 41.6818C111.989 35.751 116.796 30.9432 122.727 30.9432C128.658 30.9432 133.466 35.751 133.466 41.6818C133.466 45.4398 131.536 48.7469 128.612 50.6657C131.359 51.9617 133.609 54.1366 135 56.8276C136.391 54.1366 138.641 51.9617 141.388 50.6657C138.464 48.7469 136.534 45.4398 136.534 41.6818C136.534 35.751 141.342 30.9432 147.273 30.9432C153.204 30.9432 158.011 35.751 158.011 41.6818C158.011 45.4398 156.081 48.7469 153.158 50.6657C155.973 51.9942 158.267 54.2462 159.648 57.031C161.769 53.3581 165.738 50.8864 170.284 50.8864C177.062 50.8864 182.557 56.3811 182.557 63.1591C182.557 66.7513 181.013 69.983 178.554 72.2274C180.964 73.2776 183.081 74.8742 184.748 76.8606C187.099 75.0051 190.068 73.8977 193.295 73.8977C200.921 73.8977 207.102 80.0793 207.102 87.7045C207.102 91.3011 205.727 94.5764 203.474 97.0335C205.387 98.8783 206.865 101.171 207.741 103.742C209.955 100.541 213.653 98.4432 217.841 98.4432C224.619 98.4432 230.114 103.938 230.114 110.716C230.114 115.262 227.642 119.231 223.969 121.352C227.278 122.993 229.835 125.923 230.984 129.486C232.629 125.664 236.428 122.989 240.852 122.989C246.783 122.989 251.591 127.796 251.591 133.727C251.591 139.658 246.783 144.466 240.852 144.466C236.428 144.466 232.629 141.79 230.984 137.969C229.859 141.458 227.383 144.34 224.172 146C227.383 147.66 229.859 150.542 230.984 154.031C232.629 150.21 236.428 147.534 240.852 147.534C246.783 147.534 251.591 152.342 251.591 158.273C251.591 164.204 246.783 169.011 240.852 169.011C236.428 169.011 232.629 166.336 230.984 162.514C229.835 166.077 227.278 169.007 223.969 170.648C227.642 172.769 230.114 176.738 230.114 181.284C230.114 188.062 224.619 193.557 217.841 193.557C213.653 193.557 209.955 191.459 207.741 188.258C206.865 190.829 205.387 193.122 203.474 194.967C205.727 197.424 207.102 200.699 207.102 204.295C207.102 211.921 200.921 218.102 193.295 218.102C190.068 218.102 187.099 216.995 184.748 215.139C183.081 217.126 180.964 218.722 178.554 219.773C181.013 222.017 182.557 225.249 182.557 228.841C182.557 235.619 177.062 241.114 170.284 241.114C165.738 241.114 161.769 238.642 159.648 234.969C158.267 237.754 155.973 240.006 153.158 241.334C156.081 243.253 158.011 246.56 158.011 250.318C158.011 256.249 153.204 261.057 147.273 261.057C141.342 261.057 136.534 256.249 136.534 250.318C136.534 246.56 138.464 243.253 141.388 241.334C138.641 240.038 136.391 237.863 135 235.172C133.609 237.863 131.359 240.038 128.612 241.334C131.536 243.253 133.466 246.56 133.466 250.318C133.466 256.249 128.658 261.057 122.727 261.057C116.796 261.057 111.989 256.249 111.989 250.318C111.989 246.56 113.919 243.253 116.842 241.334C114.027 240.006 111.733 237.754 110.352 234.969C108.231 238.642 104.262 241.114 99.7159 241.114C92.9379 241.114 87.4432 235.619 87.4432 228.841C87.4432 225.249 88.9865 222.017 91.4463 219.773C89.0364 218.722 86.9194 217.126 85.2517 215.139C82.9008 216.995 79.932 218.102 76.7045 218.102C69.0793 218.102 62.8977 211.921 62.8977 204.295C62.8977 201.068 64.0051 198.099 65.8606 195.748C63.8742 194.081 62.2776 191.964 61.2274 189.554C58.983 192.013 55.7513 193.557 52.1591 193.557C45.381 193.557 39.8864 188.062 39.8864 181.284C39.8864 176.738 42.3581 172.769 46.031 170.648C42.7218 169.007 40.1649 166.077 39.0161 162.514C37.3714 166.336 33.572 169.011 29.1477 169.011C23.2169 169.011 18.4091 164.204 18.4091 158.273C18.4091 152.342 23.2169 147.534 29.1477 147.534C33.572 147.534 37.3714 150.21 39.0161 154.031C40.1413 150.542 42.6172 147.66 45.8276 146C42.6172 144.34 40.1413 141.458 39.0161 137.969C37.3714 141.79 33.572 144.466 29.1477 144.466C23.2169 144.466 18.4091 139.658 18.4091 133.727C18.4091 127.796 23.2169 122.989 29.1477 122.989C33.572 122.989 37.3714 125.664 39.0161 129.486C40.1649 125.923 42.7218 122.993 46.031 121.352C42.3581 119.231 39.8864 115.262 39.8864 110.716C39.8864 103.938 45.3811 98.4432 52.1591 98.4432C55.7513 98.4432 58.983 99.9865 61.2274 102.446C62.2776 100.036 63.8742 97.9194 65.8606 96.2517C64.0051 93.9008 62.8977 90.932 62.8977 87.7045ZM76.7045 73.8977C82.6353 73.8977 87.4432 69.0899 87.4432 63.1591C87.4432 66.7513 88.9865 69.983 91.4462 72.2274C89.0364 73.2776 86.9194 74.8742 85.2517 76.8606C82.9008 75.0051 79.932 73.8977 76.7045 73.8977ZM135 202.761C166.348 202.761 191.761 177.348 191.761 146C191.761 114.652 166.348 89.2386 135 89.2386C103.652 89.2386 78.2386 114.652 78.2386 146C78.2386 177.348 103.652 202.761 135 202.761Z" fill="white"/>
<path d="M62.8977 87.7045C62.8977 81.7738 58.0899 76.9659 52.1591 76.9659C46.2283 76.9659 41.4205 81.7738 41.4205 87.7045C41.4205 93.6353 46.2283 98.4432 52.1591 98.4432C58.0899 98.4432 62.8977 93.6353 62.8977 87.7045Z" fill="white"/>
<path d="M52.1591 193.557C46.2283 193.557 41.4205 198.365 41.4205 204.295C41.4205 210.226 46.2283 215.034 52.1591 215.034C58.0899 215.034 62.8977 210.226 62.8977 204.295C62.8977 198.365 58.0899 193.557 52.1591 193.557Z" fill="white"/>
<path d="M76.7045 218.102C82.6353 218.102 87.4432 222.91 87.4432 228.841C87.4432 234.772 82.6353 239.58 76.7045 239.58C70.7738 239.58 65.9659 234.772 65.9659 228.841C65.9659 222.91 70.7738 218.102 76.7045 218.102Z" fill="white"/>
<path d="M182.557 228.841C182.557 222.91 187.365 218.102 193.295 218.102C199.226 218.102 204.034 222.91 204.034 228.841C204.034 234.772 199.226 239.58 193.295 239.58C187.365 239.58 182.557 234.772 182.557 228.841Z" fill="white"/>
<path d="M207.102 204.295C207.102 210.226 211.91 215.034 217.841 215.034C223.772 215.034 228.58 210.226 228.58 204.295C228.58 198.365 223.772 193.557 217.841 193.557C211.91 193.557 207.102 198.365 207.102 204.295Z" fill="white"/>
<path d="M217.841 98.4432C211.91 98.4432 207.102 93.6353 207.102 87.7045C207.102 81.7738 211.91 76.9659 217.841 76.9659C223.772 76.9659 228.58 81.7738 228.58 87.7045C228.58 93.6353 223.772 98.4432 217.841 98.4432Z" fill="white"/>
<path d="M193.295 73.8977C199.226 73.8977 204.034 69.0899 204.034 63.1591C204.034 57.2283 199.226 52.4205 193.295 52.4205C187.365 52.4205 182.557 57.2283 182.557 63.1591C182.557 69.0899 187.365 73.8977 193.295 73.8977Z" fill="white"/>
<path d="M52.1591 70.8295C56.3954 70.8295 59.8295 67.3954 59.8295 63.1591C59.8295 58.9228 56.3954 55.4886 52.1591 55.4886C47.9228 55.4886 44.4886 58.9228 44.4886 63.1591C44.4886 67.3954 47.9228 70.8295 52.1591 70.8295Z" fill="white"/>
<path d="M52.1591 221.17C56.3954 221.17 59.8295 224.605 59.8295 228.841C59.8295 233.077 56.3954 236.511 52.1591 236.511C47.9228 236.511 44.4886 233.077 44.4886 228.841C44.4886 224.605 47.9228 221.17 52.1591 221.17Z" fill="white"/>
<path d="M56.7614 251.852C56.7614 254.394 54.7009 256.455 52.1591 256.455C49.6173 256.455 47.5568 254.394 47.5568 251.852C47.5568 249.31 49.6173 247.25 52.1591 247.25C54.7009 247.25 56.7614 249.31 56.7614 251.852Z" fill="white"/>
<path d="M222.443 40.1477C222.443 42.6895 220.383 44.75 217.841 44.75C215.299 44.75 213.239 42.6895 213.239 40.1477C213.239 37.606 215.299 35.5455 217.841 35.5455C220.383 35.5455 222.443 37.606 222.443 40.1477Z" fill="white"/>
<path d="M222.443 251.852C222.443 254.394 220.383 256.455 217.841 256.455C215.299 256.455 213.239 254.394 213.239 251.852C213.239 249.31 215.299 247.25 217.841 247.25C220.383 247.25 222.443 249.31 222.443 251.852Z" fill="white"/>
<path d="M170.284 273.33C171.979 273.33 173.352 274.703 173.352 276.398C173.352 278.092 171.979 279.466 170.284 279.466C168.59 279.466 167.216 278.092 167.216 276.398C167.216 274.703 168.59 273.33 170.284 273.33Z" fill="white"/>
<path d="M99.7159 18.6705C101.41 18.6705 102.784 17.2968 102.784 15.6023C102.784 13.9078 101.41 12.5341 99.7159 12.5341C98.0214 12.5341 96.6477 13.9078 96.6477 15.6023C96.6477 17.2968 98.0214 18.6705 99.7159 18.6705Z" fill="white"/>
<path d="M99.7159 273.33C101.41 273.33 102.784 274.703 102.784 276.398C102.784 278.092 101.41 279.466 99.7159 279.466C98.0214 279.466 96.6477 278.092 96.6477 276.398C96.6477 274.703 98.0214 273.33 99.7159 273.33Z" fill="white"/>
<path d="M127.33 276.398C127.33 273.856 125.269 271.795 122.727 271.795C120.186 271.795 118.125 273.856 118.125 276.398C118.125 278.939 120.186 281 122.727 281C125.269 281 127.33 278.939 127.33 276.398Z" fill="white"/>
<path d="M151.875 15.6023C151.875 18.144 149.814 20.2045 147.273 20.2045C144.731 20.2045 142.67 18.144 142.67 15.6023C142.67 13.0605 144.731 11 147.273 11C149.814 11 151.875 13.0605 151.875 15.6023Z" fill="white"/>
<path d="M4.60227 107.648C6.29678 107.648 7.67045 109.021 7.67045 110.716C7.67045 112.41 6.29678 113.784 4.60227 113.784C2.90776 113.784 1.53409 112.41 1.53409 110.716C1.53409 109.021 2.90776 107.648 4.60227 107.648Z" fill="white"/>
<path d="M4.60227 178.216C6.29678 178.216 7.67045 179.59 7.67045 181.284C7.67045 182.979 6.29678 184.352 4.60227 184.352C2.90776 184.352 1.53409 182.979 1.53409 181.284C1.53409 179.59 2.90776 178.216 4.60227 178.216Z" fill="white"/>
<path d="M4.60227 153.67C7.14404 153.67 9.20455 155.731 9.20455 158.273C9.20455 160.814 7.14404 162.875 4.60227 162.875C2.06051 162.875 0 160.814 0 158.273C0 155.731 2.06051 153.67 4.60227 153.67Z" fill="white"/>
<path d="M4.60227 129.125C7.14404 129.125 9.20455 131.186 9.20455 133.727C9.20455 136.269 7.14404 138.33 4.60227 138.33C2.06051 138.33 0 136.269 0 133.727C0 131.186 2.06051 129.125 4.60227 129.125Z" fill="white"/>
<path d="M265.398 107.648C267.092 107.648 268.466 109.021 268.466 110.716C268.466 112.41 267.092 113.784 265.398 113.784C263.703 113.784 262.33 112.41 262.33 110.716C262.33 109.021 263.703 107.648 265.398 107.648Z" fill="white"/>
<path d="M265.398 178.216C267.092 178.216 268.466 179.59 268.466 181.284C268.466 182.979 267.092 184.352 265.398 184.352C263.703 184.352 262.33 182.979 262.33 181.284C262.33 179.59 263.703 178.216 265.398 178.216Z" fill="white"/>
<path d="M265.398 153.67C267.939 153.67 270 155.731 270 158.273C270 160.814 267.939 162.875 265.398 162.875C262.856 162.875 260.795 160.814 260.795 158.273C260.795 155.731 262.856 153.67 265.398 153.67Z" fill="white"/>
<path d="M265.398 129.125C267.939 129.125 270 131.186 270 133.727C270 136.269 267.939 138.33 265.398 138.33C262.856 138.33 260.795 136.269 260.795 133.727C260.795 131.186 262.856 129.125 265.398 129.125Z" fill="white"/>
<path d="M151.875 276.398C151.875 273.856 149.814 271.795 147.273 271.795C144.731 271.795 142.67 273.856 142.67 276.398C142.67 278.939 144.731 281 147.273 281C149.814 281 151.875 278.939 151.875 276.398Z" fill="white"/>
<path d="M35.2841 87.7045C35.2841 91.0936 32.5367 93.8409 29.1477 93.8409C25.7587 93.8409 23.0114 91.0936 23.0114 87.7045C23.0114 84.3155 25.7587 81.5682 29.1477 81.5682C32.5367 81.5682 35.2841 84.3155 35.2841 87.7045Z" fill="white"/>
<path d="M35.2841 204.295C35.2841 200.906 32.5367 198.159 29.1477 198.159C25.7587 198.159 23.0114 200.906 23.0114 204.295C23.0114 207.684 25.7587 210.432 29.1477 210.432C32.5367 210.432 35.2841 207.684 35.2841 204.295Z" fill="white"/>
<path d="M246.989 87.7045C246.989 91.0936 244.241 93.8409 240.852 93.8409C237.463 93.8409 234.716 91.0936 234.716 87.7045C234.716 84.3155 237.463 81.5682 240.852 81.5682C244.241 81.5682 246.989 84.3155 246.989 87.7045Z" fill="white"/>
<path d="M246.989 204.295C246.989 200.906 244.241 198.159 240.852 198.159C237.463 198.159 234.716 200.906 234.716 204.295C234.716 207.684 237.463 210.432 240.852 210.432C244.241 210.432 246.989 207.684 246.989 204.295Z" fill="white"/>
<path d="M245.455 63.1591C245.455 65.7009 243.394 67.7614 240.852 67.7614C238.31 67.7614 236.25 65.7009 236.25 63.1591C236.25 60.6173 238.31 58.5568 240.852 58.5568C243.394 58.5568 245.455 60.6173 245.455 63.1591Z" fill="white"/>
<path d="M245.455 228.841C245.455 226.299 243.394 224.239 240.852 224.239C238.31 224.239 236.25 226.299 236.25 228.841C236.25 231.383 238.31 233.443 240.852 233.443C243.394 233.443 245.455 231.383 245.455 228.841Z" fill="white"/>
<path d="M33.75 63.1591C33.75 65.7009 31.6895 67.7614 29.1477 67.7614C26.606 67.7614 24.5455 65.7009 24.5455 63.1591C24.5455 60.6173 26.606 58.5568 29.1477 58.5568C31.6895 58.5568 33.75 60.6173 33.75 63.1591Z" fill="white"/>
<path d="M33.75 228.841C33.75 226.299 31.6895 224.239 29.1477 224.239C26.606 224.239 24.5455 226.299 24.5455 228.841C24.5455 231.383 26.606 233.443 29.1477 233.443C31.6895 233.443 33.75 231.383 33.75 228.841Z" fill="white"/>
<path d="M225.511 63.1591C225.511 67.3954 222.077 70.8295 217.841 70.8295C213.605 70.8295 210.17 67.3954 210.17 63.1591C210.17 58.9228 213.605 55.4886 217.841 55.4886C222.077 55.4886 225.511 58.9228 225.511 63.1591Z" fill="white"/>
<path d="M225.511 228.841C225.511 224.605 222.077 221.17 217.841 221.17C213.605 221.17 210.17 224.605 210.17 228.841C210.17 233.077 213.605 236.511 217.841 236.511C222.077 236.511 225.511 233.077 225.511 228.841Z" fill="white"/>
<path d="M108.92 40.1477C108.92 45.2313 104.799 49.3523 99.7159 49.3523C94.6324 49.3523 90.5114 45.2313 90.5114 40.1477C90.5114 35.0642 94.6324 30.9432 99.7159 30.9432C104.799 30.9432 108.92 35.0642 108.92 40.1477Z" fill="white"/>
<path d="M108.92 251.852C108.92 246.769 104.799 242.648 99.7159 242.648C94.6324 242.648 90.5114 246.769 90.5114 251.852C90.5114 256.936 94.6324 261.057 99.7159 261.057C104.799 261.057 108.92 256.936 108.92 251.852Z" fill="white"/>
<path d="M29.1477 119.92C34.2313 119.92 38.3523 115.799 38.3523 110.716C38.3523 105.632 34.2313 101.511 29.1477 101.511C24.0642 101.511 19.9432 105.632 19.9432 110.716C19.9432 115.799 24.0642 119.92 29.1477 119.92Z" fill="white"/>
<path d="M240.852 119.92C245.936 119.92 250.057 115.799 250.057 110.716C250.057 105.632 245.936 101.511 240.852 101.511C235.769 101.511 231.648 105.632 231.648 110.716C231.648 115.799 235.769 119.92 240.852 119.92Z" fill="white"/>
<path d="M82.8409 40.1477C82.8409 43.5367 80.0936 46.2841 76.7045 46.2841C73.3155 46.2841 70.5682 43.5367 70.5682 40.1477C70.5682 36.7587 73.3155 34.0114 76.7045 34.0114C80.0936 34.0114 82.8409 36.7587 82.8409 40.1477Z" fill="white"/>
<path d="M82.8409 251.852C82.8409 248.463 80.0936 245.716 76.7045 245.716C73.3155 245.716 70.5682 248.463 70.5682 251.852C70.5682 255.241 73.3155 257.989 76.7045 257.989C80.0936 257.989 82.8409 255.241 82.8409 251.852Z" fill="white"/>
<path d="M199.432 40.1477C199.432 43.5367 196.684 46.2841 193.295 46.2841C189.906 46.2841 187.159 43.5367 187.159 40.1477C187.159 36.7587 189.906 34.0114 193.295 34.0114C196.684 34.0114 199.432 36.7587 199.432 40.1477Z" fill="white"/>
<path d="M199.432 251.852C199.432 248.463 196.684 245.716 193.295 245.716C189.906 245.716 187.159 248.463 187.159 251.852C187.159 255.241 189.906 257.989 193.295 257.989C196.684 257.989 199.432 255.241 199.432 251.852Z" fill="white"/>
<path d="M179.489 40.1477C179.489 45.2313 175.368 49.3523 170.284 49.3523C165.201 49.3523 161.08 45.2313 161.08 40.1477C161.08 35.0642 165.201 30.9432 170.284 30.9432C175.368 30.9432 179.489 35.0642 179.489 40.1477Z" fill="white"/>
<path d="M179.489 251.852C179.489 246.769 175.368 242.648 170.284 242.648C165.201 242.648 161.08 246.769 161.08 251.852C161.08 256.936 165.201 261.057 170.284 261.057C175.368 261.057 179.489 256.936 179.489 251.852Z" fill="white"/>
<path d="M29.1477 190.489C34.2313 190.489 38.3523 186.368 38.3523 181.284C38.3523 176.201 34.2313 172.08 29.1477 172.08C24.0642 172.08 19.9432 176.201 19.9432 181.284C19.9432 186.368 24.0642 190.489 29.1477 190.489Z" fill="white"/>
<path d="M240.852 190.489C245.936 190.489 250.057 186.368 250.057 181.284C250.057 176.201 245.936 172.08 240.852 172.08C235.769 172.08 231.648 176.201 231.648 181.284C231.648 186.368 235.769 190.489 240.852 190.489Z" fill="white"/>
<path d="M1106.03 231.675C1064.38 231.675 1040.86 202.52 1040.86 165.035C1040.86 127.795 1066.09 98.885 1102.84 98.885C1143.27 98.885 1164.83 129.755 1164.83 174.59H1073.69C1076.14 193.945 1086.92 205.95 1105.78 205.95C1118.77 205.95 1126.36 200.07 1130.04 190.515H1162.87C1158.21 212.81 1138.37 231.675 1106.03 231.675ZM1103.33 124.61C1085.69 124.61 1077.12 135.145 1074.18 151.56H1130.04C1129.06 135.635 1118.52 124.61 1103.33 124.61Z" fill="white"/>
<path d="M950.004 102.315V119.465H950.739C959.314 105.99 970.829 98.885 987.979 98.885C1013.95 98.885 1031.34 118.485 1031.34 145.925V228H998.024V150.825C998.024 137.35 990.184 127.795 976.219 127.795C961.519 127.795 950.739 139.555 950.739 156.705V228H917.419V102.315H950.004Z" fill="white"/>
<path d="M867.529 228V102.315H900.849V228H867.529ZM867.529 82.715V52.825H900.849V82.715H867.529Z" fill="white"/>
<path d="M790.704 270.875C756.404 270.875 735.334 256.175 731.904 231.675H764.979C767.674 239.515 774.779 245.64 790.214 245.64C809.079 245.64 818.144 236.575 818.144 219.425V205.705H817.409C810.059 214.035 800.504 220.405 784.579 220.405C756.649 220.405 729.209 198.355 729.209 160.38C729.209 122.895 751.749 98.885 783.599 98.885C799.279 98.885 810.794 105.01 818.389 115.545H818.879V102.315H850.974V218.445C850.974 236.085 845.339 248.09 836.029 256.665C825.494 266.465 809.324 270.875 790.704 270.875ZM790.214 193.7C811.284 193.7 819.859 178.265 819.859 159.645C819.859 141.27 810.059 125.59 789.969 125.59C773.064 125.59 761.794 138.82 761.794 159.89C761.794 181.205 773.064 193.7 790.214 193.7Z" fill="white"/>
<path d="M691.366 228C689.406 225.55 688.181 219.67 687.446 214.035H686.956C680.586 223.59 671.521 230.94 649.961 230.94C624.236 230.94 606.106 217.465 606.106 192.475C606.106 164.79 628.646 155.97 656.576 152.05C677.401 149.11 686.956 147.395 686.956 137.84C686.956 128.775 679.851 122.895 665.886 122.895C650.206 122.895 642.611 128.53 641.631 140.535H611.986C612.966 118.485 629.381 99.13 666.131 99.13C703.861 99.13 719.051 116.035 719.051 145.435V209.38C719.051 218.935 720.521 224.57 723.461 226.775V228H691.366ZM658.046 207.665C677.156 207.665 687.691 195.905 687.691 183.655V164.79C681.811 168.22 672.746 170.18 664.416 172.14C647.021 176.06 638.446 179.98 638.446 191.74C638.446 203.5 646.286 207.665 658.046 207.665Z" fill="white"/>
<path d="M412.805 228V102.315H444.9V119.22H445.635C452.495 107.705 464.745 98.885 482.14 98.885C498.065 98.885 510.805 107.705 516.93 120.935H517.42C525.995 107.215 539.225 98.885 555.15 98.885C581.61 98.885 596.555 116.035 596.555 143.475V228H563.235V149.11C563.235 134.9 556.13 127.55 543.88 127.55C529.915 127.55 521.34 138.33 521.34 154.99V228H488.02V149.11C488.02 134.9 480.915 127.55 468.665 127.55C455.19 127.55 446.125 138.33 446.125 154.99V228H412.805Z" fill="white"/>
<path d="M357.72 228V52.825H393.245V228H357.72Z" fill="white"/>
</svg>
