<svg width="20" height="20" viewBox="0 0 20 20" fill="none" xmlns="http://www.w3.org/2000/svg">
<mask id="mask0_8345_913" style="mask-type:luminance" maskUnits="userSpaceOnUse" x="4" y="3" width="15" height="14">
<path d="M4.40698 3.5H19V16.466H4.40698V3.5Z" fill="white"/>
</mask>
<g mask="url(#mask0_8345_913)">
<path d="M11.7035 3.50035L19 16.4661H4.40698L11.7035 3.50035Z" fill="#C30F2E"/>
</g>
<mask id="mask1_8345_913" style="mask-type:luminance" maskUnits="userSpaceOnUse" x="1" y="5" width="13" height="12">
<path d="M1 5.43155H13.4195V16.5H1V5.43155Z" fill="white"/>
</mask>
<g mask="url(#mask1_8345_913)">
<path d="M7.20962 5.43155L13.4192 16.5H1L7.20962 5.43155Z" fill="#DD0330"/>
</g>
<path d="M17.8414 13.1984H2.32849V12.9626H17.8414V13.1984Z" fill="white"/>
<mask id="mask2_8345_913" style="mask-type:luminance" maskUnits="userSpaceOnUse" x="2" y="9" width="15" height="7">
<path d="M2.92981 9.81918H16.8423V15.7488H2.92981V9.81918Z" fill="white"/>
</mask>
<g mask="url(#mask2_8345_913)">
<path d="M15.3707 15.7225C15.3101 15.7225 15.2532 15.6969 15.2056 15.6484C14.9212 15.3575 14.9088 14.1742 14.9225 12.4021C14.9302 11.4337 14.9406 10.1074 14.7889 10.0027C14.6409 10.0652 14.6262 11.1609 14.6166 11.8863C14.6052 12.7303 14.5936 13.6036 14.459 14.0482C14.4189 14.18 14.3671 14.3007 14.2631 14.291C14.1164 14.2778 14.069 14.0419 13.9595 13.1109C13.914 12.7242 13.8669 12.3246 13.8118 12.1699C13.8045 12.1504 13.7983 12.1349 13.7929 12.1227C13.7341 12.258 13.6663 12.6296 13.6192 12.8877C13.554 13.244 13.4924 13.5806 13.4153 13.7274C13.3558 13.8403 13.2613 13.9873 13.1293 13.9589C12.9495 13.9204 12.8957 13.5511 12.8796 13.3344C12.8796 11.5115 12.6454 11.2993 12.5986 11.2753L12.5911 11.2811L12.5797 11.2785C12.4125 11.3528 12.4034 11.944 12.3949 12.5157C12.3882 12.9351 12.3809 13.4103 12.3209 13.855C12.243 14.4315 12.1488 14.5427 12.0316 14.5359C11.7616 14.5171 11.7539 13.5703 11.7539 13.4625C11.7539 13.4288 11.7547 13.389 11.7557 13.345C11.7609 13.1246 11.7702 12.7147 11.6372 12.5856C11.6196 12.5685 11.5947 12.5487 11.5753 12.5542C11.4806 12.5785 11.3823 12.8919 11.3496 12.9949C11.3393 13.0276 11.331 13.0545 11.324 13.073C11.3186 13.0882 11.3116 13.1099 11.3033 13.136C11.2316 13.3576 11.1501 13.5788 11.0109 13.6333C10.9594 13.6536 10.9056 13.6492 10.8551 13.6202C10.7881 13.5814 10.7335 13.5023 10.6825 13.3708C10.6545 13.2981 10.6307 13.2243 10.6064 13.1502C10.5769 13.0598 10.5466 12.9662 10.5091 12.8774C10.4796 12.8083 10.4061 12.7772 10.3124 12.7941C10.1178 12.8294 10.0852 13.0297 10.0578 13.3313C10.0529 13.3837 10.0482 13.4351 10.0417 13.4836C10.041 13.4979 10.0065 13.9404 9.98454 14.0812C9.92373 14.4671 9.84376 14.6191 9.711 14.6081C9.38338 14.5796 9.23302 13.1159 9.24105 12.4976C9.24725 12.0255 9.16341 11.8531 9.1132 11.8257C9.10803 11.8233 9.10001 11.8188 9.08086 11.8325C9.02159 11.8734 8.9688 12.0007 8.98511 12.1343C9.16548 13.5896 9.03246 15.2562 8.70665 15.6316C8.60391 15.7497 8.46417 15.7481 8.36686 15.6484C8.08219 15.3574 8.07029 14.1742 8.08375 12.4021C8.09151 11.4337 8.1016 10.1074 7.95021 10.0027C7.80218 10.0652 7.78769 11.1609 7.77786 11.8863C7.76647 12.7303 7.75483 13.6036 7.62 14.0482C7.57989 14.18 7.52813 14.3007 7.42435 14.291C7.27736 14.2778 7.23026 14.0419 7.12054 13.1109C7.07499 12.7242 7.02789 12.3246 6.97277 12.1699C6.96578 12.1504 6.95957 12.1349 6.95388 12.1227C6.89539 12.258 6.82759 12.6296 6.78049 12.8877C6.71528 13.244 6.65368 13.5806 6.57631 13.7274C6.51678 13.8403 6.42233 13.9873 6.2906 13.9589C6.11075 13.9204 6.05692 13.5511 6.04087 13.3344C6.04061 11.5115 5.80667 11.2993 5.75983 11.2753L5.75232 11.2811L5.74068 11.2785C5.57376 11.3528 5.5647 11.944 5.5559 12.5157C5.54943 12.9351 5.54219 13.4103 5.48215 13.855C5.40426 14.4315 5.31083 14.5438 5.19308 14.5358C4.92265 14.5171 4.91489 13.5703 4.91489 13.4625C4.91489 13.4288 4.91592 13.389 4.91695 13.345C4.92213 13.1246 4.93145 12.7147 4.79843 12.5856C4.78083 12.5685 4.75599 12.5487 4.73658 12.5542C4.64186 12.5785 4.54326 12.8919 4.51117 12.9949C4.50082 13.0274 4.49202 13.0545 4.48555 13.073C4.47986 13.088 4.47287 13.1096 4.46459 13.1357C4.39291 13.3574 4.31139 13.5788 4.17242 13.6333C4.12066 13.6536 4.06658 13.6491 4.01637 13.6202C3.94935 13.5814 3.89448 13.5023 3.84376 13.3708C3.81581 13.2981 3.79174 13.2242 3.76768 13.1502C3.73818 13.0598 3.70764 12.9662 3.67011 12.8774C3.64087 12.8083 3.56712 12.7772 3.47344 12.7941C3.24932 12.8347 3.19627 13.1178 3.15357 13.4557L3.14607 13.5158L2.97656 13.4928L2.98458 13.4338C3.02159 13.1375 3.07801 12.6897 3.44367 12.6238C3.61577 12.5927 3.76612 12.6655 3.82668 12.8088C3.86731 12.9048 3.89914 13.0018 3.92968 13.0959C3.95245 13.1668 3.97574 13.2377 4.00266 13.3078C4.05001 13.4301 4.08676 13.4617 4.10048 13.4694C4.18614 13.4422 4.27361 13.171 4.30259 13.0817C4.31165 13.0529 4.31941 13.0292 4.32562 13.0123C4.33157 12.9957 4.33934 12.9715 4.34866 12.9422C4.42578 12.6966 4.52256 12.4306 4.6944 12.3863C4.74693 12.3726 4.82819 12.3745 4.91644 12.4604C5.1038 12.6425 5.09396 13.0677 5.0875 13.3492C5.08646 13.3914 5.08543 13.4298 5.08543 13.4625C5.08543 13.9117 5.1509 14.2256 5.20085 14.3334C5.22673 14.2783 5.27098 14.145 5.31316 13.8315C5.37165 13.3972 5.37915 12.9275 5.38536 12.5131C5.39675 11.7798 5.40477 11.2482 5.66537 11.1232C5.70419 11.099 5.76863 11.0858 5.83669 11.1208C6.08875 11.25 6.21116 11.972 6.21116 13.3278C6.22694 13.5374 6.28232 13.758 6.32787 13.7896C6.32813 13.7849 6.36513 13.7617 6.42595 13.6457C6.49091 13.5226 6.5556 13.1684 6.61254 12.856C6.73857 12.1675 6.79576 11.9258 6.94482 11.9132C7.05843 11.9018 7.11096 12.0489 7.13296 12.1109C7.19507 12.2843 7.24113 12.6757 7.28978 13.0903C7.32783 13.4119 7.38191 13.8711 7.43703 14.0569C7.44298 14.0406 7.44972 14.0211 7.45696 13.9971C7.58454 13.5761 7.59619 12.7161 7.60732 11.8839C7.62284 10.7281 7.64277 10.0119 7.8498 9.86249C7.89587 9.82928 7.95202 9.82111 8.00689 9.83982C8.24937 9.92179 8.268 10.6459 8.25429 12.4037C8.24445 13.6784 8.23229 15.2649 8.48797 15.5264C8.51023 15.5493 8.52602 15.5493 8.53171 15.5493C8.54361 15.5493 8.56069 15.5377 8.57881 15.5169C8.83759 15.2188 9.00141 13.6534 8.81586 12.1562C8.79282 11.9698 8.86347 11.774 8.98407 11.6897C9.05058 11.643 9.12718 11.6369 9.19343 11.6731C9.3443 11.7548 9.41754 12.0328 9.41159 12.4999C9.40098 13.3154 9.59326 14.2699 9.71877 14.4222C9.7387 14.3885 9.77803 14.296 9.81581 14.0537C9.83703 13.9198 9.87197 13.4699 9.87249 13.4654C9.8787 13.4146 9.88336 13.3653 9.88776 13.3152C9.91364 13.0342 9.94547 12.6847 10.2824 12.6238C10.4542 12.5927 10.6046 12.6652 10.6654 12.8088C10.706 12.9048 10.7376 13.0018 10.7682 13.0959C10.7914 13.1668 10.8147 13.2377 10.8416 13.3078C10.8887 13.4301 10.9258 13.4617 10.9392 13.4694C11.0249 13.4422 11.1126 13.171 11.1413 13.0819C11.1506 13.0532 11.1584 13.0292 11.1644 13.0123C11.1706 12.996 11.1781 12.9715 11.1871 12.9422C11.2645 12.6966 11.3613 12.4306 11.5334 12.3863C11.5854 12.3726 11.6669 12.3745 11.7552 12.4604C11.9425 12.6425 11.9327 13.0677 11.9265 13.3492C11.9252 13.3914 11.9242 13.4298 11.9242 13.4625C11.9242 13.9117 11.9896 14.2256 12.0396 14.3334C12.0652 14.2783 12.1094 14.1449 12.1521 13.8315C12.2106 13.3972 12.2176 12.9275 12.2244 12.5131C12.2355 11.7798 12.2435 11.2482 12.5041 11.1232C12.5429 11.099 12.6074 11.0858 12.6757 11.1208C12.9275 11.25 13.0501 11.972 13.0501 13.3278C13.0659 13.5374 13.1213 13.758 13.1666 13.7896C13.1671 13.7849 13.2036 13.7617 13.2649 13.6457C13.3299 13.5226 13.3943 13.1684 13.4515 12.856C13.577 12.1675 13.6345 11.9258 13.7835 11.9132C13.8974 11.9018 13.9499 12.0489 13.9719 12.1109C14.0338 12.2843 14.0799 12.6757 14.129 13.0903C14.1666 13.4119 14.2206 13.8711 14.276 14.0569C14.2817 14.0406 14.2884 14.0211 14.2957 13.9971C14.4233 13.5761 14.4347 12.7161 14.446 11.8839C14.4613 10.7281 14.4815 10.0119 14.6885 9.86248C14.7349 9.82927 14.7908 9.8211 14.8456 9.83982C15.0884 9.92179 15.107 10.6459 15.093 12.4037C15.0832 13.6784 15.071 15.2649 15.3264 15.5264C15.3492 15.5493 15.3647 15.5493 15.3707 15.5493C15.3823 15.5493 15.3994 15.5377 15.4173 15.5169C15.6766 15.2188 15.8401 13.6534 15.6546 12.1562C15.6305 11.9611 15.6849 11.7645 15.784 11.6889C15.8339 11.6504 15.8947 11.6425 15.9506 11.6665C16.095 11.7292 16.1929 11.998 16.2498 12.4888C16.2736 12.6944 16.2948 12.9166 16.3153 13.1359C16.3603 13.6146 16.4214 14.2596 16.5039 14.4014C16.5293 14.3685 16.581 14.2794 16.6579 14.0406L16.8202 14.0946C16.7009 14.4639 16.6074 14.6031 16.4858 14.5888C16.2966 14.5675 16.242 14.1782 16.1455 13.1525C16.1251 12.9343 16.1041 12.7134 16.0803 12.5089C16.0078 11.8829 15.8846 11.8262 15.8834 11.8257C15.8593 11.8381 15.8034 11.9683 15.8241 12.1343C16.0039 13.5896 15.8714 15.2565 15.5454 15.6316C15.4928 15.6919 15.4338 15.7225 15.3707 15.7225Z" fill="white"/>
</g>
</svg>
