<svg width="37" height="26" viewBox="0 0 37 26" fill="none" xmlns="http://www.w3.org/2000/svg">
<path d="M36.6169 13.2311C36.6169 20.165 31.2833 25.7861 24.7035 25.7861C21.6474 25.7861 18.8602 24.5731 16.7512 22.5797C20.1297 20.9767 22.4816 17.3979 22.4816 13.2402C22.4816 9.07706 20.1238 5.49458 16.7383 3.89466C18.8491 1.89396 21.6412 0.67627 24.7035 0.67627C31.2833 0.67627 36.6169 6.29726 36.6169 13.2311Z" fill="#F02E65"/>
<path d="M20.1187 3.22595C12.4104 -2.59307 1.28646 2.10523 0.0958473 11.6832C-0.457426 16.1347 1.41186 20.5422 4.9978 23.2416C12.7104 29.0555 23.831 24.349 25.0151 14.7701C25.5644 10.3243 23.6979 5.9239 20.1187 3.22583V3.22595ZM18.7226 5.07347C25.0114 9.81382 23.8045 19.5767 16.5504 22.6467C13.1841 24.0716 9.31219 23.5941 6.39371 21.394C0.1053 16.6535 1.31191 6.89065 8.56597 3.82068C11.9324 2.39605 15.8043 2.87344 18.7226 5.07347Z" fill="#F02E65"/>
<path d="M12.961 9.09587C12.9463 9.13141 12.7565 9.85672 12.5528 10.7173C12.3408 11.5776 12.0051 12.9358 11.8157 13.7391C11.4506 15.211 11.2316 16.1781 11.2316 16.3059C11.2316 16.3413 11.4581 16.3701 11.735 16.3701H12.2389L12.4648 15.3886C12.5963 14.8555 12.8885 13.6323 13.1217 12.6725C13.3553 11.7126 13.6396 10.5464 13.7493 10.0769C13.8587 9.60759 13.9682 9.18138 13.9901 9.13141C14.012 9.06749 13.8878 9.04639 13.5083 9.04639C13.2237 9.04639 12.9755 9.06749 12.961 9.09587ZM9.04236 12.1746L8.37109 12.8858L8.56838 13.1133C8.67754 13.2412 8.97714 13.5613 9.2323 13.8246L9.69943 14.3077H11.0276L10.3998 13.6465C10.0567 13.2914 9.77212 12.9497 9.77212 12.9073C9.77212 12.8574 10.0349 12.5377 10.3563 12.1962C10.6771 11.8481 10.9399 11.549 10.9399 11.5135C10.9399 11.4849 10.6627 11.4637 10.3271 11.4637H9.72134L9.04236 12.1746ZM14.1503 11.5064C14.1503 11.5278 14.2746 11.6626 14.4276 11.812C14.9972 12.3667 15.3984 12.8362 15.3764 12.9283C15.362 12.9785 15.0845 13.3124 14.7489 13.6607L14.1434 14.3077H14.8218L15.5004 14.3008L16.1204 13.6394C16.4638 13.2699 16.741 12.9424 16.741 12.9C16.741 12.8646 16.4492 12.5303 16.0841 12.1536L15.4279 11.4637H14.7926C14.435 11.4637 14.1503 11.4849 14.1503 11.5064Z" fill="#F02E65"/>
</svg>
