<svg width="20" height="20" viewBox="0 0 20 20" fill="none" xmlns="http://www.w3.org/2000/svg">
<path d="M7.57218 16.0036C6.72932 15.2433 6.48328 13.6458 6.83444 12.4884C7.44331 13.2181 8.28696 13.4493 9.16081 13.5798C10.5099 13.7811 11.8347 13.7058 13.0879 13.0973C13.2313 13.0277 13.3638 12.935 13.5204 12.8412C13.638 13.1779 13.6686 13.5177 13.6276 13.8637C13.5277 14.7061 13.1028 15.3569 12.4271 15.8502C12.1569 16.0475 11.871 16.2239 11.5919 16.4099C10.7346 16.9818 10.5026 17.6523 10.8248 18.6276C10.8324 18.6513 10.8393 18.6751 10.8566 18.7331C10.4189 18.5398 10.0991 18.2583 9.85547 17.8882C9.59815 17.4976 9.47572 17.0655 9.46928 16.598C9.46606 16.3705 9.46606 16.1409 9.43505 15.9166C9.35936 15.3698 9.0992 15.1249 8.60913 15.1108C8.10616 15.0963 7.70829 15.4032 7.60278 15.8864C7.59473 15.9235 7.58306 15.9601 7.57138 16.0032L7.57218 16.0036Z" fill="white"/>
<path d="M3.33337 12.8428C3.33337 12.8428 5.63802 11.7229 7.94911 11.7229L9.69159 6.34362C9.75681 6.08347 9.94731 5.90669 10.1623 5.90669C10.3774 5.90669 10.5679 6.08347 10.6331 6.34362L12.3756 11.7229C15.1127 11.7229 16.9913 12.8428 16.9913 12.8428C16.9913 12.8428 13.0767 2.20508 13.069 2.18374C12.9567 1.86923 12.767 1.66667 12.5113 1.66667H7.8138C7.55809 1.66667 7.37607 1.86923 7.25605 2.18374C7.24759 2.20468 3.33337 12.8428 3.33337 12.8428Z" fill="white"/>
</svg>
