<svg width="20" height="20" viewBox="0 0 20 20" fill="none" xmlns="http://www.w3.org/2000/svg">
<path fill-rule="evenodd" clip-rule="evenodd" d="M5.87827 5.24328L3.76157 6.77958C3.53153 6.94653 3.37226 7.19742 3.31632 7.48095L3.10937 8.52978C3.0984 8.58537 3.07407 8.6373 3.03858 8.68076L2.07808 10.0075C1.94876 10.166 1.95188 10.5872 2.30609 10.8569C2.44191 10.9816 2.62351 11.2613 2.83008 11.5794C3.26743 12.2529 3.81668 13.0987 4.2803 13.0108C4.93636 12.768 5.73945 12.6903 6.35603 13.0108C7.55462 14.1011 7.26033 15.1064 6.83841 16.5477C6.66863 17.1277 6.47818 17.7782 6.35603 18.5333C6.93172 16.3256 8.22625 13.7616 10.5605 12.8915C10.1399 12.5295 9.28165 12.1932 8.52215 12.1123C8.52215 12.1123 10.8554 10.0075 13.7333 9.04033C11.7243 4.00356 8.40813 1.59656 8.40813 1.59656C8.23915 1.37634 7.8979 1.44858 7.82749 1.71948C7.77092 2.51574 7.67714 3.05719 7.52234 3.56757L6.35603 2.14952C6.2342 1.99476 5.99063 2.08412 5.99185 2.28313C6.18933 3.43983 6.16161 4.0891 5.87827 5.24328ZM6.69926 5.13755L6.70622 5.13708C6.72146 5.13605 6.73646 5.13396 6.75111 5.13088L6.69926 5.13755ZM8.27722 2.54048C9.07652 3.99567 9.4386 4.82238 9.56141 6.36521C8.7112 5.85632 8.34073 5.72682 7.7155 5.73003C8.08024 4.56144 8.19166 3.85776 8.27722 2.54048Z" fill="white"/>
<path d="M13.748 13.1738C10.012 13.9851 7.88982 15.2068 6.26672 18.5333C9.18031 13.8944 18.0001 14.7241 18.0001 14.7241C17.8353 13.9663 16.0817 12.5213 14.9284 11.635C14.9284 11.635 15.8588 10.5495 17.9158 10C17.9158 10 13.961 10.2175 11.6588 11.3971C12.4046 11.7707 13.36 12.4011 13.748 13.1738Z" fill="url(#paint0_linear_8754_790)"/>
<defs>
<linearGradient id="paint0_linear_8754_790" x1="18" y1="10" x2="6.5" y2="18" gradientUnits="userSpaceOnUse">
<stop stop-color="#78E6E5"/>
<stop offset="0.100938" stop-color="#78D9EA"/>
<stop offset="0.227353" stop-color="#7AC9F0"/>
<stop offset="0.369246" stop-color="#85BADB"/>
<stop offset="0.475618" stop-color="#B5928C"/>
<stop offset="0.622562" stop-color="#E97452"/>
</linearGradient>
</defs>
</svg>
