<svg width="20" height="20" viewBox="0 0 20 20" fill="none" xmlns="http://www.w3.org/2000/svg">
<path d="M3.19907 9.02885C3.3343 8.79432 3.52446 8.6105 3.74349 8.48443C3.97803 8.34921 4.23439 8.28511 4.48723 8.28511C4.75839 8.28511 5.01193 8.35766 5.23097 8.48443C5.4655 8.61966 5.64932 8.80982 5.77539 9.02885C5.86061 9.17605 5.91696 9.3317 5.94795 9.48946C6.22121 10.822 7.18117 11.3735 8.47286 10.9396C8.62921 10.8868 8.78979 10.8607 8.94967 10.8614C9.22082 10.8614 9.47437 10.934 9.6934 11.0608C9.92793 11.196 10.1118 11.3861 10.2378 11.6052C10.3731 11.8397 10.4371 12.0961 10.4371 12.3489C10.4371 12.6201 10.3646 12.8736 10.2378 13.0927C10.1026 13.3272 9.91244 13.511 9.6934 13.6371C9.45887 13.7723 9.20251 13.8364 8.94967 13.8364C8.78345 13.8364 8.62428 13.8089 8.47497 13.7589C7.17976 13.323 6.2184 13.8765 5.94654 15.2133C5.94654 15.2133 5.94654 15.2126 5.94654 15.2119C5.91484 15.3753 5.85568 15.5288 5.77539 15.6683C5.64017 15.9028 5.45001 16.0866 5.23097 16.2127C4.99644 16.3479 4.74008 16.412 4.48723 16.412C4.21608 16.412 3.96253 16.3395 3.74349 16.2127C3.50896 16.0775 3.32514 15.8873 3.19907 15.6683C3.06385 15.4337 2.99976 15.1774 2.99976 14.9245C2.99976 14.6534 3.0723 14.3998 3.19907 14.1808C3.3343 13.9463 3.52446 13.7624 3.74349 13.6364C3.97803 13.5011 4.23439 13.4371 4.48723 13.4371C4.65838 13.4371 4.82248 13.4659 4.97602 13.5195C5.83737 13.8054 6.55012 13.6519 7.00862 13.1194C7.39387 12.6729 7.39317 12.0228 7.00792 11.5763C6.54801 11.0431 5.83244 10.8903 4.96756 11.1798C4.81051 11.2333 4.64781 11.2601 4.48723 11.2594C4.21608 11.2594 3.96253 11.1868 3.74349 11.06C3.50896 10.9248 3.32514 10.7347 3.19907 10.5156C3.06385 10.2811 2.99976 10.0247 2.99976 9.77189C2.99976 9.50214 3.0723 9.24789 3.19907 9.02885Z" fill="#00547F"/>
<path d="M16.9998 8.16955V12.8968H15.2658V8.16955C15.2658 6.19822 14.1889 5.1946 12.5458 5.1946C10.9027 5.1946 9.82651 6.19822 9.82651 8.16955V10.2986C9.55747 10.1831 9.26166 10.1183 8.95036 10.1183C8.6616 10.1183 8.37073 10.1747 8.09253 10.2902V8.18787C8.09253 5.15798 9.88145 3.5881 12.5465 3.5881C15.2109 3.5881 17.0181 5.12135 16.9998 8.16955Z" fill="white"/>
</svg>
