<svg width="20" height="20" viewBox="0 0 20 20" fill="none" xmlns="http://www.w3.org/2000/svg">
<path d="M9.45418 1.67116C9.41834 1.67441 9.30429 1.68582 9.20165 1.69396C6.83443 1.90736 4.6171 3.18446 3.21273 5.14735C2.43072 6.23875 1.93056 7.47676 1.74157 8.78806C1.67477 9.2458 1.66663 9.381 1.66663 10.0016C1.66663 10.6223 1.67477 10.7575 1.74157 11.2152C2.19449 14.3444 4.42159 16.9736 7.44212 17.9477C7.98302 18.122 8.55323 18.2409 9.20165 18.3126C9.45418 18.3403 10.5457 18.3403 10.7983 18.3126C11.9175 18.1888 12.8657 17.9118 13.8009 17.4346C13.9442 17.3613 13.9719 17.3417 13.9524 17.3254C13.9394 17.3156 13.3284 16.4963 12.5953 15.5059L11.2626 13.7059L9.59266 11.2348C8.67379 9.87621 7.91785 8.76526 7.91133 8.76526C7.90481 8.76363 7.8983 9.86155 7.89504 11.2022C7.89015 13.5495 7.88852 13.644 7.8592 13.6994C7.81684 13.7792 7.78425 13.8118 7.71583 13.8476C7.66369 13.8737 7.61808 13.8786 7.37207 13.8786H7.09022L7.01527 13.8313C6.9664 13.8004 6.93056 13.7596 6.90612 13.7124L6.8719 13.6391L6.87516 10.373L6.88005 7.10535L6.93056 7.04182C6.95662 7.00762 7.01201 6.96363 7.05112 6.94246C7.11791 6.90988 7.14398 6.90662 7.42583 6.90662C7.75819 6.90662 7.81358 6.91965 7.89993 7.01413C7.92436 7.04019 8.82857 8.402 9.91035 10.0424C10.9921 11.6827 12.4714 13.9225 13.1981 15.0221L14.5177 17.0208L14.5845 16.9768C15.1759 16.5924 15.8015 16.0451 16.2968 15.4749C17.3509 14.2646 18.0303 12.7888 18.2583 11.2152C18.3251 10.7575 18.3333 10.6223 18.3333 10.0016C18.3333 9.381 18.3251 9.2458 18.2583 8.78806C17.8054 5.65884 15.5783 3.02971 12.5578 2.05559C12.025 1.88292 11.4581 1.76401 10.8227 1.69233C10.6663 1.67604 9.5894 1.65813 9.45418 1.67116ZM12.8657 6.71115C12.9439 6.75024 13.0075 6.82517 13.0303 6.90336C13.0433 6.94572 13.0466 7.85141 13.0433 9.8925L13.0384 12.8214L12.522 12.0297L12.0039 11.238V9.10897C12.0039 7.7325 12.0104 6.95875 12.0202 6.92128C12.0462 6.83006 12.1032 6.75839 12.1815 6.71603C12.2482 6.68182 12.2727 6.67857 12.5285 6.67857C12.7696 6.67857 12.8119 6.68182 12.8657 6.71115Z" fill="white"/>
</svg>
