<svg width="76" height="76" viewBox="0 0 76 76" fill="none" xmlns="http://www.w3.org/2000/svg">
<path d="M46.605 67.659L34.519 73.325V8.665L46.605 3V67.659Z" fill="#F7931E"/>
<path d="M11.479 48.5477C11.479 40.3947 20.467 33.5297 32.706 31.4477V24.2367C14.069 26.4557 0 36.4947 0 48.5477C0 60.9907 14.99 71.2897 34.519 73.0557V65.9217C21.362 64.2387 11.479 57.1007 11.479 48.5477Z" fill="#B3B3B3"/>
<path d="M75.915 43.9432L74.328 27.3982L68.631 30.7472C63.152 27.5042 56.189 25.1952 48.418 24.2522V31.4752C52.943 32.2592 57.011 33.7022 60.343 35.6222L54.159 39.2572L75.915 43.9432Z" fill="#B3B3B3"/>
</svg>
