<svg width="20" height="20" viewBox="0 0 20 20" fill="none" xmlns="http://www.w3.org/2000/svg">
<path d="M10.5876 3C13.8692 3 15.5 4.71409 15.5 7.45218C15.5 9.50017 14.3524 10.8358 12.8022 11.0584C14.1108 11.3478 14.8758 12.1715 15.0168 13.7965L15.0372 14.0953L15.055 14.3747L15.0704 14.636L15.0811 14.8331L15.0926 15.0656L15.0985 15.1983L15.107 15.4091L15.1138 15.6082L15.1172 15.7226L15.1218 15.906L15.1258 16.1156L15.1272 16.2169L15.1298 16.5105L15.1306 16.8168L15.1307 17H11.7465L11.7467 16.9236L11.7479 16.7752L11.7499 16.6307L11.7558 16.2806L11.7572 16.1633L11.7584 15.9792L11.7582 15.8615L11.7573 15.7381L11.7559 15.6413L11.7531 15.5057L11.7491 15.3618L11.7437 15.2089L11.7368 15.046L11.7327 14.9605L11.7258 14.827L11.7178 14.6866L11.7055 14.4883L11.6949 14.3307C11.6918 14.2821 11.6883 14.2347 11.6843 14.1883L11.6756 14.0972C11.5639 13.0207 11.1748 12.5807 10.5084 12.434L10.4523 12.4224C10.4144 12.4152 10.3757 12.4088 10.3361 12.4032L10.2761 12.3955C10.2659 12.3943 10.2558 12.3931 10.2456 12.392L10.1836 12.3861L10.1204 12.3812L10.0559 12.3774L9.99079 12.3746L9.92444 12.3728L9.85685 12.3719L4.5 12.3718V9.45568H9.98364C10.0733 9.45568 10.1602 9.45381 10.2443 9.45L10.3275 9.44555L10.4088 9.43978L10.4883 9.43269C10.5014 9.43139 10.5145 9.43004 10.5274 9.42864L10.6041 9.41952C10.6546 9.41299 10.7039 9.40555 10.752 9.39717L10.8232 9.3839C11.713 9.20685 12.1579 8.68846 12.1579 7.67686C12.1579 6.54159 11.4332 5.85355 9.98364 5.85355H4.5V3H10.5876ZM8.07828 14.8261C8.52228 14.8261 8.70805 15.0966 8.77423 15.3556L8.78296 15.3928L8.79013 15.4297L8.79479 15.4588L8.79679 15.4732L8.80013 15.5017L8.80264 15.5295L8.80361 15.5432L8.80497 15.57L8.80539 15.5831L8.80572 15.6086V17H4.5V14.8261H8.07828Z" fill="white"/>
</svg>
