<svg width="20" height="20" viewBox="0 0 20 20" fill="none" xmlns="http://www.w3.org/2000/svg">
<path d="M15.8135 3.87146C14.332 1.65445 11.3827 1.00489 9.26251 2.40287L5.52492 4.88817C4.50558 5.55186 3.79883 6.63918 3.59496 7.86771C3.41828 8.89855 3.56778 9.95763 4.04348 10.8755C3.71729 11.3839 3.49983 11.9487 3.40469 12.5418C3.18723 13.7985 3.47264 15.0977 4.17939 16.1285C5.67442 18.3455 8.61013 18.9951 10.7304 17.5971L14.468 15.1259C15.4873 14.4622 16.194 13.3749 16.3979 12.1464C16.5746 11.1156 16.4251 10.0565 15.9494 9.13861C16.2756 8.63025 16.493 8.06541 16.5882 7.47232C16.8192 6.20143 16.5338 4.90229 15.8135 3.87146Z" fill="#FF3E00"/>
<path d="M8.85238 16.5709C7.5914 16.8861 6.27376 16.4064 5.53701 15.3784C5.08363 14.7753 4.91361 14.0215 5.04113 13.2813C5.06946 13.158 5.0978 13.0483 5.12614 12.9249L5.19698 12.7056L5.39533 12.8427C5.86288 13.1717 6.37294 13.4184 6.9255 13.5829L7.06718 13.624L7.05301 13.761C7.03884 13.9529 7.09552 14.1585 7.20886 14.323C7.43555 14.6383 7.83226 14.789 8.21481 14.6931C8.29982 14.6657 8.38482 14.6383 8.45567 14.5971L12.3378 12.1985C12.5361 12.0751 12.6636 11.897 12.7061 11.6777C12.7486 11.4584 12.692 11.2253 12.5644 11.0472C12.3378 10.7319 11.941 10.5948 11.5585 10.6908C11.4735 10.7182 11.3885 10.7456 11.3176 10.7867L9.82998 11.7051C9.58912 11.8558 9.31993 11.9655 9.03656 12.034C7.77559 12.3493 6.45795 11.8695 5.7212 10.8416C5.28199 10.2385 5.0978 9.48461 5.23948 8.74446C5.367 8.03172 5.82038 7.38752 6.45795 7.00374L10.3542 4.6051C10.5951 4.45433 10.8643 4.34467 11.1476 4.26243C12.4086 3.94718 13.7262 4.42691 14.463 5.4549C14.9164 6.05799 15.0864 6.81184 14.9589 7.552C14.9305 7.67535 14.9022 7.78501 14.8597 7.90837L14.7889 8.12767L14.5905 7.9906C14.1229 7.66165 13.6129 7.41493 13.0603 7.25045L12.9187 7.20933L12.9328 7.07227C12.947 6.88038 12.8903 6.67478 12.777 6.5103C12.5503 6.19505 12.1536 6.05799 11.771 6.15393C11.686 6.18134 11.601 6.20876 11.5302 6.24988L7.64808 8.64852C7.44972 8.77187 7.32221 8.95006 7.2797 9.16936C7.2372 9.38867 7.29387 9.62168 7.42139 9.79986C7.64808 10.1151 8.04479 10.2522 8.42733 10.1562C8.51234 10.1288 8.59735 10.1014 8.66819 10.0603L10.1558 9.14195C10.3967 8.99118 10.6659 8.88153 10.9493 8.79929C12.2102 8.48404 13.5279 8.96377 14.2646 9.99175C14.718 10.5948 14.888 11.3487 14.7605 12.0889C14.633 12.8016 14.1796 13.4458 13.5421 13.8296L9.64579 16.2282C9.40494 16.379 9.13574 16.4886 8.85238 16.5709Z" fill="white"/>
</svg>
