<svg width="20" height="20" viewBox="0 0 20 20" fill="none" xmlns="http://www.w3.org/2000/svg">
<path d="M9.34659 2.01514C9.57078 1.98739 9.80761 2.00628 10.0336 2.00628C10.8706 2.00628 11.6924 2.12879 12.4933 2.36097C13.5154 2.6573 14.4674 3.13107 15.3077 3.75436C16.3376 4.51832 17.1909 5.52036 17.7385 6.64494C18.7629 8.74895 18.7554 11.2988 17.7059 13.394C17.0272 14.7487 15.9385 15.8825 14.6207 16.7093C13.5455 17.3839 12.288 17.7969 11.0086 17.9431C9.38007 18.1292 7.61951 17.8572 6.15552 17.1497C3.40718 15.8213 1.53874 13.1478 1.50178 10.218C1.49466 9.65309 1.50399 9.08486 1.62262 8.52548C1.81583 7.61448 2.15271 6.73387 2.65865 5.93451C3.20594 5.06978 3.91288 4.3067 4.75942 3.69147C5.75216 2.96999 6.90595 2.45105 8.12778 2.18704C8.42285 2.12329 8.71913 2.08796 9.01688 2.05379L9.11096 2.04301C9.18939 2.034 9.26794 2.02488 9.34659 2.01514ZM6.50344 15.3349C6.12497 15.3732 5.72579 15.4381 5.40096 15.6385C5.47408 15.6551 5.55789 15.6386 5.63417 15.6385C5.8174 15.6382 6.00238 15.6317 6.18541 15.6393C6.64362 15.6582 7.12104 15.7273 7.56352 15.8417C8.13004 15.9881 8.62904 16.2763 9.17483 16.4707C9.75062 16.6757 10.3238 16.7394 10.9346 16.7394C11.2423 16.7394 11.5478 16.7385 11.8462 16.6593C11.6905 16.5811 11.4675 16.5958 11.295 16.5632C10.9206 16.4926 10.5526 16.4063 10.1925 16.2852C9.9275 16.1961 9.67223 16.086 9.41815 15.9737L9.25488 15.9013C9.01905 15.7969 8.78264 15.6938 8.53879 15.607C7.89761 15.3786 7.1871 15.2658 6.50344 15.3349ZM7.07588 13.817C6.32587 13.817 5.56732 13.9415 4.89212 14.2623C4.72853 14.3401 4.57304 14.4327 4.42568 14.5353C4.38078 14.5666 4.30117 14.6068 4.28457 14.6611C4.26773 14.7163 4.32792 14.7625 4.36208 14.7978C4.53084 14.713 4.69119 14.6233 4.87092 14.5589C6.03329 14.1427 7.44241 14.2299 8.60239 14.6116C9.18088 14.8019 9.71386 15.0865 10.2773 15.3097C10.9075 15.5594 11.5511 15.7213 12.2279 15.8043C13.0262 15.9022 13.9363 15.8228 14.666 15.4832C14.9224 15.3639 15.2785 15.1821 15.3869 14.9179C15.253 14.9289 15.1325 14.983 15.0053 15.0203C14.803 15.0796 14.5982 15.1299 14.3904 15.1691C13.6861 15.3021 12.9371 15.3296 12.2279 15.2089C11.5594 15.0951 10.9383 14.8666 10.3202 14.6262L10.2413 14.5955C10.1887 14.5749 10.1361 14.5544 10.0835 14.5338L10.0046 14.5029C9.68877 14.3797 9.37176 14.2578 9.04762 14.1512C8.41794 13.944 7.74309 13.817 7.07588 13.817ZM8.39038 2.95662C7.49132 3.14383 6.68594 3.50839 5.90979 3.96797C5.4592 4.23477 5.02817 4.50809 4.6377 4.85147C4.05703 5.36215 3.61324 5.98283 3.22619 6.63114C2.82738 7.29911 2.57169 8.07758 2.44811 8.83294C2.32688 9.57398 2.30691 10.3531 2.44578 11.0948C2.61938 12.022 2.9498 12.8921 3.47161 13.6969C3.64697 13.6197 3.77147 13.4437 3.91685 13.3251C4.2104 13.0857 4.51861 12.8638 4.84972 12.6723C4.97228 12.6014 5.0982 12.5464 5.23134 12.4959C5.28157 12.4769 5.36368 12.4595 5.38732 12.4075C5.42489 12.3249 5.35542 12.1812 5.34348 12.0956C5.30941 11.8509 5.28884 11.602 5.29527 11.355C5.31392 10.6358 5.4565 9.90648 5.72797 9.23327C5.93254 8.72601 6.24505 8.26546 6.61528 7.85214C6.74089 7.71188 6.87444 7.58134 7.01227 7.45183C7.09373 7.37529 7.19482 7.3098 7.24549 7.21162C6.97967 7.21178 6.7138 7.28403 6.46103 7.35739C5.91649 7.51544 5.38603 7.74995 4.93452 8.08082C4.72857 8.23177 4.57774 8.42961 4.38296 8.58846C4.32322 8.6372 4.21619 8.70251 4.13363 8.66574C4.0089 8.61022 4.02816 8.37883 4.01387 8.27248C3.95891 7.86343 4.12329 7.34602 4.33219 6.99144C4.66753 6.42223 5.28759 5.93619 6.0158 5.95317C6.33028 5.96049 6.60561 6.0635 6.90627 6.13073C6.83003 6.02863 6.72781 5.95421 6.63065 5.87052C6.39257 5.66545 6.13218 5.47816 5.84619 5.33648C5.73113 5.2795 5.60725 5.24487 5.48576 5.203C5.42468 5.18196 5.34776 5.15299 5.32478 5.089C5.28223 4.97049 5.50862 4.86072 5.59177 4.81074C5.91323 4.61754 6.30739 4.45861 6.69425 4.44966C7.29883 4.43567 7.88955 4.75191 8.13859 5.29005C8.22614 5.47921 8.25203 5.67926 8.26921 5.88115L8.27234 5.91902L8.27682 5.97588C8.27731 5.9822 8.2778 5.98852 8.2783 5.99485L8.28128 6.03277L8.28437 6.07068C8.47425 5.92476 8.6078 5.71003 8.79321 5.55374C9.22682 5.1882 9.82025 5.02593 10.3833 5.19049C10.8922 5.33917 11.3344 5.6702 11.5947 6.11072C11.6628 6.22597 11.8528 6.50766 11.7156 6.62245C11.6081 6.71233 11.4719 6.64229 11.3586 6.60502C11.2728 6.57681 11.1842 6.55891 11.0952 6.54234L11.0467 6.53338C11.0305 6.5304 11.0143 6.52741 10.9982 6.52435C10.6901 6.46613 10.3317 6.47217 10.0229 6.52335C9.82326 6.55644 9.62817 6.62341 9.42925 6.65116V6.69119C9.97316 6.69543 10.4993 6.98793 10.7676 7.4318C10.8788 7.61568 10.9344 7.82616 10.9769 8.03229C11.0296 8.28705 10.9926 8.56462 10.9187 8.81292C10.894 8.89617 10.849 9.03731 10.7434 9.05648C10.6688 9.07003 10.6054 8.99997 10.5628 8.95274C10.4511 8.82892 10.3448 8.7112 10.2137 8.60427C9.88207 8.33379 9.53142 8.08429 9.17483 7.84371C8.9855 7.71597 8.77813 7.54989 8.55999 7.47183C8.62132 7.6111 8.68141 7.74059 8.70227 7.89217C8.76363 8.33805 8.56561 8.75774 8.26838 9.09315C8.17768 9.19551 8.08066 9.29862 7.96634 9.37814C7.91894 9.41113 7.85945 9.45421 7.79673 9.44488C7.60011 9.4156 7.5767 9.13621 7.54655 8.99307C7.44445 8.50825 7.48545 8.02674 7.62712 7.55189C7.50108 7.61214 7.40997 7.74399 7.33083 7.85214C7.1567 8.09011 7.00562 8.34182 6.89728 8.61276C6.4658 9.69202 6.46996 10.9561 7.02892 11.9951C7.09134 12.1112 7.18606 12.0956 7.3091 12.0956C7.32763 12.0956 7.34619 12.0955 7.36477 12.0953L7.42053 12.0948C7.53211 12.0937 7.64393 12.0932 7.75433 12.1071C7.81162 12.1143 7.89116 12.1079 7.93651 12.1477C7.99081 12.1954 7.96187 12.2771 7.94936 12.3358C7.91442 12.4998 7.90274 12.6489 7.90274 12.8162C8.13481 12.7823 8.19914 12.4316 8.2814 12.2557C8.37462 12.0566 8.46948 11.8572 8.55573 11.6552C8.59813 11.556 8.65484 11.445 8.63996 11.335C8.62325 11.2113 8.52846 11.0802 8.4624 10.9747C8.33735 10.7751 8.19522 10.5696 8.10316 10.3542C8.02957 10.1819 8.09809 9.9667 8.30559 9.90517C8.42004 9.87123 8.54214 9.9378 8.61662 10.0158C8.77279 10.1793 8.8736 10.4225 8.98699 10.6144L9.87152 12.1156C9.94663 12.2427 10.0219 12.3697 10.0988 12.4959C10.1288 12.5452 10.1593 12.6212 10.2207 12.6422C10.2754 12.6609 10.3501 12.6343 10.4045 12.624C10.5458 12.5974 10.6868 12.5686 10.8286 12.5444C10.9984 12.5155 11.2574 12.521 11.3798 12.3958C11.2007 12.3424 10.9937 12.3455 10.8074 12.3576C10.6954 12.3648 10.5713 12.4026 10.4684 12.341C10.3153 12.2492 10.2136 12.0374 10.1199 11.8954C9.88897 11.5454 9.67137 11.1901 9.45022 10.8346L9.41483 10.778L9.3437 10.6649C9.30819 10.6083 9.27295 10.5515 9.23878 10.4943C9.21236 10.45 9.1732 10.3917 9.21105 10.3429C9.2508 10.2916 9.33744 10.2886 9.41566 10.2885L9.43118 10.2885C9.46192 10.2885 9.49073 10.2885 9.51406 10.2856C9.82971 10.2465 10.1497 10.2141 10.4681 10.2141C10.4433 10.1328 10.3725 10.0409 10.3951 9.95393C10.4458 9.75926 10.743 9.69835 10.8812 9.83804C10.974 9.93182 11.0279 10.0609 11.0882 10.174C11.1679 10.3234 11.2586 10.4678 11.3439 10.6144C11.4932 10.871 11.6562 11.1206 11.8098 11.375C11.8224 11.396 11.8355 11.4169 11.8487 11.4377L11.8685 11.469C11.9348 11.5733 12.0013 11.6784 12.037 11.7954C11.5038 11.7724 11.1035 11.1888 10.871 10.7945C10.8524 10.8577 10.8826 10.914 10.9067 10.9747C10.9568 11.1007 11.0166 11.2207 11.092 11.335C11.1996 11.4982 11.323 11.6663 11.4858 11.7848C11.7748 11.995 12.1558 11.9962 12.5035 11.9737C12.7264 11.9593 13.005 11.8636 13.2243 11.9285C13.4433 11.9933 13.5314 12.221 13.4014 12.3958C13.304 12.5268 13.174 12.5763 13.0123 12.596C13.1266 12.8272 13.2764 13.0417 13.385 13.2766C13.4302 13.3744 13.4773 13.5243 13.5857 13.576C13.6578 13.6103 13.7612 13.5783 13.8392 13.5768C13.7609 13.3816 13.6143 13.2159 13.5424 13.0164C13.7618 13.0258 13.9741 13.1338 14.1784 13.2027C14.5804 13.3382 14.9773 13.4863 15.3736 13.6359L15.5565 13.7049C15.7195 13.7665 15.8835 13.8274 16.0441 13.8943C16.1029 13.9188 16.1843 13.976 16.2492 13.9408C16.3022 13.912 16.3365 13.8434 16.3692 13.797C16.4607 13.667 16.5435 13.5321 16.6255 13.3967C16.954 12.8545 17.195 12.2604 17.3559 11.6552C17.8869 9.65953 17.4314 7.45752 16.1556 5.79046C15.6654 5.14995 15.0489 4.59622 14.3692 4.13765C12.6683 2.99009 10.4368 2.53051 8.39038 2.95662ZM11.8674 12.9088C11.4165 13.0197 10.9519 13.1201 10.4893 13.1765C10.5502 13.3717 10.6988 13.5616 10.8076 13.7369C10.8497 13.8047 10.8947 13.8955 10.9778 13.925C11.0717 13.9582 11.1852 13.9043 11.2738 13.8771C11.2328 13.7713 11.1637 13.676 11.1072 13.5768C11.0839 13.5359 11.0479 13.4875 11.0671 13.4389C11.1034 13.3471 11.254 13.3525 11.3374 13.3365C11.5572 13.2945 11.7747 13.242 11.9946 13.2005C12.0757 13.1852 12.1885 13.1437 12.2699 13.1693C12.3309 13.1885 12.3677 13.2359 12.4024 13.2853L12.418 13.3075C12.4388 13.3372 12.4601 13.3661 12.4867 13.3888C12.5756 13.4645 12.7086 13.4761 12.8215 13.4967C12.7526 13.3506 12.6381 13.2228 12.5647 13.0764C12.5221 12.9913 12.487 12.866 12.3935 12.8168C12.2648 12.7491 11.999 12.8765 11.8674 12.9088ZM9.02642 11.9355C9.0052 12.1892 8.92262 12.3957 8.79321 12.616C8.94151 12.6337 9.09278 12.64 9.23844 12.6741C9.3476 12.6996 9.44821 12.7482 9.55646 12.7762C9.49858 12.6269 9.39119 12.4937 9.308 12.3558C9.224 12.2166 9.14882 12.0475 9.02642 11.9355Z" fill="#FFFFFF"/>
</svg>
