<svg width="20" height="20" viewBox="0 0 20 20" fill="none" xmlns="http://www.w3.org/2000/svg">
<path d="M17.9471 4.59883L10.4311 17.7947C10.2759 18.0671 9.87719 18.0687 9.71968 17.7976L2.05465 4.6001C1.88306 4.30465 2.14037 3.94678 2.48137 4.00662L10.0054 5.32708C10.0534 5.3355 10.1026 5.33542 10.1505 5.32683L17.5173 4.00851C17.8571 3.94769 18.1156 4.3028 17.9471 4.59883Z" fill="url(#paint0_linear_8495_3619)"/>
<path d="M13.6179 2.00383L7.55298 3.06314C7.4533 3.08055 7.37949 3.15585 7.37348 3.24622L7.0004 8.86276C6.99163 8.99505 7.12792 9.09772 7.27277 9.06795L8.96133 8.72058C9.11932 8.68811 9.26207 8.81214 9.2296 8.95376L8.72793 11.1435C8.69417 11.2909 8.8494 11.4169 9.01086 11.3732L10.0538 11.0907C10.2155 11.047 10.3708 11.1734 10.3366 11.3209L9.53938 14.7605C9.4895 14.9756 9.81055 15.0929 9.94444 14.9085L10.0339 14.7853L14.9759 5.9939C15.0587 5.8467 14.916 5.67885 14.7346 5.71005L12.9965 6.00906C12.8332 6.03713 12.6942 5.90155 12.7403 5.7591L13.8747 2.25366C13.9209 2.11098 13.7814 1.97528 13.6179 2.00383Z" fill="url(#paint1_linear_8495_3619)"/>
<defs>
<linearGradient id="paint0_linear_8495_3619" x1="1.8675" y1="3.53502" x2="11.0007" y2="16.168" gradientUnits="userSpaceOnUse">
<stop stop-color="#41D1FF"/>
<stop offset="1" stop-color="#BD34FE"/>
</linearGradient>
<linearGradient id="paint1_linear_8495_3619" x1="9.23886" y1="2.29143" x2="10.7112" y2="13.6223" gradientUnits="userSpaceOnUse">
<stop stop-color="#FFEA83"/>
<stop offset="0.0833333" stop-color="#FFDD35"/>
<stop offset="1" stop-color="#FFA800"/>
</linearGradient>
</defs>
</svg>
