<svg xmlns="http://www.w3.org/2000/svg" fill="none" viewBox="16 16 358.5 341.5">
<g filter="url(#a)">
<rect x="16.998" y="17" width="357.003" height="340" rx="16" fill="#19191C"/>
<rect x="16.998" y="17" width="357.003" height="340" rx="16" stroke="#2D2D31"/>
</g>
<path opacity=".5" d="M49.138 148v-.767l2.88-3.153c.338-.37.617-.691.836-.964.218-.275.38-.534.486-.775.107-.244.161-.5.161-.767 0-.307-.073-.573-.221-.797a1.44 1.44 0 0 0-.597-.52 1.936 1.936 0 0 0-.852-.183c-.335 0-.628.069-.878.209a1.436 1.436 0 0 0-.575.575c-.134.247-.2.537-.2.869h-1.006c0-.511.118-.96.354-1.346.235-.387.556-.688.963-.904.409-.216.867-.324 1.376-.324.511 0 .965.108 1.36.324.394.216.704.507.928.874.225.366.337.774.337 1.223 0 .321-.058.635-.175.942-.113.304-.312.643-.596 1.018-.282.372-.672.827-1.172 1.364l-1.96 2.096v.068h4.056V148h-5.505Zm10.112.119c-.642 0-1.189-.174-1.64-.524-.452-.352-.797-.862-1.036-1.53-.239-.67-.358-1.48-.358-2.429 0-.943.12-1.748.358-2.416.241-.67.588-1.182 1.04-1.534.454-.355 1-.533 1.636-.533.636 0 1.18.178 1.632.533.455.352.801.864 1.04 1.534.241.668.362 1.473.362 2.416 0 .949-.12 1.759-.358 2.429-.239.668-.584 1.178-1.035 1.53-.452.35-.999.524-1.641.524Zm0-.937c.636 0 1.13-.307 1.483-.921.352-.613.528-1.488.528-2.625 0-.755-.08-1.399-.242-1.93-.16-.531-.39-.936-.69-1.215a1.525 1.525 0 0 0-1.079-.417c-.63 0-1.124.311-1.479.933-.355.619-.532 1.496-.532 2.629 0 .756.08 1.398.238 1.926.16.529.388.931.686 1.206.302.276.664.414 1.087.414Zm7.5.937c-.642 0-1.189-.174-1.64-.524-.452-.352-.797-.862-1.036-1.53-.239-.67-.358-1.48-.358-2.429 0-.943.12-1.748.358-2.416.241-.67.588-1.182 1.04-1.534.454-.355 1-.533 1.636-.533.636 0 1.18.178 1.632.533.455.352.801.864 1.04 1.534.241.668.362 1.473.362 2.416 0 .949-.12 1.759-.358 2.429-.239.668-.584 1.178-1.035 1.53-.452.35-.999.524-1.641.524Zm0-.937c.636 0 1.13-.307 1.483-.921.352-.613.528-1.488.528-2.625 0-.755-.08-1.399-.242-1.93-.16-.531-.39-.936-.69-1.215a1.525 1.525 0 0 0-1.079-.417c-.63 0-1.124.311-1.479.933-.355.619-.532 1.496-.532 2.629 0 .756.08 1.398.238 1.926.16.529.388.931.686 1.206.302.276.664.414 1.087.414Zm7.5.937c-.642 0-1.189-.174-1.64-.524-.452-.352-.797-.862-1.036-1.53-.239-.67-.358-1.48-.358-2.429 0-.943.12-1.748.358-2.416.241-.67.588-1.182 1.04-1.534.454-.355 1-.533 1.636-.533.636 0 1.18.178 1.632.533.455.352.801.864 1.04 1.534.241.668.362 1.473.362 2.416 0 .949-.12 1.759-.358 2.429-.239.668-.584 1.178-1.035 1.53-.452.35-.999.524-1.641.524Zm0-.937c.636 0 1.13-.307 1.483-.921.352-.613.528-1.488.528-2.625 0-.755-.08-1.399-.242-1.93-.16-.531-.39-.936-.69-1.215a1.525 1.525 0 0 0-1.079-.417c-.63 0-1.124.311-1.479.933-.355.619-.532 1.496-.532 2.629 0 .756.08 1.398.238 1.926.16.529.388.931.686 1.206.302.276.664.414 1.087.414Z" fill="#818186"/>
<path stroke="#56565C" stroke-width=".5" d="M94 143.75h249"/>
<path opacity=".5" d="M54.093 176.273V185h-1.057v-7.619h-.051l-2.131 1.414v-1.073l2.182-1.449h1.057Zm5.237 8.846c-.5 0-.95-.099-1.351-.298a2.515 2.515 0 0 1-.963-.818 2.231 2.231 0 0 1-.396-1.185h1.022c.04.395.22.722.537.98.321.256.705.384 1.15.384.359 0 .677-.084.955-.252.282-.167.502-.397.661-.69.162-.295.243-.629.243-1.001 0-.381-.084-.721-.252-1.019a1.842 1.842 0 0 0-.681-.711 1.922 1.922 0 0 0-.993-.265 2.73 2.73 0 0 0-.823.124 2.269 2.269 0 0 0-.694.32l-.989-.12.528-4.295h4.535v.937H58.17l-.307 2.574h.051c.18-.142.404-.26.673-.354.27-.093.552-.14.844-.14a2.684 2.684 0 0 1 2.416 1.423c.242.44.363.943.363 1.509 0 .556-.125 1.054-.375 1.491a2.74 2.74 0 0 1-1.023 1.031 2.92 2.92 0 0 1-1.483.375Zm7.42 0c-.642 0-1.189-.174-1.64-.524-.452-.352-.797-.862-1.036-1.53-.239-.67-.358-1.48-.358-2.429 0-.943.12-1.748.358-2.416.241-.67.588-1.182 1.04-1.534.454-.355 1-.533 1.636-.533.636 0 1.18.178 1.632.533.455.352.801.864 1.04 1.534.241.668.362 1.473.362 2.416 0 .949-.12 1.759-.358 2.429-.239.668-.584 1.178-1.035 1.53-.452.35-.999.524-1.641.524Zm0-.937c.636 0 1.13-.307 1.483-.921.352-.613.528-1.488.528-2.625 0-.755-.08-1.399-.242-1.93-.16-.531-.39-.936-.69-1.215a1.525 1.525 0 0 0-1.079-.417c-.63 0-1.124.311-1.479.933-.355.619-.532 1.496-.532 2.629 0 .756.08 1.398.238 1.926.16.529.388.931.686 1.206.302.276.664.414 1.087.414Zm7.5.937c-.642 0-1.189-.174-1.64-.524-.452-.352-.797-.862-1.036-1.53-.239-.67-.358-1.48-.358-2.429 0-.943.12-1.748.358-2.416.241-.67.588-1.182 1.04-1.534.454-.355 1-.533 1.636-.533.636 0 1.18.178 1.632.533.455.352.801.864 1.04 1.534.241.668.362 1.473.362 2.416 0 .949-.12 1.759-.358 2.429-.239.668-.584 1.178-1.035 1.53-.452.35-.999.524-1.641.524Zm0-.937c.636 0 1.13-.307 1.483-.921.352-.613.528-1.488.528-2.625 0-.755-.08-1.399-.242-1.93-.16-.531-.39-.936-.69-1.215a1.525 1.525 0 0 0-1.079-.417c-.63 0-1.124.311-1.479.933-.355.619-.532 1.496-.532 2.629 0 .756.08 1.398.238 1.926.16.529.388.931.686 1.206.302.276.664.414 1.087.414Z" fill="#818186"/>
<path stroke="#56565C" stroke-width=".5" d="M94 180.75h249"/>
<path opacity=".5" d="M53.894 214.773v8.727h-1.057v-7.619h-.052l-2.13 1.414v-1.073l2.182-1.449h1.056Zm5.356 8.846c-.642 0-1.189-.174-1.64-.524-.452-.352-.797-.862-1.036-1.53-.239-.67-.358-1.48-.358-2.429 0-.943.12-1.748.358-2.416.241-.67.588-1.182 1.04-1.534.454-.355 1-.533 1.636-.533.636 0 1.18.178 1.632.533.455.352.801.864 1.04 1.534.241.668.362 1.473.362 2.416 0 .949-.12 1.759-.358 2.429-.239.668-.584 1.178-1.035 1.53-.452.35-.999.524-1.641.524Zm0-.937c.636 0 1.13-.307 1.483-.921.352-.613.528-1.488.528-2.625 0-.755-.08-1.399-.242-1.93-.16-.531-.39-.936-.69-1.215a1.525 1.525 0 0 0-1.079-.417c-.63 0-1.124.311-1.479.933-.355.619-.532 1.496-.532 2.629 0 .756.08 1.398.238 1.926.16.529.388.931.686 1.206.302.276.664.414 1.087.414Zm7.5.937c-.642 0-1.189-.174-1.64-.524-.452-.352-.797-.862-1.036-1.53-.239-.67-.358-1.48-.358-2.429 0-.943.12-1.748.358-2.416.241-.67.588-1.182 1.04-1.534.454-.355 1-.533 1.636-.533.636 0 1.18.178 1.632.533.455.352.801.864 1.04 1.534.241.668.362 1.473.362 2.416 0 .949-.12 1.759-.358 2.429-.239.668-.584 1.178-1.035 1.53-.452.35-.999.524-1.641.524Zm0-.937c.636 0 1.13-.307 1.483-.921.352-.613.528-1.488.528-2.625 0-.755-.08-1.399-.242-1.93-.16-.531-.39-.936-.69-1.215a1.525 1.525 0 0 0-1.079-.417c-.63 0-1.124.311-1.479.933-.355.619-.532 1.496-.532 2.629 0 .756.08 1.398.238 1.926.16.529.388.931.686 1.206.302.276.664.414 1.087.414Zm7.5.937c-.642 0-1.189-.174-1.64-.524-.452-.352-.797-.862-1.036-1.53-.239-.67-.358-1.48-.358-2.429 0-.943.12-1.748.358-2.416.241-.67.588-1.182 1.04-1.534.454-.355 1-.533 1.636-.533.636 0 1.18.178 1.632.533.455.352.801.864 1.04 1.534.241.668.362 1.473.362 2.416 0 .949-.12 1.759-.358 2.429-.239.668-.584 1.178-1.035 1.53-.452.35-.999.524-1.641.524Zm0-.937c.636 0 1.13-.307 1.483-.921.352-.613.528-1.488.528-2.625 0-.755-.08-1.399-.242-1.93-.16-.531-.39-.936-.69-1.215a1.525 1.525 0 0 0-1.079-.417c-.63 0-1.124.311-1.479.933-.355.619-.532 1.496-.532 2.629 0 .756.08 1.398.238 1.926.16.529.388.931.686 1.206.302.276.664.414 1.087.414Z" fill="#818186"/>
<path stroke="#56565C" stroke-width=".5" d="M94 219.25h249"/>
<path opacity=".5" d="M59.33 261.119c-.5 0-.95-.099-1.351-.298a2.515 2.515 0 0 1-.963-.818 2.231 2.231 0 0 1-.396-1.185h1.022c.04.395.22.722.537.98.321.256.705.384 1.15.384.359 0 .677-.084.955-.252.282-.167.502-.397.661-.69.162-.295.243-.629.243-1.001 0-.381-.084-.721-.252-1.019a1.842 1.842 0 0 0-.681-.711 1.922 1.922 0 0 0-.993-.265 2.73 2.73 0 0 0-.823.124 2.269 2.269 0 0 0-.694.32l-.989-.12.528-4.295h4.535v.937H58.17l-.307 2.574h.051c.18-.142.404-.26.673-.354.27-.093.552-.14.844-.14a2.684 2.684 0 0 1 2.416 1.423c.242.44.363.943.363 1.509 0 .556-.125 1.054-.375 1.491a2.74 2.74 0 0 1-1.023 1.031 2.92 2.92 0 0 1-1.483.375Zm7.42 0c-.642 0-1.189-.174-1.64-.524-.452-.352-.797-.862-1.036-1.53-.239-.67-.358-1.48-.358-2.429 0-.943.12-1.748.358-2.416.241-.67.588-1.182 1.04-1.534.454-.355 1-.533 1.636-.533.636 0 1.18.178 1.632.533.455.352.801.864 1.04 1.534.241.668.362 1.473.362 2.416 0 .949-.12 1.759-.358 2.429-.239.668-.584 1.178-1.035 1.53-.452.35-.999.524-1.641.524Zm0-.937c.636 0 1.13-.307 1.483-.921.352-.613.528-1.488.528-2.625 0-.755-.08-1.399-.242-1.93-.16-.531-.39-.936-.69-1.215a1.525 1.525 0 0 0-1.079-.417c-.63 0-1.124.311-1.479.933-.355.619-.532 1.496-.532 2.629 0 .756.08 1.398.238 1.926.16.529.388.931.686 1.206.302.276.664.414 1.087.414Zm7.5.937c-.642 0-1.189-.174-1.64-.524-.452-.352-.797-.862-1.036-1.53-.239-.67-.358-1.48-.358-2.429 0-.943.12-1.748.358-2.416.241-.67.588-1.182 1.04-1.534.454-.355 1-.533 1.636-.533.636 0 1.18.178 1.632.533.455.352.801.864 1.04 1.534.241.668.362 1.473.362 2.416 0 .949-.12 1.759-.358 2.429-.239.668-.584 1.178-1.035 1.53-.452.35-.999.524-1.641.524Zm0-.937c.636 0 1.13-.307 1.483-.921.352-.613.528-1.488.528-2.625 0-.755-.08-1.399-.242-1.93-.16-.531-.39-.936-.69-1.215a1.525 1.525 0 0 0-1.079-.417c-.63 0-1.124.311-1.479.933-.355.619-.532 1.496-.532 2.629 0 .756.08 1.398.238 1.926.16.529.388.931.686 1.206.302.276.664.414 1.087.414Z" fill="#818186"/>
<path stroke="#56565C" stroke-width=".5" d="M94 256.75h249"/>
<path opacity=".5" d="M74.25 298.119c-.642 0-1.189-.174-1.64-.524-.452-.352-.797-.862-1.036-1.53-.239-.67-.358-1.48-.358-2.429 0-.943.12-1.748.358-2.416.241-.67.588-1.182 1.04-1.534.454-.355 1-.533 1.636-.533.636 0 1.18.178 1.632.533.455.352.801.864 1.04 1.534.241.668.362 1.473.362 2.416 0 .949-.12 1.759-.358 2.429-.239.668-.584 1.178-1.035 1.53-.452.35-.999.524-1.641.524Zm0-.937c.636 0 1.13-.307 1.483-.921.352-.613.528-1.488.528-2.625 0-.755-.08-1.399-.242-1.93-.16-.531-.39-.936-.69-1.215a1.525 1.525 0 0 0-1.079-.417c-.63 0-1.124.311-1.479.933-.355.619-.532 1.496-.532 2.629 0 .756.08 1.398.238 1.926.16.529.388.931.686 1.206.302.276.664.414 1.087.414Z" fill="#818186"/>
<path stroke="#56565C" stroke-width=".5" d="M94 293.75h249"/>
<path d="M94 180.761a2.761 2.761 0 0 1 5.523 0v113.608H94V180.761Z" fill="#F02E65" fill-opacity=".4"/>
<path d="M94 236.416a2.761 2.761 0 0 1 5.523 0v57.953H94v-57.953Z" fill="#F02E65"/>
<path d="M109.648 219.214a2.762 2.762 0 1 1 5.523 0v75.155h-5.523v-75.155Z" fill="#F02E65" fill-opacity=".4"/>
<path d="M109.648 249.571a2.763 2.763 0 0 1 5.523 0v44.798h-5.523v-44.798Z" fill="#F02E65"/>
<path d="M125.297 249.571a2.762 2.762 0 1 1 5.523 0v44.798h-5.523v-44.798Z" fill="#F02E65" fill-opacity=".4"/>
<path d="M125.297 272.845a2.762 2.762 0 1 1 5.523 0v21.524h-5.523v-21.524Z" fill="#F02E65"/>
<path d="M140.945 230.345a2.762 2.762 0 0 1 5.523 0v64.025h-5.523v-64.025Z" fill="#F02E65" fill-opacity=".4"/>
<path d="M140.945 254.631a2.762 2.762 0 0 1 5.523 0v39.739h-5.523v-39.739Z" fill="#F02E65"/>
<path d="M156.594 199.988a2.76 2.76 0 1 1 5.523 0v94.382h-5.523v-94.382Z" fill="#F02E65" fill-opacity=".4"/>
<path d="M156.594 227.309a2.76 2.76 0 1 1 5.523 0v67.061h-5.523v-67.061Z" fill="#F02E65"/>
<path d="M172.24 180.761a2.762 2.762 0 0 1 5.523 0v113.608h-5.523V180.761Z" fill="#F02E65" fill-opacity=".4"/>
<path d="M172.24 210.107a2.763 2.763 0 0 1 5.523 0v84.262h-5.523v-84.262Z" fill="#F02E65"/>
<path d="M187.889 219.214a2.762 2.762 0 1 1 5.523 0v75.155h-5.523v-75.155Z" fill="#F02E65" fill-opacity=".4"/>
<path d="M187.889 244.511a2.76 2.76 0 1 1 5.523 0v49.858h-5.523v-49.858Z" fill="#F02E65"/>
<path d="M203.537 249.571a2.762 2.762 0 1 1 5.523 0v44.798h-5.523v-44.798Z" fill="#F02E65" fill-opacity=".4"/>
<path d="M203.537 268.797a2.761 2.761 0 0 1 5.523 0v25.572h-5.523v-25.572Z" fill="#F02E65"/>
<path d="M219.184 230.345a2.76 2.76 0 1 1 5.522 0v64.025h-5.522v-64.025Z" fill="#F02E65" fill-opacity=".4"/>
<path d="M219.184 244.511a2.76 2.76 0 1 1 5.522 0v49.858h-5.522v-49.858Z" fill="#F02E65"/>
<path d="M234.834 199.988a2.76 2.76 0 1 1 5.523 0v94.382h-5.523v-94.382Z" fill="#F02E65" fill-opacity=".4"/>
<path d="M234.834 227.309a2.76 2.76 0 1 1 5.523 0v67.061h-5.523v-67.061Z" fill="#F02E65"/>
<path d="M250.48 219.214a2.762 2.762 0 1 1 5.523 0v75.155h-5.523v-75.155Z" fill="#F02E65" fill-opacity=".4"/>
<path d="M250.48 244.511a2.762 2.762 0 0 1 5.523 0v49.858h-5.523v-49.858Z" fill="#F02E65"/>
<path d="M266.129 249.571a2.762 2.762 0 1 1 5.523 0v44.798h-5.523v-44.798Z" fill="#F02E65" fill-opacity=".4"/>
<path d="M266.129 268.797a2.76 2.76 0 1 1 5.523 0v25.572h-5.523v-25.572Z" fill="#F02E65"/>
<path d="M281.777 230.345a2.762 2.762 0 0 1 5.523 0v64.025h-5.523v-64.025Z" fill="#F02E65" fill-opacity=".4"/>
<path d="M281.777 249.571a2.763 2.763 0 0 1 5.523 0v44.798h-5.523v-44.798Z" fill="#F02E65"/>
<path d="M297.426 199.988a2.76 2.76 0 1 1 5.523 0v94.382h-5.523v-94.382Z" fill="#F02E65" fill-opacity=".4"/>
<path d="M297.426 227.309a2.76 2.76 0 1 1 5.523 0v67.061h-5.523v-67.061Z" fill="#F02E65"/>
<path d="M313.074 230.345a2.762 2.762 0 0 1 5.523 0v64.025h-5.523v-64.025Z" fill="#F02E65" fill-opacity=".4"/>
<path d="M313.074 254.631a2.762 2.762 0 0 1 5.523 0v39.739h-5.523v-39.739Z" fill="#F02E65"/>
<path d="M328.723 199.988a2.76 2.76 0 1 1 5.523 0v94.382h-5.523v-94.382Z" fill="#F02E65" fill-opacity=".4"/>
<path d="M328.723 227.309a2.76 2.76 0 1 1 5.523 0v67.061h-5.523v-67.061Z" fill="#F02E65"/>
<path d="M48.337 89V78.818h3.56c.708 0 1.293.123 1.754.368.46.242.804.568 1.03.98.225.407.337.86.337 1.357 0 .437-.078.799-.233 1.084-.153.285-.355.51-.607.676a2.762 2.762 0 0 1-.81.368v.099c.311.02.624.13.94.328.314.199.578.484.79.855.212.371.318.825.318 1.362 0 .51-.116.97-.348 1.378-.232.407-.598.73-1.099.969-.5.239-1.151.358-1.954.358h-3.678Zm1.232-1.094h2.446c.806 0 1.378-.156 1.716-.467.341-.315.512-.696.512-1.143 0-.345-.088-.663-.264-.955a1.907 1.907 0 0 0-.75-.706c-.325-.179-.71-.269-1.154-.269H49.57v3.54Zm0-4.613h2.287c.372 0 .706-.073 1.005-.22.301-.145.54-.35.716-.616a1.63 1.63 0 0 0 .268-.934 1.55 1.55 0 0 0-.467-1.139c-.312-.315-.806-.472-1.482-.472H49.57v3.38Zm9.961 5.886c-.484 0-.923-.091-1.318-.273a2.26 2.26 0 0 1-.94-.8c-.231-.352-.347-.776-.347-1.274 0-.437.086-.792.258-1.063.173-.276.403-.491.691-.647.289-.156.607-.272.955-.348.351-.08.704-.142 1.059-.189.464-.06.84-.104 1.129-.134.291-.033.503-.088.636-.164.136-.076.204-.209.204-.398v-.04c0-.49-.135-.871-.403-1.143-.265-.272-.668-.408-1.208-.408-.56 0-1 .123-1.318.368-.318.246-.541.507-.67.786l-1.114-.398c.199-.464.464-.825.795-1.084a2.98 2.98 0 0 1 1.094-.547 4.54 4.54 0 0 1 1.173-.159c.245 0 .527.03.845.09.322.056.632.174.93.353.302.179.552.449.75.81.2.361.299.845.299 1.452V89h-1.173v-1.034h-.06a2.07 2.07 0 0 1-.398.532c-.185.189-.432.35-.74.482-.309.133-.685.199-1.129.199Zm.179-1.054c.464 0 .855-.091 1.173-.273a1.862 1.862 0 0 0 .975-1.616v-1.074c-.05.06-.16.114-.328.164a5.547 5.547 0 0 1-.577.124 26.415 26.415 0 0 1-1.124.15c-.305.04-.59.104-.855.193a1.474 1.474 0 0 0-.636.393c-.16.172-.239.408-.239.706 0 .408.151.716.453.925.304.205.69.308 1.158.308Zm6.636-3.719V89H65.17v-7.636h1.134v1.193h.1c.178-.388.45-.7.815-.935.364-.239.835-.358 1.412-.358.517 0 .97.106 1.357.318.388.21.69.527.905.955.215.424.323.961.323 1.61V89h-1.173v-4.773c0-.6-.156-1.067-.468-1.402-.311-.338-.739-.507-1.282-.507-.375 0-.71.081-1.005.244-.291.162-.522.4-.69.71-.17.312-.254.69-.254 1.134Zm9.9 4.753c-.637 0-1.199-.16-1.686-.482-.487-.325-.868-.782-1.143-1.372-.275-.594-.413-1.295-.413-2.103 0-.802.138-1.498.413-2.088.275-.59.658-1.046 1.148-1.368.49-.321 1.057-.482 1.7-.482.498 0 .89.083 1.179.249.291.162.513.348.666.557.156.205.277.374.363.507h.1v-3.759h1.172V89h-1.133v-1.173h-.14c-.085.139-.208.315-.367.527-.16.209-.386.396-.681.561-.295.163-.688.244-1.178.244Zm.159-1.054c.47 0 .868-.123 1.193-.368.325-.248.572-.591.74-1.029.17-.44.254-.95.254-1.526 0-.57-.083-1.07-.248-1.497-.166-.43-.412-.765-.736-1.004-.325-.242-.726-.363-1.203-.363-.498 0-.912.128-1.243.383a2.292 2.292 0 0 0-.741 1.03c-.163.43-.244.914-.244 1.45 0 .544.083 1.038.249 1.482.169.441.418.793.746 1.054.331.259.742.388 1.233.388Zm7.382.895-2.326-7.636h1.233l1.65 5.846h.08l1.63-5.846h1.253l1.611 5.826h.08l1.65-5.826h1.233L89.553 89H88.4l-1.67-5.867h-.12L84.94 89h-1.154Zm9.645 0v-7.636h1.174V89H93.43Zm.597-8.91a.834.834 0 0 1-.592-.233.75.75 0 0 1-.243-.561.75.75 0 0 1 .243-.562.834.834 0 0 1 .592-.234c.229 0 .424.078.587.234a.744.744 0 0 1 .248.562.744.744 0 0 1-.248.561.817.817 0 0 1-.587.234Zm5.61 9.07c-.637 0-1.2-.162-1.686-.483-.487-.325-.869-.782-1.144-1.372-.275-.594-.412-1.295-.412-2.103 0-.802.137-1.498.412-2.088.275-.59.658-1.046 1.149-1.368.49-.321 1.057-.482 1.7-.482.497 0 .89.083 1.178.249.292.162.514.348.666.557.156.205.277.374.363.507h.1v-3.759h1.173V89h-1.133v-1.173h-.14c-.086.139-.208.315-.368.527a2.182 2.182 0 0 1-.681.561c-.295.163-.687.244-1.178.244Zm.158-1.055c.471 0 .869-.123 1.193-.368.325-.248.572-.591.741-1.029.169-.44.254-.95.254-1.526 0-.57-.083-1.07-.249-1.497-.166-.43-.411-.765-.736-1.004-.325-.242-.726-.363-1.203-.363-.497 0-.911.128-1.243.383a2.29 2.29 0 0 0-.74 1.03c-.163.43-.244.914-.244 1.45 0 .544.083 1.038.248 1.482.17.441.418.793.746 1.054.332.259.743.388 1.233.388Zm8.974-6.741v.994h-3.958v-.994h3.958Zm-2.804-1.83h1.173v7.278c0 .332.048.58.144.746.1.163.226.272.378.328.156.053.32.08.492.08.13 0 .236-.007.319-.02l.198-.04.239 1.054c-.079.03-.19.06-.333.09-.143.033-.323.05-.542.05a2.36 2.36 0 0 1-.974-.214 1.939 1.939 0 0 1-.786-.652c-.205-.291-.308-.66-.308-1.103v-7.597Zm5.906 4.872V89h-1.173V78.818h1.173v3.739h.1c.179-.395.447-.708.805-.94.361-.235.842-.353 1.442-.353.52 0 .976.105 1.367.313.391.206.694.522.91.95.218.424.328.965.328 1.62V89h-1.173v-4.773c0-.606-.158-1.075-.473-1.407-.311-.334-.744-.502-1.297-.502-.385 0-.729.081-1.034.244-.302.162-.541.4-.716.71-.173.312-.259.69-.259 1.134Z" fill="#616B7C"/>
<rect x="47" y="49" width="92" height="12" rx="6" fill="url(#b)"/>
<rect x="16" y="16" width="358" height="341" rx="16" fill="url(#c)"/>
<defs>
<radialGradient id="c" cx="0" cy="0" r="1" gradientUnits="userSpaceOnUse" gradientTransform="matrix(-343.864 0 0 -7528.15 364.935 186.5)">
<stop stop-color="#232325" stop-opacity=".5"/>
<stop offset=".24" stop-color="#232325" stop-opacity=".9"/>
<stop offset=".505" stop-color="#232325"/>
<stop offset=".756" stop-color="#232325" stop-opacity=".9"/>
<stop offset="1" stop-color="#232325" stop-opacity=".5"/>
</radialGradient>
<linearGradient id="b" x1="47" y1="55" x2="131" y2="55" gradientUnits="userSpaceOnUse">
<stop stop-color="#616B7C"/>
<stop offset="1" stop-color="#373B4D"/>
</linearGradient>
<filter id="a" x="-15.502" y=".5" width="422.002" height="405" filterUnits="userSpaceOnUse" color-interpolation-filters="sRGB">
<feFlood flood-opacity="0" result="BackgroundImageFix"/>
<feColorMatrix in="SourceAlpha" values="0 0 0 0 0 0 0 0 0 0 0 0 0 0 0 0 0 0 127 0" result="hardAlpha"/>
<feOffset dy="16"/>
<feGaussianBlur stdDeviation="16"/>
<feColorMatrix values="0 0 0 0 0.215686 0 0 0 0 0.231373 0 0 0 0 0.301961 0 0 0 0.02 0"/>
<feBlend in2="BackgroundImageFix" result="effect1_dropShadow_3221_1674"/>
<feBlend in="SourceGraphic" in2="effect1_dropShadow_3221_1674" result="shape"/>
</filter>
</defs>
</svg>
