<svg width="357" height="344" viewBox="0 0 357 344" fill="none" xmlns="http://www.w3.org/2000/svg">
<rect x="1" y="1" width="355" height="340" rx="16" fill="#1D1D21" stroke="#414146"/>
<path opacity="0.5" d="M32.4996 131.707V130.838L36.3349 124.77H36.9656V126.116H36.5394L33.6417 130.702V130.77H38.8065V131.707H32.4996ZM36.6076 133.497V131.443V131.038V124.77H37.6133V133.497H36.6076ZM43.25 133.616C42.608 133.616 42.0611 133.442 41.6094 133.092C41.1577 132.74 40.8125 132.23 40.5739 131.562C40.3352 130.892 40.2159 130.082 40.2159 129.133C40.2159 128.19 40.3352 127.385 40.5739 126.717C40.8153 126.047 41.1619 125.535 41.6136 125.183C42.0682 124.828 42.6136 124.65 43.25 124.65C43.8864 124.65 44.4304 124.828 44.8821 125.183C45.3366 125.535 45.6832 126.047 45.9219 126.717C46.1634 127.385 46.2841 128.19 46.2841 129.133C46.2841 130.082 46.1648 130.892 45.9261 131.562C45.6875 132.23 45.3423 132.74 44.8906 133.092C44.4389 133.442 43.892 133.616 43.25 133.616ZM43.25 132.679C43.8864 132.679 44.3807 132.372 44.733 131.758C45.0852 131.145 45.2614 130.27 45.2614 129.133C45.2614 128.378 45.1804 127.734 45.0185 127.203C44.8594 126.672 44.6293 126.267 44.3281 125.989C44.0298 125.71 43.6705 125.571 43.25 125.571C42.6193 125.571 42.1264 125.882 41.7713 126.504C41.4162 127.123 41.2386 128 41.2386 129.133C41.2386 129.889 41.3182 130.531 41.4773 131.06C41.6364 131.588 41.8651 131.99 42.1634 132.266C42.4645 132.541 42.8267 132.679 43.25 132.679ZM50.75 133.616C50.108 133.616 49.5611 133.442 49.1094 133.092C48.6577 132.74 48.3125 132.23 48.0739 131.562C47.8352 130.892 47.7159 130.082 47.7159 129.133C47.7159 128.19 47.8352 127.385 48.0739 126.717C48.3153 126.047 48.6619 125.535 49.1136 125.183C49.5682 124.828 50.1136 124.65 50.75 124.65C51.3864 124.65 51.9304 124.828 52.3821 125.183C52.8366 125.535 53.1832 126.047 53.4219 126.717C53.6634 127.385 53.7841 128.19 53.7841 129.133C53.7841 130.082 53.6648 130.892 53.4261 131.562C53.1875 132.23 52.8423 132.74 52.3906 133.092C51.9389 133.442 51.392 133.616 50.75 133.616ZM50.75 132.679C51.3864 132.679 51.8807 132.372 52.233 131.758C52.5852 131.145 52.7614 130.27 52.7614 129.133C52.7614 128.378 52.6804 127.734 52.5185 127.203C52.3594 126.672 52.1293 126.267 51.8281 125.989C51.5298 125.71 51.1705 125.571 50.75 125.571C50.1193 125.571 49.6264 125.882 49.2713 126.504C48.9162 127.123 48.7386 128 48.7386 129.133C48.7386 129.889 48.8182 130.531 48.9773 131.06C49.1364 131.588 49.3651 131.99 49.6634 132.266C49.9645 132.541 50.3267 132.679 50.75 132.679ZM58.25 133.616C57.608 133.616 57.0611 133.442 56.6094 133.092C56.1577 132.74 55.8125 132.23 55.5739 131.562C55.3352 130.892 55.2159 130.082 55.2159 129.133C55.2159 128.19 55.3352 127.385 55.5739 126.717C55.8153 126.047 56.1619 125.535 56.6136 125.183C57.0682 124.828 57.6136 124.65 58.25 124.65C58.8864 124.65 59.4304 124.828 59.8821 125.183C60.3366 125.535 60.6832 126.047 60.9219 126.717C61.1634 127.385 61.2841 128.19 61.2841 129.133C61.2841 130.082 61.1648 130.892 60.9261 131.562C60.6875 132.23 60.3423 132.74 59.8906 133.092C59.4389 133.442 58.892 133.616 58.25 133.616ZM58.25 132.679C58.8864 132.679 59.3807 132.372 59.733 131.758C60.0852 131.145 60.2614 130.27 60.2614 129.133C60.2614 128.378 60.1804 127.734 60.0185 127.203C59.8594 126.672 59.6293 126.267 59.3281 125.989C59.0298 125.71 58.6705 125.571 58.25 125.571C57.6193 125.571 57.1264 125.882 56.7713 126.504C56.4162 127.123 56.2386 128 56.2386 129.133C56.2386 129.889 56.3182 130.531 56.4773 131.06C56.6364 131.588 56.8651 131.99 57.1634 132.266C57.4645 132.541 57.8267 132.679 58.25 132.679Z" fill="#818186"/>
<line x1="78" y1="129.247" x2="324" y2="129.247" stroke="#818186" stroke-width="0.5"/>
<path opacity="0.5" d="M35.7116 168.886C35.1491 168.886 34.6477 168.789 34.2074 168.596C33.7699 168.403 33.4219 168.134 33.1634 167.791C32.9077 167.444 32.7685 167.042 32.7457 166.585H33.8196C33.8423 166.866 33.9389 167.109 34.1094 167.313C34.2798 167.515 34.5028 167.671 34.7784 167.782C35.054 167.893 35.3594 167.948 35.6946 167.948C36.0696 167.948 36.402 167.883 36.6918 167.752C36.9815 167.622 37.2088 167.44 37.3736 167.207C37.5384 166.974 37.6207 166.704 37.6207 166.397C37.6207 166.076 37.5412 165.794 37.3821 165.549C37.223 165.302 36.9901 165.109 36.6832 164.97C36.3764 164.831 36.0014 164.761 35.5582 164.761H34.8594V163.823H35.5582C35.9048 163.823 36.2088 163.761 36.4702 163.636C36.7344 163.511 36.9403 163.335 37.0881 163.108C37.2386 162.88 37.3139 162.613 37.3139 162.306C37.3139 162.011 37.2486 161.754 37.1179 161.535C36.9872 161.316 36.8026 161.146 36.5639 161.024C36.3281 160.902 36.0497 160.84 35.7287 160.84C35.4276 160.84 35.1435 160.896 34.8764 161.007C34.6122 161.115 34.3963 161.272 34.2287 161.48C34.0611 161.684 33.9702 161.931 33.956 162.221H32.9332C32.9503 161.764 33.0881 161.363 33.3466 161.019C33.6051 160.673 33.9432 160.403 34.3608 160.21C34.7813 160.017 35.2429 159.92 35.7457 159.92C36.2855 159.92 36.7486 160.029 37.1349 160.248C37.5213 160.464 37.8182 160.75 38.0256 161.105C38.233 161.46 38.3366 161.843 38.3366 162.255C38.3366 162.747 38.2074 163.166 37.9489 163.512C37.6932 163.859 37.3452 164.099 36.9048 164.233V164.301C37.456 164.392 37.8864 164.626 38.196 165.004C38.5057 165.379 38.6605 165.843 38.6605 166.397C38.6605 166.872 38.5313 167.298 38.2727 167.676C38.017 168.051 37.6676 168.346 37.2244 168.562C36.7813 168.778 36.277 168.886 35.7116 168.886ZM43.25 168.886C42.608 168.886 42.0611 168.711 41.6094 168.362C41.1577 168.009 40.8125 167.5 40.5739 166.832C40.3352 166.161 40.2159 165.352 40.2159 164.403C40.2159 163.46 40.3352 162.654 40.5739 161.987C40.8153 161.316 41.1619 160.805 41.6136 160.453C42.0682 160.098 42.6136 159.92 43.25 159.92C43.8864 159.92 44.4304 160.098 44.8821 160.453C45.3366 160.805 45.6832 161.316 45.9219 161.987C46.1634 162.654 46.2841 163.46 46.2841 164.403C46.2841 165.352 46.1648 166.161 45.9261 166.832C45.6875 167.5 45.3423 168.009 44.8906 168.362C44.4389 168.711 43.892 168.886 43.25 168.886ZM43.25 167.948C43.8864 167.948 44.3807 167.642 44.733 167.028C45.0852 166.414 45.2614 165.539 45.2614 164.403C45.2614 163.647 45.1804 163.004 45.0185 162.473C44.8594 161.941 44.6293 161.536 44.3281 161.258C44.0298 160.98 43.6705 160.84 43.25 160.84C42.6193 160.84 42.1264 161.152 41.7713 161.774C41.4162 162.393 41.2386 163.269 41.2386 164.403C41.2386 165.159 41.3182 165.801 41.4773 166.329C41.6364 166.858 41.8651 167.259 42.1634 167.535C42.4645 167.811 42.8267 167.948 43.25 167.948ZM50.75 168.886C50.108 168.886 49.5611 168.711 49.1094 168.362C48.6577 168.009 48.3125 167.5 48.0739 166.832C47.8352 166.161 47.7159 165.352 47.7159 164.403C47.7159 163.46 47.8352 162.654 48.0739 161.987C48.3153 161.316 48.6619 160.805 49.1136 160.453C49.5682 160.098 50.1136 159.92 50.75 159.92C51.3864 159.92 51.9304 160.098 52.3821 160.453C52.8366 160.805 53.1832 161.316 53.4219 161.987C53.6634 162.654 53.7841 163.46 53.7841 164.403C53.7841 165.352 53.6648 166.161 53.4261 166.832C53.1875 167.5 52.8423 168.009 52.3906 168.362C51.9389 168.711 51.392 168.886 50.75 168.886ZM50.75 167.948C51.3864 167.948 51.8807 167.642 52.233 167.028C52.5852 166.414 52.7614 165.539 52.7614 164.403C52.7614 163.647 52.6804 163.004 52.5185 162.473C52.3594 161.941 52.1293 161.536 51.8281 161.258C51.5298 160.98 51.1705 160.84 50.75 160.84C50.1193 160.84 49.6264 161.152 49.2713 161.774C48.9162 162.393 48.7386 163.269 48.7386 164.403C48.7386 165.159 48.8182 165.801 48.9773 166.329C49.1364 166.858 49.3651 167.259 49.6634 167.535C49.9645 167.811 50.3267 167.948 50.75 167.948ZM58.25 168.886C57.608 168.886 57.0611 168.711 56.6094 168.362C56.1577 168.009 55.8125 167.5 55.5739 166.832C55.3352 166.161 55.2159 165.352 55.2159 164.403C55.2159 163.46 55.3352 162.654 55.5739 161.987C55.8153 161.316 56.1619 160.805 56.6136 160.453C57.0682 160.098 57.6136 159.92 58.25 159.92C58.8864 159.92 59.4304 160.098 59.8821 160.453C60.3366 160.805 60.6832 161.316 60.9219 161.987C61.1634 162.654 61.2841 163.46 61.2841 164.403C61.2841 165.352 61.1648 166.161 60.9261 166.832C60.6875 167.5 60.3423 168.009 59.8906 168.362C59.4389 168.711 58.892 168.886 58.25 168.886ZM58.25 167.948C58.8864 167.948 59.3807 167.642 59.733 167.028C60.0852 166.414 60.2614 165.539 60.2614 164.403C60.2614 163.647 60.1804 163.004 60.0185 162.473C59.8594 161.941 59.6293 161.536 59.3281 161.258C59.0298 160.98 58.6705 160.84 58.25 160.84C57.6193 160.84 57.1264 161.152 56.7713 161.774C56.4162 162.393 56.2386 163.269 56.2386 164.403C56.2386 165.159 56.3182 165.801 56.4773 166.329C56.6364 166.858 56.8651 167.259 57.1634 167.535C57.4645 167.811 57.8267 167.948 58.25 167.948Z" fill="#818186"/>
<line x1="78" y1="164.517" x2="324" y2="164.517" stroke="#818186" stroke-width="0.5"/>
<path opacity="0.5" d="M33.1378 204.964V204.197L36.0185 201.043C36.3565 200.674 36.6349 200.353 36.8537 200.08C37.0724 199.805 37.2344 199.546 37.3395 199.305C37.4474 199.06 37.5014 198.805 37.5014 198.538C37.5014 198.231 37.4276 197.965 37.2798 197.741C37.1349 197.516 36.9361 197.343 36.6832 197.221C36.4304 197.099 36.1463 197.038 35.831 197.038C35.4957 197.038 35.2031 197.107 34.9531 197.247C34.706 197.383 34.5142 197.575 34.3778 197.822C34.2443 198.069 34.1776 198.359 34.1776 198.691H33.1719C33.1719 198.18 33.2898 197.731 33.5256 197.345C33.7614 196.958 34.0824 196.657 34.4886 196.441C34.8977 196.225 35.3565 196.117 35.8651 196.117C36.3764 196.117 36.8295 196.225 37.2244 196.441C37.6193 196.657 37.929 196.948 38.1534 197.315C38.3778 197.681 38.4901 198.089 38.4901 198.538C38.4901 198.859 38.4318 199.173 38.3153 199.479C38.2017 199.783 38.0028 200.123 37.7188 200.498C37.4375 200.87 37.0469 201.325 36.5469 201.862L34.5866 203.958V204.026H38.6435V204.964H33.1378ZM43.25 205.083C42.608 205.083 42.0611 204.908 41.6094 204.559C41.1577 204.207 40.8125 203.697 40.5739 203.029C40.3352 202.359 40.2159 201.549 40.2159 200.6C40.2159 199.657 40.3352 198.852 40.5739 198.184C40.8153 197.514 41.1619 197.002 41.6136 196.65C42.0682 196.295 42.6136 196.117 43.25 196.117C43.8864 196.117 44.4304 196.295 44.8821 196.65C45.3366 197.002 45.6832 197.514 45.9219 198.184C46.1634 198.852 46.2841 199.657 46.2841 200.6C46.2841 201.549 46.1648 202.359 45.9261 203.029C45.6875 203.697 45.3423 204.207 44.8906 204.559C44.4389 204.908 43.892 205.083 43.25 205.083ZM43.25 204.146C43.8864 204.146 44.3807 203.839 44.733 203.225C45.0852 202.612 45.2614 201.737 45.2614 200.6C45.2614 199.845 45.1804 199.201 45.0185 198.67C44.8594 198.139 44.6293 197.734 44.3281 197.455C44.0298 197.177 43.6705 197.038 43.25 197.038C42.6193 197.038 42.1264 197.349 41.7713 197.971C41.4162 198.59 41.2386 199.467 41.2386 200.6C41.2386 201.356 41.3182 201.998 41.4773 202.526C41.6364 203.055 41.8651 203.457 42.1634 203.732C42.4645 204.008 42.8267 204.146 43.25 204.146ZM50.75 205.083C50.108 205.083 49.5611 204.908 49.1094 204.559C48.6577 204.207 48.3125 203.697 48.0739 203.029C47.8352 202.359 47.7159 201.549 47.7159 200.6C47.7159 199.657 47.8352 198.852 48.0739 198.184C48.3153 197.514 48.6619 197.002 49.1136 196.65C49.5682 196.295 50.1136 196.117 50.75 196.117C51.3864 196.117 51.9304 196.295 52.3821 196.65C52.8366 197.002 53.1832 197.514 53.4219 198.184C53.6634 198.852 53.7841 199.657 53.7841 200.6C53.7841 201.549 53.6648 202.359 53.4261 203.029C53.1875 203.697 52.8423 204.207 52.3906 204.559C51.9389 204.908 51.392 205.083 50.75 205.083ZM50.75 204.146C51.3864 204.146 51.8807 203.839 52.233 203.225C52.5852 202.612 52.7614 201.737 52.7614 200.6C52.7614 199.845 52.6804 199.201 52.5185 198.67C52.3594 198.139 52.1293 197.734 51.8281 197.455C51.5298 197.177 51.1705 197.038 50.75 197.038C50.1193 197.038 49.6264 197.349 49.2713 197.971C48.9162 198.59 48.7386 199.467 48.7386 200.6C48.7386 201.356 48.8182 201.998 48.9773 202.526C49.1364 203.055 49.3651 203.457 49.6634 203.732C49.9645 204.008 50.3267 204.146 50.75 204.146ZM58.25 205.083C57.608 205.083 57.0611 204.908 56.6094 204.559C56.1577 204.207 55.8125 203.697 55.5739 203.029C55.3352 202.359 55.2159 201.549 55.2159 200.6C55.2159 199.657 55.3352 198.852 55.5739 198.184C55.8153 197.514 56.1619 197.002 56.6136 196.65C57.0682 196.295 57.6136 196.117 58.25 196.117C58.8864 196.117 59.4304 196.295 59.8821 196.65C60.3366 197.002 60.6832 197.514 60.9219 198.184C61.1634 198.852 61.2841 199.657 61.2841 200.6C61.2841 201.549 61.1648 202.359 60.9261 203.029C60.6875 203.697 60.3423 204.207 59.8906 204.559C59.4389 204.908 58.892 205.083 58.25 205.083ZM58.25 204.146C58.8864 204.146 59.3807 203.839 59.733 203.225C60.0852 202.612 60.2614 201.737 60.2614 200.6C60.2614 199.845 60.1804 199.201 60.0185 198.67C59.8594 198.139 59.6293 197.734 59.3281 197.455C59.0298 197.177 58.6705 197.038 58.25 197.038C57.6193 197.038 57.1264 197.349 56.7713 197.971C56.4162 198.59 56.2386 199.467 56.2386 200.6C56.2386 201.356 56.3182 201.998 56.4773 202.526C56.6364 203.055 56.8651 203.457 57.1634 203.732C57.4645 204.008 57.8267 204.146 58.25 204.146Z" fill="#818186"/>
<line x1="78" y1="200.714" x2="324" y2="200.714" stroke="#818186" stroke-width="0.5"/>
<path opacity="0.5" d="M37.8935 231.507V240.234H36.8366V232.615H36.7855L34.6548 234.029V232.955L36.8366 231.507H37.8935ZM43.25 240.353C42.608 240.353 42.0611 240.178 41.6094 239.829C41.1577 239.477 40.8125 238.967 40.5739 238.299C40.3352 237.629 40.2159 236.819 40.2159 235.87C40.2159 234.927 40.3352 234.122 40.5739 233.454C40.8153 232.784 41.1619 232.272 41.6136 231.92C42.0682 231.565 42.6136 231.387 43.25 231.387C43.8864 231.387 44.4304 231.565 44.8821 231.92C45.3366 232.272 45.6832 232.784 45.9219 233.454C46.1634 234.122 46.2841 234.927 46.2841 235.87C46.2841 236.819 46.1648 237.629 45.9261 238.299C45.6875 238.967 45.3423 239.477 44.8906 239.829C44.4389 240.178 43.892 240.353 43.25 240.353ZM43.25 239.416C43.8864 239.416 44.3807 239.109 44.733 238.495C45.0852 237.882 45.2614 237.007 45.2614 235.87C45.2614 235.115 45.1804 234.471 45.0185 233.94C44.8594 233.409 44.6293 233.004 44.3281 232.725C44.0298 232.447 43.6705 232.308 43.25 232.308C42.6193 232.308 42.1264 232.619 41.7713 233.241C41.4162 233.86 41.2386 234.737 41.2386 235.87C41.2386 236.626 41.3182 237.268 41.4773 237.796C41.6364 238.325 41.8651 238.727 42.1634 239.002C42.4645 239.278 42.8267 239.416 43.25 239.416ZM50.75 240.353C50.108 240.353 49.5611 240.178 49.1094 239.829C48.6577 239.477 48.3125 238.967 48.0739 238.299C47.8352 237.629 47.7159 236.819 47.7159 235.87C47.7159 234.927 47.8352 234.122 48.0739 233.454C48.3153 232.784 48.6619 232.272 49.1136 231.92C49.5682 231.565 50.1136 231.387 50.75 231.387C51.3864 231.387 51.9304 231.565 52.3821 231.92C52.8366 232.272 53.1832 232.784 53.4219 233.454C53.6634 234.122 53.7841 234.927 53.7841 235.87C53.7841 236.819 53.6648 237.629 53.4261 238.299C53.1875 238.967 52.8423 239.477 52.3906 239.829C51.9389 240.178 51.392 240.353 50.75 240.353ZM50.75 239.416C51.3864 239.416 51.8807 239.109 52.233 238.495C52.5852 237.882 52.7614 237.007 52.7614 235.87C52.7614 235.115 52.6804 234.471 52.5185 233.94C52.3594 233.409 52.1293 233.004 51.8281 232.725C51.5298 232.447 51.1705 232.308 50.75 232.308C50.1193 232.308 49.6264 232.619 49.2713 233.241C48.9162 233.86 48.7386 234.737 48.7386 235.87C48.7386 236.626 48.8182 237.268 48.9773 237.796C49.1364 238.325 49.3651 238.727 49.6634 239.002C49.9645 239.278 50.3267 239.416 50.75 239.416ZM58.25 240.353C57.608 240.353 57.0611 240.178 56.6094 239.829C56.1577 239.477 55.8125 238.967 55.5739 238.299C55.3352 237.629 55.2159 236.819 55.2159 235.87C55.2159 234.927 55.3352 234.122 55.5739 233.454C55.8153 232.784 56.1619 232.272 56.6136 231.92C57.0682 231.565 57.6136 231.387 58.25 231.387C58.8864 231.387 59.4304 231.565 59.8821 231.92C60.3366 232.272 60.6832 232.784 60.9219 233.454C61.1634 234.122 61.2841 234.927 61.2841 235.87C61.2841 236.819 61.1648 237.629 60.9261 238.299C60.6875 238.967 60.3423 239.477 59.8906 239.829C59.4389 240.178 58.892 240.353 58.25 240.353ZM58.25 239.416C58.8864 239.416 59.3807 239.109 59.733 238.495C60.0852 237.882 60.2614 237.007 60.2614 235.87C60.2614 235.115 60.1804 234.471 60.0185 233.94C59.8594 233.409 59.6293 233.004 59.3281 232.725C59.0298 232.447 58.6705 232.308 58.25 232.308C57.6193 232.308 57.1264 232.619 56.7713 233.241C56.4162 233.86 56.2386 234.737 56.2386 235.87C56.2386 236.626 56.3182 237.268 56.4773 237.796C56.6364 238.325 56.8651 238.727 57.1634 239.002C57.4645 239.278 57.8267 239.416 58.25 239.416Z" fill="#818186"/>
<line x1="78" y1="235.984" x2="324" y2="235.984" stroke="#818186" stroke-width="0.5"/>
<path opacity="0.5" d="M58.25 275.622C57.608 275.622 57.0611 275.448 56.6094 275.098C56.1577 274.746 55.8125 274.236 55.5739 273.568C55.3352 272.898 55.2159 272.088 55.2159 271.139C55.2159 270.196 55.3352 269.391 55.5739 268.723C55.8153 268.053 56.1619 267.541 56.6136 267.189C57.0682 266.834 57.6136 266.656 58.25 266.656C58.8864 266.656 59.4304 266.834 59.8821 267.189C60.3366 267.541 60.6832 268.053 60.9219 268.723C61.1634 269.391 61.2841 270.196 61.2841 271.139C61.2841 272.088 61.1648 272.898 60.9261 273.568C60.6875 274.236 60.3423 274.746 59.8906 275.098C59.4389 275.448 58.892 275.622 58.25 275.622ZM58.25 274.685C58.8864 274.685 59.3807 274.378 59.733 273.764C60.0852 273.151 60.2614 272.276 60.2614 271.139C60.2614 270.384 60.1804 269.74 60.0185 269.209C59.8594 268.678 59.6293 268.273 59.3281 267.994C59.0298 267.716 58.6705 267.577 58.25 267.577C57.6193 267.577 57.1264 267.888 56.7713 268.51C56.4162 269.129 56.2386 270.006 56.2386 271.139C56.2386 271.895 56.3182 272.537 56.4773 273.065C56.6364 273.594 56.8651 273.996 57.1634 274.271C57.4645 274.547 57.8267 274.685 58.25 274.685Z" fill="#818186"/>
<line x1="78" y1="271.253" x2="324" y2="271.253" stroke="#818186" stroke-width="0.5"/>
<path d="M79 272C81.6544 265.5 85.3705 262.5 90.5516 231.884C92.9279 217.842 99.379 168.103 108.952 164.565C126.55 158.062 135.089 200.517 149.322 200.517C160.968 200.517 165.723 190.24 174.993 174.025C184.263 157.81 189.994 168.129 193.027 171.077C196.061 174.025 210.893 198.348 220.838 151.545C228.793 114.102 242.967 127.959 249.49 138.278C256.379 147.122 273.204 210.133 284.665 199.519C296.126 188.905 317.013 174.025 324 212.501" stroke="#F02E65"/>
<rect x="30" y="33" width="92" height="12" rx="6" fill="url(#paint0_linear_11_237)"/>
<path d="M35.5259 73V62.8182H38.9663C39.7617 62.8182 40.4147 62.9541 40.9251 63.2259C41.4355 63.4943 41.8133 63.8639 42.0586 64.3345C42.3039 64.8052 42.4265 65.3404 42.4265 65.9403C42.4265 66.5402 42.3039 67.0722 42.0586 67.5362C41.8133 68.0002 41.4371 68.3648 40.93 68.63C40.4229 68.8918 39.775 69.0227 38.9862 69.0227H36.2021V67.9091H38.9464C39.4899 67.9091 39.9274 67.8295 40.2589 67.6705C40.5936 67.5114 40.8356 67.286 40.9847 66.9943C41.1372 66.6993 41.2134 66.348 41.2134 65.9403C41.2134 65.5327 41.1372 65.1764 40.9847 64.8714C40.8323 64.5665 40.5887 64.3312 40.2539 64.1655C39.9192 63.9964 39.4767 63.9119 38.9265 63.9119H36.7589V73H35.5259ZM40.3185 68.4261L42.8242 73H41.3924L38.9265 68.4261H40.3185ZM47.4416 73.1591C46.7058 73.1591 46.0711 72.9967 45.5375 72.6719C45.0072 72.3438 44.5978 71.8864 44.3095 71.2997C44.0244 70.7098 43.8819 70.0237 43.8819 69.2415C43.8819 68.4593 44.0244 67.7699 44.3095 67.1733C44.5978 66.5734 44.9989 66.1061 45.5126 65.7713C46.0297 65.4332 46.6329 65.2642 47.3223 65.2642C47.72 65.2642 48.1127 65.3305 48.5005 65.4631C48.8883 65.5956 49.2413 65.8111 49.5595 66.1094C49.8777 66.4044 50.1312 66.7955 50.3201 67.2827C50.5091 67.7699 50.6035 68.3698 50.6035 69.0824V69.5795H44.7172V68.5653H49.4103C49.4103 68.1345 49.3242 67.75 49.1518 67.4119C48.9828 67.0739 48.7408 66.8071 48.426 66.6115C48.1144 66.416 47.7465 66.3182 47.3223 66.3182C46.8549 66.3182 46.4506 66.4342 46.1092 66.6662C45.7711 66.8949 45.5109 67.1932 45.3287 67.5611C45.1464 67.929 45.0552 68.3234 45.0552 68.7443V69.4205C45.0552 69.9972 45.1547 70.486 45.3535 70.8871C45.5557 71.2848 45.8358 71.5881 46.1937 71.7969C46.5517 72.0024 46.9676 72.1051 47.4416 72.1051C47.7498 72.1051 48.0282 72.062 48.2768 71.9759C48.5287 71.8864 48.7458 71.7538 48.9281 71.5781C49.1104 71.3991 49.2512 71.1771 49.3507 70.9119L50.4842 71.2301C50.3649 71.6146 50.1644 71.9527 49.8826 72.2443C49.6009 72.5327 49.2529 72.758 48.8386 72.9205C48.4243 73.0795 47.9586 73.1591 47.4416 73.1591ZM57.5985 75.8636V71.8267H57.4991C57.4129 71.9659 57.2903 72.1416 57.1312 72.3537C56.9721 72.5625 56.7451 72.7498 56.4501 72.9155C56.1551 73.0779 55.7624 73.1591 55.2718 73.1591C54.6355 73.1591 54.0737 72.9983 53.5865 72.6768C53.0993 72.352 52.7181 71.8946 52.443 71.3047C52.1679 70.7114 52.0304 70.0104 52.0304 69.2017C52.0304 68.3996 52.1679 67.7036 52.443 67.1136C52.7181 66.5237 53.1009 66.0679 53.5914 65.7464C54.082 65.425 54.6487 65.2642 55.2917 65.2642C55.7889 65.2642 56.1816 65.3471 56.47 65.5128C56.7617 65.6752 56.9837 65.8608 57.1362 66.0696C57.292 66.2751 57.4129 66.4441 57.4991 66.5767H57.6383V65.3636H58.7718V75.8636H57.5985ZM55.4309 72.1051C55.9016 72.1051 56.2993 71.9825 56.6241 71.7372C56.9489 71.4886 57.1958 71.1456 57.3649 70.7081C57.5339 70.2673 57.6184 69.7585 57.6184 69.1818C57.6184 68.6117 57.5356 68.1129 57.3699 67.6854C57.2041 67.2545 56.9589 66.9197 56.6341 66.6811C56.3092 66.4392 55.9082 66.3182 55.4309 66.3182C54.9338 66.3182 54.5195 66.4458 54.188 66.701C53.8599 66.9529 53.613 67.2959 53.4473 67.7301C53.2849 68.161 53.2037 68.6449 53.2037 69.1818C53.2037 69.7254 53.2865 70.2192 53.4522 70.6634C53.6213 71.1042 53.8699 71.4555 54.198 71.7173C54.5294 71.9759 54.9404 72.1051 55.4309 72.1051ZM65.7321 69.8778V65.3636H66.9054V73H65.7321V71.7074H65.6525C65.4735 72.0952 65.1951 72.425 64.8173 72.6967C64.4395 72.9652 63.9622 73.0994 63.3855 73.0994C62.9082 73.0994 62.484 72.995 62.1127 72.7862C61.7415 72.5741 61.4499 72.2559 61.2377 71.8317C61.0256 71.4041 60.9196 70.8655 60.9196 70.2159V65.3636H62.0929V70.1364C62.0929 70.6932 62.2486 71.1373 62.5602 71.4688C62.8751 71.8002 63.2761 71.9659 63.7633 71.9659C64.055 71.9659 64.3516 71.8913 64.6532 71.7422C64.9582 71.593 65.2134 71.3643 65.4189 71.0561C65.6277 70.7479 65.7321 70.3551 65.7321 69.8778ZM72.256 73.1591C71.5202 73.1591 70.8855 72.9967 70.3519 72.6719C69.8216 72.3438 69.4123 71.8864 69.1239 71.2997C68.8389 70.7098 68.6964 70.0237 68.6964 69.2415C68.6964 68.4593 68.8389 67.7699 69.1239 67.1733C69.4123 66.5734 69.8133 66.1061 70.3271 65.7713C70.8441 65.4332 71.4473 65.2642 72.1367 65.2642C72.5344 65.2642 72.9272 65.3305 73.315 65.4631C73.7028 65.5956 74.0558 65.8111 74.3739 66.1094C74.6921 66.4044 74.9457 66.7955 75.1346 67.2827C75.3235 67.7699 75.418 68.3698 75.418 69.0824V69.5795H69.5316V68.5653H74.2248C74.2248 68.1345 74.1386 67.75 73.9663 67.4119C73.7972 67.0739 73.5553 66.8071 73.2404 66.6115C72.9289 66.416 72.561 66.3182 72.1367 66.3182C71.6694 66.3182 71.265 66.4342 70.9237 66.6662C70.5856 66.8949 70.3254 67.1932 70.1431 67.5611C69.9608 67.929 69.8697 68.3234 69.8697 68.7443V69.4205C69.8697 69.9972 69.9691 70.486 70.168 70.8871C70.3701 71.2848 70.6502 71.5881 71.0082 71.7969C71.3661 72.0024 71.7821 72.1051 72.256 72.1051C72.5643 72.1051 72.8427 72.062 73.0913 71.9759C73.3432 71.8864 73.5603 71.7538 73.7425 71.5781C73.9248 71.3991 74.0657 71.1771 74.1651 70.9119L75.2987 71.2301C75.1793 71.6146 74.9788 71.9527 74.6971 72.2443C74.4154 72.5327 74.0674 72.758 73.6531 72.9205C73.2388 73.0795 72.7731 73.1591 72.256 73.1591ZM82.6119 67.0739L81.5579 67.3722C81.4916 67.1965 81.3938 67.0258 81.2646 66.8601C81.1386 66.6911 80.9663 66.5518 80.7475 66.4425C80.5288 66.3331 80.2487 66.2784 79.9073 66.2784C79.44 66.2784 79.0505 66.3861 78.739 66.6016C78.4308 66.8137 78.2766 67.0838 78.2766 67.4119C78.2766 67.7036 78.3827 67.9339 78.5948 68.103C78.8069 68.272 79.1384 68.4129 79.5891 68.5256L80.7227 68.804C81.4054 68.9697 81.9142 69.2232 82.2489 69.5646C82.5837 69.9027 82.7511 70.3385 82.7511 70.8722C82.7511 71.3097 82.6251 71.7008 82.3732 72.0455C82.1246 72.3902 81.7766 72.6619 81.3292 72.8608C80.8817 73.0597 80.3614 73.1591 79.7681 73.1591C78.9892 73.1591 78.3446 72.9901 77.8342 72.652C77.3237 72.3139 77.0006 71.8201 76.8647 71.1705L77.9783 70.892C78.0844 71.303 78.2849 71.6113 78.5799 71.8168C78.8782 72.0223 79.2676 72.125 79.7482 72.125C80.2951 72.125 80.7293 72.009 81.0508 71.777C81.3756 71.5417 81.538 71.2599 81.538 70.9318C81.538 70.6667 81.4452 70.4446 81.2596 70.2656C81.074 70.0833 80.7889 69.9474 80.4045 69.858L79.1317 69.5597C78.4324 69.3939 77.9187 69.1371 77.5906 68.7891C77.2657 68.4377 77.1033 67.9986 77.1033 67.4716C77.1033 67.0407 77.2243 66.6596 77.4663 66.3281C77.7115 65.9967 78.0446 65.7365 78.4656 65.5476C78.8898 65.3587 79.3704 65.2642 79.9073 65.2642C80.663 65.2642 81.2563 65.4299 81.6871 65.7614C82.1213 66.0928 82.4296 66.5303 82.6119 67.0739ZM87.8382 65.3636V66.358H83.8809V65.3636H87.8382ZM85.0343 63.5341H86.2076V70.8125C86.2076 71.1439 86.2556 71.3925 86.3517 71.5582C86.4512 71.7206 86.5771 71.83 86.7296 71.8864C86.8854 71.9394 87.0494 71.9659 87.2218 71.9659C87.351 71.9659 87.4571 71.9593 87.54 71.946C87.6228 71.9295 87.6891 71.9162 87.7388 71.9062L87.9775 72.9602C87.8979 72.9901 87.7869 73.0199 87.6444 73.0497C87.5018 73.0829 87.3212 73.0994 87.1025 73.0994C86.771 73.0994 86.4462 73.0282 86.128 72.8857C85.8132 72.7431 85.5513 72.526 85.3425 72.2344C85.137 71.9427 85.0343 71.5748 85.0343 71.1307V63.5341ZM94.8755 67.0739L93.8216 67.3722C93.7553 67.1965 93.6575 67.0258 93.5282 66.8601C93.4023 66.6911 93.2299 66.5518 93.0112 66.4425C92.7924 66.3331 92.5124 66.2784 92.171 66.2784C91.7037 66.2784 91.3142 66.3861 91.0027 66.6016C90.6944 66.8137 90.5403 67.0838 90.5403 67.4119C90.5403 67.7036 90.6464 67.9339 90.8585 68.103C91.0706 68.272 91.402 68.4129 91.8528 68.5256L92.9863 68.804C93.6691 68.9697 94.1779 69.2232 94.5126 69.5646C94.8474 69.9027 95.0147 70.3385 95.0147 70.8722C95.0147 71.3097 94.8888 71.7008 94.6369 72.0455C94.3883 72.3902 94.0403 72.6619 93.5929 72.8608C93.1454 73.0597 92.6251 73.1591 92.0318 73.1591C91.2529 73.1591 90.6083 72.9901 90.0978 72.652C89.5874 72.3139 89.2643 71.8201 89.1284 71.1705L90.242 70.892C90.3481 71.303 90.5486 71.6113 90.8436 71.8168C91.1419 72.0223 91.5313 72.125 92.0119 72.125C92.5588 72.125 92.993 72.009 93.3145 71.777C93.6393 71.5417 93.8017 71.2599 93.8017 70.9318C93.8017 70.6667 93.7089 70.4446 93.5233 70.2656C93.3377 70.0833 93.0526 69.9474 92.6681 69.858L91.3954 69.5597C90.6961 69.3939 90.1824 69.1371 89.8542 68.7891C89.5294 68.4377 89.367 67.9986 89.367 67.4716C89.367 67.0407 89.488 66.6596 89.7299 66.3281C89.9752 65.9967 90.3083 65.7365 90.7292 65.5476C91.1535 65.3587 91.6341 65.2642 92.171 65.2642C92.9267 65.2642 93.5199 65.4299 93.9508 65.7614C94.385 66.0928 94.6932 66.5303 94.8755 67.0739Z" fill="#6C6C71"/>
<rect x="1" y="1" width="355" height="343" rx="19" fill="url(#paint1_linear_11_237)"/>
<defs>
<linearGradient id="paint0_linear_11_237" x1="30" y1="39" x2="114" y2="39" gradientUnits="userSpaceOnUse">
<stop stop-color="#6C6C71"/>
<stop offset="1" stop-color="#414146"/>
</linearGradient>
<linearGradient id="paint1_linear_11_237" x1="178.5" y1="1" x2="178.5" y2="344" gradientUnits="userSpaceOnUse">
<stop stop-color="#14141F" stop-opacity="0.2"/>
<stop offset="0.713542" stop-color="#19191C" stop-opacity="0.66"/>
<stop offset="1" stop-color="#19191C"/>
</linearGradient>
</defs>
</svg>
