<svg width="307" height="290" viewBox="0 0 307 290" fill="none" xmlns="http://www.w3.org/2000/svg">
    <path d="M11.6704 157.003L64.2175 201.478L215.821 130.059L65.7018 42.4065L11.6704 157.003Z" fill="url(#paint0_linear_1208_57905)" />
    <path d="M63.3384 200.552L53.7234 84.0262C53.2124 77.8332 57.1557 72.1445 63.1342 70.4499L226.762 24.07C227.101 23.9737 227.461 23.969 227.803 24.0565L230.954 24.8623L236.442 139.925L298.956 196.341C301.129 198.303 300.528 201.858 297.831 202.996L126.064 275.492C124.404 276.193 122.48 275.697 121.366 274.281L63.3384 200.552Z" fill="url(#paint1_linear_1208_57905)" />
    <path d="M125.229 269.559L67.3418 198.277L235.847 139.925L301.248 196.778L285.031 203.502L266.44 210.622L198.801 239.893L125.229 269.559Z" fill="url(#paint2_linear_1208_57905)" />
    <path d="M121.7 253.82L87.2109 210.495L241.524 153.267L279.875 184.645C282.212 186.557 281.668 190.27 278.881 191.433L126.369 255.021C124.719 255.708 122.813 255.218 121.7 253.82Z" fill="#373B4D" />
    <path d="M67.4787 198.36L58.7996 83.0807C58.4056 77.8475 61.7634 73.0647 66.8194 71.6576L228.753 26.5917C230.011 26.2415 231.262 27.172 231.289 28.478L233.61 142.983L67.4787 198.36Z" fill="url(#paint3_linear_1208_57905)" />
    <path d="M71.4339 197.569L64.4884 81.6841C64.3773 79.8296 65.5576 78.1427 67.3378 77.6117L226.559 30.1151C227.786 29.7491 229.036 30.6144 229.126 31.8918L236.774 141.005L71.4339 197.569Z" fill="url(#paint4_linear_1208_57905)" />
    <path d="M91.7659 225.255L248.189 163.405" stroke="url(#paint5_radial_1208_57905)" stroke-opacity="0.2" />
    <path d="M98.8048 234.022L255.25 169.799" stroke="url(#paint6_radial_1208_57905)" stroke-opacity="0.2" />
    <path d="M103.456 244.349L263.856 180.163" stroke="url(#paint7_radial_1208_57905)" stroke-opacity="0.2" />
    <path d="M111.309 250.751L270.127 186.549" stroke="url(#paint8_radial_1208_57905)" stroke-opacity="0.2" />
    <path d="M115.73 200.159L150.165 240.824" stroke="url(#paint9_radial_1208_57905)" stroke-opacity="0.2" />
    <path d="M124.49 193.911L158.926 234.576" stroke="url(#paint10_radial_1208_57905)" stroke-opacity="0.2" />
    <path d="M137.206 187.699L171.641 228.364" stroke="url(#paint11_radial_1208_57905)" stroke-opacity="0.2" />
    <path d="M149.122 182.27L183.558 222.935" stroke="url(#paint12_radial_1208_57905)" stroke-opacity="0.2" />
    <path d="M162.607 178.439L197.042 219.104" stroke="url(#paint13_radial_1208_57905)" stroke-opacity="0.2" />
    <path d="M172.95 172.205L207.385 212.87" stroke="url(#paint14_radial_1208_57905)" stroke-opacity="0.2" />
    <path d="M185.644 168.366L220.079 209.031" stroke="url(#paint15_radial_1208_57905)" stroke-opacity="0.2" />
    <path d="M204.658 165.377L221.875 185.709L239.093 206.042" stroke="url(#paint16_radial_1208_57905)" stroke-opacity="0.2" />
    <path d="M220.559 156.821L237.777 177.153L254.995 197.486" stroke="url(#paint17_radial_1208_57905)" stroke-opacity="0.2" />
    <path d="M87.3515 214.948L87.3515 210.482L121.977 251.497C123.659 253.489 126.437 254.167 128.848 253.173L279.102 191.24L279.278 194.71L127.47 257.146C125.46 257.972 123.147 257.406 121.746 255.744L87.3515 214.948Z" fill="url(#paint18_linear_1208_57905)" />
    <path d="M172.321 125.22C172.266 127.429 173.91 128.622 175.994 127.884C178.077 127.147 179.81 124.758 179.865 122.549C179.919 120.34 178.275 119.147 176.192 119.884C174.109 120.622 172.376 123.011 172.321 125.22Z" fill="url(#paint19_linear_1208_57905)" />
    <path d="M177.561 122.698C177.187 121.29 175.109 122.026 174.657 123.727L171.837 134.345C171.54 135.462 172.238 136.219 173.238 135.865L178.399 134.038C179.399 133.683 180.147 132.414 179.901 131.489L177.561 122.698Z" fill="url(#paint20_linear_1208_57905)" />
    <path d="M296.889 112.159C298.402 112.96 299.512 113.728 300.188 114.457L299.821 114.797C300.349 115.366 300.502 115.816 300.46 116.163C300.418 116.511 300.162 116.911 299.513 117.338L299.788 117.756C298.957 118.302 297.696 118.783 296.035 119.199L295.914 118.714C294.806 118.992 293.511 119.241 292.035 119.463L292.109 119.957C290.902 120.138 289.579 120.3 288.146 120.442L288.096 119.944C286.852 120.068 285.522 120.177 284.111 120.271L284.144 120.77C282.869 120.855 281.529 120.928 280.125 120.989L280.103 120.49C278.819 120.546 277.482 120.592 276.094 120.628L276.107 121.128C274.814 121.162 273.476 121.187 272.096 121.203L272.09 120.703C270.794 120.719 269.46 120.726 268.09 120.727L268.09 121.227C266.788 121.227 265.454 121.22 264.087 121.207L264.092 120.707C262.788 120.694 261.454 120.676 260.093 120.65L260.083 121.15C258.773 121.126 257.436 121.096 256.075 121.061L256.088 120.561C254.774 120.527 253.436 120.487 252.076 120.442L252.059 120.942C250.739 120.898 249.397 120.85 248.034 120.796L248.054 120.297C246.742 120.245 245.411 120.189 244.061 120.128L244.039 120.627C242.723 120.568 241.39 120.505 240.04 120.437L240.065 119.937C238.744 119.871 237.407 119.8 236.054 119.725L236.026 120.224C234.703 120.151 233.365 120.074 232.012 119.993L232.042 119.494C230.727 119.415 229.398 119.332 228.055 119.246L228.023 119.745C226.7 119.66 225.364 119.571 224.016 119.479L224.05 118.98C222.726 118.889 221.389 118.795 220.041 118.697L220.005 119.196C218.687 119.1 217.358 119.002 216.018 118.899L216.056 118.401C214.731 118.3 213.396 118.196 212.051 118.088L212.011 118.587C210.688 118.481 209.355 118.372 208.013 118.26L208.055 117.762C206.734 117.652 205.404 117.538 204.066 117.422L204.022 117.92C202.694 117.805 201.357 117.686 200.011 117.565L200.056 117.067C198.738 116.948 197.411 116.827 196.077 116.702L196.031 117.2C194.706 117.076 193.373 116.95 192.032 116.82L192.08 116.323C190.757 116.195 189.427 116.065 188.09 115.931L188.04 116.429C186.718 116.297 185.388 116.163 184.053 116.026L184.104 115.528C182.777 115.392 181.444 115.254 180.105 115.112L180.053 115.61C178.733 115.47 177.406 115.328 176.075 115.184L176.129 114.687C174.802 114.543 173.47 114.396 172.133 114.247L172.077 114.744C170.757 114.597 169.431 114.448 168.1 114.296L168.157 113.799C166.832 113.648 165.503 113.494 164.169 113.338L164.11 113.835C162.788 113.68 161.461 113.523 160.129 113.363L160.189 112.867C159.523 112.787 158.857 112.707 158.189 112.626C157.522 112.545 156.856 112.463 156.19 112.382L156.13 112.878C154.799 112.715 153.472 112.55 152.151 112.385L152.213 111.889C150.881 111.721 149.553 111.553 148.231 111.383L148.167 111.879C146.838 111.709 145.515 111.537 144.198 111.365L144.263 110.869C142.928 110.694 141.6 110.518 140.277 110.341L140.211 110.836C138.883 110.658 137.562 110.479 136.246 110.299L136.314 109.804C134.98 109.621 133.653 109.437 132.332 109.252L132.263 109.748C130.933 109.561 129.61 109.374 128.295 109.186L128.365 108.691C127.035 108.501 125.712 108.31 124.397 108.118L124.325 108.612C122.992 108.418 121.668 108.222 120.351 108.026L120.425 107.531C119.1 107.333 117.783 107.135 116.474 106.935L116.399 107.429C115.063 107.226 113.737 107.021 112.419 106.816L112.496 106.321C111.168 106.114 109.85 105.907 108.541 105.698L108.462 106.192C107.133 105.98 105.812 105.767 104.503 105.554L104.583 105.06C103.251 104.843 101.929 104.625 100.619 104.407L100.537 104.9C99.2113 104.679 97.8972 104.458 96.5946 104.236L96.6787 103.743C95.3462 103.515 94.0259 103.288 92.7181 103.059L92.6321 103.552C91.3007 103.319 89.9823 103.086 88.6773 102.853L88.7653 102.361C87.4413 102.124 86.1311 101.886 84.8351 101.649L84.745 102.14C83.4119 101.896 82.094 101.651 80.7916 101.406L80.8841 100.915C79.5524 100.664 78.2371 100.413 76.9386 100.162L76.8437 100.653C75.5164 100.396 74.2067 100.14 72.9151 99.8829L73.0126 99.3925C71.6875 99.129 70.3816 98.8655 69.0953 98.6022L68.995 99.092C67.6591 98.8184 66.3444 98.545 65.0516 98.2718L65.155 97.7826C63.8233 97.5011 62.5149 97.22 61.2306 96.9393L61.1238 97.4278C59.7932 97.137 58.4884 96.8466 57.2101 96.5569L57.3206 96.0693C55.9924 95.7683 54.693 95.468 53.4232 95.1687L53.3085 95.6553C51.9785 95.3417 50.6809 95.0292 49.4168 94.7178L49.5364 94.2323C48.206 93.9046 46.9128 93.5783 45.6582 93.2537L45.533 93.7378C44.1967 93.392 42.9038 93.0481 41.6559 92.7064L41.7879 92.2241C40.4484 91.8573 39.1612 91.4931 37.9279 91.132L37.7874 91.6118C36.4391 91.217 35.1548 90.8256 33.9369 90.4382L34.0884 89.9617C32.7409 89.5332 31.4759 89.1098 30.2966 88.6925L30.1298 89.1639C28.7721 88.6834 27.526 88.2103 26.3967 87.7459L26.5869 87.2835C25.2073 86.7161 24.0093 86.164 22.9998 85.6298L22.7659 86.0717C21.2526 85.2708 20.1431 84.5025 19.4667 83.7735L19.8332 83.4334C19.3052 82.8642 19.1527 82.4149 19.1949 82.0669C19.237 81.719 19.4925 81.3191 20.1413 80.8926L19.8666 80.4748C20.6976 79.9285 21.9586 79.4476 23.6194 79.0314L23.7409 79.5164C24.8488 79.2389 26.144 78.9891 27.6193 78.7678L27.5451 78.2733C28.7527 78.0921 30.0756 77.9305 31.5089 77.7884L31.5582 78.286C32.8031 78.1625 34.1326 78.0537 35.5435 77.9595L35.5102 77.4606C36.7853 77.3755 38.126 77.3023 39.5296 77.241L39.5514 77.7405C40.8352 77.6845 42.1722 77.6385 43.5605 77.6023L43.5475 77.1025C44.8409 77.0689 46.1785 77.0438 47.5588 77.0274L47.5647 77.5273C48.8606 77.5119 50.1942 77.504 51.5644 77.5037L51.5643 77.0037C52.8662 77.0034 54.2008 77.01 55.5672 77.0233L55.5624 77.5233C56.8668 77.536 58.2004 77.5549 59.562 77.5799L59.5712 77.08C60.8817 77.1042 62.2182 77.134 63.5797 77.1696L63.5666 77.6694C64.8808 77.7037 66.2185 77.7433 67.5789 77.7882L67.5954 77.2885C68.916 77.3321 70.258 77.3807 71.6205 77.4343L71.6009 77.9339C72.9128 77.9855 74.2439 78.0417 75.5935 78.1025L75.616 77.603C76.9316 77.6622 78.2647 77.7258 79.6149 77.7938L79.5897 78.2932C80.9106 78.3597 82.2477 78.4303 83.6007 78.5052L83.6283 78.0059C84.9515 78.0791 86.2898 78.1563 87.6427 78.2374L87.6127 78.7365C88.9279 78.8154 90.2569 78.898 91.5992 78.9844L91.6313 78.4854C92.9542 78.5705 94.2901 78.6592 95.6385 78.7516L95.6043 79.2504C96.9288 79.3412 98.2654 79.4354 99.6135 79.5331L99.6497 79.0344C100.968 79.1299 102.297 79.2288 103.636 79.3309L103.598 79.8295C104.923 79.9305 106.258 80.0348 107.604 80.1423L107.644 79.6439C108.966 79.7496 110.299 79.8585 111.641 79.9704L111.6 80.4687C112.92 80.5789 114.25 80.6921 115.589 80.8083L115.632 80.3102C116.961 80.4256 118.298 80.5439 119.644 80.6652L119.599 81.1632C120.917 81.2821 122.243 81.4037 123.577 81.5283L123.624 81.0304C124.949 81.1542 126.282 81.2807 127.622 81.4101L127.574 81.9077C128.897 82.0354 130.228 82.1659 131.565 82.299L131.614 81.8015C132.937 81.9332 134.266 82.0675 135.602 82.2046L135.551 82.702C136.877 82.8381 138.21 82.9768 139.549 83.1181L139.602 82.6209C140.922 82.7603 142.248 82.9022 143.58 83.0466L143.526 83.5437C144.852 83.6876 146.185 83.834 147.522 83.983L147.577 83.486C148.898 83.6331 150.224 83.7827 151.555 83.9346L151.498 84.4314C152.823 84.5827 154.152 84.7364 155.486 84.8925L155.544 84.3959C156.867 84.5507 158.194 84.7078 159.525 84.8674L159.466 85.3638C160.131 85.4436 160.798 85.5239 161.465 85.6048C162.133 85.6857 162.799 85.767 163.464 85.8486L163.525 85.3523C164.856 85.5155 166.182 85.68 167.503 85.8457L167.441 86.3418C168.774 86.5089 170.102 86.6774 171.424 86.847L171.488 86.351C172.816 86.5214 174.139 86.693 175.457 86.8658L175.392 87.3615C176.726 87.5365 178.055 87.7126 179.377 87.8898L179.444 87.3943C180.771 87.5722 182.093 87.7512 183.408 87.9314L183.34 88.4267C184.674 88.6094 186.002 88.7932 187.323 88.978L187.392 88.4829C188.721 88.6689 190.044 88.8561 191.36 89.0442L191.289 89.5392C192.619 89.7294 193.942 89.9206 195.258 90.1127L195.33 89.618C196.662 89.8126 197.987 90.0083 199.303 90.2048L199.23 90.6993C200.555 90.8971 201.872 91.0959 203.18 91.2954L203.256 90.8012C204.591 91.0049 205.918 91.2095 207.236 91.4149L207.159 91.9089C208.486 92.1159 209.805 92.3238 211.113 92.5323L211.192 92.0386C212.522 92.2505 213.842 92.4632 215.152 92.6767L215.072 93.1702C216.404 93.3872 217.725 93.605 219.036 93.8235L219.118 93.3303C220.443 93.5512 221.757 93.7728 223.06 93.9949L222.976 94.4878C224.308 94.7151 225.629 94.9429 226.937 95.1713L227.023 94.6787C228.354 94.9112 229.672 95.1443 230.977 95.3777L230.889 95.8699C232.213 96.1068 233.524 96.3441 234.819 96.5818L234.91 96.09C236.243 96.3344 237.561 96.5793 238.863 96.8244L238.771 97.3158C240.102 97.5664 241.418 97.8173 242.716 98.0683L242.811 97.5774C244.138 97.834 245.448 98.0907 246.74 98.3475L246.642 98.8379C247.967 99.1014 249.273 99.3649 250.559 99.6283L250.66 99.1384C251.995 99.412 253.31 99.6854 254.603 99.9587L254.5 100.448C255.831 100.729 257.14 101.01 258.424 101.291L258.531 100.803C259.861 101.093 261.166 101.384 262.445 101.674L262.334 102.161C263.662 102.462 264.962 102.762 266.231 103.062L266.346 102.575C267.676 102.889 268.974 103.201 270.238 103.513L270.118 103.998C271.449 104.326 272.742 104.652 273.996 104.977L274.122 104.493C275.458 104.838 276.751 105.182 277.999 105.524L277.867 106.006C279.206 106.373 280.493 106.737 281.727 107.098L281.867 106.619C283.215 107.013 284.5 107.405 285.718 107.792L285.566 108.269C286.914 108.697 288.179 109.121 289.358 109.538L289.525 109.067C290.883 109.547 292.129 110.02 293.258 110.485L293.068 110.947C294.447 111.514 295.645 112.066 296.655 112.601L296.889 112.159Z" stroke="url(#paint21_linear_1208_57905)" stroke-dasharray="4 4" />
    <g opacity="0.9">
        <g filter="url(#filter0_d_1208_57905)">
            <ellipse rx="18.3575" ry="24.1091" transform="matrix(0.977376 0.227267 -0.161319 0.994776 283.832 120.283)" fill="url(#paint22_linear_1208_57905)" shape-rendering="crispEdges" />
        </g>
        <ellipse rx="16.5001" ry="24.1091" transform="matrix(0.977376 0.227267 -0.161319 0.994776 286.19 119.733)" fill="url(#paint23_linear_1208_57905)" />
        <path d="M294.826 112.619C294.699 112.775 292.394 114.998 292.736 118.166C293.132 121.829 296.399 122.109 296.496 122.111C296.49 122.194 296.191 124.047 295.225 126.15C294.362 128.004 293.453 129.871 291.821 130.401C290.188 130.932 289.663 130.093 287.779 130.705C285.942 131.302 285.398 132.521 283.905 133.006C282.412 133.492 281.219 132.423 279.834 131.084C278.228 129.506 276.767 126.717 276.444 123.725C275.926 118.926 278.685 115.395 281.671 114.425C283.258 113.909 284.696 114.551 285.692 114.227C286.64 113.919 287.996 112.303 289.802 111.716C290.486 111.494 292.951 110.76 294.826 112.619ZM288.725 109.963C289.374 108.81 289.765 107.374 289.629 106.11C289.61 105.935 289.576 105.762 289.53 105.629C288.32 106.07 286.96 107.325 286.201 108.647C285.603 109.669 285.101 111.141 285.239 112.422C285.26 112.615 285.312 112.797 285.333 112.854C285.411 112.844 285.538 112.821 285.663 112.78C286.753 112.426 288.042 111.23 288.725 109.963Z" fill="#43485F" />
        <path d="M295.826 112.619C295.699 112.775 293.394 114.998 293.736 118.166C294.132 121.829 297.399 122.109 297.496 122.111C297.49 122.194 297.191 124.047 296.225 126.15C295.362 128.004 294.453 129.871 292.821 130.401C291.188 130.932 290.663 130.093 288.779 130.705C286.942 131.302 286.398 132.521 284.905 133.006C283.412 133.492 282.219 132.423 280.834 131.084C279.228 129.506 277.767 126.717 277.444 123.725C276.926 118.926 279.685 115.395 282.671 114.425C284.258 113.909 285.696 114.551 286.692 114.227C287.64 113.919 288.996 112.303 290.802 111.716C291.486 111.494 293.951 110.76 295.826 112.619ZM289.725 109.963C290.374 108.81 290.765 107.374 290.629 106.11C290.61 105.935 290.576 105.762 290.53 105.629C289.32 106.07 287.96 107.325 287.201 108.647C286.603 109.669 286.101 111.141 286.239 112.422C286.26 112.615 286.312 112.797 286.333 112.854C286.411 112.844 286.538 112.821 286.663 112.78C287.753 112.426 289.042 111.23 289.725 109.963Z" fill="#5A607B" />
    </g>
    <g opacity="0.8">
        <g filter="url(#filter1_d_1208_57905)">
            <ellipse rx="19.5" ry="22" transform="matrix(0.989651 0.143493 0 1 27.2568 86.3718)" fill="#424254" />
        </g>
        <ellipse rx="19.5" ry="21.5" transform="matrix(0.989651 0.143493 0 1 23.2982 85.2981)" fill="#292B3A" />
        <path fill-rule="evenodd" clip-rule="evenodd" d="M17.8643 73.3276C17.7656 73.068 17.4771 72.9353 17.2198 73.0312C16.9625 73.127 16.8339 73.4152 16.9326 73.6748L17.817 76.0017C16.8915 76.7615 16.2439 77.7941 16.0355 79.0004L28.4643 81.136C28.639 79.9239 28.3441 78.7291 27.7017 77.6998L29.2565 75.7924C29.43 75.5796 29.3971 75.2637 29.183 75.0868C28.9689 74.91 28.6547 74.9391 28.4813 75.1519L27.0787 76.8725C26.2518 75.95 25.1132 75.2339 23.7843 74.8715L22.3994 74.6336C21.029 74.5321 19.7297 74.8294 18.6621 75.4266L17.8643 73.3276ZM18.7024 91.2382L22.1644 91.8331L21.602 95.3836C21.4812 96.1464 22.0003 96.8707 22.7613 97.0014C23.5224 97.1322 24.2373 96.62 24.3581 95.8572L24.9205 92.3067L24.9881 92.3183C25.9347 92.4809 26.8203 91.8342 26.9732 90.8689L28.3949 81.8928C28.4033 81.8393 28.4098 81.7858 28.4136 81.7329L15.9021 79.583C15.8893 79.6346 15.8769 79.6868 15.8684 79.7404L14.4468 88.7165C14.2939 89.6819 14.9332 90.5905 15.8797 90.7532L15.9463 90.7646L15.384 94.3148C15.2632 95.0776 15.7823 95.8018 16.5433 95.9326C17.3044 96.0634 18.0193 95.5512 18.1401 94.7884L18.7024 91.2382ZM13.5527 80C14.3137 80.1307 14.8327 80.8551 14.7119 81.6178L13.7736 87.5423C13.6528 88.3051 12.9378 88.8174 12.1768 88.6866C11.4157 88.5558 10.8967 87.8315 11.0175 87.0688L11.9558 81.1443C12.0765 80.3816 12.7915 79.8692 13.5527 80ZM30.5077 82.9134C31.2687 83.0441 31.7877 83.7685 31.6669 84.5312L30.7286 90.4557C30.6078 91.2185 29.8928 91.7308 29.1318 91.6C28.3707 91.4692 27.8517 90.7449 27.9725 89.9822L28.9108 84.0578C29.0316 83.295 29.7466 82.7826 30.5077 82.9134Z" fill="#43485F" />
        <path fill-rule="evenodd" clip-rule="evenodd" d="M16.2198 73.0312C16.4771 72.9353 16.7656 73.068 16.8643 73.3276L17.6621 75.4266C18.7297 74.8294 20.029 74.5321 21.3994 74.6336L22.7843 74.8715C24.1132 75.2339 25.2518 75.95 26.0787 76.8725L27.4813 75.1519C27.6547 74.9391 27.9689 74.91 28.183 75.0868C28.3971 75.2637 28.43 75.5796 28.2565 75.7924L26.7017 77.6998C27.3441 78.7291 27.639 79.9239 27.4643 81.136L15.0355 79.0004C15.2439 77.7941 15.8915 76.7615 16.817 76.0017L15.9326 73.6748C15.8339 73.4152 15.9625 73.127 16.2198 73.0312ZM21.1644 91.8331L17.7024 91.2382L17.1401 94.7884C17.0193 95.5512 16.3044 96.0634 15.5433 95.9326C14.7823 95.8018 14.2632 95.0776 14.384 94.3148L14.9463 90.7646L14.8797 90.7532C13.9332 90.5905 13.2939 89.6819 13.4468 88.7165L14.8684 79.7404C14.8769 79.6868 14.8893 79.6346 14.9021 79.583L27.4136 81.7329C27.4098 81.7858 27.4033 81.8393 27.3949 81.8928L25.9732 90.8689C25.8203 91.8342 24.9347 92.4809 23.9881 92.3183L23.9205 92.3067L23.3581 95.8572C23.2373 96.62 22.5224 97.1322 21.7613 97.0014C21.0003 96.8707 20.4812 96.1464 20.602 95.3836L21.1644 91.8331ZM13.7119 81.6178C13.8327 80.8551 13.3137 80.1307 12.5527 80C11.7915 79.8692 11.0765 80.3816 10.9558 81.1443L10.0175 87.0688C9.89666 87.8315 10.4157 88.5558 11.1768 88.6866C11.9378 88.8174 12.6528 88.3051 12.7736 87.5423L13.7119 81.6178ZM30.6669 84.5312C30.7877 83.7685 30.2687 83.0441 29.5077 82.9134C28.7466 82.7826 28.0316 83.295 27.9108 84.0578L26.9725 89.9822C26.8517 90.7449 27.3707 91.4692 28.1318 91.6C28.8928 91.7308 29.6078 91.2185 29.7286 90.4557L30.6669 84.5312ZM18.9679 77.8564C19.3619 77.9231 19.7298 77.6644 19.7897 77.2788L19.7903 77.2749C19.8502 76.8891 19.5794 76.5227 19.1856 76.4562C18.7917 76.3896 18.4238 76.6481 18.3638 77.0338L18.3632 77.0377C18.3033 77.4233 18.5741 77.7898 18.9679 77.8564ZM24.2898 78.7709C24.6839 78.8375 25.0518 78.5789 25.1117 78.1933L25.1123 78.1894C25.1722 77.8036 24.9014 77.4372 24.5076 77.3706C24.1136 77.304 23.7457 77.5626 23.6857 77.9483L23.6851 77.9522C23.6253 78.3377 23.896 78.7043 24.2898 78.7709Z" fill="#5A607B" />
    </g>
    <circle cx="153.498" cy="113.422" r="44.5" fill="url(#paint24_linear_1208_57905)" />
    <circle cx="155.5" cy="113.5" r="44.5" fill="url(#paint25_linear_1208_57905)" />
    <path fill-rule="evenodd" clip-rule="evenodd" d="M136.625 116.745L144.575 107.212L137.95 108.44L130 117.973L136.956 123.737L143.581 122.509L136.625 116.745ZM149.813 127.672V127.735L149.875 127.723L149.813 127.672ZM149.875 100.856L149.813 100.93V100.867L149.875 100.856ZM163.125 98.4002L163.187 98.3888V98.4512L163.125 98.4002ZM176.375 109.378L168.425 102.791L175.05 101.563L183 108.15L176.043 116.492L169.419 117.72L176.375 109.378ZM163.187 125.194L163.125 125.267L163.187 125.256V125.194ZM158.156 92.6043L149.875 134.44L154.844 133.519L163.125 91.6834L158.156 92.6043Z" fill="#171723" />
    <path fill-rule="evenodd" clip-rule="evenodd" d="M137.625 116.745L145.575 107.212L138.95 108.44L131 117.973L137.956 123.737L144.581 122.509L137.625 116.745ZM150.813 127.672V127.735L150.875 127.723L150.813 127.672ZM150.875 100.856L150.813 100.93V100.867L150.875 100.856ZM164.125 98.4002L164.187 98.3888V98.4512L164.125 98.4002ZM177.375 109.378L169.425 102.791L176.05 101.563L184 108.15L177.043 116.492L170.419 117.72L177.375 109.378ZM164.187 125.194L164.125 125.267L164.187 125.256V125.194ZM159.156 92.6043L150.875 134.44L155.844 133.519L164.125 91.6834L159.156 92.6043Z" fill="#868EA3" />
    <path d="M37.9132 244.945C35.1997 241.458 36.2527 237.132 40.2651 235.282L59.5058 226.412C63.5182 224.562 68.9706 225.889 71.6841 229.376L101.683 267.926C104.397 271.413 103.344 275.739 99.3312 277.588L76.458 288.133C74.4518 289.058 71.7256 288.394 70.3688 286.651L37.9132 244.945Z" fill="url(#paint26_linear_1208_57905)" />
    <rect x="0.380573" y="0.0926329" width="33.7568" height="63.446" rx="3.75" transform="matrix(0.908143 -0.41866 0.614147 0.789191 35.5308 237.521)" fill="url(#paint27_linear_1208_57905)" stroke="url(#paint28_linear_1208_57905)" stroke-width="0.5" />
    <defs>
        <filter id="filter0_d_1208_57905" x="261.469" y="95.9355" width="44.7256" height="56.6943" filterUnits="userSpaceOnUse" color-interpolation-filters="sRGB">
            <feFlood flood-opacity="0" result="BackgroundImageFix" />
            <feColorMatrix in="SourceAlpha" type="matrix" values="0 0 0 0 0 0 0 0 0 0 0 0 0 0 0 0 0 0 127 0" result="hardAlpha" />
            <feOffset dy="4" />
            <feGaussianBlur stdDeviation="2" />
            <feComposite in2="hardAlpha" operator="out" />
            <feColorMatrix type="matrix" values="0 0 0 0 0 0 0 0 0 0 0 0 0 0 0 0 0 0 0.05 0" />
            <feBlend mode="normal" in2="BackgroundImageFix" result="effect1_dropShadow_1208_57905" />
            <feBlend mode="normal" in="SourceGraphic" in2="effect1_dropShadow_1208_57905" result="shape" />
        </filter>
        <filter id="filter1_d_1208_57905" x="0.958618" y="53.1924" width="68.5964" height="74.3589" filterUnits="userSpaceOnUse" color-interpolation-filters="sRGB">
            <feFlood flood-opacity="0" result="BackgroundImageFix" />
            <feColorMatrix in="SourceAlpha" type="matrix" values="0 0 0 0 0 0 0 0 0 0 0 0 0 0 0 0 0 0 127 0" result="hardAlpha" />
            <feOffset dx="8" dy="4" />
            <feGaussianBlur stdDeviation="7.5" />
            <feComposite in2="hardAlpha" operator="out" />
            <feColorMatrix type="matrix" values="0 0 0 0 0 0 0 0 0 0 0 0 0 0 0 0 0 0 0.05 0" />
            <feBlend mode="normal" in2="BackgroundImageFix" result="effect1_dropShadow_1208_57905" />
            <feBlend mode="normal" in="SourceGraphic" in2="effect1_dropShadow_1208_57905" result="shape" />
        </filter>
        <linearGradient id="paint0_linear_1208_57905" x1="138.161" y1="228.356" x2="34.8507" y2="146.165" gradientUnits="userSpaceOnUse">
            <stop stop-color="#2D3041" stop-opacity="0.45" />
            <stop offset="1" stop-color="white" stop-opacity="0" />
        </linearGradient>
        <linearGradient id="paint1_linear_1208_57905" x1="23.5005" y1="100.5" x2="615.497" y2="286.112" gradientUnits="userSpaceOnUse">
            <stop stop-color="#333749" />
            <stop offset="0.34172" stop-color="#1F212B" />
            <stop offset="0.489488" stop-color="#3C4158" />
        </linearGradient>
        <linearGradient id="paint2_linear_1208_57905" x1="291.934" y1="84.0426" x2="-108.241" y2="692.016" gradientUnits="userSpaceOnUse">
            <stop stop-color="#282A3B" />
            <stop offset="1" stop-color="#14141F" />
        </linearGradient>
        <linearGradient id="paint3_linear_1208_57905" x1="79.8786" y1="143.145" x2="322.391" y2="44.1851" gradientUnits="userSpaceOnUse">
            <stop stop-color="#1B1B28" />
            <stop offset="1" stop-color="#4F5769" />
        </linearGradient>
        <linearGradient id="paint4_linear_1208_57905" x1="416.5" y1="-96" x2="21.123" y2="235.912" gradientUnits="userSpaceOnUse">
            <stop stop-color="#373B4D" />
            <stop offset="0.851966" stop-color="#171723" stop-opacity="0.8" />
        </linearGradient>
        <radialGradient id="paint5_radial_1208_57905" cx="0" cy="0" r="1" gradientUnits="userSpaceOnUse" gradientTransform="translate(169.977 194.33) rotate(90.5277) scale(31.644 77.9233)">
            <stop stop-color="#E8E9F0" />
            <stop offset="1" stop-color="#F7F7F7" stop-opacity="0" />
        </radialGradient>
        <radialGradient id="paint6_radial_1208_57905" cx="0" cy="0" r="1" gradientUnits="userSpaceOnUse" gradientTransform="translate(177.027 201.91) rotate(90.5277) scale(32.8306 77.9233)">
            <stop stop-color="#E8E9F0" />
            <stop offset="1" stop-color="#F7F7F7" stop-opacity="0" />
        </radialGradient>
        <radialGradient id="paint7_radial_1208_57905" cx="0" cy="0" r="1" gradientUnits="userSpaceOnUse" gradientTransform="translate(183.656 212.256) rotate(90.5277) scale(32.8306 79.901)">
            <stop stop-color="#E8E9F0" />
            <stop offset="1" stop-color="#F7F7F7" stop-opacity="0" />
        </radialGradient>
        <radialGradient id="paint8_radial_1208_57905" cx="0" cy="0" r="1" gradientUnits="userSpaceOnUse" gradientTransform="translate(190.718 218.65) rotate(90.5277) scale(32.8306 79.1099)">
            <stop stop-color="#E8E9F0" />
            <stop offset="1" stop-color="#F7F7F7" stop-opacity="0" />
        </radialGradient>
        <radialGradient id="paint9_radial_1208_57905" cx="0" cy="0" r="1" gradientUnits="userSpaceOnUse" gradientTransform="translate(132.948 220.492) rotate(90.5277) scale(20.173 17.4042)">
            <stop stop-color="#E8E9F0" />
            <stop offset="1" stop-color="#F7F7F7" stop-opacity="0" />
        </radialGradient>
        <radialGradient id="paint10_radial_1208_57905" cx="0" cy="0" r="1" gradientUnits="userSpaceOnUse" gradientTransform="translate(141.708 214.243) rotate(90.5277) scale(20.173 17.4042)">
            <stop stop-color="#E8E9F0" />
            <stop offset="1" stop-color="#F7F7F7" stop-opacity="0" />
        </radialGradient>
        <radialGradient id="paint11_radial_1208_57905" cx="0" cy="0" r="1" gradientUnits="userSpaceOnUse" gradientTransform="translate(154.423 208.031) rotate(90.5277) scale(20.173 17.4042)">
            <stop stop-color="#E8E9F0" />
            <stop offset="1" stop-color="#F7F7F7" stop-opacity="0" />
        </radialGradient>
        <radialGradient id="paint12_radial_1208_57905" cx="0" cy="0" r="1" gradientUnits="userSpaceOnUse" gradientTransform="translate(166.34 202.602) rotate(90.5277) scale(20.173 17.4042)">
            <stop stop-color="#E8E9F0" />
            <stop offset="1" stop-color="#F7F7F7" stop-opacity="0" />
        </radialGradient>
        <radialGradient id="paint13_radial_1208_57905" cx="0" cy="0" r="1" gradientUnits="userSpaceOnUse" gradientTransform="translate(179.824 198.771) rotate(90.5277) scale(20.173 17.4042)">
            <stop stop-color="#E8E9F0" />
            <stop offset="1" stop-color="#F7F7F7" stop-opacity="0" />
        </radialGradient>
        <radialGradient id="paint14_radial_1208_57905" cx="0" cy="0" r="1" gradientUnits="userSpaceOnUse" gradientTransform="translate(190.167 192.538) rotate(90.5277) scale(20.173 17.4042)">
            <stop stop-color="#E8E9F0" />
            <stop offset="1" stop-color="#F7F7F7" stop-opacity="0" />
        </radialGradient>
        <radialGradient id="paint15_radial_1208_57905" cx="0" cy="0" r="1" gradientUnits="userSpaceOnUse" gradientTransform="translate(202.861 188.699) rotate(90.5277) scale(20.173 17.4042)">
            <stop stop-color="#E8E9F0" />
            <stop offset="1" stop-color="#F7F7F7" stop-opacity="0" />
        </radialGradient>
        <radialGradient id="paint16_radial_1208_57905" cx="0" cy="0" r="1" gradientUnits="userSpaceOnUse" gradientTransform="translate(221.875 185.709) rotate(90.5277) scale(20.173 17.4042)">
            <stop stop-color="#E8E9F0" />
            <stop offset="1" stop-color="#F7F7F7" stop-opacity="0" />
        </radialGradient>
        <radialGradient id="paint17_radial_1208_57905" cx="0" cy="0" r="1" gradientUnits="userSpaceOnUse" gradientTransform="translate(237.777 177.153) rotate(90.5277) scale(20.173 17.4042)">
            <stop stop-color="#E8E9F0" />
            <stop offset="1" stop-color="#F7F7F7" stop-opacity="0" />
        </radialGradient>
        <linearGradient id="paint18_linear_1208_57905" x1="125.388" y1="267.973" x2="338.823" y2="134.011" gradientUnits="userSpaceOnUse">
            <stop stop-color="#4F5469" />
            <stop offset="0.738994" stop-color="#4F5469" stop-opacity="0" />
        </linearGradient>
        <linearGradient id="paint19_linear_1208_57905" x1="176.413" y1="114.407" x2="180.115" y2="135.231" gradientUnits="userSpaceOnUse">
            <stop offset="0.186067" stop-color="white" stop-opacity="0.07" />
            <stop offset="0.312763" stop-color="white" stop-opacity="0.858597" />
            <stop offset="0.603529" stop-color="white" />
            <stop offset="1" stop-color="white" stop-opacity="0" />
        </linearGradient>
        <linearGradient id="paint20_linear_1208_57905" x1="176.413" y1="114.407" x2="180.115" y2="135.231" gradientUnits="userSpaceOnUse">
            <stop offset="0.186067" stop-color="white" stop-opacity="0.07" />
            <stop offset="0.312763" stop-color="white" stop-opacity="0.858597" />
            <stop offset="0.603529" stop-color="white" />
            <stop offset="1" stop-color="white" stop-opacity="0" />
        </linearGradient>
        <linearGradient id="paint21_linear_1208_57905" x1="158.42" y1="113.157" x2="161.816" y2="85.1437" gradientUnits="userSpaceOnUse">
            <stop stop-color="#798196" stop-opacity="0.53" />
            <stop offset="1" stop-color="#798196" stop-opacity="0" />
        </linearGradient>
        <linearGradient id="paint22_linear_1208_57905" x1="18.3575" y1="0" x2="18.3575" y2="48.2182" gradientUnits="userSpaceOnUse">
            <stop stop-color="#424254" />
            <stop offset="1" stop-color="#3B3B55" stop-opacity="0.33" />
        </linearGradient>
        <linearGradient id="paint23_linear_1208_57905" x1="-31.4299" y1="-5.38633" x2="95.5878" y2="14.7331" gradientUnits="userSpaceOnUse">
            <stop stop-color="#1D1E2B" />
            <stop offset="1" stop-color="#2B2D3D" />
        </linearGradient>
        <linearGradient id="paint24_linear_1208_57905" x1="114" y1="108" x2="193.781" y2="170.733" gradientUnits="userSpaceOnUse">
            <stop stop-color="#171723" />
            <stop offset="0.940675" stop-color="#171723" stop-opacity="0" />
        </linearGradient>
        <linearGradient id="paint25_linear_1208_57905" x1="45.498" y1="47.4214" x2="334.998" y2="252.921" gradientUnits="userSpaceOnUse">
            <stop stop-color="#45495C" />
            <stop offset="1" stop-color="#171723" />
        </linearGradient>
        <linearGradient id="paint26_linear_1208_57905" x1="72" y1="292.5" x2="103.799" y2="168.326" gradientUnits="userSpaceOnUse">
            <stop stop-color="#424659" />
            <stop offset="1" stop-color="#272839" />
        </linearGradient>
        <linearGradient id="paint27_linear_1208_57905" x1="-20.5779" y1="-29.0892" x2="48.668" y2="110.752" gradientUnits="userSpaceOnUse">
            <stop stop-color="#373B4D" />
            <stop offset="1" stop-color="#171723" stop-opacity="0.8" />
        </linearGradient>
        <linearGradient id="paint28_linear_1208_57905" x1="4.81289" y1="-8.01685" x2="34.0683" y2="76.9259" gradientUnits="userSpaceOnUse">
            <stop stop-color="#686982" />
            <stop offset="1" stop-color="#686982" stop-opacity="0" />
        </linearGradient>
    </defs>
</svg>