<svg width="307" height="290" viewBox="0 0 307 290" fill="none" xmlns="http://www.w3.org/2000/svg">
    <path d="M11.6704 157.099L64.2175 201.574L215.821 130.155L65.7018 42.5026L11.6704 157.099Z" fill="url(#paint0_linear_1208_56953)" />
    <path d="M63.3384 200.648L53.7233 84.1224C53.2123 77.9294 57.1556 72.2407 63.1341 70.5461L226.762 24.1661C227.101 24.0699 227.461 24.0652 227.803 24.1527L230.954 24.9585L236.442 140.021L298.956 196.438C301.129 198.399 300.528 201.954 297.831 203.092L126.064 275.589C124.404 276.289 122.48 275.793 121.366 274.377L63.3384 200.648Z" fill="url(#paint1_linear_1208_56953)" />
    <path d="M125.229 269.655L67.3417 198.373L235.847 140.021L301.248 196.874L285.031 203.599L266.44 210.718L198.801 239.989L125.229 269.655Z" fill="url(#paint2_linear_1208_56953)" />
    <path d="M121.7 253.916L87.2108 210.591L241.524 153.364L279.875 184.741C282.212 186.653 281.668 190.367 278.881 191.529L126.369 255.117C124.719 255.805 122.813 255.314 121.7 253.916Z" fill="white" />
    <path d="M67.4786 198.456L58.7996 83.1769C58.4056 77.9436 61.7634 73.1609 66.8193 71.7538L228.753 26.6879C230.011 26.3377 231.262 27.2682 231.288 28.5742L233.61 143.079L67.4786 198.456Z" fill="url(#paint3_linear_1208_56953)" />
    <path d="M71.4338 197.665L64.4883 81.7803C64.3771 79.9258 65.5574 78.2389 67.3377 77.7079L226.559 30.2113C227.786 29.8453 229.036 30.7106 229.125 31.988L236.774 141.101L71.4338 197.665Z" fill="url(#paint4_linear_1208_56953)" />
    <path d="M91.7658 225.351L248.189 163.501" stroke="url(#paint5_radial_1208_56953)" />
    <path d="M98.8048 234.118L255.249 169.895" stroke="url(#paint6_radial_1208_56953)" />
    <path d="M103.456 244.446L263.856 180.259" stroke="url(#paint7_radial_1208_56953)" />
    <path d="M111.309 250.847L270.127 186.646" stroke="url(#paint8_radial_1208_56953)" />
    <path d="M115.73 200.255L150.165 240.92" stroke="url(#paint9_radial_1208_56953)" />
    <path d="M124.49 194.007L158.926 234.672" stroke="url(#paint10_radial_1208_56953)" />
    <path d="M137.205 187.795L171.641 228.46" stroke="url(#paint11_radial_1208_56953)" />
    <path d="M149.122 182.366L183.558 223.031" stroke="url(#paint12_radial_1208_56953)" />
    <path d="M162.607 178.535L197.042 219.2" stroke="url(#paint13_radial_1208_56953)" />
    <path d="M172.95 172.301L207.385 212.966" stroke="url(#paint14_radial_1208_56953)" />
    <path d="M185.644 168.462L220.079 209.127" stroke="url(#paint15_radial_1208_56953)" />
    <path d="M204.658 165.473L221.875 185.806L239.093 206.138" stroke="url(#paint16_radial_1208_56953)" />
    <path d="M220.559 156.917L237.777 177.249L254.995 197.582" stroke="url(#paint17_radial_1208_56953)" />
    <path d="M87.3515 215.044L87.3514 210.579L121.977 251.593C123.659 253.586 126.437 254.263 128.848 253.269L279.102 191.336L279.278 194.807L127.47 257.242C125.46 258.068 123.146 257.502 121.746 255.84L87.3515 215.044Z" fill="url(#paint18_linear_1208_56953)" />
    <path d="M205.567 37.6282C204.639 38.6469 204.719 40.2262 205.744 41.1462L207.631 42.8389C208.671 43.7717 210.281 43.6364 211.151 42.5433C211.925 41.5698 211.838 40.1685 210.949 39.2985L209.138 37.5254C208.133 36.5419 206.513 36.5886 205.567 37.6282Z" fill="url(#paint19_linear_1208_56953)" fill-opacity="0.4" />
    <path d="M296.889 112.255C298.402 113.056 299.512 113.824 300.188 114.553L299.821 114.893C300.349 115.462 300.502 115.912 300.46 116.26C300.418 116.608 300.162 117.008 299.513 117.434L299.788 117.852C298.957 118.398 297.696 118.879 296.035 119.295L295.914 118.81C294.806 119.088 293.511 119.338 292.035 119.559L292.109 120.053C290.902 120.234 289.579 120.396 288.146 120.538L288.096 120.041C286.852 120.164 285.522 120.273 284.111 120.367L284.144 120.866C282.869 120.951 281.529 121.024 280.125 121.086L280.103 120.586C278.819 120.642 277.482 120.688 276.094 120.724L276.107 121.224C274.814 121.258 273.476 121.283 272.096 121.299L272.09 120.799C270.794 120.815 269.46 120.823 268.09 120.823L268.09 121.323C266.788 121.323 265.454 121.317 264.087 121.303L264.092 120.803C262.788 120.791 261.454 120.772 260.093 120.747L260.083 121.247C258.773 121.222 257.436 121.193 256.075 121.157L256.088 120.657C254.774 120.623 253.436 120.583 252.076 120.538L252.059 121.038C250.739 120.994 249.397 120.946 248.034 120.892L248.054 120.393C246.742 120.341 245.411 120.285 244.061 120.224L244.039 120.724C242.723 120.664 241.39 120.601 240.04 120.533L240.065 120.033C238.744 119.967 237.407 119.896 236.054 119.821L236.026 120.321C234.703 120.247 233.365 120.17 232.012 120.089L232.042 119.59C230.727 119.511 229.398 119.429 228.055 119.342L228.023 119.841C226.7 119.756 225.364 119.667 224.016 119.575L224.05 119.076C222.726 118.985 221.389 118.891 220.041 118.794L220.005 119.292C218.687 119.197 217.358 119.098 216.018 118.996L216.056 118.497C214.731 118.396 213.396 118.292 212.051 118.184L212.011 118.683C210.688 118.577 209.355 118.468 208.013 118.356L208.055 117.858C206.734 117.748 205.404 117.635 204.066 117.518L204.022 118.016C202.694 117.901 201.357 117.783 200.011 117.661L200.056 117.163C198.738 117.045 197.411 116.923 196.077 116.798L196.031 117.296C194.706 117.172 193.373 117.046 192.032 116.917L192.08 116.419C190.757 116.291 189.427 116.161 188.09 116.028L188.04 116.525C186.718 116.393 185.388 116.259 184.053 116.122L184.104 115.625C182.777 115.489 181.444 115.35 180.105 115.208L180.053 115.706C178.733 115.566 177.406 115.424 176.075 115.28L176.129 114.783C174.802 114.639 173.47 114.493 172.133 114.344L172.077 114.841C170.757 114.693 169.431 114.544 168.1 114.392L168.157 113.895C166.832 113.744 165.503 113.59 164.169 113.434L164.11 113.931C162.788 113.776 161.461 113.619 160.129 113.459L160.189 112.963C159.523 112.883 158.857 112.803 158.189 112.722C157.522 112.641 156.856 112.56 156.19 112.478L156.13 112.974C154.799 112.811 153.472 112.647 152.151 112.481L152.213 111.985C150.881 111.818 149.553 111.649 148.231 111.48L148.167 111.976C146.838 111.805 145.515 111.634 144.198 111.461L144.263 110.965C142.928 110.79 141.6 110.614 140.277 110.437L140.211 110.932C138.883 110.754 137.562 110.575 136.246 110.395L136.314 109.9C134.98 109.717 133.653 109.533 132.332 109.349L132.263 109.844C130.933 109.658 129.61 109.471 128.295 109.282L128.365 108.787C127.035 108.597 125.712 108.406 124.397 108.214L124.325 108.709C122.992 108.514 121.668 108.318 120.351 108.122L120.425 107.627C119.1 107.429 117.783 107.231 116.474 107.031L116.399 107.525C115.063 107.322 113.737 107.117 112.419 106.912L112.496 106.418C111.168 106.211 109.85 106.003 108.541 105.794L108.462 106.288C107.133 106.076 105.812 105.863 104.503 105.65L104.583 105.156C103.251 104.939 101.929 104.722 100.619 104.503L100.537 104.996C99.2113 104.775 97.8972 104.554 96.5946 104.332L96.6787 103.839C95.3462 103.612 94.0259 103.384 92.7181 103.155L92.6321 103.648C91.3007 103.415 89.9823 103.182 88.6773 102.949L88.7653 102.457C87.4413 102.22 86.1311 101.983 84.8351 101.745L84.745 102.237C83.4119 101.992 82.094 101.747 80.7916 101.502L80.8841 101.011C79.5524 100.76 78.2371 100.509 76.9386 100.258L76.8437 100.749C75.5164 100.493 74.2067 100.236 72.9151 99.9791L73.0126 99.4887C71.6875 99.2252 70.3816 98.9617 69.0953 98.6983L68.995 99.1882C67.6591 98.9146 66.3444 98.6412 65.0516 98.368L65.155 97.8788C63.8233 97.5973 62.5149 97.3162 61.2306 97.0355L61.1238 97.524C59.7932 97.2332 58.4884 96.9428 57.2101 96.6531L57.3206 96.1655C55.9924 95.8645 54.693 95.5642 53.4232 95.2648L53.3085 95.7515C51.9785 95.4379 50.6809 95.1254 49.4168 94.814L49.5364 94.3285C48.206 94.0008 46.9128 93.6745 45.6582 93.3499L45.533 93.834C44.1967 93.4882 42.9038 93.1443 41.6559 92.8026L41.7879 92.3203C40.4484 91.9535 39.1612 91.5893 37.9279 91.2282L37.7874 91.708C36.4391 91.3132 35.1548 90.9218 33.9369 90.5344L34.0884 90.0579C32.7409 89.6294 31.4759 89.206 30.2966 88.7887L30.1298 89.26C28.7721 88.7795 27.526 88.3065 26.3967 87.8421L26.5869 87.3797C25.2073 86.8123 24.0093 86.2602 22.9998 85.726L22.7659 86.1679C21.2526 85.367 20.1431 84.5987 19.4667 83.8697L19.8332 83.5296C19.3052 82.9604 19.1527 82.511 19.1949 82.1631C19.237 81.8152 19.4925 81.4153 20.1413 80.9888L19.8666 80.571C20.6976 80.0247 21.9586 79.5438 23.6194 79.1276L23.7409 79.6126C24.8488 79.335 26.144 79.0853 27.6193 78.864L27.5451 78.3695C28.7527 78.1883 30.0756 78.0267 31.5089 77.8846L31.5582 78.3821C32.8031 78.2587 34.1326 78.1499 35.5435 78.0557L35.5102 77.5568C36.7853 77.4716 38.126 77.3985 39.5296 77.3372L39.5514 77.8367C40.8352 77.7807 42.1722 77.7346 43.5605 77.6985L43.5475 77.1987C44.8409 77.165 46.1785 77.14 47.5588 77.1236L47.5647 77.6235C48.8606 77.6081 50.1942 77.6002 51.5644 77.5999L51.5643 77.0999C52.8662 77.0996 54.2008 77.1062 55.5672 77.1195L55.5624 77.6194C56.8668 77.6322 58.2004 77.6511 59.562 77.6761L59.5712 77.1762C60.8817 77.2004 62.2182 77.2302 63.5797 77.2658L63.5666 77.7656C64.8808 77.7999 66.2185 77.8395 67.5789 77.8844L67.5954 77.3847C68.916 77.4283 70.258 77.4769 71.6205 77.5305L71.6009 78.0301C72.9128 78.0817 74.2439 78.1379 75.5935 78.1986L75.616 77.6992C76.9316 77.7584 78.2647 77.822 79.6149 77.89L79.5897 78.3894C80.9106 78.4559 82.2477 78.5265 83.6007 78.6014L83.6283 78.1021C84.9515 78.1753 86.2898 78.2525 87.6427 78.3336L87.6127 78.8327C88.9279 78.9116 90.2569 78.9942 91.5992 79.0806L91.6313 78.5816C92.9542 78.6667 94.2901 78.7554 95.6385 78.8478L95.6043 79.3466C96.9288 79.4374 98.2654 79.5316 99.6135 79.6293L99.6497 79.1306C100.968 79.2261 102.297 79.325 103.636 79.4271L103.598 79.9257C104.923 80.0267 106.258 80.131 107.604 80.2385L107.644 79.7401C108.966 79.8458 110.299 79.9546 111.641 80.0666L111.6 80.5649C112.92 80.6751 114.25 80.7883 115.589 80.9045L115.632 80.4064C116.961 80.5218 118.298 80.6401 119.644 80.7614L119.599 81.2594C120.917 81.3782 122.243 81.4999 123.577 81.6245L123.624 81.1266C124.949 81.2504 126.282 81.3769 127.622 81.5063L127.574 82.0039C128.897 82.1316 130.228 82.2621 131.565 82.3952L131.614 81.8977C132.937 82.0294 134.266 82.1637 135.602 82.3008L135.551 82.7981C136.877 82.9343 138.21 83.073 139.549 83.2143L139.602 82.7171C140.922 82.8565 142.248 82.9984 143.58 83.1428L143.526 83.6399C144.852 83.7838 146.185 83.9302 147.522 84.0792L147.577 83.5822C148.898 83.7293 150.224 83.8789 151.555 84.0308L151.498 84.5276C152.823 84.6789 154.152 84.8326 155.486 84.9887L155.544 84.4921C156.867 84.6469 158.194 84.804 159.525 84.9636L159.466 85.46C160.131 85.5398 160.798 85.6201 161.465 85.701C162.133 85.7819 162.799 85.8632 163.464 85.9447L163.525 85.4485C164.856 85.6117 166.182 85.7761 167.503 85.9419L167.441 86.438C168.774 86.6051 170.102 86.7735 171.424 86.9432L171.488 86.4472C172.816 86.6176 174.139 86.7892 175.457 86.962L175.392 87.4577C176.726 87.6327 178.055 87.8088 179.377 87.986L179.444 87.4904C180.771 87.6684 182.093 87.8474 183.408 88.0275L183.34 88.5229C184.674 88.7056 186.002 88.8894 187.323 89.0742L187.392 88.579C188.721 88.7651 190.044 88.9523 191.36 89.1404L191.289 89.6354C192.619 89.8256 193.942 90.0168 195.258 90.2089L195.33 89.7142C196.662 89.9088 197.987 90.1045 199.303 90.301L199.23 90.7955C200.555 90.9933 201.872 91.192 203.18 91.3916L203.256 90.8974C204.591 91.1011 205.918 91.3057 207.236 91.5111L207.159 92.0051C208.486 92.2121 209.805 92.4199 211.113 92.6285L211.192 92.1348C212.522 92.3467 213.842 92.5594 215.152 92.7729L215.072 93.2664C216.404 93.4834 217.725 93.7012 219.036 93.9197L219.118 93.4265C220.443 93.6474 221.757 93.869 223.06 94.0911L222.976 94.584C224.308 94.8112 225.629 95.0391 226.937 95.2675L227.023 94.7749C228.354 95.0074 229.672 95.2404 230.977 95.4739L230.889 95.9661C232.213 96.203 233.524 96.4403 234.819 96.678L234.91 96.1862C236.243 96.4306 237.561 96.6755 238.863 96.9206L238.771 97.412C240.102 97.6626 241.418 97.9134 242.716 98.1645L242.811 97.6736C244.138 97.9302 245.448 98.1869 246.74 98.4437L246.642 98.9341C247.967 99.1976 249.273 99.4611 250.559 99.7245L250.66 99.2346C251.995 99.5082 253.31 99.7816 254.603 100.055L254.5 100.544C255.831 100.825 257.14 101.107 258.424 101.387L258.531 100.899C259.861 101.19 261.166 101.48 262.445 101.77L262.334 102.257C263.662 102.558 264.962 102.859 266.231 103.158L266.346 102.671C267.676 102.985 268.974 103.297 270.238 103.609L270.118 104.094C271.449 104.422 272.742 104.748 273.996 105.073L274.122 104.589C275.458 104.935 276.751 105.278 277.999 105.62L277.867 106.102C279.206 106.469 280.493 106.833 281.727 107.195L281.867 106.715C283.215 107.11 284.5 107.501 285.718 107.888L285.566 108.365C286.914 108.793 288.179 109.217 289.358 109.634L289.525 109.163C290.883 109.643 292.129 110.116 293.258 110.581L293.068 111.043C294.447 111.611 295.645 112.163 296.655 112.697L296.889 112.255Z" stroke="url(#paint20_linear_1208_56953)" stroke-dasharray="4 4" />
    <g opacity="0.9">
        <g filter="url(#filter0_d_1208_56953)">
            <ellipse rx="18.3575" ry="24.1091" transform="matrix(0.977376 0.227267 -0.161319 0.994776 283.831 120.379)" fill="url(#paint21_linear_1208_56953)" />
        </g>
        <ellipse rx="16.5001" ry="24.1091" transform="matrix(0.977376 0.227267 -0.161319 0.994776 286.19 119.829)" fill="url(#paint22_linear_1208_56953)" />
        <path d="M294.826 112.715C294.699 112.871 292.394 115.094 292.736 118.262C293.132 121.925 296.399 122.205 296.496 122.207C296.49 122.29 296.191 124.143 295.225 126.246C294.362 128.1 293.453 129.967 291.821 130.498C290.188 131.028 289.663 130.189 287.779 130.801C285.942 131.398 285.398 132.618 283.905 133.103C282.412 133.588 281.219 132.519 279.834 131.18C278.228 129.602 276.767 126.813 276.444 123.821C275.926 119.022 278.685 115.491 281.671 114.521C283.258 114.005 284.696 114.647 285.692 114.323C286.64 114.015 287.996 112.399 289.802 111.813C290.486 111.59 292.951 110.856 294.826 112.715ZM288.725 110.059C289.374 108.906 289.765 107.47 289.629 106.206C289.61 106.031 289.576 105.858 289.53 105.725C288.32 106.166 286.96 107.421 286.201 108.743C285.603 109.766 285.101 111.237 285.239 112.518C285.26 112.711 285.312 112.893 285.333 112.95C285.411 112.94 285.538 112.917 285.663 112.876C286.753 112.522 288.042 111.326 288.725 110.059Z" fill="url(#paint23_linear_1208_56953)" />
        <path d="M295.826 112.715C295.699 112.871 293.394 115.094 293.736 118.262C294.132 121.925 297.399 122.205 297.496 122.207C297.49 122.29 297.191 124.143 296.225 126.246C295.362 128.1 294.453 129.967 292.821 130.498C291.188 131.028 290.663 130.189 288.779 130.801C286.942 131.398 286.398 132.618 284.905 133.103C283.412 133.588 282.219 132.519 280.834 131.18C279.228 129.602 277.767 126.813 277.444 123.821C276.926 119.022 279.685 115.491 282.671 114.521C284.258 114.005 285.696 114.647 286.692 114.323C287.64 114.015 288.996 112.399 290.802 111.813C291.486 111.59 293.951 110.856 295.826 112.715ZM289.725 110.059C290.374 108.906 290.765 107.47 290.629 106.206C290.61 106.031 290.576 105.858 290.53 105.725C289.32 106.166 287.96 107.421 287.201 108.743C286.603 109.766 286.101 111.237 286.239 112.518C286.26 112.711 286.312 112.893 286.333 112.95C286.411 112.94 286.538 112.917 286.663 112.876C287.753 112.522 289.042 111.326 289.725 110.059Z" fill="url(#paint24_linear_1208_56953)" />
    </g>
    <circle cx="153.498" cy="113.518" r="44.5" fill="url(#paint25_linear_1208_56953)" />
    <circle cx="155.501" cy="113.675" r="44.5" fill="url(#paint26_linear_1208_56953)" />
    <path fill-rule="evenodd" clip-rule="evenodd" d="M136.625 116.842L144.575 107.308L137.95 108.536L130 118.07L136.956 123.833L143.581 122.605L136.625 116.842ZM149.813 127.769V127.831L149.875 127.82L149.813 127.769ZM149.875 100.953L149.813 101.027V100.964L149.875 100.953ZM163.125 98.4969L163.187 98.4855V98.5479L163.125 98.4969ZM176.375 109.475L168.425 102.888L175.05 101.66L183 108.247L176.043 116.589L169.419 117.817L176.375 109.475ZM163.187 125.29L163.125 125.364L163.187 125.353V125.29ZM158.156 92.701L149.875 134.537L154.844 133.616L163.125 91.7801L158.156 92.701Z" fill="#B7B8BE" />
    <path fill-rule="evenodd" clip-rule="evenodd" d="M137.625 116.841L145.575 107.308L138.95 108.536L131 118.069L137.956 123.833L144.581 122.605L137.625 116.841ZM150.813 127.768V127.831L150.875 127.819L150.813 127.768ZM150.875 100.952L150.813 101.026V100.964L150.875 100.952ZM164.125 98.4964L164.187 98.485V98.5474L164.125 98.4964ZM177.375 109.474L169.425 102.888L176.05 101.66L184 108.246L177.043 116.589L170.419 117.816L177.375 109.474ZM164.187 125.29L164.125 125.364L164.187 125.352V125.29ZM159.156 92.7005L150.875 134.536L155.844 133.615L164.125 91.7796L159.156 92.7005Z" fill="#868EA3" />
    <g opacity="0.8">
        <g filter="url(#filter1_d_1208_56953)">
            <ellipse rx="19.5" ry="22" transform="matrix(0.989651 0.143493 0 1 27.2568 86.47)" fill="#E1E2EB" />
        </g>
        <ellipse rx="19.5" ry="21.5" transform="matrix(0.989651 0.143493 0 1 23.2982 85.3963)" fill="#F7F7FD" />
        <path fill-rule="evenodd" clip-rule="evenodd" d="M17.8643 73.4238C17.7656 73.1642 17.4771 73.0315 17.2198 73.1274C16.9625 73.2232 16.8339 73.5114 16.9326 73.771L17.817 76.0979C16.8915 76.8577 16.2439 77.8903 16.0355 79.0966L28.4643 81.2322C28.639 80.0201 28.3441 78.8253 27.7017 77.796L29.2565 75.8886C29.43 75.6758 29.3971 75.3599 29.183 75.183C28.9689 75.0062 28.6547 75.0353 28.4813 75.2481L27.0787 76.9687C26.2518 76.0461 25.1132 75.3301 23.7843 74.9677L22.3994 74.7297C21.029 74.6283 19.7297 74.9256 18.6621 75.5227L17.8643 73.4238ZM18.7024 91.3344L22.1644 91.9293L21.602 95.4798C21.4812 96.2426 22.0003 96.9668 22.7613 97.0976C23.5224 97.2284 24.2373 96.7162 24.3581 95.9534L24.9205 92.4029L24.9881 92.4145C25.9347 92.5771 26.8203 91.9304 26.9732 90.9651L28.3949 81.989C28.4033 81.9355 28.4098 81.882 28.4136 81.8291L15.9021 79.6792C15.8893 79.7308 15.8769 79.783 15.8684 79.8366L14.4468 88.8127C14.2939 89.778 14.9332 90.6867 15.8797 90.8494L15.9463 90.8608L15.384 94.411C15.2632 95.1738 15.7823 95.898 16.5433 96.0288C17.3044 96.1596 18.0193 95.6474 18.1401 94.8846L18.7024 91.3344ZM13.5527 80.0962C14.3137 80.2269 14.8327 80.9513 14.7119 81.714L13.7736 87.6385C13.6528 88.4013 12.9378 88.9136 12.1768 88.7828C11.4157 88.652 10.8967 87.9277 11.0175 87.165L11.9558 81.2405C12.0765 80.4778 12.7915 79.9654 13.5527 80.0962ZM30.5077 83.0096C31.2687 83.1403 31.7877 83.8647 31.6669 84.6274L30.7286 90.5519C30.6078 91.3147 29.8928 91.827 29.1318 91.6962C28.3707 91.5654 27.8517 90.8411 27.9725 90.0784L28.9108 84.1539C29.0316 83.3912 29.7466 82.8788 30.5077 83.0096Z" fill="url(#paint27_linear_1208_56953)" />
        <path fill-rule="evenodd" clip-rule="evenodd" d="M16.2198 73.1274C16.4771 73.0315 16.7656 73.1642 16.8643 73.4238L17.6621 75.5227C18.7297 74.9256 20.029 74.6283 21.3994 74.7297L22.7843 74.9677C24.1132 75.3301 25.2518 76.0461 26.0787 76.9687L27.4813 75.2481C27.6547 75.0353 27.9689 75.0062 28.183 75.183C28.3971 75.3599 28.43 75.6758 28.2565 75.8886L26.7017 77.796C27.3441 78.8253 27.639 80.0201 27.4643 81.2322L15.0355 79.0966C15.2439 77.8903 15.8915 76.8577 16.817 76.0979L15.9326 73.771C15.8339 73.5114 15.9625 73.2232 16.2198 73.1274ZM21.1644 91.9293L17.7024 91.3344L17.1401 94.8846C17.0193 95.6474 16.3044 96.1596 15.5433 96.0288C14.7823 95.898 14.2632 95.1738 14.384 94.411L14.9463 90.8608L14.8797 90.8494C13.9332 90.6867 13.2939 89.778 13.4468 88.8127L14.8684 79.8366C14.8769 79.783 14.8893 79.7308 14.9021 79.6792L27.4136 81.8291C27.4098 81.882 27.4033 81.9355 27.3949 81.989L25.9732 90.9651C25.8203 91.9304 24.9347 92.5771 23.9881 92.4145L23.9205 92.4029L23.3581 95.9534C23.2373 96.7162 22.5224 97.2284 21.7613 97.0976C21.0003 96.9668 20.4812 96.2426 20.602 95.4798L21.1644 91.9293ZM13.7119 81.714C13.8327 80.9513 13.3137 80.2269 12.5527 80.0962C11.7915 79.9654 11.0765 80.4778 10.9558 81.2405L10.0175 87.165C9.89666 87.9277 10.4157 88.652 11.1768 88.7828C11.9378 88.9136 12.6528 88.4013 12.7736 87.6385L13.7119 81.714ZM30.6669 84.6274C30.7877 83.8647 30.2687 83.1403 29.5077 83.0096C28.7466 82.8788 28.0316 83.3912 27.9108 84.1539L26.9725 90.0784C26.8517 90.8411 27.3707 91.5654 28.1318 91.6962C28.8928 91.827 29.6078 91.3147 29.7286 90.5519L30.6669 84.6274ZM18.9679 77.9526C19.3619 78.0192 19.7298 77.7606 19.7897 77.375L19.7903 77.3711C19.8502 76.9853 19.5794 76.6189 19.1856 76.5523C18.7917 76.4858 18.4238 76.7443 18.3638 77.13L18.3632 77.1339C18.3033 77.5195 18.5741 77.886 18.9679 77.9526ZM24.2898 78.8671C24.6839 78.9337 25.0518 78.6751 25.1117 78.2895L25.1123 78.2856C25.1722 77.8998 24.9014 77.5334 24.5076 77.4668C24.1136 77.4002 23.7457 77.6588 23.6857 78.0445L23.6851 78.0483C23.6253 78.4339 23.896 78.8004 24.2898 78.8671Z" fill="url(#paint28_linear_1208_56953)" />
    </g>
    <path d="M37.9132 245.041C35.1997 241.554 36.2527 237.228 40.2651 235.378L59.5058 226.508C63.5182 224.658 68.9706 225.986 71.6841 229.472L101.683 268.022C104.397 271.509 103.344 275.835 99.3312 277.685L76.458 288.229C74.4518 289.154 71.7256 288.491 70.3688 286.747L37.9132 245.041Z" fill="url(#paint29_linear_1208_56953)" />
    <rect x="0.380573" y="0.0926329" width="33.7568" height="63.446" rx="3.75" transform="matrix(0.908143 -0.41866 0.614147 0.789191 35.5308 237.617)" fill="url(#paint30_linear_1208_56953)" stroke="url(#paint31_linear_1208_56953)" stroke-width="0.5" />
    <defs>
        <filter id="filter0_d_1208_56953" x="261.469" y="96.0317" width="44.7255" height="56.6943" filterUnits="userSpaceOnUse" color-interpolation-filters="sRGB">
            <feFlood flood-opacity="0" result="BackgroundImageFix" />
            <feColorMatrix in="SourceAlpha" type="matrix" values="0 0 0 0 0 0 0 0 0 0 0 0 0 0 0 0 0 0 127 0" result="hardAlpha" />
            <feOffset dy="4" />
            <feGaussianBlur stdDeviation="2" />
            <feComposite in2="hardAlpha" operator="out" />
            <feColorMatrix type="matrix" values="0 0 0 0 0 0 0 0 0 0 0 0 0 0 0 0 0 0 0.05 0" />
            <feBlend mode="normal" in2="BackgroundImageFix" result="effect1_dropShadow_1208_56953" />
            <feBlend mode="normal" in="SourceGraphic" in2="effect1_dropShadow_1208_56953" result="shape" />
        </filter>
        <filter id="filter1_d_1208_56953" x="0.958618" y="53.2905" width="68.5964" height="74.3589" filterUnits="userSpaceOnUse" color-interpolation-filters="sRGB">
            <feFlood flood-opacity="0" result="BackgroundImageFix" />
            <feColorMatrix in="SourceAlpha" type="matrix" values="0 0 0 0 0 0 0 0 0 0 0 0 0 0 0 0 0 0 127 0" result="hardAlpha" />
            <feOffset dx="8" dy="4" />
            <feGaussianBlur stdDeviation="7.5" />
            <feComposite in2="hardAlpha" operator="out" />
            <feColorMatrix type="matrix" values="0 0 0 0 0 0 0 0 0 0 0 0 0 0 0 0 0 0 0.05 0" />
            <feBlend mode="normal" in2="BackgroundImageFix" result="effect1_dropShadow_1208_56953" />
            <feBlend mode="normal" in="SourceGraphic" in2="effect1_dropShadow_1208_56953" result="shape" />
        </filter>
        <linearGradient id="paint0_linear_1208_56953" x1="138.161" y1="228.453" x2="34.8507" y2="146.262" gradientUnits="userSpaceOnUse">
            <stop stop-color="#798196" />
            <stop offset="1" stop-color="white" stop-opacity="0" />
        </linearGradient>
        <linearGradient id="paint1_linear_1208_56953" x1="17.2333" y1="267.536" x2="615.497" y2="286.208" gradientUnits="userSpaceOnUse">
            <stop stop-color="#C4C6D7" />
            <stop offset="0.34172" stop-color="#E8E8F1" />
            <stop offset="1" stop-color="#FCFCFF" />
        </linearGradient>
        <linearGradient id="paint2_linear_1208_56953" x1="291.934" y1="84.1387" x2="-108.241" y2="692.112" gradientUnits="userSpaceOnUse">
            <stop stop-color="#FAFAFF" />
            <stop offset="1" stop-color="#FAFAFF" stop-opacity="0" />
        </linearGradient>
        <linearGradient id="paint3_linear_1208_56953" x1="79.8786" y1="143.241" x2="381.993" y2="143.303" gradientUnits="userSpaceOnUse">
            <stop stop-color="#E8E8F1" />
            <stop offset="1" stop-color="#FCFCFF" />
        </linearGradient>
        <linearGradient id="paint4_linear_1208_56953" x1="384.395" y1="-113.461" x2="135.163" y2="137.193" gradientUnits="userSpaceOnUse">
            <stop stop-color="#E8E8F1" />
            <stop offset="1" stop-color="#FCFCFF" />
        </linearGradient>
        <radialGradient id="paint5_radial_1208_56953" cx="0" cy="0" r="1" gradientUnits="userSpaceOnUse" gradientTransform="translate(169.977 194.426) rotate(90.5277) scale(31.644 77.9233)">
            <stop stop-color="#E8E9F0" />
            <stop offset="1" stop-color="#F7F7F7" stop-opacity="0" />
        </radialGradient>
        <radialGradient id="paint6_radial_1208_56953" cx="0" cy="0" r="1" gradientUnits="userSpaceOnUse" gradientTransform="translate(177.027 202.006) rotate(90.5277) scale(32.8306 77.9233)">
            <stop stop-color="#E8E9F0" />
            <stop offset="1" stop-color="#F7F7F7" stop-opacity="0" />
        </radialGradient>
        <radialGradient id="paint7_radial_1208_56953" cx="0" cy="0" r="1" gradientUnits="userSpaceOnUse" gradientTransform="translate(183.656 212.352) rotate(90.5277) scale(32.8306 79.901)">
            <stop stop-color="#E8E9F0" />
            <stop offset="1" stop-color="#F7F7F7" stop-opacity="0" />
        </radialGradient>
        <radialGradient id="paint8_radial_1208_56953" cx="0" cy="0" r="1" gradientUnits="userSpaceOnUse" gradientTransform="translate(190.718 218.746) rotate(90.5277) scale(32.8306 79.1099)">
            <stop stop-color="#E8E9F0" />
            <stop offset="1" stop-color="#F7F7F7" stop-opacity="0" />
        </radialGradient>
        <radialGradient id="paint9_radial_1208_56953" cx="0" cy="0" r="1" gradientUnits="userSpaceOnUse" gradientTransform="translate(132.948 220.588) rotate(90.5277) scale(20.173 17.4042)">
            <stop stop-color="#E8E9F0" />
            <stop offset="1" stop-color="#F7F7F7" stop-opacity="0" />
        </radialGradient>
        <radialGradient id="paint10_radial_1208_56953" cx="0" cy="0" r="1" gradientUnits="userSpaceOnUse" gradientTransform="translate(141.708 214.339) rotate(90.5277) scale(20.173 17.4042)">
            <stop stop-color="#E8E9F0" />
            <stop offset="1" stop-color="#F7F7F7" stop-opacity="0" />
        </radialGradient>
        <radialGradient id="paint11_radial_1208_56953" cx="0" cy="0" r="1" gradientUnits="userSpaceOnUse" gradientTransform="translate(154.423 208.127) rotate(90.5277) scale(20.173 17.4042)">
            <stop stop-color="#E8E9F0" />
            <stop offset="1" stop-color="#F7F7F7" stop-opacity="0" />
        </radialGradient>
        <radialGradient id="paint12_radial_1208_56953" cx="0" cy="0" r="1" gradientUnits="userSpaceOnUse" gradientTransform="translate(166.34 202.699) rotate(90.5277) scale(20.173 17.4042)">
            <stop stop-color="#E8E9F0" />
            <stop offset="1" stop-color="#F7F7F7" stop-opacity="0" />
        </radialGradient>
        <radialGradient id="paint13_radial_1208_56953" cx="0" cy="0" r="1" gradientUnits="userSpaceOnUse" gradientTransform="translate(179.824 198.868) rotate(90.5277) scale(20.173 17.4042)">
            <stop stop-color="#E8E9F0" />
            <stop offset="1" stop-color="#F7F7F7" stop-opacity="0" />
        </radialGradient>
        <radialGradient id="paint14_radial_1208_56953" cx="0" cy="0" r="1" gradientUnits="userSpaceOnUse" gradientTransform="translate(190.167 192.634) rotate(90.5277) scale(20.173 17.4042)">
            <stop stop-color="#E8E9F0" />
            <stop offset="1" stop-color="#F7F7F7" stop-opacity="0" />
        </radialGradient>
        <radialGradient id="paint15_radial_1208_56953" cx="0" cy="0" r="1" gradientUnits="userSpaceOnUse" gradientTransform="translate(202.861 188.795) rotate(90.5277) scale(20.173 17.4042)">
            <stop stop-color="#E8E9F0" />
            <stop offset="1" stop-color="#F7F7F7" stop-opacity="0" />
        </radialGradient>
        <radialGradient id="paint16_radial_1208_56953" cx="0" cy="0" r="1" gradientUnits="userSpaceOnUse" gradientTransform="translate(221.875 185.806) rotate(90.5277) scale(20.173 17.4042)">
            <stop stop-color="#E8E9F0" />
            <stop offset="1" stop-color="#F7F7F7" stop-opacity="0" />
        </radialGradient>
        <radialGradient id="paint17_radial_1208_56953" cx="0" cy="0" r="1" gradientUnits="userSpaceOnUse" gradientTransform="translate(237.777 177.249) rotate(90.5277) scale(20.173 17.4042)">
            <stop stop-color="#E8E9F0" />
            <stop offset="1" stop-color="#F7F7F7" stop-opacity="0" />
        </radialGradient>
        <linearGradient id="paint18_linear_1208_56953" x1="125.388" y1="268.069" x2="338.823" y2="134.107" gradientUnits="userSpaceOnUse">
            <stop stop-color="#C4C6D7" />
            <stop offset="0.441811" stop-color="#E8E8F1" />
            <stop offset="1" stop-color="#EBEBEB" stop-opacity="0" />
        </linearGradient>
        <linearGradient id="paint19_linear_1208_56953" x1="211.713" y1="33.8228" x2="205.831" y2="44.1933" gradientUnits="userSpaceOnUse">
            <stop stop-color="#E6ECEF" />
            <stop offset="1" stop-color="#E6ECEF" stop-opacity="0" />
            <stop offset="1" stop-color="#EAF4FA" stop-opacity="0" />
        </linearGradient>
        <linearGradient id="paint20_linear_1208_56953" x1="158.42" y1="113.253" x2="161.816" y2="85.2399" gradientUnits="userSpaceOnUse">
            <stop stop-color="#798196" stop-opacity="0.53" />
            <stop offset="1" stop-color="#798196" stop-opacity="0" />
        </linearGradient>
        <linearGradient id="paint21_linear_1208_56953" x1="18.3575" y1="0" x2="18.3575" y2="48.2182" gradientUnits="userSpaceOnUse">
            <stop stop-color="#D5D7E3" />
            <stop offset="1" stop-color="#DADBE6" />
        </linearGradient>
        <linearGradient id="paint22_linear_1208_56953" x1="-31.4299" y1="-5.38633" x2="39.5002" y2="43.8833" gradientUnits="userSpaceOnUse">
            <stop stop-color="#E6E7F0" />
            <stop offset="1" stop-color="#FAFAFF" />
        </linearGradient>
        <linearGradient id="paint23_linear_1208_56953" x1="237" y1="101.596" x2="322.237" y2="140.506" gradientUnits="userSpaceOnUse">
            <stop stop-color="#C5C7D8" />
            <stop offset="1" stop-color="#C5C7D8" stop-opacity="0" />
        </linearGradient>
        <linearGradient id="paint24_linear_1208_56953" x1="274.069" y1="119.884" x2="326.119" y2="136.261" gradientUnits="userSpaceOnUse">
            <stop stop-color="#C5C7D8" />
            <stop offset="1" stop-color="#C5C7D8" stop-opacity="0" />
        </linearGradient>
        <linearGradient id="paint25_linear_1208_56953" x1="114" y1="108.096" x2="193.781" y2="170.829" gradientUnits="userSpaceOnUse">
            <stop stop-color="#C6C8D9" />
            <stop offset="0.940675" stop-color="#ECEEF8" />
        </linearGradient>
        <linearGradient id="paint26_linear_1208_56953" x1="257.001" y1="273.675" x2="80.0011" y2="8.67481" gradientUnits="userSpaceOnUse">
            <stop stop-color="#E6E7F0" />
            <stop offset="1" stop-color="white" />
        </linearGradient>
        <linearGradient id="paint27_linear_1208_56953" x1="49.7969" y1="121.889" x2="0.296876" y2="61.3892" gradientUnits="userSpaceOnUse">
            <stop stop-color="#C4C6D7" />
            <stop offset="1" stop-color="#A3A8BD" />
        </linearGradient>
        <linearGradient id="paint28_linear_1208_56953" x1="48.7969" y1="121.889" x2="-0.703124" y2="61.3892" gradientUnits="userSpaceOnUse">
            <stop stop-color="#C4C6D7" />
            <stop offset="1" stop-color="white" />
        </linearGradient>
        <linearGradient id="paint29_linear_1208_56953" x1="78.4961" y1="287.394" x2="90.0387" y2="198.585" gradientUnits="userSpaceOnUse">
            <stop stop-color="#C4C6D7" />
            <stop offset="1" stop-color="#F7F7FD" />
        </linearGradient>
        <linearGradient id="paint30_linear_1208_56953" x1="-112.765" y1="-150.853" x2="2.78202" y2="46.8081" gradientUnits="userSpaceOnUse">
            <stop stop-color="#E8E8F1" />
            <stop offset="1" stop-color="#FCFCFF" />
        </linearGradient>
        <linearGradient id="paint31_linear_1208_56953" x1="16.9204" y1="3.47454" x2="36.34" y2="75.953" gradientUnits="userSpaceOnUse">
            <stop stop-color="#C4C6D7" />
            <stop offset="1" stop-color="#C4C6D7" stop-opacity="0" />
        </linearGradient>
    </defs>
</svg>