<svg width="24" height="24" viewBox="0 0 24 24" fill="none" xmlns="http://www.w3.org/2000/svg">
<g clip-path="url(#clip0_1_11)">
<path d="M6.74376 21.2097C5.86932 20.7258 5.0714 20.1238 4.37432 19.4219C4.17216 19.6661 3.92502 19.8724 3.64528 20.0303C3.49076 20.1143 3.32795 20.1833 3.15924 20.2363C6.93076 24.2019 13.0424 25.1433 17.9104 22.5084C18.1406 22.3812 18.2826 22.145 18.2826 21.8895C18.2826 21.6339 18.1406 21.3978 17.9104 21.2706C17.6871 21.1415 17.4091 21.137 17.1814 21.2589C13.9383 23.0222 9.96876 23.0035 6.74376 21.2097Z" fill="#C4C6D7"/>
<path d="M6.74132 3.66914C7.61604 3.18338 8.55892 2.82163 9.54092 2.59508C9.41888 2.297 9.35624 1.97948 9.3562 1.65908C9.35668 1.48622 9.37456 1.31381 9.40968 1.14429C3.95896 2.3097 0.0603576 6.93714 0 12.3131C0.000869248 12.5685 0.142949 12.8041 0.372872 12.9314C0.602796 13.0588 0.885748 13.0585 1.11546 12.9309C1.341 12.8088 1.48249 12.5808 1.48727 12.3318C1.52701 8.75347 3.52414 5.46068 6.74132 3.66914Z" fill="#C4C6D7"/>
<path d="M22.5156 12.4394C22.5153 13.4115 22.3696 14.3785 22.0831 15.3106C22.4099 15.3567 22.7248 15.4615 23.0114 15.6195C23.1652 15.7042 23.3108 15.8021 23.4464 15.912C25.1193 10.7839 22.9046 5.22182 18.1 2.48509C17.8699 2.36901 17.5936 2.37697 17.3711 2.50609C17.1486 2.6352 17.0122 2.86675 17.0112 3.11689C17.0086 3.36546 17.1426 3.59686 17.3637 3.72529C20.5583 5.55045 22.5165 8.86261 22.5156 12.4394Z" fill="#C4C6D7"/>
<path d="M12.0027 7.62371C14.0257 7.62278 15.8502 8.79546 16.625 10.5949C17.3999 12.3943 16.9726 14.4661 15.5424 15.8438C14.1122 17.2216 11.9609 17.634 10.0918 16.8888C8.22259 16.1436 7.00379 14.3874 7.00379 12.4394C7.00647 9.78178 9.24259 7.62757 12.0027 7.62371ZM12.0027 6.19397C8.42047 6.19397 5.51651 8.99016 5.51651 12.4394C5.51651 15.8887 8.42047 18.6849 12.0027 18.6849C15.5849 18.6849 18.4888 15.8887 18.4888 12.4394C18.4895 10.7828 17.8063 9.19393 16.5898 8.02252C15.3733 6.85115 13.7231 6.19335 12.0027 6.19397Z" fill="#C4C6D7"/>
<path d="M12.0002 3.33215C12.9559 3.33215 13.7306 2.58622 13.7306 1.66608C13.7306 0.745929 12.9559 0 12.0002 0C11.0446 0 10.27 0.745929 10.27 1.66608C10.27 2.58622 11.0446 3.33215 12.0002 3.33215Z" fill="#C4C6D7"/>
<path d="M2.3111 19.4898C3.26671 19.4898 4.04139 18.7439 4.04139 17.8237C4.04139 16.9036 3.26671 16.1577 2.3111 16.1577C1.35549 16.1577 0.580811 16.9036 0.580811 17.8237C0.580811 18.7439 1.35549 19.4898 2.3111 19.4898Z" fill="#C4C6D7"/>
<path d="M21.6894 19.4898C22.645 19.4898 23.4197 18.7439 23.4197 17.8237C23.4197 16.9036 22.645 16.1577 21.6894 16.1577C20.7338 16.1577 19.9591 16.9036 19.9591 17.8237C19.9591 18.7439 20.7338 19.4898 21.6894 19.4898Z" fill="#C4C6D7"/>
<path d="M13.4365 11.2998C13.4374 10.6279 12.9359 10.0529 12.2484 9.93779C11.5608 9.82265 10.8871 10.2009 10.6524 10.8336C10.4177 11.4664 10.6902 12.17 11.2979 12.5003L10.8459 14.7069C10.8311 14.7766 10.85 14.8489 10.8973 14.9035C10.9446 14.9581 11.0151 14.9891 11.0889 14.9878H12.9286C13.0024 14.9891 13.0729 14.9581 13.1202 14.9035C13.1675 14.8489 13.1864 14.7766 13.1716 14.7069L12.7172 12.5003C13.1636 12.2537 13.4383 11.7954 13.4365 11.2998Z" fill="#C4C6D7"/>
</g>
<defs>
<clipPath id="clip0_1_11">
<rect width="24" height="24" fill="white"/>
</clipPath>
</defs>
</svg>
