<svg width="24" height="24" viewBox="0 0 24 24" fill="none" xmlns="http://www.w3.org/2000/svg">
<path fill-rule="evenodd" clip-rule="evenodd" d="M5.25 3H18.75C19.9926 3 21 4.00736 21 5.25V18.75C21 19.9926 19.9926 21 18.75 21H5.25C4.00736 21 3 19.9926 3 18.75V5.25C3 4.00736 4.00736 3 5.25 3ZM13.5467 9.2378C14.8834 9.40936 16.2798 9.84718 17.6601 10.6272L19.0312 9.71202V12.3053H15.0701L16.2892 11.5423C15.3212 11.1022 14.4026 10.8227 13.5467 10.6742V17.0335L11.4138 18.4063C1.04033 16.518 4.80411 9.69874 11.4138 9.18233V6.96653L13.5467 5.59371V9.2378ZM11.4137 10.5686V17.0335C4.98567 16.1994 6.46334 10.9884 11.4137 10.5686Z" fill="#373B4D"/>
</svg>
