<svg width="24" height="24" viewBox="0 0 24 24" fill="none" xmlns="http://www.w3.org/2000/svg">
<path fill-rule="evenodd" clip-rule="evenodd" d="M3 5C3 3.89543 3.89543 3 5 3H19C20.1046 3 21 3.89543 21 5V19C21 20.1046 20.1046 21 19 21H5C3.89543 21 3 20.1046 3 19V5ZM5.69995 11.2384V10.2H10.3384L9.92303 11.2384H8.60764V15.0461H7.43072V11.2384H5.69995ZM15.877 9.64619C15.9462 9.55388 16.0985 9.36926 16.1539 9.36926C16.2231 9.36926 17.5385 9.50772 17.4693 10.7539C17.4462 10.8 17.3585 10.92 17.1923 11.0308C17.2616 10.5693 17.0954 9.64619 15.877 9.64619ZM16.2856 8.53845C16.2039 8.53845 15.9791 8.83076 15.877 8.97691C17.6752 8.97691 17.9204 10.4385 17.8182 11.1692C18.0634 10.9938 18.1928 10.8038 18.2269 10.7308C18.3291 8.75768 16.3878 8.53845 16.2856 8.53845ZM10.9614 10.2V14.9769H12.1383V12.3461L13.4537 14.423H13.9383L15.2537 12.3461V14.9769H16.4307V10.2H15.323L13.7307 12.7615L12.1383 10.2H10.9614Z" fill="#414146"/>
</svg>
