<svg width="24" height="24" viewBox="0 0 24 24" fill="none" xmlns="http://www.w3.org/2000/svg">
<path fill-rule="evenodd" clip-rule="evenodd" d="M17.5633 11.6787C17.6998 12.7748 18.6991 13.5527 19.7952 13.4161C20.8913 13.2796 21.6691 12.2803 21.5326 11.1842L21.0029 6.9339C20.592 3.63617 17.5788 1.30054 14.2828 1.72481L9.82344 2.29883L11.396 2.11045C12.4927 1.97907 13.4883 2.76164 13.6197 3.85837C13.7408 4.8696 13.085 5.79484 12.1223 6.03593L14.7936 5.69208C15.8923 5.55066 16.8966 6.3292 17.0336 7.42844L17.5633 11.6787ZM10.3176 6.26822L8.22339 6.5191L8.22576 6.53749L10.3176 6.26822Z" fill="#414146"/>
<path d="M19.7952 13.4161L19.7643 13.168L19.7952 13.4161ZM17.5633 11.6787L17.8113 11.6478L17.5633 11.6787ZM21.5326 11.1842L21.2845 11.2151L21.5326 11.1842ZM21.0029 6.9339L20.7548 6.96482L21.0029 6.9339ZM14.2828 1.72481L14.3147 1.97277H14.3147L14.2828 1.72481ZM9.82344 2.29883L9.79152 2.05087C9.655 2.06845 9.55837 2.19306 9.57534 2.32965C9.59232 2.46625 9.71651 2.56342 9.85317 2.54705L9.82344 2.29883ZM11.396 2.11045L11.3663 1.86222H11.3663L11.396 2.11045ZM13.6197 3.85837L13.8679 3.82864V3.82864L13.6197 3.85837ZM12.1223 6.03593L12.0615 5.79342C11.9331 5.82558 11.852 5.95226 11.8766 6.08234C11.9012 6.21242 12.0229 6.30079 12.1542 6.28389L12.1223 6.03593ZM14.7936 5.69208L14.8255 5.94003H14.8255L14.7936 5.69208ZM17.0336 7.42844L16.7855 7.45936L17.0336 7.42844ZM8.22339 6.5191L8.19365 6.27087C8.12744 6.2788 8.06714 6.31286 8.02616 6.36547C7.98518 6.41808 7.96692 6.48488 7.97543 6.55102L8.22339 6.5191ZM10.3176 6.26822L10.3496 6.51618C10.4861 6.49861 10.5827 6.37399 10.5657 6.2374C10.5488 6.10081 10.4246 6.00363 10.2879 6.02L10.3176 6.26822ZM8.22576 6.53749L7.9778 6.56942C7.99543 6.70636 8.12073 6.80307 8.25767 6.78545L8.22576 6.53749ZM19.7643 13.168C18.8052 13.2875 17.9308 12.6069 17.8113 11.6478L17.3152 11.7097C17.4688 12.9428 18.593 13.8178 19.8261 13.6642L19.7643 13.168ZM21.2845 11.2151C21.404 12.1742 20.7234 13.0486 19.7643 13.168L19.8261 13.6642C21.0592 13.5106 21.9343 12.3864 21.7806 11.1533L21.2845 11.2151ZM20.7548 6.96482L21.2845 11.2151L21.7806 11.1533L21.251 6.90299L20.7548 6.96482ZM14.3147 1.97277C17.4734 1.56618 20.361 3.80448 20.7548 6.96482L21.251 6.90299C20.8229 3.46785 17.6843 1.03491 14.2509 1.47686L14.3147 1.97277ZM9.85535 2.54678L14.3147 1.97277L14.2509 1.47686L9.79152 2.05087L9.85535 2.54678ZM11.3663 1.86222L9.7937 2.0506L9.85317 2.54705L11.4257 2.35868L11.3663 1.86222ZM13.8679 3.82864C13.7201 2.59482 12.6001 1.71443 11.3663 1.86222L11.4257 2.35868C12.3854 2.24372 13.2565 2.92847 13.3715 3.88811L13.8679 3.82864ZM12.183 6.27844C13.2663 6.00715 14.0042 4.96646 13.8679 3.82864L13.3715 3.88811C13.4774 4.77274 12.9036 5.58252 12.0615 5.79342L12.183 6.27844ZM14.7617 5.44413L12.0903 5.78798L12.1542 6.28389L14.8255 5.94003L14.7617 5.44413ZM17.2817 7.39753C17.1276 6.16088 15.9977 5.28502 14.7617 5.44413L14.8255 5.94003C15.7868 5.81629 16.6657 6.49751 16.7855 7.45936L17.2817 7.39753ZM17.8113 11.6478L17.2817 7.39753L16.7855 7.45936L17.3152 11.7097L17.8113 11.6478ZM8.25312 6.76732L10.3474 6.51645L10.2879 6.02L8.19365 6.27087L8.25312 6.76732ZM8.47371 6.50557L8.47134 6.48717L7.97543 6.55102L7.9778 6.56942L8.47371 6.50557ZM10.2857 6.02027L8.19384 6.28954L8.25767 6.78545L10.3496 6.51618L10.2857 6.02027Z" fill="#FCFCFF"/>
<path fill-rule="evenodd" clip-rule="evenodd" d="M19.7951 13.4161C18.699 13.5526 17.6997 12.7748 17.5631 11.6787L17.4183 10.5164C17.4188 10.5848 17.4229 10.6539 17.4306 10.7234L17.9253 15.173C18.0432 16.2333 17.3081 17.1994 16.2547 17.3684L11.7779 18.0865C10.6873 18.2615 9.94519 19.2874 10.1203 20.3781C10.2955 21.4687 11.3216 22.2109 12.4122 22.036L16.8889 21.3178C20.0491 20.8108 22.2546 17.9126 21.9009 14.7316L21.5454 11.5344C21.4975 12.4857 20.773 13.2942 19.7951 13.4161Z" fill="#414146"/>
<path d="M17.5631 11.6787L17.8112 11.6478V11.6478L17.5631 11.6787ZM19.7951 13.4161L19.7642 13.168L19.7951 13.4161ZM17.4183 10.5164L17.6663 10.4854C17.65 10.354 17.5339 10.2582 17.4017 10.2669C17.2696 10.2756 17.1672 10.386 17.1683 10.5184L17.4183 10.5164ZM17.4306 10.7234L17.6791 10.6958V10.6958L17.4306 10.7234ZM17.9253 15.173L18.1738 15.1454L17.9253 15.173ZM16.2547 17.3684L16.2943 17.6152L16.2547 17.3684ZM11.7779 18.0865L11.8175 18.3334L11.7779 18.0865ZM10.1203 20.3781L10.3672 20.3384L10.1203 20.3781ZM12.4122 22.036L12.3726 21.7891L12.4122 22.036ZM16.8889 21.3178L16.9285 21.5647L16.8889 21.3178ZM21.9009 14.7316L21.6525 14.7592L21.9009 14.7316ZM21.5454 11.5344L21.7939 11.5067C21.7795 11.3773 21.6681 11.2805 21.5379 11.2845C21.4077 11.2884 21.3023 11.3917 21.2957 11.5218L21.5454 11.5344ZM17.315 11.7096C17.4687 12.9427 18.5929 13.8178 19.826 13.6642L19.7642 13.168C18.8051 13.2875 17.9307 12.6069 17.8112 11.6478L17.315 11.7096ZM17.1702 10.5473L17.315 11.7096L17.8112 11.6478L17.6663 10.4854L17.1702 10.5473ZM17.6791 10.6958C17.6723 10.6348 17.6687 10.5742 17.6682 10.5143L17.1683 10.5184C17.1689 10.5954 17.1735 10.673 17.1821 10.7511L17.6791 10.6958ZM18.1738 15.1454L17.6791 10.6958L17.1821 10.7511L17.6769 15.2006L18.1738 15.1454ZM16.2943 17.6152C17.4794 17.4251 18.3065 16.3383 18.1738 15.1454L17.6769 15.2006C17.78 16.1284 17.1368 16.9737 16.2151 17.1215L16.2943 17.6152ZM11.8175 18.3334L16.2943 17.6152L16.2151 17.1215L11.7383 17.8397L11.8175 18.3334ZM10.3672 20.3384C10.2139 19.3841 10.8633 18.4865 11.8175 18.3334L11.7383 17.8397C10.5114 18.0365 9.67645 19.1908 9.87349 20.4177L10.3672 20.3384ZM12.3726 21.7891C11.4183 21.9422 10.5204 21.2927 10.3672 20.3384L9.87349 20.4177C10.0705 21.6446 11.2248 22.4796 12.4518 22.2828L12.3726 21.7891ZM16.8493 21.071L12.3726 21.7891L12.4518 22.2828L16.9285 21.5647L16.8493 21.071ZM21.6525 14.7592C21.9914 17.8077 19.8778 20.5851 16.8493 21.071L16.9285 21.5647C20.2204 21.0366 22.5178 18.0176 22.1494 14.704L21.6525 14.7592ZM21.297 11.562L21.6525 14.7592L22.1494 14.704L21.7939 11.5067L21.297 11.562ZM19.826 13.6642C20.9264 13.5271 21.7412 12.6174 21.7951 11.5469L21.2957 11.5218C21.2539 12.354 20.6196 13.0614 19.7642 13.168L19.826 13.6642Z" fill="#FCFCFF"/>
<path fill-rule="evenodd" clip-rule="evenodd" d="M11.5181 18.1461C10.5723 18.4296 9.95961 19.3766 10.1204 20.3781C10.2853 21.4049 11.2045 22.1229 12.2216 22.0575L12.225 22.1079L9.15011 22.3127C5.96158 22.5252 3.16606 20.2012 2.79243 17.0275L2.32116 13.0246C2.19201 11.9276 2.97661 10.9336 4.0736 10.8044C5.17059 10.6753 6.16458 11.4599 6.29373 12.5569L6.76499 16.5598C6.88954 17.6177 7.82137 18.3924 8.88422 18.3216L11.5181 18.1461Z" fill="#414146"/>
<path d="M11.5181 18.1461L11.5899 18.3856C11.7117 18.349 11.7867 18.2268 11.7641 18.1016C11.7414 17.9764 11.6284 17.8882 11.5014 17.8967L11.5181 18.1461ZM10.1204 20.3781L9.87361 20.4178L10.1204 20.3781ZM12.2216 22.0575L12.4711 22.0408C12.4619 21.9033 12.3431 21.7991 12.2056 21.808L12.2216 22.0575ZM12.225 22.1079L12.2416 22.3573C12.3078 22.3529 12.3695 22.3224 12.4131 22.2725C12.4568 22.2226 12.4789 22.1574 12.4744 22.0913L12.225 22.1079ZM9.15011 22.3127L9.13349 22.0633L9.15011 22.3127ZM2.79243 17.0275L2.54414 17.0568L2.79243 17.0275ZM2.32116 13.0246L2.56945 12.9953L2.32116 13.0246ZM4.0736 10.8044L4.04437 10.5562L4.04437 10.5562L4.0736 10.8044ZM6.29373 12.5569L6.54201 12.5276L6.29373 12.5569ZM6.76499 16.5598L6.51671 16.5891L6.76499 16.5598ZM8.88422 18.3216L8.90084 18.571L8.88422 18.3216ZM11.4463 17.9066C10.382 18.2257 9.69264 19.2909 9.87361 20.4178L10.3673 20.3385C10.2266 19.4624 10.7626 18.6336 11.5899 18.3856L11.4463 17.9066ZM9.87361 20.4178C10.0591 21.573 11.0932 22.3806 12.2377 22.3069L12.2056 21.808C11.3158 21.8652 10.5115 21.2368 10.3673 20.3385L9.87361 20.4178ZM11.9722 22.0741L11.9756 22.1245L12.4744 22.0913L12.4711 22.0408L11.9722 22.0741ZM12.2084 21.8584L9.13349 22.0633L9.16673 22.5622L12.2416 22.3573L12.2084 21.8584ZM9.13349 22.0633C6.07782 22.2669 3.39878 20.0398 3.04071 16.9983L2.54414 17.0568C2.93335 20.3627 5.84534 22.7835 9.16673 22.5622L9.13349 22.0633ZM3.04071 16.9983L2.56945 12.9953L2.07288 13.0538L2.54414 17.0568L3.04071 16.9983ZM2.56945 12.9953C2.45644 12.0355 3.14296 11.1657 4.10283 11.0527L4.04437 10.5562C2.81025 10.7014 1.92758 11.8197 2.07288 13.0538L2.56945 12.9953ZM4.10283 11.0527C5.0627 10.9397 5.93244 11.6262 6.04544 12.5861L6.54201 12.5276C6.39672 11.2935 5.27849 10.4109 4.04437 10.5562L4.10283 11.0527ZM6.04544 12.5861L6.51671 16.5891L7.01328 16.5306L6.54201 12.5276L6.04544 12.5861ZM6.51671 16.5891C6.65682 17.7792 7.70514 18.6507 8.90084 18.571L8.8676 18.0721C7.93761 18.1341 7.12225 17.4563 7.01328 16.5306L6.51671 16.5891ZM8.90084 18.571L11.5347 18.3956L11.5014 17.8967L8.8676 18.0721L8.90084 18.571Z" fill="#FCFCFF"/>
<path fill-rule="evenodd" clip-rule="evenodd" d="M11.8717 6.08207C12.9684 5.95069 13.751 4.95512 13.6196 3.85839C13.4882 2.76166 12.4927 1.97909 11.3959 2.11046L7.35144 2.59496C4.20128 2.97231 1.8894 5.73691 2.07542 8.90414L2.31057 12.9079L2.31061 12.9079C2.24803 11.8579 3.01543 10.929 4.07339 10.8044C5.17038 10.6753 6.16437 11.4599 6.29352 12.5569L6.30016 12.6133L6.06854 8.66962C6.00653 7.61388 6.77716 6.69235 7.82721 6.56656L11.8717 6.08207Z" fill="#414146"/>
<path d="M13.6196 3.85839L13.8678 3.82865V3.82865L13.6196 3.85839ZM11.8717 6.08207L11.842 5.83384L11.8717 6.08207ZM11.3959 2.11046L11.3662 1.86224L11.3959 2.11046ZM7.35144 2.59496L7.3217 2.34673L7.35144 2.59496ZM2.07542 8.90414L2.32499 8.88948L2.07542 8.90414ZM2.31057 12.9079L2.061 12.9226C2.06904 13.0594 2.18575 13.1642 2.32266 13.1576L2.31057 12.9079ZM2.31061 12.9079L2.3227 13.1576C2.38941 13.1544 2.45205 13.1246 2.49666 13.0749C2.54127 13.0252 2.56414 12.9597 2.56017 12.893L2.31061 12.9079ZM4.07339 10.8044L4.10262 11.0527L4.07339 10.8044ZM6.29352 12.5569L6.5418 12.5276V12.5276L6.29352 12.5569ZM6.30016 12.6133L6.05188 12.6425C6.06769 12.7768 6.18741 12.8742 6.32211 12.8624C6.45681 12.8505 6.55766 12.7337 6.54973 12.5987L6.30016 12.6133ZM6.06854 8.66962L6.31811 8.65496L6.06854 8.66962ZM7.82721 6.56656L7.85694 6.81479L7.82721 6.56656ZM13.3714 3.88812C13.4864 4.84776 12.8016 5.71889 11.842 5.83384L11.9014 6.3303C13.1353 6.1825 14.0156 5.06247 13.8678 3.82865L13.3714 3.88812ZM11.4257 2.35869C12.3853 2.24373 13.2564 2.92848 13.3714 3.88812L13.8678 3.82865C13.72 2.59483 12.6 1.71444 11.3662 1.86224L11.4257 2.35869ZM7.38117 2.84318L11.4257 2.35869L11.3662 1.86224L7.3217 2.34673L7.38117 2.84318ZM2.32499 8.88948C2.14672 5.85422 4.36227 3.20482 7.38117 2.84318L7.3217 2.34673C4.04028 2.73981 1.63208 5.6196 1.82585 8.91879L2.32499 8.88948ZM2.56014 12.8932L2.32499 8.88948L1.82585 8.91879L2.061 12.9226L2.56014 12.8932ZM2.29852 12.6582L2.29848 12.6582L2.32266 13.1576L2.3227 13.1576L2.29852 12.6582ZM2.56017 12.893C2.50542 11.9745 3.17699 11.1617 4.10262 11.0527L4.04416 10.5562C2.85386 10.6963 1.99063 11.7413 2.06105 12.9228L2.56017 12.893ZM4.10262 11.0527C5.06249 10.9397 5.93223 11.6262 6.04523 12.5861L6.5418 12.5276C6.39651 11.2935 5.27828 10.4109 4.04416 10.5562L4.10262 11.0527ZM6.04523 12.5861L6.05188 12.6425L6.54845 12.5841L6.5418 12.5276L6.04523 12.5861ZM5.81897 8.68428L6.05059 12.628L6.54973 12.5987L6.31811 8.65496L5.81897 8.68428ZM7.79747 6.31834C6.61616 6.45985 5.74921 7.49657 5.81897 8.68428L6.31811 8.65496C6.26385 7.73119 6.93815 6.92485 7.85694 6.81479L7.79747 6.31834ZM11.842 5.83384L7.79747 6.31834L7.85694 6.81479L11.9014 6.3303L11.842 5.83384Z" fill="#FCFCFF"/>
</svg>
