<svg width="20" height="20" viewBox="0 0 20 20" fill="none" xmlns="http://www.w3.org/2000/svg">
<path fill-rule="evenodd" clip-rule="evenodd" d="M18.8287 11.7565L17.5044 11.4945C17.5998 11.0122 17.65 10.5126 17.65 10C17.65 9.48736 17.5998 8.9878 17.5044 8.50553L18.8287 8.24354C18.9411 8.81163 19 9.39893 19 10C19 10.6011 18.9411 11.1884 18.8287 11.7565ZM17.4841 4.99946L16.3623 5.75049C15.8034 4.91566 15.0843 4.19662 14.2495 3.63772L15.0005 2.51591C15.982 3.17298 16.827 4.018 17.4841 4.99946ZM11.7565 1.17131L11.4945 2.49564C11.0122 2.40023 10.5126 2.35 10 2.35C9.48736 2.35 8.9878 2.40023 8.50553 2.49564L8.24354 1.17131C8.81163 1.05892 9.39893 1 10 1C10.6011 1 11.1884 1.05892 11.7565 1.17131ZM4.99946 2.51591L5.75049 3.63772C4.91566 4.19662 4.19662 4.91567 3.63772 5.75049L2.51591 4.99946C3.17298 4.018 4.018 3.17298 4.99946 2.51591ZM1.17131 8.24354C1.05892 8.81163 1 9.39893 1 10C1 10.6011 1.05892 11.1884 1.17131 11.7565L2.49564 11.4945C2.40023 11.0122 2.35 10.5126 2.35 10C2.35 9.48736 2.40023 8.9878 2.49564 8.50554L1.17131 8.24354ZM2.51591 15.0005L3.63772 14.2495C4.19662 15.0843 4.91567 15.8034 5.75049 16.3623L4.99946 17.4841C4.018 16.827 3.17298 15.982 2.51591 15.0005ZM8.24354 18.8287L8.50554 17.5044C8.9878 17.5998 9.48736 17.65 10 17.65C10.5126 17.65 11.0122 17.5998 11.4945 17.5044L11.7565 18.8287C11.1884 18.9411 10.6011 19 10 19C9.39893 19 8.81163 18.9411 8.24354 18.8287ZM15.0005 17.4841C15.982 16.827 16.827 15.982 17.4841 15.0005L16.3623 14.2495C15.8034 15.0843 15.0843 15.8034 14.2495 16.3623L15.0005 17.4841Z" fill="#EDEDF0"/>
</svg>
