<svg xmlns="http://www.w3.org/2000/svg" width="24" height="24" viewBox="0 0 24 24" fill="none">
<path d="M5.98713 14.7518L7.73955 3.34913C7.80011 2.96026 8.31384 2.86838 8.49517 3.21601L10.3787 6.7954L5.98713 14.7518ZM18.5 17.4001L16.7738 7.0204C16.7613 6.94621 16.729 6.87691 16.6805 6.82C16.6319 6.7631 16.569 6.72077 16.4985 6.6976C16.4279 6.67442 16.3525 6.67128 16.2803 6.68852C16.2082 6.70576 16.142 6.74272 16.0891 6.7954L5.5 17.4001L11.3855 20.8467C11.5661 20.9473 11.7687 21 11.9747 21C12.1807 21 12.3833 20.9473 12.5639 20.8467L18.5 17.4001ZM13.7122 8.3599L12.3627 5.75214C12.3291 5.68515 12.278 5.6289 12.2149 5.5896C12.1518 5.55031 12.0792 5.52951 12.0052 5.52951C11.9312 5.52951 11.8586 5.55031 11.7955 5.5896C11.7324 5.6289 11.6812 5.68515 11.6477 5.75214L5.71531 16.4903L13.7122 8.3599Z" fill="#C3C3C6"/>
</svg>