<svg xmlns="http://www.w3.org/2000/svg" width="24" height="24" viewBox="0 0 24 24" fill="none">
  <path fill-rule="evenodd" clip-rule="evenodd" d="M2 10.2906V18.2389C2 18.775 2.42274 19.2157 2.95837 19.238L20.2037 19.9566C20.7718 19.9803 21.2453 19.5261 21.2453 18.9575V4.39842C21.2453 3.71272 20.5708 3.23043 19.922 3.45213L2.67668 9.34427C2.27198 9.48255 2 9.86288 2 10.2906ZM18.038 8.35506C18.2497 8.17779 18.2777 7.86244 18.1004 7.65071C17.9231 7.43898 17.6078 7.41103 17.396 7.5883L10.7069 13.1885L4.06926 11.1818C3.80493 11.1018 3.52587 11.2513 3.44595 11.5157C3.36604 11.78 3.51554 12.0591 3.77987 12.139L10.6761 14.2239L10.9346 14.302L11.1418 14.1286L18.038 8.35506Z" fill="#C3C3C6"/>
</svg>
