<svg xmlns="http://www.w3.org/2000/svg" width="24" height="24" viewBox="0 0 24 24" fill="none">
  <path d="M11.6 9.53333C11.6 10.6667 10.6667 11.6 9.53333 11.6C8.4 11.6 7.46667 10.6667 7.46667 9.53333C7.46667 8.4 8.4 7.46667 9.53333 7.46667C10.6667 7.46667 11.6 8.4 11.6 9.53333ZM9.53333 12.4C8.4 12.4 7.46667 13.3333 7.46667 14.4667C7.46667 15.6 8.4 16.5333 9.53333 16.5333C10.6667 16.5333 11.6 15.6 11.6 14.4667C11.6 13.3333 10.6667 12.4 9.53333 12.4ZM22 12C22 17.5333 17.5333 22 12 22C6.46667 22 2 17.5333 2 12C2 6.46667 6.46667 2 12 2C17.5333 2 22 6.46667 22 12ZM19.3333 12C19.3333 7.93333 16.0667 4.66667 12 4.66667C7.93333 4.66667 4.66667 7.93333 4.66667 12C4.66667 16.0667 7.93333 19.3333 12 19.3333C16.0667 19.3333 19.3333 16.0667 19.3333 12ZM14.4667 12.4C13.3333 12.4 12.4 13.3333 12.4 14.4667C12.4 15.6 13.3333 16.5333 14.4667 16.5333C15.6 16.5333 16.5333 15.6 16.5333 14.4667C16.5333 13.3333 15.6 12.4 14.4667 12.4ZM14.4667 7.46667C13.3333 7.46667 12.4 8.4 12.4 9.53333C12.4 10.6667 13.3333 11.6 14.4667 11.6C15.6 11.6 16.5333 10.6667 16.5333 9.53333C16.5333 8.4 15.6 7.46667 14.4667 7.46667Z" fill="#C3C3C6"/>
</svg>
