<svg width="24" height="24" viewBox="0 0 24 24" fill="none" xmlns="http://www.w3.org/2000/svg">
<path fill-rule="evenodd" clip-rule="evenodd" d="M17.5633 11.6787C17.6998 12.7748 18.6991 13.5526 19.7952 13.4161C20.8913 13.2795 21.6691 12.2802 21.5326 11.1841L21.0029 6.93384C20.592 3.63611 17.5788 1.30048 14.2828 1.72475L9.82344 2.29877L11.396 2.11039C12.4927 1.97901 13.4883 2.76158 13.6197 3.85831C13.7408 4.86954 13.085 5.79477 12.1223 6.03587L14.7936 5.69202C15.8923 5.5506 16.8966 6.32914 17.0336 7.42838L17.5633 11.6787ZM10.3176 6.26816L8.22339 6.51904L8.22576 6.53743L10.3176 6.26816Z" fill="#C3C3C6"/>
<path d="M19.7952 13.4161L19.7643 13.168L19.7952 13.4161ZM17.5633 11.6787L17.8113 11.6478L17.5633 11.6787ZM21.5326 11.1841L21.2845 11.2151L21.5326 11.1841ZM21.0029 6.93384L20.7548 6.96476L21.0029 6.93384ZM14.2828 1.72475L14.3147 1.97271V1.97271L14.2828 1.72475ZM9.82344 2.29877L9.79152 2.05081C9.655 2.06838 9.55837 2.193 9.57534 2.32959C9.59232 2.46618 9.71651 2.56336 9.85317 2.54699L9.82344 2.29877ZM11.396 2.11039L11.3663 1.86216L11.396 2.11039ZM13.6197 3.85831L13.8679 3.82858V3.82858L13.6197 3.85831ZM12.1223 6.03587L12.0615 5.79336C11.9331 5.82552 11.852 5.9522 11.8766 6.08228C11.9012 6.21235 12.0229 6.30073 12.1542 6.28383L12.1223 6.03587ZM14.7936 5.69202L14.8255 5.93997L14.7936 5.69202ZM17.0336 7.42838L16.7855 7.4593L17.0336 7.42838ZM8.22339 6.51904L8.19365 6.27081C8.12744 6.27874 8.06714 6.3128 8.02616 6.36541C7.98518 6.41802 7.96692 6.48482 7.97544 6.55096L8.22339 6.51904ZM10.3176 6.26816L10.3496 6.51612C10.4861 6.49855 10.5827 6.37393 10.5657 6.23734C10.5488 6.10075 10.4246 6.00357 10.2879 6.01994L10.3176 6.26816ZM8.22576 6.53743L7.9778 6.56936C7.99543 6.70629 8.12073 6.80301 8.25767 6.78539L8.22576 6.53743ZM19.7643 13.168C18.8052 13.2875 17.9308 12.6069 17.8113 11.6478L17.3152 11.7096C17.4688 12.9427 18.593 13.8178 19.8261 13.6642L19.7643 13.168ZM21.2845 11.2151C21.404 12.1741 20.7234 13.0485 19.7643 13.168L19.8261 13.6642C21.0592 13.5105 21.9343 12.3863 21.7806 11.1532L21.2845 11.2151ZM20.7548 6.96476L21.2845 11.2151L21.7806 11.1532L21.251 6.90293L20.7548 6.96476ZM14.3147 1.97271C17.4734 1.56612 20.361 3.80442 20.7548 6.96476L21.251 6.90293C20.8229 3.46779 17.6843 1.03485 14.2509 1.4768L14.3147 1.97271ZM9.85535 2.54672L14.3147 1.97271L14.2509 1.4768L9.79152 2.05081L9.85535 2.54672ZM11.3663 1.86216L9.7937 2.05054L9.85317 2.54699L11.4257 2.35861L11.3663 1.86216ZM13.8679 3.82858C13.7201 2.59476 12.6001 1.71436 11.3663 1.86216L11.4257 2.35861C12.3854 2.24366 13.2565 2.92841 13.3715 3.88805L13.8679 3.82858ZM12.183 6.27838C13.2663 6.00708 14.0042 4.9664 13.8679 3.82858L13.3715 3.88805C13.4774 4.77268 12.9036 5.58246 12.0615 5.79336L12.183 6.27838ZM14.7617 5.44406L12.0903 5.78792L12.1542 6.28383L14.8255 5.93997L14.7617 5.44406ZM17.2817 7.39747C17.1276 6.16082 15.9977 5.28496 14.7617 5.44406L14.8255 5.93997C15.7868 5.81623 16.6657 6.49745 16.7855 7.4593L17.2817 7.39747ZM17.8113 11.6478L17.2817 7.39747L16.7855 7.4593L17.3152 11.7096L17.8113 11.6478ZM8.25312 6.76726L10.3474 6.51639L10.2879 6.01994L8.19365 6.27081L8.25312 6.76726ZM8.47371 6.50551L8.47134 6.48711L7.97544 6.55096L7.9778 6.56936L8.47371 6.50551ZM10.2857 6.02021L8.19384 6.28948L8.25767 6.78539L10.3496 6.51612L10.2857 6.02021Z" fill="#14141F"/>
<path fill-rule="evenodd" clip-rule="evenodd" d="M19.7951 13.416C18.699 13.5526 17.6997 12.7747 17.5631 11.6786L17.4183 10.5163C17.4188 10.5848 17.4229 10.6538 17.4306 10.7234L17.9253 15.1729C18.0432 16.2333 17.3081 17.1993 16.2547 17.3683L11.7779 18.0865C10.6873 18.2614 9.94519 19.2874 10.1203 20.378C10.2955 21.4686 11.3216 22.2109 12.4122 22.0359L16.8889 21.3177C20.0491 20.8108 22.2546 17.9126 21.9009 14.7315L21.5454 11.5343C21.4975 12.4856 20.773 13.2942 19.7951 13.416Z" fill="#C3C3C6"/>
<path d="M17.5631 11.6786L17.8112 11.6477V11.6477L17.5631 11.6786ZM19.7951 13.416L19.7642 13.1679L19.7951 13.416ZM17.4183 10.5163L17.6663 10.4854C17.65 10.3539 17.5339 10.2581 17.4017 10.2668C17.2696 10.2756 17.1672 10.3859 17.1683 10.5183L17.4183 10.5163ZM17.4306 10.7234L17.6791 10.6957V10.6957L17.4306 10.7234ZM17.9253 15.1729L18.1738 15.1453L17.9253 15.1729ZM16.2547 17.3683L16.2943 17.6152L16.2547 17.3683ZM11.7779 18.0865L11.8175 18.3333L11.7779 18.0865ZM10.1203 20.378L10.3672 20.3384L10.1203 20.378ZM12.4122 22.0359L12.3726 21.7891L12.4122 22.0359ZM16.8889 21.3177L16.9285 21.5646L16.8889 21.3177ZM21.9009 14.7315L21.6525 14.7592L21.9009 14.7315ZM21.5454 11.5343L21.7939 11.5067C21.7795 11.3772 21.6681 11.2805 21.5379 11.2844C21.4077 11.2884 21.3023 11.3916 21.2957 11.5217L21.5454 11.5343ZM17.315 11.7095C17.4687 12.9426 18.5929 13.8177 19.826 13.6641L19.7642 13.1679C18.8051 13.2874 17.9307 12.6068 17.8112 11.6477L17.315 11.7095ZM17.1702 10.5472L17.315 11.7095L17.8112 11.6477L17.6663 10.4854L17.1702 10.5472ZM17.6791 10.6957C17.6723 10.6347 17.6687 10.5742 17.6682 10.5143L17.1683 10.5183C17.1689 10.5953 17.1735 10.673 17.1821 10.751L17.6791 10.6957ZM18.1738 15.1453L17.6791 10.6957L17.1821 10.751L17.6769 15.2005L18.1738 15.1453ZM16.2943 17.6152C17.4794 17.4251 18.3065 16.3382 18.1738 15.1453L17.6769 15.2005C17.78 16.1283 17.1368 16.9736 16.2151 17.1215L16.2943 17.6152ZM11.8175 18.3333L16.2943 17.6152L16.2151 17.1215L11.7383 17.8396L11.8175 18.3333ZM10.3672 20.3384C10.2139 19.3841 10.8633 18.4864 11.8175 18.3333L11.7383 17.8396C10.5114 18.0365 9.67645 19.1907 9.87349 20.4176L10.3672 20.3384ZM12.3726 21.7891C11.4183 21.9422 10.5204 21.2927 10.3672 20.3384L9.87349 20.4176C10.0705 21.6445 11.2248 22.4796 12.4518 22.2828L12.3726 21.7891ZM16.8493 21.0709L12.3726 21.7891L12.4518 22.2828L16.9285 21.5646L16.8493 21.0709ZM21.6525 14.7592C21.9914 17.8076 19.8778 20.5851 16.8493 21.0709L16.9285 21.5646C20.2204 21.0365 22.5178 18.0175 22.1494 14.7039L21.6525 14.7592ZM21.297 11.5619L21.6525 14.7592L22.1494 14.7039L21.7939 11.5067L21.297 11.5619ZM19.826 13.6641C20.9264 13.527 21.7412 12.6173 21.7951 11.5469L21.2957 11.5217C21.2539 12.354 20.6196 13.0614 19.7642 13.1679L19.826 13.6641Z" fill="#14141F"/>
<path fill-rule="evenodd" clip-rule="evenodd" d="M11.5181 18.1461C10.5723 18.4296 9.95961 19.3766 10.1204 20.3781C10.2853 21.4049 11.2045 22.1229 12.2216 22.0575L12.225 22.1079L9.15011 22.3127C5.96158 22.5252 3.16606 20.2012 2.79243 17.0275L2.32116 13.0246C2.19201 11.9276 2.97661 10.9336 4.0736 10.8044C5.17059 10.6753 6.16458 11.4599 6.29373 12.5569L6.76499 16.5598C6.88954 17.6177 7.82137 18.3924 8.88422 18.3216L11.5181 18.1461Z" fill="#C3C3C6"/>
<path d="M11.5181 18.1461L11.5899 18.3856C11.7117 18.349 11.7867 18.2268 11.7641 18.1016C11.7414 17.9764 11.6284 17.8882 11.5014 17.8967L11.5181 18.1461ZM10.1204 20.3781L9.87361 20.4178L10.1204 20.3781ZM12.2216 22.0575L12.4711 22.0408C12.4619 21.9033 12.3431 21.7991 12.2056 21.808L12.2216 22.0575ZM12.225 22.1079L12.2416 22.3573C12.3078 22.3529 12.3695 22.3224 12.4131 22.2725C12.4568 22.2226 12.4789 22.1574 12.4744 22.0913L12.225 22.1079ZM9.15011 22.3127L9.13349 22.0633L9.15011 22.3127ZM2.79243 17.0275L2.54414 17.0568L2.79243 17.0275ZM2.32116 13.0246L2.56945 12.9953L2.32116 13.0246ZM4.0736 10.8044L4.04437 10.5562L4.0736 10.8044ZM6.29373 12.5569L6.54201 12.5276L6.29373 12.5569ZM6.76499 16.5598L6.51671 16.5891L6.76499 16.5598ZM8.88422 18.3216L8.90084 18.571L8.88422 18.3216ZM11.4463 17.9066C10.382 18.2257 9.69264 19.2909 9.87361 20.4178L10.3673 20.3385C10.2266 19.4624 10.7626 18.6336 11.5899 18.3856L11.4463 17.9066ZM9.87361 20.4178C10.0591 21.573 11.0932 22.3806 12.2377 22.3069L12.2056 21.808C11.3158 21.8652 10.5115 21.2368 10.3673 20.3385L9.87361 20.4178ZM11.9722 22.0741L11.9756 22.1245L12.4744 22.0913L12.4711 22.0408L11.9722 22.0741ZM12.2084 21.8584L9.13349 22.0633L9.16673 22.5622L12.2416 22.3573L12.2084 21.8584ZM9.13349 22.0633C6.07782 22.2669 3.39878 20.0398 3.04071 16.9983L2.54414 17.0568C2.93335 20.3627 5.84534 22.7835 9.16673 22.5622L9.13349 22.0633ZM3.04071 16.9983L2.56945 12.9953L2.07288 13.0538L2.54414 17.0568L3.04071 16.9983ZM2.56945 12.9953C2.45644 12.0355 3.14296 11.1657 4.10283 11.0527L4.04437 10.5562C2.81025 10.7014 1.92758 11.8197 2.07288 13.0538L2.56945 12.9953ZM4.10283 11.0527C5.0627 10.9397 5.93244 11.6262 6.04544 12.5861L6.54201 12.5276C6.39672 11.2935 5.27849 10.4109 4.04437 10.5562L4.10283 11.0527ZM6.04544 12.5861L6.51671 16.5891L7.01328 16.5306L6.54201 12.5276L6.04544 12.5861ZM6.51671 16.5891C6.65682 17.7792 7.70514 18.6507 8.90084 18.571L8.8676 18.0721C7.93761 18.1341 7.12225 17.4563 7.01328 16.5306L6.51671 16.5891ZM8.90084 18.571L11.5347 18.3956L11.5014 17.8967L8.8676 18.0721L8.90084 18.571Z" fill="#14141F"/>
<path fill-rule="evenodd" clip-rule="evenodd" d="M11.8717 6.08207C12.9684 5.95069 13.751 4.95512 13.6196 3.85839C13.4882 2.76166 12.4927 1.97909 11.3959 2.11046L7.35144 2.59496C4.20128 2.97231 1.8894 5.73691 2.07542 8.90414L2.31057 12.9079L2.31061 12.9079C2.24803 11.8579 3.01543 10.929 4.07339 10.8044C5.17038 10.6753 6.16437 11.4599 6.29352 12.5569L6.30016 12.6133L6.06854 8.66962C6.00653 7.61388 6.77716 6.69235 7.82721 6.56656L11.8717 6.08207Z" fill="#C3C3C6"/>
<path d="M13.6196 3.85839L13.8678 3.82865V3.82865L13.6196 3.85839ZM11.8717 6.08207L11.842 5.83384L11.8717 6.08207ZM11.3959 2.11046L11.3662 1.86224L11.3959 2.11046ZM7.35144 2.59496L7.3217 2.34673L7.35144 2.59496ZM2.07542 8.90414L2.32499 8.88948L2.07542 8.90414ZM2.31057 12.9079L2.061 12.9226C2.06904 13.0594 2.18575 13.1642 2.32266 13.1576L2.31057 12.9079ZM2.31061 12.9079L2.3227 13.1576C2.38941 13.1544 2.45205 13.1246 2.49666 13.0749C2.54127 13.0252 2.56414 12.9597 2.56017 12.893L2.31061 12.9079ZM4.07339 10.8044L4.10262 11.0527L4.07339 10.8044ZM6.29352 12.5569L6.5418 12.5276L6.29352 12.5569ZM6.30016 12.6133L6.05188 12.6425C6.06769 12.7768 6.18741 12.8742 6.32211 12.8624C6.45681 12.8505 6.55766 12.7337 6.54973 12.5987L6.30016 12.6133ZM6.06854 8.66962L6.31811 8.65496L6.06854 8.66962ZM7.82721 6.56656L7.85694 6.81479L7.82721 6.56656ZM13.3714 3.88812C13.4864 4.84776 12.8016 5.71889 11.842 5.83384L11.9014 6.3303C13.1353 6.1825 14.0156 5.06247 13.8678 3.82865L13.3714 3.88812ZM11.4257 2.35869C12.3853 2.24373 13.2564 2.92848 13.3714 3.88812L13.8678 3.82865C13.72 2.59483 12.6 1.71444 11.3662 1.86224L11.4257 2.35869ZM7.38117 2.84318L11.4257 2.35869L11.3662 1.86224L7.3217 2.34673L7.38117 2.84318ZM2.32499 8.88948C2.14672 5.85422 4.36227 3.20482 7.38117 2.84318L7.3217 2.34673C4.04028 2.73981 1.63208 5.6196 1.82585 8.91879L2.32499 8.88948ZM2.56014 12.8932L2.32499 8.88948L1.82585 8.91879L2.061 12.9226L2.56014 12.8932ZM2.29852 12.6582L2.29848 12.6582L2.32266 13.1576L2.3227 13.1576L2.29852 12.6582ZM2.56017 12.893C2.50542 11.9745 3.17699 11.1617 4.10262 11.0527L4.04416 10.5562C2.85386 10.6963 1.99063 11.7413 2.06105 12.9228L2.56017 12.893ZM4.10262 11.0527C5.06249 10.9397 5.93223 11.6262 6.04523 12.5861L6.5418 12.5276C6.39651 11.2935 5.27828 10.4109 4.04416 10.5562L4.10262 11.0527ZM6.04523 12.5861L6.05188 12.6425L6.54845 12.5841L6.5418 12.5276L6.04523 12.5861ZM5.81897 8.68428L6.05059 12.628L6.54973 12.5987L6.31811 8.65496L5.81897 8.68428ZM7.79747 6.31834C6.61616 6.45985 5.74921 7.49657 5.81897 8.68428L6.31811 8.65496C6.26385 7.73119 6.93815 6.92485 7.85694 6.81479L7.79747 6.31834ZM11.842 5.83384L7.79747 6.31834L7.85694 6.81479L11.9014 6.3303L11.842 5.83384Z" fill="#14141F"/>
</svg>
