<?xml version="1.0" encoding="UTF-8"?>
<svg version="1.1" xmlns="http://www.w3.org/2000/svg" width="100" height="100">
<path d="M0 0 C9.76185348 10.00701419 11.05387356 21.51059802 12.8984375 35.00390625 C13.07568359 36.23109375 13.25292969 37.45828125 13.43554688 38.72265625 C15.00704811 49.93552991 15.49480641 58.83855963 9.8984375 69.06640625 C-0.59886544 81.96309272 -17.82975927 82.69771081 -33.2890625 84.75390625 C-43.43476356 85.78301269 -53.88140937 86.45639278 -62.2890625 79.75390625 C-74.85295685 68.4032635 -75.76075035 46.7538058 -76.75 30.90625 C-76.80086233 29.25173746 -76.83613591 27.59662851 -76.8515625 25.94140625 C-76.87319458 24.85230957 -76.87319458 24.85230957 -76.89526367 23.74121094 C-76.77287696 17.37710212 -74.48731651 12.42252903 -70.5 7.58203125 C-69.89414063 7.06125 -69.28828125 6.54046875 -68.6640625 6.00390625 C-68.07367188 5.4728125 -67.48328125 4.94171875 -66.875 4.39453125 C-59.1224759 -0.52398857 -50.7569311 -2.14548171 -41.7890625 -3.43359375 C-40.72558594 -3.59794922 -39.66210938 -3.76230469 -38.56640625 -3.93164062 C-9.51817943 -8.33342714 -9.51817943 -8.33342714 0 0 Z M-36.04785156 15.64990234 C-38.17782418 16.00620833 -40.31080245 16.33616501 -42.4453125 16.6640625 C-43.80754493 16.88516399 -45.1695348 17.10776628 -46.53125 17.33203125 C-47.7569873 17.5321582 -48.98272461 17.73228516 -50.24560547 17.93847656 C-53.2946722 18.75540925 -54.44199709 19.26531191 -56.2890625 21.75390625 C-59.71131004 28.59840133 -56.21112845 38.93562553 -54.9140625 46.00390625 C-54.69234375 47.26976562 -54.470625 48.535625 -54.2421875 49.83984375 C-53.15198648 57.09665306 -53.15198648 57.09665306 -50.2890625 63.75390625 C-43.26722555 67.26482472 -31.92567219 64.47242436 -24.4140625 63.44140625 C-23.52291748 63.3237793 -22.63177246 63.20615234 -21.71362305 63.08496094 C-16.46326311 62.31515097 -11.96242952 61.32242781 -7.2890625 58.75390625 C-5.19629473 55.63726204 -5.12507642 53.45007769 -5.546875 49.77734375 C-5.71171387 48.32279785 -5.71171387 48.32279785 -5.87988281 46.83886719 C-6.56529304 41.67129941 -7.32064636 36.52310088 -8.1640625 31.37890625 C-8.32519531 30.32574219 -8.48632812 29.27257812 -8.65234375 28.1875 C-8.90177734 26.66189453 -8.90177734 26.66189453 -9.15625 25.10546875 C-9.30175293 24.19619629 -9.44725586 23.28692383 -9.59716797 22.35009766 C-10.39542136 19.35481657 -11.4351568 17.23868516 -13.2890625 14.75390625 C-20.88787143 12.79395976 -28.43634497 14.36712396 -36.04785156 15.64990234 Z " fill="#5B5B5B" transform="translate(81.2890625,10.24609375)"/>
<path d="M0 0 C-0.33 0.66 -0.66 1.32 -1 2 C-3.36682395 2.62379093 -5.66027032 3.12724282 -8.0625 3.5625 C-8.7426416 3.69253418 -9.4227832 3.82256836 -10.12353516 3.95654297 C-13.69641721 4.62640502 -17.26395025 5.20910213 -20.875 5.625 C-23.86309636 5.65715584 -23.86309636 5.65715584 -25 7 C-26.051875 7.103125 -27.10375 7.20625 -28.1875 7.3125 C-33.51550827 8.27328838 -36.53088472 10.53088472 -40.3125 14.3125 C-42.35100659 17.55901049 -42.63650276 20.21962875 -43 24 C-43.33 24.33 -43.66 24.66 -44 25 C-44.09927286 26.9562593 -44.12969729 28.91622909 -44.125 30.875 C-44.12757812 31.94492187 -44.13015625 33.01484375 -44.1328125 34.1171875 C-44.12784318 37.07019169 -44.12784318 37.07019169 -43 40 C-42.2575 39.7525 -42.2575 39.7525 -41.5 39.5 C-37.96555911 38.79311182 -34.60309299 38.93994845 -31 39 C-31.03480469 38.26394531 -31.06960937 37.52789062 -31.10546875 36.76953125 C-31.38028169 26.86317907 -31.38028169 26.86317907 -28 23 C-22.7243458 17.52143602 -12.73149969 17.58401392 -5.5625 16.875 C-4.73282715 16.7922583 -3.9031543 16.7095166 -3.04833984 16.62426758 C12.11914274 15.17712495 12.11914274 15.17712495 17 17.3125 C19 19 19 19 21 22 C21.125 25.1875 21.125 25.1875 21 28 C20.34 28 19.68 28 19 28 C18.01 25.36 17.02 22.72 16 20 C7.10521801 18.31009261 -1.25840025 19.98567507 -10.0625 21.4375 C-11.61115688 21.68402089 -13.15998432 21.92947283 -14.70898438 22.17382812 C-18.47473709 22.77023758 -22.23788191 23.3810945 -26 24 C-28.40175353 32.83575359 -26.21020061 41.44410693 -24.5625 50.25 C-24.33240234 51.51585937 -24.10230469 52.78171875 -23.86523438 54.0859375 C-22.61164893 61.08159743 -22.61164893 61.08159743 -21 68 C-12.19160939 68.36532496 -3.73118497 67.90146565 5 66.6875 C6.32487427 66.51093872 6.32487427 66.51093872 7.67651367 66.33081055 C12.88146959 65.5590293 17.36015373 64.53587343 22 62 C24.00814206 55.22252055 22.68886604 47.95224802 22 41 C22.33 41 22.66 41 23 41 C25.11053662 47.72733548 26.32304363 55.00544764 25 62 C20.98039216 66 20.98039216 66 18 66 C18 66.66 18 67.32 18 68 C17.44538086 68.08040527 16.89076172 68.16081055 16.31933594 68.24365234 C13.79512602 68.61367977 11.27261061 68.99422859 8.75 69.375 C7.87730469 69.50132813 7.00460938 69.62765625 6.10546875 69.7578125 C5.26113281 69.88671875 4.41679688 70.015625 3.546875 70.1484375 C2.77182617 70.26364746 1.99677734 70.37885742 1.19824219 70.49755859 C-1.10908419 71.02493284 -2.93413374 71.86006981 -5 73 C-5.05399736 74.45792884 -5.09279177 75.91642712 -5.125 77.375 C-5.14820313 78.18710938 -5.17140625 78.99921875 -5.1953125 79.8359375 C-5.21370051 82.21342243 -5.21370051 82.21342243 -3 84 C-0.17007831 84.28178989 -0.17007831 84.28178989 3 84.1875 C4.60875 84.17783203 4.60875 84.17783203 6.25 84.16796875 C8.96127498 84.18263423 8.96127498 84.18263423 11 83 C12.68496 82.84446523 14.37332131 82.72478271 16.0625 82.625 C21.40488695 82.19507176 26.02700782 80.95235989 31 79 C31 78.34 31 77.68 31 77 C33.375 75.3125 33.375 75.3125 36 74 C36.66 74.33 37.32 74.66 38 75 C36.98972083 75.94886403 35.96602092 76.88344044 34.9375 77.8125 C34.36902344 78.33457031 33.80054687 78.85664062 33.21484375 79.39453125 C19.36085893 89.4368377 -6.3859105 91.05380202 -23 89 C-29.90584651 87.06704419 -35.23110942 83.12885011 -39 77 C-45.95306572 63.63992084 -47.42375448 45.07443723 -47.5625 30.1875 C-47.58413208 29.09840332 -47.58413208 29.09840332 -47.60620117 27.98730469 C-47.48381446 21.62319587 -45.19825401 16.66862278 -41.2109375 11.828125 C-30.122073 2.2964202 -14.39147969 -0.46424128 0 0 Z " fill="#9A9A9A" transform="translate(52,6)"/>
<path d="M0 0 C9.76185348 10.00701419 11.05387356 21.51059802 12.8984375 35.00390625 C13.07568359 36.23109375 13.25292969 37.45828125 13.43554688 38.72265625 C15.57317861 53.97494755 15.57317861 53.97494755 13.3359375 60.94140625 C12.95308594 62.16923828 12.95308594 62.16923828 12.5625 63.421875 C10.79688856 68.25705861 9.46810726 70.43333564 4.7109375 72.75390625 C3.7209375 72.75390625 2.7309375 72.75390625 1.7109375 72.75390625 C1.7109375 73.41390625 1.7109375 74.07390625 1.7109375 74.75390625 C-4.20885817 77.89651383 -9.30435994 79.24833017 -16.00390625 79.578125 C-18.31898543 79.61166068 -18.31898543 79.61166068 -20.2890625 80.75390625 C-22.2644613 80.90170587 -24.24585174 80.97509591 -26.2265625 81.00390625 C-27.28746094 81.0296875 -28.34835938 81.05546875 -29.44140625 81.08203125 C-32.2890625 80.75390625 -32.2890625 80.75390625 -34.13671875 79.51953125 C-35.57850001 77.31042912 -35.75401233 75.88266889 -35.7890625 73.25390625 C-35.82 72.48046875 -35.8509375 71.70703125 -35.8828125 70.91015625 C-35.2890625 68.75390625 -35.2890625 68.75390625 -33.125 67.046875 C-26.41221726 63.98636386 -18.60373103 63.42142132 -11.2890625 63.75390625 C-11.2890625 63.09390625 -11.2890625 62.43390625 -11.2890625 61.75390625 C-10.2990625 61.32078125 -9.3090625 60.88765625 -8.2890625 60.44140625 C-6.53342089 59.47192855 -6.53342089 59.47192855 -5.2890625 57.75390625 C-4.24372823 50.83209821 -5.20965871 43.63510543 -6.2890625 36.75390625 C-6.9490625 36.75390625 -7.6090625 36.75390625 -8.2890625 36.75390625 C-8.6190625 32.79390625 -8.9490625 28.83390625 -9.2890625 24.75390625 C-6.24483962 27.79812913 -5.35746279 29.01653894 -5.19140625 33.234375 C-5.20300781 34.12769531 -5.21460937 35.02101562 -5.2265625 35.94140625 C-5.23558594 36.84246094 -5.24460937 37.74351563 -5.25390625 38.671875 C-5.26550781 39.35894531 -5.27710937 40.04601563 -5.2890625 40.75390625 C-0.53801539 42.72385261 2.68919645 42.83702687 7.7109375 41.75390625 C9.62761005 39.8372337 8.88555947 36.48353017 8.8984375 33.94140625 C8.84852087 22.62787013 8.16233744 11.47470531 -0.06640625 2.90234375 C-4.21731464 -0.80100369 -7.33044822 -2.31163324 -12.95703125 -2.5625 C-14.29604492 -2.6253418 -14.29604492 -2.6253418 -15.66210938 -2.68945312 C-16.59087891 -2.72876953 -17.51964844 -2.76808594 -18.4765625 -2.80859375 C-19.41693359 -2.85177734 -20.35730469 -2.89496094 -21.32617188 -2.93945312 C-23.64699104 -3.0454804 -25.96791575 -3.14754404 -28.2890625 -3.24609375 C-28.2890625 -3.90609375 -28.2890625 -4.56609375 -28.2890625 -5.24609375 C-18.44333122 -6.91486176 -7.86218913 -6.88356221 0 0 Z " fill="#707070" transform="translate(81.2890625,10.24609375)"/>
<path d="M0 0 C-0.33 0.66 -0.66 1.32 -1 2 C-3.36682395 2.62379093 -5.66027032 3.12724282 -8.0625 3.5625 C-8.7426416 3.69253418 -9.4227832 3.82256836 -10.12353516 3.95654297 C-13.69641721 4.62640502 -17.26395025 5.20910213 -20.875 5.625 C-23.86309636 5.65715584 -23.86309636 5.65715584 -25 7 C-26.051875 7.103125 -27.10375 7.20625 -28.1875 7.3125 C-33.51550827 8.27328838 -36.53088472 10.53088472 -40.3125 14.3125 C-42.35100659 17.55901049 -42.63650276 20.21962875 -43 24 C-43.33 24.33 -43.66 24.66 -44 25 C-44.09927286 26.9562593 -44.12969729 28.91622909 -44.125 30.875 C-44.12757812 31.94492187 -44.13015625 33.01484375 -44.1328125 34.1171875 C-44.12784318 37.07019169 -44.12784318 37.07019169 -43 40 C-42.2575 39.7525 -42.2575 39.7525 -41.5 39.5 C-37.96555911 38.79311182 -34.60309299 38.93994845 -31 39 C-31.03480469 38.26394531 -31.06960937 37.52789062 -31.10546875 36.76953125 C-31.38028169 26.86317907 -31.38028169 26.86317907 -28 23 C-22.7243458 17.52143602 -12.73149969 17.58401392 -5.5625 16.875 C-4.73282715 16.7922583 -3.9031543 16.7095166 -3.04833984 16.62426758 C12.11914274 15.17712495 12.11914274 15.17712495 17 17.3125 C19 19 19 19 21 22 C21.125 25.1875 21.125 25.1875 21 28 C20.34 28 19.68 28 19 28 C18.01 25.36 17.02 22.72 16 20 C7.10521801 18.31009261 -1.25840025 19.98567507 -10.0625 21.4375 C-11.61115688 21.68402089 -13.15998432 21.92947283 -14.70898438 22.17382812 C-18.47473709 22.77023758 -22.23788191 23.3810945 -26 24 C-27.77448638 30.35153458 -27.06764755 36.59411469 -26 43 C-27.46373047 42.94779297 -27.46373047 42.94779297 -28.95703125 42.89453125 C-30.22933594 42.86746094 -31.50164063 42.84039062 -32.8125 42.8125 C-34.07707031 42.77769531 -35.34164062 42.74289063 -36.64453125 42.70703125 C-39.96596445 42.69172579 -39.96596445 42.69172579 -41.94921875 44.51171875 C-42.46935547 45.24841797 -42.46935547 45.24841797 -43 46 C-43.66 45.34 -44.32 44.68 -45 44 C-45 43.01 -45 42.02 -45 41 C-45.66 41 -46.32 41 -47 41 C-47.10890711 37.99900412 -47.18773555 35.00203622 -47.25 32 C-47.28351562 31.16082031 -47.31703125 30.32164063 -47.3515625 29.45703125 C-47.46214541 22.32443362 -45.75408961 17.34339263 -41.2109375 11.828125 C-30.122073 2.2964202 -14.39147969 -0.46424128 0 0 Z " fill="#969696" transform="translate(52,6)"/>
<path d="M0 0 C0.33 0 0.66 0 1 0 C1.18175781 0.84884766 1.18175781 0.84884766 1.3671875 1.71484375 C1.53476563 2.44832031 1.70234375 3.18179688 1.875 3.9375 C2.03742187 4.66839844 2.19984375 5.39929688 2.3671875 6.15234375 C2.82961523 8.20700294 2.82961523 8.20700294 5 9 C5.33 9.763125 5.66 10.52625 6 11.3125 C9.13597027 15.52646005 12.96595602 16.81095752 18 18 C26.20288241 18.8591894 26.20288241 18.8591894 34 17 C37.19683914 16.7360408 40.38684013 16.55617816 43.58984375 16.39453125 C47.42126627 16.23644006 47.42126627 16.23644006 51 15 C52.68496 14.84446523 54.37332131 14.72478271 56.0625 14.625 C61.40488695 14.19507176 66.02700782 12.95235989 71 11 C71 10.34 71 9.68 71 9 C73.375 7.3125 73.375 7.3125 76 6 C76.99 6.495 76.99 6.495 78 7 C76.98972083 7.94886403 75.96602092 8.88344044 74.9375 9.8125 C74.36902344 10.33457031 73.80054687 10.85664062 73.21484375 11.39453125 C59.36085893 21.4368377 33.6140895 23.05380202 17 21 C9.95355916 19.02769165 5.00963283 15.07731806 1 9 C-0.52256262 6.15346989 -1.1396071 4.86091044 -0.625 1.6875 C-0.41875 1.130625 -0.2125 0.57375 0 0 Z " fill="#A7A7A7" transform="translate(12,74)"/>
<path d="M0 0 C0.66 0 1.32 0 2 0 C2.11593506 0.61520508 2.23187012 1.23041016 2.35131836 1.86425781 C2.87883171 4.65973585 3.40814703 7.45486976 3.9375 10.25 C4.21110352 11.70212891 4.21110352 11.70212891 4.49023438 13.18359375 C4.66748047 14.11816406 4.84472656 15.05273438 5.02734375 16.015625 C5.18968506 16.87446289 5.35202637 17.73330078 5.51928711 18.61816406 C5.95264508 20.76536588 6.44865469 22.88043127 7 25 C16.73944972 25.12276617 26.29056184 24.83779436 36 24 C33.52669743 26.47330257 32.53767977 26.29746708 29.125 26.5 C25.43142649 26.71450157 25.43142649 26.71450157 22.0234375 28.015625 C19.4134813 29.28533342 17.39032502 29.26588091 14.5 29.25 C13.5615625 29.25515625 12.623125 29.2603125 11.65625 29.265625 C8.91697095 28.9916971 7.31233183 28.46122965 5 27 C1.91293515 23.22692073 1.54287338 19.69070616 1.2109375 14.98828125 C1.10971249 12.92746053 1.10971249 12.92746053 0 11 C-0.07033769 9.12620395 -0.0843022 7.24998898 -0.0625 5.375 C-0.05347656 4.37210938 -0.04445313 3.36921875 -0.03515625 2.3359375 C-0.02355469 1.56507812 -0.01195313 0.79421875 0 0 Z " fill="#BFBFBF" transform="translate(24,49)"/>
<path d="M0 0 C-0.33 0.66 -0.66 1.32 -1 2 C-3.36682395 2.62379093 -5.66027032 3.12724282 -8.0625 3.5625 C-8.7426416 3.69253418 -9.4227832 3.82256836 -10.12353516 3.95654297 C-13.69641721 4.62640502 -17.26395025 5.20910213 -20.875 5.625 C-23.86309636 5.65715584 -23.86309636 5.65715584 -25 7 C-26.051875 7.103125 -27.10375 7.20625 -28.1875 7.3125 C-33.47763444 8.26645867 -36.52783368 10.44370989 -40.1875 14.3125 C-44.21177541 20.27952905 -45.4614793 25.3791963 -45.6875 32.4375 C-45.72166016 33.16904297 -45.75582031 33.90058594 -45.79101562 34.65429688 C-45.87251753 36.43569562 -45.93795523 38.21781749 -46 40 C-46.33 40 -46.66 40 -47 40 C-47.10901505 37.16560863 -47.18777904 34.33549797 -47.25 31.5 C-47.28351562 30.70851563 -47.31703125 29.91703125 -47.3515625 29.1015625 C-47.46564157 22.14273946 -45.63772669 17.20213109 -41.2109375 11.828125 C-30.122073 2.2964202 -14.39147969 -0.46424128 0 0 Z " fill="#ABABAB" transform="translate(52,6)"/>
<path d="M0 0 C9.62776547 9.86955867 11.08948017 20.27471097 11.7109375 33.75390625 C9.49143848 30.07992702 9.04240215 26.2309044 8.3984375 22.06640625 C6.76292227 12.64626333 3.9194009 6.00514341 -3.640625 -0.15234375 C-6.6507895 -2.14960929 -9.44876957 -2.40608069 -12.95703125 -2.5625 C-13.84970703 -2.60439453 -14.74238281 -2.64628906 -15.66210938 -2.68945312 C-16.59087891 -2.72876953 -17.51964844 -2.76808594 -18.4765625 -2.80859375 C-19.41693359 -2.85177734 -20.35730469 -2.89496094 -21.32617188 -2.93945312 C-23.64699104 -3.0454804 -25.96791575 -3.14754404 -28.2890625 -3.24609375 C-28.2890625 -3.90609375 -28.2890625 -4.56609375 -28.2890625 -5.24609375 C-18.44333122 -6.91486176 -7.86218913 -6.88356221 0 0 Z " fill="#B6B6B6" transform="translate(81.2890625,10.24609375)"/>
<path d="M0 0 C0.33 0 0.66 0 1 0 C1.18175781 0.84884766 1.18175781 0.84884766 1.3671875 1.71484375 C1.53476563 2.44832031 1.70234375 3.18179688 1.875 3.9375 C2.03742187 4.66839844 2.19984375 5.39929688 2.3671875 6.15234375 C2.82961523 8.20700294 2.82961523 8.20700294 5 9 C5.33 9.763125 5.66 10.52625 6 11.3125 C9.12339746 15.50956534 13.01280321 16.73401928 18 18 C21.74005709 18.39904375 25.43201543 18.62134812 29.19140625 18.7265625 C30.11824219 18.81679687 31.04507813 18.90703125 32 19 C32.495 19.99 32.495 19.99 33 21 C14.92205385 22.00931461 14.92205385 22.00931461 7 16 C3.3271001 12.62677184 0.20047712 8.93529482 -1 4 C-0.625 1.6875 -0.625 1.6875 0 0 Z " fill="#CACACA" transform="translate(12,74)"/>
<path d="M0 0 C3.68623011 1.61272567 4.75355 2.630325 7 6 C7.125 9.1875 7.125 9.1875 7 12 C6.34 12 5.68 12 5 12 C4.01 9.36 3.02 6.72 2 4 C-4.68586233 2.86680299 -10.22292888 3.29873292 -16.88671875 4.52734375 C-19.97660427 4.99644808 -22.8802141 5.07951478 -26 5 C-23.52669743 2.52669743 -22.53767977 2.70253292 -19.125 2.5 C-16.40091404 2.337368 -14.43607733 2.21930879 -11.98828125 0.98828125 C-8.24396414 -0.87284297 -4.07647025 -0.43605679 0 0 Z " fill="#AAAAAA" transform="translate(66,22)"/>
<path d="M0 0 C0.33 0 0.66 0 1 0 C1.33965474 2.18652739 1.67142477 4.37428025 2 6.5625 C2.185625 7.78066406 2.37125 8.99882813 2.5625 10.25390625 C3.21807742 15.86728789 3.35249459 20.81955611 1.6875 26.25 C1.44386719 27.08015625 1.20023437 27.9103125 0.94921875 28.765625 C-0.04441668 31.10455285 -1.091516 32.35346479 -3 34 C-2.67128906 33.12085938 -2.34257813 32.24171875 -2.00390625 31.3359375 C-0.35247151 25.55955342 -0.82996518 19.57526007 -0.9375 13.625 C-0.97174912 11.26307929 -1.00193117 8.90109482 -1.02734375 6.5390625 C-1.04531006 5.49959473 -1.06327637 4.46012695 -1.08178711 3.38916016 C-1 1 -1 1 0 0 Z " fill="#A7A7A7" transform="translate(93,45)"/>
<path d="M0 0 C0.5625 1.9375 0.5625 1.9375 1 4 C0.67 4.33 0.34 4.66 0 5 C-0.09927286 6.9562593 -0.12969729 8.91622909 -0.125 10.875 C-0.12757812 11.94492187 -0.13015625 13.01484375 -0.1328125 14.1171875 C-0.12784318 17.07019169 -0.12784318 17.07019169 1 20 C1.7425 19.7525 1.7425 19.7525 2.5 19.5 C6.03444089 18.79311182 9.39690701 18.93994845 13 19 C13 19.66 13 20.32 13 21 C11.7625 21.0825 10.525 21.165 9.25 21.25 C6.01117036 21.63475459 5.12092117 21.90024003 2.5 24.0625 C2.005 24.701875 1.51 25.34125 1 26 C0.34 25.34 -0.32 24.68 -1 24 C-1 23.01 -1 22.02 -1 21 C-1.66 20.67 -2.32 20.34 -3 20 C-2.88581333 17.41577541 -2.75907638 14.83320487 -2.625 12.25 C-2.5940625 11.52039062 -2.563125 10.79078125 -2.53125 10.0390625 C-2.3251506 6.26057344 -2.08487157 3.22053332 0 0 Z " fill="#7E7E7E" transform="translate(8,26)"/>
<path d="M0 0 C0.99 0.33 1.98 0.66 3 1 C12.01398112 1.45269625 21.02106309 0.75385377 30 0 C27.52669743 2.47330257 26.53767977 2.29746708 23.125 2.5 C19.43401498 2.71421417 19.43401498 2.71421417 16.02734375 4.01171875 C13.40695421 5.28909554 11.34098428 5.30064904 8.4375 5.3125 C7.48746094 5.32925781 6.53742187 5.34601563 5.55859375 5.36328125 C3 5 3 5 1.16015625 3.60546875 C0 2 0 2 0 0 Z " fill="#CECECE" transform="translate(30,73)"/>
<path d="M0 0 C0.66 0.33 1.32 0.66 2 1 C1.52949219 1.49628906 1.05898438 1.99257812 0.57421875 2.50390625 C-0.04839844 3.18324219 -0.67101563 3.86257812 -1.3125 4.5625 C-1.92738281 5.22378906 -2.54226562 5.88507812 -3.17578125 6.56640625 C-7.40294983 12.20564828 -8.46898881 17.61370763 -8.6875 24.4375 C-8.72166016 25.16904297 -8.75582031 25.90058594 -8.79101562 26.65429688 C-8.87251753 28.43569562 -8.93795523 30.21781749 -9 32 C-9.33 32 -9.66 32 -10 32 C-10.10901505 29.16560863 -10.18777904 26.33549797 -10.25 23.5 C-10.28351562 22.70851563 -10.31703125 21.91703125 -10.3515625 21.1015625 C-10.46465692 14.20280304 -8.65340485 9.26198394 -4.296875 3.90625 C-2.86458333 2.60416667 -1.43229167 1.30208333 0 0 Z " fill="#B8B8B8" transform="translate(15,14)"/>
<path d="M0 0 C0.66 0.33 1.32 0.66 2 1 C-5.72098823 8.25162724 -12.48997084 10.44884115 -23 11 C-20.74757915 8.74757915 -19.85476464 8.58646065 -16.8125 8 C-12.80145168 7.18221345 -8.9224008 6.16837471 -5 5 C-5 4.34 -5 3.68 -5 3 C-2.625 1.3125 -2.625 1.3125 0 0 Z " fill="#B3B3B3" transform="translate(88,80)"/>
<path d="M0 0 C0.99 0.33 1.98 0.66 3 1 C6.64666585 1.27028229 10.29293716 1.4455706 13.9453125 1.62109375 C14.95335937 1.74613281 15.96140625 1.87117188 17 2 C17.33 2.66 17.66 3.32 18 4 C12.72 4 7.44 4 2 4 C1.34 2.68 0.68 1.36 0 0 Z " fill="#BABABA" transform="translate(27,91)"/>
<path d="M0 0 C3.96975938 3.96975938 4.125 9.08012382 4.125 14.4375 C4.09326375 15.95857296 4.05506505 17.47959282 4 19 C1.56181064 15.34271595 1.3283308 12.06712105 0.875 7.8125 C0.78863281 7.06291016 0.70226562 6.31332031 0.61328125 5.54101562 C0.40161618 3.69482588 0.19984536 1.84750656 0 0 Z " fill="#C8C8C8" transform="translate(7,55)"/>
<path d="M0 0 C-3.17273461 3.17273461 -7.01633592 2.4502419 -11.34765625 2.65625 C-12.66056641 2.82640625 -12.66056641 2.82640625 -14 3 C-14.33 3.66 -14.66 4.32 -15 5 C-17.475 4.01 -17.475 4.01 -20 3 C-16.65919977 0.77279985 -15.06043051 0.63997911 -11.125 0.375 C-9.58199219 0.26285156 -9.58199219 0.26285156 -8.0078125 0.1484375 C-5.33146611 0.01635807 -2.6788591 -0.02965527 0 0 Z " fill="#7C7C7C" transform="translate(54,23)"/>
<path d="M0 0 C3.3 0 6.6 0 10 0 C10.33 0.66 10.66 1.32 11 2 C6.71 2.66 2.42 3.32 -2 4 C-1.34 2.68 -0.68 1.36 0 0 Z " fill="#A5A5A5" transform="translate(28,26)"/>
<path d="M0 0 C0 0.66 0 1.32 0 2 C1.98 2 3.96 2 6 2 C6 2.33 6 2.66 6 3 C0.39 3 -5.22 3 -11 3 C-11 2.34 -11 1.68 -11 1 C-9.54182203 0.83197949 -8.0834516 0.66562857 -6.625 0.5 C-5.81289063 0.4071875 -5.00078125 0.314375 -4.1640625 0.21875 C-2 0 -2 0 0 0 Z " fill="#919191" transform="translate(64,4)"/>
<path d="M0 0 C0.66 0.33 1.32 0.66 2 1 C1.01 2.98 0.02 4.96 -1 7 C-1.66 7 -2.32 7 -3 7 C-3 8.98 -3 10.96 -3 13 C-3.66 12.34 -4.32 11.68 -5 11 C-4.84971611 6.94233489 -4.59155055 4.6991052 -1.9375 1.5625 C-0.9784375 0.7890625 -0.9784375 0.7890625 0 0 Z " fill="#7E7E7E" transform="translate(26,27)"/>
<path d="M0 0 C0.33 0 0.66 0 1 0 C1.33 4.29 1.66 8.58 2 13 C1.01 13.495 1.01 13.495 0 14 C-1.10424872 9.58300512 -1.15088074 5.52642225 -1 1 C-0.67 0.67 -0.34 0.34 0 0 Z " fill="#B1B1B1" transform="translate(93,45)"/>
<path d="M0 0 C0.33 0.99 0.66 1.98 1 3 C-1.31 5.31 -3.62 7.62 -6 10 C-6.33 9.34 -6.66 8.68 -7 8 C-4.69 5.36 -2.38 2.72 0 0 Z " fill="#808080" transform="translate(16,15)"/>
<path d="M0 0 C-0.33 0.66 -0.66 1.32 -1 2 C-3.32495277 2.38749213 -5.6599583 2.71758117 -8 3 C-8.99 3.33 -9.98 3.66 -11 4 C-11 3.34 -11 2.68 -11 2 C-6.89657963 -0.38570952 -4.61380251 -1.49270081 0 0 Z " fill="#9F9F9F" transform="translate(28,11)"/>
<path d="M0 0 C2.35448165 2.55068845 2.98327924 3.71017358 3.1875 7.25 C3.125625 8.1575 3.06375 9.065 3 10 C0.64551835 7.44931155 0.01672076 6.28982642 -0.1875 2.75 C-0.125625 1.8425 -0.06375 0.935 0 0 Z " fill="#AEAEAE" transform="translate(6,47)"/>
</svg>
