<svg width="722" height="821" viewBox="0 0 722 821" fill="none" xmlns="http://www.w3.org/2000/svg">
<g clip-path="url(#clip0_23_6705)">
<rect width="719" height="821" fill="#1B1B28"/>
<g filter="url(#filter0_f_23_6705)">
<path fill-rule="evenodd" clip-rule="evenodd" d="M721 386.476C721.659 382.037 722 377.5 722 372.889C722 319.379 676.109 276 619.5 276C578.826 276 543.685 298.395 527.124 330.851C518.094 334.195 509.689 338.715 502.119 344.212C495.538 320.2 472.46 302.467 445 302.467C416.429 302.467 392.602 321.663 387.165 347.155C371.536 338.574 353.375 333.661 334 333.661C319.557 333.661 305.789 336.391 293.242 341.335C277.485 304.681 239.435 278.836 195 278.836C150.439 278.836 112.3 304.828 96.6246 341.647C84.626 334.779 70.5515 330.825 55.5 330.825C11.5934 330.825 -24 364.47 -24 405.973C-24 428 -13.9739 447.814 2 461.559V794H721V386.476Z" fill="url(#paint0_linear_23_6705)" fill-opacity="0.28"/>
</g>
<path fill-rule="evenodd" clip-rule="evenodd" d="M718 380.747C708.6 336.405 667.177 303 617.5 303C582.258 303 551.17 319.812 532.723 345.414C521.282 349.645 510.739 355.563 501.436 362.842C490.847 344.47 470.216 332 446.5 332C427.667 332 410.78 339.863 399.321 352.302C382.716 343.817 363.704 339 343.5 339C321.718 339 301.321 344.599 283.833 354.356C265.279 325.28 231.542 305.836 193 305.836C148.439 305.836 110.3 331.828 94.6246 368.647C82.626 361.779 68.5515 357.825 53.5 357.825C9.59336 357.825 -26 391.47 -26 432.973C-26 455 -15.9739 474.814 0 488.559V821H718V380.747Z" fill="url(#paint1_linear_23_6705)"/>
<path d="M130.686 17.4235C130.686 17.7692 130.437 18.0494 130.129 18.0494C129.821 18.0494 129.571 17.7692 129.571 17.4235C129.571 17.0779 129.821 16.7976 130.129 16.7976C130.437 16.7976 130.686 17.0779 130.686 17.4235Z" fill="url(#paint2_linear_23_6705)" fill-opacity="0.7"/>
<path d="M160.054 75.5658C160.054 75.9114 159.804 76.1916 159.496 76.1916C159.189 76.1916 158.939 75.9114 158.939 75.5658C158.939 75.2201 159.189 74.9399 159.496 74.9399C159.804 74.9399 160.054 75.2201 160.054 75.5658Z" fill="url(#paint3_linear_23_6705)" fill-opacity="0.7"/>
<path d="M172.69 88.0831C172.69 88.4288 172.44 88.709 172.132 88.709C171.824 88.709 171.575 88.4288 171.575 88.0831C171.575 87.7375 171.824 87.4573 172.132 87.4573C172.44 87.4573 172.69 87.7375 172.69 88.0831Z" fill="url(#paint4_linear_23_6705)" fill-opacity="0.7"/>
<path d="M172.69 62.8635C172.69 63.2091 172.44 63.4893 172.132 63.4893C171.824 63.4893 171.575 63.2091 171.575 62.8635C171.575 62.5178 171.824 62.2376 172.132 62.2376C172.44 62.2376 172.69 62.5178 172.69 62.8635Z" fill="url(#paint5_linear_23_6705)" fill-opacity="0.7"/>
<path d="M172.69 62.8635C172.69 63.2091 172.44 63.4893 172.132 63.4893C171.824 63.4893 171.575 63.2091 171.575 62.8635C171.575 62.5178 171.824 62.2376 172.132 62.2376C172.44 62.2376 172.69 62.5178 172.69 62.8635Z" fill="url(#paint6_linear_23_6705)" fill-opacity="0.7"/>
<path d="M264.485 27.2167C264.485 27.5624 264.235 27.8426 263.927 27.8426C263.619 27.8426 263.37 27.5624 263.37 27.2167C263.37 26.8711 263.619 26.5909 263.927 26.5909C264.235 26.5909 264.485 26.8711 264.485 27.2167Z" fill="url(#paint7_linear_23_6705)" fill-opacity="0.7"/>
<path d="M189.785 50.5311C189.785 50.8767 189.535 51.1569 189.228 51.1569C188.92 51.1569 188.67 50.8767 188.67 50.5311C188.67 50.1854 188.92 49.9052 189.228 49.9052C189.535 49.9052 189.785 50.1854 189.785 50.5311Z" fill="url(#paint8_linear_23_6705)" fill-opacity="0.7"/>
<path d="M197.218 46.1737C197.218 46.5193 196.968 46.7995 196.66 46.7995C196.352 46.7995 196.103 46.5193 196.103 46.1737C196.103 45.828 196.352 45.5478 196.66 45.5478C196.968 45.5478 197.218 45.828 197.218 46.1737Z" fill="url(#paint9_linear_23_6705)" fill-opacity="0.7"/>
<path d="M219.516 32.5895C219.516 32.9352 219.267 33.2154 218.959 33.2154C218.651 33.2154 218.401 32.9352 218.401 32.5895C218.401 32.2439 218.651 31.9636 218.959 31.9636C219.267 31.9636 219.516 32.2439 219.516 32.5895Z" fill="url(#paint10_linear_23_6705)" fill-opacity="0.7"/>
<path d="M226.949 36.762C226.949 37.1076 226.699 37.3878 226.392 37.3878C226.084 37.3878 225.834 37.1076 225.834 36.762C225.834 36.4163 226.084 36.1361 226.392 36.1361C226.699 36.1361 226.949 36.4163 226.949 36.762Z" fill="url(#paint11_linear_23_6705)" fill-opacity="0.7"/>
<path d="M238.098 24.2446C238.098 24.5903 237.849 24.8705 237.541 24.8705C237.233 24.8705 236.983 24.5903 236.983 24.2446C236.983 23.8989 237.233 23.6187 237.541 23.6187C237.849 23.6187 238.098 23.8989 238.098 24.2446Z" fill="url(#paint12_linear_23_6705)" fill-opacity="0.7"/>
<path d="M208.367 88.0831C208.367 88.4288 208.117 88.709 207.81 88.709C207.502 88.709 207.252 88.4288 207.252 88.0831C207.252 87.7375 207.502 87.4573 207.81 87.4573C208.117 87.4573 208.367 87.7375 208.367 88.0831Z" fill="url(#paint13_linear_23_6705)" fill-opacity="0.7"/>
<path d="M89.4423 88.0831C89.4423 88.4288 89.1927 88.709 88.8848 88.709C88.577 88.709 88.3274 88.4288 88.3274 88.0831C88.3274 87.7375 88.577 87.4573 88.8848 87.4573C89.1927 87.4573 89.4423 87.7375 89.4423 88.0831Z" fill="url(#paint14_linear_23_6705)" fill-opacity="0.7"/>
<path d="M115.622 74.9307C115.622 75.2763 115.372 75.5565 115.064 75.5565C114.756 75.5565 114.507 75.2763 114.507 74.9307C114.507 74.585 114.756 74.3048 115.064 74.3048C115.372 74.3048 115.622 74.585 115.622 74.9307Z" fill="url(#paint15_linear_23_6705)" fill-opacity="0.7"/>
<path d="M2.81201 19.1452C2.81201 19.4908 2.56242 19.7711 2.25455 19.7711C1.94667 19.7711 1.69709 19.4908 1.69709 19.1452C1.69709 18.7995 1.94667 18.5193 2.25455 18.5193C2.56242 18.5193 2.81201 18.7995 2.81201 19.1452Z" fill="url(#paint16_linear_23_6705)" fill-opacity="0.7"/>
<path d="M691.87 42.1862C691.87 42.5318 692.12 42.812 692.428 42.812C692.736 42.812 692.985 42.5318 692.985 42.1862C692.985 41.8405 692.736 41.5603 692.428 41.5603C692.12 41.5603 691.87 41.8405 691.87 42.1862Z" fill="url(#paint17_linear_23_6705)" fill-opacity="0.7"/>
<path d="M673.288 58.876C673.288 59.2216 673.538 59.5018 673.846 59.5018C674.154 59.5018 674.403 59.2216 674.403 58.876C674.403 58.5303 674.154 58.2501 673.846 58.2501C673.538 58.2501 673.288 58.5303 673.288 58.876Z" fill="url(#paint18_linear_23_6705)" fill-opacity="0.7"/>
<path d="M647.273 33.8412C647.273 34.1869 647.523 34.4671 647.831 34.4671C648.139 34.4671 648.388 34.1869 648.388 33.8412C648.388 33.4956 648.139 33.2154 647.831 33.2154C647.523 33.2154 647.273 33.4956 647.273 33.8412Z" fill="url(#paint19_linear_23_6705)" fill-opacity="0.7"/>
<path d="M634.184 69.2146C634.184 69.5603 634.433 69.8405 634.741 69.8405C635.049 69.8405 635.299 69.5603 635.299 69.2146C635.299 68.869 635.049 68.5888 634.741 68.5888C634.433 68.5888 634.184 68.869 634.184 69.2146Z" fill="url(#paint20_linear_23_6705)" fill-opacity="0.7"/>
<path d="M621.548 81.732C621.548 82.0776 621.798 82.3579 622.105 82.3579C622.413 82.3579 622.663 82.0776 622.663 81.732C622.663 81.3863 622.413 81.1061 622.105 81.1061C621.798 81.1061 621.548 81.3863 621.548 81.732Z" fill="url(#paint21_linear_23_6705)" fill-opacity="0.7"/>
<path d="M621.548 69.2146C621.548 69.5603 621.798 69.8405 622.105 69.8405C622.413 69.8405 622.663 69.5603 622.663 69.2146C622.663 68.869 622.413 68.5888 622.105 68.5888C621.798 68.5888 621.548 68.869 621.548 69.2146Z" fill="url(#paint22_linear_23_6705)" fill-opacity="0.7"/>
<path d="M621.548 69.2146C621.548 69.5603 621.798 69.8405 622.105 69.8405C622.413 69.8405 622.663 69.5603 622.663 69.2146C622.663 68.869 622.413 68.5888 622.105 68.5888C621.798 68.5888 621.548 68.869 621.548 69.2146Z" fill="url(#paint23_linear_23_6705)" fill-opacity="0.7"/>
<path d="M535.41 38.0137C535.41 38.3594 535.66 38.6396 535.967 38.6396C536.275 38.6396 536.525 38.3594 536.525 38.0137C536.525 37.668 536.275 37.3878 535.967 37.3878C535.66 37.3878 535.41 37.668 535.41 38.0137Z" fill="url(#paint24_linear_23_6705)" fill-opacity="0.7"/>
<path d="M517.15 25.1264C517.15 25.4721 517.4 25.7523 517.708 25.7523C518.016 25.7523 518.265 25.4721 518.265 25.1264C518.265 24.7808 518.016 24.5006 517.708 24.5006C517.4 24.5006 517.15 24.7808 517.15 25.1264Z" fill="url(#paint25_linear_23_6705)" fill-opacity="0.7"/>
<path d="M542.843 63.0484C542.843 63.3941 543.092 63.6743 543.4 63.6743C543.708 63.6743 543.958 63.3941 543.958 63.0484C543.958 62.7028 543.708 62.4226 543.4 62.4226C543.092 62.4226 542.843 62.7028 542.843 63.0484Z" fill="url(#paint26_linear_23_6705)" fill-opacity="0.7"/>
<path d="M610.11 50.5311C610.11 50.8767 610.359 51.1569 610.667 51.1569C610.975 51.1569 611.224 50.8767 611.224 50.5311C611.224 50.1854 610.975 49.9052 610.667 49.9052C610.359 49.9052 610.11 50.1854 610.11 50.5311Z" fill="url(#paint27_linear_23_6705)" fill-opacity="0.7"/>
<path d="M602.677 58.876C602.677 59.2216 602.926 59.5018 603.234 59.5018C603.542 59.5018 603.792 59.2216 603.792 58.876C603.792 58.5303 603.542 58.2501 603.234 58.2501C602.926 58.2501 602.677 58.5303 602.677 58.876Z" fill="url(#paint28_linear_23_6705)" fill-opacity="0.7"/>
<path d="M570.716 67.2209C570.716 67.5665 570.965 67.8467 571.273 67.8467C571.581 67.8467 571.831 67.5665 571.831 67.2209C571.831 66.8752 571.581 66.595 571.273 66.595C570.965 66.595 570.716 66.8752 570.716 67.2209Z" fill="url(#paint29_linear_23_6705)" fill-opacity="0.7"/>
<path d="M607.88 25.9136C607.88 26.2592 608.129 26.5395 608.437 26.5395C608.745 26.5395 608.995 26.2592 608.995 25.9136C608.995 25.5679 608.745 25.2877 608.437 25.2877C608.129 25.2877 607.88 25.5679 607.88 25.9136Z" fill="url(#paint30_linear_23_6705)" fill-opacity="0.7"/>
<path d="M580.378 32.5895C580.378 32.9352 580.628 33.2154 580.936 33.2154C581.244 33.2154 581.493 32.9352 581.493 32.5895C581.493 32.2439 581.244 31.9636 580.936 31.9636C580.628 31.9636 580.378 32.2439 580.378 32.5895Z" fill="url(#paint31_linear_23_6705)" fill-opacity="0.7"/>
<path d="M572.946 36.762C572.946 37.1076 573.195 37.3878 573.503 37.3878C573.811 37.3878 574.06 37.1076 574.06 36.762C574.06 36.4163 573.811 36.1361 573.503 36.1361C573.195 36.1361 572.946 36.4163 572.946 36.762Z" fill="url(#paint32_linear_23_6705)" fill-opacity="0.7"/>
<path d="M572.946 28.4171C572.946 28.7627 573.195 29.0429 573.503 29.0429C573.811 29.0429 574.06 28.7627 574.06 28.4171C574.06 28.0714 573.811 27.7912 573.503 27.7912C573.195 27.7912 572.946 28.0714 572.946 28.4171Z" fill="url(#paint33_linear_23_6705)" fill-opacity="0.7"/>
<path d="M497.503 28.4171C497.503 28.7627 497.752 29.0429 498.06 29.0429C498.368 29.0429 498.618 28.7627 498.618 28.4171C498.618 28.0714 498.368 27.7912 498.06 27.7912C497.752 27.7912 497.503 28.0714 497.503 28.4171Z" fill="url(#paint34_linear_23_6705)" fill-opacity="0.7"/>
<path d="M591.528 88.0831C591.528 88.4288 591.777 88.709 592.085 88.709C592.393 88.709 592.642 88.4288 592.642 88.0831C592.642 87.7375 592.393 87.4573 592.085 87.4573C591.777 87.4573 591.528 87.7375 591.528 88.0831Z" fill="url(#paint35_linear_23_6705)" fill-opacity="0.7"/>
<path d="M710.452 88.0831C710.452 88.4288 710.702 88.709 711.01 88.709C711.318 88.709 711.567 88.4288 711.567 88.0831C711.567 87.7375 711.318 87.4573 711.01 87.4573C710.702 87.4573 710.452 87.7375 710.452 88.0831Z" fill="url(#paint36_linear_23_6705)" fill-opacity="0.7"/>
<path d="M695.587 75.5658C695.587 75.9114 695.836 76.1916 696.144 76.1916C696.452 76.1916 696.702 75.9114 696.702 75.5658C696.702 75.2201 696.452 74.9399 696.144 74.9399C695.836 74.9399 695.587 75.2201 695.587 75.5658Z" fill="url(#paint37_linear_23_6705)" fill-opacity="0.7"/>
<path d="M717.885 25.4963C717.885 25.842 718.135 26.1222 718.443 26.1222C718.75 26.1222 719 25.842 719 25.4963C719 25.1507 718.75 24.8705 718.443 24.8705C718.135 24.8705 717.885 25.1507 717.885 25.4963Z" fill="url(#paint38_linear_23_6705)" fill-opacity="0.7"/>
<path d="M713.797 33.8412C713.797 34.1869 714.047 34.4671 714.355 34.4671C714.662 34.4671 714.912 34.1869 714.912 33.8412C714.912 33.4956 714.662 33.2154 714.355 33.2154C714.047 33.2154 713.797 33.4956 713.797 33.8412Z" fill="url(#paint39_linear_23_6705)" fill-opacity="0.7"/>
<path d="M179.209 18.916C179.209 19.2617 178.959 19.5419 178.651 19.5419C178.343 19.5419 178.094 19.2617 178.094 18.916C178.094 18.5704 178.343 18.2902 178.651 18.2902C178.959 18.2902 179.209 18.5704 179.209 18.916Z" fill="url(#paint40_linear_23_6705)" fill-opacity="0.7"/>
<path d="M536.739 15.6259C536.739 15.9715 536.989 16.2517 537.297 16.2517C537.605 16.2517 537.854 15.9715 537.854 15.6259C537.854 15.2802 537.605 15 537.297 15C536.989 15 536.739 15.2802 536.739 15.6259Z" fill="url(#paint41_linear_23_6705)" fill-opacity="0.7"/>
<path d="M139.9 73.8012C139.9 74.1468 139.651 74.4271 139.343 74.4271C139.035 74.4271 138.785 74.1468 138.785 73.8012C138.785 73.4555 139.035 73.1753 139.343 73.1753C139.651 73.1753 139.9 73.4555 139.9 73.8012Z" fill="url(#paint42_linear_23_6705)" fill-opacity="0.7"/>
<path d="M119.372 23.7747C119.372 24.1203 119.123 24.4005 118.815 24.4005C118.507 24.4005 118.257 24.1203 118.257 23.7747C118.257 23.429 118.507 23.1488 118.815 23.1488C119.123 23.1488 119.372 23.429 119.372 23.7747Z" fill="url(#paint43_linear_23_6705)" fill-opacity="0.7"/>
<path d="M98.6509 67.9444C98.6509 68.2901 98.4013 68.5703 98.0935 68.5703C97.7856 68.5703 97.536 68.2901 97.536 67.9444C97.536 67.5987 97.7856 67.3185 98.0935 67.3185C98.4013 67.3185 98.6509 67.5987 98.6509 67.9444Z" fill="url(#paint44_linear_23_6705)" fill-opacity="0.7"/>
<path d="M221.292 55.8154C221.292 56.1611 221.042 56.4413 220.735 56.4413C220.427 56.4413 220.177 56.1611 220.177 55.8154C220.177 55.4698 220.427 55.1896 220.735 55.1896C221.042 55.1896 221.292 55.4698 221.292 55.8154Z" fill="url(#paint45_linear_23_6705)" fill-opacity="0.7"/>
<path d="M304.083 33.5679C304.083 33.9135 303.834 34.1938 303.526 34.1938C303.218 34.1938 302.968 33.9135 302.968 33.5679C302.968 33.2222 303.218 32.942 303.526 32.942C303.834 32.942 304.083 33.2222 304.083 33.5679Z" fill="url(#paint46_linear_23_6705)" fill-opacity="0.7"/>
<path d="M309.74 27.2167C309.74 27.5624 309.491 27.8426 309.183 27.8426C308.875 27.8426 308.625 27.5624 308.625 27.2167C308.625 26.8711 308.875 26.5909 309.183 26.5909C309.491 26.5909 309.74 26.8711 309.74 27.2167Z" fill="url(#paint47_linear_23_6705)" fill-opacity="0.7"/>
<path d="M388.938 27.2167C388.938 27.5624 388.688 27.8426 388.38 27.8426C388.072 27.8426 387.823 27.5624 387.823 27.2167C387.823 26.8711 388.072 26.5909 388.38 26.5909C388.688 26.5909 388.938 26.8711 388.938 27.2167Z" fill="url(#paint48_linear_23_6705)" fill-opacity="0.7"/>
<path d="M428.536 20.8656C428.536 21.2112 428.287 21.4914 427.979 21.4914C427.671 21.4914 427.422 21.2112 427.422 20.8656C427.422 20.5199 427.671 20.2397 427.979 20.2397C428.287 20.2397 428.536 20.5199 428.536 20.8656Z" fill="url(#paint49_linear_23_6705)" fill-opacity="0.7"/>
<path d="M439.85 27.2167C439.85 27.5624 439.601 27.8426 439.293 27.8426C438.985 27.8426 438.736 27.5624 438.736 27.2167C438.736 26.8711 438.985 26.5909 439.293 26.5909C439.601 26.5909 439.85 26.8711 439.85 27.2167Z" fill="url(#paint50_linear_23_6705)" fill-opacity="0.7"/>
<path d="M8.46897 25.4963C8.46897 25.842 8.21939 26.1222 7.91151 26.1222C7.60364 26.1222 7.35405 25.842 7.35405 25.4963C7.35405 25.1507 7.60364 24.8705 7.91151 24.8705C8.21939 24.8705 8.46897 25.1507 8.46897 25.4963Z" fill="url(#paint51_linear_23_6705)" fill-opacity="0.7"/>
<path d="M1.11492 75.6705C1.11492 76.0161 0.865336 76.2963 0.557459 76.2963C0.249583 76.2963 0 76.0161 0 75.6705C0 75.3248 0.249583 75.0446 0.557459 75.0446C0.865336 75.0446 1.11492 75.3248 1.11492 75.6705Z" fill="url(#paint52_linear_23_6705)" fill-opacity="0.7"/>
<path d="M289.762 68.209C289.762 68.5546 289.512 68.8348 289.204 68.8348C288.897 68.8348 288.647 68.5546 288.647 68.209C288.647 67.8633 288.897 67.5831 289.204 67.5831C289.512 67.5831 289.762 67.8633 289.762 68.209Z" fill="url(#paint53_linear_23_6705)" fill-opacity="0.7"/>
<path d="M329.361 74.5601C329.361 74.9058 329.111 75.186 328.803 75.186C328.495 75.186 328.246 74.9058 328.246 74.5601C328.246 74.2145 328.495 73.9343 328.803 73.9343C329.111 73.9343 329.361 74.2145 329.361 74.5601Z" fill="url(#paint54_linear_23_6705)" fill-opacity="0.7"/>
<path d="M335.018 68.209C335.018 68.5546 334.768 68.8348 334.46 68.8348C334.152 68.8348 333.903 68.5546 333.903 68.209C333.903 67.8633 334.152 67.5831 334.46 67.5831C334.768 67.5831 335.018 67.8633 335.018 68.209Z" fill="url(#paint55_linear_23_6705)" fill-opacity="0.7"/>
<path d="M414.215 68.209C414.215 68.5546 413.966 68.8348 413.658 68.8348C413.35 68.8348 413.1 68.5546 413.1 68.209C413.1 67.8633 413.35 67.5831 413.658 67.5831C413.966 67.5831 414.215 67.8633 414.215 68.209Z" fill="url(#paint56_linear_23_6705)" fill-opacity="0.7"/>
<path d="M453.814 61.8578C453.814 62.2035 453.564 62.4837 453.256 62.4837C452.949 62.4837 452.699 62.2035 452.699 61.8578C452.699 61.5122 452.949 61.2319 453.256 61.2319C453.564 61.2319 453.814 61.5122 453.814 61.8578Z" fill="url(#paint57_linear_23_6705)" fill-opacity="0.7"/>
<path d="M465.128 68.209C465.128 68.5546 464.878 68.8348 464.57 68.8348C464.262 68.8348 464.013 68.5546 464.013 68.209C464.013 67.8633 464.262 67.5831 464.57 67.5831C464.878 67.5831 465.128 67.8633 465.128 68.209Z" fill="url(#paint58_linear_23_6705)" fill-opacity="0.7"/>
<path d="M355.235 33.5232C355.235 33.8689 354.985 34.1491 354.677 34.1491C354.369 34.1491 354.12 33.8689 354.12 33.5232C354.12 33.1776 354.369 32.8974 354.677 32.8974C354.985 32.8974 355.235 33.1776 355.235 33.5232Z" fill="url(#paint59_linear_23_6705)" fill-opacity="0.7"/>
<path d="M52.9306 59.7039C52.9306 60.0496 52.681 60.3298 52.3731 60.3298C52.0652 60.3298 51.8156 60.0496 51.8156 59.7039C51.8156 59.3582 52.0652 59.078 52.3731 59.078C52.681 59.078 52.9306 59.3582 52.9306 59.7039Z" fill="url(#paint60_linear_23_6705)" fill-opacity="0.7"/>
<path d="M62.1392 39.5652C62.1392 39.9108 61.8896 40.191 61.5817 40.191C61.2739 40.191 61.0243 39.9108 61.0243 39.5652C61.0243 39.2195 61.2739 38.9393 61.5817 38.9393C61.8896 38.9393 62.1392 39.2195 62.1392 39.5652Z" fill="url(#paint61_linear_23_6705)" fill-opacity="0.7"/>
<path d="M130.686 105.714C130.686 106.06 130.437 106.34 130.129 106.34C129.821 106.34 129.571 106.06 129.571 105.714C129.571 105.369 129.821 105.089 130.129 105.089C130.437 105.089 130.686 105.369 130.686 105.714Z" fill="url(#paint62_linear_23_6705)" fill-opacity="0.7"/>
<path d="M160.054 163.857C160.054 164.202 159.804 164.483 159.496 164.483C159.189 164.483 158.939 164.202 158.939 163.857C158.939 163.511 159.189 163.231 159.496 163.231C159.804 163.231 160.054 163.511 160.054 163.857Z" fill="url(#paint63_linear_23_6705)" fill-opacity="0.7"/>
<path d="M172.69 176.374C172.69 176.72 172.44 177 172.132 177C171.824 177 171.575 176.72 171.575 176.374C171.575 176.028 171.824 175.748 172.132 175.748C172.44 175.748 172.69 176.028 172.69 176.374Z" fill="url(#paint64_linear_23_6705)" fill-opacity="0.7"/>
<path d="M172.69 151.154C172.69 151.5 172.44 151.78 172.132 151.78C171.824 151.78 171.575 151.5 171.575 151.154C171.575 150.809 171.824 150.529 172.132 150.529C172.44 150.529 172.69 150.809 172.69 151.154Z" fill="url(#paint65_linear_23_6705)" fill-opacity="0.7"/>
<path d="M172.69 151.154C172.69 151.5 172.44 151.78 172.132 151.78C171.824 151.78 171.575 151.5 171.575 151.154C171.575 150.809 171.824 150.529 172.132 150.529C172.44 150.529 172.69 150.809 172.69 151.154Z" fill="url(#paint66_linear_23_6705)" fill-opacity="0.7"/>
<path d="M264.485 115.508C264.485 115.853 264.235 116.134 263.927 116.134C263.619 116.134 263.37 115.853 263.37 115.508C263.37 115.162 263.619 114.882 263.927 114.882C264.235 114.882 264.485 115.162 264.485 115.508Z" fill="url(#paint67_linear_23_6705)" fill-opacity="0.7"/>
<path d="M189.785 138.822C189.785 139.168 189.535 139.448 189.228 139.448C188.92 139.448 188.67 139.168 188.67 138.822C188.67 138.476 188.92 138.196 189.228 138.196C189.535 138.196 189.785 138.476 189.785 138.822Z" fill="url(#paint68_linear_23_6705)" fill-opacity="0.7"/>
<path d="M197.218 134.465C197.218 134.81 196.968 135.091 196.66 135.091C196.352 135.091 196.103 134.81 196.103 134.465C196.103 134.119 196.352 133.839 196.66 133.839C196.968 133.839 197.218 134.119 197.218 134.465Z" fill="url(#paint69_linear_23_6705)" fill-opacity="0.7"/>
<path d="M219.516 120.88C219.516 121.226 219.267 121.506 218.959 121.506C218.651 121.506 218.401 121.226 218.401 120.88C218.401 120.535 218.651 120.255 218.959 120.255C219.267 120.255 219.516 120.535 219.516 120.88Z" fill="url(#paint70_linear_23_6705)" fill-opacity="0.7"/>
<path d="M226.949 125.053C226.949 125.399 226.699 125.679 226.392 125.679C226.084 125.679 225.834 125.399 225.834 125.053C225.834 124.707 226.084 124.427 226.392 124.427C226.699 124.427 226.949 124.707 226.949 125.053Z" fill="url(#paint71_linear_23_6705)" fill-opacity="0.7"/>
<path d="M238.098 112.536C238.098 112.881 237.849 113.161 237.541 113.161C237.233 113.161 236.983 112.881 236.983 112.536C236.983 112.19 237.233 111.91 237.541 111.91C237.849 111.91 238.098 112.19 238.098 112.536Z" fill="url(#paint72_linear_23_6705)" fill-opacity="0.7"/>
<path d="M208.367 176.374C208.367 176.72 208.117 177 207.81 177C207.502 177 207.252 176.72 207.252 176.374C207.252 176.028 207.502 175.748 207.81 175.748C208.117 175.748 208.367 176.028 208.367 176.374Z" fill="url(#paint73_linear_23_6705)" fill-opacity="0.7"/>
<path d="M89.4423 176.374C89.4423 176.72 89.1927 177 88.8848 177C88.577 177 88.3274 176.72 88.3274 176.374C88.3274 176.028 88.577 175.748 88.8848 175.748C89.1927 175.748 89.4423 176.028 89.4423 176.374Z" fill="url(#paint74_linear_23_6705)" fill-opacity="0.7"/>
<path d="M115.622 163.222C115.622 163.567 115.372 163.848 115.064 163.848C114.756 163.848 114.507 163.567 114.507 163.222C114.507 162.876 114.756 162.596 115.064 162.596C115.372 162.596 115.622 162.876 115.622 163.222Z" fill="url(#paint75_linear_23_6705)" fill-opacity="0.7"/>
<path d="M2.81201 107.436C2.81201 107.782 2.56242 108.062 2.25455 108.062C1.94667 108.062 1.69709 107.782 1.69709 107.436C1.69709 107.091 1.94667 106.81 2.25455 106.81C2.56242 106.81 2.81201 107.091 2.81201 107.436Z" fill="url(#paint76_linear_23_6705)" fill-opacity="0.7"/>
<path d="M691.87 130.477C691.87 130.823 692.12 131.103 692.428 131.103C692.736 131.103 692.985 130.823 692.985 130.477C692.985 130.131 692.736 129.851 692.428 129.851C692.12 129.851 691.87 130.131 691.87 130.477Z" fill="url(#paint77_linear_23_6705)" fill-opacity="0.7"/>
<path d="M673.288 147.167C673.288 147.513 673.538 147.793 673.846 147.793C674.154 147.793 674.403 147.513 674.403 147.167C674.403 146.821 674.154 146.541 673.846 146.541C673.538 146.541 673.288 146.821 673.288 147.167Z" fill="url(#paint78_linear_23_6705)" fill-opacity="0.7"/>
<path d="M647.273 122.132C647.273 122.478 647.523 122.758 647.831 122.758C648.139 122.758 648.388 122.478 648.388 122.132C648.388 121.787 648.139 121.506 647.831 121.506C647.523 121.506 647.273 121.787 647.273 122.132Z" fill="url(#paint79_linear_23_6705)" fill-opacity="0.7"/>
<path d="M634.184 157.506C634.184 157.851 634.433 158.131 634.741 158.131C635.049 158.131 635.299 157.851 635.299 157.506C635.299 157.16 635.049 156.88 634.741 156.88C634.433 156.88 634.184 157.16 634.184 157.506Z" fill="url(#paint80_linear_23_6705)" fill-opacity="0.7"/>
<path d="M621.548 170.023C621.548 170.369 621.798 170.649 622.105 170.649C622.413 170.649 622.663 170.369 622.663 170.023C622.663 169.677 622.413 169.397 622.105 169.397C621.798 169.397 621.548 169.677 621.548 170.023Z" fill="url(#paint81_linear_23_6705)" fill-opacity="0.7"/>
<path d="M621.548 157.506C621.548 157.851 621.798 158.131 622.105 158.131C622.413 158.131 622.663 157.851 622.663 157.506C622.663 157.16 622.413 156.88 622.105 156.88C621.798 156.88 621.548 157.16 621.548 157.506Z" fill="url(#paint82_linear_23_6705)" fill-opacity="0.7"/>
<path d="M621.548 157.506C621.548 157.851 621.798 158.131 622.105 158.131C622.413 158.131 622.663 157.851 622.663 157.506C622.663 157.16 622.413 156.88 622.105 156.88C621.798 156.88 621.548 157.16 621.548 157.506Z" fill="url(#paint83_linear_23_6705)" fill-opacity="0.7"/>
<path d="M535.41 126.305C535.41 126.65 535.66 126.931 535.967 126.931C536.275 126.931 536.525 126.65 536.525 126.305C536.525 125.959 536.275 125.679 535.967 125.679C535.66 125.679 535.41 125.959 535.41 126.305Z" fill="url(#paint84_linear_23_6705)" fill-opacity="0.7"/>
<path d="M517.15 113.417C517.15 113.763 517.4 114.043 517.708 114.043C518.016 114.043 518.265 113.763 518.265 113.417C518.265 113.072 518.016 112.792 517.708 112.792C517.4 112.792 517.15 113.072 517.15 113.417Z" fill="url(#paint85_linear_23_6705)" fill-opacity="0.7"/>
<path d="M542.843 151.339C542.843 151.685 543.092 151.965 543.4 151.965C543.708 151.965 543.958 151.685 543.958 151.339C543.958 150.994 543.708 150.714 543.4 150.714C543.092 150.714 542.843 150.994 542.843 151.339Z" fill="url(#paint86_linear_23_6705)" fill-opacity="0.7"/>
<path d="M610.11 138.822C610.11 139.168 610.359 139.448 610.667 139.448C610.975 139.448 611.224 139.168 611.224 138.822C611.224 138.476 610.975 138.196 610.667 138.196C610.359 138.196 610.11 138.476 610.11 138.822Z" fill="url(#paint87_linear_23_6705)" fill-opacity="0.7"/>
<path d="M602.677 147.167C602.677 147.513 602.926 147.793 603.234 147.793C603.542 147.793 603.792 147.513 603.792 147.167C603.792 146.821 603.542 146.541 603.234 146.541C602.926 146.541 602.677 146.821 602.677 147.167Z" fill="url(#paint88_linear_23_6705)" fill-opacity="0.7"/>
<path d="M570.716 155.512C570.716 155.858 570.965 156.138 571.273 156.138C571.581 156.138 571.831 155.858 571.831 155.512C571.831 155.166 571.581 154.886 571.273 154.886C570.965 154.886 570.716 155.166 570.716 155.512Z" fill="url(#paint89_linear_23_6705)" fill-opacity="0.7"/>
<path d="M607.88 114.205C607.88 114.55 608.129 114.83 608.437 114.83C608.745 114.83 608.995 114.55 608.995 114.205C608.995 113.859 608.745 113.579 608.437 113.579C608.129 113.579 607.88 113.859 607.88 114.205Z" fill="url(#paint90_linear_23_6705)" fill-opacity="0.7"/>
<path d="M580.378 120.88C580.378 121.226 580.628 121.506 580.936 121.506C581.244 121.506 581.493 121.226 581.493 120.88C581.493 120.535 581.244 120.255 580.936 120.255C580.628 120.255 580.378 120.535 580.378 120.88Z" fill="url(#paint91_linear_23_6705)" fill-opacity="0.7"/>
<path d="M572.946 125.053C572.946 125.399 573.195 125.679 573.503 125.679C573.811 125.679 574.06 125.399 574.06 125.053C574.06 124.707 573.811 124.427 573.503 124.427C573.195 124.427 572.946 124.707 572.946 125.053Z" fill="url(#paint92_linear_23_6705)" fill-opacity="0.7"/>
<path d="M572.946 116.708C572.946 117.054 573.195 117.334 573.503 117.334C573.811 117.334 574.06 117.054 574.06 116.708C574.06 116.362 573.811 116.082 573.503 116.082C573.195 116.082 572.946 116.362 572.946 116.708Z" fill="url(#paint93_linear_23_6705)" fill-opacity="0.7"/>
<path d="M497.503 116.708C497.503 117.054 497.752 117.334 498.06 117.334C498.368 117.334 498.618 117.054 498.618 116.708C498.618 116.362 498.368 116.082 498.06 116.082C497.752 116.082 497.503 116.362 497.503 116.708Z" fill="url(#paint94_linear_23_6705)" fill-opacity="0.7"/>
<path d="M591.528 176.374C591.528 176.72 591.777 177 592.085 177C592.393 177 592.642 176.72 592.642 176.374C592.642 176.028 592.393 175.748 592.085 175.748C591.777 175.748 591.528 176.028 591.528 176.374Z" fill="url(#paint95_linear_23_6705)" fill-opacity="0.7"/>
<path d="M710.452 176.374C710.452 176.72 710.702 177 711.01 177C711.318 177 711.567 176.72 711.567 176.374C711.567 176.028 711.318 175.748 711.01 175.748C710.702 175.748 710.452 176.028 710.452 176.374Z" fill="url(#paint96_linear_23_6705)" fill-opacity="0.7"/>
<path d="M695.587 163.857C695.587 164.202 695.836 164.483 696.144 164.483C696.452 164.483 696.702 164.202 696.702 163.857C696.702 163.511 696.452 163.231 696.144 163.231C695.836 163.231 695.587 163.511 695.587 163.857Z" fill="url(#paint97_linear_23_6705)" fill-opacity="0.7"/>
<path d="M717.885 113.787C717.885 114.133 718.135 114.413 718.443 114.413C718.75 114.413 719 114.133 719 113.787C719 113.442 718.75 113.161 718.443 113.161C718.135 113.161 717.885 113.442 717.885 113.787Z" fill="url(#paint98_linear_23_6705)" fill-opacity="0.7"/>
<path d="M713.797 122.132C713.797 122.478 714.047 122.758 714.355 122.758C714.662 122.758 714.912 122.478 714.912 122.132C714.912 121.787 714.662 121.506 714.355 121.506C714.047 121.506 713.797 121.787 713.797 122.132Z" fill="url(#paint99_linear_23_6705)" fill-opacity="0.7"/>
<path d="M179.209 107.207C179.209 107.553 178.959 107.833 178.651 107.833C178.343 107.833 178.094 107.553 178.094 107.207C178.094 106.861 178.343 106.581 178.651 106.581C178.959 106.581 179.209 106.861 179.209 107.207Z" fill="url(#paint100_linear_23_6705)" fill-opacity="0.7"/>
<path d="M536.739 103.917C536.739 104.263 536.989 104.543 537.297 104.543C537.605 104.543 537.854 104.263 537.854 103.917C537.854 103.571 537.605 103.291 537.297 103.291C536.989 103.291 536.739 103.571 536.739 103.917Z" fill="url(#paint101_linear_23_6705)" fill-opacity="0.7"/>
<path d="M139.9 162.092C139.9 162.438 139.651 162.718 139.343 162.718C139.035 162.718 138.785 162.438 138.785 162.092C138.785 161.747 139.035 161.466 139.343 161.466C139.651 161.466 139.9 161.747 139.9 162.092Z" fill="url(#paint102_linear_23_6705)" fill-opacity="0.7"/>
<path d="M119.372 112.066C119.372 112.411 119.123 112.692 118.815 112.692C118.507 112.692 118.257 112.411 118.257 112.066C118.257 111.72 118.507 111.44 118.815 111.44C119.123 111.44 119.372 111.72 119.372 112.066Z" fill="url(#paint103_linear_23_6705)" fill-opacity="0.7"/>
<path d="M98.6509 156.235C98.6509 156.581 98.4013 156.861 98.0935 156.861C97.7856 156.861 97.536 156.581 97.536 156.235C97.536 155.89 97.7856 155.61 98.0935 155.61C98.4013 155.61 98.6509 155.89 98.6509 156.235Z" fill="url(#paint104_linear_23_6705)" fill-opacity="0.7"/>
<path d="M221.292 144.106C221.292 144.452 221.042 144.732 220.735 144.732C220.427 144.732 220.177 144.452 220.177 144.106C220.177 143.761 220.427 143.481 220.735 143.481C221.042 143.481 221.292 143.761 221.292 144.106Z" fill="url(#paint105_linear_23_6705)" fill-opacity="0.7"/>
<path d="M304.083 121.859C304.083 122.205 303.834 122.485 303.526 122.485C303.218 122.485 302.968 122.205 302.968 121.859C302.968 121.513 303.218 121.233 303.526 121.233C303.834 121.233 304.083 121.513 304.083 121.859Z" fill="url(#paint106_linear_23_6705)" fill-opacity="0.7"/>
<path d="M309.74 115.508C309.74 115.853 309.491 116.134 309.183 116.134C308.875 116.134 308.625 115.853 308.625 115.508C308.625 115.162 308.875 114.882 309.183 114.882C309.491 114.882 309.74 115.162 309.74 115.508Z" fill="url(#paint107_linear_23_6705)" fill-opacity="0.7"/>
<path d="M388.938 115.508C388.938 115.853 388.688 116.134 388.38 116.134C388.072 116.134 387.823 115.853 387.823 115.508C387.823 115.162 388.072 114.882 388.38 114.882C388.688 114.882 388.938 115.162 388.938 115.508Z" fill="url(#paint108_linear_23_6705)" fill-opacity="0.7"/>
<path d="M428.536 109.157C428.536 109.502 428.287 109.782 427.979 109.782C427.671 109.782 427.422 109.502 427.422 109.157C427.422 108.811 427.671 108.531 427.979 108.531C428.287 108.531 428.536 108.811 428.536 109.157Z" fill="url(#paint109_linear_23_6705)" fill-opacity="0.7"/>
<path d="M439.85 115.508C439.85 115.853 439.601 116.134 439.293 116.134C438.985 116.134 438.736 115.853 438.736 115.508C438.736 115.162 438.985 114.882 439.293 114.882C439.601 114.882 439.85 115.162 439.85 115.508Z" fill="url(#paint110_linear_23_6705)" fill-opacity="0.7"/>
<path d="M8.46897 113.787C8.46897 114.133 8.21939 114.413 7.91151 114.413C7.60364 114.413 7.35405 114.133 7.35405 113.787C7.35405 113.442 7.60364 113.161 7.91151 113.161C8.21939 113.161 8.46897 113.442 8.46897 113.787Z" fill="url(#paint111_linear_23_6705)" fill-opacity="0.7"/>
<path d="M1.11492 163.961C1.11492 164.307 0.865336 164.587 0.557459 164.587C0.249583 164.587 0 164.307 0 163.961C0 163.616 0.249583 163.336 0.557459 163.336C0.865336 163.336 1.11492 163.616 1.11492 163.961Z" fill="url(#paint112_linear_23_6705)" fill-opacity="0.7"/>
<path d="M289.762 156.5C289.762 156.846 289.512 157.126 289.204 157.126C288.897 157.126 288.647 156.846 288.647 156.5C288.647 156.154 288.897 155.874 289.204 155.874C289.512 155.874 289.762 156.154 289.762 156.5Z" fill="url(#paint113_linear_23_6705)" fill-opacity="0.7"/>
<path d="M329.361 162.851C329.361 163.197 329.111 163.477 328.803 163.477C328.495 163.477 328.246 163.197 328.246 162.851C328.246 162.505 328.495 162.225 328.803 162.225C329.111 162.225 329.361 162.505 329.361 162.851Z" fill="url(#paint114_linear_23_6705)" fill-opacity="0.7"/>
<path d="M335.018 156.5C335.018 156.846 334.768 157.126 334.46 157.126C334.152 157.126 333.903 156.846 333.903 156.5C333.903 156.154 334.152 155.874 334.46 155.874C334.768 155.874 335.018 156.154 335.018 156.5Z" fill="url(#paint115_linear_23_6705)" fill-opacity="0.7"/>
<path d="M414.215 156.5C414.215 156.846 413.966 157.126 413.658 157.126C413.35 157.126 413.1 156.846 413.1 156.5C413.1 156.154 413.35 155.874 413.658 155.874C413.966 155.874 414.215 156.154 414.215 156.5Z" fill="url(#paint116_linear_23_6705)" fill-opacity="0.7"/>
<path d="M453.814 150.149C453.814 150.494 453.564 150.775 453.256 150.775C452.949 150.775 452.699 150.494 452.699 150.149C452.699 149.803 452.949 149.523 453.256 149.523C453.564 149.523 453.814 149.803 453.814 150.149Z" fill="url(#paint117_linear_23_6705)" fill-opacity="0.7"/>
<path d="M465.128 156.5C465.128 156.846 464.878 157.126 464.57 157.126C464.262 157.126 464.013 156.846 464.013 156.5C464.013 156.154 464.262 155.874 464.57 155.874C464.878 155.874 465.128 156.154 465.128 156.5Z" fill="url(#paint118_linear_23_6705)" fill-opacity="0.7"/>
<path d="M355.235 121.814C355.235 122.16 354.985 122.44 354.677 122.44C354.369 122.44 354.12 122.16 354.12 121.814C354.12 121.469 354.369 121.188 354.677 121.188C354.985 121.188 355.235 121.469 355.235 121.814Z" fill="url(#paint119_linear_23_6705)" fill-opacity="0.7"/>
<path d="M52.9306 147.995C52.9306 148.341 52.681 148.621 52.3731 148.621C52.0652 148.621 51.8156 148.341 51.8156 147.995C51.8156 147.649 52.0652 147.369 52.3731 147.369C52.681 147.369 52.9306 147.649 52.9306 147.995Z" fill="url(#paint120_linear_23_6705)" fill-opacity="0.7"/>
<path d="M62.1392 127.856C62.1392 128.202 61.8896 128.482 61.5817 128.482C61.2739 128.482 61.0243 128.202 61.0243 127.856C61.0243 127.51 61.2739 127.23 61.5817 127.23C61.8896 127.23 62.1392 127.51 62.1392 127.856Z" fill="url(#paint121_linear_23_6705)" fill-opacity="0.7"/>
</g>
<defs>
<filter id="filter0_f_23_6705" x="-84" y="216" width="866" height="638" filterUnits="userSpaceOnUse" color-interpolation-filters="sRGB">
<feFlood flood-opacity="0" result="BackgroundImageFix"/>
<feBlend mode="normal" in="SourceGraphic" in2="BackgroundImageFix" result="shape"/>
<feGaussianBlur stdDeviation="30" result="effect1_foregroundBlur_23_6705"/>
</filter>
<linearGradient id="paint0_linear_23_6705" x1="349" y1="276" x2="349" y2="794" gradientUnits="userSpaceOnUse">
<stop stop-color="#F02E65"/>
<stop offset="0.653751" stop-color="#F02E65" stop-opacity="0.2"/>
<stop offset="0.699927" stop-color="#F02E65" stop-opacity="0.2"/>
<stop offset="1" stop-color="#F02E65" stop-opacity="0"/>
</linearGradient>
<linearGradient id="paint1_linear_23_6705" x1="347" y1="303" x2="347" y2="821" gradientUnits="userSpaceOnUse">
<stop stop-color="#FF6893"/>
<stop offset="0.0582362" stop-color="#F02E65"/>
<stop offset="0.653751" stop-color="#F02E65" stop-opacity="0.2"/>
<stop offset="0.699927" stop-color="#F02E65" stop-opacity="0.2"/>
<stop offset="1" stop-color="#F02E65" stop-opacity="0"/>
</linearGradient>
<linearGradient id="paint2_linear_23_6705" x1="399.947" y1="24.8705" x2="399.947" y2="341.361" gradientUnits="userSpaceOnUse">
<stop stop-color="white"/>
<stop offset="1" stop-color="white" stop-opacity="0"/>
</linearGradient>
<linearGradient id="paint3_linear_23_6705" x1="399.947" y1="24.8705" x2="399.947" y2="341.361" gradientUnits="userSpaceOnUse">
<stop stop-color="white"/>
<stop offset="1" stop-color="white" stop-opacity="0"/>
</linearGradient>
<linearGradient id="paint4_linear_23_6705" x1="399.947" y1="24.8705" x2="399.947" y2="341.361" gradientUnits="userSpaceOnUse">
<stop stop-color="white"/>
<stop offset="1" stop-color="white" stop-opacity="0"/>
</linearGradient>
<linearGradient id="paint5_linear_23_6705" x1="399.947" y1="24.8705" x2="399.947" y2="341.361" gradientUnits="userSpaceOnUse">
<stop stop-color="white"/>
<stop offset="1" stop-color="white" stop-opacity="0"/>
</linearGradient>
<linearGradient id="paint6_linear_23_6705" x1="399.947" y1="24.8705" x2="399.947" y2="341.361" gradientUnits="userSpaceOnUse">
<stop stop-color="white"/>
<stop offset="1" stop-color="white" stop-opacity="0"/>
</linearGradient>
<linearGradient id="paint7_linear_23_6705" x1="399.947" y1="24.8705" x2="399.947" y2="341.361" gradientUnits="userSpaceOnUse">
<stop stop-color="white"/>
<stop offset="1" stop-color="white" stop-opacity="0"/>
</linearGradient>
<linearGradient id="paint8_linear_23_6705" x1="399.947" y1="24.8705" x2="399.947" y2="341.361" gradientUnits="userSpaceOnUse">
<stop stop-color="white"/>
<stop offset="1" stop-color="white" stop-opacity="0"/>
</linearGradient>
<linearGradient id="paint9_linear_23_6705" x1="399.947" y1="24.8705" x2="399.947" y2="341.361" gradientUnits="userSpaceOnUse">
<stop stop-color="white"/>
<stop offset="1" stop-color="white" stop-opacity="0"/>
</linearGradient>
<linearGradient id="paint10_linear_23_6705" x1="399.947" y1="24.8705" x2="399.947" y2="341.361" gradientUnits="userSpaceOnUse">
<stop stop-color="white"/>
<stop offset="1" stop-color="white" stop-opacity="0"/>
</linearGradient>
<linearGradient id="paint11_linear_23_6705" x1="399.947" y1="24.8705" x2="399.947" y2="341.361" gradientUnits="userSpaceOnUse">
<stop stop-color="white"/>
<stop offset="1" stop-color="white" stop-opacity="0"/>
</linearGradient>
<linearGradient id="paint12_linear_23_6705" x1="399.947" y1="24.8705" x2="399.947" y2="341.361" gradientUnits="userSpaceOnUse">
<stop stop-color="white"/>
<stop offset="1" stop-color="white" stop-opacity="0"/>
</linearGradient>
<linearGradient id="paint13_linear_23_6705" x1="399.947" y1="24.8705" x2="399.947" y2="341.361" gradientUnits="userSpaceOnUse">
<stop stop-color="white"/>
<stop offset="1" stop-color="white" stop-opacity="0"/>
</linearGradient>
<linearGradient id="paint14_linear_23_6705" x1="399.947" y1="24.8705" x2="399.947" y2="341.361" gradientUnits="userSpaceOnUse">
<stop stop-color="white"/>
<stop offset="1" stop-color="white" stop-opacity="0"/>
</linearGradient>
<linearGradient id="paint15_linear_23_6705" x1="399.947" y1="24.8705" x2="399.947" y2="341.361" gradientUnits="userSpaceOnUse">
<stop stop-color="white"/>
<stop offset="1" stop-color="white" stop-opacity="0"/>
</linearGradient>
<linearGradient id="paint16_linear_23_6705" x1="399.947" y1="24.8705" x2="399.947" y2="341.361" gradientUnits="userSpaceOnUse">
<stop stop-color="white"/>
<stop offset="1" stop-color="white" stop-opacity="0"/>
</linearGradient>
<linearGradient id="paint17_linear_23_6705" x1="399.947" y1="24.8705" x2="399.947" y2="341.361" gradientUnits="userSpaceOnUse">
<stop stop-color="white"/>
<stop offset="1" stop-color="white" stop-opacity="0"/>
</linearGradient>
<linearGradient id="paint18_linear_23_6705" x1="399.947" y1="24.8705" x2="399.947" y2="341.361" gradientUnits="userSpaceOnUse">
<stop stop-color="white"/>
<stop offset="1" stop-color="white" stop-opacity="0"/>
</linearGradient>
<linearGradient id="paint19_linear_23_6705" x1="399.947" y1="24.8705" x2="399.947" y2="341.361" gradientUnits="userSpaceOnUse">
<stop stop-color="white"/>
<stop offset="1" stop-color="white" stop-opacity="0"/>
</linearGradient>
<linearGradient id="paint20_linear_23_6705" x1="399.947" y1="24.8705" x2="399.947" y2="341.361" gradientUnits="userSpaceOnUse">
<stop stop-color="white"/>
<stop offset="1" stop-color="white" stop-opacity="0"/>
</linearGradient>
<linearGradient id="paint21_linear_23_6705" x1="399.947" y1="24.8705" x2="399.947" y2="341.361" gradientUnits="userSpaceOnUse">
<stop stop-color="white"/>
<stop offset="1" stop-color="white" stop-opacity="0"/>
</linearGradient>
<linearGradient id="paint22_linear_23_6705" x1="399.947" y1="24.8705" x2="399.947" y2="341.361" gradientUnits="userSpaceOnUse">
<stop stop-color="white"/>
<stop offset="1" stop-color="white" stop-opacity="0"/>
</linearGradient>
<linearGradient id="paint23_linear_23_6705" x1="399.947" y1="24.8705" x2="399.947" y2="341.361" gradientUnits="userSpaceOnUse">
<stop stop-color="white"/>
<stop offset="1" stop-color="white" stop-opacity="0"/>
</linearGradient>
<linearGradient id="paint24_linear_23_6705" x1="399.947" y1="24.8705" x2="399.947" y2="341.361" gradientUnits="userSpaceOnUse">
<stop stop-color="white"/>
<stop offset="1" stop-color="white" stop-opacity="0"/>
</linearGradient>
<linearGradient id="paint25_linear_23_6705" x1="399.947" y1="24.8705" x2="399.947" y2="341.361" gradientUnits="userSpaceOnUse">
<stop stop-color="white"/>
<stop offset="1" stop-color="white" stop-opacity="0"/>
</linearGradient>
<linearGradient id="paint26_linear_23_6705" x1="399.947" y1="24.8705" x2="399.947" y2="341.361" gradientUnits="userSpaceOnUse">
<stop stop-color="white"/>
<stop offset="1" stop-color="white" stop-opacity="0"/>
</linearGradient>
<linearGradient id="paint27_linear_23_6705" x1="399.947" y1="24.8705" x2="399.947" y2="341.361" gradientUnits="userSpaceOnUse">
<stop stop-color="white"/>
<stop offset="1" stop-color="white" stop-opacity="0"/>
</linearGradient>
<linearGradient id="paint28_linear_23_6705" x1="399.947" y1="24.8705" x2="399.947" y2="341.361" gradientUnits="userSpaceOnUse">
<stop stop-color="white"/>
<stop offset="1" stop-color="white" stop-opacity="0"/>
</linearGradient>
<linearGradient id="paint29_linear_23_6705" x1="399.947" y1="24.8705" x2="399.947" y2="341.361" gradientUnits="userSpaceOnUse">
<stop stop-color="white"/>
<stop offset="1" stop-color="white" stop-opacity="0"/>
</linearGradient>
<linearGradient id="paint30_linear_23_6705" x1="399.947" y1="24.8705" x2="399.947" y2="341.361" gradientUnits="userSpaceOnUse">
<stop stop-color="white"/>
<stop offset="1" stop-color="white" stop-opacity="0"/>
</linearGradient>
<linearGradient id="paint31_linear_23_6705" x1="399.947" y1="24.8705" x2="399.947" y2="341.361" gradientUnits="userSpaceOnUse">
<stop stop-color="white"/>
<stop offset="1" stop-color="white" stop-opacity="0"/>
</linearGradient>
<linearGradient id="paint32_linear_23_6705" x1="399.947" y1="24.8705" x2="399.947" y2="341.361" gradientUnits="userSpaceOnUse">
<stop stop-color="white"/>
<stop offset="1" stop-color="white" stop-opacity="0"/>
</linearGradient>
<linearGradient id="paint33_linear_23_6705" x1="399.947" y1="24.8705" x2="399.947" y2="341.361" gradientUnits="userSpaceOnUse">
<stop stop-color="white"/>
<stop offset="1" stop-color="white" stop-opacity="0"/>
</linearGradient>
<linearGradient id="paint34_linear_23_6705" x1="399.947" y1="24.8705" x2="399.947" y2="341.361" gradientUnits="userSpaceOnUse">
<stop stop-color="white"/>
<stop offset="1" stop-color="white" stop-opacity="0"/>
</linearGradient>
<linearGradient id="paint35_linear_23_6705" x1="399.947" y1="24.8705" x2="399.947" y2="341.361" gradientUnits="userSpaceOnUse">
<stop stop-color="white"/>
<stop offset="1" stop-color="white" stop-opacity="0"/>
</linearGradient>
<linearGradient id="paint36_linear_23_6705" x1="399.947" y1="24.8705" x2="399.947" y2="341.361" gradientUnits="userSpaceOnUse">
<stop stop-color="white"/>
<stop offset="1" stop-color="white" stop-opacity="0"/>
</linearGradient>
<linearGradient id="paint37_linear_23_6705" x1="399.947" y1="24.8705" x2="399.947" y2="341.361" gradientUnits="userSpaceOnUse">
<stop stop-color="white"/>
<stop offset="1" stop-color="white" stop-opacity="0"/>
</linearGradient>
<linearGradient id="paint38_linear_23_6705" x1="399.947" y1="24.8705" x2="399.947" y2="341.361" gradientUnits="userSpaceOnUse">
<stop stop-color="white"/>
<stop offset="1" stop-color="white" stop-opacity="0"/>
</linearGradient>
<linearGradient id="paint39_linear_23_6705" x1="399.947" y1="24.8705" x2="399.947" y2="341.361" gradientUnits="userSpaceOnUse">
<stop stop-color="white"/>
<stop offset="1" stop-color="white" stop-opacity="0"/>
</linearGradient>
<linearGradient id="paint40_linear_23_6705" x1="399.947" y1="24.8705" x2="399.947" y2="341.361" gradientUnits="userSpaceOnUse">
<stop stop-color="white"/>
<stop offset="1" stop-color="white" stop-opacity="0"/>
</linearGradient>
<linearGradient id="paint41_linear_23_6705" x1="399.947" y1="24.8705" x2="399.947" y2="341.361" gradientUnits="userSpaceOnUse">
<stop stop-color="white"/>
<stop offset="1" stop-color="white" stop-opacity="0"/>
</linearGradient>
<linearGradient id="paint42_linear_23_6705" x1="399.947" y1="24.8705" x2="399.947" y2="341.361" gradientUnits="userSpaceOnUse">
<stop stop-color="white"/>
<stop offset="1" stop-color="white" stop-opacity="0"/>
</linearGradient>
<linearGradient id="paint43_linear_23_6705" x1="399.947" y1="24.8705" x2="399.947" y2="341.361" gradientUnits="userSpaceOnUse">
<stop stop-color="white"/>
<stop offset="1" stop-color="white" stop-opacity="0"/>
</linearGradient>
<linearGradient id="paint44_linear_23_6705" x1="399.947" y1="24.8705" x2="399.947" y2="341.361" gradientUnits="userSpaceOnUse">
<stop stop-color="white"/>
<stop offset="1" stop-color="white" stop-opacity="0"/>
</linearGradient>
<linearGradient id="paint45_linear_23_6705" x1="399.947" y1="24.8705" x2="399.947" y2="341.361" gradientUnits="userSpaceOnUse">
<stop stop-color="white"/>
<stop offset="1" stop-color="white" stop-opacity="0"/>
</linearGradient>
<linearGradient id="paint46_linear_23_6705" x1="399.947" y1="24.8705" x2="399.947" y2="341.361" gradientUnits="userSpaceOnUse">
<stop stop-color="white"/>
<stop offset="1" stop-color="white" stop-opacity="0"/>
</linearGradient>
<linearGradient id="paint47_linear_23_6705" x1="399.947" y1="24.8705" x2="399.947" y2="341.361" gradientUnits="userSpaceOnUse">
<stop stop-color="white"/>
<stop offset="1" stop-color="white" stop-opacity="0"/>
</linearGradient>
<linearGradient id="paint48_linear_23_6705" x1="399.947" y1="24.8705" x2="399.947" y2="341.361" gradientUnits="userSpaceOnUse">
<stop stop-color="white"/>
<stop offset="1" stop-color="white" stop-opacity="0"/>
</linearGradient>
<linearGradient id="paint49_linear_23_6705" x1="399.947" y1="24.8705" x2="399.947" y2="341.361" gradientUnits="userSpaceOnUse">
<stop stop-color="white"/>
<stop offset="1" stop-color="white" stop-opacity="0"/>
</linearGradient>
<linearGradient id="paint50_linear_23_6705" x1="399.947" y1="24.8705" x2="399.947" y2="341.361" gradientUnits="userSpaceOnUse">
<stop stop-color="white"/>
<stop offset="1" stop-color="white" stop-opacity="0"/>
</linearGradient>
<linearGradient id="paint51_linear_23_6705" x1="399.947" y1="24.8705" x2="399.947" y2="341.361" gradientUnits="userSpaceOnUse">
<stop stop-color="white"/>
<stop offset="1" stop-color="white" stop-opacity="0"/>
</linearGradient>
<linearGradient id="paint52_linear_23_6705" x1="399.947" y1="24.8705" x2="399.947" y2="341.361" gradientUnits="userSpaceOnUse">
<stop stop-color="white"/>
<stop offset="1" stop-color="white" stop-opacity="0"/>
</linearGradient>
<linearGradient id="paint53_linear_23_6705" x1="399.947" y1="24.8705" x2="399.947" y2="341.361" gradientUnits="userSpaceOnUse">
<stop stop-color="white"/>
<stop offset="1" stop-color="white" stop-opacity="0"/>
</linearGradient>
<linearGradient id="paint54_linear_23_6705" x1="399.947" y1="24.8705" x2="399.947" y2="341.361" gradientUnits="userSpaceOnUse">
<stop stop-color="white"/>
<stop offset="1" stop-color="white" stop-opacity="0"/>
</linearGradient>
<linearGradient id="paint55_linear_23_6705" x1="399.947" y1="24.8705" x2="399.947" y2="341.361" gradientUnits="userSpaceOnUse">
<stop stop-color="white"/>
<stop offset="1" stop-color="white" stop-opacity="0"/>
</linearGradient>
<linearGradient id="paint56_linear_23_6705" x1="399.947" y1="24.8705" x2="399.947" y2="341.361" gradientUnits="userSpaceOnUse">
<stop stop-color="white"/>
<stop offset="1" stop-color="white" stop-opacity="0"/>
</linearGradient>
<linearGradient id="paint57_linear_23_6705" x1="399.947" y1="24.8705" x2="399.947" y2="341.361" gradientUnits="userSpaceOnUse">
<stop stop-color="white"/>
<stop offset="1" stop-color="white" stop-opacity="0"/>
</linearGradient>
<linearGradient id="paint58_linear_23_6705" x1="399.947" y1="24.8705" x2="399.947" y2="341.361" gradientUnits="userSpaceOnUse">
<stop stop-color="white"/>
<stop offset="1" stop-color="white" stop-opacity="0"/>
</linearGradient>
<linearGradient id="paint59_linear_23_6705" x1="399.947" y1="24.8705" x2="399.947" y2="341.361" gradientUnits="userSpaceOnUse">
<stop stop-color="white"/>
<stop offset="1" stop-color="white" stop-opacity="0"/>
</linearGradient>
<linearGradient id="paint60_linear_23_6705" x1="399.947" y1="24.8705" x2="399.947" y2="341.361" gradientUnits="userSpaceOnUse">
<stop stop-color="white"/>
<stop offset="1" stop-color="white" stop-opacity="0"/>
</linearGradient>
<linearGradient id="paint61_linear_23_6705" x1="399.947" y1="24.8705" x2="399.947" y2="341.361" gradientUnits="userSpaceOnUse">
<stop stop-color="white"/>
<stop offset="1" stop-color="white" stop-opacity="0"/>
</linearGradient>
<linearGradient id="paint62_linear_23_6705" x1="399.947" y1="24.8705" x2="399.947" y2="341.361" gradientUnits="userSpaceOnUse">
<stop stop-color="white"/>
<stop offset="1" stop-color="white" stop-opacity="0"/>
</linearGradient>
<linearGradient id="paint63_linear_23_6705" x1="399.947" y1="24.8705" x2="399.947" y2="341.361" gradientUnits="userSpaceOnUse">
<stop stop-color="white"/>
<stop offset="1" stop-color="white" stop-opacity="0"/>
</linearGradient>
<linearGradient id="paint64_linear_23_6705" x1="399.947" y1="24.8705" x2="399.947" y2="341.361" gradientUnits="userSpaceOnUse">
<stop stop-color="white"/>
<stop offset="1" stop-color="white" stop-opacity="0"/>
</linearGradient>
<linearGradient id="paint65_linear_23_6705" x1="399.947" y1="24.8705" x2="399.947" y2="341.361" gradientUnits="userSpaceOnUse">
<stop stop-color="white"/>
<stop offset="1" stop-color="white" stop-opacity="0"/>
</linearGradient>
<linearGradient id="paint66_linear_23_6705" x1="399.947" y1="24.8705" x2="399.947" y2="341.361" gradientUnits="userSpaceOnUse">
<stop stop-color="white"/>
<stop offset="1" stop-color="white" stop-opacity="0"/>
</linearGradient>
<linearGradient id="paint67_linear_23_6705" x1="399.947" y1="24.8705" x2="399.947" y2="341.361" gradientUnits="userSpaceOnUse">
<stop stop-color="white"/>
<stop offset="1" stop-color="white" stop-opacity="0"/>
</linearGradient>
<linearGradient id="paint68_linear_23_6705" x1="399.947" y1="24.8705" x2="399.947" y2="341.361" gradientUnits="userSpaceOnUse">
<stop stop-color="white"/>
<stop offset="1" stop-color="white" stop-opacity="0"/>
</linearGradient>
<linearGradient id="paint69_linear_23_6705" x1="399.947" y1="24.8705" x2="399.947" y2="341.361" gradientUnits="userSpaceOnUse">
<stop stop-color="white"/>
<stop offset="1" stop-color="white" stop-opacity="0"/>
</linearGradient>
<linearGradient id="paint70_linear_23_6705" x1="399.947" y1="24.8705" x2="399.947" y2="341.361" gradientUnits="userSpaceOnUse">
<stop stop-color="white"/>
<stop offset="1" stop-color="white" stop-opacity="0"/>
</linearGradient>
<linearGradient id="paint71_linear_23_6705" x1="399.947" y1="24.8705" x2="399.947" y2="341.361" gradientUnits="userSpaceOnUse">
<stop stop-color="white"/>
<stop offset="1" stop-color="white" stop-opacity="0"/>
</linearGradient>
<linearGradient id="paint72_linear_23_6705" x1="399.947" y1="24.8705" x2="399.947" y2="341.361" gradientUnits="userSpaceOnUse">
<stop stop-color="white"/>
<stop offset="1" stop-color="white" stop-opacity="0"/>
</linearGradient>
<linearGradient id="paint73_linear_23_6705" x1="399.947" y1="24.8705" x2="399.947" y2="341.361" gradientUnits="userSpaceOnUse">
<stop stop-color="white"/>
<stop offset="1" stop-color="white" stop-opacity="0"/>
</linearGradient>
<linearGradient id="paint74_linear_23_6705" x1="399.947" y1="24.8705" x2="399.947" y2="341.361" gradientUnits="userSpaceOnUse">
<stop stop-color="white"/>
<stop offset="1" stop-color="white" stop-opacity="0"/>
</linearGradient>
<linearGradient id="paint75_linear_23_6705" x1="399.947" y1="24.8705" x2="399.947" y2="341.361" gradientUnits="userSpaceOnUse">
<stop stop-color="white"/>
<stop offset="1" stop-color="white" stop-opacity="0"/>
</linearGradient>
<linearGradient id="paint76_linear_23_6705" x1="399.947" y1="24.8705" x2="399.947" y2="341.361" gradientUnits="userSpaceOnUse">
<stop stop-color="white"/>
<stop offset="1" stop-color="white" stop-opacity="0"/>
</linearGradient>
<linearGradient id="paint77_linear_23_6705" x1="399.947" y1="24.8705" x2="399.947" y2="341.361" gradientUnits="userSpaceOnUse">
<stop stop-color="white"/>
<stop offset="1" stop-color="white" stop-opacity="0"/>
</linearGradient>
<linearGradient id="paint78_linear_23_6705" x1="399.947" y1="24.8705" x2="399.947" y2="341.361" gradientUnits="userSpaceOnUse">
<stop stop-color="white"/>
<stop offset="1" stop-color="white" stop-opacity="0"/>
</linearGradient>
<linearGradient id="paint79_linear_23_6705" x1="399.947" y1="24.8705" x2="399.947" y2="341.361" gradientUnits="userSpaceOnUse">
<stop stop-color="white"/>
<stop offset="1" stop-color="white" stop-opacity="0"/>
</linearGradient>
<linearGradient id="paint80_linear_23_6705" x1="399.947" y1="24.8705" x2="399.947" y2="341.361" gradientUnits="userSpaceOnUse">
<stop stop-color="white"/>
<stop offset="1" stop-color="white" stop-opacity="0"/>
</linearGradient>
<linearGradient id="paint81_linear_23_6705" x1="399.947" y1="24.8705" x2="399.947" y2="341.361" gradientUnits="userSpaceOnUse">
<stop stop-color="white"/>
<stop offset="1" stop-color="white" stop-opacity="0"/>
</linearGradient>
<linearGradient id="paint82_linear_23_6705" x1="399.947" y1="24.8705" x2="399.947" y2="341.361" gradientUnits="userSpaceOnUse">
<stop stop-color="white"/>
<stop offset="1" stop-color="white" stop-opacity="0"/>
</linearGradient>
<linearGradient id="paint83_linear_23_6705" x1="399.947" y1="24.8705" x2="399.947" y2="341.361" gradientUnits="userSpaceOnUse">
<stop stop-color="white"/>
<stop offset="1" stop-color="white" stop-opacity="0"/>
</linearGradient>
<linearGradient id="paint84_linear_23_6705" x1="399.947" y1="24.8705" x2="399.947" y2="341.361" gradientUnits="userSpaceOnUse">
<stop stop-color="white"/>
<stop offset="1" stop-color="white" stop-opacity="0"/>
</linearGradient>
<linearGradient id="paint85_linear_23_6705" x1="399.947" y1="24.8705" x2="399.947" y2="341.361" gradientUnits="userSpaceOnUse">
<stop stop-color="white"/>
<stop offset="1" stop-color="white" stop-opacity="0"/>
</linearGradient>
<linearGradient id="paint86_linear_23_6705" x1="399.947" y1="24.8705" x2="399.947" y2="341.361" gradientUnits="userSpaceOnUse">
<stop stop-color="white"/>
<stop offset="1" stop-color="white" stop-opacity="0"/>
</linearGradient>
<linearGradient id="paint87_linear_23_6705" x1="399.947" y1="24.8705" x2="399.947" y2="341.361" gradientUnits="userSpaceOnUse">
<stop stop-color="white"/>
<stop offset="1" stop-color="white" stop-opacity="0"/>
</linearGradient>
<linearGradient id="paint88_linear_23_6705" x1="399.947" y1="24.8705" x2="399.947" y2="341.361" gradientUnits="userSpaceOnUse">
<stop stop-color="white"/>
<stop offset="1" stop-color="white" stop-opacity="0"/>
</linearGradient>
<linearGradient id="paint89_linear_23_6705" x1="399.947" y1="24.8705" x2="399.947" y2="341.361" gradientUnits="userSpaceOnUse">
<stop stop-color="white"/>
<stop offset="1" stop-color="white" stop-opacity="0"/>
</linearGradient>
<linearGradient id="paint90_linear_23_6705" x1="399.947" y1="24.8705" x2="399.947" y2="341.361" gradientUnits="userSpaceOnUse">
<stop stop-color="white"/>
<stop offset="1" stop-color="white" stop-opacity="0"/>
</linearGradient>
<linearGradient id="paint91_linear_23_6705" x1="399.947" y1="24.8705" x2="399.947" y2="341.361" gradientUnits="userSpaceOnUse">
<stop stop-color="white"/>
<stop offset="1" stop-color="white" stop-opacity="0"/>
</linearGradient>
<linearGradient id="paint92_linear_23_6705" x1="399.947" y1="24.8705" x2="399.947" y2="341.361" gradientUnits="userSpaceOnUse">
<stop stop-color="white"/>
<stop offset="1" stop-color="white" stop-opacity="0"/>
</linearGradient>
<linearGradient id="paint93_linear_23_6705" x1="399.947" y1="24.8705" x2="399.947" y2="341.361" gradientUnits="userSpaceOnUse">
<stop stop-color="white"/>
<stop offset="1" stop-color="white" stop-opacity="0"/>
</linearGradient>
<linearGradient id="paint94_linear_23_6705" x1="399.947" y1="24.8705" x2="399.947" y2="341.361" gradientUnits="userSpaceOnUse">
<stop stop-color="white"/>
<stop offset="1" stop-color="white" stop-opacity="0"/>
</linearGradient>
<linearGradient id="paint95_linear_23_6705" x1="399.947" y1="24.8705" x2="399.947" y2="341.361" gradientUnits="userSpaceOnUse">
<stop stop-color="white"/>
<stop offset="1" stop-color="white" stop-opacity="0"/>
</linearGradient>
<linearGradient id="paint96_linear_23_6705" x1="399.947" y1="24.8705" x2="399.947" y2="341.361" gradientUnits="userSpaceOnUse">
<stop stop-color="white"/>
<stop offset="1" stop-color="white" stop-opacity="0"/>
</linearGradient>
<linearGradient id="paint97_linear_23_6705" x1="399.947" y1="24.8705" x2="399.947" y2="341.361" gradientUnits="userSpaceOnUse">
<stop stop-color="white"/>
<stop offset="1" stop-color="white" stop-opacity="0"/>
</linearGradient>
<linearGradient id="paint98_linear_23_6705" x1="399.947" y1="24.8705" x2="399.947" y2="341.361" gradientUnits="userSpaceOnUse">
<stop stop-color="white"/>
<stop offset="1" stop-color="white" stop-opacity="0"/>
</linearGradient>
<linearGradient id="paint99_linear_23_6705" x1="399.947" y1="24.8705" x2="399.947" y2="341.361" gradientUnits="userSpaceOnUse">
<stop stop-color="white"/>
<stop offset="1" stop-color="white" stop-opacity="0"/>
</linearGradient>
<linearGradient id="paint100_linear_23_6705" x1="399.947" y1="24.8705" x2="399.947" y2="341.361" gradientUnits="userSpaceOnUse">
<stop stop-color="white"/>
<stop offset="1" stop-color="white" stop-opacity="0"/>
</linearGradient>
<linearGradient id="paint101_linear_23_6705" x1="399.947" y1="24.8705" x2="399.947" y2="341.361" gradientUnits="userSpaceOnUse">
<stop stop-color="white"/>
<stop offset="1" stop-color="white" stop-opacity="0"/>
</linearGradient>
<linearGradient id="paint102_linear_23_6705" x1="399.947" y1="24.8705" x2="399.947" y2="341.361" gradientUnits="userSpaceOnUse">
<stop stop-color="white"/>
<stop offset="1" stop-color="white" stop-opacity="0"/>
</linearGradient>
<linearGradient id="paint103_linear_23_6705" x1="399.947" y1="24.8705" x2="399.947" y2="341.361" gradientUnits="userSpaceOnUse">
<stop stop-color="white"/>
<stop offset="1" stop-color="white" stop-opacity="0"/>
</linearGradient>
<linearGradient id="paint104_linear_23_6705" x1="399.947" y1="24.8705" x2="399.947" y2="341.361" gradientUnits="userSpaceOnUse">
<stop stop-color="white"/>
<stop offset="1" stop-color="white" stop-opacity="0"/>
</linearGradient>
<linearGradient id="paint105_linear_23_6705" x1="399.947" y1="24.8705" x2="399.947" y2="341.361" gradientUnits="userSpaceOnUse">
<stop stop-color="white"/>
<stop offset="1" stop-color="white" stop-opacity="0"/>
</linearGradient>
<linearGradient id="paint106_linear_23_6705" x1="399.947" y1="24.8705" x2="399.947" y2="341.361" gradientUnits="userSpaceOnUse">
<stop stop-color="white"/>
<stop offset="1" stop-color="white" stop-opacity="0"/>
</linearGradient>
<linearGradient id="paint107_linear_23_6705" x1="399.947" y1="24.8705" x2="399.947" y2="341.361" gradientUnits="userSpaceOnUse">
<stop stop-color="white"/>
<stop offset="1" stop-color="white" stop-opacity="0"/>
</linearGradient>
<linearGradient id="paint108_linear_23_6705" x1="399.947" y1="24.8705" x2="399.947" y2="341.361" gradientUnits="userSpaceOnUse">
<stop stop-color="white"/>
<stop offset="1" stop-color="white" stop-opacity="0"/>
</linearGradient>
<linearGradient id="paint109_linear_23_6705" x1="399.947" y1="24.8705" x2="399.947" y2="341.361" gradientUnits="userSpaceOnUse">
<stop stop-color="white"/>
<stop offset="1" stop-color="white" stop-opacity="0"/>
</linearGradient>
<linearGradient id="paint110_linear_23_6705" x1="399.947" y1="24.8705" x2="399.947" y2="341.361" gradientUnits="userSpaceOnUse">
<stop stop-color="white"/>
<stop offset="1" stop-color="white" stop-opacity="0"/>
</linearGradient>
<linearGradient id="paint111_linear_23_6705" x1="399.947" y1="24.8705" x2="399.947" y2="341.361" gradientUnits="userSpaceOnUse">
<stop stop-color="white"/>
<stop offset="1" stop-color="white" stop-opacity="0"/>
</linearGradient>
<linearGradient id="paint112_linear_23_6705" x1="399.947" y1="24.8705" x2="399.947" y2="341.361" gradientUnits="userSpaceOnUse">
<stop stop-color="white"/>
<stop offset="1" stop-color="white" stop-opacity="0"/>
</linearGradient>
<linearGradient id="paint113_linear_23_6705" x1="399.947" y1="24.8705" x2="399.947" y2="341.361" gradientUnits="userSpaceOnUse">
<stop stop-color="white"/>
<stop offset="1" stop-color="white" stop-opacity="0"/>
</linearGradient>
<linearGradient id="paint114_linear_23_6705" x1="399.947" y1="24.8705" x2="399.947" y2="341.361" gradientUnits="userSpaceOnUse">
<stop stop-color="white"/>
<stop offset="1" stop-color="white" stop-opacity="0"/>
</linearGradient>
<linearGradient id="paint115_linear_23_6705" x1="399.947" y1="24.8705" x2="399.947" y2="341.361" gradientUnits="userSpaceOnUse">
<stop stop-color="white"/>
<stop offset="1" stop-color="white" stop-opacity="0"/>
</linearGradient>
<linearGradient id="paint116_linear_23_6705" x1="399.947" y1="24.8705" x2="399.947" y2="341.361" gradientUnits="userSpaceOnUse">
<stop stop-color="white"/>
<stop offset="1" stop-color="white" stop-opacity="0"/>
</linearGradient>
<linearGradient id="paint117_linear_23_6705" x1="399.947" y1="24.8705" x2="399.947" y2="341.361" gradientUnits="userSpaceOnUse">
<stop stop-color="white"/>
<stop offset="1" stop-color="white" stop-opacity="0"/>
</linearGradient>
<linearGradient id="paint118_linear_23_6705" x1="399.947" y1="24.8705" x2="399.947" y2="341.361" gradientUnits="userSpaceOnUse">
<stop stop-color="white"/>
<stop offset="1" stop-color="white" stop-opacity="0"/>
</linearGradient>
<linearGradient id="paint119_linear_23_6705" x1="399.947" y1="24.8705" x2="399.947" y2="341.361" gradientUnits="userSpaceOnUse">
<stop stop-color="white"/>
<stop offset="1" stop-color="white" stop-opacity="0"/>
</linearGradient>
<linearGradient id="paint120_linear_23_6705" x1="399.947" y1="24.8705" x2="399.947" y2="341.361" gradientUnits="userSpaceOnUse">
<stop stop-color="white"/>
<stop offset="1" stop-color="white" stop-opacity="0"/>
</linearGradient>
<linearGradient id="paint121_linear_23_6705" x1="399.947" y1="24.8705" x2="399.947" y2="341.361" gradientUnits="userSpaceOnUse">
<stop stop-color="white"/>
<stop offset="1" stop-color="white" stop-opacity="0"/>
</linearGradient>
<clipPath id="clip0_23_6705">
<rect width="722" height="821" fill="white"/>
</clipPath>
</defs>
</svg>
