<svg width="390" height="499" viewBox="0 0 390 499" fill="none" xmlns="http://www.w3.org/2000/svg">
<g filter="url(#filter0_f_50_2588)">
<path fill-rule="evenodd" clip-rule="evenodd" d="M404.589 174.588C404.996 171.711 405.206 168.771 405.206 165.783C405.206 131.109 376.91 103 342.006 103C316.927 103 295.26 117.511 285.048 138.543C279.481 140.709 274.298 143.638 269.63 147.2C265.573 131.641 251.343 120.151 234.412 120.151C216.796 120.151 202.104 132.59 198.751 149.108C189.115 143.548 177.917 140.364 165.971 140.364C157.066 140.364 148.577 142.133 140.84 145.337C131.125 121.585 107.664 104.837 80.2655 104.837C52.7894 104.837 29.2733 121.68 19.6085 145.539C12.2104 141.088 3.53231 138.526 -5.7481 138.526C-32.8203 138.526 -54.7666 160.328 -54.7666 187.221C-54.7666 201.495 -48.5846 214.334 -38.7354 223.241V438.658H404.589V174.588Z" fill="url(#paint0_linear_50_2588)" fill-opacity="0.28"/>
</g>
<path fill-rule="evenodd" clip-rule="evenodd" d="M402.739 170.875C396.943 142.142 371.402 120.496 340.772 120.496C319.043 120.496 299.875 131.39 288.5 147.98C281.446 150.722 274.945 154.556 269.209 159.273C262.68 147.368 249.959 139.288 235.336 139.288C223.724 139.288 213.311 144.383 206.246 152.443C196.008 146.945 184.285 143.824 171.828 143.824C158.398 143.824 145.822 147.452 135.039 153.775C123.599 134.933 102.797 122.333 79.0321 122.333C51.556 122.333 28.0399 139.176 18.3751 163.035C10.977 158.584 2.29892 156.022 -6.9815 156.022C-34.0537 156.022 -56 177.824 -56 204.718C-56 218.991 -49.818 231.83 -39.9688 240.737V456.155H403.356V456.154H402.739V170.875Z" fill="url(#paint1_linear_50_2588)"/>
<path d="M42.5201 -28.4292C42.5201 -28.2052 42.3663 -28.0236 42.1767 -28.0236C41.987 -28.0236 41.8332 -28.2052 41.8332 -28.4292C41.8332 -28.6532 41.987 -28.8349 42.1767 -28.8349C42.3663 -28.8349 42.5201 -28.6532 42.5201 -28.4292Z" fill="url(#paint2_linear_50_2588)" fill-opacity="0.7"/>
<path d="M60.6145 9.2556C60.6145 9.47964 60.4608 9.66125 60.2711 9.66125C60.0814 9.66125 59.9276 9.47964 59.9276 9.2556C59.9276 9.03157 60.0814 8.84995 60.2711 8.84995C60.4608 8.84995 60.6145 9.03157 60.6145 9.2556Z" fill="url(#paint3_linear_50_2588)" fill-opacity="0.7"/>
<path d="M68.3998 17.3687C68.3998 17.5927 68.246 17.7744 68.0564 17.7744C67.8667 17.7744 67.7129 17.5927 67.7129 17.3687C67.7129 17.1447 67.8667 16.963 68.0564 16.963C68.246 16.963 68.3998 17.1447 68.3998 17.3687Z" fill="url(#paint4_linear_50_2588)" fill-opacity="0.7"/>
<path d="M68.3998 1.02262C68.3998 1.24666 68.246 1.42828 68.0564 1.42828C67.8667 1.42828 67.7129 1.24666 67.7129 1.02262C67.7129 0.798585 67.8667 0.616971 68.0564 0.616971C68.246 0.616971 68.3998 0.798585 68.3998 1.02262Z" fill="url(#paint5_linear_50_2588)" fill-opacity="0.7"/>
<path d="M68.3998 1.02262C68.3998 1.24666 68.246 1.42828 68.0564 1.42828C67.8667 1.42828 67.7129 1.24666 67.7129 1.02262C67.7129 0.798585 67.8667 0.616971 68.0564 0.616971C68.246 0.616971 68.3998 0.798585 68.3998 1.02262Z" fill="url(#paint6_linear_50_2588)" fill-opacity="0.7"/>
<path d="M124.958 -22.0817C124.958 -21.8577 124.804 -21.6761 124.614 -21.6761C124.425 -21.6761 124.271 -21.8577 124.271 -22.0817C124.271 -22.3058 124.425 -22.4874 124.614 -22.4874C124.804 -22.4874 124.958 -22.3058 124.958 -22.0817Z" fill="url(#paint7_linear_50_2588)" fill-opacity="0.7"/>
<path d="M78.9329 -6.97061C78.9329 -6.74657 78.7791 -6.56495 78.5894 -6.56495C78.3997 -6.56495 78.246 -6.74657 78.246 -6.97061C78.246 -7.19464 78.3997 -7.37627 78.5894 -7.37627C78.7791 -7.37627 78.9329 -7.19464 78.9329 -6.97061Z" fill="url(#paint8_linear_50_2588)" fill-opacity="0.7"/>
<path d="M83.5125 -9.79486C83.5125 -9.57082 83.3587 -9.3892 83.169 -9.3892C82.9793 -9.3892 82.8256 -9.57082 82.8256 -9.79486C82.8256 -10.0189 82.9793 -10.2005 83.169 -10.2005C83.3587 -10.2005 83.5125 -10.0189 83.5125 -9.79486Z" fill="url(#paint9_linear_50_2588)" fill-opacity="0.7"/>
<path d="M97.2513 -18.5994C97.2513 -18.3754 97.0975 -18.1937 96.9078 -18.1937C96.7181 -18.1937 96.5643 -18.3754 96.5643 -18.5994C96.5643 -18.8234 96.7181 -19.005 96.9078 -19.005C97.0975 -19.005 97.2513 -18.8234 97.2513 -18.5994Z" fill="url(#paint10_linear_50_2588)" fill-opacity="0.7"/>
<path d="M101.831 -15.895C101.831 -15.671 101.677 -15.4894 101.487 -15.4894C101.298 -15.4894 101.144 -15.671 101.144 -15.895C101.144 -16.1191 101.298 -16.3007 101.487 -16.3007C101.677 -16.3007 101.831 -16.1191 101.831 -15.895Z" fill="url(#paint11_linear_50_2588)" fill-opacity="0.7"/>
<path d="M108.7 -24.0081C108.7 -23.7841 108.546 -23.6025 108.357 -23.6025C108.167 -23.6025 108.013 -23.7841 108.013 -24.0081C108.013 -24.2322 108.167 -24.4138 108.357 -24.4138C108.546 -24.4138 108.7 -24.2322 108.7 -24.0081Z" fill="url(#paint12_linear_50_2588)" fill-opacity="0.7"/>
<path d="M90.3819 17.3687C90.3819 17.5927 90.2281 17.7744 90.0384 17.7744C89.8487 17.7744 89.6949 17.5927 89.6949 17.3687C89.6949 17.1447 89.8487 16.963 90.0384 16.963C90.2281 16.963 90.3819 17.1447 90.3819 17.3687Z" fill="url(#paint13_linear_50_2588)" fill-opacity="0.7"/>
<path d="M17.1084 17.3687C17.1084 17.5927 16.9546 17.7744 16.7649 17.7744C16.5752 17.7744 16.4214 17.5927 16.4214 17.3687C16.4214 17.1447 16.5752 16.963 16.7649 16.963C16.9546 16.963 17.1084 17.1447 17.1084 17.3687Z" fill="url(#paint14_linear_50_2588)" fill-opacity="0.7"/>
<path d="M33.2385 8.84395C33.2385 9.06799 33.0847 9.24961 32.895 9.24961C32.7053 9.24961 32.5515 9.06799 32.5515 8.84395C32.5515 8.61992 32.7053 8.4383 32.895 8.4383C33.0847 8.4383 33.2385 8.61992 33.2385 8.84395Z" fill="url(#paint15_linear_50_2588)" fill-opacity="0.7"/>
<path d="M-36.2674 -27.3133C-36.2674 -27.0893 -36.4212 -26.9077 -36.6109 -26.9077C-36.8006 -26.9077 -36.9544 -27.0893 -36.9544 -27.3133C-36.9544 -27.5373 -36.8006 -27.719 -36.6109 -27.719C-36.4212 -27.719 -36.2674 -27.5373 -36.2674 -27.3133Z" fill="url(#paint16_linear_50_2588)" fill-opacity="0.7"/>
<path d="M388.284 -12.3793C388.284 -12.1553 388.438 -11.9737 388.628 -11.9737C388.818 -11.9737 388.971 -12.1553 388.971 -12.3793C388.971 -12.6034 388.818 -12.785 388.628 -12.785C388.438 -12.785 388.284 -12.6034 388.284 -12.3793Z" fill="url(#paint17_linear_50_2588)" fill-opacity="0.7"/>
<path d="M376.835 -1.56188C376.835 -1.33784 376.989 -1.15621 377.179 -1.15621C377.369 -1.15621 377.522 -1.33784 377.522 -1.56188C377.522 -1.78591 377.369 -1.96753 377.179 -1.96753C376.989 -1.96753 376.835 -1.78591 376.835 -1.56188Z" fill="url(#paint18_linear_50_2588)" fill-opacity="0.7"/>
<path d="M360.807 -17.7881C360.807 -17.564 360.961 -17.3824 361.15 -17.3824C361.34 -17.3824 361.494 -17.564 361.494 -17.7881C361.494 -18.0121 361.34 -18.1937 361.15 -18.1937C360.961 -18.1937 360.807 -18.0121 360.807 -17.7881Z" fill="url(#paint19_linear_50_2588)" fill-opacity="0.7"/>
<path d="M352.742 5.13911C352.742 5.36315 352.896 5.54477 353.085 5.54477C353.275 5.54477 353.429 5.36315 353.429 5.13911C353.429 4.91507 353.275 4.73346 353.085 4.73346C352.896 4.73346 352.742 4.91507 352.742 5.13911Z" fill="url(#paint20_linear_50_2588)" fill-opacity="0.7"/>
<path d="M344.957 13.2522C344.957 13.4763 345.11 13.6579 345.3 13.6579C345.49 13.6579 345.643 13.4763 345.643 13.2522C345.643 13.0282 345.49 12.8466 345.3 12.8466C345.11 12.8466 344.957 13.0282 344.957 13.2522Z" fill="url(#paint21_linear_50_2588)" fill-opacity="0.7"/>
<path d="M344.957 5.13911C344.957 5.36315 345.11 5.54477 345.3 5.54477C345.49 5.54477 345.643 5.36315 345.643 5.13911C345.643 4.91507 345.49 4.73346 345.3 4.73346C345.11 4.73346 344.957 4.91507 344.957 5.13911Z" fill="url(#paint22_linear_50_2588)" fill-opacity="0.7"/>
<path d="M344.957 5.13911C344.957 5.36315 345.11 5.54477 345.3 5.54477C345.49 5.54477 345.643 5.36315 345.643 5.13911C345.643 4.91507 345.49 4.73346 345.3 4.73346C345.11 4.73346 344.957 4.91507 344.957 5.13911Z" fill="url(#paint23_linear_50_2588)" fill-opacity="0.7"/>
<path d="M291.884 -15.0837C291.884 -14.8597 292.038 -14.6781 292.227 -14.6781C292.417 -14.6781 292.571 -14.8597 292.571 -15.0837C292.571 -15.3078 292.417 -15.4894 292.227 -15.4894C292.038 -15.4894 291.884 -15.3078 291.884 -15.0837Z" fill="url(#paint24_linear_50_2588)" fill-opacity="0.7"/>
<path d="M280.634 -23.4366C280.634 -23.2125 280.787 -23.0309 280.977 -23.0309C281.167 -23.0309 281.32 -23.2125 281.32 -23.4366C281.32 -23.6606 281.167 -23.8422 280.977 -23.8422C280.787 -23.8422 280.634 -23.6606 280.634 -23.4366Z" fill="url(#paint25_linear_50_2588)" fill-opacity="0.7"/>
<path d="M296.464 1.1425C296.464 1.36653 296.617 1.54815 296.807 1.54815C296.997 1.54815 297.151 1.36653 297.151 1.1425C297.151 0.918459 296.997 0.736841 296.807 0.736841C296.617 0.736841 296.464 0.918459 296.464 1.1425Z" fill="url(#paint26_linear_50_2588)" fill-opacity="0.7"/>
<path d="M337.909 -6.97061C337.909 -6.74657 338.063 -6.56495 338.252 -6.56495C338.442 -6.56495 338.596 -6.74657 338.596 -6.97061C338.596 -7.19464 338.442 -7.37627 338.252 -7.37627C338.063 -7.37627 337.909 -7.19464 337.909 -6.97061Z" fill="url(#paint27_linear_50_2588)" fill-opacity="0.7"/>
<path d="M333.329 -1.56188C333.329 -1.33784 333.483 -1.15621 333.673 -1.15621C333.862 -1.15621 334.016 -1.33784 334.016 -1.56188C334.016 -1.78591 333.862 -1.96753 333.673 -1.96753C333.483 -1.96753 333.329 -1.78591 333.329 -1.56188Z" fill="url(#paint28_linear_50_2588)" fill-opacity="0.7"/>
<path d="M313.637 3.84687C313.637 4.0709 313.791 4.25252 313.981 4.25252C314.17 4.25252 314.324 4.0709 314.324 3.84687C314.324 3.62283 314.17 3.44121 313.981 3.44121C313.791 3.44121 313.637 3.62283 313.637 3.84687Z" fill="url(#paint29_linear_50_2588)" fill-opacity="0.7"/>
<path d="M336.535 -22.9264C336.535 -22.7023 336.689 -22.5207 336.879 -22.5207C337.068 -22.5207 337.222 -22.7023 337.222 -22.9264C337.222 -23.1504 337.068 -23.332 336.879 -23.332C336.689 -23.332 336.535 -23.1504 336.535 -22.9264Z" fill="url(#paint30_linear_50_2588)" fill-opacity="0.7"/>
<path d="M319.591 -18.5994C319.591 -18.3754 319.744 -18.1937 319.934 -18.1937C320.124 -18.1937 320.277 -18.3754 320.277 -18.5994C320.277 -18.8234 320.124 -19.005 319.934 -19.005C319.744 -19.005 319.591 -18.8234 319.591 -18.5994Z" fill="url(#paint31_linear_50_2588)" fill-opacity="0.7"/>
<path d="M315.011 -15.895C315.011 -15.671 315.165 -15.4894 315.354 -15.4894C315.544 -15.4894 315.698 -15.671 315.698 -15.895C315.698 -16.1191 315.544 -16.3007 315.354 -16.3007C315.165 -16.3007 315.011 -16.1191 315.011 -15.895Z" fill="url(#paint32_linear_50_2588)" fill-opacity="0.7"/>
<path d="M315.011 -21.3038C315.011 -21.0797 315.165 -20.8981 315.354 -20.8981C315.544 -20.8981 315.698 -21.0797 315.698 -21.3038C315.698 -21.5278 315.544 -21.7094 315.354 -21.7094C315.165 -21.7094 315.011 -21.5278 315.011 -21.3038Z" fill="url(#paint33_linear_50_2588)" fill-opacity="0.7"/>
<path d="M268.528 -21.3038C268.528 -21.0797 268.682 -20.8981 268.872 -20.8981C269.061 -20.8981 269.215 -21.0797 269.215 -21.3038C269.215 -21.5278 269.061 -21.7094 268.872 -21.7094C268.682 -21.7094 268.528 -21.5278 268.528 -21.3038Z" fill="url(#paint34_linear_50_2588)" fill-opacity="0.7"/>
<path d="M326.46 17.3687C326.46 17.5927 326.614 17.7744 326.803 17.7744C326.993 17.7744 327.147 17.5927 327.147 17.3687C327.147 17.1447 326.993 16.963 326.803 16.963C326.614 16.963 326.46 17.1447 326.46 17.3687Z" fill="url(#paint35_linear_50_2588)" fill-opacity="0.7"/>
<path d="M399.733 17.3687C399.733 17.5927 399.887 17.7744 400.077 17.7744C400.267 17.7744 400.42 17.5927 400.42 17.3687C400.42 17.1447 400.267 16.963 400.077 16.963C399.887 16.963 399.733 17.1447 399.733 17.3687Z" fill="url(#paint36_linear_50_2588)" fill-opacity="0.7"/>
<path d="M390.574 9.2556C390.574 9.47964 390.728 9.66125 390.918 9.66125C391.107 9.66125 391.261 9.47964 391.261 9.2556C391.261 9.03157 391.107 8.84995 390.918 8.84995C390.728 8.84995 390.574 9.03157 390.574 9.2556Z" fill="url(#paint37_linear_50_2588)" fill-opacity="0.7"/>
<path d="M404.313 -23.1968C404.313 -22.9728 404.467 -22.7912 404.657 -22.7912C404.846 -22.7912 405 -22.9728 405 -23.1968C405 -23.4209 404.846 -23.6025 404.657 -23.6025C404.467 -23.6025 404.313 -23.4209 404.313 -23.1968Z" fill="url(#paint38_linear_50_2588)" fill-opacity="0.7"/>
<path d="M401.794 -17.7881C401.794 -17.564 401.948 -17.3824 402.138 -17.3824C402.327 -17.3824 402.481 -17.564 402.481 -17.7881C402.481 -18.0121 402.327 -18.1937 402.138 -18.1937C401.948 -18.1937 401.794 -18.0121 401.794 -17.7881Z" fill="url(#paint39_linear_50_2588)" fill-opacity="0.7"/>
<path d="M72.4165 -27.4618C72.4165 -27.2378 72.2627 -27.0562 72.0731 -27.0562C71.8834 -27.0562 71.7296 -27.2378 71.7296 -27.4618C71.7296 -27.6859 71.8834 -27.8675 72.0731 -27.8675C72.2627 -27.8675 72.4165 -27.6859 72.4165 -27.4618Z" fill="url(#paint40_linear_50_2588)" fill-opacity="0.7"/>
<path d="M292.703 -29.5943C292.703 -29.3703 292.857 -29.1887 293.047 -29.1887C293.236 -29.1887 293.39 -29.3703 293.39 -29.5943C293.39 -29.8184 293.236 -30 293.047 -30C292.857 -30 292.703 -29.8184 292.703 -29.5943Z" fill="url(#paint41_linear_50_2588)" fill-opacity="0.7"/>
<path d="M48.1971 8.11188C48.1971 8.33592 48.0434 8.51754 47.8537 8.51754C47.664 8.51754 47.5102 8.33592 47.5102 8.11188C47.5102 7.88784 47.664 7.70622 47.8537 7.70622C48.0434 7.70622 48.1971 7.88784 48.1971 8.11188Z" fill="url(#paint42_linear_50_2588)" fill-opacity="0.7"/>
<path d="M35.5492 -24.3127C35.5492 -24.0887 35.3955 -23.9071 35.2058 -23.9071C35.0161 -23.9071 34.8623 -24.0887 34.8623 -24.3127C34.8623 -24.5368 35.0161 -24.7184 35.2058 -24.7184C35.3955 -24.7184 35.5492 -24.5368 35.5492 -24.3127Z" fill="url(#paint43_linear_50_2588)" fill-opacity="0.7"/>
<path d="M22.7821 4.31581C22.7821 4.53985 22.6284 4.72147 22.4387 4.72147C22.249 4.72147 22.0952 4.53985 22.0952 4.31581C22.0952 4.09178 22.249 3.91016 22.4387 3.91016C22.6284 3.91016 22.7821 4.09178 22.7821 4.31581Z" fill="url(#paint44_linear_50_2588)" fill-opacity="0.7"/>
<path d="M98.3454 -3.54555C98.3454 -3.32152 98.1917 -3.1399 98.002 -3.1399C97.8123 -3.1399 97.6585 -3.32152 97.6585 -3.54555C97.6585 -3.76959 97.8123 -3.95121 98.002 -3.95121C98.1917 -3.95121 98.3454 -3.76959 98.3454 -3.54555Z" fill="url(#paint45_linear_50_2588)" fill-opacity="0.7"/>
<path d="M149.356 -17.9653C149.356 -17.7412 149.202 -17.5596 149.012 -17.5596C148.823 -17.5596 148.669 -17.7412 148.669 -17.9653C148.669 -18.1893 148.823 -18.3709 149.012 -18.3709C149.202 -18.3709 149.356 -18.1893 149.356 -17.9653Z" fill="url(#paint46_linear_50_2588)" fill-opacity="0.7"/>
<path d="M152.841 -22.0817C152.841 -21.8577 152.688 -21.6761 152.498 -21.6761C152.308 -21.6761 152.154 -21.8577 152.154 -22.0817C152.154 -22.3058 152.308 -22.4874 152.498 -22.4874C152.688 -22.4874 152.841 -22.3058 152.841 -22.0817Z" fill="url(#paint47_linear_50_2588)" fill-opacity="0.7"/>
<path d="M201.638 -22.0817C201.638 -21.8577 201.484 -21.6761 201.294 -21.6761C201.104 -21.6761 200.951 -21.8577 200.951 -22.0817C200.951 -22.3058 201.104 -22.4874 201.294 -22.4874C201.484 -22.4874 201.638 -22.3058 201.638 -22.0817Z" fill="url(#paint48_linear_50_2588)" fill-opacity="0.7"/>
<path d="M226.036 -26.1982C226.036 -25.9742 225.882 -25.7926 225.692 -25.7926C225.503 -25.7926 225.349 -25.9742 225.349 -26.1982C225.349 -26.4223 225.503 -26.6039 225.692 -26.6039C225.882 -26.6039 226.036 -26.4223 226.036 -26.1982Z" fill="url(#paint49_linear_50_2588)" fill-opacity="0.7"/>
<path d="M233.007 -22.0817C233.007 -21.8577 232.853 -21.6761 232.663 -21.6761C232.473 -21.6761 232.32 -21.8577 232.32 -22.0817C232.32 -22.3058 232.473 -22.4874 232.663 -22.4874C232.853 -22.4874 233.007 -22.3058 233.007 -22.0817Z" fill="url(#paint50_linear_50_2588)" fill-opacity="0.7"/>
<path d="M-32.782 -23.1968C-32.782 -22.9728 -32.9358 -22.7912 -33.1255 -22.7912C-33.3151 -22.7912 -33.4689 -22.9728 -33.4689 -23.1968C-33.4689 -23.4209 -33.3151 -23.6025 -33.1255 -23.6025C-32.9358 -23.6025 -32.782 -23.4209 -32.782 -23.1968Z" fill="url(#paint51_linear_50_2588)" fill-opacity="0.7"/>
<path d="M-37.3131 9.32345C-37.3131 9.54749 -37.4668 9.7291 -37.6565 9.7291C-37.8462 9.7291 -38 9.54749 -38 9.32345C-38 9.09941 -37.8462 8.9178 -37.6565 8.9178C-37.4668 8.9178 -37.3131 9.09941 -37.3131 9.32345Z" fill="url(#paint52_linear_50_2588)" fill-opacity="0.7"/>
<path d="M140.532 4.4873C140.532 4.71134 140.378 4.89295 140.189 4.89295C139.999 4.89295 139.845 4.71134 139.845 4.4873C139.845 4.26326 139.999 4.08165 140.189 4.08165C140.378 4.08165 140.532 4.26326 140.532 4.4873Z" fill="url(#paint53_linear_50_2588)" fill-opacity="0.7"/>
<path d="M164.93 8.60379C164.93 8.82783 164.776 9.00944 164.587 9.00944C164.397 9.00944 164.243 8.82783 164.243 8.60379C164.243 8.37975 164.397 8.19813 164.587 8.19813C164.776 8.19813 164.93 8.37975 164.93 8.60379Z" fill="url(#paint54_linear_50_2588)" fill-opacity="0.7"/>
<path d="M168.416 4.4873C168.416 4.71134 168.262 4.89295 168.072 4.89295C167.882 4.89295 167.729 4.71134 167.729 4.4873C167.729 4.26326 167.882 4.08164 168.072 4.08164C168.262 4.08164 168.416 4.26326 168.416 4.4873Z" fill="url(#paint55_linear_50_2588)" fill-opacity="0.7"/>
<path d="M217.212 4.4873C217.212 4.71134 217.058 4.89295 216.868 4.89295C216.679 4.89295 216.525 4.71134 216.525 4.4873C216.525 4.26326 216.679 4.08164 216.868 4.08164C217.058 4.08164 217.212 4.26326 217.212 4.4873Z" fill="url(#paint56_linear_50_2588)" fill-opacity="0.7"/>
<path d="M241.61 0.370808C241.61 0.594845 241.456 0.776466 241.266 0.776466C241.077 0.776466 240.923 0.594845 240.923 0.370808C240.923 0.146771 241.077 -0.0348468 241.266 -0.0348468C241.456 -0.0348468 241.61 0.146771 241.61 0.370808Z" fill="url(#paint57_linear_50_2588)" fill-opacity="0.7"/>
<path d="M248.581 4.4873C248.581 4.71134 248.427 4.89295 248.237 4.89295C248.048 4.89295 247.894 4.71134 247.894 4.4873C247.894 4.26326 248.048 4.08164 248.237 4.08164C248.427 4.08164 248.581 4.26326 248.581 4.4873Z" fill="url(#paint58_linear_50_2588)" fill-opacity="0.7"/>
<path d="M180.872 -17.9942C180.872 -17.7702 180.718 -17.5885 180.528 -17.5885C180.339 -17.5885 180.185 -17.7702 180.185 -17.9942C180.185 -18.2182 180.339 -18.3999 180.528 -18.3999C180.718 -18.3999 180.872 -18.2182 180.872 -17.9942Z" fill="url(#paint59_linear_50_2588)" fill-opacity="0.7"/>
<path d="M-5.3877 -1.02525C-5.3877 -0.801211 -5.54148 -0.61959 -5.73117 -0.61959C-5.92087 -0.61959 -6.07465 -0.801211 -6.07465 -1.02525C-6.07465 -1.24929 -5.92087 -1.43091 -5.73117 -1.43091C-5.54148 -1.43091 -5.3877 -1.24929 -5.3877 -1.02525Z" fill="url(#paint60_linear_50_2588)" fill-opacity="0.7"/>
<path d="M0.286034 -14.0781C0.286034 -13.8541 0.132263 -13.6725 -0.0574296 -13.6725C-0.247123 -13.6725 -0.400899 -13.8541 -0.400899 -14.0781C-0.400899 -14.3022 -0.247123 -14.4838 -0.0574296 -14.4838C0.132263 -14.4838 0.286034 -14.3022 0.286034 -14.0781Z" fill="url(#paint61_linear_50_2588)" fill-opacity="0.7"/>
<path d="M42.5201 28.7964C42.5201 29.0205 42.3663 29.2021 42.1767 29.2021C41.987 29.2021 41.8332 29.0205 41.8332 28.7964C41.8332 28.5724 41.987 28.3908 42.1767 28.3908C42.3663 28.3908 42.5201 28.5724 42.5201 28.7964Z" fill="url(#paint62_linear_50_2588)" fill-opacity="0.7"/>
<path d="M60.6145 66.4812C60.6145 66.7053 60.4608 66.8869 60.2711 66.8869C60.0814 66.8869 59.9276 66.7053 59.9276 66.4812C59.9276 66.2572 60.0814 66.0756 60.2711 66.0756C60.4608 66.0756 60.6145 66.2572 60.6145 66.4812Z" fill="url(#paint63_linear_50_2588)" fill-opacity="0.7"/>
<path d="M68.3998 74.5943C68.3998 74.8184 68.246 75 68.0564 75C67.8667 75 67.7129 74.8184 67.7129 74.5943C67.7129 74.3703 67.8667 74.1887 68.0564 74.1887C68.246 74.1887 68.3998 74.3703 68.3998 74.5943Z" fill="url(#paint64_linear_50_2588)" fill-opacity="0.7"/>
<path d="M68.3998 58.2483C68.3998 58.4723 68.246 58.6539 68.0564 58.6539C67.8667 58.6539 67.7129 58.4723 67.7129 58.2483C67.7129 58.0242 67.8667 57.8426 68.0564 57.8426C68.246 57.8426 68.3998 58.0242 68.3998 58.2483Z" fill="url(#paint65_linear_50_2588)" fill-opacity="0.7"/>
<path d="M68.3998 58.2483C68.3998 58.4723 68.246 58.6539 68.0564 58.6539C67.8667 58.6539 67.7129 58.4723 67.7129 58.2483C67.7129 58.0242 67.8667 57.8426 68.0564 57.8426C68.246 57.8426 68.3998 58.0242 68.3998 58.2483Z" fill="url(#paint66_linear_50_2588)" fill-opacity="0.7"/>
<path d="M124.958 35.1439C124.958 35.3679 124.804 35.5495 124.614 35.5495C124.425 35.5495 124.271 35.3679 124.271 35.1439C124.271 34.9199 124.425 34.7382 124.614 34.7382C124.804 34.7382 124.958 34.9199 124.958 35.1439Z" fill="url(#paint67_linear_50_2588)" fill-opacity="0.7"/>
<path d="M78.9329 50.255C78.9329 50.4791 78.7791 50.6607 78.5894 50.6607C78.3997 50.6607 78.246 50.4791 78.246 50.255C78.246 50.031 78.3997 49.8494 78.5894 49.8494C78.7791 49.8494 78.9329 50.031 78.9329 50.255Z" fill="url(#paint68_linear_50_2588)" fill-opacity="0.7"/>
<path d="M83.5125 47.4308C83.5125 47.6548 83.3587 47.8364 83.169 47.8364C82.9793 47.8364 82.8256 47.6548 82.8256 47.4308C82.8256 47.2067 82.9793 47.0251 83.169 47.0251C83.3587 47.0251 83.5125 47.2067 83.5125 47.4308Z" fill="url(#paint69_linear_50_2588)" fill-opacity="0.7"/>
<path d="M97.2513 38.6262C97.2513 38.8503 97.0975 39.0319 96.9078 39.0319C96.7181 39.0319 96.5643 38.8503 96.5643 38.6262C96.5643 38.4022 96.7181 38.2206 96.9078 38.2206C97.0975 38.2206 97.2513 38.4022 97.2513 38.6262Z" fill="url(#paint70_linear_50_2588)" fill-opacity="0.7"/>
<path d="M101.831 41.3306C101.831 41.5547 101.677 41.7363 101.487 41.7363C101.298 41.7363 101.144 41.5547 101.144 41.3306C101.144 41.1066 101.298 40.925 101.487 40.925C101.677 40.925 101.831 41.1066 101.831 41.3306Z" fill="url(#paint71_linear_50_2588)" fill-opacity="0.7"/>
<path d="M108.7 33.2175C108.7 33.4415 108.546 33.6232 108.357 33.6232C108.167 33.6232 108.013 33.4415 108.013 33.2175C108.013 32.9935 108.167 32.8119 108.357 32.8119C108.546 32.8119 108.7 32.9935 108.7 33.2175Z" fill="url(#paint72_linear_50_2588)" fill-opacity="0.7"/>
<path d="M90.3819 74.5943C90.3819 74.8184 90.2281 75 90.0384 75C89.8487 75 89.6949 74.8184 89.6949 74.5943C89.6949 74.3703 89.8487 74.1887 90.0384 74.1887C90.2281 74.1887 90.3819 74.3703 90.3819 74.5943Z" fill="url(#paint73_linear_50_2588)" fill-opacity="0.7"/>
<path d="M17.1084 74.5943C17.1084 74.8184 16.9546 75 16.7649 75C16.5752 75 16.4214 74.8184 16.4214 74.5943C16.4214 74.3703 16.5752 74.1887 16.7649 74.1887C16.9546 74.1887 17.1084 74.3703 17.1084 74.5943Z" fill="url(#paint74_linear_50_2588)" fill-opacity="0.7"/>
<path d="M33.2385 66.0696C33.2385 66.2936 33.0847 66.4752 32.895 66.4752C32.7053 66.4752 32.5515 66.2936 32.5515 66.0696C32.5515 65.8456 32.7053 65.6639 32.895 65.6639C33.0847 65.6639 33.2385 65.8456 33.2385 66.0696Z" fill="url(#paint75_linear_50_2588)" fill-opacity="0.7"/>
<path d="M-36.2674 29.9123C-36.2674 30.1364 -36.4212 30.318 -36.6109 30.318C-36.8006 30.318 -36.9544 30.1364 -36.9544 29.9123C-36.9544 29.6883 -36.8006 29.5067 -36.6109 29.5067C-36.4212 29.5067 -36.2674 29.6883 -36.2674 29.9123Z" fill="url(#paint76_linear_50_2588)" fill-opacity="0.7"/>
<path d="M388.284 44.8463C388.284 45.0703 388.438 45.2519 388.628 45.2519C388.818 45.2519 388.971 45.0703 388.971 44.8463C388.971 44.6223 388.818 44.4406 388.628 44.4406C388.438 44.4406 388.284 44.6223 388.284 44.8463Z" fill="url(#paint77_linear_50_2588)" fill-opacity="0.7"/>
<path d="M376.835 55.6638C376.835 55.8878 376.989 56.0694 377.179 56.0694C377.369 56.0694 377.522 55.8878 377.522 55.6638C377.522 55.4397 377.369 55.2581 377.179 55.2581C376.989 55.2581 376.835 55.4397 376.835 55.6638Z" fill="url(#paint78_linear_50_2588)" fill-opacity="0.7"/>
<path d="M360.807 39.4376C360.807 39.6616 360.961 39.8432 361.15 39.8432C361.34 39.8432 361.494 39.6616 361.494 39.4376C361.494 39.2135 361.34 39.0319 361.15 39.0319C360.961 39.0319 360.807 39.2135 360.807 39.4376Z" fill="url(#paint79_linear_50_2588)" fill-opacity="0.7"/>
<path d="M352.742 62.3647C352.742 62.5888 352.896 62.7704 353.085 62.7704C353.275 62.7704 353.429 62.5888 353.429 62.3647C353.429 62.1407 353.275 61.9591 353.085 61.9591C352.896 61.9591 352.742 62.1407 352.742 62.3647Z" fill="url(#paint80_linear_50_2588)" fill-opacity="0.7"/>
<path d="M344.957 70.4779C344.957 70.7019 345.11 70.8835 345.3 70.8835C345.49 70.8835 345.643 70.7019 345.643 70.4779C345.643 70.2538 345.49 70.0722 345.3 70.0722C345.11 70.0722 344.957 70.2538 344.957 70.4779Z" fill="url(#paint81_linear_50_2588)" fill-opacity="0.7"/>
<path d="M344.957 62.3647C344.957 62.5888 345.11 62.7704 345.3 62.7704C345.49 62.7704 345.643 62.5888 345.643 62.3647C345.643 62.1407 345.49 61.9591 345.3 61.9591C345.11 61.9591 344.957 62.1407 344.957 62.3647Z" fill="url(#paint82_linear_50_2588)" fill-opacity="0.7"/>
<path d="M344.957 62.3647C344.957 62.5888 345.11 62.7704 345.3 62.7704C345.49 62.7704 345.643 62.5888 345.643 62.3647C345.643 62.1407 345.49 61.9591 345.3 61.9591C345.11 61.9591 344.957 62.1407 344.957 62.3647Z" fill="url(#paint83_linear_50_2588)" fill-opacity="0.7"/>
<path d="M291.884 42.1419C291.884 42.366 292.038 42.5476 292.227 42.5476C292.417 42.5476 292.571 42.366 292.571 42.1419C292.571 41.9179 292.417 41.7363 292.227 41.7363C292.038 41.7363 291.884 41.9179 291.884 42.1419Z" fill="url(#paint84_linear_50_2588)" fill-opacity="0.7"/>
<path d="M280.634 33.7891C280.634 34.0131 280.787 34.1947 280.977 34.1947C281.167 34.1947 281.32 34.0131 281.32 33.7891C281.32 33.565 281.167 33.3834 280.977 33.3834C280.787 33.3834 280.634 33.565 280.634 33.7891Z" fill="url(#paint85_linear_50_2588)" fill-opacity="0.7"/>
<path d="M296.464 58.3681C296.464 58.5922 296.617 58.7738 296.807 58.7738C296.997 58.7738 297.151 58.5922 297.151 58.3681C297.151 58.1441 296.997 57.9625 296.807 57.9625C296.617 57.9625 296.464 58.1441 296.464 58.3681Z" fill="url(#paint86_linear_50_2588)" fill-opacity="0.7"/>
<path d="M337.909 50.255C337.909 50.4791 338.063 50.6607 338.252 50.6607C338.442 50.6607 338.596 50.4791 338.596 50.255C338.596 50.031 338.442 49.8494 338.252 49.8494C338.063 49.8494 337.909 50.031 337.909 50.255Z" fill="url(#paint87_linear_50_2588)" fill-opacity="0.7"/>
<path d="M333.329 55.6638C333.329 55.8878 333.483 56.0694 333.673 56.0694C333.862 56.0694 334.016 55.8878 334.016 55.6638C334.016 55.4397 333.862 55.2581 333.673 55.2581C333.483 55.2581 333.329 55.4397 333.329 55.6638Z" fill="url(#paint88_linear_50_2588)" fill-opacity="0.7"/>
<path d="M313.637 61.0725C313.637 61.2965 313.791 61.4782 313.981 61.4782C314.17 61.4782 314.324 61.2965 314.324 61.0725C314.324 60.8485 314.17 60.6668 313.981 60.6668C313.791 60.6668 313.637 60.8485 313.637 61.0725Z" fill="url(#paint89_linear_50_2588)" fill-opacity="0.7"/>
<path d="M336.535 34.2993C336.535 34.5233 336.689 34.7049 336.879 34.7049C337.068 34.7049 337.222 34.5233 337.222 34.2993C337.222 34.0752 337.068 33.8936 336.879 33.8936C336.689 33.8936 336.535 34.0752 336.535 34.2993Z" fill="url(#paint90_linear_50_2588)" fill-opacity="0.7"/>
<path d="M319.591 38.6262C319.591 38.8503 319.744 39.0319 319.934 39.0319C320.124 39.0319 320.277 38.8503 320.277 38.6262C320.277 38.4022 320.124 38.2206 319.934 38.2206C319.744 38.2206 319.591 38.4022 319.591 38.6262Z" fill="url(#paint91_linear_50_2588)" fill-opacity="0.7"/>
<path d="M315.011 41.3306C315.011 41.5547 315.165 41.7363 315.354 41.7363C315.544 41.7363 315.698 41.5547 315.698 41.3306C315.698 41.1066 315.544 40.925 315.354 40.925C315.165 40.925 315.011 41.1066 315.011 41.3306Z" fill="url(#paint92_linear_50_2588)" fill-opacity="0.7"/>
<path d="M315.011 35.9219C315.011 36.1459 315.165 36.3275 315.354 36.3275C315.544 36.3275 315.698 36.1459 315.698 35.9219C315.698 35.6978 315.544 35.5162 315.354 35.5162C315.165 35.5162 315.011 35.6978 315.011 35.9219Z" fill="url(#paint93_linear_50_2588)" fill-opacity="0.7"/>
<path d="M268.528 35.9219C268.528 36.1459 268.682 36.3275 268.872 36.3275C269.061 36.3275 269.215 36.1459 269.215 35.9219C269.215 35.6978 269.061 35.5162 268.872 35.5162C268.682 35.5162 268.528 35.6978 268.528 35.9219Z" fill="url(#paint94_linear_50_2588)" fill-opacity="0.7"/>
<path d="M326.46 74.5943C326.46 74.8184 326.614 75 326.803 75C326.993 75 327.147 74.8184 327.147 74.5943C327.147 74.3703 326.993 74.1887 326.803 74.1887C326.614 74.1887 326.46 74.3703 326.46 74.5943Z" fill="url(#paint95_linear_50_2588)" fill-opacity="0.7"/>
<path d="M399.733 74.5943C399.733 74.8184 399.887 75 400.077 75C400.267 75 400.42 74.8184 400.42 74.5943C400.42 74.3703 400.267 74.1887 400.077 74.1887C399.887 74.1887 399.733 74.3703 399.733 74.5943Z" fill="url(#paint96_linear_50_2588)" fill-opacity="0.7"/>
<path d="M390.574 66.4812C390.574 66.7053 390.728 66.8869 390.918 66.8869C391.107 66.8869 391.261 66.7053 391.261 66.4812C391.261 66.2572 391.107 66.0756 390.918 66.0756C390.728 66.0756 390.574 66.2572 390.574 66.4812Z" fill="url(#paint97_linear_50_2588)" fill-opacity="0.7"/>
<path d="M404.313 34.0288C404.313 34.2529 404.467 34.4345 404.657 34.4345C404.846 34.4345 405 34.2529 405 34.0288C405 33.8048 404.846 33.6232 404.657 33.6232C404.467 33.6232 404.313 33.8048 404.313 34.0288Z" fill="url(#paint98_linear_50_2588)" fill-opacity="0.7"/>
<path d="M401.794 39.4376C401.794 39.6616 401.948 39.8432 402.138 39.8432C402.327 39.8432 402.481 39.6616 402.481 39.4376C402.481 39.2135 402.327 39.0319 402.138 39.0319C401.948 39.0319 401.794 39.2135 401.794 39.4376Z" fill="url(#paint99_linear_50_2588)" fill-opacity="0.7"/>
<path d="M72.4165 29.7638C72.4165 29.9879 72.2627 30.1695 72.0731 30.1695C71.8834 30.1695 71.7296 29.9879 71.7296 29.7638C71.7296 29.5398 71.8834 29.3582 72.0731 29.3582C72.2627 29.3582 72.4165 29.5398 72.4165 29.7638Z" fill="url(#paint100_linear_50_2588)" fill-opacity="0.7"/>
<path d="M292.703 27.6313C292.703 27.8553 292.857 28.0369 293.047 28.0369C293.236 28.0369 293.39 27.8553 293.39 27.6313C293.39 27.4073 293.236 27.2256 293.047 27.2256C292.857 27.2256 292.703 27.4073 292.703 27.6313Z" fill="url(#paint101_linear_50_2588)" fill-opacity="0.7"/>
<path d="M48.1971 65.3375C48.1971 65.5616 48.0434 65.7432 47.8537 65.7432C47.664 65.7432 47.5102 65.5616 47.5102 65.3375C47.5102 65.1135 47.664 64.9319 47.8537 64.9319C48.0434 64.9319 48.1971 65.1135 48.1971 65.3375Z" fill="url(#paint102_linear_50_2588)" fill-opacity="0.7"/>
<path d="M35.5492 32.9129C35.5492 33.137 35.3955 33.3186 35.2058 33.3186C35.0161 33.3186 34.8623 33.137 34.8623 32.9129C34.8623 32.6889 35.0161 32.5073 35.2058 32.5073C35.3955 32.5073 35.5492 32.6889 35.5492 32.9129Z" fill="url(#paint103_linear_50_2588)" fill-opacity="0.7"/>
<path d="M22.7821 61.5414C22.7821 61.7655 22.6284 61.9471 22.4387 61.9471C22.249 61.9471 22.0952 61.7655 22.0952 61.5414C22.0952 61.3174 22.249 61.1358 22.4387 61.1358C22.6284 61.1358 22.7821 61.3174 22.7821 61.5414Z" fill="url(#paint104_linear_50_2588)" fill-opacity="0.7"/>
<path d="M98.3454 53.6801C98.3454 53.9041 98.1917 54.0857 98.002 54.0857C97.8123 54.0857 97.6585 53.9041 97.6585 53.6801C97.6585 53.456 97.8123 53.2744 98.002 53.2744C98.1917 53.2744 98.3454 53.456 98.3454 53.6801Z" fill="url(#paint105_linear_50_2588)" fill-opacity="0.7"/>
<path d="M149.356 39.2604C149.356 39.4844 149.202 39.666 149.012 39.666C148.823 39.666 148.669 39.4844 148.669 39.2604C148.669 39.0363 148.823 38.8547 149.012 38.8547C149.202 38.8547 149.356 39.0363 149.356 39.2604Z" fill="url(#paint106_linear_50_2588)" fill-opacity="0.7"/>
<path d="M152.841 35.1439C152.841 35.3679 152.688 35.5495 152.498 35.5495C152.308 35.5495 152.154 35.3679 152.154 35.1439C152.154 34.9199 152.308 34.7382 152.498 34.7382C152.688 34.7382 152.841 34.9199 152.841 35.1439Z" fill="url(#paint107_linear_50_2588)" fill-opacity="0.7"/>
<path d="M201.638 35.1439C201.638 35.3679 201.484 35.5495 201.294 35.5495C201.104 35.5495 200.951 35.3679 200.951 35.1439C200.951 34.9199 201.104 34.7382 201.294 34.7382C201.484 34.7382 201.638 34.9199 201.638 35.1439Z" fill="url(#paint108_linear_50_2588)" fill-opacity="0.7"/>
<path d="M226.036 31.0274C226.036 31.2514 225.882 31.4331 225.692 31.4331C225.503 31.4331 225.349 31.2514 225.349 31.0274C225.349 30.8034 225.503 30.6217 225.692 30.6217C225.882 30.6217 226.036 30.8034 226.036 31.0274Z" fill="url(#paint109_linear_50_2588)" fill-opacity="0.7"/>
<path d="M233.007 35.1439C233.007 35.3679 232.853 35.5495 232.663 35.5495C232.473 35.5495 232.32 35.3679 232.32 35.1439C232.32 34.9199 232.473 34.7382 232.663 34.7382C232.853 34.7382 233.007 34.9199 233.007 35.1439Z" fill="url(#paint110_linear_50_2588)" fill-opacity="0.7"/>
<path d="M-32.782 34.0288C-32.782 34.2529 -32.9358 34.4345 -33.1255 34.4345C-33.3151 34.4345 -33.4689 34.2529 -33.4689 34.0288C-33.4689 33.8048 -33.3151 33.6232 -33.1255 33.6232C-32.9358 33.6232 -32.782 33.8048 -32.782 34.0288Z" fill="url(#paint111_linear_50_2588)" fill-opacity="0.7"/>
<path d="M-37.3131 66.5491C-37.3131 66.7731 -37.4668 66.9547 -37.6565 66.9547C-37.8462 66.9547 -38 66.7731 -38 66.5491C-38 66.3251 -37.8462 66.1434 -37.6565 66.1434C-37.4668 66.1434 -37.3131 66.3251 -37.3131 66.5491Z" fill="url(#paint112_linear_50_2588)" fill-opacity="0.7"/>
<path d="M140.532 61.7129C140.532 61.937 140.378 62.1186 140.189 62.1186C139.999 62.1186 139.845 61.937 139.845 61.7129C139.845 61.4889 139.999 61.3073 140.189 61.3073C140.378 61.3073 140.532 61.4889 140.532 61.7129Z" fill="url(#paint113_linear_50_2588)" fill-opacity="0.7"/>
<path d="M164.93 65.8294C164.93 66.0535 164.776 66.2351 164.587 66.2351C164.397 66.2351 164.243 66.0535 164.243 65.8294C164.243 65.6054 164.397 65.4238 164.587 65.4238C164.776 65.4238 164.93 65.6054 164.93 65.8294Z" fill="url(#paint114_linear_50_2588)" fill-opacity="0.7"/>
<path d="M168.416 61.7129C168.416 61.937 168.262 62.1186 168.072 62.1186C167.882 62.1186 167.729 61.937 167.729 61.7129C167.729 61.4889 167.882 61.3073 168.072 61.3073C168.262 61.3073 168.416 61.4889 168.416 61.7129Z" fill="url(#paint115_linear_50_2588)" fill-opacity="0.7"/>
<path d="M217.212 61.7129C217.212 61.937 217.058 62.1186 216.868 62.1186C216.679 62.1186 216.525 61.937 216.525 61.7129C216.525 61.4889 216.679 61.3073 216.868 61.3073C217.058 61.3073 217.212 61.4889 217.212 61.7129Z" fill="url(#paint116_linear_50_2588)" fill-opacity="0.7"/>
<path d="M241.61 57.5964C241.61 57.8205 241.456 58.0021 241.266 58.0021C241.077 58.0021 240.923 57.8205 240.923 57.5964C240.923 57.3724 241.077 57.1908 241.266 57.1908C241.456 57.1908 241.61 57.3724 241.61 57.5964Z" fill="url(#paint117_linear_50_2588)" fill-opacity="0.7"/>
<path d="M248.581 61.7129C248.581 61.937 248.427 62.1186 248.237 62.1186C248.048 62.1186 247.894 61.937 247.894 61.7129C247.894 61.4889 248.048 61.3073 248.237 61.3073C248.427 61.3073 248.581 61.4889 248.581 61.7129Z" fill="url(#paint118_linear_50_2588)" fill-opacity="0.7"/>
<path d="M180.872 39.2314C180.872 39.4555 180.718 39.6371 180.528 39.6371C180.339 39.6371 180.185 39.4555 180.185 39.2314C180.185 39.0074 180.339 38.8258 180.528 38.8258C180.718 38.8258 180.872 39.0074 180.872 39.2314Z" fill="url(#paint119_linear_50_2588)" fill-opacity="0.7"/>
<path d="M-5.3877 56.2004C-5.3877 56.4244 -5.54148 56.606 -5.73117 56.606C-5.92087 56.606 -6.07465 56.4244 -6.07465 56.2004C-6.07465 55.9764 -5.92087 55.7947 -5.73117 55.7947C-5.54148 55.7947 -5.3877 55.9764 -5.3877 56.2004Z" fill="url(#paint120_linear_50_2588)" fill-opacity="0.7"/>
<path d="M0.286034 43.1475C0.286034 43.3715 0.132263 43.5532 -0.0574296 43.5532C-0.247123 43.5532 -0.400899 43.3715 -0.400899 43.1475C-0.400899 42.9235 -0.247123 42.7418 -0.0574296 42.7418C0.132263 42.7418 0.286034 42.9235 0.286034 43.1475Z" fill="url(#paint121_linear_50_2588)" fill-opacity="0.7"/>
<defs>
<filter id="filter0_f_50_2588" x="-114.767" y="43" width="579.973" height="455.658" filterUnits="userSpaceOnUse" color-interpolation-filters="sRGB">
<feFlood flood-opacity="0" result="BackgroundImageFix"/>
<feBlend mode="normal" in="SourceGraphic" in2="BackgroundImageFix" result="shape"/>
<feGaussianBlur stdDeviation="30" result="effect1_foregroundBlur_50_2588"/>
</filter>
<linearGradient id="paint0_linear_50_2588" x1="175.22" y1="103" x2="175.22" y2="438.658" gradientUnits="userSpaceOnUse">
<stop stop-color="#F02E65"/>
<stop offset="0.653751" stop-color="#F02E65" stop-opacity="0.2"/>
<stop offset="0.699927" stop-color="#F02E65" stop-opacity="0.2"/>
<stop offset="1" stop-color="#F02E65" stop-opacity="0"/>
</linearGradient>
<linearGradient id="paint1_linear_50_2588" x1="174.295" y1="120.496" x2="174.295" y2="456.155" gradientUnits="userSpaceOnUse">
<stop stop-color="#FF6893"/>
<stop offset="0.0582362" stop-color="#F02E65"/>
<stop offset="0.485307" stop-color="#F02E65" stop-opacity="0.2"/>
<stop offset="0.619552" stop-color="#F02E65" stop-opacity="0.2"/>
<stop offset="0.918726" stop-color="#F02E65" stop-opacity="0"/>
</linearGradient>
<linearGradient id="paint2_linear_50_2588" x1="208.421" y1="-23.6025" x2="208.421" y2="181.53" gradientUnits="userSpaceOnUse">
<stop stop-color="white"/>
<stop offset="1" stop-color="white" stop-opacity="0"/>
</linearGradient>
<linearGradient id="paint3_linear_50_2588" x1="208.421" y1="-23.6025" x2="208.421" y2="181.53" gradientUnits="userSpaceOnUse">
<stop stop-color="white"/>
<stop offset="1" stop-color="white" stop-opacity="0"/>
</linearGradient>
<linearGradient id="paint4_linear_50_2588" x1="208.421" y1="-23.6025" x2="208.421" y2="181.53" gradientUnits="userSpaceOnUse">
<stop stop-color="white"/>
<stop offset="1" stop-color="white" stop-opacity="0"/>
</linearGradient>
<linearGradient id="paint5_linear_50_2588" x1="208.421" y1="-23.6025" x2="208.421" y2="181.53" gradientUnits="userSpaceOnUse">
<stop stop-color="white"/>
<stop offset="1" stop-color="white" stop-opacity="0"/>
</linearGradient>
<linearGradient id="paint6_linear_50_2588" x1="208.421" y1="-23.6025" x2="208.421" y2="181.53" gradientUnits="userSpaceOnUse">
<stop stop-color="white"/>
<stop offset="1" stop-color="white" stop-opacity="0"/>
</linearGradient>
<linearGradient id="paint7_linear_50_2588" x1="208.421" y1="-23.6025" x2="208.421" y2="181.53" gradientUnits="userSpaceOnUse">
<stop stop-color="white"/>
<stop offset="1" stop-color="white" stop-opacity="0"/>
</linearGradient>
<linearGradient id="paint8_linear_50_2588" x1="208.421" y1="-23.6025" x2="208.421" y2="181.53" gradientUnits="userSpaceOnUse">
<stop stop-color="white"/>
<stop offset="1" stop-color="white" stop-opacity="0"/>
</linearGradient>
<linearGradient id="paint9_linear_50_2588" x1="208.421" y1="-23.6025" x2="208.421" y2="181.53" gradientUnits="userSpaceOnUse">
<stop stop-color="white"/>
<stop offset="1" stop-color="white" stop-opacity="0"/>
</linearGradient>
<linearGradient id="paint10_linear_50_2588" x1="208.421" y1="-23.6025" x2="208.421" y2="181.53" gradientUnits="userSpaceOnUse">
<stop stop-color="white"/>
<stop offset="1" stop-color="white" stop-opacity="0"/>
</linearGradient>
<linearGradient id="paint11_linear_50_2588" x1="208.421" y1="-23.6025" x2="208.421" y2="181.53" gradientUnits="userSpaceOnUse">
<stop stop-color="white"/>
<stop offset="1" stop-color="white" stop-opacity="0"/>
</linearGradient>
<linearGradient id="paint12_linear_50_2588" x1="208.421" y1="-23.6025" x2="208.421" y2="181.53" gradientUnits="userSpaceOnUse">
<stop stop-color="white"/>
<stop offset="1" stop-color="white" stop-opacity="0"/>
</linearGradient>
<linearGradient id="paint13_linear_50_2588" x1="208.421" y1="-23.6025" x2="208.421" y2="181.53" gradientUnits="userSpaceOnUse">
<stop stop-color="white"/>
<stop offset="1" stop-color="white" stop-opacity="0"/>
</linearGradient>
<linearGradient id="paint14_linear_50_2588" x1="208.421" y1="-23.6025" x2="208.421" y2="181.53" gradientUnits="userSpaceOnUse">
<stop stop-color="white"/>
<stop offset="1" stop-color="white" stop-opacity="0"/>
</linearGradient>
<linearGradient id="paint15_linear_50_2588" x1="208.421" y1="-23.6025" x2="208.421" y2="181.53" gradientUnits="userSpaceOnUse">
<stop stop-color="white"/>
<stop offset="1" stop-color="white" stop-opacity="0"/>
</linearGradient>
<linearGradient id="paint16_linear_50_2588" x1="208.421" y1="-23.6025" x2="208.421" y2="181.53" gradientUnits="userSpaceOnUse">
<stop stop-color="white"/>
<stop offset="1" stop-color="white" stop-opacity="0"/>
</linearGradient>
<linearGradient id="paint17_linear_50_2588" x1="208.421" y1="-23.6025" x2="208.421" y2="181.53" gradientUnits="userSpaceOnUse">
<stop stop-color="white"/>
<stop offset="1" stop-color="white" stop-opacity="0"/>
</linearGradient>
<linearGradient id="paint18_linear_50_2588" x1="208.421" y1="-23.6025" x2="208.421" y2="181.53" gradientUnits="userSpaceOnUse">
<stop stop-color="white"/>
<stop offset="1" stop-color="white" stop-opacity="0"/>
</linearGradient>
<linearGradient id="paint19_linear_50_2588" x1="208.421" y1="-23.6025" x2="208.421" y2="181.53" gradientUnits="userSpaceOnUse">
<stop stop-color="white"/>
<stop offset="1" stop-color="white" stop-opacity="0"/>
</linearGradient>
<linearGradient id="paint20_linear_50_2588" x1="208.421" y1="-23.6025" x2="208.421" y2="181.53" gradientUnits="userSpaceOnUse">
<stop stop-color="white"/>
<stop offset="1" stop-color="white" stop-opacity="0"/>
</linearGradient>
<linearGradient id="paint21_linear_50_2588" x1="208.421" y1="-23.6025" x2="208.421" y2="181.53" gradientUnits="userSpaceOnUse">
<stop stop-color="white"/>
<stop offset="1" stop-color="white" stop-opacity="0"/>
</linearGradient>
<linearGradient id="paint22_linear_50_2588" x1="208.421" y1="-23.6025" x2="208.421" y2="181.53" gradientUnits="userSpaceOnUse">
<stop stop-color="white"/>
<stop offset="1" stop-color="white" stop-opacity="0"/>
</linearGradient>
<linearGradient id="paint23_linear_50_2588" x1="208.421" y1="-23.6025" x2="208.421" y2="181.53" gradientUnits="userSpaceOnUse">
<stop stop-color="white"/>
<stop offset="1" stop-color="white" stop-opacity="0"/>
</linearGradient>
<linearGradient id="paint24_linear_50_2588" x1="208.421" y1="-23.6025" x2="208.421" y2="181.53" gradientUnits="userSpaceOnUse">
<stop stop-color="white"/>
<stop offset="1" stop-color="white" stop-opacity="0"/>
</linearGradient>
<linearGradient id="paint25_linear_50_2588" x1="208.421" y1="-23.6025" x2="208.421" y2="181.53" gradientUnits="userSpaceOnUse">
<stop stop-color="white"/>
<stop offset="1" stop-color="white" stop-opacity="0"/>
</linearGradient>
<linearGradient id="paint26_linear_50_2588" x1="208.421" y1="-23.6025" x2="208.421" y2="181.53" gradientUnits="userSpaceOnUse">
<stop stop-color="white"/>
<stop offset="1" stop-color="white" stop-opacity="0"/>
</linearGradient>
<linearGradient id="paint27_linear_50_2588" x1="208.421" y1="-23.6025" x2="208.421" y2="181.53" gradientUnits="userSpaceOnUse">
<stop stop-color="white"/>
<stop offset="1" stop-color="white" stop-opacity="0"/>
</linearGradient>
<linearGradient id="paint28_linear_50_2588" x1="208.421" y1="-23.6025" x2="208.421" y2="181.53" gradientUnits="userSpaceOnUse">
<stop stop-color="white"/>
<stop offset="1" stop-color="white" stop-opacity="0"/>
</linearGradient>
<linearGradient id="paint29_linear_50_2588" x1="208.421" y1="-23.6025" x2="208.421" y2="181.53" gradientUnits="userSpaceOnUse">
<stop stop-color="white"/>
<stop offset="1" stop-color="white" stop-opacity="0"/>
</linearGradient>
<linearGradient id="paint30_linear_50_2588" x1="208.421" y1="-23.6025" x2="208.421" y2="181.53" gradientUnits="userSpaceOnUse">
<stop stop-color="white"/>
<stop offset="1" stop-color="white" stop-opacity="0"/>
</linearGradient>
<linearGradient id="paint31_linear_50_2588" x1="208.421" y1="-23.6025" x2="208.421" y2="181.53" gradientUnits="userSpaceOnUse">
<stop stop-color="white"/>
<stop offset="1" stop-color="white" stop-opacity="0"/>
</linearGradient>
<linearGradient id="paint32_linear_50_2588" x1="208.421" y1="-23.6025" x2="208.421" y2="181.53" gradientUnits="userSpaceOnUse">
<stop stop-color="white"/>
<stop offset="1" stop-color="white" stop-opacity="0"/>
</linearGradient>
<linearGradient id="paint33_linear_50_2588" x1="208.421" y1="-23.6025" x2="208.421" y2="181.53" gradientUnits="userSpaceOnUse">
<stop stop-color="white"/>
<stop offset="1" stop-color="white" stop-opacity="0"/>
</linearGradient>
<linearGradient id="paint34_linear_50_2588" x1="208.421" y1="-23.6025" x2="208.421" y2="181.53" gradientUnits="userSpaceOnUse">
<stop stop-color="white"/>
<stop offset="1" stop-color="white" stop-opacity="0"/>
</linearGradient>
<linearGradient id="paint35_linear_50_2588" x1="208.421" y1="-23.6025" x2="208.421" y2="181.53" gradientUnits="userSpaceOnUse">
<stop stop-color="white"/>
<stop offset="1" stop-color="white" stop-opacity="0"/>
</linearGradient>
<linearGradient id="paint36_linear_50_2588" x1="208.421" y1="-23.6025" x2="208.421" y2="181.53" gradientUnits="userSpaceOnUse">
<stop stop-color="white"/>
<stop offset="1" stop-color="white" stop-opacity="0"/>
</linearGradient>
<linearGradient id="paint37_linear_50_2588" x1="208.421" y1="-23.6025" x2="208.421" y2="181.53" gradientUnits="userSpaceOnUse">
<stop stop-color="white"/>
<stop offset="1" stop-color="white" stop-opacity="0"/>
</linearGradient>
<linearGradient id="paint38_linear_50_2588" x1="208.421" y1="-23.6025" x2="208.421" y2="181.53" gradientUnits="userSpaceOnUse">
<stop stop-color="white"/>
<stop offset="1" stop-color="white" stop-opacity="0"/>
</linearGradient>
<linearGradient id="paint39_linear_50_2588" x1="208.421" y1="-23.6025" x2="208.421" y2="181.53" gradientUnits="userSpaceOnUse">
<stop stop-color="white"/>
<stop offset="1" stop-color="white" stop-opacity="0"/>
</linearGradient>
<linearGradient id="paint40_linear_50_2588" x1="208.421" y1="-23.6025" x2="208.421" y2="181.53" gradientUnits="userSpaceOnUse">
<stop stop-color="white"/>
<stop offset="1" stop-color="white" stop-opacity="0"/>
</linearGradient>
<linearGradient id="paint41_linear_50_2588" x1="208.421" y1="-23.6025" x2="208.421" y2="181.53" gradientUnits="userSpaceOnUse">
<stop stop-color="white"/>
<stop offset="1" stop-color="white" stop-opacity="0"/>
</linearGradient>
<linearGradient id="paint42_linear_50_2588" x1="208.421" y1="-23.6025" x2="208.421" y2="181.53" gradientUnits="userSpaceOnUse">
<stop stop-color="white"/>
<stop offset="1" stop-color="white" stop-opacity="0"/>
</linearGradient>
<linearGradient id="paint43_linear_50_2588" x1="208.421" y1="-23.6025" x2="208.421" y2="181.53" gradientUnits="userSpaceOnUse">
<stop stop-color="white"/>
<stop offset="1" stop-color="white" stop-opacity="0"/>
</linearGradient>
<linearGradient id="paint44_linear_50_2588" x1="208.421" y1="-23.6025" x2="208.421" y2="181.53" gradientUnits="userSpaceOnUse">
<stop stop-color="white"/>
<stop offset="1" stop-color="white" stop-opacity="0"/>
</linearGradient>
<linearGradient id="paint45_linear_50_2588" x1="208.421" y1="-23.6025" x2="208.421" y2="181.53" gradientUnits="userSpaceOnUse">
<stop stop-color="white"/>
<stop offset="1" stop-color="white" stop-opacity="0"/>
</linearGradient>
<linearGradient id="paint46_linear_50_2588" x1="208.421" y1="-23.6025" x2="208.421" y2="181.53" gradientUnits="userSpaceOnUse">
<stop stop-color="white"/>
<stop offset="1" stop-color="white" stop-opacity="0"/>
</linearGradient>
<linearGradient id="paint47_linear_50_2588" x1="208.421" y1="-23.6025" x2="208.421" y2="181.53" gradientUnits="userSpaceOnUse">
<stop stop-color="white"/>
<stop offset="1" stop-color="white" stop-opacity="0"/>
</linearGradient>
<linearGradient id="paint48_linear_50_2588" x1="208.421" y1="-23.6025" x2="208.421" y2="181.53" gradientUnits="userSpaceOnUse">
<stop stop-color="white"/>
<stop offset="1" stop-color="white" stop-opacity="0"/>
</linearGradient>
<linearGradient id="paint49_linear_50_2588" x1="208.421" y1="-23.6025" x2="208.421" y2="181.53" gradientUnits="userSpaceOnUse">
<stop stop-color="white"/>
<stop offset="1" stop-color="white" stop-opacity="0"/>
</linearGradient>
<linearGradient id="paint50_linear_50_2588" x1="208.421" y1="-23.6025" x2="208.421" y2="181.53" gradientUnits="userSpaceOnUse">
<stop stop-color="white"/>
<stop offset="1" stop-color="white" stop-opacity="0"/>
</linearGradient>
<linearGradient id="paint51_linear_50_2588" x1="208.421" y1="-23.6025" x2="208.421" y2="181.53" gradientUnits="userSpaceOnUse">
<stop stop-color="white"/>
<stop offset="1" stop-color="white" stop-opacity="0"/>
</linearGradient>
<linearGradient id="paint52_linear_50_2588" x1="208.421" y1="-23.6025" x2="208.421" y2="181.53" gradientUnits="userSpaceOnUse">
<stop stop-color="white"/>
<stop offset="1" stop-color="white" stop-opacity="0"/>
</linearGradient>
<linearGradient id="paint53_linear_50_2588" x1="208.421" y1="-23.6025" x2="208.421" y2="181.53" gradientUnits="userSpaceOnUse">
<stop stop-color="white"/>
<stop offset="1" stop-color="white" stop-opacity="0"/>
</linearGradient>
<linearGradient id="paint54_linear_50_2588" x1="208.421" y1="-23.6025" x2="208.421" y2="181.53" gradientUnits="userSpaceOnUse">
<stop stop-color="white"/>
<stop offset="1" stop-color="white" stop-opacity="0"/>
</linearGradient>
<linearGradient id="paint55_linear_50_2588" x1="208.421" y1="-23.6025" x2="208.421" y2="181.53" gradientUnits="userSpaceOnUse">
<stop stop-color="white"/>
<stop offset="1" stop-color="white" stop-opacity="0"/>
</linearGradient>
<linearGradient id="paint56_linear_50_2588" x1="208.421" y1="-23.6025" x2="208.421" y2="181.53" gradientUnits="userSpaceOnUse">
<stop stop-color="white"/>
<stop offset="1" stop-color="white" stop-opacity="0"/>
</linearGradient>
<linearGradient id="paint57_linear_50_2588" x1="208.421" y1="-23.6025" x2="208.421" y2="181.53" gradientUnits="userSpaceOnUse">
<stop stop-color="white"/>
<stop offset="1" stop-color="white" stop-opacity="0"/>
</linearGradient>
<linearGradient id="paint58_linear_50_2588" x1="208.421" y1="-23.6025" x2="208.421" y2="181.53" gradientUnits="userSpaceOnUse">
<stop stop-color="white"/>
<stop offset="1" stop-color="white" stop-opacity="0"/>
</linearGradient>
<linearGradient id="paint59_linear_50_2588" x1="208.421" y1="-23.6025" x2="208.421" y2="181.53" gradientUnits="userSpaceOnUse">
<stop stop-color="white"/>
<stop offset="1" stop-color="white" stop-opacity="0"/>
</linearGradient>
<linearGradient id="paint60_linear_50_2588" x1="208.421" y1="-23.6025" x2="208.421" y2="181.53" gradientUnits="userSpaceOnUse">
<stop stop-color="white"/>
<stop offset="1" stop-color="white" stop-opacity="0"/>
</linearGradient>
<linearGradient id="paint61_linear_50_2588" x1="208.421" y1="-23.6025" x2="208.421" y2="181.53" gradientUnits="userSpaceOnUse">
<stop stop-color="white"/>
<stop offset="1" stop-color="white" stop-opacity="0"/>
</linearGradient>
<linearGradient id="paint62_linear_50_2588" x1="208.421" y1="-23.6025" x2="208.421" y2="181.53" gradientUnits="userSpaceOnUse">
<stop stop-color="white"/>
<stop offset="1" stop-color="white" stop-opacity="0"/>
</linearGradient>
<linearGradient id="paint63_linear_50_2588" x1="208.421" y1="-23.6025" x2="208.421" y2="181.53" gradientUnits="userSpaceOnUse">
<stop stop-color="white"/>
<stop offset="1" stop-color="white" stop-opacity="0"/>
</linearGradient>
<linearGradient id="paint64_linear_50_2588" x1="208.421" y1="-23.6025" x2="208.421" y2="181.53" gradientUnits="userSpaceOnUse">
<stop stop-color="white"/>
<stop offset="1" stop-color="white" stop-opacity="0"/>
</linearGradient>
<linearGradient id="paint65_linear_50_2588" x1="208.421" y1="-23.6025" x2="208.421" y2="181.53" gradientUnits="userSpaceOnUse">
<stop stop-color="white"/>
<stop offset="1" stop-color="white" stop-opacity="0"/>
</linearGradient>
<linearGradient id="paint66_linear_50_2588" x1="208.421" y1="-23.6025" x2="208.421" y2="181.53" gradientUnits="userSpaceOnUse">
<stop stop-color="white"/>
<stop offset="1" stop-color="white" stop-opacity="0"/>
</linearGradient>
<linearGradient id="paint67_linear_50_2588" x1="208.421" y1="-23.6025" x2="208.421" y2="181.53" gradientUnits="userSpaceOnUse">
<stop stop-color="white"/>
<stop offset="1" stop-color="white" stop-opacity="0"/>
</linearGradient>
<linearGradient id="paint68_linear_50_2588" x1="208.421" y1="-23.6025" x2="208.421" y2="181.53" gradientUnits="userSpaceOnUse">
<stop stop-color="white"/>
<stop offset="1" stop-color="white" stop-opacity="0"/>
</linearGradient>
<linearGradient id="paint69_linear_50_2588" x1="208.421" y1="-23.6025" x2="208.421" y2="181.53" gradientUnits="userSpaceOnUse">
<stop stop-color="white"/>
<stop offset="1" stop-color="white" stop-opacity="0"/>
</linearGradient>
<linearGradient id="paint70_linear_50_2588" x1="208.421" y1="-23.6025" x2="208.421" y2="181.53" gradientUnits="userSpaceOnUse">
<stop stop-color="white"/>
<stop offset="1" stop-color="white" stop-opacity="0"/>
</linearGradient>
<linearGradient id="paint71_linear_50_2588" x1="208.421" y1="-23.6025" x2="208.421" y2="181.53" gradientUnits="userSpaceOnUse">
<stop stop-color="white"/>
<stop offset="1" stop-color="white" stop-opacity="0"/>
</linearGradient>
<linearGradient id="paint72_linear_50_2588" x1="208.421" y1="-23.6025" x2="208.421" y2="181.53" gradientUnits="userSpaceOnUse">
<stop stop-color="white"/>
<stop offset="1" stop-color="white" stop-opacity="0"/>
</linearGradient>
<linearGradient id="paint73_linear_50_2588" x1="208.421" y1="-23.6025" x2="208.421" y2="181.53" gradientUnits="userSpaceOnUse">
<stop stop-color="white"/>
<stop offset="1" stop-color="white" stop-opacity="0"/>
</linearGradient>
<linearGradient id="paint74_linear_50_2588" x1="208.421" y1="-23.6025" x2="208.421" y2="181.53" gradientUnits="userSpaceOnUse">
<stop stop-color="white"/>
<stop offset="1" stop-color="white" stop-opacity="0"/>
</linearGradient>
<linearGradient id="paint75_linear_50_2588" x1="208.421" y1="-23.6025" x2="208.421" y2="181.53" gradientUnits="userSpaceOnUse">
<stop stop-color="white"/>
<stop offset="1" stop-color="white" stop-opacity="0"/>
</linearGradient>
<linearGradient id="paint76_linear_50_2588" x1="208.421" y1="-23.6025" x2="208.421" y2="181.53" gradientUnits="userSpaceOnUse">
<stop stop-color="white"/>
<stop offset="1" stop-color="white" stop-opacity="0"/>
</linearGradient>
<linearGradient id="paint77_linear_50_2588" x1="208.421" y1="-23.6025" x2="208.421" y2="181.53" gradientUnits="userSpaceOnUse">
<stop stop-color="white"/>
<stop offset="1" stop-color="white" stop-opacity="0"/>
</linearGradient>
<linearGradient id="paint78_linear_50_2588" x1="208.421" y1="-23.6025" x2="208.421" y2="181.53" gradientUnits="userSpaceOnUse">
<stop stop-color="white"/>
<stop offset="1" stop-color="white" stop-opacity="0"/>
</linearGradient>
<linearGradient id="paint79_linear_50_2588" x1="208.421" y1="-23.6025" x2="208.421" y2="181.53" gradientUnits="userSpaceOnUse">
<stop stop-color="white"/>
<stop offset="1" stop-color="white" stop-opacity="0"/>
</linearGradient>
<linearGradient id="paint80_linear_50_2588" x1="208.421" y1="-23.6025" x2="208.421" y2="181.53" gradientUnits="userSpaceOnUse">
<stop stop-color="white"/>
<stop offset="1" stop-color="white" stop-opacity="0"/>
</linearGradient>
<linearGradient id="paint81_linear_50_2588" x1="208.421" y1="-23.6025" x2="208.421" y2="181.53" gradientUnits="userSpaceOnUse">
<stop stop-color="white"/>
<stop offset="1" stop-color="white" stop-opacity="0"/>
</linearGradient>
<linearGradient id="paint82_linear_50_2588" x1="208.421" y1="-23.6025" x2="208.421" y2="181.53" gradientUnits="userSpaceOnUse">
<stop stop-color="white"/>
<stop offset="1" stop-color="white" stop-opacity="0"/>
</linearGradient>
<linearGradient id="paint83_linear_50_2588" x1="208.421" y1="-23.6025" x2="208.421" y2="181.53" gradientUnits="userSpaceOnUse">
<stop stop-color="white"/>
<stop offset="1" stop-color="white" stop-opacity="0"/>
</linearGradient>
<linearGradient id="paint84_linear_50_2588" x1="208.421" y1="-23.6025" x2="208.421" y2="181.53" gradientUnits="userSpaceOnUse">
<stop stop-color="white"/>
<stop offset="1" stop-color="white" stop-opacity="0"/>
</linearGradient>
<linearGradient id="paint85_linear_50_2588" x1="208.421" y1="-23.6025" x2="208.421" y2="181.53" gradientUnits="userSpaceOnUse">
<stop stop-color="white"/>
<stop offset="1" stop-color="white" stop-opacity="0"/>
</linearGradient>
<linearGradient id="paint86_linear_50_2588" x1="208.421" y1="-23.6025" x2="208.421" y2="181.53" gradientUnits="userSpaceOnUse">
<stop stop-color="white"/>
<stop offset="1" stop-color="white" stop-opacity="0"/>
</linearGradient>
<linearGradient id="paint87_linear_50_2588" x1="208.421" y1="-23.6025" x2="208.421" y2="181.53" gradientUnits="userSpaceOnUse">
<stop stop-color="white"/>
<stop offset="1" stop-color="white" stop-opacity="0"/>
</linearGradient>
<linearGradient id="paint88_linear_50_2588" x1="208.421" y1="-23.6025" x2="208.421" y2="181.53" gradientUnits="userSpaceOnUse">
<stop stop-color="white"/>
<stop offset="1" stop-color="white" stop-opacity="0"/>
</linearGradient>
<linearGradient id="paint89_linear_50_2588" x1="208.421" y1="-23.6025" x2="208.421" y2="181.53" gradientUnits="userSpaceOnUse">
<stop stop-color="white"/>
<stop offset="1" stop-color="white" stop-opacity="0"/>
</linearGradient>
<linearGradient id="paint90_linear_50_2588" x1="208.421" y1="-23.6025" x2="208.421" y2="181.53" gradientUnits="userSpaceOnUse">
<stop stop-color="white"/>
<stop offset="1" stop-color="white" stop-opacity="0"/>
</linearGradient>
<linearGradient id="paint91_linear_50_2588" x1="208.421" y1="-23.6025" x2="208.421" y2="181.53" gradientUnits="userSpaceOnUse">
<stop stop-color="white"/>
<stop offset="1" stop-color="white" stop-opacity="0"/>
</linearGradient>
<linearGradient id="paint92_linear_50_2588" x1="208.421" y1="-23.6025" x2="208.421" y2="181.53" gradientUnits="userSpaceOnUse">
<stop stop-color="white"/>
<stop offset="1" stop-color="white" stop-opacity="0"/>
</linearGradient>
<linearGradient id="paint93_linear_50_2588" x1="208.421" y1="-23.6025" x2="208.421" y2="181.53" gradientUnits="userSpaceOnUse">
<stop stop-color="white"/>
<stop offset="1" stop-color="white" stop-opacity="0"/>
</linearGradient>
<linearGradient id="paint94_linear_50_2588" x1="208.421" y1="-23.6025" x2="208.421" y2="181.53" gradientUnits="userSpaceOnUse">
<stop stop-color="white"/>
<stop offset="1" stop-color="white" stop-opacity="0"/>
</linearGradient>
<linearGradient id="paint95_linear_50_2588" x1="208.421" y1="-23.6025" x2="208.421" y2="181.53" gradientUnits="userSpaceOnUse">
<stop stop-color="white"/>
<stop offset="1" stop-color="white" stop-opacity="0"/>
</linearGradient>
<linearGradient id="paint96_linear_50_2588" x1="208.421" y1="-23.6025" x2="208.421" y2="181.53" gradientUnits="userSpaceOnUse">
<stop stop-color="white"/>
<stop offset="1" stop-color="white" stop-opacity="0"/>
</linearGradient>
<linearGradient id="paint97_linear_50_2588" x1="208.421" y1="-23.6025" x2="208.421" y2="181.53" gradientUnits="userSpaceOnUse">
<stop stop-color="white"/>
<stop offset="1" stop-color="white" stop-opacity="0"/>
</linearGradient>
<linearGradient id="paint98_linear_50_2588" x1="208.421" y1="-23.6025" x2="208.421" y2="181.53" gradientUnits="userSpaceOnUse">
<stop stop-color="white"/>
<stop offset="1" stop-color="white" stop-opacity="0"/>
</linearGradient>
<linearGradient id="paint99_linear_50_2588" x1="208.421" y1="-23.6025" x2="208.421" y2="181.53" gradientUnits="userSpaceOnUse">
<stop stop-color="white"/>
<stop offset="1" stop-color="white" stop-opacity="0"/>
</linearGradient>
<linearGradient id="paint100_linear_50_2588" x1="208.421" y1="-23.6025" x2="208.421" y2="181.53" gradientUnits="userSpaceOnUse">
<stop stop-color="white"/>
<stop offset="1" stop-color="white" stop-opacity="0"/>
</linearGradient>
<linearGradient id="paint101_linear_50_2588" x1="208.421" y1="-23.6025" x2="208.421" y2="181.53" gradientUnits="userSpaceOnUse">
<stop stop-color="white"/>
<stop offset="1" stop-color="white" stop-opacity="0"/>
</linearGradient>
<linearGradient id="paint102_linear_50_2588" x1="208.421" y1="-23.6025" x2="208.421" y2="181.53" gradientUnits="userSpaceOnUse">
<stop stop-color="white"/>
<stop offset="1" stop-color="white" stop-opacity="0"/>
</linearGradient>
<linearGradient id="paint103_linear_50_2588" x1="208.421" y1="-23.6025" x2="208.421" y2="181.53" gradientUnits="userSpaceOnUse">
<stop stop-color="white"/>
<stop offset="1" stop-color="white" stop-opacity="0"/>
</linearGradient>
<linearGradient id="paint104_linear_50_2588" x1="208.421" y1="-23.6025" x2="208.421" y2="181.53" gradientUnits="userSpaceOnUse">
<stop stop-color="white"/>
<stop offset="1" stop-color="white" stop-opacity="0"/>
</linearGradient>
<linearGradient id="paint105_linear_50_2588" x1="208.421" y1="-23.6025" x2="208.421" y2="181.53" gradientUnits="userSpaceOnUse">
<stop stop-color="white"/>
<stop offset="1" stop-color="white" stop-opacity="0"/>
</linearGradient>
<linearGradient id="paint106_linear_50_2588" x1="208.421" y1="-23.6025" x2="208.421" y2="181.53" gradientUnits="userSpaceOnUse">
<stop stop-color="white"/>
<stop offset="1" stop-color="white" stop-opacity="0"/>
</linearGradient>
<linearGradient id="paint107_linear_50_2588" x1="208.421" y1="-23.6025" x2="208.421" y2="181.53" gradientUnits="userSpaceOnUse">
<stop stop-color="white"/>
<stop offset="1" stop-color="white" stop-opacity="0"/>
</linearGradient>
<linearGradient id="paint108_linear_50_2588" x1="208.421" y1="-23.6025" x2="208.421" y2="181.53" gradientUnits="userSpaceOnUse">
<stop stop-color="white"/>
<stop offset="1" stop-color="white" stop-opacity="0"/>
</linearGradient>
<linearGradient id="paint109_linear_50_2588" x1="208.421" y1="-23.6025" x2="208.421" y2="181.53" gradientUnits="userSpaceOnUse">
<stop stop-color="white"/>
<stop offset="1" stop-color="white" stop-opacity="0"/>
</linearGradient>
<linearGradient id="paint110_linear_50_2588" x1="208.421" y1="-23.6025" x2="208.421" y2="181.53" gradientUnits="userSpaceOnUse">
<stop stop-color="white"/>
<stop offset="1" stop-color="white" stop-opacity="0"/>
</linearGradient>
<linearGradient id="paint111_linear_50_2588" x1="208.421" y1="-23.6025" x2="208.421" y2="181.53" gradientUnits="userSpaceOnUse">
<stop stop-color="white"/>
<stop offset="1" stop-color="white" stop-opacity="0"/>
</linearGradient>
<linearGradient id="paint112_linear_50_2588" x1="208.421" y1="-23.6025" x2="208.421" y2="181.53" gradientUnits="userSpaceOnUse">
<stop stop-color="white"/>
<stop offset="1" stop-color="white" stop-opacity="0"/>
</linearGradient>
<linearGradient id="paint113_linear_50_2588" x1="208.421" y1="-23.6025" x2="208.421" y2="181.53" gradientUnits="userSpaceOnUse">
<stop stop-color="white"/>
<stop offset="1" stop-color="white" stop-opacity="0"/>
</linearGradient>
<linearGradient id="paint114_linear_50_2588" x1="208.421" y1="-23.6025" x2="208.421" y2="181.53" gradientUnits="userSpaceOnUse">
<stop stop-color="white"/>
<stop offset="1" stop-color="white" stop-opacity="0"/>
</linearGradient>
<linearGradient id="paint115_linear_50_2588" x1="208.421" y1="-23.6025" x2="208.421" y2="181.53" gradientUnits="userSpaceOnUse">
<stop stop-color="white"/>
<stop offset="1" stop-color="white" stop-opacity="0"/>
</linearGradient>
<linearGradient id="paint116_linear_50_2588" x1="208.421" y1="-23.6025" x2="208.421" y2="181.53" gradientUnits="userSpaceOnUse">
<stop stop-color="white"/>
<stop offset="1" stop-color="white" stop-opacity="0"/>
</linearGradient>
<linearGradient id="paint117_linear_50_2588" x1="208.421" y1="-23.6025" x2="208.421" y2="181.53" gradientUnits="userSpaceOnUse">
<stop stop-color="white"/>
<stop offset="1" stop-color="white" stop-opacity="0"/>
</linearGradient>
<linearGradient id="paint118_linear_50_2588" x1="208.421" y1="-23.6025" x2="208.421" y2="181.53" gradientUnits="userSpaceOnUse">
<stop stop-color="white"/>
<stop offset="1" stop-color="white" stop-opacity="0"/>
</linearGradient>
<linearGradient id="paint119_linear_50_2588" x1="208.421" y1="-23.6025" x2="208.421" y2="181.53" gradientUnits="userSpaceOnUse">
<stop stop-color="white"/>
<stop offset="1" stop-color="white" stop-opacity="0"/>
</linearGradient>
<linearGradient id="paint120_linear_50_2588" x1="208.421" y1="-23.6025" x2="208.421" y2="181.53" gradientUnits="userSpaceOnUse">
<stop stop-color="white"/>
<stop offset="1" stop-color="white" stop-opacity="0"/>
</linearGradient>
<linearGradient id="paint121_linear_50_2588" x1="208.421" y1="-23.6025" x2="208.421" y2="181.53" gradientUnits="userSpaceOnUse">
<stop stop-color="white"/>
<stop offset="1" stop-color="white" stop-opacity="0"/>
</linearGradient>
</defs>
</svg>
