<svg width="191" height="100" viewBox="0 0 191 100" fill="none" xmlns="http://www.w3.org/2000/svg">
<path fill-rule="evenodd" clip-rule="evenodd" d="M126.696 19.8455C117.599 7.79137 103.154 -6.10352e-05 86.8893 -6.10352e-05C69.103 -6.10352e-05 53.4929 9.31726 44.6736 23.3373C42.1709 22.8017 39.5741 22.5198 36.9115 22.5198C16.5258 22.5198 0 39.0456 0 59.4313C0 79.8169 16.5258 96.3428 36.9115 96.3428C44.529 96.3428 51.6075 94.0353 57.4862 90.0812C65.7285 96.1135 75.893 99.6748 86.8893 99.6748C96.8339 99.6748 106.098 96.7621 113.876 91.7432C117.567 92.9821 121.519 93.6533 125.627 93.6533C134.693 93.6533 142.996 90.385 149.421 84.9623C153.51 87.3486 158.266 88.7158 163.342 88.7158C178.617 88.7158 191 76.3327 191 61.0574C191 45.782 178.617 33.3989 163.342 33.3989C160.501 33.3989 157.76 33.8272 155.18 34.6227C148.646 25.9069 138.347 20.1766 126.696 19.8455Z" fill="url(#paint0_linear_23_6387)"/>
<defs>
<linearGradient id="paint0_linear_23_6387" x1="81.5" y1="4.5" x2="81.5" y2="78.5" gradientUnits="userSpaceOnUse">
<stop stop-color="#FF6893"/>
<stop offset="0.278871" stop-color="#F02E65" stop-opacity="0.99"/>
<stop offset="0.657422" stop-color="#EC2E65" stop-opacity="0.29"/>
<stop offset="1" stop-color="#EC2E65" stop-opacity="0"/>
</linearGradient>
</defs>
</svg>
