<svg width="168" height="15" viewBox="0 0 168 15" fill="none" xmlns="http://www.w3.org/2000/svg">
<path d="M6.09214 12.3824H2.03071L1.28256 14.4532H0L3.36671 5.19476H4.76951L8.12286 14.4532H6.8403L6.09214 12.3824ZM5.74478 11.3938L4.06143 6.69107L2.37807 11.3938H5.74478Z" fill="white"/>
<path d="M18.4879 7.86675C18.4879 8.64163 18.2207 9.28736 17.6863 9.80394C17.1608 10.3116 16.3547 10.5655 15.2681 10.5655H13.4779V14.4532H12.2621V5.14132H15.2681C16.3191 5.14132 17.1163 5.39516 17.6596 5.90283C18.2118 6.41051 18.4879 7.06515 18.4879 7.86675ZM15.2681 9.56346C15.945 9.56346 16.4438 9.4165 16.7645 9.12259C17.0851 8.82867 17.2454 8.41005 17.2454 7.86675C17.2454 6.71779 16.5863 6.14331 15.2681 6.14331H13.4779V9.56346H15.2681Z" fill="white"/>
<path d="M28.8967 7.86675C28.8967 8.64163 28.6295 9.28736 28.0951 9.80394C27.5696 10.3116 26.7635 10.5655 25.6769 10.5655H23.8867V14.4532H22.6709V5.14132H25.6769C26.7279 5.14132 27.525 5.39516 28.0683 5.90283C28.6206 6.41051 28.8967 7.06515 28.8967 7.86675ZM25.6769 9.56346C26.3538 9.56346 26.8526 9.4165 27.1732 9.12259C27.4939 8.82867 27.6542 8.41005 27.6542 7.86675C27.6542 6.71779 26.9951 6.14331 25.6769 6.14331H23.8867V9.56346H25.6769Z" fill="white"/>
<path d="M44.783 5.14132L42.0843 14.4532H40.7216L38.5573 6.95827L36.3128 14.4532L34.9634 14.4666L32.3582 5.14132H33.6542L35.6849 13.0371L37.9293 5.14132H39.2921L41.4297 13.0103L43.4737 5.14132H44.783Z" fill="white"/>
<path d="M53.6886 14.4532L51.4708 10.6456H50.0012V14.4532H48.7855V5.14132H51.7915C52.4951 5.14132 53.0874 5.26156 53.5683 5.50204C54.0582 5.74252 54.4234 6.06761 54.6638 6.47731C54.9043 6.88702 55.0246 7.35462 55.0246 7.88011C55.0246 8.52139 54.8375 9.08696 54.4634 9.57682C54.0983 10.0667 53.5461 10.3918 52.8068 10.5521L55.1448 14.4532H53.6886ZM50.0012 9.67034H51.7915C52.4505 9.67034 52.9449 9.51003 53.2744 9.18939C53.604 8.85984 53.7687 8.42341 53.7687 7.88011C53.7687 7.3279 53.604 6.90038 53.2744 6.59755C52.9538 6.29473 52.4594 6.14331 51.7915 6.14331H50.0012V9.67034Z" fill="white"/>
<path d="M60.8014 5.14132V14.4532H59.5856V5.14132H60.8014Z" fill="white"/>
<path d="M71.2768 5.14132V6.12995H68.7385V14.4532H67.5227V6.12995H64.9709V5.14132H71.2768Z" fill="white"/>
<path d="M76.6611 6.12995V9.24283H80.0546V10.2448H76.6611V13.4512H80.4553V14.4532H75.4454V5.12796H80.4553V6.12995H76.6611Z" fill="white"/>
<path d="M84.3791 9.7505C84.3791 8.82421 84.5795 8.00035 84.9803 7.27891C85.3811 6.54857 85.9378 5.983 86.6503 5.5822C87.3717 5.17249 88.1867 4.96764 89.0952 4.96764C90.2085 4.96764 91.1615 5.26156 91.9542 5.8494C92.7469 6.43723 93.2768 7.23883 93.544 8.25419H91.0324C90.8453 7.8623 90.5781 7.56392 90.2308 7.35907C89.8923 7.15422 89.5049 7.05179 89.0684 7.05179C88.3648 7.05179 87.7948 7.29672 87.3584 7.78659C86.922 8.27645 86.7037 8.93109 86.7037 9.7505C86.7037 10.5699 86.922 11.2246 87.3584 11.7144C87.7948 12.2043 88.3648 12.4492 89.0684 12.4492C89.5049 12.4492 89.8923 12.3468 90.2308 12.1419C90.5781 11.9371 90.8453 11.6387 91.0324 11.2468H93.544C93.2768 12.2622 92.7469 13.0638 91.9542 13.6516C91.1615 14.2305 90.2085 14.52 89.0952 14.52C88.1867 14.52 87.3717 14.3196 86.6503 13.9188C85.9378 13.5091 85.3811 12.9435 84.9803 12.2221C84.5795 11.5007 84.3791 10.6768 84.3791 9.7505Z" fill="white"/>
<path d="M99.8996 12.6897H102.892V14.4532H97.6151V5.07452H99.8996V12.6897Z" fill="white"/>
<path d="M111.089 14.5467C110.208 14.5467 109.397 14.3419 108.658 13.9322C107.928 13.5225 107.344 12.9524 106.908 12.2221C106.48 11.4828 106.266 10.6545 106.266 9.73714C106.266 8.81976 106.48 7.9959 106.908 7.26555C107.344 6.53521 107.928 5.96518 108.658 5.55548C109.397 5.14577 110.208 4.94092 111.089 4.94092C111.971 4.94092 112.777 5.14577 113.508 5.55548C114.247 5.96518 114.826 6.53521 115.244 7.26555C115.672 7.9959 115.886 8.81976 115.886 9.73714C115.886 10.6545 115.672 11.4828 115.244 12.2221C114.817 12.9524 114.238 13.5225 113.508 13.9322C112.777 14.3419 111.971 14.5467 111.089 14.5467ZM111.089 12.4626C111.838 12.4626 112.434 12.2132 112.88 11.7144C113.334 11.2156 113.561 10.5566 113.561 9.73714C113.561 8.90883 113.334 8.24974 112.88 7.75987C112.434 7.2611 111.838 7.01171 111.089 7.01171C110.332 7.01171 109.727 7.25664 109.272 7.74651C108.827 8.23638 108.604 8.89992 108.604 9.73714C108.604 10.5655 108.827 11.229 109.272 11.7278C109.727 12.2176 110.332 12.4626 111.089 12.4626Z" fill="white"/>
<path d="M122.073 5.07452V10.6857C122.073 11.2468 122.211 11.6788 122.487 11.9816C122.763 12.2844 123.169 12.4359 123.703 12.4359C124.237 12.4359 124.647 12.2844 124.932 11.9816C125.217 11.6788 125.36 11.2468 125.36 10.6857V5.07452H127.644V10.6723C127.644 11.5096 127.466 12.2176 127.11 12.7966C126.754 13.3755 126.273 13.8119 125.667 14.1059C125.07 14.3998 124.402 14.5467 123.663 14.5467C122.924 14.5467 122.26 14.4042 121.672 14.1192C121.093 13.8253 120.635 13.3889 120.296 12.8099C119.958 12.2221 119.789 11.5096 119.789 10.6723V5.07452H122.073Z" fill="white"/>
<path d="M135.434 5.07452C136.423 5.07452 137.287 5.27046 138.026 5.66236C138.765 6.05425 139.335 6.60646 139.736 7.31899C140.146 8.02262 140.351 8.83757 140.351 9.76386C140.351 10.6812 140.146 11.4962 139.736 12.2087C139.335 12.9213 138.761 13.4735 138.013 13.8654C137.273 14.2573 136.414 14.4532 135.434 14.4532H131.92V5.07452H135.434ZM135.287 12.4759C136.151 12.4759 136.824 12.2399 137.304 11.7679C137.785 11.2958 138.026 10.6278 138.026 9.76386C138.026 8.89992 137.785 8.22747 137.304 7.74651C136.824 7.26555 136.151 7.02507 135.287 7.02507H134.205V12.4759H135.287Z" fill="white"/>
<path d="M152.571 14.6905C150.322 14.6905 148.498 12.8488 148.498 10.5768C148.498 8.45138 150.094 6.70241 152.141 6.48572C152.042 6.10327 151.989 5.70178 151.989 5.28779C151.989 2.6913 154.073 0.586426 156.643 0.586426C158.829 0.586426 160.664 2.10894 161.163 4.16152C161.397 4.12917 161.636 4.11245 161.879 4.11245C164.771 4.11245 167.116 6.48043 167.116 9.40149C167.116 12.3225 164.771 14.6905 161.879 14.6905H152.571Z" fill="url(#paint0_linear_1024_23937)"/>
<defs>
<linearGradient id="paint0_linear_1024_23937" x1="157.807" y1="0.586426" x2="157.807" y2="19.0754" gradientUnits="userSpaceOnUse">
<stop stop-color="white"/>
<stop offset="1" stop-color="white" stop-opacity="0.7"/>
</linearGradient>
</defs>
</svg>
