<svg width="100" height="17" viewBox="0 0 100 17" fill="none" xmlns="http://www.w3.org/2000/svg">
<path fill-rule="evenodd" clip-rule="evenodd" d="M2.10882 5.65421C0.579614 7.20474 0.579614 9.71836 2.10882 11.2687L6.53845 15.7603C8.06765 17.3107 10.5467 17.3107 12.0757 15.7603L16.5055 11.2687C18.0346 9.71821 18.0346 7.2046 16.5055 5.65421L12.0757 1.16279C10.5465 -0.387596 8.06751 -0.387596 6.53845 1.16279L2.10882 5.65421ZM11.2451 10.4266C12.3155 9.34126 12.3155 7.5817 11.2451 6.49647C10.1748 5.4111 8.43942 5.4111 7.36913 6.49647C6.29868 7.58184 6.29868 9.34126 7.36913 10.4266C8.43957 11.5119 10.1748 11.5119 11.2452 10.4266H11.2451Z" fill="#F02E65"/>
<path d="M21.4214 14.9122V1.80273H23.9833V7.32707L23.6759 6.91145C23.8922 6.34574 24.2395 5.93011 24.7177 5.66457C25.2073 5.38749 25.7766 5.24895 26.4257 5.24895C27.1316 5.24895 27.7465 5.39904 28.2702 5.69921C28.8054 5.99938 29.221 6.42078 29.517 6.9634C29.8131 7.49448 29.9611 8.11791 29.9611 8.83371V14.9122H27.3992V9.38788C27.3992 9.01843 27.3252 8.70094 27.1772 8.4354C27.0405 8.16987 26.8413 7.96205 26.5794 7.81197C26.3289 7.66188 26.0328 7.58684 25.6912 7.58684C25.361 7.58684 25.065 7.66188 24.8031 7.81197C24.5412 7.96205 24.3363 8.16987 24.1883 8.4354C24.0516 8.70094 23.9833 9.01843 23.9833 9.38788V14.9122H21.4214Z" fill="#F02E65"/>
<path d="M34.1905 15.12C33.5187 15.12 32.938 15.0103 32.4484 14.791C31.9588 14.5716 31.5831 14.2599 31.3212 13.8558C31.0593 13.4402 30.9284 12.9495 30.9284 12.3838C30.9284 11.8528 31.0479 11.3852 31.287 10.9811C31.5261 10.5655 31.8905 10.2191 32.3801 9.94204C32.8811 9.66496 33.5017 9.46869 34.2418 9.35324L37.094 8.88566V10.7906L34.7029 11.2235C34.3386 11.2928 34.0596 11.414 33.866 11.5872C33.6725 11.7489 33.5757 11.9855 33.5757 12.2972C33.5757 12.5859 33.6838 12.811 33.9002 12.9726C34.1165 13.1343 34.3841 13.2151 34.7029 13.2151C35.1242 13.2151 35.4943 13.1227 35.8131 12.938C36.1319 12.7533 36.3767 12.5051 36.5475 12.1933C36.7297 11.8701 36.8208 11.5179 36.8208 11.137V8.67785C36.8208 8.31995 36.6784 8.01978 36.3938 7.77733C36.1205 7.53488 35.7448 7.41366 35.2665 7.41366C34.8111 7.41366 34.4069 7.54066 34.0539 7.79465C33.7123 8.04864 33.4618 8.38345 33.3024 8.79907L31.2529 7.81197C31.4351 7.28089 31.7254 6.82486 32.1239 6.44387C32.5224 6.06288 33.0007 5.76848 33.5586 5.56067C34.1165 5.35286 34.7257 5.24895 35.3861 5.24895C36.1718 5.24895 36.8663 5.39326 37.4698 5.68189C38.0733 5.97052 38.5401 6.3746 38.8703 6.89413C39.2119 7.40212 39.3827 7.99669 39.3827 8.67785V14.9122H36.9916V13.3883L37.5723 13.2844C37.299 13.7 36.9973 14.0463 36.6671 14.3234C36.3369 14.5889 35.9668 14.7852 35.5569 14.9122C35.147 15.0508 34.6915 15.12 34.1905 15.12Z" fill="#F02E65"/>
<path d="M44.575 15.12C43.5502 15.12 42.6564 14.8776 41.8935 14.3927C41.142 13.8962 40.6296 13.2324 40.3564 12.4011L42.2351 11.5006C42.4742 12.0086 42.7987 12.4069 43.2086 12.6955C43.6185 12.9842 44.074 13.1285 44.575 13.1285C44.9393 13.1285 45.2183 13.0534 45.4119 12.9034C45.6054 12.7533 45.7022 12.5455 45.7022 12.2799C45.7022 12.1414 45.6681 12.0259 45.5997 11.9336C45.5314 11.8297 45.4289 11.7373 45.2923 11.6565C45.1557 11.5757 44.9849 11.5064 44.7799 11.4487L43.1915 10.9984C42.4287 10.7791 41.8423 10.4269 41.4324 9.94204C41.0224 9.4456 40.8175 8.86257 40.8175 8.19296C40.8175 7.60415 40.9655 7.0904 41.2616 6.65168C41.5576 6.21297 41.9732 5.87239 42.5084 5.62994C43.0435 5.37595 43.6584 5.24895 44.3529 5.24895C45.2638 5.24895 46.0609 5.46831 46.7441 5.90702C47.4386 6.33419 47.9282 6.94031 48.2129 7.72538L46.3171 8.6259C46.1804 8.23336 45.9299 7.92165 45.5656 7.69074C45.2126 7.4483 44.8084 7.32707 44.3529 7.32707C44.0227 7.32707 43.7609 7.39634 43.5673 7.53488C43.3851 7.67342 43.294 7.86392 43.294 8.10637C43.294 8.23336 43.3282 8.34881 43.3965 8.45272C43.4648 8.55663 43.573 8.64899 43.721 8.7298C43.8804 8.81062 44.074 8.88566 44.3017 8.95493L45.7876 9.40519C46.5619 9.63609 47.154 9.98822 47.5639 10.4616C47.9738 10.9234 48.1787 11.4949 48.1787 12.176C48.1787 12.7648 48.025 13.2786 47.7176 13.7173C47.4215 14.156 47.0059 14.5024 46.4708 14.7564C45.9356 14.9988 45.3037 15.12 44.575 15.12Z" fill="#F02E65"/>
<path d="M49.3683 14.9122V1.80273H51.9302V7.32707L51.6228 6.91145C51.8391 6.34574 52.1864 5.93011 52.6646 5.66457C53.1542 5.38749 53.7235 5.24895 54.3726 5.24895C55.0785 5.24895 55.6934 5.39904 56.2171 5.69921C56.7523 5.99938 57.1679 6.42078 57.4639 6.9634C57.76 7.49448 57.908 8.11791 57.908 8.83371V14.9122H55.3461V9.38788C55.3461 9.01843 55.2721 8.70094 55.1241 8.4354C54.9874 8.16987 54.7882 7.96205 54.5263 7.81197C54.2758 7.66188 53.9797 7.58684 53.6382 7.58684C53.308 7.58684 53.0119 7.66188 52.75 7.81197C52.4881 7.96205 52.2832 8.16987 52.1352 8.4354C51.9985 8.70094 51.9302 9.01843 51.9302 9.38788V14.9122H49.3683Z" fill="#F02E65"/>
<path d="M59.251 14.9122V5.45676H61.6421V7.32707L61.5055 6.91145C61.7218 6.34574 62.0691 5.93011 62.5474 5.66457C63.037 5.38749 63.6063 5.24895 64.2553 5.24895C64.9612 5.24895 65.5761 5.39904 66.0999 5.69921C66.635 5.99938 67.0506 6.42078 67.3467 6.9634C67.6427 7.49448 67.7907 8.11791 67.7907 8.83371V14.9122H65.2288V9.38788C65.2288 9.01843 65.1548 8.70094 65.0068 8.4354C64.8702 8.16987 64.6709 7.96205 64.409 7.81197C64.1585 7.66188 63.8625 7.58684 63.5209 7.58684C63.1907 7.58684 62.8946 7.66188 62.6327 7.81197C62.3709 7.96205 62.1659 8.16987 62.0179 8.4354C61.8813 8.70094 61.8129 9.01843 61.8129 9.38788V14.9122H59.251Z" fill="#F02E65"/>
<path d="M73.7623 15.12C72.84 15.12 71.9974 14.9064 71.2345 14.4793C70.483 14.0521 69.8795 13.4691 69.4241 12.7302C68.98 11.9798 68.758 11.1312 68.758 10.1845C68.758 9.22624 68.98 8.37768 69.4241 7.63879C69.8795 6.8999 70.483 6.31687 71.2345 5.88971C71.9974 5.46254 72.84 5.24895 73.7623 5.24895C74.6846 5.24895 75.5215 5.46254 76.273 5.88971C77.0244 6.31687 77.6222 6.8999 78.0663 7.63879C78.5217 8.37768 78.7495 9.22624 78.7495 10.1845C78.7495 11.1312 78.5217 11.9798 78.0663 12.7302C77.6222 13.4691 77.0244 14.0521 76.273 14.4793C75.5215 14.9064 74.6846 15.12 73.7623 15.12ZM73.7623 12.7821C74.2291 12.7821 74.6333 12.6725 74.9749 12.4531C75.3279 12.2337 75.6012 11.9278 75.7947 11.5353C75.9997 11.1427 76.1022 10.6925 76.1022 10.1845C76.1022 9.6765 75.9997 9.23202 75.7947 8.85103C75.6012 8.45849 75.3279 8.15255 74.9749 7.93319C74.6333 7.70229 74.2291 7.58684 73.7623 7.58684C73.2954 7.58684 72.8855 7.70229 72.5326 7.93319C72.1796 8.15255 71.9006 8.45849 71.6957 8.85103C71.5021 9.23202 71.4053 9.6765 71.4053 10.1845C71.4053 10.6925 71.5021 11.1427 71.6957 11.5353C71.9006 11.9278 72.1796 12.2337 72.5326 12.4531C72.8855 12.6725 73.2954 12.7821 73.7623 12.7821Z" fill="#F02E65"/>
<path d="M84.3066 15.12C83.3957 15.12 82.5815 14.9007 81.8642 14.462C81.1469 14.0232 80.5775 13.4287 80.1563 12.6782C79.7463 11.9278 79.5414 11.0966 79.5414 10.1845C79.5414 9.26088 79.752 8.42963 80.1733 7.69074C80.5946 6.94031 81.1639 6.34574 81.8813 5.90702C82.5986 5.46831 83.4013 5.24895 84.2895 5.24895C84.9727 5.24895 85.5761 5.38172 86.0999 5.64726C86.6351 5.90125 87.0564 6.26492 87.3638 6.73827L86.9709 7.2578V1.80273H89.5329V14.9122H87.1417V13.1804L87.3809 13.7173C87.062 14.1791 86.6294 14.5312 86.0828 14.7737C85.5363 15.0046 84.9442 15.12 84.3066 15.12ZM84.614 12.7821C85.0808 12.7821 85.4907 12.6725 85.8437 12.4531C86.1967 12.2337 86.47 11.9278 86.6635 11.5353C86.8685 11.1427 86.9709 10.6925 86.9709 10.1845C86.9709 9.6765 86.8685 9.22624 86.6635 8.83371C86.47 8.44117 86.1967 8.13523 85.8437 7.91587C85.4907 7.69652 85.0808 7.58684 84.614 7.58684C84.1472 7.58684 83.7259 7.70229 83.3501 7.93319C82.9858 8.15255 82.7011 8.45849 82.4961 8.85103C82.2912 9.23202 82.1887 9.6765 82.1887 10.1845C82.1887 10.6925 82.2912 11.1427 82.4961 11.5353C82.7011 11.9278 82.9858 12.2337 83.3501 12.4531C83.7259 12.6725 84.1472 12.7821 84.614 12.7821Z" fill="#F02E65"/>
<path d="M95.5594 15.12C94.5688 15.12 93.7091 14.9007 92.9804 14.462C92.2517 14.0117 91.688 13.4113 91.2895 12.6609C90.891 11.9105 90.6917 11.0792 90.6917 10.1672C90.6917 9.22047 90.8967 8.37768 91.3066 7.63879C91.7279 6.8999 92.2915 6.31687 92.9975 5.88971C93.7034 5.46254 94.5005 5.24895 95.3886 5.24895C96.1287 5.24895 96.7834 5.37018 97.3527 5.61262C97.922 5.84352 98.4003 6.17256 98.7874 6.59973C99.1859 7.0269 99.4877 7.52334 99.6926 8.08905C99.8976 8.64321 100 9.24933 100 9.9074C100 10.0921 99.9886 10.2768 99.9659 10.4616C99.9545 10.6347 99.926 10.7848 99.8805 10.9118H92.895V9.00689H98.4287L97.2161 9.9074C97.3299 9.41096 97.3243 8.97225 97.199 8.59126C97.0738 8.19873 96.8517 7.89278 96.5329 7.67343C96.2255 7.44252 95.844 7.32707 95.3886 7.32707C94.9445 7.32707 94.5631 7.43675 94.2443 7.65611C93.9254 7.87546 93.6863 8.19873 93.5269 8.6259C93.3675 9.05307 93.3049 9.5726 93.3391 10.1845C93.2935 10.7156 93.3561 11.1831 93.5269 11.5872C93.6977 11.9913 93.9596 12.3088 94.3126 12.5397C94.6656 12.759 95.0925 12.8687 95.5935 12.8687C96.049 12.8687 96.4361 12.7764 96.7549 12.5916C97.0851 12.4069 97.3413 12.1529 97.5235 11.8297L99.573 12.8168C99.3909 13.2786 99.1005 13.6827 98.702 14.029C98.3149 14.3754 97.8537 14.6467 97.3186 14.8429C96.7834 15.0277 96.197 15.12 95.5594 15.12Z" fill="#F02E65"/>
</svg>
