<svg width="100" height="17" viewBox="0 0 100 17" fill="none" xmlns="http://www.w3.org/2000/svg">
<path fill-rule="evenodd" clip-rule="evenodd" d="M2.10869 5.65421C0.579492 7.20474 0.579492 9.71836 2.10869 11.2687L6.53833 15.7603C8.06753 17.3107 10.5466 17.3107 12.0756 15.7603L16.5054 11.2687C18.0345 9.71821 18.0345 7.2046 16.5054 5.65421L12.0756 1.16279C10.5464 -0.387596 8.06739 -0.387596 6.53833 1.16279L2.10869 5.65421ZM11.245 10.4266C12.3154 9.34126 12.3154 7.5817 11.245 6.49647C10.1747 5.4111 8.4393 5.4111 7.369 6.49647C6.29856 7.58184 6.29856 9.34126 7.369 10.4266C8.43944 11.5119 10.1747 11.5119 11.2451 10.4266H11.245Z" fill="white"/>
<path d="M21.4213 14.9122V1.80273H23.9832V7.32707L23.6758 6.91145C23.8921 6.34574 24.2394 5.93011 24.7176 5.66457C25.2072 5.38749 25.7765 5.24895 26.4255 5.24895C27.1315 5.24895 27.7464 5.39904 28.2701 5.69921C28.8053 5.99938 29.2209 6.42078 29.5169 6.9634C29.813 7.49448 29.961 8.11791 29.961 8.83371V14.9122H27.3991V9.38788C27.3991 9.01843 27.3251 8.70094 27.177 8.4354C27.0404 8.16987 26.8411 7.96205 26.5793 7.81197C26.3288 7.66188 26.0327 7.58684 25.6911 7.58684C25.3609 7.58684 25.0649 7.66188 24.803 7.81197C24.5411 7.96205 24.3362 8.16987 24.1881 8.4354C24.0515 8.70094 23.9832 9.01843 23.9832 9.38788V14.9122H21.4213Z" fill="white"/>
<path d="M34.1904 15.12C33.5186 15.12 32.9379 15.0103 32.4483 14.791C31.9587 14.5716 31.583 14.2599 31.3211 13.8558C31.0592 13.4402 30.9282 12.9495 30.9282 12.3838C30.9282 11.8528 31.0478 11.3852 31.2869 10.9811C31.526 10.5655 31.8904 10.2191 32.38 9.94204C32.881 9.66496 33.5015 9.46869 34.2417 9.35324L37.0939 8.88566V10.7906L34.7028 11.2235C34.3384 11.2928 34.0595 11.414 33.8659 11.5872C33.6723 11.7489 33.5756 11.9855 33.5756 12.2972C33.5756 12.5859 33.6837 12.811 33.9001 12.9726C34.1164 13.1343 34.384 13.2151 34.7028 13.2151C35.1241 13.2151 35.4941 13.1227 35.813 12.938C36.1318 12.7533 36.3766 12.5051 36.5474 12.1933C36.7296 11.8701 36.8207 11.5179 36.8207 11.137V8.67785C36.8207 8.31995 36.6783 8.01978 36.3937 7.77733C36.1204 7.53488 35.7446 7.41366 35.2664 7.41366C34.811 7.41366 34.4068 7.54066 34.0538 7.79465C33.7122 8.04864 33.4617 8.38345 33.3023 8.79907L31.2528 7.81197C31.4349 7.28089 31.7253 6.82486 32.1238 6.44387C32.5223 6.06288 33.0005 5.76848 33.5585 5.56067C34.1164 5.35286 34.7256 5.24895 35.386 5.24895C36.1716 5.24895 36.8662 5.39326 37.4697 5.68189C38.0731 5.97052 38.54 6.3746 38.8702 6.89413C39.2118 7.40212 39.3826 7.99669 39.3826 8.67785V14.9122H36.9914V13.3883L37.5721 13.2844C37.2989 13.7 36.9971 14.0463 36.6669 14.3234C36.3367 14.5889 35.9667 14.7852 35.5568 14.9122C35.1469 15.0508 34.6914 15.12 34.1904 15.12Z" fill="white"/>
<path d="M44.5749 15.12C43.5501 15.12 42.6563 14.8776 41.8934 14.3927C41.1419 13.8962 40.6295 13.2324 40.3562 12.4011L42.235 11.5006C42.4741 12.0086 42.7986 12.4069 43.2085 12.6955C43.6184 12.9842 44.0739 13.1285 44.5749 13.1285C44.9392 13.1285 45.2182 13.0534 45.4117 12.9034C45.6053 12.7533 45.7021 12.5455 45.7021 12.2799C45.7021 12.1414 45.6679 12.0259 45.5996 11.9336C45.5313 11.8297 45.4288 11.7373 45.2922 11.6565C45.1556 11.5757 44.9848 11.5064 44.7798 11.4487L43.1914 10.9984C42.4285 10.7791 41.8421 10.4269 41.4322 9.94204C41.0223 9.4456 40.8174 8.86257 40.8174 8.19296C40.8174 7.60415 40.9654 7.0904 41.2614 6.65168C41.5575 6.21297 41.9731 5.87239 42.5082 5.62994C43.0434 5.37595 43.6583 5.24895 44.3528 5.24895C45.2637 5.24895 46.0608 5.46831 46.7439 5.90702C47.4385 6.33419 47.9281 6.94031 48.2128 7.72538L46.317 8.6259C46.1803 8.23336 45.9298 7.92165 45.5655 7.69074C45.2125 7.4483 44.8083 7.32707 44.3528 7.32707C44.0226 7.32707 43.7607 7.39634 43.5672 7.53488C43.385 7.67342 43.2939 7.86392 43.2939 8.10637C43.2939 8.23336 43.3281 8.34881 43.3964 8.45272C43.4647 8.55663 43.5729 8.64899 43.7209 8.7298C43.8803 8.81062 44.0739 8.88566 44.3016 8.95493L45.7875 9.40519C46.5618 9.63609 47.1538 9.98822 47.5638 10.4616C47.9737 10.9234 48.1786 11.4949 48.1786 12.176C48.1786 12.7648 48.0249 13.2786 47.7175 13.7173C47.4214 14.156 47.0058 14.5024 46.4707 14.7564C45.9355 14.9988 45.3036 15.12 44.5749 15.12Z" fill="white"/>
<path d="M49.3682 14.9122V1.80273H51.9301V7.32707L51.6227 6.91145C51.839 6.34574 52.1863 5.93011 52.6645 5.66457C53.1541 5.38749 53.7234 5.24895 54.3724 5.24895C55.0784 5.24895 55.6933 5.39904 56.217 5.69921C56.7522 5.99938 57.1678 6.42078 57.4638 6.9634C57.7599 7.49448 57.9079 8.11791 57.9079 8.83371V14.9122H55.346V9.38788C55.346 9.01843 55.272 8.70094 55.1239 8.4354C54.9873 8.16987 54.788 7.96205 54.5262 7.81197C54.2757 7.66188 53.9796 7.58684 53.638 7.58684C53.3078 7.58684 53.0118 7.66188 52.7499 7.81197C52.488 7.96205 52.2831 8.16987 52.135 8.4354C51.9984 8.70094 51.9301 9.01843 51.9301 9.38788V14.9122H49.3682Z" fill="white"/>
<path d="M59.2509 14.9122V5.45676H61.642V7.32707L61.5054 6.91145C61.7217 6.34574 62.069 5.93011 62.5472 5.66457C63.0368 5.38749 63.6062 5.24895 64.2552 5.24895C64.9611 5.24895 65.576 5.39904 66.0998 5.69921C66.6349 5.99938 67.0505 6.42078 67.3465 6.9634C67.6426 7.49448 67.7906 8.11791 67.7906 8.83371V14.9122H65.2287V9.38788C65.2287 9.01843 65.1547 8.70094 65.0067 8.4354C64.87 8.16987 64.6708 7.96205 64.4089 7.81197C64.1584 7.66188 63.8623 7.58684 63.5208 7.58684C63.1906 7.58684 62.8945 7.66188 62.6326 7.81197C62.3707 7.96205 62.1658 8.16987 62.0178 8.4354C61.8811 8.70094 61.8128 9.01843 61.8128 9.38788V14.9122H59.2509Z" fill="white"/>
<path d="M73.7621 15.12C72.8399 15.12 71.9973 14.9064 71.2344 14.4793C70.4829 14.0521 69.8794 13.4691 69.424 12.7302C68.9799 11.9798 68.7579 11.1312 68.7579 10.1845C68.7579 9.22624 68.9799 8.37768 69.424 7.63879C69.8794 6.8999 70.4829 6.31687 71.2344 5.88971C71.9973 5.46254 72.8399 5.24895 73.7621 5.24895C74.6844 5.24895 75.5213 5.46254 76.2728 5.88971C77.0243 6.31687 77.6221 6.8999 78.0662 7.63879C78.5216 8.37768 78.7493 9.22624 78.7493 10.1845C78.7493 11.1312 78.5216 11.9798 78.0662 12.7302C77.6221 13.4691 77.0243 14.0521 76.2728 14.4793C75.5213 14.9064 74.6844 15.12 73.7621 15.12ZM73.7621 12.7821C74.229 12.7821 74.6332 12.6725 74.9748 12.4531C75.3278 12.2337 75.601 11.9278 75.7946 11.5353C75.9996 11.1427 76.102 10.6925 76.102 10.1845C76.102 9.6765 75.9996 9.23202 75.7946 8.85103C75.601 8.45849 75.3278 8.15255 74.9748 7.93319C74.6332 7.70229 74.229 7.58684 73.7621 7.58684C73.2953 7.58684 72.8854 7.70229 72.5324 7.93319C72.1795 8.15255 71.9005 8.45849 71.6955 8.85103C71.502 9.23202 71.4052 9.6765 71.4052 10.1845C71.4052 10.6925 71.502 11.1427 71.6955 11.5353C71.9005 11.9278 72.1795 12.2337 72.5324 12.4531C72.8854 12.6725 73.2953 12.7821 73.7621 12.7821Z" fill="white"/>
<path d="M84.3064 15.12C83.3955 15.12 82.5814 14.9007 81.8641 14.462C81.1467 14.0232 80.5774 13.4287 80.1561 12.6782C79.7462 11.9278 79.5413 11.0966 79.5413 10.1845C79.5413 9.26088 79.7519 8.42963 80.1732 7.69074C80.5945 6.94031 81.1638 6.34574 81.8812 5.90702C82.5985 5.46831 83.4012 5.24895 84.2894 5.24895C84.9725 5.24895 85.576 5.38172 86.0998 5.64726C86.6349 5.90125 87.0562 6.26492 87.3637 6.73827L86.9708 7.2578V1.80273H89.5328V14.9122H87.1416V13.1804L87.3807 13.7173C87.0619 14.1791 86.6292 14.5312 86.0827 14.7737C85.5362 15.0046 84.9441 15.12 84.3064 15.12ZM84.6139 12.7821C85.0807 12.7821 85.4906 12.6725 85.8436 12.4531C86.1966 12.2337 86.4698 11.9278 86.6634 11.5353C86.8684 11.1427 86.9708 10.6925 86.9708 10.1845C86.9708 9.6765 86.8684 9.22624 86.6634 8.83371C86.4698 8.44117 86.1966 8.13523 85.8436 7.91587C85.4906 7.69652 85.0807 7.58684 84.6139 7.58684C84.147 7.58684 83.7257 7.70229 83.35 7.93319C82.9856 8.15255 82.701 8.45849 82.496 8.85103C82.2911 9.23202 82.1886 9.6765 82.1886 10.1845C82.1886 10.6925 82.2911 11.1427 82.496 11.5353C82.701 11.9278 82.9856 12.2337 83.35 12.4531C83.7257 12.6725 84.147 12.7821 84.6139 12.7821Z" fill="white"/>
<path d="M95.5593 15.12C94.5686 15.12 93.709 14.9007 92.9803 14.462C92.2515 14.0117 91.6879 13.4113 91.2894 12.6609C90.8909 11.9105 90.6916 11.0792 90.6916 10.1672C90.6916 9.22047 90.8966 8.37768 91.3065 7.63879C91.7278 6.8999 92.2914 6.31687 92.9973 5.88971C93.7033 5.46254 94.5003 5.24895 95.3885 5.24895C96.1286 5.24895 96.7833 5.37018 97.3526 5.61262C97.9219 5.84352 98.4001 6.17256 98.7873 6.59973C99.1858 7.0269 99.4875 7.52334 99.6925 8.08905C99.8974 8.64321 99.9999 9.24933 99.9999 9.9074C99.9999 10.0921 99.9885 10.2768 99.9658 10.4616C99.9544 10.6347 99.9259 10.7848 99.8804 10.9118H92.8949V9.00689H98.4286L97.216 9.9074C97.3298 9.41096 97.3241 8.97225 97.1989 8.59126C97.0736 8.19873 96.8516 7.89278 96.5328 7.67343C96.2254 7.44252 95.8439 7.32707 95.3885 7.32707C94.9444 7.32707 94.563 7.43675 94.2441 7.65611C93.9253 7.87546 93.6862 8.19873 93.5268 8.6259C93.3674 9.05307 93.3048 9.5726 93.3389 10.1845C93.2934 10.7156 93.356 11.1831 93.5268 11.5872C93.6976 11.9913 93.9595 12.3088 94.3125 12.5397C94.6654 12.759 95.0924 12.8687 95.5934 12.8687C96.0489 12.8687 96.436 12.7764 96.7548 12.5916C97.085 12.4069 97.3412 12.1529 97.5234 11.8297L99.5729 12.8168C99.3907 13.2786 99.1004 13.6827 98.7019 14.029C98.3147 14.3754 97.8536 14.6467 97.3184 14.8429C96.7833 15.0277 96.1969 15.12 95.5593 15.12Z" fill="white"/>
</svg>
