<svg width="20" height="20" viewBox="0 0 20 20" fill="none" xmlns="http://www.w3.org/2000/svg">
<path d="M7.57212 16.0036C6.72926 15.2433 6.48322 13.6458 6.83438 12.4884C7.44325 13.2181 8.2869 13.4493 9.16075 13.5797C10.5098 13.7811 11.8347 13.7058 13.0879 13.0973C13.2312 13.0277 13.3637 12.935 13.5204 12.8412C13.638 13.1779 13.6686 13.5177 13.6275 13.8636C13.5276 14.7061 13.1028 15.3569 12.427 15.8502C12.1568 16.0475 11.8709 16.2239 11.5919 16.4099C10.7345 16.9817 10.5025 17.6522 10.8247 18.6276C10.8324 18.6513 10.8392 18.6751 10.8565 18.7331C10.4188 18.5398 10.099 18.2583 9.85541 17.8882C9.59809 17.4976 9.47566 17.0655 9.46922 16.598C9.466 16.3704 9.466 16.1409 9.43499 15.9166C9.35929 15.3697 9.09914 15.1249 8.60907 15.1108C8.1061 15.0963 7.70823 15.4032 7.60272 15.8864C7.59467 15.9235 7.58299 15.9601 7.57132 16.0032L7.57212 16.0036Z" fill="#17191E"/>
<path d="M3.33331 12.8428C3.33331 12.8428 5.63796 11.7229 7.94905 11.7229L9.69153 6.34361C9.75675 6.08346 9.94725 5.90668 10.1623 5.90668C10.3773 5.90668 10.5678 6.08346 10.633 6.34361L12.3755 11.7229C15.1127 11.7229 16.9912 12.8428 16.9912 12.8428C16.9912 12.8428 13.0766 2.20506 13.0689 2.18372C12.9566 1.86921 12.7669 1.66666 12.5112 1.66666H7.81374C7.55803 1.66666 7.37601 1.86921 7.25599 2.18372C7.24753 2.20466 3.33331 12.8428 3.33331 12.8428Z" fill="#17191E"/>
</svg>
