<svg xmlns="http://www.w3.org/2000/svg" width="24" height="24" viewBox="0 0 24 24" fill="none">
<path d="M14.0362 9.50139L12.2345 11.1776L10.5627 7.80545L11.4279 5.86595C11.6529 5.4722 12.0039 5.4767 12.2232 5.86595L14.0362 9.50139Z" fill="#FFA000"/>
<path d="M10.5628 7.80542L12.2346 11.1776L5.50146 17.441L10.5628 7.80542Z" fill="#F57F17"/>
<path d="M16.0067 6.93918C16.3285 6.6298 16.6615 6.73555 16.7464 7.17374L18.4992 17.3578L12.6897 20.8453C12.4872 20.9578 11.9472 21.0062 11.9472 21.0062C11.9472 21.0062 11.4555 20.9477 11.2682 20.8374L5.50146 17.4411L16.0067 6.93918Z" fill="#FFCA28"/>
<path d="M10.5628 7.80541L5.50195 17.441L7.75589 3.35885C7.83914 2.9201 8.08889 2.87791 8.31164 3.26491L10.5628 7.80541Z" fill="#FFA000"/>
</svg>