<svg width="24" height="24" viewBox="0 0 24 24" fill="none" xmlns="http://www.w3.org/2000/svg">
<circle cx="12" cy="12" r="12" fill="#334155"/>
<g clip-path="url(#clip0_1_33)">
<path d="M7.61979 19.6747C6.89109 19.2715 6.22616 18.7698 5.64526 18.1849C5.47679 18.3884 5.27084 18.5603 5.03772 18.6919C4.90896 18.7619 4.77328 18.8194 4.63269 18.8636C7.77562 22.1682 12.8687 22.9528 16.9254 20.757C17.1172 20.651 17.2355 20.4542 17.2355 20.2412C17.2355 20.0282 17.1172 19.8315 16.9254 19.7255C16.7392 19.6179 16.5076 19.6142 16.3178 19.7157C13.6153 21.1852 10.3073 21.1696 7.61979 19.6747Z" fill="#E6E7E8"/>
<path d="M7.61777 5.0576C8.3467 4.65279 9.13243 4.35134 9.95077 4.16255C9.84907 3.91415 9.79687 3.64955 9.79683 3.38255C9.79723 3.2385 9.81213 3.09482 9.8414 2.95355C5.29913 3.92473 2.0503 7.78093 2 12.2609C2.00072 12.4737 2.11912 12.6701 2.31073 12.7762C2.50233 12.8823 2.73812 12.8821 2.92955 12.7757C3.1175 12.674 3.23541 12.484 3.23939 12.2765C3.27251 9.29453 4.93678 6.55055 7.61777 5.0576Z" fill="#E6E7E8"/>
<path d="M20.763 12.3662C20.7628 13.1763 20.6414 13.982 20.4026 14.7588C20.6749 14.7973 20.9373 14.8846 21.1762 15.0162C21.3044 15.0868 21.4257 15.1684 21.5387 15.26C22.9328 10.9866 21.0871 6.3515 17.0833 4.07089C16.8916 3.97416 16.6613 3.98079 16.4759 4.08838C16.2905 4.19598 16.1768 4.38894 16.176 4.59738C16.1738 4.80453 16.2855 4.99737 16.4697 5.10438C19.1319 6.62536 20.7638 9.38548 20.763 12.3662Z" fill="#E6E7E8"/>
<path d="M12.0022 8.35307C13.6881 8.3523 15.2085 9.32953 15.8542 10.8291C16.4999 12.3286 16.1438 14.055 14.952 15.2032C13.7602 16.3513 11.9674 16.695 10.4098 16.074C8.85217 15.4529 7.83651 13.9895 7.83651 12.3662C7.83874 10.1515 9.70217 8.35628 12.0022 8.35307ZM12.0022 7.16162C9.01707 7.16162 6.59711 9.49178 6.59711 12.3662C6.59711 15.2406 9.01707 17.5707 12.0022 17.5707C14.9874 17.5707 17.4074 15.2406 17.4074 12.3662C17.4079 10.9857 16.8386 9.66159 15.8248 8.68542C14.8111 7.70927 13.4359 7.16111 12.0022 7.16162Z" fill="#E6E7E8"/>
<path d="M12.0002 4.77679C12.7966 4.77679 13.4421 4.15519 13.4421 3.3884C13.4421 2.62161 12.7966 2 12.0002 2C11.2039 2 10.5583 2.62161 10.5583 3.3884C10.5583 4.15519 11.2039 4.77679 12.0002 4.77679Z" fill="#F58320"/>
<path d="M3.92592 18.2415C4.72226 18.2415 5.36783 17.6199 5.36783 16.8531C5.36783 16.0863 4.72226 15.4647 3.92592 15.4647C3.12958 15.4647 2.48401 16.0863 2.48401 16.8531C2.48401 17.6199 3.12958 18.2415 3.92592 18.2415Z" fill="#F58320"/>
<path d="M20.0745 18.2415C20.8708 18.2415 21.5164 17.6199 21.5164 16.8531C21.5164 16.0863 20.8708 15.4647 20.0745 15.4647C19.2782 15.4647 18.6326 16.0863 18.6326 16.8531C18.6326 17.6199 19.2782 18.2415 20.0745 18.2415Z" fill="#F58320"/>
<path d="M13.1971 11.4165C13.1979 10.8566 12.7799 10.3774 12.207 10.2815C11.634 10.1855 11.0726 10.5007 10.877 11.028C10.6814 11.5553 10.9085 12.1417 11.4149 12.4169L11.0383 14.2557C11.0259 14.3138 11.0417 14.3741 11.0811 14.4196C11.1205 14.4651 11.1792 14.4909 11.2408 14.4898H12.7738C12.8353 14.4909 12.8941 14.4651 12.9335 14.4196C12.9729 14.3741 12.9887 14.3138 12.9763 14.2557L12.5976 12.4169C12.9697 12.2114 13.1986 11.8295 13.1971 11.4165Z" fill="#F58320"/>
</g>
<defs>
<clipPath id="clip0_1_33">
<rect width="20" height="20" fill="white" transform="translate(2 2)"/>
</clipPath>
</defs>
</svg>
