<svg width="20" height="20" viewBox="0 0 20 20" fill="none" xmlns="http://www.w3.org/2000/svg">
<path d="M3.19919 9.02885C3.33442 8.79432 3.52458 8.6105 3.74362 8.48443C3.97815 8.34921 4.23451 8.28511 4.48735 8.28511C4.75851 8.28511 5.01206 8.35766 5.23109 8.48443C5.46562 8.61966 5.64945 8.80982 5.77552 9.02885C5.86074 9.17605 5.91708 9.3317 5.94807 9.48946C6.22134 10.822 7.18129 11.3735 8.47298 10.9396C8.62933 10.8868 8.78991 10.8607 8.94979 10.8614C9.22094 10.8614 9.47449 10.934 9.69353 11.0608C9.92806 11.196 10.1119 11.3861 10.2379 11.6052C10.3732 11.8397 10.4373 12.0961 10.4373 12.3489C10.4373 12.6201 10.3647 12.8736 10.2379 13.0927C10.1027 13.3272 9.91256 13.511 9.69353 13.6371C9.45899 13.7723 9.20263 13.8364 8.94979 13.8364C8.78357 13.8364 8.6244 13.8089 8.47509 13.7589C7.17989 13.323 6.21852 13.8765 5.94666 15.2133C5.94666 15.2133 5.94666 15.2126 5.94666 15.2119C5.91497 15.3753 5.85581 15.5288 5.77552 15.6683C5.64029 15.9028 5.45013 16.0866 5.23109 16.2127C4.99656 16.3479 4.7402 16.412 4.48735 16.412C4.2162 16.412 3.96265 16.3395 3.74362 16.2127C3.50909 16.0775 3.32526 15.8873 3.19919 15.6683C3.06397 15.4337 2.99988 15.1774 2.99988 14.9245C2.99988 14.6534 3.07242 14.3998 3.19919 14.1808C3.33442 13.9463 3.52458 13.7624 3.74362 13.6364C3.97815 13.5011 4.23451 13.4371 4.48735 13.4371C4.6585 13.4371 4.8226 13.4659 4.97614 13.5195C5.83749 13.8054 6.55024 13.6519 7.00874 13.1194C7.39399 12.6729 7.39329 12.0228 7.00804 11.5763C6.54813 11.0431 5.83256 10.8903 4.96769 11.1798C4.81063 11.2333 4.64793 11.2601 4.48735 11.2594C4.2162 11.2594 3.96265 11.1868 3.74362 11.06C3.50909 10.9248 3.32526 10.7347 3.19919 10.5156C3.06397 10.2811 2.99988 10.0247 2.99988 9.77189C2.99988 9.50214 3.07242 9.24789 3.19919 9.02885Z" fill="#00547F"/>
<path d="M16.9999 8.16955V12.8968H15.2659V8.16955C15.2659 6.19822 14.1891 5.1946 12.5459 5.1946C10.9028 5.1946 9.82663 6.19822 9.82663 8.16955V10.2986C9.55759 10.1831 9.26179 10.1183 8.95049 10.1183C8.66172 10.1183 8.37085 10.1747 8.09265 10.2902V8.18787C8.09265 5.15798 9.88157 3.5881 12.5466 3.5881C15.211 3.5881 17.0182 5.12135 16.9999 8.16955Z" fill="#19191C"/>
</svg>
