<svg width="20" height="20" viewBox="0 0 20 20" fill="none" xmlns="http://www.w3.org/2000/svg">
<path d="M9.45424 1.67114C9.4184 1.6744 9.30435 1.6858 9.20171 1.69395C6.83449 1.90734 4.61716 3.18444 3.21279 5.14733C2.43078 6.23873 1.93062 7.47674 1.74163 8.78805C1.67483 9.24579 1.66669 9.38099 1.66669 10.0016C1.66669 10.6223 1.67483 10.7575 1.74163 11.2152C2.19455 14.3444 4.42166 16.9736 7.44218 17.9477C7.98308 18.122 8.55329 18.2409 9.20171 18.3126C9.45424 18.3402 10.5458 18.3402 10.7983 18.3126C11.9176 18.1888 12.8658 17.9118 13.8009 17.4345C13.9443 17.3612 13.972 17.3417 13.9524 17.3254C13.9394 17.3156 13.3285 16.4963 12.5953 15.5059L11.2626 13.7059L9.59272 11.2347C8.67386 9.87619 7.91791 8.76524 7.91139 8.76524C7.90488 8.76361 7.89836 9.86153 7.8951 11.2022C7.89021 13.5495 7.88858 13.644 7.85926 13.6994C7.8169 13.7792 7.78431 13.8117 7.71589 13.8476C7.66375 13.8736 7.61814 13.8785 7.37213 13.8785H7.09028L7.01533 13.8313C6.96646 13.8003 6.93062 13.7596 6.90618 13.7124L6.87197 13.6391L6.87522 10.373L6.88011 7.10534L6.93062 7.04181C6.95668 7.0076 7.01208 6.96362 7.05118 6.94244C7.11797 6.90986 7.14404 6.90661 7.42589 6.90661C7.75825 6.90661 7.81364 6.91964 7.89999 7.01412C7.92443 7.04018 8.82863 8.40199 9.91041 10.0423C10.9922 11.6827 12.4715 13.9225 13.1981 15.0221L14.5178 17.0208L14.5846 16.9768C15.176 16.5924 15.8016 16.045 16.2969 15.4749C17.3509 14.2646 18.0303 12.7888 18.2584 11.2152C18.3252 10.7575 18.3334 10.6223 18.3334 10.0016C18.3334 9.38099 18.3252 9.24579 18.2584 8.78805C17.8055 5.65883 15.5784 3.02969 12.5579 2.05558C12.0251 1.88291 11.4581 1.76399 10.8228 1.69232C10.6664 1.67603 9.58946 1.65811 9.45424 1.67114ZM12.8658 6.71113C12.944 6.75023 13.0075 6.82516 13.0303 6.90335C13.0434 6.9457 13.0466 7.8514 13.0434 9.89248L13.0385 12.8213L12.522 12.0297L12.0039 11.238V9.10895C12.0039 7.73249 12.0104 6.95873 12.0202 6.92127C12.0463 6.83004 12.1033 6.75837 12.1815 6.71602C12.2483 6.68181 12.2727 6.67855 12.5285 6.67855C12.7697 6.67855 12.812 6.68181 12.8658 6.71113Z" fill="black"/>
</svg>
