<svg width="20" height="20" viewBox="0 0 20 20" fill="none" xmlns="http://www.w3.org/2000/svg">
<path d="M11.0168 15.8333H17.2125C17.4093 15.8333 17.6026 15.7794 17.7731 15.677C17.9435 15.5746 18.085 15.4273 18.1834 15.25C18.2817 15.0726 18.3334 14.8714 18.3334 14.6666C18.3333 14.4618 18.2814 14.2607 18.1829 14.0834L14.022 6.58339C13.9237 6.40605 13.7822 6.25878 13.6118 6.15639C13.4414 6.05401 13.2481 6.00009 13.0514 6.00009C12.8546 6.00009 12.6613 6.05401 12.491 6.15639C12.3206 6.25878 12.1791 6.40605 12.0808 6.58339L11.0168 8.50236L8.93671 4.74985C8.83828 4.57254 8.69674 4.42529 8.52632 4.32291C8.35587 4.22056 8.16256 4.16666 7.96578 4.16666C7.769 4.16666 7.57569 4.22056 7.40526 4.32291C7.23482 4.42529 7.09328 4.57254 6.99485 4.74985L1.81718 14.0834C1.71868 14.2607 1.66677 14.4618 1.66669 14.6666C1.6666 14.8714 1.71834 15.0726 1.81669 15.25C1.91504 15.4273 2.05654 15.5746 2.22696 15.677C2.39738 15.7794 2.59071 15.8333 2.7875 15.8333H6.67665C8.21758 15.8333 9.35395 15.1289 10.1359 13.7547L12.0343 10.3334L13.0511 8.50236L16.1027 14.0023H12.0343L11.0168 15.8333ZM6.61324 14.0004L3.89911 13.9998L7.96759 6.66694L9.99761 10.3334L8.63843 12.7839C8.11915 13.6756 7.52922 14.0004 6.61324 14.0004Z" fill="#00DC82"/>
</svg>
