<svg width="24" height="24" viewBox="0 0 24 24" fill="none" xmlns="http://www.w3.org/2000/svg">
<path fill-rule="evenodd" clip-rule="evenodd" d="M20.9067 3.57743C20.7474 3.23632 20.4013 2.99995 20.0001 2.99995L16 2.99995C15.9965 2.99995 15.9931 2.99996 15.9896 3H10C9.44772 3 9 3.44772 9 4V8.00003C9 8.55232 9.44772 9.00003 10 9.00003H14.5C14.7762 9.00003 15 9.22389 15 9.50003V14C15 14.5523 15.4477 15 16 15L20.0001 15C20.5523 15 21.0001 14.5523 21.0001 14L21.0001 8.00602C21.0001 8.00403 21.0001 8.00203 21.0001 8.00003V4C21.0001 3.93095 20.9931 3.86353 20.9797 3.79841C20.9639 3.72113 20.9392 3.64709 20.9067 3.57743Z" fill="#68A7DE"/>
<path fill-rule="evenodd" clip-rule="evenodd" d="M3.09333 20.4225C3.25257 20.7636 3.59866 21 3.99995 21L7.99998 21C8.00345 21 8.00692 21 8.01038 20.9999H14C14.5523 20.9999 15 20.5522 15 19.9999V15.9999C15 15.4476 14.5523 14.9999 14 14.9999H9.49998C9.22384 14.9999 8.99998 14.7761 8.99998 14.4999V9.99993C8.99998 9.44765 8.55227 8.99993 7.99998 8.99993L3.99995 8.99993C3.44766 8.99993 2.99995 9.44765 2.99995 9.99993L2.99995 15.9939C2.99994 15.9959 2.99993 15.9979 2.99993 15.9999V19.9999C2.99993 20.069 3.00694 20.1364 3.02026 20.2015C3.03608 20.2788 3.06081 20.3529 3.09333 20.4225Z" fill="#68A7DE"/>
</svg>
