<svg xmlns="http://www.w3.org/2000/svg" width="24" height="24"><path d="M23.586 21a3.248 3.248 0 0 0-.016-3.2l-3.187-5.925H17.12l3.336 6.21c.211.368.211.821 0 1.185a1.168 1.168 0 0 1-.992.554H15.66a3.527 3.527 0 0 1-.531 1.633 3.66 3.66 0 0 1-1.234 1.211h6.992a3.315 3.315 0 0 0 1.332-.383A3.15 3.15 0 0 0 23.586 21ZM5.703 7.996h3.262L10.59 5.02c.137-.258.344-.473.598-.622.253-.148.542-.23.835-.23a1.64 1.64 0 0 1 1.434.852l1.578 2.976h3.262l-2.313-4.305a4.453 4.453 0 0 0-1.66-1.722A4.551 4.551 0 0 0 12 1.332a4.58 4.58 0 0 0-2.324.637 4.453 4.453 0 0 0-1.66 1.722Zm2.629 3.36c.035-.579.211-1.137.512-1.63a3.614 3.614 0 0 1 1.219-1.21H3.75v2.84Zm0 0" style="stroke:none;fill-rule:nonzero;fill:#00e3aa;fill-opacity:1"/><path d="M8.852 11.563v7.765h1.484c.309-.004.61-.105.855-.293.243-.187.418-.445.496-.742.036-.113.051-.23.051-.348V13.29c0-.508.203-.996.567-1.351.363-.36.855-.563 1.367-.567h6.605V8.516h-8.332c-.816 0-1.601.32-2.187.894a3.014 3.014 0 0 0-.903 2.152Zm0 0" style="stroke:none;fill-rule:nonzero;fill:#00e3aa;fill-opacity:1"/><path d="M.324 17.996a3.256 3.256 0 0 0 .09 3.008 3.162 3.162 0 0 0 1.367 1.281c.41.219.867.352 1.332.383H12a3.18 3.18 0 0 0 2.23-.91 3.064 3.064 0 0 0 .926-2.195v-7.696h-1.504a1.45 1.45 0 0 0-.98.422 1.395 1.395 0 0 0-.41.973v4.66c0 .504-.207.992-.57 1.344-.368.359-.86.558-1.372.558H4.56c-.2 0-.395-.05-.567-.148a1.11 1.11 0 0 1-.422-.406c-.21-.368-.21-.82 0-1.188l3.336-6.215H3.617L.43 17.797c-.035.07-.075.133-.106.2Zm0 0" style="stroke:none;fill-rule:nonzero;fill:#00e3aa;fill-opacity:1"/></svg>