<svg width="24" height="24" viewBox="0 0 24 24" fill="none" xmlns="http://www.w3.org/2000/svg">
<rect x="3" y="3" width="18" height="18" rx="2" fill="#345A82"/>
<path d="M5.69995 11.2385V10.2H10.3384L9.92303 11.2385H8.60764V15.0462H7.43072V11.2385H5.69995Z" fill="white"/>
<path d="M16.1539 9.3692C16.0985 9.3692 15.9462 9.55382 15.877 9.64612C17.0954 9.64612 17.2616 10.5692 17.1923 11.0307C17.3585 10.92 17.4462 10.8 17.4693 10.7538C17.5385 9.50766 16.2231 9.3692 16.1539 9.3692Z" fill="white"/>
<path d="M16.2856 8.53845C16.2039 8.53845 15.9791 8.83076 15.877 8.97691C17.6752 8.97691 17.9204 10.4385 17.8182 11.1692C18.0634 10.9938 18.1928 10.8038 18.2269 10.7308C18.3291 8.75768 16.3878 8.53845 16.2856 8.53845Z" fill="white"/>
<path d="M10.9614 14.9769V10.2H12.1383L13.7307 12.7616L15.323 10.2H16.4307V14.9769H15.2537V12.3462L13.9383 14.4231H13.4537L12.1383 12.3462V14.9769H10.9614Z" fill="white"/>
</svg>
