<?xml version="1.0" encoding="UTF-8"?>
<svg version="1.1" xmlns="http://www.w3.org/2000/svg" width="100" height="100">
<path d="M0 0 C9.76185348 10.00701419 11.05387356 21.51059802 12.8984375 35.00390625 C13.07568359 36.23109375 13.25292969 37.45828125 13.43554688 38.72265625 C15.00704811 49.93552991 15.49480641 58.83855963 9.8984375 69.06640625 C-0.59886544 81.96309272 -17.82975927 82.69771081 -33.2890625 84.75390625 C-43.43476356 85.78301269 -53.88140937 86.45639278 -62.2890625 79.75390625 C-74.85295685 68.4032635 -75.76075035 46.7538058 -76.75 30.90625 C-76.80086233 29.25173746 -76.83613591 27.59662851 -76.8515625 25.94140625 C-76.87319458 24.85230957 -76.87319458 24.85230957 -76.89526367 23.74121094 C-76.77287696 17.37710212 -74.48731651 12.42252903 -70.5 7.58203125 C-69.89414063 7.06125 -69.28828125 6.54046875 -68.6640625 6.00390625 C-68.07367188 5.4728125 -67.48328125 4.94171875 -66.875 4.39453125 C-59.1224759 -0.52398857 -50.7569311 -2.14548171 -41.7890625 -3.43359375 C-40.72558594 -3.59794922 -39.66210938 -3.76230469 -38.56640625 -3.93164062 C-9.51817943 -8.33342714 -9.51817943 -8.33342714 0 0 Z M-36.04785156 15.64990234 C-38.17782418 16.00620833 -40.31080245 16.33616501 -42.4453125 16.6640625 C-43.80754493 16.88516399 -45.1695348 17.10776628 -46.53125 17.33203125 C-47.7569873 17.5321582 -48.98272461 17.73228516 -50.24560547 17.93847656 C-53.2946722 18.75540925 -54.44199709 19.26531191 -56.2890625 21.75390625 C-59.71131004 28.59840133 -56.21112845 38.93562553 -54.9140625 46.00390625 C-54.69234375 47.26976562 -54.470625 48.535625 -54.2421875 49.83984375 C-53.15198648 57.09665306 -53.15198648 57.09665306 -50.2890625 63.75390625 C-43.26722555 67.26482472 -31.92567219 64.47242436 -24.4140625 63.44140625 C-23.52291748 63.3237793 -22.63177246 63.20615234 -21.71362305 63.08496094 C-16.46326311 62.31515097 -11.96242952 61.32242781 -7.2890625 58.75390625 C-5.19629473 55.63726204 -5.12507642 53.45007769 -5.546875 49.77734375 C-5.71171387 48.32279785 -5.71171387 48.32279785 -5.87988281 46.83886719 C-6.56529304 41.67129941 -7.32064636 36.52310088 -8.1640625 31.37890625 C-8.32519531 30.32574219 -8.48632812 29.27257812 -8.65234375 28.1875 C-8.90177734 26.66189453 -8.90177734 26.66189453 -9.15625 25.10546875 C-9.30175293 24.19619629 -9.44725586 23.28692383 -9.59716797 22.35009766 C-10.39542136 19.35481657 -11.4351568 17.23868516 -13.2890625 14.75390625 C-20.88787143 12.79395976 -28.43634497 14.36712396 -36.04785156 15.64990234 Z " fill="#2C72B3" transform="translate(81.2890625,10.24609375)"/>
<path d="M0 0 C-0.66 0.99 -1.32 1.98 -2 3 C-1.505 3.474375 -1.01 3.94875 -0.5 4.4375 C1.71027709 8.21339002 1.70563933 11.72561004 1 16 C-0.80101842 18.40135789 -2.0868255 18.8563745 -5.01171875 19.31640625 C-6.08873047 19.43822266 -6.08873047 19.43822266 -7.1875 19.5625 C-8.445625 19.706875 -9.70375 19.85125 -11 20 C-11.33 20.66 -11.66 21.32 -12 22 C-14.33744294 22.46806645 -16.69739079 22.82669794 -19.0625 23.125 C-20.35285156 23.29257812 -21.64320312 23.46015625 -22.97265625 23.6328125 C-23.97167969 23.75398438 -24.97070312 23.87515625 -26 24 C-28.82617573 32.4785272 -26.14600197 41.78720708 -24.5625 50.25 C-24.33240234 51.51585937 -24.10230469 52.78171875 -23.86523438 54.0859375 C-23.00934577 58.75983353 -22.15271152 63.38915391 -21 68 C-14.73 68 -8.46 68 -2 68 C-3 72 -3 72 -5 75 C-5.59323689 78.26280287 -5.56752722 80.17840536 -3.65625 82.9453125 C-2.15697661 84.69210744 -0.62262868 86.36771282 1 88 C-8.00978741 90.22960256 -20.29466396 90.90988531 -28.8125 86.9375 C-36.44309923 82.21822696 -40.65184536 75.68061013 -42.70629883 67.02392578 C-45.14465719 54.89950159 -47.4469561 42.58497955 -47.5625 30.1875 C-47.58413208 29.09840332 -47.58413208 29.09840332 -47.60620117 27.98730469 C-47.48381446 21.62319587 -45.19825401 16.66862278 -41.2109375 11.828125 C-30.122073 2.2964202 -14.39147969 -0.46424128 0 0 Z " fill="#F7B121" transform="translate(52,6)"/>
<path d="M0 0 C9.79063098 10.0365144 11.02708903 21.18406862 12.7109375 34.75390625 C12.0509375 34.75390625 11.3909375 34.75390625 10.7109375 34.75390625 C10.6284375 35.49640625 10.5459375 36.23890625 10.4609375 37.00390625 C9.50657676 40.50322896 8.77067924 41.76507412 5.7109375 43.75390625 C1.04605987 43.95636025 -2.39160628 43.3522104 -6.2890625 40.75390625 C-6.83407315 37.99679356 -7.21456015 35.41238079 -7.4765625 32.62890625 C-7.55841797 31.87480469 -7.64027344 31.12070312 -7.72460938 30.34375 C-7.9249522 28.48174018 -8.10860286 26.61794814 -8.2890625 24.75390625 C-8.9490625 24.75390625 -9.6090625 24.75390625 -10.2890625 24.75390625 C-11.2790625 21.78390625 -12.2690625 18.81390625 -13.2890625 15.75390625 C-19.97492483 14.62070924 -25.51199138 15.05263917 -32.17578125 16.28125 C-35.26566677 16.75035433 -38.1692766 16.83342103 -41.2890625 16.75390625 C-40.9590625 16.09390625 -40.6290625 15.43390625 -40.2890625 14.75390625 C-38.0390625 14.15625 -38.0390625 14.15625 -35.2890625 13.69140625 C-31.98846544 13.34937115 -31.98846544 13.34937115 -29.2890625 11.75390625 C-28.70620939 6.32888881 -28.83915018 2.210043 -32.2890625 -2.24609375 C-31.2990625 -2.57609375 -30.3090625 -2.90609375 -29.2890625 -3.24609375 C-29.2890625 -3.90609375 -29.2890625 -4.56609375 -29.2890625 -5.24609375 C-19.18121744 -6.9345374 -8.08196212 -7.0759795 0 0 Z " fill="#159C52" transform="translate(81.2890625,10.24609375)"/>
<path d="M0 0 C-0.66 0.99 -1.32 1.98 -2 3 C-1.505 3.474375 -1.01 3.94875 -0.5 4.4375 C1.71027709 8.21339002 1.70563933 11.72561004 1 16 C-0.79084788 18.38779717 -2.06886776 18.85094523 -4.9765625 19.31640625 C-6.98413626 19.5463647 -8.99205605 19.77329665 -11 20 C-11.66 20.66 -12.32 21.32 -13 22 C-15.71484375 22.16015625 -15.71484375 22.16015625 -18.9375 22.0625 C-22.38352334 21.96619558 -24.71486711 21.9049557 -28 23 C-28 23.66 -28 24.32 -28 25 C-28.66 25 -29.32 25 -30 25 C-30 30.28 -30 35.56 -30 41 C-33.96 41 -37.92 41 -42 41 C-42.33 41.66 -42.66 42.32 -43 43 C-45.6606648 40.3393352 -45.28945927 38.29353336 -45.32226562 34.66992188 C-45.31743164 33.44112305 -45.31743164 33.44112305 -45.3125 32.1875 C-45.32861328 31.37990234 -45.34472656 30.57230469 -45.36132812 29.74023438 C-45.36521504 24.99430756 -45.09942766 21.82378828 -42 18 C-39.99223474 16.15629338 -37.89423499 14.51493706 -35.7421875 12.84375 C-33.74919811 11.11281734 -33.74919811 11.11281734 -33.7578125 8.46875 C-33.50773437 7.6540625 -33.25765625 6.839375 -33 6 C-27.3507826 3.21364785 -21.56919082 2.21213248 -15.375 1.3125 C-14.55515625 1.18294922 -13.7353125 1.05339844 -12.890625 0.91992188 C-8.55253035 0.26083836 -4.4020254 -0.14958339 0 0 Z " fill="#E02F2F" transform="translate(52,6)"/>
<path d="M0 0 C-0.33895655 3.0401795 -0.64457432 4.62426428 -2.77734375 6.87890625 C-3.49019531 7.43449219 -4.20304688 7.99007813 -4.9375 8.5625 C-7.87054358 10.86741446 -9.57223865 12.54362286 -11 16 C-11.27178081 18.1215586 -11.27178081 18.1215586 -11.1953125 20.328125 C-11.18886719 21.12734375 -11.18242187 21.9265625 -11.17578125 22.75 C-11.15064453 23.9875 -11.15064453 23.9875 -11.125 25.25 C-11.11146484 26.51070312 -11.11146484 26.51070312 -11.09765625 27.796875 C-11.07415817 29.86470604 -11.03828908 31.93238995 -11 34 C-8.78918149 34.10540926 -8.78918149 34.10540926 -6 33 C-4.60560336 32.93334624 -3.20830125 32.91461801 -1.8125 32.9375 C-0.554375 32.958125 0.70375 32.97875 2 33 C2.33 28.05 2.66 23.1 3 18 C3.66 18 4.32 18 5 18 C5 17.34 5 16.68 5 16 C8.52679099 13.64880601 10.02879485 13.78556548 14.1875 13.875 C15.81751953 13.90207031 15.81751953 13.90207031 17.48046875 13.9296875 C18.72763672 13.96449219 18.72763672 13.96449219 20 14 C20 14.33 20 14.66 20 15 C15.71 15.66 11.42 16.32 7 17 C4.75793444 25.96826222 6.76578659 34.31577407 8.4375 43.25 C8.66759766 44.51585937 8.89769531 45.78171875 9.13476562 47.0859375 C9.99065423 51.75983353 10.84728848 56.38915391 12 61 C18.27 61 24.54 61 31 61 C26.81749921 63.78833386 23.98770558 64.13717603 19.0625 64.125 C18.02222656 64.12757812 16.98195313 64.13015625 15.91015625 64.1328125 C13.3776024 64.01723286 11.35510232 63.91675124 9 63 C4.51341508 56.27012263 4.72884909 47.55045245 4.44140625 39.6875 C4.22291016 38.3571875 4.22291016 38.3571875 4 37 C0.52728445 34.6848563 -0.92739797 34.74546237 -5 35 C-6.485 35.495 -6.485 35.495 -8 36 C-8.33 36.99 -8.66 37.98 -9 39 C-9.66 39 -10.32 39 -11 39 C-10.7834375 39.90621094 -10.566875 40.81242187 -10.34375 41.74609375 C-8.76300052 48.66187274 -7.6331551 54.90766536 -8 62 C-13.89611237 51.32621625 -14.36179432 35.49843514 -14.5 23.5 C-14.51820801 22.75484131 -14.53641602 22.00968262 -14.55517578 21.24194336 C-14.48205632 14.67686005 -12.30656571 9.57639038 -7.9296875 4.6875 C-7.25164063 4.130625 -6.57359375 3.57375 -5.875 3 C-5.19179687 2.4225 -4.50859375 1.845 -3.8046875 1.25 C-2 0 -2 0 0 0 Z " fill="#F18A7A" transform="translate(19,13)"/>
<path d="M0 0 C2.77005139 2.77005139 2.54773182 4.95610611 3 8.8125 C3.55903246 13.78778828 3.55903246 13.78778828 5.0546875 18.5234375 C6.27576068 21.7224474 6.19391256 24.4013285 6.125 27.8125 C6.10695313 28.97394531 6.08890625 30.13539062 6.0703125 31.33203125 C6.04710938 32.21246094 6.02390625 33.09289062 6 34 C4.515 34.495 4.515 34.495 3 35 C2.67 35.99 2.34 36.98 2 38 C-6.03764031 40.07422976 -13.72984476 40.2144997 -22 40 C-17.66572259 37.38137406 -12.75002131 36.95335496 -7.84375 36.14453125 C-2.51528527 35.47249389 -2.51528527 35.47249389 2 33 C3.46583923 26.85029309 2.70864372 21.5202812 1.5625 15.375 C0.62880728 10.1887243 -0.21432002 5.2979909 0 0 Z " fill="#90BECB" transform="translate(72,35)"/>
<path d="M0 0 C9.33427771 9.56870021 11.04847141 19.66449007 11.7109375 32.75390625 C8.70192171 28.24038257 7.73516603 23.72914851 7.3984375 18.37890625 C6.83118014 12.46322233 4.28104086 6.95395528 -0.26953125 3.05859375 C-2.35160637 1.59462567 -2.35160637 1.59462567 -5.2890625 0.75390625 C-5.2890625 0.09390625 -5.2890625 -0.56609375 -5.2890625 -1.24609375 C-6.0934375 -1.22546875 -6.8978125 -1.20484375 -7.7265625 -1.18359375 C-10.2890625 -1.24609375 -10.2890625 -1.24609375 -11.2890625 -2.24609375 C-14.14784159 -2.48310614 -16.98789547 -2.66828557 -19.8515625 -2.80859375 C-20.65787109 -2.85177734 -21.46417969 -2.89496094 -22.29492188 -2.93945312 C-24.29275055 -3.04584637 -26.2908832 -3.14650263 -28.2890625 -3.24609375 C-28.2890625 -3.90609375 -28.2890625 -4.56609375 -28.2890625 -5.24609375 C-18.44333122 -6.91486176 -7.86218913 -6.88356221 0 0 Z " fill="#94D7B2" transform="translate(81.2890625,10.24609375)"/>
<path d="M0 0 C0.33 0 0.66 0 1 0 C1.11593506 0.64549805 1.23187012 1.29099609 1.35131836 1.95605469 C1.87865267 4.88762233 2.40805434 7.81881297 2.9375 10.75 C3.11990234 11.76578125 3.30230469 12.7815625 3.49023438 13.828125 C3.75610352 15.29765625 3.75610352 15.29765625 4.02734375 16.796875 C4.18968506 17.69760742 4.35202637 18.59833984 4.51928711 19.52636719 C4.94156757 21.69932077 5.46312188 23.8524875 6 26 C12.27 26 18.54 26 25 26 C20.81749921 28.78833386 17.98770558 29.13717603 13.0625 29.125 C11.50208984 29.12886719 11.50208984 29.12886719 9.91015625 29.1328125 C7.3776024 29.01723286 5.35510232 28.91675124 3 28 C-2.12725831 20.30911253 -1.53265963 9.90656455 -1 1 C-0.67 0.67 -0.34 0.34 0 0 Z " fill="#F9B945" transform="translate(25,48)"/>
<path d="M0 0 C0.66 0 1.32 0 2 0 C2.33965474 2.18652739 2.67142477 4.37428025 3 6.5625 C3.185625 7.78066406 3.37125 8.99882813 3.5625 10.25390625 C4.6061089 19.18980743 3.51025846 26.41228626 -0.8125 34.3125 C-4.14468435 38.40632649 -7.97545639 42.09413863 -13 44 C-13.99 44 -14.98 44 -16 44 C-16 43.34 -16 42.68 -16 42 C-13.69 41.34 -11.38 40.68 -9 40 C-9 39.34 -9 38.68 -9 38 C-7.515 37.505 -7.515 37.505 -6 37 C-5.67 36.01 -5.34 35.02 -5 34 C-4.34 34 -3.68 34 -3 34 C-2.87625 33.443125 -2.7525 32.88625 -2.625 32.3125 C-2 30 -2 30 -0.97314453 27.7277832 C0.12425032 24.6517188 0.22873442 22.30160636 0.1953125 19.04296875 C0.18886719 17.93115234 0.18242188 16.81933594 0.17578125 15.67382812 C0.15902344 14.52333984 0.14226562 13.37285156 0.125 12.1875 C0.11597656 11.01767578 0.10695313 9.84785156 0.09765625 8.64257812 C0.07413732 5.76150947 0.04126852 2.88086011 0 0 Z " fill="#81A8D2" transform="translate(92,45)"/>
<path d="M0 0 C1.63001953 0.02707031 1.63001953 0.02707031 3.29296875 0.0546875 C4.54013672 0.08949219 4.54013672 0.08949219 5.8125 0.125 C5.8125 0.455 5.8125 0.785 5.8125 1.125 C1.5225 1.785 -2.7675 2.445 -7.1875 3.125 C-8.73220046 9.30380183 -8.42748206 14.92508972 -7.1875 21.125 C-8.1775 21.785 -9.1675 22.445 -10.1875 23.125 C-11.1775 22.465 -12.1675 21.805 -13.1875 21.125 C-16.5978976 20.91185015 -18.93281799 21.040106 -22.1875 22.125 C-22.5175 23.115 -22.8475 24.105 -23.1875 25.125 C-24.1775 24.795 -25.1675 24.465 -26.1875 24.125 C-25.8575 22.805 -25.5275 21.485 -25.1875 20.125 C-24.5275 20.125 -23.8675 20.125 -23.1875 20.125 C-22.1975 19.795 -21.2075 19.465 -20.1875 19.125 C-18.79310336 19.05834624 -17.39580125 19.03961801 -16 19.0625 C-14.1128125 19.0934375 -14.1128125 19.0934375 -12.1875 19.125 C-11.8575 14.175 -11.5275 9.225 -11.1875 4.125 C-10.5275 4.125 -9.8675 4.125 -9.1875 4.125 C-9.1875 3.465 -9.1875 2.805 -9.1875 2.125 C-5.66070901 -0.22619399 -4.15870515 -0.08943452 0 0 Z " fill="#EF7267" transform="translate(33.1875,26.875)"/>
<path d="M0 0 C0.66 0 1.32 0 2 0 C2.474375 0.804375 2.94875 1.60875 3.4375 2.4375 C4.79983672 5.2918076 4.79983672 5.2918076 8 6 C8 6.66 8 7.32 8 8 C8.66 8 9.32 8 10 8 C10 8.66 10 9.32 10 10 C13.6464806 10.8410478 16.99950907 11.11764968 20.73828125 11.09765625 C22.33833008 11.09282227 22.33833008 11.09282227 23.97070312 11.08789062 C25.07349609 11.07951172 26.17628906 11.07113281 27.3125 11.0625 C28.99569336 11.05573242 28.99569336 11.05573242 30.71289062 11.04882812 C33.4753151 11.03707313 36.23762998 11.02064077 39 11 C39.495 11.99 39.495 11.99 40 13 C30.99021259 15.22960256 18.70533604 15.90988531 10.1875 11.9375 C6.04585975 9.39884135 2.56917534 6.14618946 0 2 C0 1.34 0 0.68 0 0 Z " fill="#FCD683" transform="translate(13,81)"/>
<path d="M0 0 C1.9375 0.3125 1.9375 0.3125 4 1 C5.28317892 4.84953676 5.06643637 7.94738135 5 12 C9.29 12.33 13.58 12.66 18 13 C18 13.33 18 13.66 18 14 C9.585 14.495 9.585 14.495 1 15 C1.33 14.34 1.66 13.68 2 13 C2.19758231 10.92435324 2.19758231 10.92435324 2.1875 8.625 C2.20167969 7.85414062 2.21585938 7.08328125 2.23046875 6.2890625 C1.97801607 3.78165112 1.25193467 2.16738098 0 0 Z " fill="#458F54" transform="translate(50,9)"/>
<path d="M0 0 C0.33 1.32 0.66 2.64 1 4 C0.01 3.67 -0.98 3.34 -2 3 C-3.33363703 2.85596652 -4.67218046 2.75409577 -6.01171875 2.68359375 C-7.14770508 2.62075195 -7.14770508 2.62075195 -8.30664062 2.55664062 C-9.48516602 2.49766602 -9.48516602 2.49766602 -10.6875 2.4375 C-11.48478516 2.39431641 -12.28207031 2.35113281 -13.10351562 2.30664062 C-15.06881447 2.20072632 -17.03438496 2.09987449 -19 2 C-19 1.34 -19 0.68 -19 0 C-12.42150508 -0.95494281 -6.58183362 -0.8931507 0 0 Z " fill="#69C193" transform="translate(72,5)"/>
<path d="M0 0 C0.66 0 1.32 0 2 0 C3.35439668 2.70879335 3.06501451 5.00933268 3 8 C3.66 8 4.32 8 5 8 C5.33 13.61 5.66 19.22 6 25 C5.34 24.67 4.68 24.34 4 24 C3.45918129 20.57481484 3.10919561 17.17688599 2.7890625 13.7265625 C2.58842691 11.81014669 2.30052269 9.90331035 2 8 C1.34 7.67 0.68 7.34 0 7 C0 4.69 0 2.38 0 0 Z " fill="#3EAF73" transform="translate(71,27)"/>
<path d="M0 0 C0.33 0 0.66 0 1 0 C2.32 7.92 3.64 15.84 5 24 C4.01 24 3.02 24 2 24 C1.93941406 23.22914062 1.87882812 22.45828125 1.81640625 21.6640625 C1.73261719 20.66117188 1.64882813 19.65828125 1.5625 18.625 C1.48128906 17.62726563 1.40007813 16.62953125 1.31640625 15.6015625 C1.15034374 13.02072387 1.15034374 13.02072387 0 11 C-0.07033769 9.12620395 -0.0843022 7.24998898 -0.0625 5.375 C-0.05347656 4.37210938 -0.04445313 3.36921875 -0.03515625 2.3359375 C-0.02355469 1.56507812 -0.01195313 0.79421875 0 0 Z " fill="#FAD897" transform="translate(25,48)"/>
<path d="M0 0 C0 0.66 0 1.32 0 2 C-8.03764031 4.07422976 -15.72984476 4.2144997 -24 4 C-18.20330002 0.8932719 -12.45996416 1 -6 1 C-1.375 0 -1.375 0 0 0 Z " fill="#729FCA" transform="translate(74,71)"/>
<path d="M0 0 C0.99 0.33 1.98 0.66 3 1 C4.33525717 1.07973476 5.67412083 1.10771338 7.01171875 1.09765625 C7.76904297 1.09443359 8.52636719 1.09121094 9.30664062 1.08789062 C10.48516602 1.07532227 10.48516602 1.07532227 11.6875 1.0625 C12.48478516 1.05798828 13.28207031 1.05347656 14.10351562 1.04882812 C16.06904257 1.0370585 18.03453085 1.01912348 20 1 C15.7172612 3.8551592 12.85541942 4.11672494 7.8125 4.0625 C6.18248047 4.04896484 6.18248047 4.04896484 4.51953125 4.03515625 C3.68808594 4.02355469 2.85664062 4.01195313 2 4 C1.34 2.68 0.68 1.36 0 0 Z " fill="#FCE6B4" transform="translate(30,73)"/>
<path d="M0 0 C1.08667969 0.01804687 2.17335938 0.03609375 3.29296875 0.0546875 C4.54013672 0.08949219 4.54013672 0.08949219 5.8125 0.125 C5.8125 0.455 5.8125 0.785 5.8125 1.125 C1.5225 1.785 -2.7675 2.445 -7.1875 3.125 C-7.1875 3.785 -7.1875 4.445 -7.1875 5.125 C-8.5075 5.455 -9.8275 5.785 -11.1875 6.125 C-11.1875 5.465 -11.1875 4.805 -11.1875 4.125 C-10.5275 4.125 -9.8675 4.125 -9.1875 4.125 C-9.1875 3.465 -9.1875 2.805 -9.1875 2.125 C-5.66070901 -0.22619399 -4.15870515 -0.08943452 0 0 Z " fill="#F17F7F" transform="translate(33.1875,26.875)"/>
<path d="M0 0 C0.33 0.66 0.66 1.32 1 2 C-4.29653879 2.93959624 -9.08668517 2.98841115 -14.4375 2.5625 C-15.16904297 2.51029297 -15.90058594 2.45808594 -16.65429688 2.40429688 C-18.43668622 2.27615124 -20.2184257 2.1390184 -22 2 C-22 1.67 -22 1.34 -22 1 C-19.27093526 0.83150207 -16.54176829 0.6651397 -13.8125 0.5 C-13.04357422 0.45230469 -12.27464844 0.40460938 -11.48242188 0.35546875 C-7.648496 0.12510411 -3.84309823 -0.0616128 0 0 Z " fill="#F9C267" transform="translate(52,92)"/>
<path d="M0 0 C-0.66 1.32 -1.32 2.64 -2 4 C-7.61 3.67 -13.22 3.34 -19 3 C-18.67 2.34 -18.34 1.68 -18 1 C-17.16855469 1.01160156 -16.33710937 1.02320312 -15.48046875 1.03515625 C-13.85044922 1.04869141 -13.85044922 1.04869141 -12.1875 1.0625 C-10.56908203 1.07990234 -10.56908203 1.07990234 -8.91796875 1.09765625 C-5.73409777 0.991101 -3.19447678 0 0 0 Z " fill="#E9BD5D" transform="translate(50,75)"/>
<path d="M0 0 C1.79068573 2.6860286 2.66055791 4.6626589 3.625 7.6875 C3.88539062 8.49574219 4.14578125 9.30398437 4.4140625 10.13671875 C4.60742188 10.75160156 4.80078125 11.36648437 5 12 C4.34 12 3.68 12 3 12 C2.67 12.99 2.34 13.98 2 15 C-0.10428384 9.87080814 -0.21755666 5.4389165 0 0 Z " fill="#41B372" transform="translate(89,33)"/>
<path d="M0 0 C0.66 0.33 1.32 0.66 2 1 C0.92130607 1.96355244 -0.16318743 2.92061417 -1.25 3.875 C-1.85328125 4.40867187 -2.4565625 4.94234375 -3.078125 5.4921875 C-6.11044461 7.87120248 -8.10651396 9 -12 9 C-12 8.34 -12 7.68 -12 7 C-9.69 6.34 -7.38 5.68 -5 5 C-5 4.34 -5 3.68 -5 3 C-2.625 1.3125 -2.625 1.3125 0 0 Z " fill="#90B4D9" transform="translate(88,80)"/>
<path d="M0 0 C4.62 0 9.24 0 14 0 C14 0.33 14 0.66 14 1 C12.72125 1.12375 11.4425 1.2475 10.125 1.375 C6.65209064 1.69042399 6.65209064 1.69042399 4 4 C1.375 3.625 1.375 3.625 -1 3 C-0.67 2.01 -0.34 1.02 0 0 Z " fill="#E84B4B" transform="translate(35,24)"/>
<path d="M0 0 C0 0.33 0 0.66 0 1 C-1.65 1 -3.3 1 -5 1 C-5 1.66 -5 2.32 -5 3 C-8.96 3 -12.92 3 -17 3 C-11.25383268 0.12691634 -6.37269535 -0.12745391 0 0 Z " fill="#E05251" transform="translate(49,8)"/>
<path d="M0 0 C0 0.33 0 0.66 0 1 C-0.84884766 1.16435547 -0.84884766 1.16435547 -1.71484375 1.33203125 C-2.81505859 1.56986328 -2.81505859 1.56986328 -3.9375 1.8125 C-4.66839844 1.96332031 -5.39929688 2.11414062 -6.15234375 2.26953125 C-6.76207031 2.51058594 -7.37179688 2.75164063 -8 3 C-8.33 3.99 -8.66 4.98 -9 6 C-9.99 5.67 -10.98 5.34 -12 5 C-11.67 3.68 -11.34 2.36 -11 1 C-10.34 1 -9.68 1 -9 1 C-5.8035914 -0.06546953 -3.34252724 -0.07427838 0 0 Z " fill="#EE6830" transform="translate(19,46)"/>
<path d="M0 0 C3.37462715 0.54723683 5.08235 1.0549 8 3 C7.67 3.99 7.34 4.98 7 6 C6.01 5.67 5.02 5.34 4 5 C4 4.34 4 3.68 4 3 C2.68 2.67 1.36 2.34 0 2 C0 1.34 0 0.68 0 0 Z " fill="#7FCDA5" transform="translate(72,6)"/>
<path d="M0 0 C0.66 0.33 1.32 0.66 2 1 C2 4.3 2 7.6 2 11 C-0.15157675 7.77263488 -1.19090344 6.17269253 -0.5625 2.3125 C-0.376875 1.549375 -0.19125 0.78625 0 0 Z " fill="#FBBD56" transform="translate(11,70)"/>
</svg>
