<?xml version="1.0" encoding="UTF-8"?>
<svg version="1.1" xmlns="http://www.w3.org/2000/svg" width="100" height="100">
<path d="M0 0 C2.63325525 1.20470192 5.08725457 2.62579094 7.5625 4.125 C8.96576776 4.94688581 10.37075219 5.7658469 11.77734375 6.58203125 C12.47972168 6.99018066 13.18209961 7.39833008 13.90576172 7.81884766 C18.14246915 10.2083546 22.53237776 12.2869513 26.9140625 14.39453125 C30 16 30 16 32.9609375 18.01171875 C35.27130908 19.52326006 37.18492183 20.5831269 39.68994141 21.62426758 C40.78226074 22.07825928 41.87458008 22.53225098 43 23 C43.10126342 30.20813016 43.17140779 37.41607752 43.21972656 44.62475586 C43.23986533 47.07795059 43.26717818 49.53109719 43.30175781 51.98413086 C43.35017482 55.50646833 43.37294629 59.02817223 43.390625 62.55078125 C43.41127014 63.65086014 43.43191528 64.75093903 43.45318604 65.88435364 C43.45363922 67.41560127 43.45363922 67.41560127 43.45410156 68.9777832 C43.46298401 69.87713089 43.47186646 70.77647858 43.48101807 71.70307922 C43 74 43 74 41.14251709 75.72453308 C38.57035832 77.25577101 35.94970397 78.58110043 33.25 79.875 C28.98082881 81.96549331 24.94452203 84.15651303 21.01171875 86.82421875 C18.71727958 88.16524048 16.32006006 89.12505804 13.87084961 90.14575195 C10.10997215 91.86300502 6.6360418 94.15874762 3.16210938 96.390625 C0.3377286 98.0959115 -1.64550088 98.99906711 -4.96875 99.0078125 C-8.84638149 97.71859997 -12.01341119 95.82644876 -15.4375 93.625 C-20.18355115 90.61317634 -24.80052279 88.18986991 -30 86 C-32.3952984 84.73554767 -34.729102 83.3747151 -37.0625 82 C-41.30843831 79.5150284 -45.59754364 77.19795741 -50 75 C-51 74 -51 74 -51.12025452 71.94358826 C-51.11803391 71.03979935 -51.11581329 70.13601044 -51.11352539 69.20483398 C-51.11344986 68.18385117 -51.11337433 67.16286835 -51.11329651 66.11094666 C-51.10813522 65.0005452 -51.10297394 63.89014374 -51.09765625 62.74609375 C-51.0962413 61.61551041 -51.09482635 60.48492706 -51.09336853 59.32008362 C-51.08775019 55.69252935 -51.07519458 52.06503576 -51.0625 48.4375 C-51.05748736 45.98502693 -51.05292405 43.5325529 -51.04882812 41.08007812 C-51.0377748 35.05336455 -51.02101884 29.02668661 -51 23 C-34.47193041 14.23651364 -34.47193041 14.23651364 -28.46484375 11.109375 C-27.69849609 10.70976562 -26.93214844 10.31015625 -26.14257812 9.8984375 C-24.63846828 9.11507471 -23.13320853 8.33391684 -21.62695312 7.5546875 C-17.87129489 5.59186697 -14.35697334 3.56465638 -10.87890625 1.140625 C-6.92309324 -1.35032543 -4.56238864 -1.40618052 0 0 Z M-8.4375 6.6875 C-8.95183594 7.04199219 -9.46617188 7.39648438 -9.99609375 7.76171875 C-12.27747735 9.17146261 -14.66772203 10.13773187 -17.13793945 11.16772461 C-20.17881397 12.52688827 -23.0153097 14.23953376 -25.875 15.9375 C-31.12249437 19.00099311 -36.38374021 21.67603043 -42 24 C-42 24.66 -42 25.32 -42 26 C-38.97623266 27.74155389 -35.92886464 29.43686662 -32.875 31.125 C-32.0190625 31.61871094 -31.163125 32.11242187 -30.28125 32.62109375 C-25.30536318 35.44544024 -25.30536318 35.44544024 -19.7578125 35.5078125 C-18.84773438 35.01023437 -17.93765625 34.51265625 -17 34 C-15.515 33.21882813 -15.515 33.21882813 -14 32.421875 C-11.99555479 31.30481439 -9.9955433 30.17976156 -8 29.046875 C-4.13331411 27.69756273 -2.67959277 28.31571306 1 30 C4.06699316 31.59467855 7.08313919 33.26158132 10.09765625 34.953125 C12.87962218 36.25803671 12.87962218 36.25803671 15.3515625 35.4296875 C16.22554687 34.95789063 17.09953125 34.48609375 18 34 C19.32825853 33.3491722 20.65780417 32.70096786 21.98828125 32.0546875 C23.43071916 31.33017531 24.87210467 30.60356457 26.3125 29.875 C27.05306641 29.50246094 27.79363281 29.12992188 28.55664062 28.74609375 C30.37201217 27.83255194 32.18613282 26.91652513 34 26 C34 25.34 34 24.68 34 24 C32.96101563 23.49210937 31.92203125 22.98421875 30.8515625 22.4609375 C23.75918253 18.96881957 16.83582486 15.4060626 10.10546875 11.24609375 C7.15180385 9.49800636 4.20460529 8.2325405 1 7 C0.01 6.525625 -0.98 6.05125 -2 5.5625 C-5.17064131 4.65820564 -5.17064131 4.65820564 -8.4375 6.6875 Z M-46 30 C-46.24782044 35.72884612 -46.42891691 41.45455751 -46.54931641 47.1875 C-46.59950961 49.13564397 -46.66768562 51.08341293 -46.75439453 53.03027344 C-47.73175744 63.89052293 -47.73175744 63.89052293 -43.97558594 73.53808594 C-41.34288076 75.1512289 -38.95321859 76.12172851 -36 77 C-34.76236899 77.52947516 -33.52959464 78.0706259 -32.3046875 78.62890625 C-30.66886719 79.30759766 -30.66886719 79.30759766 -29 80 C-26.68391145 81.28466415 -24.39911981 82.58385725 -22.125 83.9375 C-16.88713619 87.03368601 -11.5976613 89.61475046 -6 92 C-5.85503492 88.22956968 -5.76604393 84.45985258 -5.6875 80.6875 C-5.6246582 79.0797168 -5.6246582 79.0797168 -5.56054688 77.43945312 C-5.54443359 76.41142578 -5.52832031 75.38339844 -5.51171875 74.32421875 C-5.48553467 73.37635498 -5.45935059 72.42849121 -5.43237305 71.4519043 C-5.77353574 68.78244149 -5.77353574 68.78244149 -8.31176758 67.26098633 C-10.35670974 66.30175226 -12.4238879 65.38976233 -14.5 64.5 C-15.655 64.005 -16.81 63.51 -18 63 C-18.90105469 62.66226563 -19.80210938 62.32453125 -20.73046875 61.9765625 C-23 60 -23 60 -23.23486328 58.12207031 C-23.17223696 56.55878189 -23.08604267 54.99632836 -22.98120117 53.43530273 C-22.38165381 45.85584359 -22.38165381 45.85584359 -25.49902344 39.26220703 C-31.57377835 34.63820978 -38.83589164 32.36426401 -46 30 Z M29.25 33.8125 C28.53328125 34.16892578 27.8165625 34.52535156 27.078125 34.89257812 C25.67693603 35.59446047 24.28235875 36.30972267 22.89526367 37.0390625 C21 38 21 38 18.00390625 39.17578125 C15.8375766 40.77557975 15.8375766 40.77557975 15.65478516 42.93188477 C15.53944956 46.28395672 15.64954309 49.60418277 15.81445312 52.953125 C15.82439351 55.50581587 15.752068 57.5563369 15 60 C12.61820008 62.33223645 10.03156452 63.66553477 7 65 C6.33846924 65.30437988 5.67693848 65.60875977 4.99536133 65.92236328 C3.34620779 66.65211534 1.67441329 67.33023468 0 68 C-0.99 68.495 -0.99 68.495 -2 69 C-2 76.26 -2 83.52 -2 91 C5.11470807 88.79235602 5.11470807 88.79235602 11.3515625 85.625 C12.05796875 85.19703125 12.764375 84.7690625 13.4921875 84.328125 C14.19601563 83.88984375 14.89984375 83.4515625 15.625 83 C20.65204799 79.90362986 25.54331469 77.29755171 31 75 C34.465 73.02 34.465 73.02 38 71 C38 57.47 38 43.94 38 30 C35.19703033 30 31.79067429 32.53545333 29.25 33.8125 Z M-11.1875 36 C-12.53908203 36.8353125 -12.53908203 36.8353125 -13.91796875 37.6875 C-14.60503906 38.120625 -15.29210938 38.55375 -16 39 C-11.92235892 42.49512092 -8.7231524 45.121029 -3.1875 44.875 C0.84979664 43.76672249 4.33666196 41.99902964 8 40 C1.320029 34.30237768 -3.30793047 31.08806055 -11.1875 36 Z M-19 44 C-19 48.29 -19 52.58 -19 57 C-14.71 59.31 -10.42 61.62 -6 64 C-5.22048515 57.41906629 -5.22048515 57.41906629 -6 51 C-9.2239454 47.71782242 -12.7637983 45.74918238 -17 44 C-17.66 44 -18.32 44 -19 44 Z M0.37890625 48.578125 C-2.28233138 50.85542457 -2.28233138 50.85542457 -2.72265625 54.359375 C-2.74470951 58.36175903 -2.74470951 58.36175903 -2 64 C2.29 61.69 6.58 59.38 11 57 C11 52.71 11 48.42 11 44 C6.98285334 44 3.68381398 46.49262912 0.37890625 48.578125 Z " fill="#099849" transform="translate(54,1)"/>
<path d="M0 0 C2.63325525 1.20470192 5.08725457 2.62579094 7.5625 4.125 C8.96576776 4.94688581 10.37075219 5.7658469 11.77734375 6.58203125 C12.47972168 6.99018066 13.18209961 7.39833008 13.90576172 7.81884766 C18.14246915 10.2083546 22.53237776 12.2869513 26.9140625 14.39453125 C30.11110258 16.05780147 33.00600857 17.99984739 36 20 C39.2249208 21.24324147 39.2249208 21.24324147 42 22 C41.67 22.66 41.34 23.32 41 24 C34.84698683 25.69657415 31.48881798 24.35755971 26.1875 21.4375 C25.48826416 21.07052002 24.78902832 20.70354004 24.06860352 20.32543945 C19.31108267 17.80145523 14.68632837 15.07747934 10.10546875 12.24609375 C7.15180385 10.49800636 4.20460529 9.2325405 1 8 C0.01 7.525625 -0.98 7.05125 -2 6.5625 C-5.17064131 5.65820564 -5.17064131 5.65820564 -8.4375 7.6875 C-8.95183594 8.04199219 -9.46617188 8.39648438 -9.99609375 8.76171875 C-12.27747735 10.17146261 -14.66772203 11.13773187 -17.13793945 12.16772461 C-20.17900034 13.52697157 -23.01430806 15.24101045 -25.875 16.9375 C-41.44034728 25.9301241 -41.44034728 25.9301241 -49 24 C-48 21 -48 21 -45.5078125 19.52734375 C-44.39148438 19.00269531 -43.27515625 18.47804688 -42.125 17.9375 C-40.85317233 17.32628348 -39.58239619 16.71287566 -38.3125 16.09765625 C-37.27802734 15.59903076 -37.27802734 15.59903076 -36.22265625 15.09033203 C-32.15138118 13.09315338 -28.13928649 10.98378073 -24.125 8.875 C-23.34141113 8.46757568 -22.55782227 8.06015137 -21.75048828 7.64038086 C-17.9526987 5.645757 -14.38769054 3.58649644 -10.8671875 1.1328125 C-6.91727443 -1.35404299 -4.55455589 -1.40376638 0 0 Z " fill="#216CB2" transform="translate(54,1)"/>
<path d="M0 0 C0.10128166 6.78087633 0.17141525 13.56155822 0.21972656 20.34301758 C0.23986263 22.65070891 0.26717356 24.95834911 0.30175781 27.26586914 C0.35018715 30.57971808 0.37294884 33.89289347 0.390625 37.20703125 C0.41127014 38.2414888 0.43191528 39.27594635 0.45318604 40.3417511 C0.45348816 41.3025206 0.45379028 42.2632901 0.45410156 43.25317383 C0.46298401 44.09922684 0.47186646 44.94527985 0.48101807 45.81697083 C0 48 0 48 -1.85748291 49.70732117 C-4.42514768 51.25651109 -7.04548865 52.57879637 -9.75 53.875 C-14.09723075 56.00371688 -18.16637582 58.29624976 -22.22265625 60.92578125 C-24.36287043 62.2193173 -26.61296532 63.12225538 -28.93359375 64.04296875 C-32.93631667 65.89678182 -36.65719371 68.29036959 -40.42578125 70.57421875 C-43 72 -43 72 -45 72 C-45 69.69 -45 67.38 -45 65 C-43.96101563 64.49210937 -42.92203125 63.98421875 -41.8515625 63.4609375 C-34.75998948 59.96921689 -27.83128868 56.4151876 -21.109375 52.2421875 C-18.17614594 50.5148415 -15.14565929 49.29527147 -12 48 C-11.071875 47.443125 -10.14375 46.88625 -9.1875 46.3125 C-7 45 -7 45 -5 45 C-5 30.81 -5 16.62 -5 2 C-1 0 -1 0 0 0 Z " fill="#E32526" transform="translate(97,27)"/>
<path d="M0 0 C2.475 0.99 2.475 0.99 5 2 C5 16.19 5 30.38 5 45 C6.65 45.66 8.3 46.32 10 47 C10.78375 47.474375 11.5675 47.94875 12.375 48.4375 C15.03182409 50.10201133 15.03182409 50.10201133 18.23046875 51.3515625 C21.967037 52.92960405 25.44756173 54.87900646 28.9375 56.9375 C33.87905581 59.81257508 38.86704608 62.48384612 44 65 C45 66 45 66 45.0625 69.0625 C45.041875 70.031875 45.02125 71.00125 45 72 C40.00396028 70.16079856 35.67490578 67.49932294 31.1328125 64.75390625 C28.0057689 62.93065113 28.0057689 62.93065113 24.55859375 61.52734375 C20.82996616 59.9270217 17.42612551 58.05531426 13.9375 56 C9.69156169 53.5150284 5.40245636 51.19795741 1 49 C0 48 0 48 -0.12025452 46.05747986 C-0.11803391 45.20698563 -0.11581329 44.35649139 -0.11352539 43.48022461 C-0.11344986 42.51930405 -0.11337433 41.55838348 -0.11329651 40.56834412 C-0.10813522 39.523564 -0.10297394 38.47878387 -0.09765625 37.40234375 C-0.0962413 36.33834854 -0.09482635 35.27435333 -0.09336853 34.17811584 C-0.08775064 30.76454917 -0.07519511 27.351047 -0.0625 23.9375 C-0.05748731 21.62955824 -0.052924 19.32161545 -0.04882812 17.01367188 C-0.0377754 11.34242574 -0.02101987 5.67121747 0 0 Z " fill="#F8B21C" transform="translate(3,27)"/>
<path d="M0 0 C1.15242188 0.63164063 2.30484375 1.26328125 3.4921875 1.9140625 C4.79542969 2.63722656 4.79542969 2.63722656 6.125 3.375 C4.828125 4.87890625 4.828125 4.87890625 3.125 6.375 C-1.08668633 6.29400603 -4.03350654 5.42810994 -7.5625 3.25 C-10.53069437 1.21080059 -10.53069437 1.21080059 -12.875 1.375 C-14.7193796 2.2971898 -16.49046538 3.36222884 -18.25 4.4375 C-21.57107412 6.40871819 -23.97079691 6.8289771 -27.875 6.375 C-28.535 6.045 -29.195 5.715 -29.875 5.375 C-28.41536128 0.99608383 -25.08914603 0.02196262 -21.1875 -1.9375 C-20.12499023 -2.51467773 -20.12499023 -2.51467773 -19.04101562 -3.10351562 C-11.40607624 -6.97385886 -7.18344853 -3.95822674 0 0 Z " fill="#216CB1" transform="translate(61.875,33.625)"/>
<path d="M0 0 C2.48046875 1.05078125 2.48046875 1.05078125 5 3 C5.48828125 6.35546875 5.48828125 6.35546875 5.3125 10.1875 C5.26738281 11.45980469 5.22226562 12.73210938 5.17578125 14.04296875 C5.11777344 15.01878906 5.05976562 15.99460937 5 17 C5.73605469 17.28230469 6.47210938 17.56460938 7.23046875 17.85546875 C11.11582026 19.46112177 14.79017311 21.25095118 18 24 C18.5 26.8125 18.5 26.8125 18 29 C14.9250234 28.1712829 11.97651258 27.13071724 9 26 C8.14148437 25.72542969 7.28296875 25.45085937 6.3984375 25.16796875 C3.27250958 23.76378208 1.90815046 22.8931448 0 20 C-1.13826372 13.42480236 -0.54279302 6.61557993 0 0 Z " fill="#F7B21C" transform="translate(30,41)"/>
<path d="M0 0 C1.36239903 16.98793848 1.36239903 16.98793848 -1.6875 21.4921875 C-4.08867578 23.10130877 -6.25973892 24.08657964 -9 25 C-9.85851563 25.32742187 -10.71703125 25.65484375 -11.6015625 25.9921875 C-13.72052874 26.7523246 -15.82743857 27.41448699 -18 28 C-18.265625 25.703125 -18.265625 25.703125 -18 23 C-16.171875 21.234375 -16.171875 21.234375 -13.75 19.75 C-12.96109375 19.24984375 -12.1721875 18.7496875 -11.359375 18.234375 C-9.20440519 17.10694047 -7.37562002 16.45768826 -5 16 C-5.03480469 15.01257812 -5.06960937 14.02515625 -5.10546875 13.0078125 C-5.14607422 11.08582031 -5.14607422 11.08582031 -5.1875 9.125 C-5.22230469 7.84882812 -5.25710937 6.57265625 -5.29296875 5.2578125 C-5.19628906 4.18273438 -5.09960938 3.10765625 -5 2 C-2 0 -2 0 0 0 Z " fill="#E32426" transform="translate(70,42)"/>
</svg>
