<svg width="24" height="24" viewBox="0 0 24 24" fill="none" xmlns="http://www.w3.org/2000/svg">
<path fill-rule="evenodd" clip-rule="evenodd" d="M17.5633 11.6787C17.6998 12.7748 18.6991 13.5526 19.7952 13.4161C20.8913 13.2795 21.6691 12.2802 21.5326 11.1841L21.0029 6.93384C20.592 3.63611 17.5788 1.30048 14.2828 1.72475L9.82344 2.29877L11.396 2.11039C12.4927 1.97901 13.4883 2.76158 13.6197 3.85831C13.7408 4.86954 13.085 5.79477 12.1223 6.03587L14.7936 5.69202C15.8923 5.5506 16.8966 6.32914 17.0336 7.42838L17.5633 11.6787ZM10.3176 6.26816L8.22339 6.51904L8.22576 6.53743L10.3176 6.26816Z" fill="#449751"/>
<path fill-rule="evenodd" clip-rule="evenodd" d="M19.7951 13.416C18.699 13.5526 17.6997 12.7747 17.5631 11.6786L17.4183 10.5163C17.4188 10.5848 17.4229 10.6538 17.4306 10.7234L17.9253 15.1729C18.0432 16.2333 17.3081 17.1993 16.2547 17.3683L11.7779 18.0865C10.6873 18.2614 9.94519 19.2874 10.1203 20.378C10.2955 21.4686 11.3216 22.2109 12.4122 22.0359L16.8889 21.3177C20.0491 20.8108 22.2546 17.9126 21.9009 14.7315L21.5454 11.5343C21.4975 12.4856 20.773 13.2942 19.7951 13.416Z" fill="#376BAF"/>
<path fill-rule="evenodd" clip-rule="evenodd" d="M11.5181 18.1461C10.5723 18.4296 9.95961 19.3766 10.1204 20.3781C10.2853 21.4049 11.2045 22.1229 12.2216 22.0575L12.225 22.1079L9.15011 22.3127C5.96158 22.5252 3.16606 20.2012 2.79243 17.0275L2.32116 13.0246C2.19201 11.9276 2.97661 10.9336 4.0736 10.8044C5.17059 10.6753 6.16458 11.4599 6.29373 12.5569L6.76499 16.5598C6.88954 17.6177 7.82137 18.3924 8.88422 18.3216L11.5181 18.1461Z" fill="#EFB645"/>
<path fill-rule="evenodd" clip-rule="evenodd" d="M11.8717 6.08207C12.9684 5.95069 13.751 4.95512 13.6196 3.85839C13.4882 2.76166 12.4927 1.97909 11.3959 2.11046L7.35144 2.59496C4.20128 2.97231 1.8894 5.73691 2.07542 8.90414L2.31057 12.9079L2.31061 12.9079C2.24803 11.8579 3.01543 10.929 4.07339 10.8044C5.17038 10.6753 6.16437 11.4599 6.29352 12.5569L6.30016 12.6133L6.06854 8.66962C6.00653 7.61388 6.77716 6.69235 7.82721 6.56656L11.8717 6.08207Z" fill="#D23C33"/>
</svg>
