<svg width="67" height="71" viewBox="0 0 67 71" fill="none" xmlns="http://www.w3.org/2000/svg">
<g filter="url(#filter0_bd_6526_8437)">
<rect x="5.30487" y="1.70477" width="56.439" height="56.439" rx="10" fill="white" fill-opacity="0.04" shape-rendering="crispEdges"/>
<rect x="4.80487" y="1.20477" width="57.439" height="57.439" rx="10.5" stroke="#232325" stroke-opacity="0.9" shape-rendering="crispEdges"/>
<rect x="4.80487" y="1.20477" width="57.439" height="57.439" rx="10.5" stroke="url(#paint0_linear_6526_8437)" stroke-opacity="0.16" shape-rendering="crispEdges"/>
</g>
<g filter="url(#filter1_d_6526_8437)">
<rect x="8.30505" y="4.3847" width="50.677" height="50.677" rx="8" fill="#1D1D21"/>
<rect x="8.82505" y="4.9047" width="49.637" height="49.637" rx="7.48" stroke="#232325" stroke-opacity="0.9" stroke-width="1.04"/>
<rect x="8.82505" y="4.9047" width="49.637" height="49.637" rx="7.48" stroke="url(#paint1_linear_6526_8437)" stroke-opacity="0.16" stroke-width="1.04"/>
</g>
<path d="M38.8405 27.995L40.4166 25.2647C40.5055 25.1117 40.4517 24.9172 40.3007 24.8283C40.1498 24.7394 39.9533 24.7911 39.8664 24.9441L38.2696 27.7095C37.0513 27.1531 35.68 26.8429 34.2053 26.8429C32.7305 26.8429 31.3592 27.1531 30.1409 27.7095L28.5442 24.9441C28.4552 24.7911 28.2608 24.7394 28.1077 24.8283C27.9547 24.9172 27.903 25.1117 27.9919 25.2647L29.568 27.995C26.8502 29.4676 25.0093 32.2186 24.7053 35.439H43.7053C43.4012 32.2185 41.5604 29.4676 38.8405 27.995ZM29.8431 32.7708C29.4025 32.7708 29.0468 32.413 29.0468 31.9745C29.0468 31.5339 29.4046 31.1782 29.8431 31.1782C30.2837 31.1782 30.6394 31.536 30.6394 31.9745C30.6415 32.413 30.2837 32.7708 29.8431 32.7708ZM38.5654 32.7708C38.1249 32.7708 37.7691 32.413 37.7691 31.9745C37.7691 31.5339 38.1269 31.1782 38.5654 31.1782C39.006 31.1782 39.3617 31.536 39.3617 31.9745C39.3638 32.413 39.006 32.7708 38.5654 32.7708Z" fill="#97979B"/>
<defs>
<filter id="filter0_bd_6526_8437" x="0.14487" y="-3.45523" width="66.759" height="68.839" filterUnits="userSpaceOnUse" color-interpolation-filters="sRGB">
<feFlood flood-opacity="0" result="BackgroundImageFix"/>
<feGaussianBlur in="BackgroundImageFix" stdDeviation="2.08"/>
<feComposite in2="SourceAlpha" operator="in" result="effect1_backgroundBlur_6526_8437"/>
<feColorMatrix in="SourceAlpha" type="matrix" values="0 0 0 0 0 0 0 0 0 0 0 0 0 0 0 0 0 0 127 0" result="hardAlpha"/>
<feOffset dy="3.12"/>
<feGaussianBlur stdDeviation="1.56"/>
<feComposite in2="hardAlpha" operator="out"/>
<feColorMatrix type="matrix" values="0 0 0 0 0 0 0 0 0 0 0 0 0 0 0 0 0 0 0.24 0"/>
<feBlend mode="normal" in2="effect1_backgroundBlur_6526_8437" result="effect2_dropShadow_6526_8437"/>
<feBlend mode="normal" in="SourceGraphic" in2="effect2_dropShadow_6526_8437" result="shape"/>
</filter>
<filter id="filter1_d_6526_8437" x="0.817053" y="4.3847" width="65.6529" height="65.6529" filterUnits="userSpaceOnUse" color-interpolation-filters="sRGB">
<feFlood flood-opacity="0" result="BackgroundImageFix"/>
<feColorMatrix in="SourceAlpha" type="matrix" values="0 0 0 0 0 0 0 0 0 0 0 0 0 0 0 0 0 0 127 0" result="hardAlpha"/>
<feOffset dy="7.488"/>
<feGaussianBlur stdDeviation="3.744"/>
<feComposite in2="hardAlpha" operator="out"/>
<feColorMatrix type="matrix" values="0 0 0 0 0 0 0 0 0 0 0 0 0 0 0 0 0 0 0.03 0"/>
<feBlend mode="normal" in2="BackgroundImageFix" result="effect1_dropShadow_6526_8437"/>
<feBlend mode="normal" in="SourceGraphic" in2="effect1_dropShadow_6526_8437" result="shape"/>
</filter>
<linearGradient id="paint0_linear_6526_8437" x1="61.7439" y1="58.1438" x2="5.30487" y2="1.70477" gradientUnits="userSpaceOnUse">
<stop stop-color="white" stop-opacity="0.4"/>
<stop offset="1" stop-color="white" stop-opacity="0.02"/>
</linearGradient>
<linearGradient id="paint1_linear_6526_8437" x1="58.982" y1="55.0617" x2="8.30506" y2="4.3847" gradientUnits="userSpaceOnUse">
<stop stop-color="white" stop-opacity="0.4"/>
<stop offset="1" stop-color="white" stop-opacity="0.02"/>
</linearGradient>
</defs>
</svg>
