<svg width="132" height="24" viewBox="0 0 132 24" fill="none" xmlns="http://www.w3.org/2000/svg">
    <path d="M38.5563 19.4952C40.7152 19.4952 41.8065 18.382 42.281 17.624H42.4946C42.5895 18.4294 43.1589 19.1873 44.2739 19.1873H46.3854V16.8187H45.8397C45.4601 16.8187 45.2703 16.6055 45.2703 16.2739V6.77589H42.4708V8.29179H42.2573C41.7116 7.53384 40.5729 6.46798 38.4851 6.46798C35.1637 6.46798 32.6963 9.21554 32.6963 12.9816C32.6963 16.7477 35.2111 19.4952 38.5563 19.4952ZM39.0545 16.795C37.0853 16.795 35.5432 15.3502 35.5432 13.0053C35.5432 10.7078 37.0379 9.14449 39.0308 9.14449C40.9287 9.14449 42.5183 10.542 42.5183 13.0053C42.5183 15.1133 41.166 16.795 39.0545 16.795Z" fill="#EDEDF0"/>
    <path d="M48.0382 24H50.8377V17.624H51.0513C51.5732 18.382 52.6883 19.4952 54.8947 19.4952C58.2161 19.4952 60.636 16.7003 60.636 12.9816C60.636 9.23923 58.05 6.46798 54.7049 6.46798C52.5696 6.46798 51.5258 7.62859 51.0275 8.26811H50.814V6.77589H48.0382V24ZM54.3015 16.8661C52.3799 16.8661 50.7903 15.4449 50.7903 12.9816C50.7903 10.8736 52.1426 9.09711 54.2541 9.09711C56.2232 9.09711 57.7653 10.6367 57.7653 12.9816C57.7653 15.2791 56.2707 16.8661 54.3015 16.8661Z" fill="#EDEDF0"/>
    <path d="M62.0806 24H64.8801V17.624H65.0936C65.6156 18.382 66.7306 19.4952 68.937 19.4952C72.2585 19.4952 74.4477 16.7003 74.4477 12.9816C74.4477 9.23923 72.0924 6.46798 68.7472 6.46798C66.612 6.46798 65.5681 7.62859 65.0699 8.26811H64.8564V6.77589H62.0806V24ZM68.3439 16.8661C66.4222 16.8661 64.8326 15.4449 64.8326 12.9816C64.8326 10.8736 66.1849 9.09711 68.2964 9.09711C70.2656 9.09711 71.8077 10.6367 71.8077 12.9816C71.8077 15.2791 70.313 16.8661 68.3439 16.8661Z" fill="#EDEDF0"/>
    <path d="M78.1484 19.4755H82.1104L84.3642 9.74061H84.5066L86.7604 19.4755H90.6987L93.8524 7.0641H91.0308L88.777 16.8227H88.5635L86.3096 7.0641H82.5849L80.3073 16.8227H80.0938L77.8637 7.0641H74.8744L78.1484 19.4755Z" fill="#EDEDF0"/>
    <path d="M95.2706 19.4755H98.0701V13.3409C98.0701 10.996 99.1615 9.55112 101.202 9.55112H102.435V6.75619H101.51C99.9207 6.75619 98.7107 7.84574 98.2362 8.88792H98.0464V7.0641H95.2706V19.4755Z" fill="#EDEDF0"/>
    <path d="M116.328 19.4755H118.511V16.9885H116.352C115.498 16.9885 115.142 16.6095 115.142 15.7331V9.52744H118.653V7.0641H115.142V3.58228H112.485V7.0641H110.16V9.52744H112.319V15.7568C112.319 18.386 113.908 19.4755 116.328 19.4755Z" fill="#EDEDF0"/>
    <path d="M126.021 19.4952C128.607 19.4952 130.885 18.2162 131.691 15.6344L129.129 15.0186C128.678 16.3924 127.374 17.103 125.998 17.103C123.957 17.103 122.605 15.7765 122.581 13.6922H132V12.9105C132 9.21554 129.699 6.46798 125.903 6.46798C122.557 6.46798 119.687 9.09711 119.687 13.0053C119.687 16.795 122.225 19.4952 126.021 19.4952ZM122.605 11.6552C122.771 10.163 124.123 8.90763 125.903 8.90763C127.611 8.90763 129.011 9.97349 129.153 11.6552H122.605Z" fill="#EDEDF0"/>
    <path fill-rule="evenodd" clip-rule="evenodd" d="M108.915 19.4755H106.115V9.52744H103.933V7.0641H108.915V19.4755Z" fill="#EDEDF0"/>
    <path d="M107.307 5.34169C108.327 5.34169 109.087 4.58374 109.087 3.58893C109.087 2.61781 108.327 1.85986 107.307 1.85986C106.287 1.85986 105.528 2.61781 105.528 3.58893C105.528 4.58374 106.287 5.34169 107.307 5.34169Z" fill="#EDEDF0"/>
    <path d="M24.4429 16.4322V21.9096H10.7519C6.76318 21.9096 3.28044 19.7067 1.4171 16.4322C1.14622 15.9561 0.909137 15.4567 0.710264 14.9383C0.319864 13.9225 0.0744552 12.8325 0 11.6952V10.2143C0.0161646 9.96089 0.0416361 9.70942 0.0749451 9.46095C0.143032 8.95105 0.245898 8.45211 0.381093 7.96711C1.66006 3.36909 5.81877 0 10.7519 0C15.6851 0 19.8433 3.36909 21.1223 7.96711H15.2682C14.3072 6.4683 12.6437 5.4774 10.7519 5.4774C8.86017 5.4774 7.19668 6.4683 6.23562 7.96711C5.9427 8.42274 5.71542 8.92516 5.56651 9.46095C5.43425 9.93599 5.36371 10.4369 5.36371 10.9548C5.36371 12.5248 6.01324 13.94 7.05463 14.9383C8.01961 15.865 9.32061 16.4322 10.7519 16.4322H24.4429Z" fill="#FD366E"/>
    <path d="M24.4429 9.46094V14.9383H14.4492C15.4906 13.94 16.1401 12.5248 16.1401 10.9548C16.1401 10.4369 16.0696 9.93598 15.9373 9.46094H24.4429Z" fill="#FD366E"/>
</svg>
