<svg width="307" height="290" viewBox="0 0 307 290" fill="none" xmlns="http://www.w3.org/2000/svg">
    <path d="M11.6704 157.003L64.2175 201.478L215.821 130.059L65.7018 42.4065L11.6704 157.003Z" fill="url(#paint0_linear_1208_57830)" />
    <path d="M63.3384 200.552L53.7234 84.0257C53.2124 77.8327 57.1557 72.144 63.1342 70.4494L226.762 24.0695C227.101 23.9732 227.461 23.9685 227.803 24.056L230.954 24.8618L236.442 139.925L298.956 196.341C301.129 198.302 300.528 201.857 297.831 202.996L126.064 275.492C124.404 276.193 122.48 275.697 121.366 274.281L63.3384 200.552Z" fill="url(#paint1_linear_1208_57830)" />
    <path d="M125.229 269.559L67.3418 198.276L235.847 139.924L301.248 196.777L285.031 203.502L266.44 210.622L198.801 239.892L125.229 269.559Z" fill="url(#paint2_linear_1208_57830)" />
    <path d="M121.7 253.82L87.2109 210.495L241.524 153.268L279.875 184.645C282.212 186.558 281.668 190.271 278.881 191.433L126.369 255.021C124.719 255.709 122.813 255.219 121.7 253.82Z" fill="#373B4D" />
    <path d="M67.4787 198.36L58.7996 83.0807C58.4056 77.8475 61.7634 73.0647 66.8194 71.6576L228.753 26.5917C230.011 26.2415 231.262 27.172 231.289 28.478L233.61 142.983L67.4787 198.36Z" fill="url(#paint3_linear_1208_57830)" />
    <path d="M71.4339 197.569L64.4884 81.6846C64.3773 79.8301 65.5576 78.1432 67.3378 77.6122L226.559 30.1156C227.786 29.7496 229.036 30.6149 229.126 31.8923L236.774 141.006L71.4339 197.569Z" fill="url(#paint4_linear_1208_57830)" />
    <path d="M91.7659 225.255L248.189 163.405" stroke="url(#paint5_radial_1208_57830)" stroke-opacity="0.2" />
    <path d="M98.8048 234.022L255.25 169.799" stroke="url(#paint6_radial_1208_57830)" stroke-opacity="0.2" />
    <path d="M103.456 244.349L263.856 180.162" stroke="url(#paint7_radial_1208_57830)" stroke-opacity="0.2" />
    <path d="M111.309 250.751L270.127 186.55" stroke="url(#paint8_radial_1208_57830)" stroke-opacity="0.2" />
    <path d="M115.73 200.159L150.165 240.824" stroke="url(#paint9_radial_1208_57830)" stroke-opacity="0.2" />
    <path d="M124.49 193.91L158.926 234.575" stroke="url(#paint10_radial_1208_57830)" stroke-opacity="0.2" />
    <path d="M137.206 187.698L171.641 228.363" stroke="url(#paint11_radial_1208_57830)" stroke-opacity="0.2" />
    <path d="M149.122 182.271L183.558 222.935" stroke="url(#paint12_radial_1208_57830)" stroke-opacity="0.2" />
    <path d="M162.607 178.439L197.042 219.104" stroke="url(#paint13_radial_1208_57830)" stroke-opacity="0.2" />
    <path d="M172.95 172.205L207.385 212.87" stroke="url(#paint14_radial_1208_57830)" stroke-opacity="0.2" />
    <path d="M185.644 168.366L220.079 209.031" stroke="url(#paint15_radial_1208_57830)" stroke-opacity="0.2" />
    <path d="M204.658 165.377L221.875 185.709L239.093 206.042" stroke="url(#paint16_radial_1208_57830)" stroke-opacity="0.2" />
    <path d="M220.559 156.821L237.777 177.154L254.995 197.486" stroke="url(#paint17_radial_1208_57830)" stroke-opacity="0.2" />
    <path d="M87.3515 214.948L87.3515 210.482L121.977 251.497C123.659 253.489 126.437 254.167 128.848 253.173L279.102 191.24L279.278 194.71L127.47 257.146C125.46 257.972 123.147 257.406 121.746 255.744L87.3515 214.948Z" fill="url(#paint18_linear_1208_57830)" />
    <path d="M172.321 125.221C172.266 127.43 173.91 128.623 175.994 127.885C178.077 127.147 179.81 124.758 179.865 122.549C179.919 120.34 178.275 119.147 176.192 119.885C174.109 120.622 172.376 123.011 172.321 125.221Z" fill="url(#paint19_linear_1208_57830)" />
    <path d="M177.561 122.699C177.187 121.291 175.109 122.027 174.657 123.727L171.837 134.345C171.54 135.462 172.238 136.22 173.238 135.865L178.399 134.038C179.399 133.684 180.147 132.414 179.901 131.49L177.561 122.699Z" fill="url(#paint20_linear_1208_57830)" />
    <path d="M296.889 112.159C298.402 112.96 299.512 113.728 300.188 114.457L299.821 114.797C300.349 115.366 300.502 115.816 300.46 116.163C300.418 116.511 300.162 116.911 299.513 117.338L299.788 117.756C298.957 118.302 297.696 118.783 296.035 119.199L295.914 118.714C294.806 118.992 293.511 119.241 292.035 119.463L292.109 119.957C290.902 120.138 289.579 120.3 288.146 120.442L288.096 119.944C286.852 120.068 285.522 120.177 284.111 120.271L284.144 120.77C282.869 120.855 281.529 120.928 280.125 120.989L280.103 120.49C278.819 120.546 277.482 120.592 276.094 120.628L276.107 121.128C274.814 121.162 273.476 121.187 272.096 121.203L272.09 120.703C270.794 120.719 269.46 120.726 268.09 120.727L268.09 121.227C266.788 121.227 265.454 121.22 264.087 121.207L264.092 120.707C262.788 120.694 261.454 120.676 260.093 120.65L260.083 121.15C258.773 121.126 257.436 121.096 256.075 121.061L256.088 120.561C254.774 120.527 253.436 120.487 252.076 120.442L252.059 120.942C250.739 120.898 249.397 120.85 248.034 120.796L248.054 120.297C246.742 120.245 245.411 120.189 244.061 120.128L244.039 120.627C242.723 120.568 241.39 120.505 240.04 120.437L240.065 119.937C238.744 119.871 237.407 119.8 236.054 119.725L236.026 120.224C234.703 120.151 233.365 120.074 232.012 119.993L232.042 119.494C230.727 119.415 229.398 119.332 228.055 119.246L228.023 119.745C226.7 119.66 225.364 119.571 224.016 119.479L224.05 118.98C222.726 118.889 221.389 118.795 220.041 118.697L220.005 119.196C218.687 119.1 217.358 119.002 216.018 118.899L216.056 118.401C214.731 118.3 213.396 118.196 212.051 118.088L212.011 118.587C210.688 118.481 209.355 118.372 208.013 118.26L208.055 117.762C206.734 117.652 205.404 117.538 204.066 117.422L204.022 117.92C202.694 117.805 201.357 117.687 200.011 117.565L200.056 117.067C198.738 116.948 197.411 116.827 196.077 116.702L196.031 117.2C194.706 117.076 193.373 116.95 192.032 116.82L192.08 116.323C190.757 116.195 189.427 116.065 188.09 115.931L188.04 116.429C186.718 116.297 185.388 116.163 184.053 116.026L184.104 115.528C182.777 115.392 181.444 115.254 180.105 115.112L180.053 115.61C178.733 115.47 177.406 115.328 176.075 115.184L176.129 114.687C174.802 114.543 173.47 114.396 172.133 114.247L172.077 114.744C170.757 114.597 169.431 114.448 168.1 114.296L168.157 113.799C166.832 113.648 165.503 113.494 164.169 113.338L164.11 113.835C162.788 113.68 161.461 113.523 160.129 113.363L160.189 112.867C159.523 112.787 158.857 112.707 158.189 112.626C157.522 112.545 156.856 112.463 156.19 112.382L156.13 112.878C154.799 112.715 153.472 112.55 152.151 112.385L152.213 111.889C150.881 111.721 149.553 111.553 148.231 111.383L148.167 111.879C146.838 111.709 145.515 111.537 144.198 111.365L144.263 110.869C142.928 110.694 141.6 110.518 140.277 110.341L140.211 110.836C138.883 110.658 137.562 110.479 136.246 110.299L136.314 109.804C134.98 109.621 133.653 109.437 132.332 109.252L132.263 109.748C130.933 109.561 129.61 109.374 128.295 109.186L128.365 108.691C127.035 108.501 125.712 108.31 124.397 108.118L124.325 108.612C122.992 108.418 121.668 108.222 120.351 108.026L120.425 107.531C119.1 107.333 117.783 107.135 116.474 106.935L116.399 107.429C115.063 107.226 113.737 107.021 112.419 106.816L112.496 106.321C111.168 106.114 109.85 105.907 108.541 105.698L108.462 106.192C107.133 105.98 105.812 105.767 104.503 105.554L104.583 105.06C103.251 104.843 101.929 104.625 100.619 104.407L100.537 104.9C99.2113 104.679 97.8972 104.458 96.5946 104.236L96.6787 103.743C95.3462 103.515 94.0259 103.288 92.7181 103.059L92.6321 103.552C91.3007 103.319 89.9823 103.086 88.6773 102.853L88.7653 102.361C87.4413 102.124 86.1311 101.886 84.8351 101.649L84.745 102.14C83.4119 101.896 82.094 101.651 80.7916 101.406L80.8841 100.915C79.5524 100.664 78.2371 100.413 76.9386 100.162L76.8437 100.653C75.5164 100.396 74.2067 100.14 72.9151 99.8829L73.0126 99.3925C71.6875 99.129 70.3816 98.8655 69.0953 98.6022L68.995 99.092C67.6591 98.8184 66.3444 98.545 65.0516 98.2718L65.155 97.7826C63.8233 97.5011 62.5149 97.22 61.2306 96.9393L61.1238 97.4278C59.7932 97.137 58.4884 96.8466 57.2101 96.5569L57.3206 96.0693C55.9924 95.7683 54.693 95.468 53.4232 95.1687L53.3085 95.6553C51.9785 95.3417 50.6809 95.0292 49.4168 94.7178L49.5364 94.2323C48.206 93.9046 46.9128 93.5783 45.6582 93.2537L45.533 93.7378C44.1967 93.392 42.9038 93.0481 41.6559 92.7064L41.7879 92.2241C40.4484 91.8573 39.1612 91.4931 37.9279 91.132L37.7874 91.6118C36.4391 91.217 35.1548 90.8256 33.9369 90.4382L34.0884 89.9617C32.7409 89.5332 31.4759 89.1098 30.2966 88.6925L30.1298 89.1639C28.7721 88.6834 27.526 88.2103 26.3967 87.7459L26.5869 87.2835C25.2073 86.7161 24.0093 86.164 22.9998 85.6298L22.7659 86.0717C21.2526 85.2708 20.1431 84.5025 19.4667 83.7735L19.8332 83.4334C19.3052 82.8642 19.1527 82.4149 19.1949 82.0669C19.237 81.719 19.4925 81.3191 20.1413 80.8926L19.8666 80.4748C20.6976 79.9285 21.9586 79.4476 23.6194 79.0314L23.7409 79.5164C24.8488 79.2389 26.144 78.9891 27.6193 78.7678L27.5451 78.2733C28.7527 78.0921 30.0756 77.9305 31.5089 77.7884L31.5582 78.286C32.8031 78.1625 34.1326 78.0537 35.5435 77.9595L35.5102 77.4606C36.7853 77.3755 38.126 77.3023 39.5296 77.241L39.5514 77.7405C40.8352 77.6845 42.1722 77.6385 43.5605 77.6023L43.5475 77.1025C44.8409 77.0689 46.1785 77.0438 47.5588 77.0274L47.5647 77.5273C48.8606 77.5119 50.1942 77.504 51.5644 77.5037L51.5643 77.0037C52.8662 77.0034 54.2008 77.01 55.5672 77.0233L55.5624 77.5233C56.8668 77.536 58.2004 77.5549 59.562 77.5799L59.5712 77.08C60.8817 77.1042 62.2182 77.134 63.5797 77.1696L63.5666 77.6694C64.8808 77.7037 66.2185 77.7433 67.5789 77.7882L67.5954 77.2885C68.916 77.3321 70.258 77.3807 71.6205 77.4343L71.6009 77.9339C72.9128 77.9855 74.2439 78.0417 75.5935 78.1025L75.616 77.603C76.9316 77.6622 78.2647 77.7258 79.6149 77.7938L79.5897 78.2932C80.9106 78.3597 82.2477 78.4303 83.6007 78.5052L83.6283 78.0059C84.9515 78.0791 86.2898 78.1563 87.6427 78.2374L87.6127 78.7365C88.9279 78.8154 90.2569 78.898 91.5992 78.9844L91.6313 78.4854C92.9542 78.5705 94.2901 78.6592 95.6385 78.7516L95.6043 79.2504C96.9288 79.3412 98.2654 79.4354 99.6135 79.5331L99.6497 79.0344C100.968 79.1299 102.297 79.2288 103.636 79.3309L103.598 79.8295C104.923 79.9305 106.258 80.0348 107.604 80.1423L107.644 79.6439C108.966 79.7496 110.299 79.8585 111.641 79.9704L111.6 80.4687C112.92 80.5789 114.25 80.6921 115.589 80.8083L115.632 80.3102C116.961 80.4256 118.298 80.5439 119.644 80.6652L119.599 81.1632C120.917 81.2821 122.243 81.4037 123.577 81.5283L123.624 81.0304C124.949 81.1542 126.282 81.2807 127.622 81.4101L127.574 81.9077C128.897 82.0354 130.228 82.1659 131.565 82.299L131.614 81.8015C132.937 81.9332 134.266 82.0675 135.602 82.2046L135.551 82.702C136.877 82.8381 138.21 82.9768 139.549 83.1181L139.602 82.6209C140.922 82.7603 142.248 82.9022 143.58 83.0466L143.526 83.5437C144.852 83.6876 146.185 83.834 147.522 83.983L147.577 83.486C148.898 83.6331 150.224 83.7827 151.555 83.9346L151.498 84.4314C152.823 84.5827 154.152 84.7364 155.486 84.8925L155.544 84.3959C156.867 84.5507 158.194 84.7078 159.525 84.8674L159.466 85.3638C160.131 85.4436 160.798 85.5239 161.465 85.6048C162.133 85.6857 162.799 85.767 163.464 85.8486L163.525 85.3523C164.856 85.5155 166.182 85.68 167.503 85.8457L167.441 86.3418C168.774 86.5089 170.102 86.6774 171.424 86.847L171.488 86.351C172.816 86.5214 174.139 86.693 175.457 86.8658L175.392 87.3615C176.726 87.5365 178.055 87.7126 179.377 87.8898L179.444 87.3943C180.771 87.5722 182.093 87.7512 183.408 87.9314L183.34 88.4267C184.674 88.6094 186.002 88.7932 187.323 88.978L187.392 88.4829C188.721 88.6689 190.044 88.8561 191.36 89.0442L191.289 89.5392C192.619 89.7294 193.942 89.9206 195.258 90.1127L195.33 89.618C196.662 89.8126 197.987 90.0083 199.303 90.2048L199.23 90.6993C200.555 90.8971 201.872 91.0959 203.18 91.2954L203.256 90.8012C204.591 91.0049 205.918 91.2095 207.236 91.4149L207.159 91.9089C208.486 92.1159 209.805 92.3238 211.113 92.5323L211.192 92.0386C212.522 92.2505 213.842 92.4632 215.152 92.6767L215.072 93.1702C216.404 93.3872 217.725 93.605 219.036 93.8235L219.118 93.3303C220.443 93.5512 221.757 93.7728 223.06 93.9949L222.976 94.4878C224.308 94.7151 225.629 94.9429 226.937 95.1713L227.023 94.6787C228.354 94.9112 229.672 95.1443 230.977 95.3777L230.889 95.8699C232.213 96.1068 233.524 96.3441 234.819 96.5818L234.91 96.09C236.243 96.3344 237.561 96.5793 238.863 96.8244L238.771 97.3158C240.102 97.5664 241.418 97.8173 242.716 98.0683L242.811 97.5774C244.138 97.834 245.448 98.0907 246.74 98.3475L246.642 98.8379C247.967 99.1014 249.273 99.3649 250.559 99.6283L250.66 99.1384C251.995 99.412 253.31 99.6854 254.603 99.9587L254.5 100.448C255.831 100.729 257.14 101.01 258.424 101.291L258.531 100.803C259.861 101.093 261.166 101.384 262.445 101.674L262.334 102.161C263.662 102.462 264.962 102.762 266.231 103.062L266.346 102.575C267.676 102.889 268.974 103.201 270.238 103.513L270.118 103.998C271.449 104.326 272.742 104.652 273.996 104.977L274.122 104.493C275.458 104.838 276.751 105.182 277.999 105.524L277.867 106.006C279.206 106.373 280.493 106.737 281.727 107.098L281.867 106.619C283.215 107.013 284.5 107.405 285.718 107.792L285.566 108.269C286.914 108.697 288.179 109.121 289.358 109.538L289.525 109.067C290.883 109.547 292.129 110.02 293.258 110.485L293.068 110.947C294.447 111.514 295.645 112.066 296.655 112.601L296.889 112.159Z" stroke="url(#paint21_linear_1208_57830)" stroke-dasharray="4 4" />
    <g opacity="0.9">
        <g filter="url(#filter0_d_1208_57830)">
            <ellipse rx="18.3575" ry="24.1091" transform="matrix(0.977376 0.227267 -0.161319 0.994776 283.832 120.282)" fill="url(#paint22_linear_1208_57830)" shape-rendering="crispEdges" />
        </g>
        <ellipse rx="16.5001" ry="24.1091" transform="matrix(0.977376 0.227267 -0.161319 0.994776 286.19 119.733)" fill="url(#paint23_linear_1208_57830)" />
        <path d="M282.405 124.775C283.082 124.686 283.652 125.259 283.678 126.054L283.882 132.233C283.909 133.028 283.381 133.745 282.704 133.834C282.028 133.924 281.458 133.351 281.431 132.556L281.228 126.377C281.201 125.581 281.729 124.864 282.405 124.775L282.405 124.775Z" fill="#43485F" />
        <path d="M279.311 117.738C279.308 117.794 279.306 117.851 279.307 117.908L279.621 127.422C279.655 128.445 280.478 129.164 281.466 129.034L290.97 127.783C291.958 127.653 292.727 126.724 292.693 125.701L292.379 116.187C292.377 116.13 292.373 116.074 292.367 116.019L279.311 117.738Z" fill="#43485F" />
        <path d="M288.89 123.755C289.678 123.651 290.339 124.224 290.366 125.034L290.574 131.325C290.6 132.135 289.983 132.876 289.194 132.98C288.406 133.084 287.745 132.511 287.718 131.701L287.51 125.41C287.483 124.6 288.101 123.859 288.89 123.755L288.89 123.755ZM276.663 118.62C277.451 118.516 278.112 119.089 278.139 119.899L278.347 126.19C278.373 127 277.756 127.741 276.967 127.845C276.179 127.948 275.518 127.376 275.491 126.566L275.283 120.275C275.257 119.465 275.874 118.724 276.663 118.62ZM294.231 116.307C295.02 116.203 295.681 116.776 295.707 117.586L295.915 123.877C295.942 124.687 295.324 125.428 294.536 125.532C293.747 125.636 293.086 125.063 293.059 124.253L292.852 117.962C292.825 117.152 293.443 116.411 294.231 116.307V116.307ZM278.959 116.837C278.902 113.904 281.311 111.175 284.494 110.439L285.929 110.25C289.134 110.146 291.701 112.219 291.837 115.141L278.959 116.837Z" fill="#43485F" />
        <path d="M279.085 111.15L280.719 113.417M291.339 109.537L289.868 112.212" stroke="#43485F" stroke-linecap="round" stroke-linejoin="round" />
        <path d="M283.199 113.918C283.215 114.371 282.88 114.786 282.451 114.843C282.022 114.901 281.661 114.58 281.645 114.127L281.645 114.122C281.629 113.669 281.964 113.255 282.393 113.197C282.822 113.139 283.182 113.46 283.199 113.913L283.199 113.918ZM288.998 113.154C289.014 113.608 288.679 114.022 288.25 114.08C287.821 114.138 287.46 113.817 287.444 113.364L287.444 113.359C287.428 112.905 287.763 112.491 288.192 112.433C288.62 112.376 288.981 112.696 288.998 113.15L288.998 113.154Z" fill="#242533" />
        <path d="M283.405 124.775C284.082 124.686 284.652 125.259 284.678 126.054L284.882 132.233C284.909 133.028 284.381 133.745 283.704 133.834C283.028 133.924 282.458 133.351 282.431 132.556L282.228 126.377C282.201 125.581 282.729 124.864 283.405 124.775L283.405 124.775Z" fill="#5A607B" />
        <path d="M280.311 117.738C280.308 117.794 280.306 117.851 280.307 117.908L280.621 127.422C280.655 128.445 281.478 129.164 282.466 129.034L291.97 127.783C292.958 127.653 293.727 126.724 293.693 125.701L293.379 116.187C293.377 116.13 293.373 116.074 293.367 116.019L280.311 117.738Z" fill="#5A607B" />
        <path d="M289.89 123.755C290.678 123.651 291.339 124.224 291.366 125.034L291.574 131.325C291.6 132.135 290.983 132.876 290.194 132.98C289.406 133.084 288.745 132.511 288.718 131.701L288.51 125.41C288.483 124.6 289.101 123.859 289.89 123.755L289.89 123.755ZM277.663 118.62C278.451 118.516 279.112 119.089 279.139 119.899L279.347 126.19C279.373 127 278.756 127.741 277.967 127.845C277.179 127.948 276.518 127.376 276.491 126.566L276.283 120.275C276.257 119.465 276.874 118.724 277.663 118.62ZM295.231 116.307C296.02 116.203 296.681 116.776 296.707 117.586L296.915 123.877C296.942 124.687 296.324 125.428 295.536 125.532C294.747 125.636 294.086 125.063 294.059 124.253L293.852 117.962C293.825 117.152 294.443 116.411 295.231 116.307V116.307ZM279.959 116.837C279.902 113.904 282.311 111.175 285.494 110.439L286.929 110.25C290.134 110.146 292.701 112.219 292.837 115.141L279.959 116.837Z" fill="#5A607B" />
        <path d="M280.085 111.15L281.719 113.417M292.339 109.537L290.868 112.212" stroke="#5A607B" stroke-linecap="round" stroke-linejoin="round" />
        <path d="M284.199 113.918C284.215 114.371 283.88 114.786 283.451 114.843C283.022 114.901 282.661 114.58 282.645 114.127L282.645 114.122C282.629 113.669 282.964 113.255 283.393 113.197C283.822 113.139 284.182 113.46 284.199 113.913L284.199 113.918ZM289.998 113.154C290.014 113.608 289.679 114.022 289.25 114.08C288.821 114.138 288.46 113.817 288.444 113.364L288.444 113.359C288.428 112.905 288.763 112.491 289.192 112.433C289.62 112.376 289.981 112.696 289.998 113.15L289.998 113.154Z" fill="#232532" />
    </g>
    <g opacity="0.8">
        <g filter="url(#filter1_d_1208_57830)">
            <ellipse rx="19.5" ry="22" transform="matrix(0.989651 0.143493 0 1 27.2568 86.3723)" fill="#424254" />
        </g>
        <ellipse rx="19.5" ry="21.5" transform="matrix(0.989651 0.143493 0 1 23.2982 85.2981)" fill="#292B3A" />
        <path d="M31.3387 82.1542C31.1976 82.2316 28.7801 83.1024 28.3424 86.021C27.8361 89.3967 30.4825 91.1531 30.5627 91.1995C30.5388 91.2697 29.8685 92.7457 28.5888 94.131C27.4504 95.3477 26.2713 96.5539 24.7967 96.2605C23.3221 95.9672 23.0773 94.9932 21.375 94.6546C19.7161 94.3246 18.987 95.1354 17.6382 94.8671C16.2894 94.5988 15.5427 93.115 14.6994 91.3074C13.7264 89.1882 13.1494 86.0818 13.5629 83.3248C14.2262 78.9026 17.319 77.1025 20.0167 77.6391C21.4501 77.9243 22.4969 79.1492 23.3968 79.3282C24.2534 79.4986 25.7462 78.7179 27.3769 79.0423C27.995 79.1652 30.2067 79.666 31.3387 82.1542ZM26.8836 77.0161C27.6839 76.3109 28.3356 75.2411 28.5103 74.0764C28.5346 73.9149 28.5461 73.7485 28.5377 73.611C27.4339 73.4359 26.02 73.8996 25.0892 74.7007C24.3606 75.3148 23.6091 76.3648 23.432 77.5454C23.4054 77.7228 23.4069 77.9059 23.4114 77.9653C23.4788 77.9928 23.5892 78.0311 23.7019 78.0536C24.6864 78.2494 26.0284 77.8042 26.8836 77.0161Z" fill="#43485F" />
        <path d="M30.3387 82.1542C30.1976 82.2316 27.7801 83.1024 27.3424 86.021C26.8361 89.3967 29.4825 91.1531 29.5627 91.1995C29.5388 91.2697 28.8685 92.7457 27.5888 94.131C26.4504 95.3477 25.2713 96.5539 23.7967 96.2605C22.3221 95.9672 22.0773 94.9932 20.375 94.6546C18.7161 94.3246 17.987 95.1354 16.6382 94.8671C15.2894 94.5988 14.5427 93.115 13.6994 91.3074C12.7264 89.1882 12.1494 86.0818 12.5629 83.3248C13.2262 78.9026 16.319 77.1025 19.0167 77.6391C20.4501 77.9243 21.4969 79.1492 22.3968 79.3282C23.2534 79.4986 24.7462 78.7179 26.3769 79.0423C26.995 79.1652 29.2067 79.666 30.3387 82.1542ZM25.8836 77.0161C26.6839 76.3109 27.3356 75.2411 27.5103 74.0764C27.5346 73.9149 27.5461 73.7485 27.5377 73.611C26.4339 73.4359 25.02 73.8996 24.0892 74.7007C23.3606 75.3148 22.6091 76.3648 22.432 77.5454C22.4054 77.7228 22.4069 77.9059 22.4114 77.9653C22.4788 77.9928 22.5892 78.0311 22.7019 78.0536C23.6864 78.2494 25.0284 77.8042 25.8836 77.0161Z" fill="#5A607B" />
    </g>
    <circle cx="153.498" cy="113.422" r="44.5" fill="url(#paint24_linear_1208_57830)" />
    <circle cx="155.5" cy="113.5" r="44.5" fill="url(#paint25_linear_1208_57830)" />
    <path fill-rule="evenodd" clip-rule="evenodd" d="M156.967 136.832L144.688 126.286L151.474 118.325L170.616 134.853L156.967 136.832Z" fill="#171723" />
    <path fill-rule="evenodd" clip-rule="evenodd" d="M144.536 126.316L156.706 112.254L170.388 110.27L151.455 132.146L144.536 126.316Z" fill="#171723" fill-opacity="0.85" />
    <path fill-rule="evenodd" clip-rule="evenodd" d="M134 117.117L140.91 123.093L170.387 89.0327L156.634 91.0268L134 117.117Z" fill="#171723" />
    <path fill-rule="evenodd" clip-rule="evenodd" d="M157.967 136.832L145.688 126.286L152.474 118.325L171.616 134.853L157.967 136.832Z" fill="#02539A" />
    <path fill-rule="evenodd" clip-rule="evenodd" d="M145.536 126.316L157.706 112.254L171.388 110.27L152.455 132.146L145.536 126.316Z" fill="#45D1FD" fill-opacity="0.85" />
    <path fill-rule="evenodd" clip-rule="evenodd" d="M135 117.117L141.91 123.093L171.387 89.0327L157.634 91.0268L135 117.117Z" fill="#45D1FD" />
    <path d="M37.9132 244.945C35.1997 241.458 36.2527 237.132 40.2651 235.283L59.5058 226.412C63.5182 224.563 68.9706 225.89 71.6841 229.377L101.683 267.926C104.397 271.413 103.344 275.739 99.3312 277.589L76.458 288.134C74.4518 289.059 71.7256 288.395 70.3688 286.652L37.9132 244.945Z" fill="url(#paint26_linear_1208_57830)" />
    <rect x="0.380573" y="0.0926329" width="33.7568" height="63.446" rx="3.75" transform="matrix(0.908143 -0.41866 0.614147 0.789191 35.5308 237.521)" fill="url(#paint27_linear_1208_57830)" stroke="url(#paint28_linear_1208_57830)" stroke-width="0.5" />
    <defs>
        <filter id="filter0_d_1208_57830" x="261.469" y="95.9346" width="44.7256" height="56.6953" filterUnits="userSpaceOnUse" color-interpolation-filters="sRGB">
            <feFlood flood-opacity="0" result="BackgroundImageFix" />
            <feColorMatrix in="SourceAlpha" type="matrix" values="0 0 0 0 0 0 0 0 0 0 0 0 0 0 0 0 0 0 127 0" result="hardAlpha" />
            <feOffset dy="4" />
            <feGaussianBlur stdDeviation="2" />
            <feComposite in2="hardAlpha" operator="out" />
            <feColorMatrix type="matrix" values="0 0 0 0 0 0 0 0 0 0 0 0 0 0 0 0 0 0 0.05 0" />
            <feBlend mode="normal" in2="BackgroundImageFix" result="effect1_dropShadow_1208_57830" />
            <feBlend mode="normal" in="SourceGraphic" in2="effect1_dropShadow_1208_57830" result="shape" />
        </filter>
        <filter id="filter1_d_1208_57830" x="0.958618" y="53.1924" width="68.5964" height="74.3594" filterUnits="userSpaceOnUse" color-interpolation-filters="sRGB">
            <feFlood flood-opacity="0" result="BackgroundImageFix" />
            <feColorMatrix in="SourceAlpha" type="matrix" values="0 0 0 0 0 0 0 0 0 0 0 0 0 0 0 0 0 0 127 0" result="hardAlpha" />
            <feOffset dx="8" dy="4" />
            <feGaussianBlur stdDeviation="7.5" />
            <feComposite in2="hardAlpha" operator="out" />
            <feColorMatrix type="matrix" values="0 0 0 0 0 0 0 0 0 0 0 0 0 0 0 0 0 0 0.05 0" />
            <feBlend mode="normal" in2="BackgroundImageFix" result="effect1_dropShadow_1208_57830" />
            <feBlend mode="normal" in="SourceGraphic" in2="effect1_dropShadow_1208_57830" result="shape" />
        </filter>
        <linearGradient id="paint0_linear_1208_57830" x1="138.161" y1="228.356" x2="34.8507" y2="146.165" gradientUnits="userSpaceOnUse">
            <stop stop-color="#2D3041" stop-opacity="0.45" />
            <stop offset="1" stop-color="white" stop-opacity="0" />
        </linearGradient>
        <linearGradient id="paint1_linear_1208_57830" x1="23.5005" y1="100.5" x2="615.497" y2="286.111" gradientUnits="userSpaceOnUse">
            <stop stop-color="#333749" />
            <stop offset="0.34172" stop-color="#1F212B" />
            <stop offset="0.489488" stop-color="#3C4158" />
        </linearGradient>
        <linearGradient id="paint2_linear_1208_57830" x1="291.934" y1="84.0421" x2="-108.241" y2="692.016" gradientUnits="userSpaceOnUse">
            <stop stop-color="#282A3B" />
            <stop offset="1" stop-color="#14141F" />
        </linearGradient>
        <linearGradient id="paint3_linear_1208_57830" x1="79.8786" y1="143.145" x2="322.391" y2="44.1851" gradientUnits="userSpaceOnUse">
            <stop stop-color="#1B1B28" />
            <stop offset="1" stop-color="#4F5769" />
        </linearGradient>
        <linearGradient id="paint4_linear_1208_57830" x1="416.5" y1="-95.9995" x2="21.123" y2="235.912" gradientUnits="userSpaceOnUse">
            <stop stop-color="#373B4D" />
            <stop offset="0.851966" stop-color="#171723" stop-opacity="0.8" />
        </linearGradient>
        <radialGradient id="paint5_radial_1208_57830" cx="0" cy="0" r="1" gradientUnits="userSpaceOnUse" gradientTransform="translate(169.977 194.33) rotate(90.5277) scale(31.644 77.9233)">
            <stop stop-color="#E8E9F0" />
            <stop offset="1" stop-color="#F7F7F7" stop-opacity="0" />
        </radialGradient>
        <radialGradient id="paint6_radial_1208_57830" cx="0" cy="0" r="1" gradientUnits="userSpaceOnUse" gradientTransform="translate(177.027 201.91) rotate(90.5277) scale(32.8306 77.9233)">
            <stop stop-color="#E8E9F0" />
            <stop offset="1" stop-color="#F7F7F7" stop-opacity="0" />
        </radialGradient>
        <radialGradient id="paint7_radial_1208_57830" cx="0" cy="0" r="1" gradientUnits="userSpaceOnUse" gradientTransform="translate(183.656 212.256) rotate(90.5277) scale(32.8306 79.901)">
            <stop stop-color="#E8E9F0" />
            <stop offset="1" stop-color="#F7F7F7" stop-opacity="0" />
        </radialGradient>
        <radialGradient id="paint8_radial_1208_57830" cx="0" cy="0" r="1" gradientUnits="userSpaceOnUse" gradientTransform="translate(190.718 218.651) rotate(90.5277) scale(32.8306 79.1099)">
            <stop stop-color="#E8E9F0" />
            <stop offset="1" stop-color="#F7F7F7" stop-opacity="0" />
        </radialGradient>
        <radialGradient id="paint9_radial_1208_57830" cx="0" cy="0" r="1" gradientUnits="userSpaceOnUse" gradientTransform="translate(132.948 220.492) rotate(90.5277) scale(20.173 17.4042)">
            <stop stop-color="#E8E9F0" />
            <stop offset="1" stop-color="#F7F7F7" stop-opacity="0" />
        </radialGradient>
        <radialGradient id="paint10_radial_1208_57830" cx="0" cy="0" r="1" gradientUnits="userSpaceOnUse" gradientTransform="translate(141.708 214.243) rotate(90.5277) scale(20.173 17.4042)">
            <stop stop-color="#E8E9F0" />
            <stop offset="1" stop-color="#F7F7F7" stop-opacity="0" />
        </radialGradient>
        <radialGradient id="paint11_radial_1208_57830" cx="0" cy="0" r="1" gradientUnits="userSpaceOnUse" gradientTransform="translate(154.423 208.031) rotate(90.5277) scale(20.173 17.4042)">
            <stop stop-color="#E8E9F0" />
            <stop offset="1" stop-color="#F7F7F7" stop-opacity="0" />
        </radialGradient>
        <radialGradient id="paint12_radial_1208_57830" cx="0" cy="0" r="1" gradientUnits="userSpaceOnUse" gradientTransform="translate(166.34 202.603) rotate(90.5277) scale(20.173 17.4042)">
            <stop stop-color="#E8E9F0" />
            <stop offset="1" stop-color="#F7F7F7" stop-opacity="0" />
        </radialGradient>
        <radialGradient id="paint13_radial_1208_57830" cx="0" cy="0" r="1" gradientUnits="userSpaceOnUse" gradientTransform="translate(179.824 198.772) rotate(90.5277) scale(20.173 17.4042)">
            <stop stop-color="#E8E9F0" />
            <stop offset="1" stop-color="#F7F7F7" stop-opacity="0" />
        </radialGradient>
        <radialGradient id="paint14_radial_1208_57830" cx="0" cy="0" r="1" gradientUnits="userSpaceOnUse" gradientTransform="translate(190.167 192.538) rotate(90.5277) scale(20.173 17.4042)">
            <stop stop-color="#E8E9F0" />
            <stop offset="1" stop-color="#F7F7F7" stop-opacity="0" />
        </radialGradient>
        <radialGradient id="paint15_radial_1208_57830" cx="0" cy="0" r="1" gradientUnits="userSpaceOnUse" gradientTransform="translate(202.861 188.699) rotate(90.5277) scale(20.173 17.4042)">
            <stop stop-color="#E8E9F0" />
            <stop offset="1" stop-color="#F7F7F7" stop-opacity="0" />
        </radialGradient>
        <radialGradient id="paint16_radial_1208_57830" cx="0" cy="0" r="1" gradientUnits="userSpaceOnUse" gradientTransform="translate(221.875 185.709) rotate(90.5277) scale(20.173 17.4042)">
            <stop stop-color="#E8E9F0" />
            <stop offset="1" stop-color="#F7F7F7" stop-opacity="0" />
        </radialGradient>
        <radialGradient id="paint17_radial_1208_57830" cx="0" cy="0" r="1" gradientUnits="userSpaceOnUse" gradientTransform="translate(237.777 177.154) rotate(90.5277) scale(20.173 17.4042)">
            <stop stop-color="#E8E9F0" />
            <stop offset="1" stop-color="#F7F7F7" stop-opacity="0" />
        </radialGradient>
        <linearGradient id="paint18_linear_1208_57830" x1="125.388" y1="267.973" x2="338.823" y2="134.011" gradientUnits="userSpaceOnUse">
            <stop stop-color="#4F5469" />
            <stop offset="0.738994" stop-color="#4F5469" stop-opacity="0" />
        </linearGradient>
        <linearGradient id="paint19_linear_1208_57830" x1="176.413" y1="114.407" x2="180.115" y2="135.232" gradientUnits="userSpaceOnUse">
            <stop offset="0.186067" stop-color="white" stop-opacity="0.07" />
            <stop offset="0.312763" stop-color="white" stop-opacity="0.858597" />
            <stop offset="0.603529" stop-color="white" />
            <stop offset="1" stop-color="white" stop-opacity="0" />
        </linearGradient>
        <linearGradient id="paint20_linear_1208_57830" x1="176.413" y1="114.407" x2="180.115" y2="135.232" gradientUnits="userSpaceOnUse">
            <stop offset="0.186067" stop-color="white" stop-opacity="0.07" />
            <stop offset="0.312763" stop-color="white" stop-opacity="0.858597" />
            <stop offset="0.603529" stop-color="white" />
            <stop offset="1" stop-color="white" stop-opacity="0" />
        </linearGradient>
        <linearGradient id="paint21_linear_1208_57830" x1="158.42" y1="113.157" x2="161.816" y2="85.1437" gradientUnits="userSpaceOnUse">
            <stop stop-color="#798196" stop-opacity="0.53" />
            <stop offset="1" stop-color="#798196" stop-opacity="0" />
        </linearGradient>
        <linearGradient id="paint22_linear_1208_57830" x1="18.3575" y1="0" x2="18.3575" y2="48.2182" gradientUnits="userSpaceOnUse">
            <stop stop-color="#424254" />
            <stop offset="1" stop-color="#3B3B55" stop-opacity="0.33" />
        </linearGradient>
        <linearGradient id="paint23_linear_1208_57830" x1="-31.4299" y1="-5.38633" x2="95.5878" y2="14.7331" gradientUnits="userSpaceOnUse">
            <stop stop-color="#1D1E2B" />
            <stop offset="1" stop-color="#2B2D3D" />
        </linearGradient>
        <linearGradient id="paint24_linear_1208_57830" x1="114" y1="108" x2="193.781" y2="170.733" gradientUnits="userSpaceOnUse">
            <stop stop-color="#171723" />
            <stop offset="0.940675" stop-color="#171723" stop-opacity="0" />
        </linearGradient>
        <linearGradient id="paint25_linear_1208_57830" x1="45.498" y1="47.4214" x2="334.998" y2="252.921" gradientUnits="userSpaceOnUse">
            <stop stop-color="#45495C" />
            <stop offset="1" stop-color="#171723" />
        </linearGradient>
        <linearGradient id="paint26_linear_1208_57830" x1="72" y1="292.5" x2="103.799" y2="168.327" gradientUnits="userSpaceOnUse">
            <stop stop-color="#424659" />
            <stop offset="1" stop-color="#272839" />
        </linearGradient>
        <linearGradient id="paint27_linear_1208_57830" x1="-20.5779" y1="-29.0892" x2="48.668" y2="110.752" gradientUnits="userSpaceOnUse">
            <stop stop-color="#373B4D" />
            <stop offset="1" stop-color="#171723" stop-opacity="0.8" />
        </linearGradient>
        <linearGradient id="paint28_linear_1208_57830" x1="4.81289" y1="-8.01685" x2="34.0683" y2="76.9259" gradientUnits="userSpaceOnUse">
            <stop stop-color="#686982" />
            <stop offset="1" stop-color="#686982" stop-opacity="0" />
        </linearGradient>
    </defs>
</svg>
