<svg width="307" height="290" viewBox="0 0 307 290" fill="none" xmlns="http://www.w3.org/2000/svg">
    <path d="M11.6703 157.099L64.2175 201.573L215.821 130.155L65.7017 42.5022L11.6703 157.099Z" fill="url(#paint0_linear_1208_54246)" />
    <path d="M63.3383 200.647L53.7233 84.1214C53.2122 77.9284 57.1555 72.2397 63.1341 70.5451L226.762 24.1652C227.101 24.0689 227.46 24.0642 227.803 24.1517L230.954 24.9575L236.442 140.02L298.955 196.437C301.129 198.398 300.528 201.953 297.831 203.091L126.064 275.588C124.404 276.288 122.48 275.792 121.366 274.376L63.3383 200.647Z" fill="url(#paint1_linear_1208_54246)" />
    <path d="M125.229 269.654L67.3416 198.372L235.847 140.02L301.248 196.873L285.031 203.598L266.44 210.717L198.801 239.988L125.229 269.654Z" fill="url(#paint2_linear_1208_54246)" />
    <path d="M121.7 253.916L87.2108 210.591L241.524 153.364L279.874 184.741C282.212 186.653 281.668 190.367 278.881 191.529L126.369 255.117C124.719 255.805 122.813 255.314 121.7 253.916Z" fill="white" />
    <path d="M67.4785 198.456L58.7995 83.1764C58.4055 77.9432 61.7633 73.1604 66.8192 71.7533L228.753 26.6874C230.011 26.3372 231.262 27.2677 231.288 28.5737L233.609 143.079L67.4785 198.456Z" fill="url(#paint3_linear_1208_54246)" />
    <path d="M71.4337 197.665L64.4882 81.7803C64.3771 79.9258 65.5574 78.2389 67.3376 77.7079L226.558 30.2113C227.786 29.8453 229.036 30.7106 229.125 31.988L236.774 141.101L71.4337 197.665Z" fill="url(#paint4_linear_1208_54246)" />
    <path d="M91.7657 225.351L248.189 163.501" stroke="url(#paint5_radial_1208_54246)" />
    <path d="M98.8047 234.117L255.249 169.894" stroke="url(#paint6_radial_1208_54246)" />
    <path d="M103.456 244.445L263.856 180.258" stroke="url(#paint7_radial_1208_54246)" />
    <path d="M111.309 250.847L270.127 186.646" stroke="url(#paint8_radial_1208_54246)" />
    <path d="M115.73 200.255L150.165 240.92" stroke="url(#paint9_radial_1208_54246)" />
    <path d="M124.49 194.006L158.926 234.671" stroke="url(#paint10_radial_1208_54246)" />
    <path d="M137.205 187.794L171.641 228.459" stroke="url(#paint11_radial_1208_54246)" />
    <path d="M149.122 182.366L183.558 223.031" stroke="url(#paint12_radial_1208_54246)" />
    <path d="M162.607 178.535L197.042 219.2" stroke="url(#paint13_radial_1208_54246)" />
    <path d="M172.95 172.301L207.385 212.966" stroke="url(#paint14_radial_1208_54246)" />
    <path d="M185.643 168.462L220.079 209.127" stroke="url(#paint15_radial_1208_54246)" />
    <path d="M204.658 165.473L221.875 185.805L239.093 206.138" stroke="url(#paint16_radial_1208_54246)" />
    <path d="M220.559 156.917L237.777 177.249L254.995 197.582" stroke="url(#paint17_radial_1208_54246)" />
    <path d="M87.3514 215.044L87.3514 210.578L121.977 251.592C123.659 253.585 126.437 254.263 128.848 253.269L279.102 191.336L279.278 194.806L127.47 257.241C125.46 258.068 123.146 257.502 121.746 255.84L87.3514 215.044Z" fill="url(#paint18_linear_1208_54246)" />
    <path d="M205.566 37.6277C204.639 38.6465 204.719 40.2258 205.744 41.1458L207.631 42.8385C208.671 43.7713 210.281 43.636 211.151 42.5429V42.5429C211.925 41.5694 211.838 40.1681 210.949 39.2981L209.138 37.525C208.133 36.5415 206.513 36.5882 205.566 37.6277V37.6277Z" fill="url(#paint19_linear_1208_54246)" fill-opacity="0.4" />
    <path d="M296.889 112.254C298.402 113.055 299.512 113.824 300.188 114.553L299.821 114.893C300.349 115.462 300.502 115.911 300.46 116.259C300.418 116.607 300.162 117.007 299.513 117.434L299.788 117.851C298.957 118.398 297.696 118.879 296.035 119.295L295.914 118.81C294.806 119.087 293.511 119.337 292.035 119.558L292.109 120.053C290.902 120.234 289.579 120.396 288.146 120.538L288.096 120.04C286.852 120.164 285.522 120.272 284.111 120.367L284.144 120.866C282.869 120.951 281.529 121.024 280.125 121.085L280.103 120.586C278.819 120.642 277.482 120.688 276.094 120.724L276.107 121.224C274.814 121.257 273.476 121.282 272.096 121.299L272.09 120.799C270.794 120.814 269.46 120.822 268.09 120.822L268.09 121.322C266.788 121.323 265.454 121.316 264.087 121.303L264.092 120.803C262.788 120.79 261.454 120.771 260.093 120.746L260.083 121.246C258.773 121.222 257.436 121.192 256.075 121.157L256.088 120.657C254.774 120.622 253.436 120.583 252.076 120.538L252.059 121.038C250.739 120.994 249.397 120.945 248.034 120.892L248.054 120.392C246.742 120.341 245.411 120.284 244.061 120.224L244.039 120.723C242.723 120.664 241.39 120.6 240.04 120.532L240.065 120.033C238.744 119.966 237.407 119.896 236.054 119.821L236.026 120.32C234.703 120.247 233.365 120.17 232.012 120.089L232.042 119.59C230.727 119.511 229.398 119.428 228.055 119.342L228.023 119.841C226.7 119.756 225.364 119.667 224.016 119.575L224.05 119.076C222.726 118.985 221.389 118.891 220.041 118.793L220.005 119.292C218.687 119.196 217.358 119.097 216.018 118.995L216.056 118.497C214.731 118.396 213.396 118.291 212.051 118.184L212.011 118.682C210.688 118.577 209.355 118.468 208.013 118.356L208.055 117.857C206.734 117.747 205.404 117.634 204.066 117.518L204.022 118.016C202.694 117.901 201.357 117.782 200.011 117.661L200.056 117.163C198.738 117.044 197.411 116.922 196.077 116.798L196.031 117.296C194.706 117.172 193.373 117.045 192.032 116.916L192.08 116.418C190.757 116.291 189.427 116.16 188.09 116.027L188.04 116.525C186.718 116.393 185.388 116.259 184.053 116.122L184.104 115.624C182.777 115.488 181.444 115.349 180.105 115.208L180.053 115.705C178.733 115.566 177.406 115.424 176.075 115.279L176.129 114.782C174.802 114.639 173.47 114.492 172.133 114.343L172.077 114.84C170.757 114.693 169.431 114.543 168.1 114.391L168.157 113.895C166.832 113.743 165.503 113.59 164.169 113.434L164.11 113.93C162.788 113.775 161.461 113.618 160.129 113.459L160.189 112.962C159.523 112.883 158.857 112.802 158.189 112.721C157.522 112.64 156.856 112.559 156.19 112.478L156.13 112.974C154.799 112.811 153.472 112.646 152.151 112.48L152.213 111.984C150.881 111.817 149.553 111.649 148.231 111.479L148.167 111.975C146.838 111.805 145.515 111.633 144.198 111.46L144.263 110.965C142.928 110.79 141.6 110.614 140.277 110.436L140.211 110.932C138.883 110.754 137.562 110.575 136.246 110.395L136.314 109.899C134.98 109.717 133.653 109.533 132.332 109.348L132.263 109.843C130.933 109.657 129.61 109.47 128.295 109.282L128.365 108.787C127.035 108.597 125.712 108.406 124.397 108.213L124.325 108.708C122.992 108.513 121.668 108.318 120.351 108.121L120.425 107.627C119.1 107.429 117.783 107.23 116.474 107.031L116.399 107.525C115.063 107.321 113.737 107.117 112.419 106.911L112.496 106.417C111.168 106.21 109.85 106.002 108.541 105.794L108.462 106.288C107.133 106.076 105.812 105.863 104.503 105.649L104.583 105.156C103.251 104.939 101.929 104.721 100.619 104.503L100.537 104.996C99.2113 104.775 97.8972 104.553 96.5946 104.331L96.6787 103.838C95.3462 103.611 94.0259 103.383 92.7181 103.155L92.6321 103.647C91.3007 103.415 89.9823 103.182 88.6773 102.948L88.7653 102.456C87.4413 102.219 86.1311 101.982 84.8351 101.744L84.745 102.236C83.4119 101.992 82.094 101.747 80.7916 101.502L80.8841 101.01C79.5524 100.76 78.2371 100.509 76.9386 100.258L76.8437 100.749C75.5164 100.492 74.2067 100.235 72.9151 99.9786L73.0126 99.4882C71.6875 99.2247 70.3816 98.9612 69.0953 98.6979L68.995 99.1877C67.6591 98.9141 66.3444 98.6407 65.0516 98.3675L65.155 97.8783C63.8233 97.5968 62.5149 97.3157 61.2306 97.035L61.1238 97.5235C59.7932 97.2327 58.4884 96.9423 57.2101 96.6526L57.3206 96.165C55.9924 95.864 54.693 95.5637 53.4232 95.2644L53.3085 95.751C51.9785 95.4374 50.6809 95.1249 49.4168 94.8135L49.5364 94.328C48.206 94.0003 46.9128 93.6741 45.6582 93.3494L45.533 93.8335C44.1967 93.4877 42.9038 93.1438 41.6559 92.8021L41.7879 92.3198C40.4484 91.953 39.1612 91.5889 37.9279 91.2277L37.7874 91.7075C36.4391 91.3127 35.1548 90.9213 33.9369 90.5339L34.0884 90.0575C32.7409 89.6289 31.4759 89.2055 30.2966 88.7882L30.1298 89.2596C28.7721 88.7791 27.526 88.306 26.3967 87.8416L26.5869 87.3792C25.2073 86.8118 24.0093 86.2597 22.9998 85.7255L22.7659 86.1674C21.2526 85.3665 20.1431 84.5982 19.4667 83.8692L19.8332 83.5291C19.3052 82.9599 19.1527 82.5106 19.1949 82.1626C19.237 81.8147 19.4925 81.4148 20.1413 80.9883L19.8666 80.5705C20.6976 80.0242 21.9586 79.5433 23.6194 79.1271L23.7409 79.6121C24.8488 79.3346 26.144 79.0848 27.6193 78.8635L27.5451 78.369C28.7527 78.1878 30.0756 78.0262 31.5089 77.8841L31.5582 78.3817C32.8031 78.2582 34.1326 78.1494 35.5435 78.0552L35.5102 77.5563C36.7853 77.4712 38.126 77.398 39.5296 77.3367L39.5514 77.8363C40.8352 77.7802 42.1722 77.7342 43.5605 77.698L43.5475 77.1982C44.8409 77.1646 46.1785 77.1395 47.5588 77.1231L47.5647 77.623C48.8606 77.6076 50.1942 77.5997 51.5644 77.5994L51.5643 77.0994C52.8662 77.0992 54.2008 77.1057 55.5672 77.119L55.5624 77.619C56.8668 77.6317 58.2004 77.6506 59.562 77.6756L59.5712 77.1757C60.8817 77.1999 62.2182 77.2297 63.5797 77.2653L63.5666 77.7651C64.8808 77.7994 66.2185 77.839 67.5789 77.8839L67.5954 77.3842C68.916 77.4278 70.258 77.4764 71.6205 77.53L71.6009 78.0296C72.9128 78.0812 74.2439 78.1374 75.5935 78.1982L75.616 77.6987C76.9316 77.7579 78.2647 77.8215 79.6149 77.8895L79.5897 78.3889C80.9106 78.4554 82.2477 78.5261 83.6007 78.6009L83.6283 78.1016C84.9515 78.1748 86.2898 78.252 87.6427 78.3331L87.6127 78.8322C88.9279 78.9111 90.2569 78.9937 91.5992 79.0801L91.6313 78.5811C92.9542 78.6662 94.2901 78.755 95.6385 78.8473L95.6043 79.3461C96.9288 79.4369 98.2654 79.5311 99.6135 79.6288L99.6497 79.1301C100.968 79.2256 102.297 79.3245 103.636 79.4266L103.598 79.9252C104.923 80.0262 106.258 80.1305 107.604 80.238L107.644 79.7396C108.966 79.8453 110.299 79.9542 111.641 80.0661L111.6 80.5644C112.92 80.6746 114.25 80.7878 115.589 80.904L115.632 80.4059C116.961 80.5213 118.298 80.6396 119.644 80.7609L119.599 81.2589C120.917 81.3778 122.243 81.4995 123.577 81.624L123.624 81.1262C124.949 81.2499 126.282 81.3764 127.622 81.5058L127.574 82.0035C128.897 82.1311 130.228 82.2616 131.565 82.3947L131.614 81.8972C132.937 82.0289 134.266 82.1632 135.602 82.3003L135.551 82.7977C136.877 82.9338 138.21 83.0725 139.549 83.2138L139.602 82.7166C140.922 82.856 142.248 82.9979 143.58 83.1423L143.526 83.6394C144.852 83.7833 146.185 83.9297 147.522 84.0787L147.577 83.5817C148.898 83.7288 150.224 83.8784 151.555 84.0303L151.498 84.5271C152.823 84.6784 154.152 84.8321 155.486 84.9882L155.544 84.4916C156.867 84.6464 158.194 84.8036 159.525 84.9631L159.466 85.4595C160.131 85.5393 160.798 85.6196 161.465 85.7005C162.133 85.7814 162.799 85.8627 163.464 85.9443L163.525 85.448C164.856 85.6112 166.182 85.7757 167.503 85.9414L167.441 86.4375C168.774 86.6046 170.102 86.7731 171.424 86.9427L171.488 86.4467C172.816 86.6171 174.139 86.7887 175.457 86.9615L175.392 87.4572C176.726 87.6322 178.055 87.8083 179.377 87.9855L179.444 87.49C180.771 87.6679 182.093 87.8469 183.408 88.0271L183.34 88.5224C184.674 88.7051 186.002 88.8889 187.323 89.0737L187.392 88.5786C188.721 88.7646 190.044 88.9518 191.36 89.1399L191.289 89.6349C192.619 89.8251 193.942 90.0163 195.258 90.2085L195.33 89.7137C196.662 89.9083 197.987 90.104 199.303 90.3005L199.23 90.795C200.555 90.9928 201.872 91.1916 203.18 91.3911L203.256 90.8969C204.591 91.1006 205.918 91.3052 207.236 91.5106L207.159 92.0046C208.486 92.2116 209.805 92.4195 211.113 92.628L211.192 92.1343C212.522 92.3462 213.842 92.5589 215.152 92.7724L215.072 93.2659C216.404 93.4829 217.725 93.7007 219.036 93.9192L219.118 93.426C220.443 93.6469 221.757 93.8685 223.06 94.0906L222.976 94.5835C224.308 94.8108 225.629 95.0386 226.937 95.267L227.023 94.7744C228.354 95.0069 229.672 95.24 230.977 95.4734L230.889 95.9656C232.213 96.2025 233.524 96.4398 234.819 96.6775L234.91 96.1857C236.243 96.4301 237.561 96.675 238.863 96.9201L238.771 97.4115C240.102 97.6621 241.418 97.913 242.716 98.164L242.811 97.6731C244.138 97.9297 245.448 98.1864 246.74 98.4432L246.642 98.9336C247.967 99.1971 249.273 99.4606 250.559 99.724L250.66 99.2341C251.995 99.5077 253.31 99.7812 254.603 100.054L254.5 100.544C255.831 100.825 257.14 101.106 258.424 101.387L258.531 100.898C259.861 101.189 261.166 101.48 262.445 101.769L262.334 102.257C263.662 102.558 264.962 102.858 266.231 103.157L266.346 102.671C267.676 102.984 268.974 103.297 270.238 103.608L270.118 104.094C271.449 104.421 272.742 104.748 273.996 105.072L274.122 104.588C275.458 104.934 276.751 105.278 277.999 105.62L277.867 106.102C279.206 106.469 280.493 106.833 281.727 107.194L281.867 106.714C283.215 107.109 284.5 107.501 285.718 107.888L285.566 108.364C286.914 108.793 288.179 109.216 289.358 109.634L289.525 109.162C290.883 109.643 292.129 110.116 293.258 110.58L293.068 111.043C294.447 111.61 295.645 112.162 296.655 112.696L296.889 112.254Z" stroke="url(#paint20_linear_1208_54246)" stroke-dasharray="4 4" />
    <g opacity="0.9">
        <g filter="url(#filter0_d_1208_54246)">
            <ellipse rx="18.3575" ry="24.1091" transform="matrix(0.977376 0.227267 -0.161319 0.994776 283.831 120.378)" fill="url(#paint21_linear_1208_54246)" />
        </g>
        <ellipse rx="16.5001" ry="24.1091" transform="matrix(0.977376 0.227267 -0.161319 0.994776 286.19 119.829)" fill="url(#paint22_linear_1208_54246)" />
        <path d="M282.405 124.871C283.082 124.782 283.652 125.354 283.678 126.15L283.882 132.329C283.909 133.124 283.381 133.841 282.704 133.93C282.028 134.019 281.458 133.447 281.431 132.651L281.228 126.473C281.201 125.677 281.729 124.96 282.405 124.871L282.405 124.871Z" fill="url(#paint23_linear_1208_54246)" />
        <path d="M279.311 117.834C279.308 117.89 279.306 117.947 279.307 118.003L279.621 127.517C279.655 128.541 280.478 129.26 281.466 129.13L290.97 127.879C291.958 127.749 292.727 126.82 292.693 125.797L292.379 116.282C292.377 116.226 292.373 116.17 292.367 116.115L279.311 117.834Z" fill="url(#paint24_linear_1208_54246)" />
        <path d="M288.89 123.851C289.678 123.747 290.339 124.319 290.366 125.129L290.574 131.421C290.6 132.231 289.983 132.972 289.194 133.075C288.405 133.179 287.745 132.607 287.718 131.797L287.51 125.505C287.483 124.696 288.101 123.955 288.89 123.851L288.89 123.851ZM276.663 118.716C277.451 118.612 278.112 119.184 278.139 119.994L278.347 126.286C278.373 127.096 277.756 127.837 276.967 127.94C276.179 128.044 275.518 127.472 275.491 126.662L275.283 120.37C275.256 119.56 275.874 118.819 276.663 118.716ZM294.231 116.403C295.02 116.299 295.681 116.871 295.707 117.681L295.915 123.973C295.942 124.783 295.324 125.524 294.536 125.627C293.747 125.731 293.086 125.159 293.059 124.349L292.852 118.057C292.825 117.247 293.442 116.506 294.231 116.403V116.403ZM278.959 116.932C278.902 113.999 281.311 111.271 284.494 110.534L285.929 110.345C289.134 110.241 291.701 112.314 291.837 115.237L278.959 116.932Z" fill="url(#paint25_linear_1208_54246)" />
        <path d="M279.085 111.246L280.719 113.512M291.339 109.633L289.867 112.308" stroke="url(#paint26_linear_1208_54246)" stroke-linecap="round" stroke-linejoin="round" />
        <path d="M283.199 114.014C283.215 114.467 282.88 114.881 282.451 114.939C282.022 114.997 281.661 114.676 281.645 114.223L281.645 114.218C281.629 113.765 281.963 113.35 282.392 113.293C282.821 113.235 283.182 113.555 283.199 114.009L283.199 114.014ZM288.998 113.25C289.014 113.703 288.679 114.118 288.25 114.176C287.821 114.233 287.46 113.913 287.444 113.459L287.444 113.455C287.428 113.001 287.762 112.587 288.191 112.529C288.62 112.471 288.981 112.792 288.997 113.246L288.998 113.25Z" fill="white" />
        <path d="M283.405 124.871C284.082 124.782 284.652 125.354 284.678 126.15L284.882 132.329C284.909 133.124 284.381 133.841 283.704 133.93C283.028 134.019 282.458 133.447 282.431 132.651L282.228 126.473C282.201 125.677 282.729 124.96 283.405 124.871L283.405 124.871Z" fill="#C5C7D8" />
        <path d="M280.311 117.834C280.308 117.89 280.306 117.947 280.307 118.003L280.621 127.517C280.655 128.541 281.478 129.26 282.466 129.13L291.97 127.879C292.958 127.749 293.727 126.82 293.693 125.797L293.379 116.282C293.377 116.226 293.373 116.17 293.367 116.115L280.311 117.834Z" fill="#C5C7D8" />
        <path d="M289.89 123.851C290.678 123.747 291.339 124.319 291.366 125.129L291.574 131.421C291.6 132.231 290.983 132.972 290.194 133.075C289.405 133.179 288.745 132.607 288.718 131.797L288.51 125.505C288.483 124.696 289.101 123.955 289.89 123.851L289.89 123.851ZM277.663 118.716C278.451 118.612 279.112 119.184 279.139 119.994L279.347 126.286C279.373 127.096 278.756 127.837 277.967 127.94C277.179 128.044 276.518 127.472 276.491 126.662L276.283 120.37C276.256 119.56 276.874 118.819 277.663 118.716ZM295.231 116.403C296.02 116.299 296.681 116.871 296.707 117.681L296.915 123.973C296.942 124.783 296.324 125.524 295.536 125.627C294.747 125.731 294.086 125.159 294.059 124.349L293.852 118.057C293.825 117.247 294.442 116.506 295.231 116.403V116.403ZM279.959 116.932C279.902 113.999 282.311 111.271 285.494 110.534L286.929 110.345C290.134 110.241 292.701 112.314 292.837 115.237L279.959 116.932Z" fill="#C5C7D8" />
        <path d="M280.085 111.246L281.719 113.512M292.339 109.633L290.867 112.308" stroke="#C5C7D8" stroke-linecap="round" stroke-linejoin="round" />
        <path d="M284.199 114.014C284.215 114.467 283.88 114.881 283.451 114.939C283.022 114.997 282.661 114.676 282.645 114.223L282.645 114.218C282.629 113.765 282.963 113.35 283.392 113.293C283.821 113.235 284.182 113.555 284.199 114.009L284.199 114.014ZM289.998 113.25C290.014 113.703 289.679 114.118 289.25 114.176C288.821 114.233 288.46 113.913 288.444 113.459L288.444 113.455C288.428 113.001 288.762 112.587 289.191 112.529C289.62 112.471 289.981 112.792 289.997 113.246L289.998 113.25Z" fill="white" />
    </g>
    <circle cx="153.498" cy="113.518" r="44.5" fill="url(#paint27_linear_1208_54246)" />
    <circle cx="155.501" cy="113.675" r="44.5" fill="url(#paint28_linear_1208_54246)" />
    <path fill-rule="evenodd" clip-rule="evenodd" d="M156.967 136.927L144.688 126.381L151.474 118.42L170.616 134.948L156.967 136.927Z" fill="#B7B8BE" />
    <path fill-rule="evenodd" clip-rule="evenodd" d="M144.536 126.412L156.706 112.35L170.388 110.366L151.455 132.242L144.536 126.412Z" fill="#B7B8BE" fill-opacity="0.85" />
    <path fill-rule="evenodd" clip-rule="evenodd" d="M134 117.213L140.91 123.188L170.387 89.1284L156.634 91.1225L134 117.213Z" fill="#B7B8BE" />
    <path fill-rule="evenodd" clip-rule="evenodd" d="M157.967 136.927L145.688 126.381L152.474 118.42L171.616 134.948L157.967 136.927Z" fill="#02539A" />
    <path fill-rule="evenodd" clip-rule="evenodd" d="M145.536 126.412L157.706 112.35L171.388 110.366L152.455 132.242L145.536 126.412Z" fill="#45D1FD" fill-opacity="0.85" />
    <path fill-rule="evenodd" clip-rule="evenodd" d="M135 117.213L141.91 123.188L171.387 89.1284L157.634 91.1225L135 117.213Z" fill="#45D1FD" />
    <g opacity="0.8">
        <g filter="url(#filter1_d_1208_54246)">
            <ellipse rx="19.5" ry="22" transform="matrix(0.989651 0.143493 0 1 27.2568 86.469)" fill="#E1E2EB" />
        </g>
        <ellipse rx="19.5" ry="21.5" transform="matrix(0.989651 0.143493 0 1 23.2982 85.3948)" fill="#F7F7FD" />
        <path d="M31.3387 82.2499C31.1976 82.3273 28.7801 83.1981 28.3424 86.1167C27.8361 89.4924 30.4825 91.2488 30.5627 91.2952C30.5388 91.3654 29.8685 92.8414 28.5888 94.2267C27.4504 95.4434 26.2713 96.6496 24.7967 96.3562C23.3221 96.0629 23.0773 95.0889 21.375 94.7503C19.7161 94.4203 18.987 95.2311 17.6382 94.9628C16.2894 94.6945 15.5427 93.2107 14.6994 91.4031C13.7264 89.2839 13.1494 86.1775 13.5629 83.4205C14.2262 78.9983 17.319 77.1982 20.0167 77.7348C21.4501 78.02 22.4969 79.2449 23.3968 79.4239C24.2534 79.5943 25.7462 78.8136 27.3769 79.138C27.995 79.2609 30.2067 79.7617 31.3387 82.2499ZM26.8836 77.1118C27.6839 76.4066 28.3356 75.3368 28.5103 74.1721C28.5346 74.0106 28.5461 73.8442 28.5377 73.7067C27.4339 73.5316 26.02 73.9953 25.0892 74.7964C24.3606 75.4105 23.6091 76.4605 23.432 77.6411C23.4054 77.8185 23.4069 78.0016 23.4114 78.061C23.4788 78.0885 23.5892 78.1268 23.7019 78.1493C24.6864 78.3451 26.0284 77.8999 26.8836 77.1118Z" fill="url(#paint29_linear_1208_54246)" />
        <path d="M30.3387 82.2499C30.1976 82.3273 27.7801 83.1981 27.3424 86.1167C26.8361 89.4924 29.4825 91.2488 29.5627 91.2952C29.5388 91.3654 28.8685 92.8414 27.5888 94.2267C26.4504 95.4434 25.2713 96.6496 23.7967 96.3562C22.3221 96.0629 22.0773 95.0889 20.375 94.7503C18.7161 94.4203 17.987 95.2311 16.6382 94.9628C15.2894 94.6945 14.5427 93.2107 13.6994 91.4031C12.7264 89.2839 12.1494 86.1775 12.5629 83.4205C13.2262 78.9983 16.319 77.1982 19.0167 77.7348C20.4501 78.02 21.4969 79.2449 22.3968 79.4239C23.2534 79.5943 24.7462 78.8136 26.3769 79.138C26.995 79.2609 29.2067 79.7617 30.3387 82.2499ZM25.8836 77.1118C26.6839 76.4066 27.3356 75.3368 27.5103 74.1721C27.5346 74.0106 27.5461 73.8442 27.5377 73.7067C26.4339 73.5316 25.02 73.9953 24.0892 74.7964C23.3606 75.4105 22.6091 76.4605 22.432 77.6411C22.4054 77.8185 22.4069 78.0016 22.4114 78.061C22.4788 78.0885 22.5892 78.1268 22.7019 78.1493C23.6864 78.3451 25.0284 77.8999 25.8836 77.1118Z" fill="url(#paint30_linear_1208_54246)" />
    </g>
    <path d="M37.9132 245.041C35.1997 241.554 36.2527 237.228 40.2651 235.378L59.5058 226.508C63.5182 224.658 68.9706 225.986 71.6841 229.472L101.683 268.022C104.397 271.509 103.344 275.835 99.3312 277.685L76.458 288.229C74.4518 289.154 71.7256 288.491 70.3688 286.747L37.9132 245.041Z" fill="url(#paint31_linear_1208_54246)" />
    <rect x="0.380573" y="0.0926329" width="33.7568" height="63.446" rx="3.75" transform="matrix(0.908143 -0.41866 0.614147 0.789191 35.5308 237.616)" fill="url(#paint32_linear_1208_54246)" stroke="url(#paint33_linear_1208_54246)" stroke-width="0.5" />
    <defs>
        <filter id="filter0_d_1208_54246" x="261.469" y="96.0303" width="44.7255" height="56.6953" filterUnits="userSpaceOnUse" color-interpolation-filters="sRGB">
            <feFlood flood-opacity="0" result="BackgroundImageFix" />
            <feColorMatrix in="SourceAlpha" type="matrix" values="0 0 0 0 0 0 0 0 0 0 0 0 0 0 0 0 0 0 127 0" result="hardAlpha" />
            <feOffset dy="4" />
            <feGaussianBlur stdDeviation="2" />
            <feComposite in2="hardAlpha" operator="out" />
            <feColorMatrix type="matrix" values="0 0 0 0 0 0 0 0 0 0 0 0 0 0 0 0 0 0 0.05 0" />
            <feBlend mode="normal" in2="BackgroundImageFix" result="effect1_dropShadow_1208_54246" />
            <feBlend mode="normal" in="SourceGraphic" in2="effect1_dropShadow_1208_54246" result="shape" />
        </filter>
        <filter id="filter1_d_1208_54246" x="0.958618" y="53.2891" width="68.5964" height="74.3594" filterUnits="userSpaceOnUse" color-interpolation-filters="sRGB">
            <feFlood flood-opacity="0" result="BackgroundImageFix" />
            <feColorMatrix in="SourceAlpha" type="matrix" values="0 0 0 0 0 0 0 0 0 0 0 0 0 0 0 0 0 0 127 0" result="hardAlpha" />
            <feOffset dx="8" dy="4" />
            <feGaussianBlur stdDeviation="7.5" />
            <feComposite in2="hardAlpha" operator="out" />
            <feColorMatrix type="matrix" values="0 0 0 0 0 0 0 0 0 0 0 0 0 0 0 0 0 0 0.05 0" />
            <feBlend mode="normal" in2="BackgroundImageFix" result="effect1_dropShadow_1208_54246" />
            <feBlend mode="normal" in="SourceGraphic" in2="effect1_dropShadow_1208_54246" result="shape" />
        </filter>
        <linearGradient id="paint0_linear_1208_54246" x1="138.161" y1="228.452" x2="34.8507" y2="146.261" gradientUnits="userSpaceOnUse">
            <stop stop-color="#798196" />
            <stop offset="1" stop-color="white" stop-opacity="0" />
        </linearGradient>
        <linearGradient id="paint1_linear_1208_54246" x1="17.2332" y1="267.535" x2="615.497" y2="286.207" gradientUnits="userSpaceOnUse">
            <stop stop-color="#C4C6D7" />
            <stop offset="0.34172" stop-color="#E8E8F1" />
            <stop offset="1" stop-color="#FCFCFF" />
        </linearGradient>
        <linearGradient id="paint2_linear_1208_54246" x1="291.934" y1="84.1378" x2="-108.241" y2="692.112" gradientUnits="userSpaceOnUse">
            <stop stop-color="#FAFAFF" />
            <stop offset="1" stop-color="#FAFAFF" stop-opacity="0" />
        </linearGradient>
        <linearGradient id="paint3_linear_1208_54246" x1="79.8785" y1="143.24" x2="381.993" y2="143.302" gradientUnits="userSpaceOnUse">
            <stop stop-color="#E8E8F1" />
            <stop offset="1" stop-color="#FCFCFF" />
        </linearGradient>
        <linearGradient id="paint4_linear_1208_54246" x1="384.395" y1="-113.461" x2="135.163" y2="137.193" gradientUnits="userSpaceOnUse">
            <stop stop-color="#E8E8F1" />
            <stop offset="1" stop-color="#FCFCFF" />
        </linearGradient>
        <radialGradient id="paint5_radial_1208_54246" cx="0" cy="0" r="1" gradientUnits="userSpaceOnUse" gradientTransform="translate(169.977 194.426) rotate(90.5277) scale(31.644 77.9233)">
            <stop stop-color="#E8E9F0" />
            <stop offset="1" stop-color="#F7F7F7" stop-opacity="0" />
        </radialGradient>
        <radialGradient id="paint6_radial_1208_54246" cx="0" cy="0" r="1" gradientUnits="userSpaceOnUse" gradientTransform="translate(177.027 202.006) rotate(90.5277) scale(32.8306 77.9233)">
            <stop stop-color="#E8E9F0" />
            <stop offset="1" stop-color="#F7F7F7" stop-opacity="0" />
        </radialGradient>
        <radialGradient id="paint7_radial_1208_54246" cx="0" cy="0" r="1" gradientUnits="userSpaceOnUse" gradientTransform="translate(183.656 212.351) rotate(90.5277) scale(32.8306 79.901)">
            <stop stop-color="#E8E9F0" />
            <stop offset="1" stop-color="#F7F7F7" stop-opacity="0" />
        </radialGradient>
        <radialGradient id="paint8_radial_1208_54246" cx="0" cy="0" r="1" gradientUnits="userSpaceOnUse" gradientTransform="translate(190.718 218.746) rotate(90.5277) scale(32.8306 79.1099)">
            <stop stop-color="#E8E9F0" />
            <stop offset="1" stop-color="#F7F7F7" stop-opacity="0" />
        </radialGradient>
        <radialGradient id="paint9_radial_1208_54246" cx="0" cy="0" r="1" gradientUnits="userSpaceOnUse" gradientTransform="translate(132.948 220.587) rotate(90.5277) scale(20.173 17.4042)">
            <stop stop-color="#E8E9F0" />
            <stop offset="1" stop-color="#F7F7F7" stop-opacity="0" />
        </radialGradient>
        <radialGradient id="paint10_radial_1208_54246" cx="0" cy="0" r="1" gradientUnits="userSpaceOnUse" gradientTransform="translate(141.708 214.338) rotate(90.5277) scale(20.173 17.4042)">
            <stop stop-color="#E8E9F0" />
            <stop offset="1" stop-color="#F7F7F7" stop-opacity="0" />
        </radialGradient>
        <radialGradient id="paint11_radial_1208_54246" cx="0" cy="0" r="1" gradientUnits="userSpaceOnUse" gradientTransform="translate(154.423 208.126) rotate(90.5277) scale(20.173 17.4042)">
            <stop stop-color="#E8E9F0" />
            <stop offset="1" stop-color="#F7F7F7" stop-opacity="0" />
        </radialGradient>
        <radialGradient id="paint12_radial_1208_54246" cx="0" cy="0" r="1" gradientUnits="userSpaceOnUse" gradientTransform="translate(166.34 202.699) rotate(90.5277) scale(20.173 17.4042)">
            <stop stop-color="#E8E9F0" />
            <stop offset="1" stop-color="#F7F7F7" stop-opacity="0" />
        </radialGradient>
        <radialGradient id="paint13_radial_1208_54246" cx="0" cy="0" r="1" gradientUnits="userSpaceOnUse" gradientTransform="translate(179.824 198.868) rotate(90.5277) scale(20.173 17.4042)">
            <stop stop-color="#E8E9F0" />
            <stop offset="1" stop-color="#F7F7F7" stop-opacity="0" />
        </radialGradient>
        <radialGradient id="paint14_radial_1208_54246" cx="0" cy="0" r="1" gradientUnits="userSpaceOnUse" gradientTransform="translate(190.167 192.633) rotate(90.5277) scale(20.173 17.4042)">
            <stop stop-color="#E8E9F0" />
            <stop offset="1" stop-color="#F7F7F7" stop-opacity="0" />
        </radialGradient>
        <radialGradient id="paint15_radial_1208_54246" cx="0" cy="0" r="1" gradientUnits="userSpaceOnUse" gradientTransform="translate(202.861 188.794) rotate(90.5277) scale(20.173 17.4042)">
            <stop stop-color="#E8E9F0" />
            <stop offset="1" stop-color="#F7F7F7" stop-opacity="0" />
        </radialGradient>
        <radialGradient id="paint16_radial_1208_54246" cx="0" cy="0" r="1" gradientUnits="userSpaceOnUse" gradientTransform="translate(221.875 185.805) rotate(90.5277) scale(20.173 17.4042)">
            <stop stop-color="#E8E9F0" />
            <stop offset="1" stop-color="#F7F7F7" stop-opacity="0" />
        </radialGradient>
        <radialGradient id="paint17_radial_1208_54246" cx="0" cy="0" r="1" gradientUnits="userSpaceOnUse" gradientTransform="translate(237.777 177.249) rotate(90.5277) scale(20.173 17.4042)">
            <stop stop-color="#E8E9F0" />
            <stop offset="1" stop-color="#F7F7F7" stop-opacity="0" />
        </radialGradient>
        <linearGradient id="paint18_linear_1208_54246" x1="125.388" y1="268.069" x2="338.823" y2="134.107" gradientUnits="userSpaceOnUse">
            <stop stop-color="#C4C6D7" />
            <stop offset="0.441811" stop-color="#E8E8F1" />
            <stop offset="1" stop-color="#EBEBEB" stop-opacity="0" />
        </linearGradient>
        <linearGradient id="paint19_linear_1208_54246" x1="211.713" y1="33.8223" x2="205.831" y2="44.1928" gradientUnits="userSpaceOnUse">
            <stop stop-color="#E6ECEF" />
            <stop offset="1" stop-color="#E6ECEF" stop-opacity="0" />
            <stop offset="1" stop-color="#EAF4FA" stop-opacity="0" />
        </linearGradient>
        <linearGradient id="paint20_linear_1208_54246" x1="158.42" y1="113.253" x2="161.816" y2="85.2394" gradientUnits="userSpaceOnUse">
            <stop stop-color="#798196" stop-opacity="0.53" />
            <stop offset="1" stop-color="#798196" stop-opacity="0" />
        </linearGradient>
        <linearGradient id="paint21_linear_1208_54246" x1="18.3575" y1="0" x2="18.3575" y2="48.2182" gradientUnits="userSpaceOnUse">
            <stop stop-color="#D5D7E3" />
            <stop offset="1" stop-color="#DADBE6" />
        </linearGradient>
        <linearGradient id="paint22_linear_1208_54246" x1="-31.4299" y1="-5.38633" x2="39.5002" y2="43.8833" gradientUnits="userSpaceOnUse">
            <stop stop-color="#E6E7F0" />
            <stop offset="1" stop-color="#FAFAFF" />
        </linearGradient>
        <linearGradient id="paint23_linear_1208_54246" x1="282.405" y1="124.871" x2="283.583" y2="133.814" gradientUnits="userSpaceOnUse">
            <stop stop-color="#C5C7D8" />
            <stop offset="1" stop-color="#E8E8F1" />
        </linearGradient>
        <linearGradient id="paint24_linear_1208_54246" x1="285.838" y1="116.975" x2="287.336" y2="128.357" gradientUnits="userSpaceOnUse">
            <stop stop-color="#C5C7D8" />
            <stop offset="1" stop-color="#E8E8F1" />
        </linearGradient>
        <linearGradient id="paint25_linear_1208_54246" x1="285.212" y1="110.44" x2="288.209" y2="133.205" gradientUnits="userSpaceOnUse">
            <stop stop-color="#C5C7D8" />
            <stop offset="1" stop-color="#E8E8F1" />
        </linearGradient>
        <linearGradient id="paint26_linear_1208_54246" x1="274.501" y1="112.095" x2="287.686" y2="103.8" gradientUnits="userSpaceOnUse">
            <stop stop-color="#C5C7D8" />
            <stop offset="1" stop-color="#E8E8F1" />
            <stop offset="1" stop-color="#C5C7D8" stop-opacity="0" />
        </linearGradient>
        <linearGradient id="paint27_linear_1208_54246" x1="114" y1="108.096" x2="193.781" y2="170.829" gradientUnits="userSpaceOnUse">
            <stop stop-color="#C6C8D9" />
            <stop offset="0.940675" stop-color="#ECEEF8" />
        </linearGradient>
        <linearGradient id="paint28_linear_1208_54246" x1="257.001" y1="273.675" x2="80.0011" y2="8.67481" gradientUnits="userSpaceOnUse">
            <stop stop-color="#E6E7F0" />
            <stop offset="1" stop-color="white" />
        </linearGradient>
        <linearGradient id="paint29_linear_1208_54246" x1="29.0441" y1="94.6855" x2="9.3926" y2="70.0321" gradientUnits="userSpaceOnUse">
            <stop stop-color="#C4C6D7" />
            <stop offset="1" stop-color="#A3A8BD" />
        </linearGradient>
        <linearGradient id="paint30_linear_1208_54246" x1="28.0441" y1="94.6855" x2="8.3926" y2="70.0321" gradientUnits="userSpaceOnUse">
            <stop stop-color="#C4C6D7" />
            <stop offset="1" stop-color="white" />
        </linearGradient>
        <linearGradient id="paint31_linear_1208_54246" x1="78.4961" y1="287.394" x2="90.0387" y2="198.585" gradientUnits="userSpaceOnUse">
            <stop stop-color="#C4C6D7" />
            <stop offset="1" stop-color="#F7F7FD" />
        </linearGradient>
        <linearGradient id="paint32_linear_1208_54246" x1="-112.765" y1="-150.853" x2="2.78202" y2="46.8081" gradientUnits="userSpaceOnUse">
            <stop stop-color="#E8E8F1" />
            <stop offset="1" stop-color="#FCFCFF" />
        </linearGradient>
        <linearGradient id="paint33_linear_1208_54246" x1="16.9204" y1="3.47454" x2="36.34" y2="75.953" gradientUnits="userSpaceOnUse">
            <stop stop-color="#C4C6D7" />
            <stop offset="1" stop-color="#C4C6D7" stop-opacity="0" />
        </linearGradient>
    </defs>
</svg>
