<svg width="347" height="194" viewBox="0 0 347 194" fill="none" xmlns="http://www.w3.org/2000/svg">
<g clip-path="url(#clip0_164_61198)">
<g clip-path="url(#clip1_164_61198)">
<path d="M-12 8C-12 3.58172 -8.41828 0 -4 0H360V281H-4.00001C-8.41829 281 -12 277.418 -12 273V8Z" fill="white"/>
<g clip-path="url(#clip2_164_61198)">
<rect width="372" height="281" transform="translate(-12)" fill="#EDEDF0" fill-opacity="0.4"/>
<rect x="16.45" y="64.45" width="259.1" height="143.1" rx="10.35" fill="white" fill-opacity="0.46" stroke="#EDEDF0" stroke-width="0.9"/>
<g opacity="0.8">
<rect x="19.9004" y="97.5879" width="256.5" height="165.6" rx="10.8" fill="white"/>
<rect x="20.2379" y="97.9254" width="255.825" height="164.925" rx="10.4625" stroke="#EDEDF0" stroke-opacity="0.8" stroke-width="0.675"/>
<mask id="mask0_164_61198" style="mask-type:alpha" maskUnits="userSpaceOnUse" x="20" y="97" width="271" height="167">
<rect x="21.1383" y="97.9254" width="269.325" height="164.925" rx="9.7875" fill="white" stroke="#EDEDF0" stroke-width="0.675"/>
</mask>
<g mask="url(#mask0_164_61198)">
<mask id="mask1_164_61198" style="mask-type:alpha" maskUnits="userSpaceOnUse" x="20" y="97" width="230" height="369">
<rect x="20.3496" y="125.049" width="229.5" height="0.675" fill="#D9D9D9"/>
<rect x="20.3496" y="152.724" width="229.5" height="0.675" fill="#D9D9D9"/>
<rect x="20.3496" y="180.398" width="229.5" height="0.675" fill="#D9D9D9"/>
</mask>
<g mask="url(#mask1_164_61198)">
<rect x="20.3496" y="87.9131" width="242.325" height="179.55" fill="url(#paint0_radial_164_61198)"/>
</g>
</g>
<mask id="mask2_164_61198" style="mask-type:alpha" maskUnits="userSpaceOnUse" x="29" y="88" width="202" height="49">
<path d="M29.125 88.5879H230.95V136.513H29.125V88.5879Z" fill="url(#paint1_linear_164_61198)"/>
</mask>
<g mask="url(#mask2_164_61198)">
<path d="M160.076 112.213C160.076 110.722 161.285 109.513 162.776 109.513H205.976C207.467 109.513 208.676 110.722 208.676 112.213C208.676 113.704 207.467 114.913 205.976 114.913H162.776C161.285 114.913 160.076 113.704 160.076 112.213Z" fill="#D9D9D9" fill-opacity="0.5"/>
<path d="M194.502 112.213C194.502 110.722 195.711 109.513 197.202 109.513H240.402C241.893 109.513 243.102 110.722 243.102 112.213C243.102 113.704 241.893 114.913 240.402 114.913H197.202C195.711 114.913 194.502 113.704 194.502 112.213Z" fill="#D9D9D9" fill-opacity="0.5"/>
</g>
<path fill-rule="evenodd" clip-rule="evenodd" d="M125.241 108.886C125.241 108.538 125.523 108.256 125.871 108.256L129.435 108.256C129.783 108.256 130.065 108.538 130.065 108.886L130.065 112.45C130.065 112.798 129.783 113.08 129.435 113.08C129.087 113.08 128.805 112.798 128.805 112.45L128.805 110.407L123.643 115.568C123.397 115.814 122.998 115.814 122.752 115.568C122.506 115.322 122.506 114.923 122.752 114.677L127.914 109.516L125.871 109.516C125.523 109.516 125.241 109.234 125.241 108.886Z" fill="#D8D8DB"/>
<path d="M169.382 111.341L168.575 111.569C168.525 111.435 168.45 111.304 168.351 111.177C168.254 111.048 168.123 110.941 167.955 110.858C167.788 110.774 167.573 110.732 167.312 110.732C166.954 110.732 166.656 110.815 166.417 110.979C166.181 111.142 166.063 111.349 166.063 111.6C166.063 111.823 166.145 112 166.307 112.129C166.469 112.258 166.723 112.366 167.068 112.452L167.936 112.666C168.459 112.792 168.848 112.987 169.105 113.248C169.361 113.507 169.489 113.84 169.489 114.249C169.489 114.584 169.393 114.883 169.2 115.147C169.009 115.411 168.743 115.619 168.4 115.771C168.058 115.924 167.659 116 167.205 116C166.609 116 166.115 115.87 165.725 115.612C165.334 115.353 165.086 114.975 164.982 114.477L165.835 114.264C165.916 114.579 166.07 114.815 166.296 114.972C166.524 115.129 166.822 115.208 167.19 115.208C167.609 115.208 167.941 115.119 168.187 114.942C168.436 114.762 168.56 114.546 168.56 114.295C168.56 114.092 168.489 113.922 168.347 113.785C168.205 113.645 167.987 113.541 167.692 113.473L166.718 113.244C166.183 113.117 165.789 112.921 165.538 112.654C165.289 112.385 165.165 112.049 165.165 111.646C165.165 111.316 165.258 111.024 165.443 110.77C165.631 110.516 165.886 110.317 166.208 110.173C166.533 110.028 166.901 109.956 167.312 109.956C167.89 109.956 168.345 110.082 168.674 110.336C169.007 110.59 169.243 110.925 169.382 111.341Z" fill="#97979B"/>
<path d="M161.254 115.878V110.031H162.122V110.914H162.183C162.289 110.625 162.482 110.39 162.761 110.21C163.04 110.03 163.355 109.94 163.705 109.94C163.771 109.94 163.854 109.941 163.953 109.944C164.051 109.946 164.126 109.95 164.177 109.955V110.869C164.147 110.861 164.077 110.85 163.968 110.834C163.861 110.817 163.748 110.808 163.629 110.808C163.345 110.808 163.091 110.867 162.868 110.987C162.647 111.103 162.472 111.266 162.342 111.474C162.216 111.679 162.152 111.914 162.152 112.178V115.878H161.254Z" fill="#97979B"/>
<path d="M157.465 116C156.902 116 156.416 115.875 156.008 115.627C155.602 115.376 155.288 115.025 155.068 114.576C154.849 114.125 154.74 113.599 154.74 113.001C154.74 112.402 154.849 111.874 155.068 111.417C155.288 110.958 155.595 110.6 155.989 110.344C156.385 110.085 156.846 109.956 157.374 109.956C157.679 109.956 157.979 110.006 158.276 110.108C158.573 110.209 158.843 110.374 159.087 110.603C159.331 110.828 159.525 111.128 159.669 111.501C159.814 111.874 159.886 112.333 159.886 112.879V113.259H155.38V112.483H158.973C158.973 112.153 158.907 111.859 158.775 111.6C158.645 111.341 158.46 111.137 158.219 110.987C157.981 110.837 157.699 110.762 157.374 110.762C157.016 110.762 156.707 110.851 156.445 111.029C156.187 111.204 155.987 111.432 155.848 111.714C155.708 111.996 155.638 112.298 155.638 112.62V113.138C155.638 113.579 155.715 113.953 155.867 114.26C156.022 114.565 156.236 114.797 156.51 114.957C156.784 115.114 157.103 115.193 157.465 115.193C157.701 115.193 157.915 115.16 158.105 115.094C158.298 115.025 158.464 114.924 158.604 114.789C158.743 114.652 158.851 114.482 158.927 114.279L159.795 114.523C159.704 114.817 159.55 115.076 159.334 115.299C159.119 115.52 158.852 115.693 158.535 115.817C158.218 115.939 157.861 116 157.465 116Z" fill="#97979B"/>
<path d="M150.566 115.999C150.078 115.999 149.648 115.876 149.275 115.63C148.902 115.382 148.611 115.031 148.4 114.58C148.189 114.126 148.084 113.589 148.084 112.97C148.084 112.356 148.189 111.823 148.4 111.371C148.611 110.919 148.904 110.571 149.279 110.324C149.655 110.078 150.089 109.955 150.581 109.955C150.961 109.955 151.262 110.019 151.483 110.145C151.706 110.27 151.876 110.412 151.993 110.572C152.112 110.729 152.205 110.859 152.271 110.96H152.347V108.083H153.245V115.878H152.377V114.979H152.271C152.205 115.086 152.111 115.22 151.989 115.383C151.867 115.543 151.694 115.686 151.468 115.813C151.242 115.937 150.941 115.999 150.566 115.999ZM150.687 115.193C151.048 115.193 151.352 115.099 151.601 114.911C151.85 114.721 152.039 114.458 152.168 114.123C152.297 113.785 152.362 113.396 152.362 112.954C152.362 112.518 152.299 112.136 152.172 111.809C152.045 111.479 151.857 111.223 151.609 111.04C151.36 110.855 151.053 110.762 150.687 110.762C150.307 110.762 149.99 110.86 149.736 111.055C149.485 111.248 149.296 111.511 149.169 111.843C149.044 112.173 148.982 112.543 148.982 112.954C148.982 113.371 149.046 113.749 149.173 114.089C149.302 114.426 149.492 114.695 149.743 114.896C149.997 115.094 150.312 115.193 150.687 115.193Z" fill="#97979B"/>
<path d="M144.547 115.878V110.031H145.415V110.914H145.476C145.582 110.625 145.775 110.39 146.054 110.21C146.333 110.03 146.648 109.94 146.998 109.94C147.064 109.94 147.147 109.941 147.245 109.944C147.344 109.946 147.419 109.95 147.47 109.955V110.869C147.44 110.861 147.37 110.85 147.261 110.834C147.154 110.817 147.041 110.808 146.922 110.808C146.638 110.808 146.384 110.867 146.161 110.987C145.94 111.103 145.765 111.266 145.635 111.474C145.509 111.679 145.445 111.914 145.445 112.178V115.878H144.547Z" fill="#97979B"/>
<path d="M143.083 111.98C143.083 112.802 142.934 113.513 142.637 114.112C142.341 114.711 141.933 115.172 141.416 115.497C140.898 115.822 140.307 115.984 139.642 115.984C138.977 115.984 138.386 115.822 137.868 115.497C137.351 115.172 136.943 114.711 136.646 114.112C136.35 113.513 136.201 112.802 136.201 111.98C136.201 111.158 136.35 110.448 136.646 109.849C136.943 109.25 137.351 108.788 137.868 108.463C138.386 108.138 138.977 107.976 139.642 107.976C140.307 107.976 140.898 108.138 141.416 108.463C141.933 108.788 142.341 109.25 142.637 109.849C142.934 110.448 143.083 111.158 143.083 111.98ZM142.169 111.98C142.169 111.305 142.056 110.736 141.831 110.271C141.607 109.807 141.304 109.455 140.921 109.217C140.54 108.978 140.114 108.859 139.642 108.859C139.17 108.859 138.742 108.978 138.359 109.217C137.979 109.455 137.675 109.807 137.45 110.271C137.226 110.736 137.115 111.305 137.115 111.98C137.115 112.655 137.226 113.225 137.45 113.689C137.675 114.154 137.979 114.505 138.359 114.744C138.742 114.982 139.17 115.101 139.642 115.101C140.114 115.101 140.54 114.982 140.921 114.744C141.304 114.505 141.607 114.154 141.831 113.689C142.056 113.225 142.169 112.655 142.169 111.98Z" fill="#97979B"/>
<g opacity="0.5">
<path fill-rule="evenodd" clip-rule="evenodd" d="M38.0004 109.626C38.0002 110.061 37.6471 110.413 37.2123 110.413C36.7776 110.413 36.4254 110.061 36.4252 109.626V109.363H34.85V114.613H35.6371C36.0719 114.613 36.4251 114.966 36.4252 115.4C36.4252 115.835 36.072 116.188 35.6371 116.188H31.9623C31.5274 116.188 31.1752 115.835 31.1752 115.4C31.1753 114.966 31.5275 114.613 31.9623 114.613H32.7504V109.363H31.1752V109.626C31.175 110.061 30.8219 110.413 30.3871 110.413C29.9525 110.413 29.6002 110.061 29.6 109.626V107.788H38.0004V109.626Z" fill="#D8D8DB"/>
<path d="M70.3507 116.076C69.7678 116.076 69.2649 115.947 68.8422 115.69C68.4221 115.43 68.0978 115.068 67.8694 114.603C67.6435 114.136 67.5306 113.592 67.5306 112.972C67.5306 112.353 67.6435 111.807 67.8694 111.334C68.0978 110.859 68.4155 110.488 68.8225 110.223C69.2321 109.955 69.71 109.822 70.2562 109.822C70.5712 109.822 70.8824 109.874 71.1896 109.979C71.4968 110.084 71.7765 110.255 72.0285 110.491C72.2806 110.725 72.4815 111.035 72.6311 111.421C72.7808 111.807 72.8556 112.282 72.8556 112.846V113.24H68.1923V112.437H71.9104C71.9104 112.095 71.8421 111.791 71.7056 111.523C71.5716 111.255 71.38 111.044 71.1305 110.889C70.8837 110.734 70.5923 110.657 70.2562 110.657C69.8859 110.657 69.5656 110.748 69.2951 110.932C69.0273 111.113 68.8212 111.35 68.6768 111.641C68.5324 111.933 68.4602 112.245 68.4602 112.579V113.114C68.4602 113.571 68.5389 113.958 68.6965 114.276C68.8566 114.591 69.0785 114.831 69.3621 114.997C69.6457 115.16 69.9752 115.241 70.3507 115.241C70.5949 115.241 70.8154 115.207 71.0124 115.139C71.2119 115.068 71.3839 114.963 71.5283 114.824C71.6727 114.682 71.7843 114.506 71.8631 114.296L72.7611 114.548C72.6666 114.852 72.5077 115.12 72.2845 115.351C72.0613 115.58 71.7856 115.758 71.4574 115.887C71.1292 116.013 70.7603 116.076 70.3507 116.076Z" fill="#97979B"/>
<path d="M58.1755 115.95V109.9H59.0735V110.846H59.1523C59.2783 110.523 59.4818 110.272 59.7628 110.093C60.0438 109.912 60.3812 109.822 60.775 109.822C61.1741 109.822 61.5063 109.912 61.7715 110.093C62.0393 110.272 62.2481 110.523 62.3977 110.846H62.4607C62.6157 110.533 62.848 110.285 63.1579 110.101C63.4677 109.915 63.8393 109.822 64.2725 109.822C64.8134 109.822 65.2558 109.991 65.5998 110.33C65.9438 110.666 66.1158 111.19 66.1158 111.901V115.95H65.1863V111.901C65.1863 111.455 65.0642 111.136 64.82 110.944C64.5758 110.752 64.2883 110.657 63.9574 110.657C63.532 110.657 63.2025 110.785 62.9688 111.043C62.7351 111.297 62.6183 111.62 62.6183 112.011V115.95H61.673V111.807C61.673 111.463 61.5614 111.186 61.3382 110.976C61.1151 110.763 60.8275 110.657 60.4757 110.657C60.2341 110.657 60.0083 110.721 59.7982 110.85C59.5908 110.978 59.4228 111.157 59.2941 111.385C59.1681 111.611 59.105 111.872 59.105 112.169V115.95H58.1755Z" fill="#97979B"/>
<path d="M53.7038 116.092C53.3205 116.092 52.9726 116.02 52.6601 115.875C52.3477 115.728 52.0995 115.517 51.9157 115.241C51.7319 114.963 51.64 114.627 51.64 114.233C51.64 113.886 51.7083 113.605 51.8448 113.39C51.9814 113.172 52.1638 113.001 52.3923 112.878C52.6207 112.754 52.8728 112.663 53.1485 112.602C53.4268 112.539 53.7065 112.489 53.9874 112.453C54.355 112.405 54.653 112.37 54.8815 112.346C55.1126 112.32 55.2806 112.277 55.3856 112.216C55.4933 112.156 55.5471 112.051 55.5471 111.901V111.87C55.5471 111.481 55.4408 111.179 55.2281 110.964C55.018 110.748 54.699 110.641 54.271 110.641C53.8273 110.641 53.4793 110.738 53.2273 110.932C52.9752 111.127 52.798 111.334 52.6956 111.555L51.8133 111.239C51.9709 110.872 52.1809 110.586 52.4435 110.381C52.7087 110.173 52.9975 110.029 53.31 109.948C53.6251 109.864 53.9349 109.822 54.2395 109.822C54.4338 109.822 54.657 109.845 54.9091 109.892C55.1638 109.937 55.4093 110.03 55.6456 110.172C55.8845 110.314 56.0828 110.528 56.2403 110.814C56.3979 111.1 56.4766 111.484 56.4766 111.964V115.95H55.5471V115.131H55.4999C55.4368 115.262 55.3318 115.403 55.1848 115.552C55.0377 115.702 54.8421 115.829 54.5979 115.934C54.3537 116.039 54.0557 116.092 53.7038 116.092ZM53.8456 115.257C54.2132 115.257 54.5231 115.185 54.7751 115.04C55.0298 114.896 55.2215 114.709 55.3502 114.481C55.4815 114.252 55.5471 114.012 55.5471 113.76V112.909C55.5077 112.957 55.4211 113 55.2872 113.039C55.1559 113.076 55.0036 113.109 54.8303 113.138C54.6596 113.164 54.4929 113.188 54.3301 113.209C54.1699 113.227 54.0399 113.243 53.9402 113.256C53.6986 113.288 53.4728 113.339 53.2627 113.41C53.0553 113.478 52.8872 113.582 52.7586 113.721C52.6325 113.857 52.5695 114.044 52.5695 114.28C52.5695 114.603 52.689 114.847 52.9279 115.013C53.1695 115.175 53.4754 115.257 53.8456 115.257Z" fill="#97979B"/>
<path d="M50.0962 107.884V115.95H49.151L44.7555 109.617H44.6767V115.95H43.7V107.884H44.6452L49.0565 114.233H49.1352V107.884H50.0962Z" fill="#97979B"/>
</g>
<rect x="121" y="138" width="72" height="4" rx="2" fill="url(#paint2_linear_164_61198)" fill-opacity="0.5"/>
<rect x="121" y="164" width="72" height="4" rx="2" fill="url(#paint3_linear_164_61198)" fill-opacity="0.5"/>
<rect x="29" y="138" width="72" height="4" rx="2" fill="url(#paint4_linear_164_61198)" fill-opacity="0.5"/>
<rect x="29" y="164" width="72" height="4" rx="2" fill="url(#paint5_linear_164_61198)" fill-opacity="0.5"/>
</g>
<path d="M32.9795 86.5688C31.6295 86.5688 30.554 86.1323 29.753 85.2593C28.961 84.3773 28.565 83.2118 28.565 81.7628C28.565 80.3228 28.9745 79.1618 29.7935 78.2798C30.6125 77.3978 31.706 76.9568 33.074 76.9568C34.118 76.9568 34.9955 77.2403 35.7065 77.8073C36.4265 78.3743 36.872 79.1483 37.043 80.1293H35.801C35.621 79.4723 35.288 78.9593 34.802 78.5903C34.316 78.2213 33.722 78.0368 33.02 78.0368C32.039 78.0368 31.2515 78.3833 30.6575 79.0763C30.0635 79.7603 29.7665 80.6558 29.7665 81.7628C29.7665 82.8698 30.0545 83.7698 30.6305 84.4628C31.2065 85.1468 31.985 85.4888 32.966 85.4888C33.695 85.4888 34.3025 85.3088 34.7885 84.9488C35.2745 84.5798 35.6075 84.0623 35.7875 83.3963H37.0295C36.8585 84.3773 36.4085 85.1513 35.6795 85.7183C34.9505 86.2853 34.0505 86.5688 32.9795 86.5688ZM43.1053 83.0453V79.6028H44.2123V86.4878H43.2538L43.1053 85.5698C42.5833 86.2358 41.8498 86.5688 40.9048 86.5688C40.0858 86.5688 39.4288 86.3168 38.9338 85.8128C38.4388 85.3088 38.1913 84.5168 38.1913 83.4368V79.6028H39.2983V83.3693C39.2983 84.0803 39.4513 84.6248 39.7573 85.0028C40.0723 85.3718 40.5178 85.5563 41.0938 85.5563C41.7238 85.5563 42.2143 85.3313 42.5653 84.8813C42.9253 84.4313 43.1053 83.8193 43.1053 83.0453ZM45.4378 84.2198H46.5718C46.5898 84.6338 46.7698 84.9713 47.1118 85.2323C47.4538 85.4933 47.9083 85.6238 48.4753 85.6238C48.9613 85.6238 49.3573 85.5293 49.6633 85.3403C49.9783 85.1423 50.1358 84.8858 50.1358 84.5708C50.1358 84.3998 50.0998 84.2558 50.0278 84.1388C49.9648 84.0218 49.8928 83.9318 49.8118 83.8688C49.7398 83.7968 49.6048 83.7383 49.4068 83.6933C49.2088 83.6393 49.0558 83.6078 48.9478 83.5988C48.8398 83.5808 48.6418 83.5538 48.3538 83.5178C47.9128 83.4638 47.5483 83.4053 47.2603 83.3423C46.9723 83.2703 46.6888 83.1668 46.4098 83.0318C46.1308 82.8878 45.9238 82.6988 45.7888 82.4648C45.6538 82.2218 45.5863 81.9293 45.5863 81.5873C45.5863 80.9663 45.8383 80.4668 46.3423 80.0888C46.8553 79.7018 47.5033 79.5128 48.2863 79.5218C49.0963 79.5308 49.7533 79.7243 50.2573 80.1023C50.7613 80.4713 51.0403 81.0023 51.0943 81.6953H49.9603C49.9153 81.3353 49.7398 81.0428 49.4338 80.8178C49.1368 80.5838 48.7543 80.4668 48.2863 80.4668C47.8003 80.4668 47.4088 80.5613 47.1118 80.7503C46.8238 80.9393 46.6798 81.1913 46.6798 81.5063C46.6798 81.6863 46.7158 81.8348 46.7878 81.9518C46.8688 82.0688 46.9993 82.1633 47.1793 82.2353C47.3683 82.2983 47.5393 82.3478 47.6923 82.3838C47.8543 82.4108 48.0928 82.4423 48.4078 82.4783C48.7678 82.5233 49.0693 82.5683 49.3123 82.6133C49.5553 82.6583 49.8073 82.7303 50.0683 82.8293C50.3293 82.9283 50.5363 83.0453 50.6893 83.1803C50.8513 83.3153 50.9818 83.4953 51.0808 83.7203C51.1798 83.9363 51.2293 84.1928 51.2293 84.4898C51.2293 85.1198 50.9638 85.6238 50.4328 86.0018C49.9108 86.3798 49.2583 86.5688 48.4753 86.5688C47.5663 86.5688 46.8328 86.3618 46.2748 85.9478C45.7258 85.5338 45.4468 84.9578 45.4378 84.2198ZM52.9711 84.6923V80.6153H51.7291V79.6028H52.9711V77.6723H54.0781V79.6028H55.8601V80.6153H54.0781V84.6788C54.0781 84.9668 54.1366 85.1738 54.2536 85.2998C54.3706 85.4168 54.5776 85.4753 54.8746 85.4753H55.9681V86.4878H54.7666C54.1186 86.4878 53.6551 86.3438 53.3761 86.0558C53.1061 85.7678 52.9711 85.3133 52.9711 84.6923ZM62.3855 85.5968C61.7555 86.2448 60.9365 86.5688 59.9285 86.5688C58.9205 86.5688 58.097 86.2448 57.458 85.5968C56.828 84.9398 56.513 84.0893 56.513 83.0453C56.513 82.0013 56.828 81.1553 57.458 80.5073C58.097 79.8503 58.9205 79.5218 59.9285 79.5218C60.9365 79.5218 61.7555 79.8503 62.3855 80.5073C63.0245 81.1553 63.344 82.0013 63.344 83.0453C63.344 84.0893 63.0245 84.9398 62.3855 85.5968ZM58.2815 84.8678C58.7045 85.3448 59.2535 85.5833 59.9285 85.5833C60.6035 85.5833 61.1525 85.3448 61.5755 84.8678C61.9985 84.3908 62.21 83.7833 62.21 83.0453C62.21 82.3073 61.9985 81.6998 61.5755 81.2228C61.1525 80.7458 60.6035 80.5073 59.9285 80.5073C59.2535 80.5073 58.7045 80.7458 58.2815 81.2228C57.8585 81.6998 57.647 82.3073 57.647 83.0453C57.647 83.7833 57.8585 84.3908 58.2815 84.8678ZM72.2949 79.5218C73.0689 79.5218 73.6944 79.7648 74.1714 80.2508C74.6574 80.7368 74.9004 81.4928 74.9004 82.5188V86.4878H73.7934V82.5863C73.7934 81.9203 73.6494 81.4118 73.3614 81.0608C73.0824 80.7098 72.6819 80.5343 72.1599 80.5343C71.5839 80.5343 71.1294 80.7368 70.7964 81.1418C70.4724 81.5468 70.3104 82.1003 70.3104 82.8023V86.4878H69.2034V82.5863C69.2034 81.9203 69.0594 81.4118 68.7714 81.0608C68.4834 80.7098 68.0739 80.5343 67.5429 80.5343C66.9849 80.5343 66.5394 80.7503 66.2064 81.1823C65.8824 81.6053 65.7204 82.1633 65.7204 82.8563V86.4878H64.6134V79.6028H65.5719L65.7204 80.5478C66.2154 79.8638 66.8859 79.5218 67.7319 79.5218C68.2269 79.5218 68.6634 79.6343 69.0414 79.8593C69.4284 80.0753 69.7164 80.3993 69.9054 80.8313C70.4004 79.9583 71.1969 79.5218 72.2949 79.5218ZM79.4139 86.5688C78.3879 86.5688 77.5599 86.2448 76.9299 85.5968C76.3089 84.9488 75.9984 84.0983 75.9984 83.0453C75.9984 82.0013 76.2999 81.1553 76.9029 80.5073C77.5059 79.8503 78.2934 79.5218 79.2654 79.5218C80.2464 79.5218 81.0294 79.8143 81.6144 80.3993C82.1994 80.9753 82.5054 81.7718 82.5324 82.7888C82.5324 82.8878 82.5234 83.0453 82.5054 83.2613H77.1594V83.3558C77.1774 84.0218 77.3799 84.5618 77.7669 84.9758C78.1629 85.3808 78.6849 85.5833 79.3329 85.5833C79.8279 85.5833 80.2464 85.4618 80.5884 85.2188C80.9394 84.9668 81.1734 84.6203 81.2904 84.1793H82.4109C82.2759 84.8813 81.9384 85.4573 81.3984 85.9073C80.8584 86.3483 80.1969 86.5688 79.4139 86.5688ZM77.2269 82.3433H81.3444C81.2904 81.7583 81.0789 81.3038 80.7099 80.9798C80.3409 80.6558 79.8639 80.4938 79.2789 80.4938C78.7569 80.4938 78.2979 80.6648 77.9019 81.0068C77.5059 81.3488 77.2809 81.7943 77.2269 82.3433ZM86.9816 79.6028H87.2921V80.6828H86.7386C86.0816 80.6828 85.6091 80.9033 85.3211 81.3443C85.0421 81.7853 84.9026 82.3298 84.9026 82.9778V86.4878H83.7956V79.6028H84.7541L84.9026 80.6423C85.3256 79.9493 86.0186 79.6028 86.9816 79.6028ZM87.8231 84.2198H88.9571C88.9751 84.6338 89.1551 84.9713 89.4971 85.2323C89.8391 85.4933 90.2936 85.6238 90.8606 85.6238C91.3466 85.6238 91.7426 85.5293 92.0486 85.3403C92.3636 85.1423 92.5211 84.8858 92.5211 84.5708C92.5211 84.3998 92.4851 84.2558 92.4131 84.1388C92.3501 84.0218 92.2781 83.9318 92.1971 83.8688C92.1251 83.7968 91.9901 83.7383 91.7921 83.6933C91.5941 83.6393 91.4411 83.6078 91.3331 83.5988C91.2251 83.5808 91.0271 83.5538 90.7391 83.5178C90.2981 83.4638 89.9336 83.4053 89.6456 83.3423C89.3576 83.2703 89.0741 83.1668 88.7951 83.0318C88.5161 82.8878 88.3091 82.6988 88.1741 82.4648C88.0391 82.2218 87.9716 81.9293 87.9716 81.5873C87.9716 80.9663 88.2236 80.4668 88.7276 80.0888C89.2406 79.7018 89.8886 79.5128 90.6716 79.5218C91.4816 79.5308 92.1386 79.7243 92.6426 80.1023C93.1466 80.4713 93.4256 81.0023 93.4796 81.6953H92.3456C92.3006 81.3353 92.1251 81.0428 91.8191 80.8178C91.5221 80.5838 91.1396 80.4668 90.6716 80.4668C90.1856 80.4668 89.7941 80.5613 89.4971 80.7503C89.2091 80.9393 89.0651 81.1913 89.0651 81.5063C89.0651 81.6863 89.1011 81.8348 89.1731 81.9518C89.2541 82.0688 89.3846 82.1633 89.5646 82.2353C89.7536 82.2983 89.9246 82.3478 90.0776 82.3838C90.2396 82.4108 90.4781 82.4423 90.7931 82.4783C91.1531 82.5233 91.4546 82.5683 91.6976 82.6133C91.9406 82.6583 92.1926 82.7303 92.4536 82.8293C92.7146 82.9283 92.9216 83.0453 93.0746 83.1803C93.2366 83.3153 93.3671 83.4953 93.4661 83.7203C93.5651 83.9363 93.6146 84.1928 93.6146 84.4898C93.6146 85.1198 93.3491 85.6238 92.8181 86.0018C92.2961 86.3798 91.6436 86.5688 90.8606 86.5688C89.9516 86.5688 89.2181 86.3618 88.6601 85.9478C88.1111 85.5338 87.8321 84.9578 87.8231 84.2198Z" fill="#97979B"/>
<rect x="112" y="99" width="101" height="164" fill="url(#paint6_linear_164_61198)" fill-opacity="0.1"/>
<rect x="111.5" y="98.5" width="102" height="165" stroke="url(#paint7_linear_164_61198)" stroke-opacity="0.3"/>
<g filter="url(#filter0_f_164_61198)">
<path d="M231.621 40.0228C220.534 62.1301 206.479 78.4213 200.228 76.4103C193.977 74.3994 197.898 54.8477 208.985 32.7405C220.072 10.6332 202.733 12.538 208.984 14.549C215.235 16.5599 242.708 17.9156 231.621 40.0228Z" fill="url(#paint8_radial_164_61198)" fill-opacity="0.2"/>
</g>
<foreignObject x="208.2" y="17.2" width="242.6" height="205.6"><div xmlns="http://www.w3.org/1999/xhtml" style="backdrop-filter:blur(0.9px);clip-path:url(#bgblur_3_164_61198_clip_path);height:100%;width:100%"></div></foreignObject><g data-figma-bg-blur-radius="1.8">
<rect x="210.45" y="19.45" width="238.1" height="201.1" rx="10.35" fill="#FAFAFB"/>
<rect x="210.45" y="19.45" width="238.1" height="201.1" rx="10.35" stroke="#EDEDF0" stroke-width="0.9"/>
<rect x="210.45" y="19.45" width="238.1" height="201.1" rx="10.35" stroke="url(#paint9_linear_164_61198)" stroke-opacity="0.4" stroke-width="0.9"/>
</g>
<path d="M229.639 33.27C230.485 34.17 230.908 35.3175 230.908 36.7125C230.908 38.1075 230.485 39.2595 229.639 40.1685C228.802 41.0685 227.722 41.5185 226.399 41.5185C225.076 41.5185 223.991 41.0685 223.145 40.1685C222.308 39.2595 221.89 38.1075 221.89 36.7125C221.89 35.3175 222.308 34.17 223.145 33.27C223.991 32.361 225.076 31.9065 226.399 31.9065C227.722 31.9065 228.802 32.361 229.639 33.27ZM224.009 34.0395C223.397 34.7325 223.091 35.6235 223.091 36.7125C223.091 37.8015 223.397 38.697 224.009 39.399C224.621 40.092 225.418 40.4385 226.399 40.4385C227.38 40.4385 228.176 40.092 228.788 39.399C229.4 38.697 229.706 37.8015 229.706 36.7125C229.706 35.6235 229.4 34.7325 228.788 34.0395C228.176 33.3375 227.38 32.9865 226.399 32.9865C225.418 32.9865 224.621 33.3375 224.009 34.0395ZM235.416 34.5525H235.726V35.6325H235.173C234.516 35.6325 234.043 35.853 233.755 36.294C233.476 36.735 233.337 37.2795 233.337 37.9275V41.4375H232.23V34.5525H233.188L233.337 35.592C233.76 34.899 234.453 34.5525 235.416 34.5525ZM241.717 35.6055V31.9875H242.824V41.4375H241.866L241.717 40.3305C241.141 41.1225 240.354 41.5185 239.355 41.5185C238.383 41.5185 237.586 41.208 236.965 40.587C236.353 39.957 236.047 39.093 236.047 37.995C236.047 36.951 236.358 36.105 236.979 35.457C237.6 34.8 238.392 34.4715 239.355 34.4715C240.453 34.4715 241.24 34.8495 241.717 35.6055ZM239.463 40.533C240.138 40.533 240.682 40.299 241.096 39.831C241.519 39.363 241.731 38.76 241.731 38.022C241.731 37.266 241.519 36.6495 241.096 36.1725C240.682 35.6955 240.138 35.457 239.463 35.457C238.779 35.457 238.225 35.6955 237.802 36.1725C237.388 36.6405 237.181 37.248 237.181 37.995C237.181 38.742 237.388 39.354 237.802 39.831C238.225 40.299 238.779 40.533 239.463 40.533ZM247.505 41.5185C246.479 41.5185 245.651 41.1945 245.021 40.5465C244.4 39.8985 244.089 39.048 244.089 37.995C244.089 36.951 244.391 36.105 244.994 35.457C245.597 34.8 246.384 34.4715 247.356 34.4715C248.337 34.4715 249.12 34.764 249.705 35.349C250.29 35.925 250.596 36.7215 250.623 37.7385C250.623 37.8375 250.614 37.995 250.596 38.211H245.25V38.3055C245.268 38.9715 245.471 39.5115 245.858 39.9255C246.254 40.3305 246.776 40.533 247.424 40.533C247.919 40.533 248.337 40.4115 248.679 40.1685C249.03 39.9165 249.264 39.57 249.381 39.129H250.502C250.367 39.831 250.029 40.407 249.489 40.857C248.949 41.298 248.288 41.5185 247.505 41.5185ZM245.318 37.293H249.435C249.381 36.708 249.17 36.2535 248.801 35.9295C248.432 35.6055 247.955 35.4435 247.37 35.4435C246.848 35.4435 246.389 35.6145 245.993 35.9565C245.597 36.2985 245.372 36.744 245.318 37.293ZM255.073 34.5525H255.383V35.6325H254.83C254.173 35.6325 253.7 35.853 253.412 36.294C253.133 36.735 252.994 37.2795 252.994 37.9275V41.4375H251.887V34.5525H252.845L252.994 35.592C253.417 34.899 254.11 34.5525 255.073 34.5525ZM255.914 39.1695H257.048C257.066 39.5835 257.246 39.921 257.588 40.182C257.93 40.443 258.385 40.5735 258.952 40.5735C259.438 40.5735 259.834 40.479 260.14 40.29C260.455 40.092 260.612 39.8355 260.612 39.5205C260.612 39.3495 260.576 39.2055 260.504 39.0885C260.441 38.9715 260.369 38.8815 260.288 38.8185C260.216 38.7465 260.081 38.688 259.883 38.643C259.685 38.589 259.532 38.5575 259.424 38.5485C259.316 38.5305 259.118 38.5035 258.83 38.4675C258.389 38.4135 258.025 38.355 257.737 38.292C257.449 38.22 257.165 38.1165 256.886 37.9815C256.607 37.8375 256.4 37.6485 256.265 37.4145C256.13 37.1715 256.063 36.879 256.063 36.537C256.063 35.916 256.315 35.4165 256.819 35.0385C257.332 34.6515 257.98 34.4625 258.763 34.4715C259.573 34.4805 260.23 34.674 260.734 35.052C261.238 35.421 261.517 35.952 261.571 36.645H260.437C260.392 36.285 260.216 35.9925 259.91 35.7675C259.613 35.5335 259.231 35.4165 258.763 35.4165C258.277 35.4165 257.885 35.511 257.588 35.7C257.3 35.889 257.156 36.141 257.156 36.456C257.156 36.636 257.192 36.7845 257.264 36.9015C257.345 37.0185 257.476 37.113 257.656 37.185C257.845 37.248 258.016 37.2975 258.169 37.3335C258.331 37.3605 258.569 37.392 258.884 37.428C259.244 37.473 259.546 37.518 259.789 37.563C260.032 37.608 260.284 37.68 260.545 37.779C260.806 37.878 261.013 37.995 261.166 38.13C261.328 38.265 261.458 38.445 261.557 38.67C261.656 38.886 261.706 39.1425 261.706 39.4395C261.706 40.0695 261.44 40.5735 260.909 40.9515C260.387 41.3295 259.735 41.5185 258.952 41.5185C258.043 41.5185 257.309 41.3115 256.751 40.8975C256.202 40.4835 255.923 39.9075 255.914 39.1695Z" fill="#97979B"/>
<g opacity="0.8">
<rect x="213.559" y="51.9747" width="255.825" height="164.925" rx="10.4625" fill="white" stroke="#EDEDF0" stroke-width="0.675"/>
<mask id="mask3_164_61198" style="mask-type:alpha" maskUnits="userSpaceOnUse" x="214" y="51" width="271" height="167">
<rect x="214.459" y="51.9747" width="269.325" height="164.925" rx="9.7875" fill="white" stroke="#EDEDF0" stroke-width="0.675"/>
</mask>
<g mask="url(#mask3_164_61198)">
<mask id="mask4_164_61198" style="mask-type:alpha" maskUnits="userSpaceOnUse" x="213" y="51" width="231" height="369">
<rect x="282.541" y="51.4087" width="229.5" height="0.675" transform="rotate(90.0053 282.541 51.4087)" fill="#D9D9D9"/>
<rect x="214.366" y="51.4023" width="229.5" height="0.675" transform="rotate(90.0053 214.366 51.4023)" fill="#D9D9D9"/>
<rect x="213.672" y="79.0974" width="229.5" height="0.675" fill="#D9D9D9"/>
<rect x="213.672" y="106.772" width="229.5" height="0.675" fill="#D9D9D9"/>
<rect x="213.672" y="134.447" width="229.5" height="0.675" fill="#D9D9D9"/>
<rect x="213.672" y="162.123" width="229.5" height="0.675" fill="#D9D9D9"/>
<rect x="213.672" y="188.447" width="229.5" height="0.675" fill="#D9D9D9"/>
</mask>
<g mask="url(#mask4_164_61198)">
<rect x="213.67" y="41.9624" width="242.325" height="179.55" fill="url(#paint10_radial_164_61198)"/>
</g>
</g>
<mask id="mask5_164_61198" style="mask-type:alpha" maskUnits="userSpaceOnUse" x="222" y="42" width="203" height="49">
<path d="M222.446 42.6372H424.271V90.5622H222.446V42.6372Z" fill="url(#paint11_linear_164_61198)"/>
</mask>
<g mask="url(#mask5_164_61198)">
<g opacity="0.5">
<g clip-path="url(#clip4_164_61198)">
<path fill-rule="evenodd" clip-rule="evenodd" d="M227.295 61.4097C227.953 61.1436 228.671 60.9973 229.421 60.9973C232.553 60.9973 235.091 63.5359 235.091 66.6673C235.091 67.0153 234.809 67.2973 234.461 67.2973C234.114 67.2973 233.831 67.0153 233.831 66.6673C233.831 64.2317 231.857 62.2573 229.421 62.2573C228.835 62.2573 228.278 62.3713 227.768 62.5776C227.445 62.7082 227.078 62.5526 226.947 62.2301C226.817 61.9075 226.973 61.5403 227.295 61.4097ZM226.058 62.8612C226.319 63.0915 226.344 63.4896 226.114 63.7505C225.427 64.5283 225.011 65.5485 225.011 66.6673C225.011 67.0153 224.729 67.2973 224.381 67.2973C224.034 67.2973 223.751 67.0153 223.751 66.6673C223.751 65.2298 224.287 63.9158 225.169 62.9167C225.399 62.6558 225.797 62.631 226.058 62.8612Z" fill="#97979B"/>
<path fill-rule="evenodd" clip-rule="evenodd" d="M226.271 66.6673C226.271 64.9276 227.682 63.5173 229.421 63.5173C231.161 63.5173 232.571 64.9276 232.571 66.6673C232.571 67.0153 232.289 67.2973 231.941 67.2973C231.594 67.2973 231.311 67.0153 231.311 66.6673C231.311 65.6235 230.465 64.7773 229.421 64.7773C228.378 64.7773 227.531 65.6235 227.531 66.6673C227.531 67.7239 227.314 68.7315 226.922 69.6464C226.784 69.9662 226.414 70.1141 226.094 69.9769C225.775 69.8397 225.627 69.4693 225.764 69.1495C226.09 68.3886 226.271 67.55 226.271 66.6673ZM231.892 67.9351C232.235 67.9896 232.47 68.3124 232.415 68.656C232.332 69.1789 232.217 69.6912 232.072 70.1908C231.975 70.5249 231.625 70.717 231.291 70.6198C230.957 70.5227 230.765 70.1731 230.862 69.839C230.993 69.3898 231.096 68.9291 231.171 68.4586C231.225 68.115 231.548 67.8806 231.892 67.9351Z" fill="#97979B"/>
<path fill-rule="evenodd" clip-rule="evenodd" d="M229.421 66.0373C229.769 66.0373 230.051 66.3194 230.051 66.6673C230.051 68.0762 229.762 69.4191 229.239 70.6386C229.102 70.9583 228.731 71.1063 228.411 70.9691C228.092 70.8319 227.944 70.4615 228.081 70.1418C228.538 69.0764 228.791 67.9023 228.791 66.6673C228.791 66.3194 229.074 66.0373 229.421 66.0373Z" fill="#97979B"/>
</g>
<path d="M244.714 70.0463H242.239V62.0281H244.823C245.601 62.0281 246.267 62.1886 246.82 62.5096C247.373 62.8281 247.797 63.2861 248.092 63.8838C248.387 64.4789 248.535 65.1915 248.535 66.0215C248.535 66.8567 248.386 67.5758 248.088 68.1787C247.791 68.7791 247.358 69.241 246.789 69.5647C246.22 69.8857 245.528 70.0463 244.714 70.0463ZM243.21 69.1849H244.651C245.314 69.1849 245.863 69.057 246.299 68.8012C246.735 68.5455 247.06 68.1814 247.274 67.7089C247.488 67.2365 247.595 66.674 247.595 66.0215C247.595 65.3742 247.489 64.817 247.278 64.3497C247.067 63.8799 246.751 63.5197 246.331 63.2692C245.91 63.016 245.387 62.8894 244.761 62.8894H243.21V69.1849Z" fill="#56565C"/>
<path d="M240.292 62.0281V70.0463H239.321V62.0281H240.292Z" fill="#56565C"/>
</g>
<path fill-rule="evenodd" clip-rule="evenodd" d="M299.321 63.6753C299.321 64.11 298.968 64.4624 298.533 64.4624C298.098 64.4623 297.746 64.11 297.746 63.6753V63.4126H296.171V68.6626H296.958C297.393 68.6626 297.746 69.0149 297.746 69.4497C297.746 69.8846 297.393 70.2378 296.958 70.2378H293.283C292.848 70.2377 292.496 69.8846 292.496 69.4497C292.496 69.0149 292.848 68.6627 293.283 68.6626H294.071V63.4126H292.496V63.6753C292.496 64.11 292.142 64.4624 291.708 64.4624C291.273 64.4622 290.921 64.1099 290.921 63.6753V61.8374H299.321V63.6753Z" fill="#D8D8DB"/>
<path d="M331.671 70.1254C331.088 70.1254 330.585 69.9967 330.163 69.7394C329.743 69.4794 329.418 69.1171 329.19 68.6523C328.964 68.1849 328.851 67.6414 328.851 67.0217C328.851 66.4021 328.964 65.8559 329.19 65.3833C329.418 64.908 329.736 64.5378 330.143 64.2726C330.553 64.0048 331.031 63.8708 331.577 63.8708C331.892 63.8708 332.203 63.9234 332.51 64.0284C332.817 64.1334 333.097 64.3041 333.349 64.5404C333.601 64.7741 333.802 65.0839 333.952 65.4699C334.101 65.8559 334.176 66.3312 334.176 66.8957V67.2896H329.513V66.4861H333.231C333.231 66.1447 333.163 65.8402 333.026 65.5723C332.892 65.3045 332.701 65.0931 332.451 64.9382C332.204 64.7833 331.913 64.7058 331.577 64.7058C331.206 64.7058 330.886 64.7977 330.616 64.9815C330.348 65.1627 330.142 65.399 329.997 65.6905C329.853 65.9819 329.781 66.2944 329.781 66.6279V67.1635C329.781 67.6204 329.859 68.0077 330.017 68.3254C330.177 68.6405 330.399 68.8808 330.683 69.0462C330.966 69.209 331.296 69.2904 331.671 69.2904C331.915 69.2904 332.136 69.2562 332.333 69.188C332.532 69.1171 332.704 69.012 332.849 68.8729C332.993 68.7311 333.105 68.5552 333.184 68.3451L334.082 68.5972C333.987 68.9018 333.828 69.1696 333.605 69.4007C333.382 69.6291 333.106 69.8076 332.778 69.9363C332.45 70.0623 332.081 70.1254 331.671 70.1254Z" fill="#97979B"/>
<path d="M319.496 69.9993V63.9496H320.394V64.8949H320.473C320.599 64.5719 320.802 64.3212 321.083 64.1426C321.364 63.9614 321.702 63.8708 322.096 63.8708C322.495 63.8708 322.827 63.9614 323.092 64.1426C323.36 64.3212 323.569 64.5719 323.718 64.8949H323.781C323.936 64.5824 324.169 64.3343 324.478 64.1505C324.788 63.9641 325.16 63.8708 325.593 63.8708C326.134 63.8708 326.576 64.0402 326.92 64.3789C327.264 64.715 327.436 65.2389 327.436 65.9504V69.9993H326.507V65.9504C326.507 65.5041 326.385 65.185 326.141 64.9934C325.896 64.8017 325.609 64.7058 325.278 64.7058C324.853 64.7058 324.523 64.8345 324.289 65.0918C324.056 65.3465 323.939 65.6695 323.939 66.0607V69.9993H322.994V65.8559C322.994 65.5119 322.882 65.2349 322.659 65.0249C322.436 64.8122 322.148 64.7058 321.796 64.7058C321.555 64.7058 321.329 64.7702 321.119 64.8988C320.911 65.0275 320.743 65.206 320.615 65.4345C320.489 65.6603 320.426 65.9216 320.426 66.2183V69.9993H319.496Z" fill="#97979B"/>
<path d="M315.024 70.1411C314.641 70.1411 314.293 70.0689 313.981 69.9245C313.668 69.7774 313.42 69.5661 313.236 69.2904C313.052 69.012 312.961 68.676 312.961 68.2821C312.961 67.9355 313.029 67.6545 313.165 67.4392C313.302 67.2213 313.484 67.0506 313.713 66.9272C313.941 66.8038 314.193 66.7119 314.469 66.6515C314.747 66.5885 315.027 66.5386 315.308 66.5018C315.676 66.4546 315.974 66.4191 316.202 66.3955C316.433 66.3692 316.601 66.3259 316.706 66.2655C316.814 66.2051 316.868 66.1001 316.868 65.9504V65.9189C316.868 65.5303 316.761 65.2284 316.549 65.013C316.339 64.7977 316.02 64.6901 315.592 64.6901C315.148 64.6901 314.8 64.7872 314.548 64.9815C314.296 65.1758 314.119 65.3833 314.016 65.6038L313.134 65.2887C313.291 64.9211 313.501 64.6349 313.764 64.4301C314.029 64.2227 314.318 64.0783 314.631 63.9969C314.946 63.9129 315.255 63.8708 315.56 63.8708C315.754 63.8708 315.978 63.8945 316.23 63.9417C316.484 63.9864 316.73 64.0796 316.966 64.2214C317.205 64.3632 317.403 64.5772 317.561 64.8634C317.718 65.1496 317.797 65.5329 317.797 66.0135V69.9993H316.868V69.1801H316.82C316.757 69.3114 316.652 69.4519 316.505 69.6015C316.358 69.7512 316.163 69.8785 315.918 69.9836C315.674 70.0886 315.376 70.1411 315.024 70.1411ZM315.166 69.3061C315.534 69.3061 315.844 69.2339 316.096 69.0895C316.35 68.9451 316.542 68.7587 316.671 68.5302C316.802 68.3018 316.868 68.0615 316.868 67.8095V66.9587C316.828 67.006 316.742 67.0493 316.608 67.0887C316.476 67.1255 316.324 67.1583 316.151 67.1872C315.98 67.2134 315.813 67.237 315.651 67.2581C315.49 67.2764 315.36 67.2922 315.261 67.3053C315.019 67.3368 314.793 67.388 314.583 67.4589C314.376 67.5272 314.208 67.6309 314.079 67.7701C313.953 67.9066 313.89 68.093 313.89 68.3294C313.89 68.6523 314.01 68.8965 314.248 69.0619C314.49 69.2247 314.796 69.3061 315.166 69.3061Z" fill="#97979B"/>
<path d="M311.417 61.9333V69.9996H310.472L306.076 63.6663H305.997V69.9996H305.021V61.9333H305.966L310.377 68.2824H310.456V61.9333H311.417Z" fill="#97979B"/>
</g>
</g>
</g>
</g>
</g>
<defs>
<filter id="filter0_f_164_61198" x="161.253" y="-22.5911" width="108.975" height="135.169" filterUnits="userSpaceOnUse" color-interpolation-filters="sRGB">
<feFlood flood-opacity="0" result="BackgroundImageFix"/>
<feBlend mode="normal" in="SourceGraphic" in2="BackgroundImageFix" result="shape"/>
<feGaussianBlur stdDeviation="18" result="effect1_foregroundBlur_164_61198"/>
</filter>
<clipPath id="bgblur_3_164_61198_clip_path" transform="translate(-208.2 -17.2)"><rect x="210.45" y="19.45" width="238.1" height="201.1" rx="10.35"/>
</clipPath><radialGradient id="paint0_radial_164_61198" cx="0" cy="0" r="1" gradientTransform="matrix(98.55 146.812 -198.223 133.178 32.1621 103.776)" gradientUnits="userSpaceOnUse">
<stop stop-color="#D9D9D9" stop-opacity="0.4"/>
<stop offset="1" stop-color="#737373" stop-opacity="0"/>
</radialGradient>
<linearGradient id="paint1_linear_164_61198" x1="29.125" y1="112.55" x2="200.237" y2="112.888" gradientUnits="userSpaceOnUse">
<stop stop-color="#D9D9D9"/>
<stop offset="1" stop-color="#737373" stop-opacity="0"/>
</linearGradient>
<linearGradient id="paint2_linear_164_61198" x1="121" y1="140" x2="193" y2="140" gradientUnits="userSpaceOnUse">
<stop stop-color="#EDEDF0"/>
<stop offset="1" stop-color="#FAFAFB"/>
</linearGradient>
<linearGradient id="paint3_linear_164_61198" x1="121" y1="166" x2="193" y2="166" gradientUnits="userSpaceOnUse">
<stop stop-color="#EDEDF0"/>
<stop offset="1" stop-color="#FAFAFB"/>
</linearGradient>
<linearGradient id="paint4_linear_164_61198" x1="29" y1="140" x2="101" y2="140" gradientUnits="userSpaceOnUse">
<stop stop-color="#EDEDF0"/>
<stop offset="1" stop-color="#FAFAFB"/>
</linearGradient>
<linearGradient id="paint5_linear_164_61198" x1="29" y1="166" x2="101" y2="166" gradientUnits="userSpaceOnUse">
<stop stop-color="#EDEDF0"/>
<stop offset="1" stop-color="#FAFAFB"/>
</linearGradient>
<linearGradient id="paint6_linear_164_61198" x1="112" y1="56.0476" x2="186.707" y2="94.556" gradientUnits="userSpaceOnUse">
<stop stop-color="#FD366E"/>
<stop offset="1" stop-color="#FD535C" stop-opacity="0"/>
</linearGradient>
<linearGradient id="paint7_linear_164_61198" x1="105.688" y1="117.45" x2="177.44" y2="156.935" gradientUnits="userSpaceOnUse">
<stop stop-color="#FD535C"/>
<stop offset="1" stop-color="#FD535C" stop-opacity="0"/>
</linearGradient>
<radialGradient id="paint8_radial_164_61198" cx="0" cy="0" r="1" gradientTransform="matrix(-20.0748 40.0287 -11.3183 -3.64118 220.302 36.3825)" gradientUnits="userSpaceOnUse">
<stop offset="1" stop-color="#F02E65"/>
</radialGradient>
<linearGradient id="paint9_linear_164_61198" x1="155.468" y1="83.7582" x2="233.908" y2="121.453" gradientUnits="userSpaceOnUse">
<stop stop-color="#FD366E"/>
<stop offset="0.45" stop-color="#FE9567"/>
<stop offset="1" stop-color="#FE9567" stop-opacity="0"/>
</linearGradient>
<radialGradient id="paint10_radial_164_61198" cx="0" cy="0" r="1" gradientTransform="matrix(98.55 146.812 -198.223 133.178 225.483 57.8249)" gradientUnits="userSpaceOnUse">
<stop stop-color="#D9D9D9" stop-opacity="0.4"/>
<stop offset="1" stop-color="#737373" stop-opacity="0"/>
</radialGradient>
<linearGradient id="paint11_linear_164_61198" x1="222.446" y1="66.5997" x2="393.558" y2="66.9372" gradientUnits="userSpaceOnUse">
<stop stop-color="#D9D9D9"/>
<stop offset="1" stop-color="#737373" stop-opacity="0"/>
</linearGradient>
<clipPath id="clip0_164_61198">
<rect width="347" height="194" fill="white"/>
</clipPath>
<clipPath id="clip1_164_61198">
<path d="M-12 8C-12 3.58172 -8.41828 0 -4 0H360V281H-4.00001C-8.41829 281 -12 277.418 -12 273V8Z" fill="white"/>
</clipPath>
<clipPath id="clip2_164_61198">
<rect width="372" height="281" fill="white" transform="translate(-12)"/>
</clipPath>
<clipPath id="clip4_164_61198">
<rect width="12.6" height="12.6" fill="white" transform="translate(223.121 59.7373)"/>
</clipPath>
</defs>
</svg>
