<svg width="440" height="247" viewBox="0 0 440 247" fill="none" xmlns="http://www.w3.org/2000/svg">
<path d="M4.31561 151.736L100.211 32.4054L206.655 32.4055L296.269 112.085L407.064 117.466L334.768 209.5L185.768 209.5L105.745 152.833L4.31561 151.736Z" fill="url(#paint0_linear_1231_52926)"/>
<path d="M111.268 151.205L206.935 32L293.268 109.133L218.784 209.5H206.5H186.5L111.268 151.205Z" fill="url(#paint1_linear_1231_52926)"/>
<path d="M135.662 54.7933C124.451 45.9098 93.7932 54.24 79 59.5L100.5 32H205.735L237.268 59.4689C227.925 61.6118 215.662 70.7271 191.137 75.2489C168.947 79.34 149.677 65.8978 135.662 54.7933Z" fill="#1F202E" fill-opacity="0.25"/>
<g filter="url(#filter0_d_1231_52926)">
<ellipse rx="18.3575" ry="24.1091" transform="matrix(0.977376 0.227267 -0.161319 0.994776 234.395 52.9545)" fill="url(#paint2_linear_1231_52926)"/>
</g>
<ellipse rx="16.5001" ry="24.1091" transform="matrix(0.977376 0.227267 -0.161319 0.994776 236.754 52.4047)" fill="url(#paint3_linear_1231_52926)"/>
<g filter="url(#filter1_d_1231_52926)">
<path d="M27.3249 123.511C27.3249 123.511 13.3942 140.944 5.26807 151.985L107.426 153.147L186.768 210C119.437 156.539 130.643 135.133 112.069 126.416C93.4952 117.7 81.3059 136.876 60.41 126.416C50.3297 121.37 49.9621 96.1989 27.3249 123.511Z" fill="#14141F" fill-opacity="0.24" shape-rendering="crispEdges"/>
</g>
<path d="M332.02 139.835C326.926 129.501 334.142 118.306 338.387 114L407.268 117.523L361.541 178C361.734 174.868 361.425 167.079 358.646 160.972C355.174 153.339 338.387 152.752 332.02 139.835Z" fill="#20202F" fill-opacity="0.26"/>
<path fill-rule="evenodd" clip-rule="evenodd" d="M112.268 102.003C112.254 101.998 114.59 100.495 114.6 100.498L115.773 92C116.216 92.1269 116.767 92.2856 117.389 92.4717C124.19 94.505 131.302 97.3468 135.797 102.84C139.615 107.506 142.197 112.378 144.337 116.758C144.859 117.827 145.346 118.845 145.813 119.82C147.343 123.02 148.651 125.756 150.274 128.338C152.268 131.508 154.51 135.195 157.642 137.125C160.807 139.075 165.294 140.676 172.126 141.336C187.593 142.828 196.98 133.733 208.506 123.73L208.815 123.462C219.962 113.786 233.238 102.263 254.678 104.617C269.145 106.205 278.684 112.054 285 119.693C291.11 127.083 293.79 135.684 295.552 141.876C296.301 144.507 296.915 147.728 297.513 150.865C297.687 151.782 297.861 152.691 298.036 153.577C298.856 157.728 299.796 161.883 301.215 165.77C304.008 173.415 308.364 179.351 316.74 181.784C332.498 186.363 371.936 158.82 378.268 156.071L367.234 169.872C361.426 176.867 332.739 199.785 313.187 194.104C299.493 190.125 292.815 180.029 289.219 170.185C287.445 165.327 286.352 160.372 285.503 156.071C285.275 154.916 285.068 153.834 284.874 152.818C284.305 149.841 283.845 147.429 283.267 145.4C281.545 139.35 279.437 131.881 275.168 126.718C271.104 121.803 264.672 117.45 253.288 116.2C237.757 114.495 228.344 123.468 216.863 133.432C216.666 133.603 216.468 133.775 216.27 133.947C205.226 143.538 192.053 154.978 170.903 152.936C162.634 152.138 156.16 150.095 150.958 146.89C145.723 143.664 142.194 139.517 139.469 135.182C137.412 131.91 135.679 128.279 134.094 124.96C133.675 124.082 133.267 123.226 132.865 122.405C130.849 118.277 128.785 114.477 125.924 110.981C123.618 108.163 121.275 105.908 119.283 104.315C118.287 103.519 117.425 102.925 116.745 102.519C116.141 102.159 112.332 102.029 112.268 102.003Z" fill="#14141F" fill-opacity="0.26"/>
<g opacity="0.8">
<g filter="url(#filter2_d_1231_52926)">
<path d="M111.45 100.781C112.389 101.947 115.352 103.048 115.646 102.951C115.842 103.048 116.409 103.067 117.114 102.368C117.995 101.493 129.156 82.5439 133.562 73.2151C137.968 63.8862 137.38 59.8048 136.793 54.5574C136.205 49.3099 130.625 42.6048 126.219 41.4386C121.813 40.2725 132.383 57.5501 122.103 65.7128C111.823 73.8756 97.1421 64.1777 98.0232 69.4252C98.9044 74.6727 110.275 99.323 111.45 100.781Z" fill="#C00D53"/>
</g>
<path fill-rule="evenodd" clip-rule="evenodd" d="M112.094 101.175C111.8 101.272 110.978 101.175 110.038 100.009C108.863 98.5512 95.3523 72.8969 94.4711 67.6494C93.59 62.4019 91.9003 52.2977 101.24 43.074C108.211 36.1893 118.261 38.4967 122.667 39.6628C127.073 40.8289 132.653 47.534 133.241 52.7815C133.254 52.902 133.268 53.0219 133.281 53.1412C133.852 58.2192 134.314 62.3246 130.01 71.4392C125.604 80.7681 114.443 99.7174 113.562 100.592C112.857 101.292 112.289 101.272 112.094 101.175ZM112.338 69.2639C117.731 69.2639 122.103 64.2954 122.103 58.1665C122.103 52.0376 117.731 47.0691 112.338 47.0691C106.944 47.0691 102.572 52.0376 102.572 58.1665C102.572 64.2954 106.944 69.2639 112.338 69.2639Z" fill="url(#paint4_linear_1231_52926)"/>
<path d="M103.459 63.0493C105.396 68.3761 109.674 69.2639 112.337 69.2639C108.342 66.1566 107.277 63.8483 106.566 61.7176C105.974 59.9421 105.691 58.1019 106.566 53.7275C107.01 51.508 109.525 47.661 111.005 47.0691C109.673 47.2171 106.123 48.2232 104.347 51.0642C102.127 54.6153 101.683 58.1665 103.459 63.0493Z" fill="#C00D53"/>
</g>
<path fill-rule="evenodd" clip-rule="evenodd" d="M231.342 62.8294L230.26 52.5305L233.484 52.1662L238.045 66.9301L235.153 68.2596L231.342 62.8294Z" fill="url(#paint5_linear_1231_52926)"/>
<path fill-rule="evenodd" clip-rule="evenodd" d="M230.214 52.4743L233.025 51.1819L235.953 51.9154L242.593 56.0626L239.773 57.3588L230.844 58.2284L230.214 52.4743Z" fill="#252736"/>
<path fill-rule="evenodd" clip-rule="evenodd" d="M229.316 43.572L229.916 49.3854L243.818 48.0316L246.622 46.7428L239.978 42.5598L232.141 42.2734L229.316 43.572Z" fill="url(#paint6_linear_1231_52926)"/>
<path fill-rule="evenodd" clip-rule="evenodd" d="M234.195 61.5175L233.113 51.2186L236.337 50.8543L238.006 66.9478L234.195 61.5175Z" fill="#6B7284"/>
<path fill-rule="evenodd" clip-rule="evenodd" d="M233.071 51.1628L238.81 50.6038L242.63 56.0473L233.701 56.9168L233.071 51.1628Z" fill="#6A7183"/>
<path fill-rule="evenodd" clip-rule="evenodd" d="M232.171 42.26L232.772 48.0734L246.674 46.7196L242.834 41.2479L232.171 42.26Z" fill="url(#paint7_linear_1231_52926)"/>
<g filter="url(#filter3_d_1231_52926)">
<ellipse cx="41.7681" cy="96" rx="19.5" ry="22" fill="#232634"/>
</g>
<ellipse cx="37.7681" cy="95.5" rx="19.5" ry="21.5" fill="url(#paint8_linear_1231_52926)"/>
<ellipse cx="233.768" cy="176.5" rx="18.5" ry="20.5" fill="url(#paint9_linear_1231_52926)"/>
<g filter="url(#filter4_d_1231_52926)">
<ellipse cx="236.768" cy="176.5" rx="17.5" ry="20.5" fill="url(#paint10_linear_1231_52926)"/>
</g>
<path fill-rule="evenodd" clip-rule="evenodd" d="M238.026 182.679L235.159 183.426L235.534 186.535C235.615 187.203 235.169 187.877 234.538 188.041C233.908 188.205 233.331 187.797 233.251 187.129L232.876 184.021L232.82 184.035C232.035 184.24 231.322 183.723 231.22 182.878L230.272 175.018C230.267 174.971 230.264 174.924 230.262 174.877L240.627 172.178C240.636 172.222 240.643 172.269 240.649 172.315L241.597 180.175C241.699 181.02 241.149 181.866 240.365 182.07L240.31 182.085L240.684 185.194C240.765 185.862 240.319 186.536 239.689 186.7C239.058 186.865 238.482 186.456 238.401 185.788L238.026 182.679ZM229.793 176.968C229.713 176.301 229.137 175.892 228.506 176.056C227.876 176.221 227.43 176.895 227.51 177.563L228.136 182.751C228.216 183.419 228.793 183.827 229.423 183.663C230.054 183.499 230.499 182.824 230.419 182.156L229.793 176.968ZM243.839 173.31C243.758 172.642 243.182 172.234 242.552 172.398C241.921 172.562 241.475 173.237 241.556 173.905L242.181 179.093C242.262 179.76 242.838 180.169 243.469 180.004C244.099 179.84 244.545 179.166 244.464 178.498L243.839 173.31ZM234.247 168.506C231.725 169.432 229.975 171.93 230.234 174.352L240.53 171.671C240.207 169.265 237.98 167.803 235.395 168.208L234.247 168.506Z" fill="url(#paint11_linear_1231_52926)"/>
<path d="M232.618 171.247C232.66 171.584 232.429 171.927 232.103 172.013C231.777 172.099 231.479 171.895 231.438 171.558L231.437 171.555C231.396 171.217 231.626 170.874 231.952 170.788C232.278 170.703 232.576 170.906 232.618 171.244L232.618 171.247ZM237.027 170.099C237.069 170.436 236.838 170.779 236.512 170.865C236.186 170.951 235.888 170.747 235.846 170.41L235.846 170.406C235.804 170.069 236.035 169.726 236.361 169.64C236.687 169.554 236.985 169.758 237.027 170.095L237.027 170.099Z" fill="white"/>
<path fill-rule="evenodd" clip-rule="evenodd" d="M237.786 181.592L234.919 182.339L235.294 185.448C235.374 186.116 234.928 186.79 234.298 186.954C233.668 187.119 233.091 186.71 233.011 186.043L232.636 182.933L232.579 182.948C231.795 183.152 231.081 182.636 230.98 181.791L230.032 173.931C230.026 173.884 230.024 173.837 230.022 173.79L240.387 171.09C240.396 171.135 240.403 171.181 240.409 171.228L241.356 179.088C241.458 179.933 240.909 180.779 240.125 180.983L240.069 180.997L240.444 184.107C240.525 184.775 240.079 185.449 239.448 185.613C238.818 185.777 238.242 185.369 238.161 184.701L237.786 181.592ZM229.553 175.881C229.473 175.214 228.896 174.805 228.266 174.969C227.635 175.134 227.189 175.808 227.27 176.476L227.896 181.664C227.976 182.332 228.552 182.74 229.183 182.576C229.813 182.412 230.259 181.737 230.179 181.069L229.553 175.881ZM243.599 172.223C243.518 171.555 242.942 171.147 242.311 171.311C241.681 171.475 241.235 172.15 241.316 172.818L241.941 178.006C242.021 178.673 242.598 179.082 243.228 178.917C243.859 178.753 244.305 178.079 244.224 177.411L243.599 172.223ZM234.007 167.419C231.485 168.345 229.735 170.843 229.994 173.265L240.29 170.584C239.967 168.178 237.739 166.716 235.154 167.121L234.007 167.419Z" fill="url(#paint12_linear_1231_52926)"/>
<path d="M229.802 168.275L231.272 170.171L229.802 168.275ZM239.304 165.8L238.366 168.323L239.304 165.8Z" fill="#72798A"/>
<path fill-rule="evenodd" clip-rule="evenodd" d="M229.538 167.936C229.781 167.767 230.096 167.783 230.241 167.97L231.712 169.866C231.857 170.053 231.778 170.342 231.535 170.51C231.292 170.678 230.978 170.663 230.833 170.475L229.362 168.58C229.217 168.392 229.296 168.104 229.538 167.936ZM239.471 165.349C239.739 165.384 239.88 165.615 239.788 165.864L238.85 168.387C238.757 168.637 238.465 168.81 238.198 168.775C237.931 168.739 237.789 168.508 237.882 168.259L238.82 165.736C238.912 165.486 239.204 165.313 239.471 165.349Z" fill="#737A8B"/>
<path d="M233.347 170.161C233.389 170.498 233.158 170.841 232.832 170.927C232.506 171.013 232.208 170.809 232.166 170.472L232.166 170.469C232.124 170.131 232.355 169.788 232.681 169.702C233.007 169.617 233.305 169.82 233.346 170.158L233.347 170.161ZM237.756 169.013C237.797 169.35 237.567 169.693 237.241 169.779C236.914 169.865 236.616 169.661 236.575 169.324L236.574 169.32C236.533 168.983 236.763 168.64 237.089 168.554C237.415 168.468 237.714 168.672 237.755 169.009L237.756 169.013Z" fill="#212331"/>
<g filter="url(#filter5_f_1231_52926)">
<path d="M31.6753 89.5471L34.2366 90.0566L31.163 93.577L34.2366 98.4184L31.7484 97.9235L28.6748 93.1804L31.6753 89.5471Z" fill="#A3A8BD" fill-opacity="0.44"/>
</g>
<g filter="url(#filter6_f_1231_52926)">
<path d="M46.3125 92.3595L43.7512 91.85L46.8248 96.5931L43.7512 100.212L46.2394 100.707L49.313 97.1864L46.3125 92.3595Z" fill="#A3A8BD" fill-opacity="0.44"/>
</g>
<g filter="url(#filter7_f_1231_52926)">
<path d="M40.0926 84.2358L41.9953 84.6143L38.1898 105.106L36.2871 104.728L40.0926 84.2358Z" fill="#A3A8BD" fill-opacity="0.44"/>
</g>
<path fill-rule="evenodd" clip-rule="evenodd" d="M33.3357 90.4324L30.7744 89.9229L27.7739 93.5561L30.8476 98.2992L31.5054 98.4301L29.5309 98.6272L31.9459 99.1075L33.3353 98.7941L33.3357 98.7942L33.3356 98.794L33.3363 98.7939L33.3354 98.7937L30.2621 93.9527L33.3357 90.4324Z" fill="url(#paint13_linear_1231_52926)"/>
<path fill-rule="evenodd" clip-rule="evenodd" d="M42.8511 92.2256L45.4125 92.735L48.4129 97.562L45.3393 101.082L42.8511 100.587L45.9248 96.9686L42.8511 92.2256ZM41.5312 100.916L44.0194 101.411L45.3367 101.083L44.3853 100.893L41.5312 100.916Z" fill="url(#paint14_linear_1231_52926)"/>
<path fill-rule="evenodd" clip-rule="evenodd" d="M41.0951 84.9894L39.1924 84.6109L35.3869 105.103L37.2896 105.481L41.0951 84.9894ZM34.0684 105.432L36.0443 105.234L37.2884 105.482L36.0443 105.825L34.0684 105.432Z" fill="url(#paint15_linear_1231_52926)"/>
<path d="M29.458 90.2505L32.0193 90.76L28.9457 94.2803L32.0193 99.1218L29.5312 98.6269L26.4575 93.8838L29.458 90.2505Z" fill="url(#paint16_linear_1231_52926)"/>
<path d="M44.0938 93.0633L41.5324 92.5538L44.6061 97.2969L41.5324 100.916L44.0206 101.411L47.0942 97.8902L44.0938 93.0633Z" fill="url(#paint17_linear_1231_52926)"/>
<path d="M37.8738 84.9401L39.7765 85.3185L35.9711 105.81L34.0684 105.432L37.8738 84.9401Z" fill="url(#paint18_linear_1231_52926)"/>
<path d="M30.7763 89.9224L29.459 90.2506L32.0203 90.7601L33.3376 90.4319L30.7763 89.9224Z" fill="url(#paint19_linear_1231_52926)"/>
<path d="M39.1918 84.6119L37.8745 84.9401L39.7772 85.3186L41.0945 84.9904L39.1918 84.6119Z" fill="url(#paint20_linear_1231_52926)"/>
<path d="M42.8485 92.2263L41.5312 92.5545L44.0926 93.064L45.4099 92.7357L42.8485 92.2263Z" fill="url(#paint21_linear_1231_52926)"/>
<g filter="url(#filter8_d_1231_52926)">
<ellipse rx="27.6597" ry="29.6713" transform="matrix(0.348485 -0.937314 0.945449 0.32577 385.188 142.619)" fill="#252736"/>
</g>
<ellipse rx="27.6597" ry="29.6713" transform="matrix(0.348485 -0.937314 0.945449 0.32577 386.576 137.816)" fill="url(#paint22_linear_1231_52926)"/>
<path d="M377.235 145.301L369.768 121.5L393.607 128.452L402.392 154.837L377.235 145.301Z" fill="#878E9F"/>
<path d="M377.253 145.743L369.268 121L393.283 128.507L383.346 137.103L377.253 145.743Z" fill="#C4295C"/>
<path d="M377.253 145.743L369.268 121L383.346 137.103L377.253 145.743Z" fill="#A2144F"/>
<path d="M377.25 145.744L402.479 155.078L383.143 136.981L377.25 145.744Z" fill="#616B7C"/>
<defs>
<filter id="filter0_d_1231_52926" x="212.033" y="28.6072" width="44.7251" height="56.6947" filterUnits="userSpaceOnUse" color-interpolation-filters="sRGB">
<feFlood flood-opacity="0" result="BackgroundImageFix"/>
<feColorMatrix in="SourceAlpha" type="matrix" values="0 0 0 0 0 0 0 0 0 0 0 0 0 0 0 0 0 0 127 0" result="hardAlpha"/>
<feOffset dy="4"/>
<feGaussianBlur stdDeviation="2"/>
<feComposite in2="hardAlpha" operator="out"/>
<feColorMatrix type="matrix" values="0 0 0 0 0 0 0 0 0 0 0 0 0 0 0 0 0 0 0.05 0"/>
<feBlend mode="normal" in2="BackgroundImageFix" result="effect1_dropShadow_1231_52926"/>
<feBlend mode="normal" in="SourceGraphic" in2="effect1_dropShadow_1231_52926" result="shape"/>
</filter>
<filter id="filter1_d_1231_52926" x="1.26807" y="111" width="189.5" height="107" filterUnits="userSpaceOnUse" color-interpolation-filters="sRGB">
<feFlood flood-opacity="0" result="BackgroundImageFix"/>
<feColorMatrix in="SourceAlpha" type="matrix" values="0 0 0 0 0 0 0 0 0 0 0 0 0 0 0 0 0 0 127 0" result="hardAlpha"/>
<feOffset dy="4"/>
<feGaussianBlur stdDeviation="2"/>
<feComposite in2="hardAlpha" operator="out"/>
<feColorMatrix type="matrix" values="0 0 0 0 0 0 0 0 0 0 0 0 0 0 0 0 0 0 0.25 0"/>
<feBlend mode="normal" in2="BackgroundImageFix" result="effect1_dropShadow_1231_52926"/>
<feBlend mode="normal" in="SourceGraphic" in2="effect1_dropShadow_1231_52926" result="shape"/>
</filter>
<filter id="filter2_d_1231_52926" x="61.9854" y="19.3824" width="93.2104" height="115.618" filterUnits="userSpaceOnUse" color-interpolation-filters="sRGB">
<feFlood flood-opacity="0" result="BackgroundImageFix"/>
<feColorMatrix in="SourceAlpha" type="matrix" values="0 0 0 0 0 0 0 0 0 0 0 0 0 0 0 0 0 0 127 0" result="hardAlpha"/>
<feOffset dx="-9" dy="5"/>
<feGaussianBlur stdDeviation="13.5"/>
<feComposite in2="hardAlpha" operator="out"/>
<feColorMatrix type="matrix" values="0 0 0 0 0 0 0 0 0 0 0 0 0 0 0 0 0 0 0.14 0"/>
<feBlend mode="normal" in2="BackgroundImageFix" result="effect1_dropShadow_1231_52926"/>
<feBlend mode="normal" in="SourceGraphic" in2="effect1_dropShadow_1231_52926" result="shape"/>
</filter>
<filter id="filter3_d_1231_52926" x="15.2681" y="63" width="69" height="74" filterUnits="userSpaceOnUse" color-interpolation-filters="sRGB">
<feFlood flood-opacity="0" result="BackgroundImageFix"/>
<feColorMatrix in="SourceAlpha" type="matrix" values="0 0 0 0 0 0 0 0 0 0 0 0 0 0 0 0 0 0 127 0" result="hardAlpha"/>
<feOffset dx="8" dy="4"/>
<feGaussianBlur stdDeviation="7.5"/>
<feComposite in2="hardAlpha" operator="out"/>
<feColorMatrix type="matrix" values="0 0 0 0 0 0 0 0 0 0 0 0 0 0 0 0 0 0 0.05 0"/>
<feBlend mode="normal" in2="BackgroundImageFix" result="effect1_dropShadow_1231_52926"/>
<feBlend mode="normal" in="SourceGraphic" in2="effect1_dropShadow_1231_52926" result="shape"/>
</filter>
<filter id="filter4_d_1231_52926" x="218.268" y="153" width="49" height="55" filterUnits="userSpaceOnUse" color-interpolation-filters="sRGB">
<feFlood flood-opacity="0" result="BackgroundImageFix"/>
<feColorMatrix in="SourceAlpha" type="matrix" values="0 0 0 0 0 0 0 0 0 0 0 0 0 0 0 0 0 0 127 0" result="hardAlpha"/>
<feOffset dx="6" dy="4"/>
<feGaussianBlur stdDeviation="3.5"/>
<feComposite in2="hardAlpha" operator="out"/>
<feColorMatrix type="matrix" values="0 0 0 0 0 0 0 0 0 0 0 0 0 0 0 0 0 0 0.05 0"/>
<feBlend mode="normal" in2="BackgroundImageFix" result="effect1_dropShadow_1231_52926"/>
<feBlend mode="normal" in="SourceGraphic" in2="effect1_dropShadow_1231_52926" result="shape"/>
</filter>
<filter id="filter5_f_1231_52926" x="16.6748" y="77.5471" width="29.562" height="32.8713" filterUnits="userSpaceOnUse" color-interpolation-filters="sRGB">
<feFlood flood-opacity="0" result="BackgroundImageFix"/>
<feBlend mode="normal" in="SourceGraphic" in2="BackgroundImageFix" result="shape"/>
<feGaussianBlur stdDeviation="6" result="effect1_foregroundBlur_1231_52926"/>
</filter>
<filter id="filter6_f_1231_52926" x="31.751" y="79.85" width="29.562" height="32.8567" filterUnits="userSpaceOnUse" color-interpolation-filters="sRGB">
<feFlood flood-opacity="0" result="BackgroundImageFix"/>
<feBlend mode="normal" in="SourceGraphic" in2="BackgroundImageFix" result="shape"/>
<feGaussianBlur stdDeviation="6" result="effect1_foregroundBlur_1231_52926"/>
</filter>
<filter id="filter7_f_1231_52926" x="24.2871" y="72.2358" width="29.708" height="44.8704" filterUnits="userSpaceOnUse" color-interpolation-filters="sRGB">
<feFlood flood-opacity="0" result="BackgroundImageFix"/>
<feBlend mode="normal" in="SourceGraphic" in2="BackgroundImageFix" result="shape"/>
<feGaussianBlur stdDeviation="6" result="effect1_foregroundBlur_1231_52926"/>
</filter>
<filter id="filter8_d_1231_52926" x="330.518" y="93.9429" width="109.341" height="105.353" filterUnits="userSpaceOnUse" color-interpolation-filters="sRGB">
<feFlood flood-opacity="0" result="BackgroundImageFix"/>
<feColorMatrix in="SourceAlpha" type="matrix" values="0 0 0 0 0 0 0 0 0 0 0 0 0 0 0 0 0 0 127 0" result="hardAlpha"/>
<feOffset dy="4"/>
<feGaussianBlur stdDeviation="12.5"/>
<feComposite in2="hardAlpha" operator="out"/>
<feColorMatrix type="matrix" values="0 0 0 0 0 0 0 0 0 0 0 0 0 0 0 0 0 0 0.05 0"/>
<feBlend mode="normal" in2="BackgroundImageFix" result="effect1_dropShadow_1231_52926"/>
<feBlend mode="normal" in="SourceGraphic" in2="effect1_dropShadow_1231_52926" result="shape"/>
</filter>
<linearGradient id="paint0_linear_1231_52926" x1="266.268" y1="72" x2="160.5" y2="281" gradientUnits="userSpaceOnUse">
<stop stop-color="#4F5769"/>
<stop offset="1" stop-color="#282A3B"/>
</linearGradient>
<linearGradient id="paint1_linear_1231_52926" x1="493.935" y1="-101.229" x2="201.71" y2="225.501" gradientUnits="userSpaceOnUse">
<stop stop-color="#373B4D"/>
<stop offset="1" stop-color="#35394C"/>
</linearGradient>
<linearGradient id="paint2_linear_1231_52926" x1="18.3575" y1="0" x2="18.3575" y2="48.2182" gradientUnits="userSpaceOnUse">
<stop stop-color="#252736"/>
<stop offset="1" stop-color="#212432"/>
</linearGradient>
<linearGradient id="paint3_linear_1231_52926" x1="30.7594" y1="-1.16833" x2="44.1446" y2="50.3452" gradientUnits="userSpaceOnUse">
<stop stop-color="#464C5B"/>
<stop offset="1" stop-color="#3E4453"/>
</linearGradient>
<linearGradient id="paint4_linear_1231_52926" x1="185.58" y1="153.16" x2="84.7681" y2="46.5" gradientUnits="userSpaceOnUse">
<stop stop-color="#DA1A5B"/>
<stop offset="1" stop-color="#F02E65"/>
</linearGradient>
<linearGradient id="paint5_linear_1231_52926" x1="235.209" y1="54.624" x2="228.759" y2="59.1498" gradientUnits="userSpaceOnUse">
<stop stop-color="#242735"/>
<stop offset="1" stop-color="#252736"/>
</linearGradient>
<linearGradient id="paint6_linear_1231_52926" x1="238.739" y1="40.7932" x2="228.787" y2="47.7768" gradientUnits="userSpaceOnUse">
<stop stop-color="#222534"/>
<stop offset="1" stop-color="#252736"/>
</linearGradient>
<linearGradient id="paint7_linear_1231_52926" x1="241.594" y1="39.4811" x2="231.643" y2="46.4647" gradientUnits="userSpaceOnUse">
<stop stop-color="#6D7486"/>
<stop offset="1" stop-color="#61697B"/>
</linearGradient>
<linearGradient id="paint8_linear_1231_52926" x1="80.7681" y1="74" x2="37.7681" y2="117" gradientUnits="userSpaceOnUse">
<stop stop-color="#535A6A"/>
<stop offset="1" stop-color="#353947"/>
</linearGradient>
<linearGradient id="paint9_linear_1231_52926" x1="218.268" y1="156" x2="233.566" y2="197.075" gradientUnits="userSpaceOnUse">
<stop stop-color="#252736"/>
<stop offset="1" stop-color="#202230"/>
</linearGradient>
<linearGradient id="paint10_linear_1231_52926" x1="230.268" y1="148" x2="270.066" y2="232.499" gradientUnits="userSpaceOnUse">
<stop stop-color="#555C6D"/>
<stop offset="1" stop-color="#343947"/>
</linearGradient>
<linearGradient id="paint11_linear_1231_52926" x1="243.131" y1="173.843" x2="227.383" y2="171.852" gradientUnits="userSpaceOnUse">
<stop stop-color="#2F3342"/>
<stop offset="1" stop-color="#252736"/>
</linearGradient>
<linearGradient id="paint12_linear_1231_52926" x1="230.268" y1="168.5" x2="244.559" y2="182.69" gradientUnits="userSpaceOnUse">
<stop stop-color="#878E9F"/>
<stop offset="1" stop-color="#61687A"/>
</linearGradient>
<linearGradient id="paint13_linear_1231_52926" x1="31.7681" y1="80.5" x2="25.8125" y2="113.809" gradientUnits="userSpaceOnUse">
<stop stop-color="#2E3141"/>
<stop offset="1" stop-color="#282A3B"/>
</linearGradient>
<linearGradient id="paint14_linear_1231_52926" x1="47.1817" y1="91.0999" x2="35.8709" y2="103.575" gradientUnits="userSpaceOnUse">
<stop stop-color="#353A48"/>
<stop offset="1" stop-color="#232634"/>
</linearGradient>
<linearGradient id="paint15_linear_1231_52926" x1="39.4591" y1="84.331" x2="22.9713" y2="115.934" gradientUnits="userSpaceOnUse">
<stop stop-color="#2B2E3F"/>
<stop offset="1" stop-color="#282A3B"/>
</linearGradient>
<linearGradient id="paint16_linear_1231_52926" x1="30.8078" y1="91.7887" x2="26.9283" y2="90.2084" gradientUnits="userSpaceOnUse">
<stop stop-color="#686F82"/>
<stop offset="1" stop-color="#5C6476"/>
</linearGradient>
<linearGradient id="paint17_linear_1231_52926" x1="48.9623" y1="98.159" x2="47.1026" y2="94.5424" gradientUnits="userSpaceOnUse">
<stop stop-color="#5C6476"/>
<stop offset="1" stop-color="#7B8295"/>
</linearGradient>
<linearGradient id="paint18_linear_1231_52926" x1="47.7681" y1="83.5" x2="28.1783" y2="83.1406" gradientUnits="userSpaceOnUse">
<stop offset="0.230229" stop-color="#7B8195"/>
<stop offset="1" stop-color="#4F5769"/>
</linearGradient>
<linearGradient id="paint19_linear_1231_52926" x1="29.8269" y1="89.5635" x2="32.5154" y2="92.8915" gradientUnits="userSpaceOnUse">
<stop stop-color="#A3A8BD"/>
<stop offset="1" stop-color="#282A3B"/>
</linearGradient>
<linearGradient id="paint20_linear_1231_52926" x1="36.2681" y1="84.5" x2="39.9621" y2="87.3652" gradientUnits="userSpaceOnUse">
<stop stop-color="#A3A8BD"/>
<stop offset="1" stop-color="#5A6274"/>
</linearGradient>
<linearGradient id="paint21_linear_1231_52926" x1="37.7681" y1="92" x2="43.8961" y2="96.7414" gradientUnits="userSpaceOnUse">
<stop stop-color="#A3A8BD"/>
<stop offset="1" stop-color="#6D7487"/>
</linearGradient>
<linearGradient id="paint22_linear_1231_52926" x1="-3.75986" y1="47.2723" x2="64.3961" y2="-4.08875" gradientUnits="userSpaceOnUse">
<stop stop-color="#404756"/>
<stop offset="1" stop-color="#6C7285"/>
</linearGradient>
</defs>
</svg>
