<svg width="1170" height="388" viewBox="0 0 1170 388" fill="none" xmlns="http://www.w3.org/2000/svg">
<g filter="url(#filter0_d_1297_52063)">
<rect x="796" width="374" height="340" rx="16" fill="white"/>
<rect x="796" width="374" height="340" rx="16" stroke="#F2F2F8"/>
</g>
<path d="M830.138 133.958V133.191L833.018 130.038C833.357 129.668 833.635 129.347 833.854 129.074C834.072 128.799 834.234 128.54 834.339 128.299C834.447 128.055 834.501 127.799 834.501 127.532C834.501 127.225 834.428 126.959 834.28 126.735C834.135 126.511 833.936 126.337 833.683 126.215C833.43 126.093 833.146 126.032 832.831 126.032C832.496 126.032 832.203 126.101 831.953 126.241C831.706 126.377 831.514 126.569 831.378 126.816C831.244 127.063 831.178 127.353 831.178 127.685H830.172C830.172 127.174 830.29 126.725 830.526 126.339C830.761 125.952 831.082 125.651 831.489 125.435C831.898 125.219 832.357 125.111 832.865 125.111C833.376 125.111 833.83 125.219 834.224 125.435C834.619 125.651 834.929 125.942 835.153 126.309C835.378 126.675 835.49 127.083 835.49 127.532C835.49 127.853 835.432 128.167 835.315 128.474C835.202 128.778 835.003 129.117 834.719 129.492C834.438 129.864 834.047 130.319 833.547 130.856L831.587 132.952V133.021H835.643V133.958H830.138ZM840.25 134.077C839.608 134.077 839.061 133.903 838.609 133.553C838.158 133.201 837.813 132.691 837.574 132.023C837.335 131.353 837.216 130.543 837.216 129.594C837.216 128.651 837.335 127.846 837.574 127.178C837.815 126.508 838.162 125.996 838.614 125.644C839.068 125.289 839.614 125.111 840.25 125.111C840.886 125.111 841.43 125.289 841.882 125.644C842.337 125.996 842.683 126.508 842.922 127.178C843.163 127.846 843.284 128.651 843.284 129.594C843.284 130.543 843.165 131.353 842.926 132.023C842.688 132.691 842.342 133.201 841.891 133.553C841.439 133.903 840.892 134.077 840.25 134.077ZM840.25 133.14C840.886 133.14 841.381 132.833 841.733 132.219C842.085 131.606 842.261 130.731 842.261 129.594C842.261 128.839 842.18 128.195 842.018 127.664C841.859 127.133 841.629 126.728 841.328 126.449C841.03 126.171 840.67 126.032 840.25 126.032C839.619 126.032 839.126 126.343 838.771 126.965C838.416 127.584 838.239 128.461 838.239 129.594C838.239 130.35 838.318 130.992 838.477 131.521C838.636 132.049 838.865 132.451 839.163 132.726C839.464 133.002 839.827 133.14 840.25 133.14Z" fill="#868EA3"/>
<line x1="860" y1="129.708" x2="1138" y2="129.708" stroke="#E8E9F0" stroke-width="0.5"/>
<path d="M835.093 163.003V171.731H834.036V164.111H833.985L831.854 165.526V164.452L834.036 163.003H835.093ZM840.33 171.85C839.83 171.85 839.38 171.751 838.979 171.552C838.578 171.353 838.257 171.08 838.016 170.734C837.775 170.387 837.642 169.992 837.62 169.549H838.642C838.682 169.944 838.861 170.27 839.179 170.529C839.5 170.785 839.884 170.913 840.33 170.913C840.688 170.913 841.006 170.829 841.284 170.661C841.566 170.493 841.786 170.263 841.945 169.971C842.107 169.675 842.188 169.342 842.188 168.969C842.188 168.589 842.104 168.249 841.936 167.951C841.772 167.65 841.544 167.413 841.255 167.239C840.965 167.066 840.634 166.978 840.262 166.975C839.995 166.972 839.721 167.013 839.439 167.099C839.158 167.181 838.926 167.288 838.745 167.418L837.756 167.299L838.284 163.003H842.819V163.941H839.171L838.864 166.515H838.915C839.094 166.373 839.319 166.255 839.588 166.161C839.858 166.067 840.14 166.02 840.432 166.02C840.966 166.02 841.442 166.148 841.86 166.404C842.28 166.657 842.61 167.003 842.848 167.444C843.09 167.884 843.211 168.387 843.211 168.952C843.211 169.509 843.086 170.006 842.836 170.444C842.588 170.878 842.248 171.222 841.813 171.475C841.378 171.725 840.884 171.85 840.33 171.85Z" fill="#868EA3"/>
<line x1="860" y1="167.481" x2="1138" y2="167.481" stroke="#E8E9F0" stroke-width="0.5"/>
<path d="M834.893 201.77V210.497H833.837V202.878H833.786L831.655 204.293V203.219L833.837 201.77H834.893ZM840.25 210.616C839.608 210.616 839.061 210.442 838.609 210.092C838.158 209.74 837.813 209.23 837.574 208.562C837.335 207.892 837.216 207.082 837.216 206.133C837.216 205.19 837.335 204.385 837.574 203.717C837.815 203.047 838.162 202.535 838.614 202.183C839.068 201.828 839.614 201.65 840.25 201.65C840.886 201.65 841.43 201.828 841.882 202.183C842.337 202.535 842.683 203.047 842.922 203.717C843.163 204.385 843.284 205.19 843.284 206.133C843.284 207.082 843.165 207.892 842.926 208.562C842.688 209.23 842.342 209.74 841.891 210.092C841.439 210.442 840.892 210.616 840.25 210.616ZM840.25 209.679C840.886 209.679 841.381 209.372 841.733 208.758C842.085 208.145 842.261 207.27 842.261 206.133C842.261 205.378 842.18 204.734 842.018 204.203C841.859 203.672 841.629 203.267 841.328 202.989C841.03 202.71 840.67 202.571 840.25 202.571C839.619 202.571 839.126 202.882 838.771 203.504C838.416 204.123 838.239 205 838.239 206.133C838.239 206.889 838.318 207.531 838.477 208.06C838.636 208.588 838.865 208.99 839.163 209.266C839.464 209.541 839.827 209.679 840.25 209.679Z" fill="#868EA3"/>
<line x1="860" y1="206.247" x2="1138" y2="206.247" stroke="#E8E9F0" stroke-width="0.5"/>
<path d="M840.33 248.389C839.83 248.389 839.38 248.29 838.979 248.091C838.578 247.892 838.257 247.619 838.016 247.273C837.775 246.926 837.642 246.531 837.62 246.088H838.642C838.682 246.483 838.861 246.81 839.179 247.068C839.5 247.324 839.884 247.452 840.33 247.452C840.688 247.452 841.006 247.368 841.284 247.2C841.566 247.033 841.786 246.802 841.945 246.51C842.107 246.214 842.188 245.881 842.188 245.508C842.188 245.128 842.104 244.788 841.936 244.49C841.772 244.189 841.544 243.952 841.255 243.778C840.965 243.605 840.634 243.517 840.262 243.514C839.995 243.511 839.721 243.552 839.439 243.638C839.158 243.72 838.926 243.827 838.745 243.957L837.756 243.838L838.284 239.543H842.819V240.48H839.171L838.864 243.054H838.915C839.094 242.912 839.319 242.794 839.588 242.7C839.858 242.606 840.14 242.56 840.432 242.56C840.966 242.56 841.442 242.687 841.86 242.943C842.28 243.196 842.61 243.543 842.848 243.983C843.09 244.423 843.211 244.926 843.211 245.491C843.211 246.048 843.086 246.545 842.836 246.983C842.588 247.418 842.248 247.761 841.813 248.014C841.378 248.264 840.884 248.389 840.33 248.389Z" fill="#868EA3"/>
<line x1="860" y1="244.02" x2="1138" y2="244.02" stroke="#E8E9F0" stroke-width="0.5"/>
<path d="M840.25 286.161C839.608 286.161 839.061 285.987 838.609 285.637C838.158 285.285 837.813 284.775 837.574 284.107C837.335 283.437 837.216 282.627 837.216 281.678C837.216 280.735 837.335 279.93 837.574 279.262C837.815 278.592 838.162 278.08 838.614 277.728C839.068 277.373 839.614 277.195 840.25 277.195C840.886 277.195 841.43 277.373 841.882 277.728C842.337 278.08 842.683 278.592 842.922 279.262C843.163 279.93 843.284 280.735 843.284 281.678C843.284 282.627 843.165 283.437 842.926 284.107C842.688 284.775 842.342 285.285 841.891 285.637C841.439 285.987 840.892 286.161 840.25 286.161ZM840.25 285.224C840.886 285.224 841.381 284.917 841.733 284.303C842.085 283.69 842.261 282.815 842.261 281.678C842.261 280.923 842.18 280.279 842.018 279.748C841.859 279.217 841.629 278.812 841.328 278.533C841.03 278.255 840.67 278.116 840.25 278.116C839.619 278.116 839.126 278.427 838.771 279.049C838.416 279.668 838.239 280.545 838.239 281.678C838.239 282.434 838.318 283.076 838.477 283.604C838.636 284.133 838.865 284.535 839.163 284.81C839.464 285.086 839.827 285.224 840.25 285.224Z" fill="#868EA3"/>
<line x1="860" y1="281.792" x2="1138" y2="281.792" stroke="#E8E9F0" stroke-width="0.5"/>
<g filter="url(#filter1_d_1297_52063)">
<rect x="2" y="183" width="372" height="160" rx="16" fill="white"/>
<rect x="2" y="183" width="372" height="160" rx="16" stroke="#F2F2F8"/>
</g>
<rect x="34" y="283" width="92" height="12" rx="6" fill="url(#paint0_linear_1297_52063)"/>
<rect x="34" y="303" width="40" height="8" rx="4" fill="url(#paint1_linear_1297_52063)"/>
<rect x="302" y="303" width="40" height="8" rx="4" fill="url(#paint2_linear_1297_52063)"/>
<path d="M60.0391 229H58.6414L61.782 220.273H63.3034L66.444 229H65.0462L62.5789 221.858H62.5107L60.0391 229ZM60.2735 225.582H64.8076V226.69H60.2735V225.582ZM74.7565 220.273H76.0775V226.013C76.0775 226.624 75.934 227.165 75.6471 227.636C75.3602 228.105 74.9568 228.474 74.4369 228.744C73.917 229.011 73.3076 229.145 72.6088 229.145C71.9127 229.145 71.3048 229.011 70.7849 228.744C70.265 228.474 69.8616 228.105 69.5747 227.636C69.2877 227.165 69.1443 226.624 69.1443 226.013V220.273H70.461V225.906C70.461 226.301 70.5477 226.652 70.721 226.959C70.8971 227.266 71.1457 227.507 71.4667 227.683C71.7877 227.857 72.1684 227.943 72.6088 227.943C73.0519 227.943 73.434 227.857 73.7551 227.683C74.0789 227.507 74.3261 227.266 74.4965 226.959C74.6698 226.652 74.7565 226.301 74.7565 225.906V220.273ZM79.0015 221.406V220.273H85.7558V221.406H83.0328V229H81.7203V221.406H79.0015ZM88.6883 229V220.273H90.0051V224.065H94.356V220.273H95.677V229H94.356V225.195H90.0051V229H88.6883ZM99.0346 229V220.273H104.506V221.406H100.351V224.065H104.221V225.195H100.351V227.866H104.557V229H99.0346ZM114.749 220.273V229H113.539L109.103 222.599H109.022V229H107.705V220.273H108.924L113.364 226.682H113.445V220.273H114.749ZM117.68 221.406V220.273H124.434V221.406H121.711V229H120.398V221.406H117.68ZM128.683 220.273V229H127.366V220.273H128.683ZM139.289 223.111H137.96C137.909 222.827 137.813 222.577 137.674 222.361C137.535 222.145 137.365 221.962 137.163 221.811C136.961 221.661 136.735 221.547 136.485 221.47C136.238 221.393 135.975 221.355 135.697 221.355C135.194 221.355 134.744 221.482 134.346 221.734C133.951 221.987 133.639 222.358 133.409 222.847C133.181 223.335 133.068 223.932 133.068 224.636C133.068 225.347 133.181 225.946 133.409 226.435C133.639 226.923 133.953 227.293 134.35 227.543C134.748 227.793 135.196 227.918 135.693 227.918C135.968 227.918 136.23 227.881 136.477 227.807C136.727 227.73 136.953 227.618 137.154 227.47C137.356 227.322 137.526 227.142 137.666 226.929C137.808 226.713 137.906 226.466 137.96 226.188L139.289 226.192C139.218 226.621 139.08 227.016 138.876 227.376C138.674 227.734 138.414 228.044 138.096 228.305C137.781 228.564 137.42 228.764 137.014 228.906C136.607 229.048 136.164 229.119 135.684 229.119C134.928 229.119 134.255 228.94 133.664 228.582C133.073 228.222 132.607 227.706 132.267 227.036C131.928 226.365 131.759 225.565 131.759 224.636C131.759 223.705 131.93 222.905 132.271 222.237C132.612 221.567 133.078 221.053 133.669 220.695C134.259 220.334 134.931 220.153 135.684 220.153C136.147 220.153 136.579 220.22 136.98 220.354C137.383 220.484 137.745 220.678 138.066 220.933C138.387 221.186 138.653 221.496 138.863 221.862C139.073 222.226 139.215 222.642 139.289 223.111ZM142.984 229H141.586L144.726 220.273H146.248L149.388 229H147.991L145.523 221.858H145.455L142.984 229ZM143.218 225.582H147.752V226.69H143.218V225.582ZM150.627 221.406V220.273H157.381V221.406H154.658V229H153.346V221.406H150.627ZM161.631 220.273V229H160.314V220.273H161.631ZM172.569 224.636C172.569 225.568 172.399 226.369 172.058 227.04C171.717 227.707 171.25 228.222 170.656 228.582C170.065 228.94 169.393 229.119 168.64 229.119C167.884 229.119 167.21 228.94 166.616 228.582C166.025 228.222 165.559 227.706 165.218 227.036C164.877 226.365 164.707 225.565 164.707 224.636C164.707 223.705 164.877 222.905 165.218 222.237C165.559 221.567 166.025 221.053 166.616 220.695C167.21 220.334 167.884 220.153 168.64 220.153C169.393 220.153 170.065 220.334 170.656 220.695C171.25 221.053 171.717 221.567 172.058 222.237C172.399 222.905 172.569 223.705 172.569 224.636ZM171.265 224.636C171.265 223.926 171.15 223.328 170.92 222.842C170.693 222.354 170.38 221.984 169.982 221.734C169.588 221.482 169.14 221.355 168.64 221.355C168.137 221.355 167.688 221.482 167.294 221.734C166.899 221.984 166.586 222.354 166.356 222.842C166.129 223.328 166.015 223.926 166.015 224.636C166.015 225.347 166.129 225.946 166.356 226.435C166.586 226.92 166.899 227.29 167.294 227.543C167.688 227.793 168.137 227.918 168.64 227.918C169.14 227.918 169.588 227.793 169.982 227.543C170.38 227.29 170.693 226.92 170.92 226.435C171.15 225.946 171.265 225.347 171.265 224.636ZM182.695 220.273V229H181.485L177.049 222.599H176.968V229H175.651V220.273H176.87L181.31 226.682H181.391V220.273H182.695Z" fill="#A3A8BD"/>
<g filter="url(#filter2_d_1297_52063)">
<rect x="399" y="183" width="372" height="160" rx="16" fill="white"/>
<rect x="399" y="183" width="372" height="160" rx="16" stroke="#F2F2F8"/>
</g>
<rect x="431" y="283" width="92" height="12" rx="6" fill="url(#paint3_linear_1297_52063)"/>
<rect x="431" y="303" width="40" height="8" rx="4" fill="url(#paint4_linear_1297_52063)"/>
<rect x="699" y="303" width="40" height="8" rx="4" fill="url(#paint5_linear_1297_52063)"/>
<path d="M456.384 228V219.273H461.796V220.406H457.701V223.065H461.408V224.195H457.701V228H456.384ZM470.468 219.273H471.789V225.013C471.789 225.624 471.645 226.165 471.358 226.636C471.072 227.105 470.668 227.474 470.148 227.744C469.628 228.011 469.019 228.145 468.32 228.145C467.624 228.145 467.016 228.011 466.496 227.744C465.976 227.474 465.573 227.105 465.286 226.636C464.999 226.165 464.856 225.624 464.856 225.013V219.273H466.172V224.906C466.172 225.301 466.259 225.652 466.432 225.959C466.608 226.266 466.857 226.507 467.178 226.683C467.499 226.857 467.88 226.943 468.32 226.943C468.763 226.943 469.145 226.857 469.466 226.683C469.79 226.507 470.037 226.266 470.208 225.959C470.381 225.652 470.468 225.301 470.468 224.906V219.273ZM482.187 219.273V228H480.977L476.541 221.599H476.46V228H475.143V219.273H476.362L480.802 225.682H480.883V219.273H482.187ZM492.797 222.111H491.467C491.416 221.827 491.321 221.577 491.182 221.361C491.042 221.145 490.872 220.962 490.67 220.811C490.469 220.661 490.243 220.547 489.993 220.47C489.746 220.393 489.483 220.355 489.204 220.355C488.702 220.355 488.251 220.482 487.853 220.734C487.459 220.987 487.146 221.358 486.916 221.847C486.689 222.335 486.575 222.932 486.575 223.636C486.575 224.347 486.689 224.946 486.916 225.435C487.146 225.923 487.46 226.293 487.858 226.543C488.255 226.793 488.703 226.918 489.2 226.918C489.476 226.918 489.737 226.881 489.984 226.807C490.234 226.73 490.46 226.618 490.662 226.47C490.863 226.322 491.034 226.142 491.173 225.929C491.315 225.713 491.413 225.466 491.467 225.188L492.797 225.192C492.726 225.621 492.588 226.016 492.383 226.376C492.182 226.734 491.922 227.044 491.603 227.305C491.288 227.564 490.927 227.764 490.521 227.906C490.115 228.048 489.672 228.119 489.192 228.119C488.436 228.119 487.763 227.94 487.172 227.582C486.581 227.222 486.115 226.706 485.774 226.036C485.436 225.365 485.267 224.565 485.267 223.636C485.267 222.705 485.437 221.905 485.778 221.237C486.119 220.567 486.585 220.053 487.176 219.695C487.767 219.334 488.439 219.153 489.192 219.153C489.655 219.153 490.086 219.22 490.487 219.354C490.89 219.484 491.253 219.678 491.574 219.933C491.895 220.186 492.16 220.496 492.371 220.862C492.581 221.226 492.723 221.642 492.797 222.111ZM495.382 220.406V219.273H502.136V220.406H499.413V228H498.101V220.406H495.382ZM506.385 219.273V228H505.069V219.273H506.385ZM517.324 223.636C517.324 224.568 517.154 225.369 516.813 226.04C516.472 226.707 516.004 227.222 515.411 227.582C514.82 227.94 514.148 228.119 513.395 228.119C512.639 228.119 511.965 227.94 511.371 227.582C510.78 227.222 510.314 226.706 509.973 226.036C509.632 225.365 509.462 224.565 509.462 223.636C509.462 222.705 509.632 221.905 509.973 221.237C510.314 220.567 510.78 220.053 511.371 219.695C511.965 219.334 512.639 219.153 513.395 219.153C514.148 219.153 514.82 219.334 515.411 219.695C516.004 220.053 516.472 220.567 516.813 221.237C517.154 221.905 517.324 222.705 517.324 223.636ZM516.02 223.636C516.02 222.926 515.905 222.328 515.675 221.842C515.448 221.354 515.135 220.984 514.737 220.734C514.343 220.482 513.895 220.355 513.395 220.355C512.892 220.355 512.443 220.482 512.048 220.734C511.654 220.984 511.341 221.354 511.111 221.842C510.884 222.328 510.77 222.926 510.77 223.636C510.77 224.347 510.884 224.946 511.111 225.435C511.341 225.92 511.654 226.29 512.048 226.543C512.443 226.793 512.892 226.918 513.395 226.918C513.895 226.918 514.343 226.793 514.737 226.543C515.135 226.29 515.448 225.92 515.675 225.435C515.905 224.946 516.02 224.347 516.02 223.636ZM527.45 219.273V228H526.24L521.803 221.599H521.723V228H520.406V219.273H521.625L526.065 225.682H526.146V219.273H527.45ZM535.571 221.565C535.525 221.162 535.338 220.849 535.008 220.628C534.679 220.403 534.264 220.291 533.764 220.291C533.406 220.291 533.096 220.348 532.835 220.462C532.573 220.572 532.37 220.726 532.225 220.922C532.083 221.115 532.012 221.335 532.012 221.582C532.012 221.79 532.061 221.969 532.157 222.119C532.257 222.27 532.386 222.396 532.545 222.499C532.707 222.598 532.88 222.682 533.065 222.75C533.25 222.815 533.427 222.869 533.598 222.912L534.45 223.134C534.728 223.202 535.014 223.294 535.306 223.411C535.599 223.527 535.87 223.68 536.12 223.871C536.37 224.061 536.572 224.297 536.725 224.578C536.882 224.859 536.96 225.196 536.96 225.588C536.96 226.082 536.832 226.521 536.576 226.905C536.323 227.288 535.955 227.591 535.473 227.812C534.992 228.034 534.411 228.145 533.73 228.145C533.076 228.145 532.511 228.041 532.034 227.834C531.556 227.626 531.183 227.332 530.913 226.952C530.643 226.568 530.494 226.114 530.465 225.588H531.786C531.812 225.903 531.914 226.166 532.093 226.376C532.275 226.584 532.507 226.739 532.788 226.841C533.072 226.94 533.383 226.99 533.721 226.99C534.093 226.99 534.424 226.932 534.714 226.815C535.007 226.696 535.237 226.531 535.404 226.321C535.572 226.108 535.656 225.859 535.656 225.575C535.656 225.317 535.582 225.105 535.434 224.94C535.289 224.776 535.092 224.639 534.842 224.531C534.595 224.423 534.315 224.328 534.002 224.246L532.971 223.964C532.272 223.774 531.718 223.494 531.309 223.125C530.903 222.756 530.7 222.267 530.7 221.659C530.7 221.156 530.836 220.717 531.109 220.342C531.382 219.967 531.751 219.676 532.217 219.469C532.683 219.259 533.208 219.153 533.794 219.153C534.384 219.153 534.906 219.257 535.357 219.464C535.812 219.672 536.17 219.957 536.431 220.321C536.693 220.682 536.829 221.097 536.84 221.565H535.571Z" fill="#A3A8BD"/>
<g filter="url(#filter3_d_1297_52063)">
<rect x="2" width="372" height="160" rx="16" fill="white"/>
<rect x="2" width="372" height="160" rx="16" stroke="#F2F2F8"/>
</g>
<path d="M66.2832 45H63.4579V36.2727H66.3726C67.2278 36.2727 67.9621 36.4474 68.5758 36.7969C69.1894 37.1435 69.6596 37.642 69.9863 38.2926C70.3158 38.9403 70.4806 39.7173 70.4806 40.6236C70.4806 41.5327 70.3144 42.3139 69.982 42.9673C69.6525 43.6207 69.1752 44.1236 68.5502 44.4759C67.9252 44.8253 67.1695 45 66.2832 45ZM64.7746 43.8494H66.2107C66.8755 43.8494 67.428 43.7244 67.8684 43.4744C68.3087 43.2216 68.6383 42.8565 68.857 42.3793C69.0758 41.8991 69.1851 41.3139 69.1851 40.6236C69.1851 39.9389 69.0758 39.358 68.857 38.8807C68.6411 38.4034 68.3187 38.0412 67.8897 37.794C67.4607 37.5469 66.928 37.4233 66.2917 37.4233H64.7746V43.8494ZM73.8616 45H72.4639L75.6045 36.2727H77.1259L80.2665 45H78.8687L76.4014 37.858H76.3332L73.8616 45ZM74.096 41.5824H78.6301V42.6903H74.096V41.5824ZM81.5051 37.4062V36.2727H88.2594V37.4062H85.5364V45H84.2239V37.4062H81.5051ZM90.8979 45H89.5002L92.6408 36.2727H94.1621L97.3027 45H95.905L93.4377 37.858H93.3695L90.8979 45ZM91.1323 41.5824H95.6664V42.6903H91.1323V41.5824ZM100.003 45V36.2727H103.199C103.818 36.2727 104.331 36.375 104.737 36.5795C105.144 36.7812 105.448 37.0554 105.649 37.402C105.851 37.7457 105.952 38.1335 105.952 38.5653C105.952 38.929 105.885 39.2358 105.752 39.4858C105.618 39.733 105.439 39.9318 105.215 40.0824C104.993 40.2301 104.749 40.3381 104.482 40.4062V40.4915C104.771 40.5057 105.054 40.5994 105.33 40.7727C105.608 40.9432 105.838 41.1861 106.02 41.5014C106.202 41.8168 106.293 42.2003 106.293 42.652C106.293 43.098 106.188 43.4986 105.977 43.8537C105.77 44.206 105.449 44.4858 105.014 44.6932C104.58 44.8977 104.024 45 103.348 45H100.003ZM101.32 43.8707H103.22C103.851 43.8707 104.303 43.7486 104.575 43.5043C104.848 43.2599 104.985 42.9545 104.985 42.5881C104.985 42.3125 104.915 42.0597 104.776 41.8295C104.637 41.5994 104.438 41.4162 104.179 41.2798C103.923 41.1435 103.62 41.0753 103.267 41.0753H101.32V43.8707ZM101.32 40.0483H103.084C103.379 40.0483 103.645 39.9915 103.881 39.8778C104.12 39.7642 104.308 39.6051 104.448 39.4006C104.59 39.1932 104.661 38.9489 104.661 38.6676C104.661 38.3068 104.534 38.0043 104.281 37.7599C104.029 37.5156 103.641 37.3935 103.118 37.3935H101.32V40.0483ZM110.032 45H108.634L111.775 36.2727H113.296L116.437 45H115.039L112.572 37.858H112.503L110.032 45ZM110.266 41.5824H114.8V42.6903H110.266V41.5824ZM123.827 38.5653C123.781 38.1619 123.594 37.8494 123.264 37.6278C122.935 37.4034 122.52 37.2912 122.02 37.2912C121.662 37.2912 121.352 37.348 121.091 37.4616C120.829 37.5724 120.626 37.7259 120.481 37.9219C120.339 38.1151 120.268 38.3352 120.268 38.5824C120.268 38.7898 120.317 38.9687 120.413 39.1193C120.513 39.2699 120.642 39.3963 120.801 39.4986C120.963 39.598 121.136 39.6818 121.321 39.75C121.506 39.8153 121.683 39.8693 121.854 39.9119L122.706 40.1335C122.984 40.2017 123.27 40.294 123.562 40.4105C123.855 40.527 124.126 40.6804 124.376 40.8707C124.626 41.0611 124.828 41.2969 124.981 41.5781C125.138 41.8594 125.216 42.196 125.216 42.5881C125.216 43.0824 125.088 43.5213 124.832 43.9048C124.579 44.2884 124.212 44.5909 123.729 44.8125C123.248 45.0341 122.667 45.1449 121.986 45.1449C121.332 45.1449 120.767 45.0412 120.29 44.8338C119.812 44.6264 119.439 44.3324 119.169 43.9517C118.899 43.5682 118.75 43.1136 118.721 42.5881H120.042C120.068 42.9034 120.17 43.1662 120.349 43.3764C120.531 43.5838 120.763 43.7386 121.044 43.8409C121.328 43.9403 121.639 43.9901 121.977 43.9901C122.349 43.9901 122.68 43.9318 122.97 43.8153C123.263 43.696 123.493 43.5312 123.66 43.321C123.828 43.108 123.912 42.8594 123.912 42.5753C123.912 42.3168 123.838 42.1051 123.69 41.9403C123.545 41.7756 123.348 41.6392 123.098 41.5312C122.851 41.4233 122.571 41.3281 122.258 41.2457L121.227 40.9645C120.528 40.7741 119.974 40.4943 119.565 40.125C119.159 39.7557 118.956 39.267 118.956 38.6591C118.956 38.1562 119.092 37.7173 119.365 37.3423C119.638 36.9673 120.007 36.6761 120.473 36.4688C120.939 36.2585 121.464 36.1534 122.05 36.1534C122.64 36.1534 123.162 36.2571 123.613 36.4645C124.068 36.6719 124.426 36.9574 124.687 37.321C124.949 37.6818 125.085 38.0966 125.096 38.5653H123.827ZM128.229 45V36.2727H133.701V37.4062H129.546V40.0653H133.415V41.1946H129.546V43.8665H133.752V45H128.229Z" fill="#A3A8BD"/>
<g filter="url(#filter4_d_1297_52063)">
<rect x="399" width="372" height="160" rx="16" fill="white"/>
<rect x="399" width="372" height="160" rx="16" stroke="#F2F2F8"/>
</g>
<rect x="431" y="99" width="92" height="12" rx="6" fill="url(#paint6_linear_1297_52063)"/>
<rect x="431" y="119" width="40" height="8" rx="4" fill="url(#paint7_linear_1297_52063)"/>
<rect x="699" y="119" width="40" height="8" rx="4" fill="url(#paint8_linear_1297_52063)"/>
<path d="M432.6 37.8001C432.6 36.9164 433.317 36.2001 434.2 36.2001H438.2L439.8 37.8001H443.8C444.684 37.8001 445.4 38.5164 445.4 39.4001V44.2001C445.4 45.0837 444.684 45.8001 443.8 45.8001H434.2C433.317 45.8001 432.6 45.0837 432.6 44.2001V37.8001Z" fill="#A3A8BD"/>
<path d="M460.733 38.5653C460.687 38.1619 460.5 37.8494 460.17 37.6278C459.841 37.4034 459.426 37.2912 458.926 37.2912C458.568 37.2912 458.258 37.348 457.997 37.4616C457.736 37.5724 457.532 37.7259 457.388 37.9219C457.246 38.1151 457.174 38.3352 457.174 38.5824C457.174 38.7898 457.223 38.9687 457.319 39.1193C457.419 39.2699 457.548 39.3963 457.707 39.4986C457.869 39.598 458.042 39.6818 458.227 39.75C458.412 39.8153 458.589 39.8693 458.76 39.9119L459.612 40.1335C459.89 40.2017 460.176 40.294 460.469 40.4105C460.761 40.527 461.032 40.6804 461.282 40.8707C461.532 41.0611 461.734 41.2969 461.888 41.5781C462.044 41.8594 462.122 42.196 462.122 42.5881C462.122 43.0824 461.994 43.5213 461.738 43.9048C461.486 44.2884 461.118 44.5909 460.635 44.8125C460.155 45.0341 459.574 45.1449 458.892 45.1449C458.238 45.1449 457.673 45.0412 457.196 44.8338C456.719 44.6264 456.345 44.3324 456.075 43.9517C455.805 43.5682 455.656 43.1136 455.628 42.5881H456.949C456.974 42.9034 457.076 43.1662 457.255 43.3764C457.437 43.5838 457.669 43.7386 457.95 43.8409C458.234 43.9403 458.545 43.9901 458.883 43.9901C459.255 43.9901 459.586 43.9318 459.876 43.8153C460.169 43.696 460.399 43.5312 460.567 43.321C460.734 43.108 460.818 42.8594 460.818 42.5753C460.818 42.3168 460.744 42.1051 460.596 41.9403C460.451 41.7756 460.254 41.6392 460.004 41.5312C459.757 41.4233 459.477 41.3281 459.165 41.2457L458.133 40.9645C457.434 40.7741 456.88 40.4943 456.471 40.125C456.065 39.7557 455.862 39.267 455.862 38.6591C455.862 38.1562 455.998 37.7173 456.271 37.3423C456.544 36.9673 456.913 36.6761 457.379 36.4688C457.845 36.2585 458.371 36.1534 458.956 36.1534C459.547 36.1534 460.068 36.2571 460.52 36.4645C460.974 36.6719 461.332 36.9574 461.594 37.321C461.855 37.6818 461.991 38.0966 462.003 38.5653H460.733ZM464.705 37.4062V36.2727H471.459V37.4062H468.736V45H467.424V37.4062H464.705ZM481.598 40.6364C481.598 41.5682 481.427 42.3693 481.086 43.0398C480.746 43.7074 480.278 44.2216 479.684 44.5824C479.094 44.9403 478.422 45.1193 477.669 45.1193C476.913 45.1193 476.238 44.9403 475.645 44.5824C475.054 44.2216 474.588 43.706 474.247 43.0355C473.906 42.3651 473.736 41.5653 473.736 40.6364C473.736 39.7045 473.906 38.9048 474.247 38.2372C474.588 37.5668 475.054 37.0526 475.645 36.6946C476.238 36.3338 476.913 36.1534 477.669 36.1534C478.422 36.1534 479.094 36.3338 479.684 36.6946C480.278 37.0526 480.746 37.5668 481.086 38.2372C481.427 38.9048 481.598 39.7045 481.598 40.6364ZM480.294 40.6364C480.294 39.9261 480.179 39.3281 479.949 38.8423C479.721 38.3537 479.409 37.9844 479.011 37.7344C478.616 37.4815 478.169 37.3551 477.669 37.3551C477.166 37.3551 476.717 37.4815 476.322 37.7344C475.927 37.9844 475.615 38.3537 475.385 38.8423C475.157 39.3281 475.044 39.9261 475.044 40.6364C475.044 41.3466 475.157 41.946 475.385 42.4347C475.615 42.9205 475.927 43.2898 476.322 43.5426C476.717 43.7926 477.166 43.9176 477.669 43.9176C478.169 43.9176 478.616 43.7926 479.011 43.5426C479.409 43.2898 479.721 42.9205 479.949 42.4347C480.179 41.946 480.294 41.3466 480.294 40.6364ZM484.68 45V36.2727H487.79C488.466 36.2727 489.028 36.3892 489.474 36.6222C489.922 36.8551 490.258 37.1776 490.479 37.5895C490.701 37.9986 490.812 38.4716 490.812 39.0085C490.812 39.5426 490.699 40.0128 490.475 40.419C490.253 40.8224 489.918 41.1364 489.469 41.3608C489.023 41.5852 488.462 41.6974 487.786 41.6974H485.43V40.5639H487.667C488.093 40.5639 488.439 40.5028 488.706 40.3807C488.976 40.2585 489.174 40.081 489.299 39.848C489.424 39.6151 489.486 39.3352 489.486 39.0085C489.486 38.679 489.422 38.3935 489.295 38.152C489.17 37.9105 488.972 37.7259 488.702 37.598C488.435 37.4673 488.084 37.402 487.65 37.402H485.996V45H484.68ZM488.988 41.0625L491.144 45H489.644L487.53 41.0625H488.988ZM494.591 45H493.193L496.334 36.2727H497.855L500.996 45H499.598L497.131 37.858H497.063L494.591 45ZM494.825 41.5824H499.36V42.6903H494.825V41.5824ZM509.192 39.0298C509.11 38.7713 508.999 38.5398 508.86 38.3352C508.724 38.1278 508.56 37.9517 508.37 37.8068C508.18 37.6591 507.962 37.5469 507.718 37.4702C507.476 37.3935 507.211 37.3551 506.921 37.3551C506.43 37.3551 505.986 37.4815 505.591 37.7344C505.197 37.9872 504.884 38.358 504.654 38.8466C504.427 39.3324 504.313 39.9276 504.313 40.6321C504.313 41.3395 504.428 41.9375 504.658 42.4261C504.888 42.9148 505.204 43.2855 505.604 43.5384C506.005 43.7912 506.461 43.9176 506.972 43.9176C507.447 43.9176 507.86 43.821 508.212 43.6278C508.567 43.4347 508.841 43.1619 509.035 42.8097C509.231 42.4545 509.329 42.0369 509.329 41.5568L509.67 41.6207H507.172V40.5341H510.603V41.527C510.603 42.2599 510.447 42.8963 510.134 43.4361C509.824 43.973 509.395 44.3878 508.847 44.6804C508.302 44.973 507.677 45.1193 506.972 45.1193C506.182 45.1193 505.489 44.9375 504.893 44.5739C504.299 44.2102 503.836 43.6946 503.503 43.027C503.171 42.3565 503.005 41.5611 503.005 40.6406C503.005 39.9446 503.101 39.3196 503.295 38.7656C503.488 38.2116 503.759 37.7415 504.109 37.3551C504.461 36.9659 504.874 36.669 505.349 36.4645C505.826 36.2571 506.347 36.1534 506.912 36.1534C507.384 36.1534 507.823 36.223 508.229 36.3622C508.638 36.5014 509.002 36.6989 509.32 36.9545C509.641 37.2102 509.907 37.5142 510.117 37.8665C510.327 38.2159 510.469 38.6037 510.543 39.0298H509.192ZM513.714 45V36.2727H519.186V37.4062H515.031V40.0653H518.9V41.1946H515.031V43.8665H519.237V45H513.714Z" fill="#A3A8BD"/>
<path d="M36.3997 41.6V44C36.3997 45.3255 38.9069 46.4 41.9997 46.4C45.0925 46.4 47.5997 45.3255 47.5997 44V41.6C47.5997 42.9255 45.0925 44 41.9997 44C38.9069 44 36.3997 42.9255 36.3997 41.6Z" fill="#A3A8BD"/>
<path d="M36.3997 37.6V40C36.3997 41.3255 38.9069 42.4 41.9997 42.4C45.0925 42.4 47.5997 41.3255 47.5997 40V37.6C47.5997 38.9255 45.0925 40 41.9997 40C38.9069 40 36.3997 38.9255 36.3997 37.6Z" fill="#A3A8BD"/>
<path d="M47.5997 36C47.5997 37.3255 45.0925 38.4 41.9997 38.4C38.9069 38.4 36.3997 37.3255 36.3997 36C36.3997 34.6745 38.9069 33.6 41.9997 33.6C45.0925 33.6 47.5997 34.6745 47.5997 36Z" fill="#A3A8BD"/>
<path d="M44.4 219.8C44.4 221.126 43.3255 222.2 42 222.2C40.6746 222.2 39.6 221.126 39.6 219.8C39.6 218.475 40.6746 217.4 42 217.4C43.3255 217.4 44.4 218.475 44.4 219.8Z" fill="#A3A8BD"/>
<path d="M48.4 221.4C48.4 222.284 47.6837 223 46.8 223C45.9164 223 45.2 222.284 45.2 221.4C45.2 220.516 45.9164 219.8 46.8 219.8C47.6837 219.8 48.4 220.516 48.4 221.4Z" fill="#A3A8BD"/>
<path d="M45.2 227C45.2 225.233 43.7674 223.8 42 223.8C40.2327 223.8 38.8 225.233 38.8 227V229.4H45.2V227Z" fill="#A3A8BD"/>
<path d="M38.8 221.4C38.8 222.284 38.0837 223 37.2 223C36.3164 223 35.6 222.284 35.6 221.4C35.6 220.516 36.3164 219.8 37.2 219.8C38.0837 219.8 38.8 220.516 38.8 221.4Z" fill="#A3A8BD"/>
<path d="M46.8 229.4V227C46.8 226.157 46.5826 225.364 46.2006 224.675C46.3922 224.626 46.5931 224.6 46.8 224.6C48.1255 224.6 49.2 225.675 49.2 227V229.4H46.8Z" fill="#A3A8BD"/>
<path d="M37.7995 224.675C37.4175 225.364 37.2 226.157 37.2 227V229.4H34.8V227C34.8 225.675 35.8746 224.6 37.2 224.6C37.407 224.6 37.6079 224.626 37.7995 224.675Z" fill="#A3A8BD"/>
<path fill-rule="evenodd" clip-rule="evenodd" d="M440.04 215.837C440.373 215.942 440.6 216.251 440.6 216.6V220.6L443.8 220.6C444.098 220.6 444.371 220.766 444.509 221.031C444.647 221.295 444.626 221.614 444.455 221.859L438.855 229.859C438.655 230.145 438.292 230.268 437.959 230.163C437.626 230.058 437.4 229.749 437.4 229.4V225.4H434.2C433.901 225.4 433.628 225.234 433.49 224.969C433.352 224.705 433.373 224.386 433.544 224.141L439.144 216.141C439.345 215.855 439.707 215.732 440.04 215.837Z" fill="#A3A8BD"/>
<rect x="820" y="32" width="92" height="12" rx="6" fill="url(#paint9_linear_1297_52063)"/>
<path d="M821.71 70V59.8182H825.15C825.945 59.8182 826.598 59.9541 827.109 60.2259C827.619 60.4943 827.997 60.8639 828.242 61.3345C828.487 61.8052 828.61 62.3404 828.61 62.9403C828.61 63.5402 828.487 64.0722 828.242 64.5362C827.997 65.0002 827.621 65.3648 827.114 65.63C826.607 65.8918 825.959 66.0227 825.17 66.0227H822.386V64.9091H825.13C825.674 64.9091 826.111 64.8295 826.442 64.6705C826.777 64.5114 827.019 64.286 827.168 63.9943C827.321 63.6993 827.397 63.348 827.397 62.9403C827.397 62.5327 827.321 62.1764 827.168 61.8714C827.016 61.5665 826.772 61.3312 826.438 61.1655C826.103 60.9964 825.66 60.9119 825.11 60.9119H822.942V70H821.71ZM826.502 65.4261L829.008 70H827.576L825.11 65.4261H826.502ZM833.625 70.1591C832.889 70.1591 832.255 69.9967 831.721 69.6719C831.191 69.3438 830.781 68.8864 830.493 68.2997C830.208 67.7098 830.066 67.0237 830.066 66.2415C830.066 65.4593 830.208 64.7699 830.493 64.1733C830.781 63.5734 831.182 63.1061 831.696 62.7713C832.213 62.4332 832.816 62.2642 833.506 62.2642C833.904 62.2642 834.296 62.3305 834.684 62.4631C835.072 62.5956 835.425 62.8111 835.743 63.1094C836.061 63.4044 836.315 63.7955 836.504 64.2827C836.693 64.7699 836.787 65.3698 836.787 66.0824V66.5795H830.901V65.5653H835.594C835.594 65.1345 835.508 64.75 835.335 64.4119C835.166 64.0739 834.924 63.8071 834.61 63.6115C834.298 63.416 833.93 63.3182 833.506 63.3182C833.039 63.3182 832.634 63.4342 832.293 63.6662C831.955 63.8949 831.695 64.1932 831.512 64.5611C831.33 64.929 831.239 65.3234 831.239 65.7443V66.4205C831.239 66.9972 831.338 67.486 831.537 67.8871C831.739 68.2848 832.019 68.5881 832.377 68.7969C832.735 69.0024 833.151 69.1051 833.625 69.1051C833.933 69.1051 834.212 69.062 834.46 68.9759C834.712 68.8864 834.929 68.7538 835.112 68.5781C835.294 68.3991 835.435 68.1771 835.534 67.9119L836.668 68.2301C836.548 68.6146 836.348 68.9527 836.066 69.2443C835.785 69.5327 835.436 69.758 835.022 69.9205C834.608 70.0795 834.142 70.1591 833.625 70.1591ZM840.819 70.179C840.335 70.179 839.896 70.0878 839.502 69.9055C839.107 69.7199 838.794 69.4531 838.562 69.1051C838.33 68.7538 838.214 68.3295 838.214 67.8324C838.214 67.3949 838.3 67.0402 838.472 66.7685C838.645 66.4934 838.875 66.2779 839.164 66.1222C839.452 65.9664 839.77 65.8504 840.118 65.7741C840.469 65.6946 840.822 65.6316 841.177 65.5852C841.641 65.5256 842.017 65.4808 842.306 65.451C842.597 65.4179 842.809 65.3632 842.942 65.2869C843.078 65.2107 843.146 65.0781 843.146 64.8892V64.8494C843.146 64.3589 843.012 63.9777 842.743 63.706C842.478 63.4342 842.075 63.2983 841.535 63.2983C840.975 63.2983 840.536 63.4209 840.218 63.6662C839.899 63.9115 839.676 64.1733 839.546 64.4517L838.433 64.054C838.632 63.59 838.897 63.2287 839.228 62.9702C839.563 62.7083 839.927 62.526 840.322 62.4233C840.72 62.3172 841.111 62.2642 841.495 62.2642C841.74 62.2642 842.022 62.294 842.34 62.3537C842.662 62.41 842.972 62.5277 843.27 62.7067C843.572 62.8857 843.822 63.1558 844.021 63.517C844.22 63.8783 844.319 64.3622 844.319 64.9688V70H843.146V68.9659H843.086C843.007 69.1316 842.874 69.3089 842.688 69.4979C842.503 69.6868 842.256 69.8475 841.948 69.9801C841.639 70.1127 841.263 70.179 840.819 70.179ZM840.998 69.125C841.462 69.125 841.853 69.0339 842.171 68.8516C842.493 68.6693 842.735 68.4339 842.897 68.1456C843.063 67.8572 843.146 67.554 843.146 67.2358V66.1619C843.096 66.2216 842.987 66.2763 842.818 66.326C842.652 66.3724 842.46 66.4138 842.241 66.4503C842.026 66.4834 841.815 66.5133 841.61 66.5398C841.407 66.563 841.243 66.5829 841.117 66.5994C840.812 66.6392 840.527 66.7038 840.262 66.7933C840 66.8795 839.788 67.0104 839.626 67.1861C839.467 67.3584 839.387 67.5937 839.387 67.892C839.387 68.2997 839.538 68.608 839.84 68.8168C840.145 69.0223 840.531 69.125 840.998 69.125ZM847.634 59.8182V70H846.461V59.8182H847.634ZM853.104 62.3636V63.358H849.146V62.3636H853.104ZM850.3 60.5341H851.473V67.8125C851.473 68.1439 851.521 68.3925 851.617 68.5582C851.717 68.7206 851.843 68.83 851.995 68.8864C852.151 68.9394 852.315 68.9659 852.487 68.9659C852.617 68.9659 852.723 68.9593 852.806 68.946C852.888 68.9295 852.955 68.9162 853.004 68.9062L853.243 69.9602C853.164 69.9901 853.052 70.0199 852.91 70.0497C852.767 70.0829 852.587 70.0994 852.368 70.0994C852.037 70.0994 851.712 70.0282 851.394 69.8857C851.079 69.7431 850.817 69.526 850.608 69.2344C850.403 68.9427 850.3 68.5748 850.3 68.1307V60.5341ZM854.869 70V62.3636H856.042V70H854.869ZM855.465 61.0909C855.237 61.0909 855.039 61.013 854.874 60.8572C854.711 60.7015 854.63 60.5142 854.63 60.2955C854.63 60.0767 854.711 59.8894 854.874 59.7337C855.039 59.5779 855.237 59.5 855.465 59.5C855.694 59.5 855.89 59.5779 856.052 59.7337C856.218 59.8894 856.301 60.0767 856.301 60.2955C856.301 60.5142 856.218 60.7015 856.052 60.8572C855.89 61.013 855.694 61.0909 855.465 61.0909ZM858.191 70V62.3636H859.325V63.5568H859.424C859.583 63.1491 859.84 62.8326 860.195 62.6072C860.549 62.3786 860.975 62.2642 861.472 62.2642C861.976 62.2642 862.395 62.3786 862.73 62.6072C863.068 62.8326 863.332 63.1491 863.521 63.5568H863.6C863.796 63.1624 864.089 62.8492 864.48 62.6172C864.871 62.3819 865.34 62.2642 865.887 62.2642C866.57 62.2642 867.128 62.478 867.562 62.9055C867.997 63.3298 868.214 63.991 868.214 64.8892V70H867.04V64.8892C867.04 64.3258 866.886 63.9231 866.578 63.6811C866.27 63.4392 865.907 63.3182 865.489 63.3182C864.952 63.3182 864.536 63.4806 864.241 63.8054C863.946 64.1269 863.799 64.5346 863.799 65.0284V70H862.606V64.7699C862.606 64.3357 862.465 63.986 862.183 63.7209C861.902 63.4524 861.539 63.3182 861.094 63.3182C860.79 63.3182 860.504 63.3994 860.239 63.5618C859.978 63.7242 859.765 63.9496 859.603 64.2379C859.444 64.523 859.364 64.8527 859.364 65.2273V70H858.191ZM873.561 70.1591C872.825 70.1591 872.19 69.9967 871.657 69.6719C871.126 69.3438 870.717 68.8864 870.429 68.2997C870.144 67.7098 870.001 67.0237 870.001 66.2415C870.001 65.4593 870.144 64.7699 870.429 64.1733C870.717 63.5734 871.118 63.1061 871.632 62.7713C872.149 62.4332 872.752 62.2642 873.441 62.2642C873.839 62.2642 874.232 62.3305 874.62 62.4631C875.007 62.5956 875.36 62.8111 875.679 63.1094C875.997 63.4044 876.25 63.7955 876.439 64.2827C876.628 64.7699 876.723 65.3698 876.723 66.0824V66.5795H870.836V65.5653H875.529C875.529 65.1345 875.443 64.75 875.271 64.4119C875.102 64.0739 874.86 63.8071 874.545 63.6115C874.234 63.416 873.866 63.3182 873.441 63.3182C872.974 63.3182 872.57 63.4342 872.228 63.6662C871.89 63.8949 871.63 64.1932 871.448 64.5611C871.266 64.929 871.174 65.3234 871.174 65.7443V66.4205C871.174 66.9972 871.274 67.486 871.473 67.8871C871.675 68.2848 871.955 68.5881 872.313 68.7969C872.671 69.0024 873.087 69.1051 873.561 69.1051C873.869 69.1051 874.147 69.062 874.396 68.9759C874.648 68.8864 874.865 68.7538 875.047 68.5781C875.23 68.3991 875.37 68.1771 875.47 67.9119L876.603 68.2301C876.484 68.6146 876.283 68.9527 876.002 69.2443C875.72 69.5327 875.372 69.758 874.958 69.9205C874.543 70.0795 874.078 70.1591 873.561 70.1591ZM890.797 63H889.564C889.491 62.6454 889.364 62.3338 889.181 62.0653C889.002 61.7969 888.784 61.5715 888.525 61.3892C888.27 61.2036 887.987 61.0644 887.675 60.9716C887.364 60.8788 887.039 60.8324 886.701 60.8324C886.084 60.8324 885.526 60.9882 885.025 61.2997C884.528 61.6113 884.132 62.0703 883.837 62.6768C883.545 63.2834 883.4 64.0275 883.4 64.9091C883.4 65.7907 883.545 66.5348 883.837 67.1413C884.132 67.7479 884.528 68.2069 885.025 68.5185C885.526 68.83 886.084 68.9858 886.701 68.9858C887.039 68.9858 887.364 68.9394 887.675 68.8466C887.987 68.7538 888.27 68.6162 888.525 68.4339C888.784 68.2483 889.002 68.0213 889.181 67.7528C889.364 67.4811 889.491 67.1695 889.564 66.8182H890.797C890.704 67.3385 890.535 67.8042 890.29 68.2152C890.045 68.6262 889.74 68.9759 889.375 69.2642C889.011 69.5492 888.601 69.7663 888.147 69.9155C887.697 70.0646 887.214 70.1392 886.701 70.1392C885.832 70.1392 885.06 69.9271 884.384 69.5028C883.708 69.0786 883.176 68.4754 882.788 67.6932C882.4 66.911 882.206 65.983 882.206 64.9091C882.206 63.8352 882.4 62.9072 882.788 62.125C883.176 61.3428 883.708 60.7396 884.384 60.3153C885.06 59.8911 885.832 59.679 886.701 59.679C887.214 59.679 887.697 59.7536 888.147 59.9027C888.601 60.0518 889.011 60.2706 889.375 60.5589C889.74 60.844 890.045 61.192 890.29 61.603C890.535 62.0107 890.704 62.4763 890.797 63ZM895.733 70.1591C895.043 70.1591 894.439 69.995 893.918 69.6669C893.401 69.3388 892.997 68.8797 892.705 68.2898C892.417 67.6998 892.273 67.0104 892.273 66.2216C892.273 65.4261 892.417 64.7318 892.705 64.1385C892.997 63.5452 893.401 63.0845 893.918 62.7564C894.439 62.4283 895.043 62.2642 895.733 62.2642C896.422 62.2642 897.025 62.4283 897.542 62.7564C898.063 63.0845 898.467 63.5452 898.756 64.1385C899.047 64.7318 899.193 65.4261 899.193 66.2216C899.193 67.0104 899.047 67.6998 898.756 68.2898C898.467 68.8797 898.063 69.3388 897.542 69.6669C897.025 69.995 896.422 70.1591 895.733 70.1591ZM895.733 69.1051C896.256 69.1051 896.687 68.9709 897.025 68.7024C897.363 68.4339 897.614 68.081 897.776 67.6435C897.939 67.206 898.02 66.732 898.02 66.2216C898.02 65.7112 897.939 65.2356 897.776 64.7947C897.614 64.3539 897.363 63.9976 897.025 63.7259C896.687 63.4541 896.256 63.3182 895.733 63.3182C895.209 63.3182 894.778 63.4541 894.44 63.7259C894.102 63.9976 893.852 64.3539 893.689 64.7947C893.527 65.2356 893.446 65.7112 893.446 66.2216C893.446 66.732 893.527 67.206 893.689 67.6435C893.852 68.081 894.102 68.4339 894.44 68.7024C894.778 68.9709 895.209 69.1051 895.733 69.1051ZM902.157 65.4062V70H900.984V62.3636H902.118V63.5568H902.217C902.396 63.169 902.668 62.8575 903.032 62.6222C903.397 62.3835 903.868 62.2642 904.444 62.2642C904.961 62.2642 905.414 62.3703 905.801 62.5824C906.189 62.7912 906.491 63.1094 906.706 63.5369C906.922 63.9612 907.029 64.4981 907.029 65.1477V70H905.856V65.2273C905.856 64.6274 905.7 64.16 905.389 63.8253C905.077 63.4872 904.65 63.3182 904.106 63.3182C903.732 63.3182 903.397 63.3994 903.102 63.5618C902.81 63.7242 902.58 63.9612 902.411 64.2727C902.242 64.5843 902.157 64.9621 902.157 65.4062ZM910.347 65.4062V70H909.173V62.3636H910.307V63.5568H910.406C910.585 63.169 910.857 62.8575 911.222 62.6222C911.586 62.3835 912.057 62.2642 912.634 62.2642C913.151 62.2642 913.603 62.3703 913.991 62.5824C914.379 62.7912 914.68 63.1094 914.896 63.5369C915.111 63.9612 915.219 64.4981 915.219 65.1477V70H914.046V65.2273C914.046 64.6274 913.89 64.16 913.578 63.8253C913.267 63.4872 912.839 63.3182 912.296 63.3182C911.921 63.3182 911.586 63.3994 911.291 63.5618C911 63.7242 910.769 63.9612 910.6 64.2727C910.431 64.5843 910.347 64.9621 910.347 65.4062ZM920.565 70.1591C919.829 70.1591 919.194 69.9967 918.661 69.6719C918.13 69.3438 917.721 68.8864 917.433 68.2997C917.147 67.7098 917.005 67.0237 917.005 66.2415C917.005 65.4593 917.147 64.7699 917.433 64.1733C917.721 63.5734 918.122 63.1061 918.636 62.7713C919.153 62.4332 919.756 62.2642 920.445 62.2642C920.843 62.2642 921.236 62.3305 921.624 62.4631C922.011 62.5956 922.364 62.8111 922.683 63.1094C923.001 63.4044 923.254 63.7955 923.443 64.2827C923.632 64.7699 923.727 65.3698 923.727 66.0824V66.5795H917.84V65.5653H922.533C922.533 65.1345 922.447 64.75 922.275 64.4119C922.106 64.0739 921.864 63.8071 921.549 63.6115C921.237 63.416 920.87 63.3182 920.445 63.3182C919.978 63.3182 919.574 63.4342 919.232 63.6662C918.894 63.8949 918.634 64.1932 918.452 64.5611C918.269 64.929 918.178 65.3234 918.178 65.7443V66.4205C918.178 66.9972 918.278 67.486 918.477 67.8871C918.679 68.2848 918.959 68.5881 919.317 68.7969C919.675 69.0024 920.091 69.1051 920.565 69.1051C920.873 69.1051 921.151 69.062 921.4 68.9759C921.652 68.8864 921.869 68.7538 922.051 68.5781C922.233 68.3991 922.374 68.1771 922.474 67.9119L923.607 68.2301C923.488 68.6146 923.287 68.9527 923.006 69.2443C922.724 69.5327 922.376 69.758 921.962 69.9205C921.547 70.0795 921.082 70.1591 920.565 70.1591ZM928.614 70.1591C927.898 70.1591 927.281 69.9901 926.764 69.652C926.247 69.3139 925.849 68.8482 925.571 68.255C925.293 67.6617 925.153 66.9839 925.153 66.2216C925.153 65.446 925.296 64.7616 925.581 64.1683C925.869 63.5717 926.27 63.1061 926.784 62.7713C927.301 62.4332 927.904 62.2642 928.594 62.2642C929.131 62.2642 929.615 62.3636 930.045 62.5625C930.476 62.7614 930.829 63.0398 931.104 63.3977C931.379 63.7557 931.55 64.1733 931.616 64.6506H930.443C930.354 64.3026 930.155 63.9943 929.847 63.7259C929.542 63.4541 929.131 63.3182 928.614 63.3182C928.156 63.3182 927.755 63.4375 927.411 63.6761C927.069 63.9115 926.802 64.2446 926.61 64.6754C926.421 65.103 926.327 65.6051 926.327 66.1818C926.327 66.7718 926.42 67.2855 926.605 67.723C926.794 68.1605 927.059 68.5002 927.401 68.7422C927.745 68.9841 928.15 69.1051 928.614 69.1051C928.919 69.1051 929.195 69.0521 929.444 68.946C929.692 68.84 929.903 68.6875 930.075 68.4886C930.248 68.2898 930.37 68.0511 930.443 67.7727H931.616C931.55 68.2235 931.386 68.6295 931.124 68.9908C930.866 69.3487 930.523 69.6338 930.095 69.8459C929.671 70.0547 929.177 70.1591 928.614 70.1591ZM936.653 62.3636V63.358H932.695V62.3636H936.653ZM933.849 60.5341H935.022V67.8125C935.022 68.1439 935.07 68.3925 935.166 68.5582C935.266 68.7206 935.392 68.83 935.544 68.8864C935.7 68.9394 935.864 68.9659 936.036 68.9659C936.165 68.9659 936.272 68.9593 936.354 68.946C936.437 68.9295 936.504 68.9162 936.553 68.9062L936.792 69.9602C936.712 69.9901 936.601 70.0199 936.459 70.0497C936.316 70.0829 936.136 70.0994 935.917 70.0994C935.585 70.0994 935.261 70.0282 934.942 69.8857C934.628 69.7431 934.366 69.526 934.157 69.2344C933.951 68.9427 933.849 68.5748 933.849 68.1307V60.5341ZM938.418 70V62.3636H939.591V70H938.418ZM939.014 61.0909C938.786 61.0909 938.588 61.013 938.423 60.8572C938.26 60.7015 938.179 60.5142 938.179 60.2955C938.179 60.0767 938.26 59.8894 938.423 59.7337C938.588 59.5779 938.786 59.5 939.014 59.5C939.243 59.5 939.438 59.5779 939.601 59.7337C939.767 59.8894 939.849 60.0767 939.849 60.2955C939.849 60.5142 939.767 60.7015 939.601 60.8572C939.438 61.013 939.243 61.0909 939.014 61.0909ZM944.842 70.1591C944.153 70.1591 943.548 69.995 943.028 69.6669C942.51 69.3388 942.106 68.8797 941.814 68.2898C941.526 67.6998 941.382 67.0104 941.382 66.2216C941.382 65.4261 941.526 64.7318 941.814 64.1385C942.106 63.5452 942.51 63.0845 943.028 62.7564C943.548 62.4283 944.153 62.2642 944.842 62.2642C945.532 62.2642 946.135 62.4283 946.652 62.7564C947.172 63.0845 947.577 63.5452 947.865 64.1385C948.157 64.7318 948.302 65.4261 948.302 66.2216C948.302 67.0104 948.157 67.6998 947.865 68.2898C947.577 68.8797 947.172 69.3388 946.652 69.6669C946.135 69.995 945.532 70.1591 944.842 70.1591ZM944.842 69.1051C945.366 69.1051 945.797 68.9709 946.135 68.7024C946.473 68.4339 946.723 68.081 946.885 67.6435C947.048 67.206 947.129 66.732 947.129 66.2216C947.129 65.7112 947.048 65.2356 946.885 64.7947C946.723 64.3539 946.473 63.9976 946.135 63.7259C945.797 63.4541 945.366 63.3182 944.842 63.3182C944.318 63.3182 943.888 63.4541 943.55 63.7259C943.211 63.9976 942.961 64.3539 942.799 64.7947C942.636 65.2356 942.555 65.7112 942.555 66.2216C942.555 66.732 942.636 67.206 942.799 67.6435C942.961 68.081 943.211 68.4339 943.55 68.7024C943.888 68.9709 944.318 69.1051 944.842 69.1051ZM951.267 65.4062V70H950.093V62.3636H951.227V63.5568H951.326C951.505 63.169 951.777 62.8575 952.142 62.6222C952.506 62.3835 952.977 62.2642 953.554 62.2642C954.071 62.2642 954.523 62.3703 954.911 62.5824C955.299 62.7912 955.6 63.1094 955.816 63.5369C956.031 63.9612 956.139 64.4981 956.139 65.1477V70H954.966V65.2273C954.966 64.6274 954.81 64.16 954.498 63.8253C954.187 63.4872 953.759 63.3182 953.216 63.3182C952.841 63.3182 952.506 63.3994 952.211 63.5618C951.92 63.7242 951.689 63.9612 951.52 64.2727C951.351 64.5843 951.267 64.9621 951.267 65.4062ZM963.692 64.0739L962.638 64.3722C962.572 64.1965 962.474 64.0258 962.345 63.8601C962.219 63.6911 962.046 63.5518 961.828 63.4425C961.609 63.3331 961.329 63.2784 960.987 63.2784C960.52 63.2784 960.131 63.3861 959.819 63.6016C959.511 63.8137 959.357 64.0838 959.357 64.4119C959.357 64.7036 959.463 64.9339 959.675 65.103C959.887 65.272 960.218 65.4129 960.669 65.5256L961.803 65.804C962.485 65.9697 962.994 66.2232 963.329 66.5646C963.664 66.9027 963.831 67.3385 963.831 67.8722C963.831 68.3097 963.705 68.7008 963.453 69.0455C963.205 69.3902 962.857 69.6619 962.409 69.8608C961.962 70.0597 961.441 70.1591 960.848 70.1591C960.069 70.1591 959.425 69.9901 958.914 69.652C958.404 69.3139 958.081 68.8201 957.945 68.1705L959.058 67.892C959.164 68.303 959.365 68.6113 959.66 68.8168C959.958 69.0223 960.348 69.125 960.828 69.125C961.375 69.125 961.809 69.009 962.131 68.777C962.456 68.5417 962.618 68.2599 962.618 67.9318C962.618 67.6667 962.525 67.4446 962.34 67.2656C962.154 67.0833 961.869 66.9474 961.485 66.858L960.212 66.5597C959.512 66.3939 958.999 66.1371 958.671 65.7891C958.346 65.4377 958.183 64.9986 958.183 64.4716C958.183 64.0407 958.304 63.6596 958.546 63.3281C958.792 62.9967 959.125 62.7365 959.546 62.5476C959.97 62.3587 960.45 62.2642 960.987 62.2642C961.743 62.2642 962.336 62.4299 962.767 62.7614C963.201 63.0928 963.51 63.5303 963.692 64.0739Z" fill="#616B7C"/>
<path d="M859 187.906C859 186.301 860.301 185 861.906 185C863.511 185 864.812 186.301 864.812 187.906V281.646H859V187.906Z" fill="#F02E65"/>
<path d="M883.812 219.841C883.812 218.236 885.113 216.935 886.717 216.935C888.322 216.935 889.623 218.236 889.623 219.841V281.646H883.812V219.841Z" fill="#F02E65"/>
<path d="M908.623 245.053C908.623 243.448 909.924 242.147 911.529 242.147C913.134 242.147 914.435 243.448 914.435 245.053V281.646H908.623V245.053Z" fill="#F02E65"/>
<path d="M933.436 229.086C933.436 227.481 934.737 226.18 936.341 226.18C937.946 226.18 939.247 227.481 939.247 229.086V281.646H933.436V229.086Z" fill="#F02E65"/>
<path d="M958.247 203.873C958.247 202.268 959.548 200.967 961.153 200.967C962.758 200.967 964.059 202.268 964.059 203.873V281.646H958.247V203.873Z" fill="#F02E65"/>
<path d="M983.059 187.906C983.059 186.301 984.36 185 985.965 185C987.569 185 988.87 186.301 988.87 187.906V281.646H983.059V187.906Z" fill="#F02E65"/>
<path d="M1007.87 219.841C1007.87 218.236 1009.17 216.935 1010.78 216.935C1012.38 216.935 1013.68 218.236 1013.68 219.841V281.646H1007.87V219.841Z" fill="#F02E65"/>
<path d="M1032.68 245.053C1032.68 243.448 1033.98 242.147 1035.59 242.147C1037.19 242.147 1038.49 243.448 1038.49 245.053V281.646H1032.68V245.053Z" fill="#F02E65"/>
<path d="M1057.49 229.086C1057.49 227.481 1058.8 226.18 1060.4 226.18C1062 226.18 1063.31 227.481 1063.31 229.086V281.646H1057.49V229.086Z" fill="#F02E65"/>
<path d="M1082.31 203.873C1082.31 202.268 1083.61 200.967 1085.21 200.967C1086.82 200.967 1088.12 202.268 1088.12 203.873V281.646H1082.31V203.873Z" fill="#F02E65"/>
<path d="M1107.12 219.841C1107.12 218.236 1108.42 216.935 1110.02 216.935C1111.63 216.935 1112.93 218.236 1112.93 219.841V281.646H1107.12V219.841Z" fill="#F02E65"/>
<path d="M1131.93 245.053C1131.93 243.448 1133.23 242.147 1134.84 242.147C1136.44 242.147 1137.74 243.448 1137.74 245.053V281.646H1131.93V245.053Z" fill="#F02E65"/>
<rect x="34" y="99" width="92" height="12" rx="6" fill="url(#paint10_linear_1297_52063)"/>
<rect x="34" y="119" width="40" height="8" rx="4" fill="url(#paint11_linear_1297_52063)"/>
<rect x="302" y="119" width="40" height="8" rx="4" fill="url(#paint12_linear_1297_52063)"/>
<rect width="1170" height="388" rx="19" fill="url(#paint13_linear_1297_52063)"/>
<defs>
<filter id="filter0_d_1297_52063" x="763.5" y="-16.5" width="439" height="405" filterUnits="userSpaceOnUse" color-interpolation-filters="sRGB">
<feFlood flood-opacity="0" result="BackgroundImageFix"/>
<feColorMatrix in="SourceAlpha" type="matrix" values="0 0 0 0 0 0 0 0 0 0 0 0 0 0 0 0 0 0 127 0" result="hardAlpha"/>
<feOffset dy="16"/>
<feGaussianBlur stdDeviation="16"/>
<feColorMatrix type="matrix" values="0 0 0 0 0.215686 0 0 0 0 0.231373 0 0 0 0 0.301961 0 0 0 0.02 0"/>
<feBlend mode="normal" in2="BackgroundImageFix" result="effect1_dropShadow_1297_52063"/>
<feBlend mode="normal" in="SourceGraphic" in2="effect1_dropShadow_1297_52063" result="shape"/>
</filter>
<filter id="filter1_d_1297_52063" x="-30.5" y="166.5" width="437" height="225" filterUnits="userSpaceOnUse" color-interpolation-filters="sRGB">
<feFlood flood-opacity="0" result="BackgroundImageFix"/>
<feColorMatrix in="SourceAlpha" type="matrix" values="0 0 0 0 0 0 0 0 0 0 0 0 0 0 0 0 0 0 127 0" result="hardAlpha"/>
<feOffset dy="16"/>
<feGaussianBlur stdDeviation="16"/>
<feColorMatrix type="matrix" values="0 0 0 0 0.215686 0 0 0 0 0.231373 0 0 0 0 0.301961 0 0 0 0.02 0"/>
<feBlend mode="normal" in2="BackgroundImageFix" result="effect1_dropShadow_1297_52063"/>
<feBlend mode="normal" in="SourceGraphic" in2="effect1_dropShadow_1297_52063" result="shape"/>
</filter>
<filter id="filter2_d_1297_52063" x="366.5" y="166.5" width="437" height="225" filterUnits="userSpaceOnUse" color-interpolation-filters="sRGB">
<feFlood flood-opacity="0" result="BackgroundImageFix"/>
<feColorMatrix in="SourceAlpha" type="matrix" values="0 0 0 0 0 0 0 0 0 0 0 0 0 0 0 0 0 0 127 0" result="hardAlpha"/>
<feOffset dy="16"/>
<feGaussianBlur stdDeviation="16"/>
<feColorMatrix type="matrix" values="0 0 0 0 0.215686 0 0 0 0 0.231373 0 0 0 0 0.301961 0 0 0 0.02 0"/>
<feBlend mode="normal" in2="BackgroundImageFix" result="effect1_dropShadow_1297_52063"/>
<feBlend mode="normal" in="SourceGraphic" in2="effect1_dropShadow_1297_52063" result="shape"/>
</filter>
<filter id="filter3_d_1297_52063" x="-30.5" y="-16.5" width="437" height="225" filterUnits="userSpaceOnUse" color-interpolation-filters="sRGB">
<feFlood flood-opacity="0" result="BackgroundImageFix"/>
<feColorMatrix in="SourceAlpha" type="matrix" values="0 0 0 0 0 0 0 0 0 0 0 0 0 0 0 0 0 0 127 0" result="hardAlpha"/>
<feOffset dy="16"/>
<feGaussianBlur stdDeviation="16"/>
<feColorMatrix type="matrix" values="0 0 0 0 0.215686 0 0 0 0 0.231373 0 0 0 0 0.301961 0 0 0 0.02 0"/>
<feBlend mode="normal" in2="BackgroundImageFix" result="effect1_dropShadow_1297_52063"/>
<feBlend mode="normal" in="SourceGraphic" in2="effect1_dropShadow_1297_52063" result="shape"/>
</filter>
<filter id="filter4_d_1297_52063" x="366.5" y="-16.5" width="437" height="225" filterUnits="userSpaceOnUse" color-interpolation-filters="sRGB">
<feFlood flood-opacity="0" result="BackgroundImageFix"/>
<feColorMatrix in="SourceAlpha" type="matrix" values="0 0 0 0 0 0 0 0 0 0 0 0 0 0 0 0 0 0 127 0" result="hardAlpha"/>
<feOffset dy="16"/>
<feGaussianBlur stdDeviation="16"/>
<feColorMatrix type="matrix" values="0 0 0 0 0.215686 0 0 0 0 0.231373 0 0 0 0 0.301961 0 0 0 0.02 0"/>
<feBlend mode="normal" in2="BackgroundImageFix" result="effect1_dropShadow_1297_52063"/>
<feBlend mode="normal" in="SourceGraphic" in2="effect1_dropShadow_1297_52063" result="shape"/>
</filter>
<linearGradient id="paint0_linear_1297_52063" x1="34" y1="289" x2="118" y2="289" gradientUnits="userSpaceOnUse">
<stop stop-color="#E8E9F0"/>
<stop offset="1" stop-color="#E8E9F0" stop-opacity="0"/>
</linearGradient>
<linearGradient id="paint1_linear_1297_52063" x1="31" y1="307.667" x2="73.9927" y2="308.417" gradientUnits="userSpaceOnUse">
<stop stop-color="#E8E9F0"/>
<stop offset="1" stop-color="#E8E9F0" stop-opacity="0"/>
</linearGradient>
<linearGradient id="paint2_linear_1297_52063" x1="299" y1="307.667" x2="341.993" y2="308.417" gradientUnits="userSpaceOnUse">
<stop stop-color="#E8E9F0"/>
<stop offset="1" stop-color="#E8E9F0" stop-opacity="0"/>
</linearGradient>
<linearGradient id="paint3_linear_1297_52063" x1="431" y1="289" x2="515" y2="289" gradientUnits="userSpaceOnUse">
<stop stop-color="#E8E9F0"/>
<stop offset="1" stop-color="#E8E9F0" stop-opacity="0"/>
</linearGradient>
<linearGradient id="paint4_linear_1297_52063" x1="428" y1="307.667" x2="470.993" y2="308.417" gradientUnits="userSpaceOnUse">
<stop stop-color="#E8E9F0"/>
<stop offset="1" stop-color="#E8E9F0" stop-opacity="0"/>
</linearGradient>
<linearGradient id="paint5_linear_1297_52063" x1="696" y1="307.667" x2="738.993" y2="308.417" gradientUnits="userSpaceOnUse">
<stop stop-color="#E8E9F0"/>
<stop offset="1" stop-color="#E8E9F0" stop-opacity="0"/>
</linearGradient>
<linearGradient id="paint6_linear_1297_52063" x1="431" y1="105" x2="515" y2="105" gradientUnits="userSpaceOnUse">
<stop stop-color="#E8E9F0"/>
<stop offset="1" stop-color="#E8E9F0" stop-opacity="0"/>
</linearGradient>
<linearGradient id="paint7_linear_1297_52063" x1="428" y1="123.667" x2="470.993" y2="124.417" gradientUnits="userSpaceOnUse">
<stop stop-color="#E8E9F0"/>
<stop offset="1" stop-color="#E8E9F0" stop-opacity="0"/>
</linearGradient>
<linearGradient id="paint8_linear_1297_52063" x1="696" y1="123.667" x2="738.993" y2="124.417" gradientUnits="userSpaceOnUse">
<stop stop-color="#E8E9F0"/>
<stop offset="1" stop-color="#E8E9F0" stop-opacity="0"/>
</linearGradient>
<linearGradient id="paint9_linear_1297_52063" x1="820" y1="38" x2="904" y2="38" gradientUnits="userSpaceOnUse">
<stop stop-color="#E8E9F0"/>
<stop offset="1" stop-color="#E8E9F0" stop-opacity="0"/>
</linearGradient>
<linearGradient id="paint10_linear_1297_52063" x1="34" y1="105" x2="118" y2="105" gradientUnits="userSpaceOnUse">
<stop stop-color="#E8E9F0"/>
<stop offset="1" stop-color="#E8E9F0" stop-opacity="0"/>
</linearGradient>
<linearGradient id="paint11_linear_1297_52063" x1="31" y1="123.667" x2="73.9927" y2="124.417" gradientUnits="userSpaceOnUse">
<stop stop-color="#E8E9F0"/>
<stop offset="1" stop-color="#E8E9F0" stop-opacity="0"/>
</linearGradient>
<linearGradient id="paint12_linear_1297_52063" x1="299" y1="123.667" x2="341.993" y2="124.417" gradientUnits="userSpaceOnUse">
<stop stop-color="#E8E9F0"/>
<stop offset="1" stop-color="#E8E9F0" stop-opacity="0"/>
</linearGradient>
<linearGradient id="paint13_linear_1297_52063" x1="585" y1="0" x2="585" y2="388" gradientUnits="userSpaceOnUse">
<stop stop-color="white" stop-opacity="0.2"/>
<stop offset="0.702208" stop-color="#FDFDFF"/>
<stop offset="1" stop-color="#FCFCFF"/>
</linearGradient>
</defs>
</svg>
