<svg width="1173" height="390" viewBox="0 0 1173 390" fill="none" xmlns="http://www.w3.org/2000/svg">
<g filter="url(#filter0_d_1297_52065)">
<rect x="796" y="2" width="374" height="340" rx="16" fill="#1B1B28"/>
<rect x="796" y="2" width="374" height="340" rx="16" stroke="#282A3B"/>
</g>
<path d="M830.138 135.958V135.191L833.018 132.038C833.357 131.668 833.635 131.347 833.854 131.074C834.072 130.799 834.234 130.54 834.339 130.299C834.447 130.055 834.501 129.799 834.501 129.532C834.501 129.225 834.428 128.959 834.28 128.735C834.135 128.511 833.936 128.337 833.683 128.215C833.43 128.093 833.146 128.032 832.831 128.032C832.496 128.032 832.203 128.101 831.953 128.241C831.706 128.377 831.514 128.569 831.378 128.816C831.244 129.063 831.178 129.353 831.178 129.685H830.172C830.172 129.174 830.29 128.725 830.526 128.339C830.761 127.952 831.082 127.651 831.489 127.435C831.898 127.219 832.357 127.111 832.865 127.111C833.376 127.111 833.83 127.219 834.224 127.435C834.619 127.651 834.929 127.942 835.153 128.309C835.378 128.675 835.49 129.083 835.49 129.532C835.49 129.853 835.432 130.167 835.315 130.474C835.202 130.778 835.003 131.117 834.719 131.492C834.438 131.864 834.047 132.319 833.547 132.856L831.587 134.952V135.021H835.643V135.958H830.138ZM840.25 136.077C839.608 136.077 839.061 135.903 838.609 135.553C838.158 135.201 837.813 134.691 837.574 134.023C837.335 133.353 837.216 132.543 837.216 131.594C837.216 130.651 837.335 129.846 837.574 129.178C837.815 128.508 838.162 127.996 838.614 127.644C839.068 127.289 839.614 127.111 840.25 127.111C840.886 127.111 841.43 127.289 841.882 127.644C842.337 127.996 842.683 128.508 842.922 129.178C843.163 129.846 843.284 130.651 843.284 131.594C843.284 132.543 843.165 133.353 842.926 134.023C842.688 134.691 842.342 135.201 841.891 135.553C841.439 135.903 840.892 136.077 840.25 136.077ZM840.25 135.14C840.886 135.14 841.381 134.833 841.733 134.219C842.085 133.606 842.261 132.731 842.261 131.594C842.261 130.839 842.18 130.195 842.018 129.664C841.859 129.133 841.629 128.728 841.328 128.449C841.03 128.171 840.67 128.032 840.25 128.032C839.619 128.032 839.126 128.343 838.771 128.965C838.416 129.584 838.239 130.461 838.239 131.594C838.239 132.35 838.318 132.992 838.477 133.521C838.636 134.049 838.865 134.451 839.163 134.726C839.464 135.002 839.827 135.14 840.25 135.14Z" fill="#868EA3"/>
<line x1="860" y1="131.708" x2="1138" y2="131.708" stroke="#868EA3" stroke-width="0.5"/>
<path d="M835.093 165.003V173.731H834.036V166.111H833.985L831.854 167.526V166.452L834.036 165.003H835.093ZM840.33 173.85C839.83 173.85 839.38 173.751 838.979 173.552C838.578 173.353 838.257 173.08 838.016 172.734C837.775 172.387 837.642 171.992 837.62 171.549H838.642C838.682 171.944 838.861 172.27 839.179 172.529C839.5 172.785 839.884 172.913 840.33 172.913C840.688 172.913 841.006 172.829 841.284 172.661C841.566 172.493 841.786 172.263 841.945 171.971C842.107 171.675 842.188 171.342 842.188 170.969C842.188 170.589 842.104 170.249 841.936 169.951C841.772 169.65 841.544 169.413 841.255 169.239C840.965 169.066 840.634 168.978 840.262 168.975C839.995 168.972 839.721 169.013 839.439 169.099C839.158 169.181 838.926 169.288 838.745 169.418L837.756 169.299L838.284 165.003H842.819V165.941H839.171L838.864 168.515H838.915C839.094 168.373 839.319 168.255 839.588 168.161C839.858 168.067 840.14 168.02 840.432 168.02C840.966 168.02 841.442 168.148 841.86 168.404C842.28 168.657 842.61 169.003 842.848 169.444C843.09 169.884 843.211 170.387 843.211 170.952C843.211 171.509 843.086 172.006 842.836 172.444C842.588 172.878 842.248 173.222 841.813 173.475C841.378 173.725 840.884 173.85 840.33 173.85Z" fill="#868EA3"/>
<line x1="860" y1="169.481" x2="1138" y2="169.481" stroke="#868EA3" stroke-width="0.5"/>
<path d="M834.893 203.77V212.497H833.837V204.878H833.786L831.655 206.293V205.219L833.837 203.77H834.893ZM840.25 212.616C839.608 212.616 839.061 212.442 838.609 212.092C838.158 211.74 837.813 211.23 837.574 210.562C837.335 209.892 837.216 209.082 837.216 208.133C837.216 207.19 837.335 206.385 837.574 205.717C837.815 205.047 838.162 204.535 838.614 204.183C839.068 203.828 839.614 203.65 840.25 203.65C840.886 203.65 841.43 203.828 841.882 204.183C842.337 204.535 842.683 205.047 842.922 205.717C843.163 206.385 843.284 207.19 843.284 208.133C843.284 209.082 843.165 209.892 842.926 210.562C842.688 211.23 842.342 211.74 841.891 212.092C841.439 212.442 840.892 212.616 840.25 212.616ZM840.25 211.679C840.886 211.679 841.381 211.372 841.733 210.758C842.085 210.145 842.261 209.27 842.261 208.133C842.261 207.378 842.18 206.734 842.018 206.203C841.859 205.672 841.629 205.267 841.328 204.989C841.03 204.71 840.67 204.571 840.25 204.571C839.619 204.571 839.126 204.882 838.771 205.504C838.416 206.123 838.239 207 838.239 208.133C838.239 208.889 838.318 209.531 838.477 210.06C838.636 210.588 838.865 210.99 839.163 211.266C839.464 211.541 839.827 211.679 840.25 211.679Z" fill="#868EA3"/>
<line x1="860" y1="208.247" x2="1138" y2="208.247" stroke="#868EA3" stroke-width="0.5"/>
<path d="M840.33 250.389C839.83 250.389 839.38 250.29 838.979 250.091C838.578 249.892 838.257 249.619 838.016 249.273C837.775 248.926 837.642 248.531 837.62 248.088H838.642C838.682 248.483 838.861 248.81 839.179 249.068C839.5 249.324 839.884 249.452 840.33 249.452C840.688 249.452 841.006 249.368 841.284 249.2C841.566 249.033 841.786 248.802 841.945 248.51C842.107 248.214 842.188 247.881 842.188 247.508C842.188 247.128 842.104 246.788 841.936 246.49C841.772 246.189 841.544 245.952 841.255 245.778C840.965 245.605 840.634 245.517 840.262 245.514C839.995 245.511 839.721 245.552 839.439 245.638C839.158 245.72 838.926 245.827 838.745 245.957L837.756 245.838L838.284 241.543H842.819V242.48H839.171L838.864 245.054H838.915C839.094 244.912 839.319 244.794 839.588 244.7C839.858 244.606 840.14 244.56 840.432 244.56C840.966 244.56 841.442 244.687 841.86 244.943C842.28 245.196 842.61 245.543 842.848 245.983C843.09 246.423 843.211 246.926 843.211 247.491C843.211 248.048 843.086 248.545 842.836 248.983C842.588 249.418 842.248 249.761 841.813 250.014C841.378 250.264 840.884 250.389 840.33 250.389Z" fill="#868EA3"/>
<line x1="860" y1="246.02" x2="1138" y2="246.02" stroke="#868EA3" stroke-width="0.5"/>
<path d="M840.25 288.161C839.608 288.161 839.061 287.987 838.609 287.637C838.158 287.285 837.813 286.775 837.574 286.107C837.335 285.437 837.216 284.627 837.216 283.678C837.216 282.735 837.335 281.93 837.574 281.262C837.815 280.592 838.162 280.08 838.614 279.728C839.068 279.373 839.614 279.195 840.25 279.195C840.886 279.195 841.43 279.373 841.882 279.728C842.337 280.08 842.683 280.592 842.922 281.262C843.163 281.93 843.284 282.735 843.284 283.678C843.284 284.627 843.165 285.437 842.926 286.107C842.688 286.775 842.342 287.285 841.891 287.637C841.439 287.987 840.892 288.161 840.25 288.161ZM840.25 287.224C840.886 287.224 841.381 286.917 841.733 286.303C842.085 285.69 842.261 284.815 842.261 283.678C842.261 282.923 842.18 282.279 842.018 281.748C841.859 281.217 841.629 280.812 841.328 280.533C841.03 280.255 840.67 280.116 840.25 280.116C839.619 280.116 839.126 280.427 838.771 281.049C838.416 281.668 838.239 282.545 838.239 283.678C838.239 284.434 838.318 285.076 838.477 285.604C838.636 286.133 838.865 286.535 839.163 286.81C839.464 287.086 839.827 287.224 840.25 287.224Z" fill="#868EA3"/>
<line x1="860" y1="283.792" x2="1138" y2="283.792" stroke="#868EA3" stroke-width="0.5"/>
<g filter="url(#filter1_d_1297_52065)">
<rect x="2" y="185" width="372" height="160" rx="16" fill="#1B1B28"/>
<rect x="2" y="185" width="372" height="160" rx="16" stroke="#282A3B"/>
</g>
<rect x="34" y="285" width="92" height="12" rx="6" fill="url(#paint0_linear_1297_52065)"/>
<rect x="34" y="305" width="40" height="8" rx="4" fill="url(#paint1_linear_1297_52065)"/>
<rect x="302" y="305" width="40" height="8" rx="4" fill="url(#paint2_linear_1297_52065)"/>
<path d="M60.0391 231H58.6414L61.782 222.273H63.3034L66.444 231H65.0462L62.5789 223.858H62.5107L60.0391 231ZM60.2735 227.582H64.8076V228.69H60.2735V227.582ZM74.7565 222.273H76.0775V228.013C76.0775 228.624 75.934 229.165 75.6471 229.636C75.3602 230.105 74.9568 230.474 74.4369 230.744C73.917 231.011 73.3076 231.145 72.6088 231.145C71.9127 231.145 71.3048 231.011 70.7849 230.744C70.265 230.474 69.8616 230.105 69.5747 229.636C69.2877 229.165 69.1443 228.624 69.1443 228.013V222.273H70.461V227.906C70.461 228.301 70.5477 228.652 70.721 228.959C70.8971 229.266 71.1457 229.507 71.4667 229.683C71.7877 229.857 72.1684 229.943 72.6088 229.943C73.0519 229.943 73.434 229.857 73.7551 229.683C74.0789 229.507 74.3261 229.266 74.4965 228.959C74.6698 228.652 74.7565 228.301 74.7565 227.906V222.273ZM79.0015 223.406V222.273H85.7558V223.406H83.0328V231H81.7203V223.406H79.0015ZM88.6883 231V222.273H90.0051V226.065H94.356V222.273H95.677V231H94.356V227.195H90.0051V231H88.6883ZM99.0346 231V222.273H104.506V223.406H100.351V226.065H104.221V227.195H100.351V229.866H104.557V231H99.0346ZM114.749 222.273V231H113.539L109.103 224.599H109.022V231H107.705V222.273H108.924L113.364 228.682H113.445V222.273H114.749ZM117.68 223.406V222.273H124.434V223.406H121.711V231H120.398V223.406H117.68ZM128.683 222.273V231H127.366V222.273H128.683ZM139.289 225.111H137.96C137.909 224.827 137.813 224.577 137.674 224.361C137.535 224.145 137.365 223.962 137.163 223.811C136.961 223.661 136.735 223.547 136.485 223.47C136.238 223.393 135.975 223.355 135.697 223.355C135.194 223.355 134.744 223.482 134.346 223.734C133.951 223.987 133.639 224.358 133.409 224.847C133.181 225.335 133.068 225.932 133.068 226.636C133.068 227.347 133.181 227.946 133.409 228.435C133.639 228.923 133.953 229.293 134.35 229.543C134.748 229.793 135.196 229.918 135.693 229.918C135.968 229.918 136.23 229.881 136.477 229.807C136.727 229.73 136.953 229.618 137.154 229.47C137.356 229.322 137.526 229.142 137.666 228.929C137.808 228.713 137.906 228.466 137.96 228.188L139.289 228.192C139.218 228.621 139.08 229.016 138.876 229.376C138.674 229.734 138.414 230.044 138.096 230.305C137.781 230.564 137.42 230.764 137.014 230.906C136.607 231.048 136.164 231.119 135.684 231.119C134.928 231.119 134.255 230.94 133.664 230.582C133.073 230.222 132.607 229.706 132.267 229.036C131.928 228.365 131.759 227.565 131.759 226.636C131.759 225.705 131.93 224.905 132.271 224.237C132.612 223.567 133.078 223.053 133.669 222.695C134.259 222.334 134.931 222.153 135.684 222.153C136.147 222.153 136.579 222.22 136.98 222.354C137.383 222.484 137.745 222.678 138.066 222.933C138.387 223.186 138.653 223.496 138.863 223.862C139.073 224.226 139.215 224.642 139.289 225.111ZM142.984 231H141.586L144.726 222.273H146.248L149.388 231H147.991L145.523 223.858H145.455L142.984 231ZM143.218 227.582H147.752V228.69H143.218V227.582ZM150.627 223.406V222.273H157.381V223.406H154.658V231H153.346V223.406H150.627ZM161.631 222.273V231H160.314V222.273H161.631ZM172.569 226.636C172.569 227.568 172.399 228.369 172.058 229.04C171.717 229.707 171.25 230.222 170.656 230.582C170.065 230.94 169.393 231.119 168.64 231.119C167.884 231.119 167.21 230.94 166.616 230.582C166.025 230.222 165.559 229.706 165.218 229.036C164.877 228.365 164.707 227.565 164.707 226.636C164.707 225.705 164.877 224.905 165.218 224.237C165.559 223.567 166.025 223.053 166.616 222.695C167.21 222.334 167.884 222.153 168.64 222.153C169.393 222.153 170.065 222.334 170.656 222.695C171.25 223.053 171.717 223.567 172.058 224.237C172.399 224.905 172.569 225.705 172.569 226.636ZM171.265 226.636C171.265 225.926 171.15 225.328 170.92 224.842C170.693 224.354 170.38 223.984 169.982 223.734C169.588 223.482 169.14 223.355 168.64 223.355C168.137 223.355 167.688 223.482 167.294 223.734C166.899 223.984 166.586 224.354 166.356 224.842C166.129 225.328 166.015 225.926 166.015 226.636C166.015 227.347 166.129 227.946 166.356 228.435C166.586 228.92 166.899 229.29 167.294 229.543C167.688 229.793 168.137 229.918 168.64 229.918C169.14 229.918 169.588 229.793 169.982 229.543C170.38 229.29 170.693 228.92 170.92 228.435C171.15 227.946 171.265 227.347 171.265 226.636ZM182.695 222.273V231H181.485L177.049 224.599H176.968V231H175.651V222.273H176.87L181.31 228.682H181.391V222.273H182.695Z" fill="#4F5769"/>
<g filter="url(#filter2_d_1297_52065)">
<rect x="399" y="185" width="372" height="160" rx="16" fill="#1B1B28"/>
<rect x="399" y="185" width="372" height="160" rx="16" stroke="#282A3B"/>
</g>
<rect x="431" y="285" width="92" height="12" rx="6" fill="url(#paint3_linear_1297_52065)"/>
<rect x="431" y="305" width="40" height="8" rx="4" fill="url(#paint4_linear_1297_52065)"/>
<rect x="699" y="305" width="40" height="8" rx="4" fill="url(#paint5_linear_1297_52065)"/>
<path d="M456.384 230V221.273H461.796V222.406H457.701V225.065H461.408V226.195H457.701V230H456.384ZM470.468 221.273H471.789V227.013C471.789 227.624 471.645 228.165 471.358 228.636C471.072 229.105 470.668 229.474 470.148 229.744C469.628 230.011 469.019 230.145 468.32 230.145C467.624 230.145 467.016 230.011 466.496 229.744C465.976 229.474 465.573 229.105 465.286 228.636C464.999 228.165 464.856 227.624 464.856 227.013V221.273H466.172V226.906C466.172 227.301 466.259 227.652 466.432 227.959C466.608 228.266 466.857 228.507 467.178 228.683C467.499 228.857 467.88 228.943 468.32 228.943C468.763 228.943 469.145 228.857 469.466 228.683C469.79 228.507 470.037 228.266 470.208 227.959C470.381 227.652 470.468 227.301 470.468 226.906V221.273ZM482.187 221.273V230H480.977L476.541 223.599H476.46V230H475.143V221.273H476.362L480.802 227.682H480.883V221.273H482.187ZM492.797 224.111H491.467C491.416 223.827 491.321 223.577 491.182 223.361C491.042 223.145 490.872 222.962 490.67 222.811C490.469 222.661 490.243 222.547 489.993 222.47C489.746 222.393 489.483 222.355 489.204 222.355C488.702 222.355 488.251 222.482 487.853 222.734C487.459 222.987 487.146 223.358 486.916 223.847C486.689 224.335 486.575 224.932 486.575 225.636C486.575 226.347 486.689 226.946 486.916 227.435C487.146 227.923 487.46 228.293 487.858 228.543C488.255 228.793 488.703 228.918 489.2 228.918C489.476 228.918 489.737 228.881 489.984 228.807C490.234 228.73 490.46 228.618 490.662 228.47C490.863 228.322 491.034 228.142 491.173 227.929C491.315 227.713 491.413 227.466 491.467 227.188L492.797 227.192C492.726 227.621 492.588 228.016 492.383 228.376C492.182 228.734 491.922 229.044 491.603 229.305C491.288 229.564 490.927 229.764 490.521 229.906C490.115 230.048 489.672 230.119 489.192 230.119C488.436 230.119 487.763 229.94 487.172 229.582C486.581 229.222 486.115 228.706 485.774 228.036C485.436 227.365 485.267 226.565 485.267 225.636C485.267 224.705 485.437 223.905 485.778 223.237C486.119 222.567 486.585 222.053 487.176 221.695C487.767 221.334 488.439 221.153 489.192 221.153C489.655 221.153 490.086 221.22 490.487 221.354C490.89 221.484 491.253 221.678 491.574 221.933C491.895 222.186 492.16 222.496 492.371 222.862C492.581 223.226 492.723 223.642 492.797 224.111ZM495.382 222.406V221.273H502.136V222.406H499.413V230H498.101V222.406H495.382ZM506.385 221.273V230H505.069V221.273H506.385ZM517.324 225.636C517.324 226.568 517.154 227.369 516.813 228.04C516.472 228.707 516.004 229.222 515.411 229.582C514.82 229.94 514.148 230.119 513.395 230.119C512.639 230.119 511.965 229.94 511.371 229.582C510.78 229.222 510.314 228.706 509.973 228.036C509.632 227.365 509.462 226.565 509.462 225.636C509.462 224.705 509.632 223.905 509.973 223.237C510.314 222.567 510.78 222.053 511.371 221.695C511.965 221.334 512.639 221.153 513.395 221.153C514.148 221.153 514.82 221.334 515.411 221.695C516.004 222.053 516.472 222.567 516.813 223.237C517.154 223.905 517.324 224.705 517.324 225.636ZM516.02 225.636C516.02 224.926 515.905 224.328 515.675 223.842C515.448 223.354 515.135 222.984 514.737 222.734C514.343 222.482 513.895 222.355 513.395 222.355C512.892 222.355 512.443 222.482 512.048 222.734C511.654 222.984 511.341 223.354 511.111 223.842C510.884 224.328 510.77 224.926 510.77 225.636C510.77 226.347 510.884 226.946 511.111 227.435C511.341 227.92 511.654 228.29 512.048 228.543C512.443 228.793 512.892 228.918 513.395 228.918C513.895 228.918 514.343 228.793 514.737 228.543C515.135 228.29 515.448 227.92 515.675 227.435C515.905 226.946 516.02 226.347 516.02 225.636ZM527.45 221.273V230H526.24L521.803 223.599H521.723V230H520.406V221.273H521.625L526.065 227.682H526.146V221.273H527.45ZM535.571 223.565C535.525 223.162 535.338 222.849 535.008 222.628C534.679 222.403 534.264 222.291 533.764 222.291C533.406 222.291 533.096 222.348 532.835 222.462C532.573 222.572 532.37 222.726 532.225 222.922C532.083 223.115 532.012 223.335 532.012 223.582C532.012 223.79 532.061 223.969 532.157 224.119C532.257 224.27 532.386 224.396 532.545 224.499C532.707 224.598 532.88 224.682 533.065 224.75C533.25 224.815 533.427 224.869 533.598 224.912L534.45 225.134C534.728 225.202 535.014 225.294 535.306 225.411C535.599 225.527 535.87 225.68 536.12 225.871C536.37 226.061 536.572 226.297 536.725 226.578C536.882 226.859 536.96 227.196 536.96 227.588C536.96 228.082 536.832 228.521 536.576 228.905C536.323 229.288 535.955 229.591 535.473 229.812C534.992 230.034 534.411 230.145 533.73 230.145C533.076 230.145 532.511 230.041 532.034 229.834C531.556 229.626 531.183 229.332 530.913 228.952C530.643 228.568 530.494 228.114 530.465 227.588H531.786C531.812 227.903 531.914 228.166 532.093 228.376C532.275 228.584 532.507 228.739 532.788 228.841C533.072 228.94 533.383 228.99 533.721 228.99C534.093 228.99 534.424 228.932 534.714 228.815C535.007 228.696 535.237 228.531 535.404 228.321C535.572 228.108 535.656 227.859 535.656 227.575C535.656 227.317 535.582 227.105 535.434 226.94C535.289 226.776 535.092 226.639 534.842 226.531C534.595 226.423 534.315 226.328 534.002 226.246L532.971 225.964C532.272 225.774 531.718 225.494 531.309 225.125C530.903 224.756 530.7 224.267 530.7 223.659C530.7 223.156 530.836 222.717 531.109 222.342C531.382 221.967 531.751 221.676 532.217 221.469C532.683 221.259 533.208 221.153 533.794 221.153C534.384 221.153 534.906 221.257 535.357 221.464C535.812 221.672 536.17 221.957 536.431 222.321C536.693 222.682 536.829 223.097 536.84 223.565H535.571Z" fill="#4F5769"/>
<g filter="url(#filter3_d_1297_52065)">
<rect x="2" y="2" width="372" height="160" rx="16" fill="#1B1B28"/>
<rect x="2" y="2" width="372" height="160" rx="16" stroke="#282A3B"/>
</g>
<path d="M66.2832 47H63.4579V38.2727H66.3726C67.2278 38.2727 67.9621 38.4474 68.5758 38.7969C69.1894 39.1435 69.6596 39.642 69.9863 40.2926C70.3158 40.9403 70.4806 41.7173 70.4806 42.6236C70.4806 43.5327 70.3144 44.3139 69.982 44.9673C69.6525 45.6207 69.1752 46.1236 68.5502 46.4759C67.9252 46.8253 67.1695 47 66.2832 47ZM64.7746 45.8494H66.2107C66.8755 45.8494 67.428 45.7244 67.8684 45.4744C68.3087 45.2216 68.6383 44.8565 68.857 44.3793C69.0758 43.8991 69.1851 43.3139 69.1851 42.6236C69.1851 41.9389 69.0758 41.358 68.857 40.8807C68.6411 40.4034 68.3187 40.0412 67.8897 39.794C67.4607 39.5469 66.928 39.4233 66.2917 39.4233H64.7746V45.8494ZM73.8616 47H72.4639L75.6045 38.2727H77.1259L80.2665 47H78.8687L76.4014 39.858H76.3332L73.8616 47ZM74.096 43.5824H78.6301V44.6903H74.096V43.5824ZM81.5051 39.4062V38.2727H88.2594V39.4062H85.5364V47H84.2239V39.4062H81.5051ZM90.8979 47H89.5002L92.6408 38.2727H94.1621L97.3027 47H95.905L93.4377 39.858H93.3695L90.8979 47ZM91.1323 43.5824H95.6664V44.6903H91.1323V43.5824ZM100.003 47V38.2727H103.199C103.818 38.2727 104.331 38.375 104.737 38.5795C105.144 38.7812 105.448 39.0554 105.649 39.402C105.851 39.7457 105.952 40.1335 105.952 40.5653C105.952 40.929 105.885 41.2358 105.752 41.4858C105.618 41.733 105.439 41.9318 105.215 42.0824C104.993 42.2301 104.749 42.3381 104.482 42.4062V42.4915C104.771 42.5057 105.054 42.5994 105.33 42.7727C105.608 42.9432 105.838 43.1861 106.02 43.5014C106.202 43.8168 106.293 44.2003 106.293 44.652C106.293 45.098 106.188 45.4986 105.977 45.8537C105.77 46.206 105.449 46.4858 105.014 46.6932C104.58 46.8977 104.024 47 103.348 47H100.003ZM101.32 45.8707H103.22C103.851 45.8707 104.303 45.7486 104.575 45.5043C104.848 45.2599 104.985 44.9545 104.985 44.5881C104.985 44.3125 104.915 44.0597 104.776 43.8295C104.637 43.5994 104.438 43.4162 104.179 43.2798C103.923 43.1435 103.62 43.0753 103.267 43.0753H101.32V45.8707ZM101.32 42.0483H103.084C103.379 42.0483 103.645 41.9915 103.881 41.8778C104.12 41.7642 104.308 41.6051 104.448 41.4006C104.59 41.1932 104.661 40.9489 104.661 40.6676C104.661 40.3068 104.534 40.0043 104.281 39.7599C104.029 39.5156 103.641 39.3935 103.118 39.3935H101.32V42.0483ZM110.032 47H108.634L111.775 38.2727H113.296L116.437 47H115.039L112.572 39.858H112.503L110.032 47ZM110.266 43.5824H114.8V44.6903H110.266V43.5824ZM123.827 40.5653C123.781 40.1619 123.594 39.8494 123.264 39.6278C122.935 39.4034 122.52 39.2912 122.02 39.2912C121.662 39.2912 121.352 39.348 121.091 39.4616C120.829 39.5724 120.626 39.7259 120.481 39.9219C120.339 40.1151 120.268 40.3352 120.268 40.5824C120.268 40.7898 120.317 40.9687 120.413 41.1193C120.513 41.2699 120.642 41.3963 120.801 41.4986C120.963 41.598 121.136 41.6818 121.321 41.75C121.506 41.8153 121.683 41.8693 121.854 41.9119L122.706 42.1335C122.984 42.2017 123.27 42.294 123.562 42.4105C123.855 42.527 124.126 42.6804 124.376 42.8707C124.626 43.0611 124.828 43.2969 124.981 43.5781C125.138 43.8594 125.216 44.196 125.216 44.5881C125.216 45.0824 125.088 45.5213 124.832 45.9048C124.579 46.2884 124.212 46.5909 123.729 46.8125C123.248 47.0341 122.667 47.1449 121.986 47.1449C121.332 47.1449 120.767 47.0412 120.29 46.8338C119.812 46.6264 119.439 46.3324 119.169 45.9517C118.899 45.5682 118.75 45.1136 118.721 44.5881H120.042C120.068 44.9034 120.17 45.1662 120.349 45.3764C120.531 45.5838 120.763 45.7386 121.044 45.8409C121.328 45.9403 121.639 45.9901 121.977 45.9901C122.349 45.9901 122.68 45.9318 122.97 45.8153C123.263 45.696 123.493 45.5312 123.66 45.321C123.828 45.108 123.912 44.8594 123.912 44.5753C123.912 44.3168 123.838 44.1051 123.69 43.9403C123.545 43.7756 123.348 43.6392 123.098 43.5312C122.851 43.4233 122.571 43.3281 122.258 43.2457L121.227 42.9645C120.528 42.7741 119.974 42.4943 119.565 42.125C119.159 41.7557 118.956 41.267 118.956 40.6591C118.956 40.1562 119.092 39.7173 119.365 39.3423C119.638 38.9673 120.007 38.6761 120.473 38.4688C120.939 38.2585 121.464 38.1534 122.05 38.1534C122.64 38.1534 123.162 38.2571 123.613 38.4645C124.068 38.6719 124.426 38.9574 124.687 39.321C124.949 39.6818 125.085 40.0966 125.096 40.5653H123.827ZM128.229 47V38.2727H133.701V39.4062H129.546V42.0653H133.415V43.1946H129.546V45.8665H133.752V47H128.229Z" fill="#4F5769"/>
<g filter="url(#filter4_d_1297_52065)">
<rect x="399" y="2" width="372" height="160" rx="16" fill="#1B1B28"/>
<rect x="399" y="2" width="372" height="160" rx="16" stroke="#282A3B"/>
</g>
<rect x="431" y="101" width="92" height="12" rx="6" fill="url(#paint6_linear_1297_52065)"/>
<rect x="431" y="121" width="40" height="8" rx="4" fill="url(#paint7_linear_1297_52065)"/>
<rect x="699" y="121" width="40" height="8" rx="4" fill="url(#paint8_linear_1297_52065)"/>
<path d="M432.6 39.8001C432.6 38.9164 433.316 38.2001 434.2 38.2001H438.2L439.8 39.8001H443.8C444.684 39.8001 445.4 40.5164 445.4 41.4001V46.2001C445.4 47.0837 444.684 47.8001 443.8 47.8001H434.2C433.316 47.8001 432.6 47.0837 432.6 46.2001V39.8001Z" fill="#4F5769"/>
<path d="M460.733 40.5653C460.687 40.1619 460.5 39.8494 460.17 39.6278C459.841 39.4034 459.426 39.2912 458.926 39.2912C458.568 39.2912 458.258 39.348 457.997 39.4616C457.736 39.5724 457.532 39.7259 457.388 39.9219C457.246 40.1151 457.174 40.3352 457.174 40.5824C457.174 40.7898 457.223 40.9687 457.319 41.1193C457.419 41.2699 457.548 41.3963 457.707 41.4986C457.869 41.598 458.042 41.6818 458.227 41.75C458.412 41.8153 458.589 41.8693 458.76 41.9119L459.612 42.1335C459.89 42.2017 460.176 42.294 460.469 42.4105C460.761 42.527 461.032 42.6804 461.282 42.8707C461.532 43.0611 461.734 43.2969 461.888 43.5781C462.044 43.8594 462.122 44.196 462.122 44.5881C462.122 45.0824 461.994 45.5213 461.738 45.9048C461.486 46.2884 461.118 46.5909 460.635 46.8125C460.155 47.0341 459.574 47.1449 458.892 47.1449C458.238 47.1449 457.673 47.0412 457.196 46.8338C456.719 46.6264 456.345 46.3324 456.075 45.9517C455.805 45.5682 455.656 45.1136 455.628 44.5881H456.949C456.974 44.9034 457.076 45.1662 457.255 45.3764C457.437 45.5838 457.669 45.7386 457.95 45.8409C458.234 45.9403 458.545 45.9901 458.883 45.9901C459.255 45.9901 459.586 45.9318 459.876 45.8153C460.169 45.696 460.399 45.5312 460.567 45.321C460.734 45.108 460.818 44.8594 460.818 44.5753C460.818 44.3168 460.744 44.1051 460.596 43.9403C460.451 43.7756 460.254 43.6392 460.004 43.5312C459.757 43.4233 459.477 43.3281 459.165 43.2457L458.133 42.9645C457.434 42.7741 456.88 42.4943 456.471 42.125C456.065 41.7557 455.862 41.267 455.862 40.6591C455.862 40.1562 455.998 39.7173 456.271 39.3423C456.544 38.9673 456.913 38.6761 457.379 38.4688C457.845 38.2585 458.371 38.1534 458.956 38.1534C459.547 38.1534 460.068 38.2571 460.52 38.4645C460.974 38.6719 461.332 38.9574 461.594 39.321C461.855 39.6818 461.991 40.0966 462.003 40.5653H460.733ZM464.705 39.4062V38.2727H471.459V39.4062H468.736V47H467.424V39.4062H464.705ZM481.598 42.6364C481.598 43.5682 481.427 44.3693 481.086 45.0398C480.746 45.7074 480.278 46.2216 479.684 46.5824C479.094 46.9403 478.422 47.1193 477.669 47.1193C476.913 47.1193 476.238 46.9403 475.645 46.5824C475.054 46.2216 474.588 45.706 474.247 45.0355C473.906 44.3651 473.736 43.5653 473.736 42.6364C473.736 41.7045 473.906 40.9048 474.247 40.2372C474.588 39.5668 475.054 39.0526 475.645 38.6946C476.238 38.3338 476.913 38.1534 477.669 38.1534C478.422 38.1534 479.094 38.3338 479.684 38.6946C480.278 39.0526 480.746 39.5668 481.086 40.2372C481.427 40.9048 481.598 41.7045 481.598 42.6364ZM480.294 42.6364C480.294 41.9261 480.179 41.3281 479.949 40.8423C479.721 40.3537 479.409 39.9844 479.011 39.7344C478.616 39.4815 478.169 39.3551 477.669 39.3551C477.166 39.3551 476.717 39.4815 476.322 39.7344C475.927 39.9844 475.615 40.3537 475.385 40.8423C475.157 41.3281 475.044 41.9261 475.044 42.6364C475.044 43.3466 475.157 43.946 475.385 44.4347C475.615 44.9205 475.927 45.2898 476.322 45.5426C476.717 45.7926 477.166 45.9176 477.669 45.9176C478.169 45.9176 478.616 45.7926 479.011 45.5426C479.409 45.2898 479.721 44.9205 479.949 44.4347C480.179 43.946 480.294 43.3466 480.294 42.6364ZM484.68 47V38.2727H487.79C488.466 38.2727 489.028 38.3892 489.474 38.6222C489.922 38.8551 490.258 39.1776 490.479 39.5895C490.701 39.9986 490.812 40.4716 490.812 41.0085C490.812 41.5426 490.699 42.0128 490.475 42.419C490.253 42.8224 489.918 43.1364 489.469 43.3608C489.023 43.5852 488.462 43.6974 487.786 43.6974H485.43V42.5639H487.667C488.093 42.5639 488.439 42.5028 488.706 42.3807C488.976 42.2585 489.174 42.081 489.299 41.848C489.424 41.6151 489.486 41.3352 489.486 41.0085C489.486 40.679 489.422 40.3935 489.295 40.152C489.17 39.9105 488.972 39.7259 488.702 39.598C488.435 39.4673 488.084 39.402 487.65 39.402H485.996V47H484.68ZM488.988 43.0625L491.144 47H489.644L487.53 43.0625H488.988ZM494.591 47H493.193L496.334 38.2727H497.855L500.996 47H499.598L497.131 39.858H497.063L494.591 47ZM494.825 43.5824H499.36V44.6903H494.825V43.5824ZM509.192 41.0298C509.11 40.7713 508.999 40.5398 508.86 40.3352C508.724 40.1278 508.56 39.9517 508.37 39.8068C508.18 39.6591 507.962 39.5469 507.718 39.4702C507.476 39.3935 507.211 39.3551 506.921 39.3551C506.43 39.3551 505.986 39.4815 505.591 39.7344C505.197 39.9872 504.884 40.358 504.654 40.8466C504.427 41.3324 504.313 41.9276 504.313 42.6321C504.313 43.3395 504.428 43.9375 504.658 44.4261C504.888 44.9148 505.204 45.2855 505.604 45.5384C506.005 45.7912 506.461 45.9176 506.972 45.9176C507.447 45.9176 507.86 45.821 508.212 45.6278C508.567 45.4347 508.841 45.1619 509.035 44.8097C509.231 44.4545 509.329 44.0369 509.329 43.5568L509.67 43.6207H507.172V42.5341H510.603V43.527C510.603 44.2599 510.447 44.8963 510.134 45.4361C509.824 45.973 509.395 46.3878 508.847 46.6804C508.302 46.973 507.677 47.1193 506.972 47.1193C506.182 47.1193 505.489 46.9375 504.893 46.5739C504.299 46.2102 503.836 45.6946 503.503 45.027C503.171 44.3565 503.005 43.5611 503.005 42.6406C503.005 41.9446 503.101 41.3196 503.295 40.7656C503.488 40.2116 503.759 39.7415 504.109 39.3551C504.461 38.9659 504.874 38.669 505.349 38.4645C505.826 38.2571 506.347 38.1534 506.912 38.1534C507.384 38.1534 507.823 38.223 508.229 38.3622C508.638 38.5014 509.002 38.6989 509.32 38.9545C509.641 39.2102 509.907 39.5142 510.117 39.8665C510.327 40.2159 510.469 40.6037 510.543 41.0298H509.192ZM513.714 47V38.2727H519.186V39.4062H515.031V42.0653H518.9V43.1946H515.031V45.8665H519.237V47H513.714Z" fill="#4F5769"/>
<path d="M36.3999 43.6V46C36.3999 47.3255 38.9071 48.4 41.9999 48.4C45.0927 48.4 47.5999 47.3255 47.5999 46V43.6C47.5999 44.9255 45.0927 46 41.9999 46C38.9071 46 36.3999 44.9255 36.3999 43.6Z" fill="#4F5769"/>
<path d="M36.3999 39.6V42C36.3999 43.3255 38.9071 44.4 41.9999 44.4C45.0927 44.4 47.5999 43.3255 47.5999 42V39.6C47.5999 40.9255 45.0927 42 41.9999 42C38.9071 42 36.3999 40.9255 36.3999 39.6Z" fill="#4F5769"/>
<path d="M47.5999 38C47.5999 39.3255 45.0927 40.4 41.9999 40.4C38.9071 40.4 36.3999 39.3255 36.3999 38C36.3999 36.6745 38.9071 35.6 41.9999 35.6C45.0927 35.6 47.5999 36.6745 47.5999 38Z" fill="#4F5769"/>
<path d="M44.4003 221.8C44.4003 223.126 43.3258 224.2 42.0003 224.2C40.6748 224.2 39.6003 223.126 39.6003 221.8C39.6003 220.475 40.6748 219.4 42.0003 219.4C43.3258 219.4 44.4003 220.475 44.4003 221.8Z" fill="#4F5769"/>
<path d="M48.4003 223.4C48.4003 224.284 47.6839 225 46.8003 225C45.9166 225 45.2003 224.284 45.2003 223.4C45.2003 222.516 45.9166 221.8 46.8003 221.8C47.6839 221.8 48.4003 222.516 48.4003 223.4Z" fill="#4F5769"/>
<path d="M45.2003 229C45.2003 227.233 43.7676 225.8 42.0003 225.8C40.233 225.8 38.8003 227.233 38.8003 229V231.4H45.2003V229Z" fill="#4F5769"/>
<path d="M38.8003 223.4C38.8003 224.284 38.0839 225 37.2003 225C36.3166 225 35.6003 224.284 35.6003 223.4C35.6003 222.516 36.3166 221.8 37.2003 221.8C38.0839 221.8 38.8003 222.516 38.8003 223.4Z" fill="#4F5769"/>
<path d="M46.8003 231.4V229C46.8003 228.157 46.5828 227.364 46.2009 226.675C46.3925 226.626 46.5933 226.6 46.8003 226.6C48.1258 226.6 49.2003 227.675 49.2003 229V231.4H46.8003Z" fill="#4F5769"/>
<path d="M37.7997 226.675C37.4178 227.364 37.2003 228.157 37.2003 229V231.4H34.8003V229C34.8003 227.675 35.8748 226.6 37.2003 226.6C37.4073 226.6 37.6081 226.626 37.7997 226.675Z" fill="#4F5769"/>
<path fill-rule="evenodd" clip-rule="evenodd" d="M440.04 217.837C440.373 217.942 440.6 218.251 440.6 218.6V222.6L443.8 222.6C444.098 222.6 444.372 222.766 444.509 223.031C444.647 223.295 444.626 223.614 444.455 223.859L438.855 231.859C438.655 232.145 438.292 232.268 437.959 232.163C437.626 232.058 437.4 231.749 437.4 231.4L437.4 227.4H434.2C433.902 227.4 433.628 227.234 433.49 226.969C433.353 226.705 433.373 226.386 433.545 226.141L439.145 218.141C439.345 217.855 439.707 217.732 440.04 217.837Z" fill="#4F5769"/>
<rect x="820" y="34" width="92" height="12" rx="6" fill="url(#paint9_linear_1297_52065)"/>
<path d="M821.71 72V61.8182H825.15C825.945 61.8182 826.598 61.9541 827.109 62.2259C827.619 62.4943 827.997 62.8639 828.242 63.3345C828.487 63.8052 828.61 64.3404 828.61 64.9403C828.61 65.5402 828.487 66.0722 828.242 66.5362C827.997 67.0002 827.621 67.3648 827.114 67.63C826.607 67.8918 825.959 68.0227 825.17 68.0227H822.386V66.9091H825.13C825.674 66.9091 826.111 66.8295 826.442 66.6705C826.777 66.5114 827.019 66.286 827.168 65.9943C827.321 65.6993 827.397 65.348 827.397 64.9403C827.397 64.5327 827.321 64.1764 827.168 63.8714C827.016 63.5665 826.772 63.3312 826.438 63.1655C826.103 62.9964 825.66 62.9119 825.11 62.9119H822.942V72H821.71ZM826.502 67.4261L829.008 72H827.576L825.11 67.4261H826.502ZM833.625 72.1591C832.889 72.1591 832.255 71.9967 831.721 71.6719C831.191 71.3438 830.781 70.8864 830.493 70.2997C830.208 69.7098 830.066 69.0237 830.066 68.2415C830.066 67.4593 830.208 66.7699 830.493 66.1733C830.781 65.5734 831.182 65.1061 831.696 64.7713C832.213 64.4332 832.816 64.2642 833.506 64.2642C833.904 64.2642 834.296 64.3305 834.684 64.4631C835.072 64.5956 835.425 64.8111 835.743 65.1094C836.061 65.4044 836.315 65.7955 836.504 66.2827C836.693 66.7699 836.787 67.3698 836.787 68.0824V68.5795H830.901V67.5653H835.594C835.594 67.1345 835.508 66.75 835.335 66.4119C835.166 66.0739 834.924 65.8071 834.61 65.6115C834.298 65.416 833.93 65.3182 833.506 65.3182C833.039 65.3182 832.634 65.4342 832.293 65.6662C831.955 65.8949 831.695 66.1932 831.512 66.5611C831.33 66.929 831.239 67.3234 831.239 67.7443V68.4205C831.239 68.9972 831.338 69.486 831.537 69.8871C831.739 70.2848 832.019 70.5881 832.377 70.7969C832.735 71.0024 833.151 71.1051 833.625 71.1051C833.933 71.1051 834.212 71.062 834.46 70.9759C834.712 70.8864 834.929 70.7538 835.112 70.5781C835.294 70.3991 835.435 70.1771 835.534 69.9119L836.668 70.2301C836.548 70.6146 836.348 70.9527 836.066 71.2443C835.785 71.5327 835.436 71.758 835.022 71.9205C834.608 72.0795 834.142 72.1591 833.625 72.1591ZM840.819 72.179C840.335 72.179 839.896 72.0878 839.502 71.9055C839.107 71.7199 838.794 71.4531 838.562 71.1051C838.33 70.7538 838.214 70.3295 838.214 69.8324C838.214 69.3949 838.3 69.0402 838.472 68.7685C838.645 68.4934 838.875 68.2779 839.164 68.1222C839.452 67.9664 839.77 67.8504 840.118 67.7741C840.469 67.6946 840.822 67.6316 841.177 67.5852C841.641 67.5256 842.017 67.4808 842.306 67.451C842.597 67.4179 842.809 67.3632 842.942 67.2869C843.078 67.2107 843.146 67.0781 843.146 66.8892V66.8494C843.146 66.3589 843.012 65.9777 842.743 65.706C842.478 65.4342 842.075 65.2983 841.535 65.2983C840.975 65.2983 840.536 65.4209 840.218 65.6662C839.899 65.9115 839.676 66.1733 839.546 66.4517L838.433 66.054C838.632 65.59 838.897 65.2287 839.228 64.9702C839.563 64.7083 839.927 64.526 840.322 64.4233C840.72 64.3172 841.111 64.2642 841.495 64.2642C841.74 64.2642 842.022 64.294 842.34 64.3537C842.662 64.41 842.972 64.5277 843.27 64.7067C843.572 64.8857 843.822 65.1558 844.021 65.517C844.22 65.8783 844.319 66.3622 844.319 66.9688V72H843.146V70.9659H843.086C843.007 71.1316 842.874 71.3089 842.688 71.4979C842.503 71.6868 842.256 71.8475 841.948 71.9801C841.639 72.1127 841.263 72.179 840.819 72.179ZM840.998 71.125C841.462 71.125 841.853 71.0339 842.171 70.8516C842.493 70.6693 842.735 70.4339 842.897 70.1456C843.063 69.8572 843.146 69.554 843.146 69.2358V68.1619C843.096 68.2216 842.987 68.2763 842.818 68.326C842.652 68.3724 842.46 68.4138 842.241 68.4503C842.026 68.4834 841.815 68.5133 841.61 68.5398C841.407 68.563 841.243 68.5829 841.117 68.5994C840.812 68.6392 840.527 68.7038 840.262 68.7933C840 68.8795 839.788 69.0104 839.626 69.1861C839.467 69.3584 839.387 69.5937 839.387 69.892C839.387 70.2997 839.538 70.608 839.84 70.8168C840.145 71.0223 840.531 71.125 840.998 71.125ZM847.634 61.8182V72H846.461V61.8182H847.634ZM853.104 64.3636V65.358H849.146V64.3636H853.104ZM850.3 62.5341H851.473V69.8125C851.473 70.1439 851.521 70.3925 851.617 70.5582C851.717 70.7206 851.843 70.83 851.995 70.8864C852.151 70.9394 852.315 70.9659 852.487 70.9659C852.617 70.9659 852.723 70.9593 852.806 70.946C852.888 70.9295 852.955 70.9162 853.004 70.9062L853.243 71.9602C853.164 71.9901 853.052 72.0199 852.91 72.0497C852.767 72.0829 852.587 72.0994 852.368 72.0994C852.037 72.0994 851.712 72.0282 851.394 71.8857C851.079 71.7431 850.817 71.526 850.608 71.2344C850.403 70.9427 850.3 70.5748 850.3 70.1307V62.5341ZM854.869 72V64.3636H856.042V72H854.869ZM855.465 63.0909C855.237 63.0909 855.039 63.013 854.874 62.8572C854.711 62.7015 854.63 62.5142 854.63 62.2955C854.63 62.0767 854.711 61.8894 854.874 61.7337C855.039 61.5779 855.237 61.5 855.465 61.5C855.694 61.5 855.89 61.5779 856.052 61.7337C856.218 61.8894 856.301 62.0767 856.301 62.2955C856.301 62.5142 856.218 62.7015 856.052 62.8572C855.89 63.013 855.694 63.0909 855.465 63.0909ZM858.191 72V64.3636H859.325V65.5568H859.424C859.583 65.1491 859.84 64.8326 860.195 64.6072C860.549 64.3786 860.975 64.2642 861.472 64.2642C861.976 64.2642 862.395 64.3786 862.73 64.6072C863.068 64.8326 863.332 65.1491 863.521 65.5568H863.6C863.796 65.1624 864.089 64.8492 864.48 64.6172C864.871 64.3819 865.34 64.2642 865.887 64.2642C866.57 64.2642 867.128 64.478 867.562 64.9055C867.997 65.3298 868.214 65.991 868.214 66.8892V72H867.04V66.8892C867.04 66.3258 866.886 65.9231 866.578 65.6811C866.27 65.4392 865.907 65.3182 865.489 65.3182C864.952 65.3182 864.536 65.4806 864.241 65.8054C863.946 66.1269 863.799 66.5346 863.799 67.0284V72H862.606V66.7699C862.606 66.3357 862.465 65.986 862.183 65.7209C861.902 65.4524 861.539 65.3182 861.094 65.3182C860.79 65.3182 860.504 65.3994 860.239 65.5618C859.978 65.7242 859.765 65.9496 859.603 66.2379C859.444 66.523 859.364 66.8527 859.364 67.2273V72H858.191ZM873.561 72.1591C872.825 72.1591 872.19 71.9967 871.657 71.6719C871.126 71.3438 870.717 70.8864 870.429 70.2997C870.144 69.7098 870.001 69.0237 870.001 68.2415C870.001 67.4593 870.144 66.7699 870.429 66.1733C870.717 65.5734 871.118 65.1061 871.632 64.7713C872.149 64.4332 872.752 64.2642 873.441 64.2642C873.839 64.2642 874.232 64.3305 874.62 64.4631C875.007 64.5956 875.36 64.8111 875.679 65.1094C875.997 65.4044 876.25 65.7955 876.439 66.2827C876.628 66.7699 876.723 67.3698 876.723 68.0824V68.5795H870.836V67.5653H875.529C875.529 67.1345 875.443 66.75 875.271 66.4119C875.102 66.0739 874.86 65.8071 874.545 65.6115C874.234 65.416 873.866 65.3182 873.441 65.3182C872.974 65.3182 872.57 65.4342 872.228 65.6662C871.89 65.8949 871.63 66.1932 871.448 66.5611C871.266 66.929 871.174 67.3234 871.174 67.7443V68.4205C871.174 68.9972 871.274 69.486 871.473 69.8871C871.675 70.2848 871.955 70.5881 872.313 70.7969C872.671 71.0024 873.087 71.1051 873.561 71.1051C873.869 71.1051 874.147 71.062 874.396 70.9759C874.648 70.8864 874.865 70.7538 875.047 70.5781C875.23 70.3991 875.37 70.1771 875.47 69.9119L876.603 70.2301C876.484 70.6146 876.283 70.9527 876.002 71.2443C875.72 71.5327 875.372 71.758 874.958 71.9205C874.543 72.0795 874.078 72.1591 873.561 72.1591ZM890.797 65H889.564C889.491 64.6454 889.364 64.3338 889.181 64.0653C889.002 63.7969 888.784 63.5715 888.525 63.3892C888.27 63.2036 887.987 63.0644 887.675 62.9716C887.364 62.8788 887.039 62.8324 886.701 62.8324C886.084 62.8324 885.526 62.9882 885.025 63.2997C884.528 63.6113 884.132 64.0703 883.837 64.6768C883.545 65.2834 883.4 66.0275 883.4 66.9091C883.4 67.7907 883.545 68.5348 883.837 69.1413C884.132 69.7479 884.528 70.2069 885.025 70.5185C885.526 70.83 886.084 70.9858 886.701 70.9858C887.039 70.9858 887.364 70.9394 887.675 70.8466C887.987 70.7538 888.27 70.6162 888.525 70.4339C888.784 70.2483 889.002 70.0213 889.181 69.7528C889.364 69.4811 889.491 69.1695 889.564 68.8182H890.797C890.704 69.3385 890.535 69.8042 890.29 70.2152C890.045 70.6262 889.74 70.9759 889.375 71.2642C889.011 71.5492 888.601 71.7663 888.147 71.9155C887.697 72.0646 887.214 72.1392 886.701 72.1392C885.832 72.1392 885.06 71.9271 884.384 71.5028C883.708 71.0786 883.176 70.4754 882.788 69.6932C882.4 68.911 882.206 67.983 882.206 66.9091C882.206 65.8352 882.4 64.9072 882.788 64.125C883.176 63.3428 883.708 62.7396 884.384 62.3153C885.06 61.8911 885.832 61.679 886.701 61.679C887.214 61.679 887.697 61.7536 888.147 61.9027C888.601 62.0518 889.011 62.2706 889.375 62.5589C889.74 62.844 890.045 63.192 890.29 63.603C890.535 64.0107 890.704 64.4763 890.797 65ZM895.733 72.1591C895.043 72.1591 894.439 71.995 893.918 71.6669C893.401 71.3388 892.997 70.8797 892.705 70.2898C892.417 69.6998 892.273 69.0104 892.273 68.2216C892.273 67.4261 892.417 66.7318 892.705 66.1385C892.997 65.5452 893.401 65.0845 893.918 64.7564C894.439 64.4283 895.043 64.2642 895.733 64.2642C896.422 64.2642 897.025 64.4283 897.542 64.7564C898.063 65.0845 898.467 65.5452 898.756 66.1385C899.047 66.7318 899.193 67.4261 899.193 68.2216C899.193 69.0104 899.047 69.6998 898.756 70.2898C898.467 70.8797 898.063 71.3388 897.542 71.6669C897.025 71.995 896.422 72.1591 895.733 72.1591ZM895.733 71.1051C896.256 71.1051 896.687 70.9709 897.025 70.7024C897.363 70.4339 897.614 70.081 897.776 69.6435C897.939 69.206 898.02 68.732 898.02 68.2216C898.02 67.7112 897.939 67.2356 897.776 66.7947C897.614 66.3539 897.363 65.9976 897.025 65.7259C896.687 65.4541 896.256 65.3182 895.733 65.3182C895.209 65.3182 894.778 65.4541 894.44 65.7259C894.102 65.9976 893.852 66.3539 893.689 66.7947C893.527 67.2356 893.446 67.7112 893.446 68.2216C893.446 68.732 893.527 69.206 893.689 69.6435C893.852 70.081 894.102 70.4339 894.44 70.7024C894.778 70.9709 895.209 71.1051 895.733 71.1051ZM902.157 67.4062V72H900.984V64.3636H902.118V65.5568H902.217C902.396 65.169 902.668 64.8575 903.032 64.6222C903.397 64.3835 903.868 64.2642 904.444 64.2642C904.961 64.2642 905.414 64.3703 905.801 64.5824C906.189 64.7912 906.491 65.1094 906.706 65.5369C906.922 65.9612 907.029 66.4981 907.029 67.1477V72H905.856V67.2273C905.856 66.6274 905.7 66.16 905.389 65.8253C905.077 65.4872 904.65 65.3182 904.106 65.3182C903.732 65.3182 903.397 65.3994 903.102 65.5618C902.81 65.7242 902.58 65.9612 902.411 66.2727C902.242 66.5843 902.157 66.9621 902.157 67.4062ZM910.347 67.4062V72H909.173V64.3636H910.307V65.5568H910.406C910.585 65.169 910.857 64.8575 911.222 64.6222C911.586 64.3835 912.057 64.2642 912.634 64.2642C913.151 64.2642 913.603 64.3703 913.991 64.5824C914.379 64.7912 914.68 65.1094 914.896 65.5369C915.111 65.9612 915.219 66.4981 915.219 67.1477V72H914.046V67.2273C914.046 66.6274 913.89 66.16 913.578 65.8253C913.267 65.4872 912.839 65.3182 912.296 65.3182C911.921 65.3182 911.586 65.3994 911.291 65.5618C911 65.7242 910.769 65.9612 910.6 66.2727C910.431 66.5843 910.347 66.9621 910.347 67.4062ZM920.565 72.1591C919.829 72.1591 919.194 71.9967 918.661 71.6719C918.13 71.3438 917.721 70.8864 917.433 70.2997C917.147 69.7098 917.005 69.0237 917.005 68.2415C917.005 67.4593 917.147 66.7699 917.433 66.1733C917.721 65.5734 918.122 65.1061 918.636 64.7713C919.153 64.4332 919.756 64.2642 920.445 64.2642C920.843 64.2642 921.236 64.3305 921.624 64.4631C922.011 64.5956 922.364 64.8111 922.683 65.1094C923.001 65.4044 923.254 65.7955 923.443 66.2827C923.632 66.7699 923.727 67.3698 923.727 68.0824V68.5795H917.84V67.5653H922.533C922.533 67.1345 922.447 66.75 922.275 66.4119C922.106 66.0739 921.864 65.8071 921.549 65.6115C921.237 65.416 920.87 65.3182 920.445 65.3182C919.978 65.3182 919.574 65.4342 919.232 65.6662C918.894 65.8949 918.634 66.1932 918.452 66.5611C918.269 66.929 918.178 67.3234 918.178 67.7443V68.4205C918.178 68.9972 918.278 69.486 918.477 69.8871C918.679 70.2848 918.959 70.5881 919.317 70.7969C919.675 71.0024 920.091 71.1051 920.565 71.1051C920.873 71.1051 921.151 71.062 921.4 70.9759C921.652 70.8864 921.869 70.7538 922.051 70.5781C922.233 70.3991 922.374 70.1771 922.474 69.9119L923.607 70.2301C923.488 70.6146 923.287 70.9527 923.006 71.2443C922.724 71.5327 922.376 71.758 921.962 71.9205C921.547 72.0795 921.082 72.1591 920.565 72.1591ZM928.614 72.1591C927.898 72.1591 927.281 71.9901 926.764 71.652C926.247 71.3139 925.849 70.8482 925.571 70.255C925.293 69.6617 925.153 68.9839 925.153 68.2216C925.153 67.446 925.296 66.7616 925.581 66.1683C925.869 65.5717 926.27 65.1061 926.784 64.7713C927.301 64.4332 927.904 64.2642 928.594 64.2642C929.131 64.2642 929.615 64.3636 930.045 64.5625C930.476 64.7614 930.829 65.0398 931.104 65.3977C931.379 65.7557 931.55 66.1733 931.616 66.6506H930.443C930.354 66.3026 930.155 65.9943 929.847 65.7259C929.542 65.4541 929.131 65.3182 928.614 65.3182C928.156 65.3182 927.755 65.4375 927.411 65.6761C927.069 65.9115 926.802 66.2446 926.61 66.6754C926.421 67.103 926.327 67.6051 926.327 68.1818C926.327 68.7718 926.42 69.2855 926.605 69.723C926.794 70.1605 927.059 70.5002 927.401 70.7422C927.745 70.9841 928.15 71.1051 928.614 71.1051C928.919 71.1051 929.195 71.0521 929.444 70.946C929.692 70.84 929.903 70.6875 930.075 70.4886C930.248 70.2898 930.37 70.0511 930.443 69.7727H931.616C931.55 70.2235 931.386 70.6295 931.124 70.9908C930.866 71.3487 930.523 71.6338 930.095 71.8459C929.671 72.0547 929.177 72.1591 928.614 72.1591ZM936.653 64.3636V65.358H932.695V64.3636H936.653ZM933.849 62.5341H935.022V69.8125C935.022 70.1439 935.07 70.3925 935.166 70.5582C935.266 70.7206 935.392 70.83 935.544 70.8864C935.7 70.9394 935.864 70.9659 936.036 70.9659C936.165 70.9659 936.272 70.9593 936.354 70.946C936.437 70.9295 936.504 70.9162 936.553 70.9062L936.792 71.9602C936.712 71.9901 936.601 72.0199 936.459 72.0497C936.316 72.0829 936.136 72.0994 935.917 72.0994C935.585 72.0994 935.261 72.0282 934.942 71.8857C934.628 71.7431 934.366 71.526 934.157 71.2344C933.951 70.9427 933.849 70.5748 933.849 70.1307V62.5341ZM938.418 72V64.3636H939.591V72H938.418ZM939.014 63.0909C938.786 63.0909 938.588 63.013 938.423 62.8572C938.26 62.7015 938.179 62.5142 938.179 62.2955C938.179 62.0767 938.26 61.8894 938.423 61.7337C938.588 61.5779 938.786 61.5 939.014 61.5C939.243 61.5 939.438 61.5779 939.601 61.7337C939.767 61.8894 939.849 62.0767 939.849 62.2955C939.849 62.5142 939.767 62.7015 939.601 62.8572C939.438 63.013 939.243 63.0909 939.014 63.0909ZM944.842 72.1591C944.153 72.1591 943.548 71.995 943.028 71.6669C942.51 71.3388 942.106 70.8797 941.814 70.2898C941.526 69.6998 941.382 69.0104 941.382 68.2216C941.382 67.4261 941.526 66.7318 941.814 66.1385C942.106 65.5452 942.51 65.0845 943.028 64.7564C943.548 64.4283 944.153 64.2642 944.842 64.2642C945.532 64.2642 946.135 64.4283 946.652 64.7564C947.172 65.0845 947.577 65.5452 947.865 66.1385C948.157 66.7318 948.302 67.4261 948.302 68.2216C948.302 69.0104 948.157 69.6998 947.865 70.2898C947.577 70.8797 947.172 71.3388 946.652 71.6669C946.135 71.995 945.532 72.1591 944.842 72.1591ZM944.842 71.1051C945.366 71.1051 945.797 70.9709 946.135 70.7024C946.473 70.4339 946.723 70.081 946.885 69.6435C947.048 69.206 947.129 68.732 947.129 68.2216C947.129 67.7112 947.048 67.2356 946.885 66.7947C946.723 66.3539 946.473 65.9976 946.135 65.7259C945.797 65.4541 945.366 65.3182 944.842 65.3182C944.318 65.3182 943.888 65.4541 943.55 65.7259C943.211 65.9976 942.961 66.3539 942.799 66.7947C942.636 67.2356 942.555 67.7112 942.555 68.2216C942.555 68.732 942.636 69.206 942.799 69.6435C942.961 70.081 943.211 70.4339 943.55 70.7024C943.888 70.9709 944.318 71.1051 944.842 71.1051ZM951.267 67.4062V72H950.093V64.3636H951.227V65.5568H951.326C951.505 65.169 951.777 64.8575 952.142 64.6222C952.506 64.3835 952.977 64.2642 953.554 64.2642C954.071 64.2642 954.523 64.3703 954.911 64.5824C955.299 64.7912 955.6 65.1094 955.816 65.5369C956.031 65.9612 956.139 66.4981 956.139 67.1477V72H954.966V67.2273C954.966 66.6274 954.81 66.16 954.498 65.8253C954.187 65.4872 953.759 65.3182 953.216 65.3182C952.841 65.3182 952.506 65.3994 952.211 65.5618C951.92 65.7242 951.689 65.9612 951.52 66.2727C951.351 66.5843 951.267 66.9621 951.267 67.4062ZM963.692 66.0739L962.638 66.3722C962.572 66.1965 962.474 66.0258 962.345 65.8601C962.219 65.6911 962.046 65.5518 961.828 65.4425C961.609 65.3331 961.329 65.2784 960.987 65.2784C960.52 65.2784 960.131 65.3861 959.819 65.6016C959.511 65.8137 959.357 66.0838 959.357 66.4119C959.357 66.7036 959.463 66.9339 959.675 67.103C959.887 67.272 960.218 67.4129 960.669 67.5256L961.803 67.804C962.485 67.9697 962.994 68.2232 963.329 68.5646C963.664 68.9027 963.831 69.3385 963.831 69.8722C963.831 70.3097 963.705 70.7008 963.453 71.0455C963.205 71.3902 962.857 71.6619 962.409 71.8608C961.962 72.0597 961.441 72.1591 960.848 72.1591C960.069 72.1591 959.425 71.9901 958.914 71.652C958.404 71.3139 958.081 70.8201 957.945 70.1705L959.058 69.892C959.164 70.303 959.365 70.6113 959.66 70.8168C959.958 71.0223 960.348 71.125 960.828 71.125C961.375 71.125 961.809 71.009 962.131 70.777C962.456 70.5417 962.618 70.2599 962.618 69.9318C962.618 69.6667 962.525 69.4446 962.34 69.2656C962.154 69.0833 961.869 68.9474 961.485 68.858L960.212 68.5597C959.512 68.3939 958.999 68.1371 958.671 67.7891C958.346 67.4377 958.183 66.9986 958.183 66.4716C958.183 66.0407 958.304 65.6596 958.546 65.3281C958.792 64.9967 959.125 64.7365 959.546 64.5476C959.97 64.3587 960.45 64.2642 960.987 64.2642C961.743 64.2642 962.336 64.4299 962.767 64.7614C963.201 65.0928 963.51 65.5303 963.692 66.0739Z" fill="#616B7C"/>
<path d="M859 189.906C859 188.301 860.301 187 861.906 187V187C863.511 187 864.812 188.301 864.812 189.906V283.646H859V189.906Z" fill="#F02E65"/>
<path d="M883.812 221.841C883.812 220.236 885.113 218.935 886.717 218.935V218.935C888.322 218.935 889.623 220.236 889.623 221.841V283.646H883.812V221.841Z" fill="#F02E65"/>
<path d="M908.623 247.053C908.623 245.448 909.924 244.147 911.529 244.147V244.147C913.134 244.147 914.435 245.448 914.435 247.053V283.646H908.623V247.053Z" fill="#F02E65"/>
<path d="M933.436 231.086C933.436 229.481 934.737 228.18 936.341 228.18V228.18C937.946 228.18 939.247 229.481 939.247 231.086V283.646H933.436V231.086Z" fill="#F02E65"/>
<path d="M958.247 205.873C958.247 204.268 959.548 202.967 961.153 202.967V202.967C962.758 202.967 964.059 204.268 964.059 205.873V283.646H958.247V205.873Z" fill="#F02E65"/>
<path d="M983.059 189.906C983.059 188.301 984.36 187 985.965 187V187C987.569 187 988.87 188.301 988.87 189.906V283.646H983.059V189.906Z" fill="#F02E65"/>
<path d="M1007.87 221.841C1007.87 220.236 1009.17 218.935 1010.78 218.935V218.935C1012.38 218.935 1013.68 220.236 1013.68 221.841V283.646H1007.87V221.841Z" fill="#F02E65"/>
<path d="M1032.68 247.053C1032.68 245.448 1033.98 244.147 1035.59 244.147V244.147C1037.19 244.147 1038.49 245.448 1038.49 247.053V283.646H1032.68V247.053Z" fill="#F02E65"/>
<path d="M1057.49 231.086C1057.49 229.481 1058.8 228.18 1060.4 228.18V228.18C1062 228.18 1063.31 229.481 1063.31 231.086V283.646H1057.49V231.086Z" fill="#F02E65"/>
<path d="M1082.31 205.873C1082.31 204.268 1083.61 202.967 1085.21 202.967V202.967C1086.82 202.967 1088.12 204.268 1088.12 205.873V283.646H1082.31V205.873Z" fill="#F02E65"/>
<path d="M1107.12 221.841C1107.12 220.236 1108.42 218.935 1110.02 218.935V218.935C1111.63 218.935 1112.93 220.236 1112.93 221.841V283.646H1107.12V221.841Z" fill="#F02E65"/>
<path d="M1131.93 247.053C1131.93 245.448 1133.23 244.147 1134.84 244.147V244.147C1136.44 244.147 1137.74 245.448 1137.74 247.053V283.646H1131.93V247.053Z" fill="#F02E65"/>
<rect x="34" y="101" width="92" height="12" rx="6" fill="url(#paint10_linear_1297_52065)"/>
<rect x="34" y="121" width="40" height="8" rx="4" fill="url(#paint11_linear_1297_52065)"/>
<rect x="302" y="121" width="40" height="8" rx="4" fill="url(#paint12_linear_1297_52065)"/>
<rect width="1173" height="390" rx="19" fill="url(#paint13_linear_1297_52065)"/>
<defs>
<filter id="filter0_d_1297_52065" x="763.5" y="-14.5" width="439" height="405" filterUnits="userSpaceOnUse" color-interpolation-filters="sRGB">
<feFlood flood-opacity="0" result="BackgroundImageFix"/>
<feColorMatrix in="SourceAlpha" type="matrix" values="0 0 0 0 0 0 0 0 0 0 0 0 0 0 0 0 0 0 127 0" result="hardAlpha"/>
<feOffset dy="16"/>
<feGaussianBlur stdDeviation="16"/>
<feColorMatrix type="matrix" values="0 0 0 0 0.215686 0 0 0 0 0.231373 0 0 0 0 0.301961 0 0 0 0.02 0"/>
<feBlend mode="normal" in2="BackgroundImageFix" result="effect1_dropShadow_1297_52065"/>
<feBlend mode="normal" in="SourceGraphic" in2="effect1_dropShadow_1297_52065" result="shape"/>
</filter>
<filter id="filter1_d_1297_52065" x="-30.5" y="168.5" width="437" height="225" filterUnits="userSpaceOnUse" color-interpolation-filters="sRGB">
<feFlood flood-opacity="0" result="BackgroundImageFix"/>
<feColorMatrix in="SourceAlpha" type="matrix" values="0 0 0 0 0 0 0 0 0 0 0 0 0 0 0 0 0 0 127 0" result="hardAlpha"/>
<feOffset dy="16"/>
<feGaussianBlur stdDeviation="16"/>
<feColorMatrix type="matrix" values="0 0 0 0 0.215686 0 0 0 0 0.231373 0 0 0 0 0.301961 0 0 0 0.02 0"/>
<feBlend mode="normal" in2="BackgroundImageFix" result="effect1_dropShadow_1297_52065"/>
<feBlend mode="normal" in="SourceGraphic" in2="effect1_dropShadow_1297_52065" result="shape"/>
</filter>
<filter id="filter2_d_1297_52065" x="366.5" y="168.5" width="437" height="225" filterUnits="userSpaceOnUse" color-interpolation-filters="sRGB">
<feFlood flood-opacity="0" result="BackgroundImageFix"/>
<feColorMatrix in="SourceAlpha" type="matrix" values="0 0 0 0 0 0 0 0 0 0 0 0 0 0 0 0 0 0 127 0" result="hardAlpha"/>
<feOffset dy="16"/>
<feGaussianBlur stdDeviation="16"/>
<feColorMatrix type="matrix" values="0 0 0 0 0.215686 0 0 0 0 0.231373 0 0 0 0 0.301961 0 0 0 0.02 0"/>
<feBlend mode="normal" in2="BackgroundImageFix" result="effect1_dropShadow_1297_52065"/>
<feBlend mode="normal" in="SourceGraphic" in2="effect1_dropShadow_1297_52065" result="shape"/>
</filter>
<filter id="filter3_d_1297_52065" x="-30.5" y="-14.5" width="437" height="225" filterUnits="userSpaceOnUse" color-interpolation-filters="sRGB">
<feFlood flood-opacity="0" result="BackgroundImageFix"/>
<feColorMatrix in="SourceAlpha" type="matrix" values="0 0 0 0 0 0 0 0 0 0 0 0 0 0 0 0 0 0 127 0" result="hardAlpha"/>
<feOffset dy="16"/>
<feGaussianBlur stdDeviation="16"/>
<feColorMatrix type="matrix" values="0 0 0 0 0.215686 0 0 0 0 0.231373 0 0 0 0 0.301961 0 0 0 0.02 0"/>
<feBlend mode="normal" in2="BackgroundImageFix" result="effect1_dropShadow_1297_52065"/>
<feBlend mode="normal" in="SourceGraphic" in2="effect1_dropShadow_1297_52065" result="shape"/>
</filter>
<filter id="filter4_d_1297_52065" x="366.5" y="-14.5" width="437" height="225" filterUnits="userSpaceOnUse" color-interpolation-filters="sRGB">
<feFlood flood-opacity="0" result="BackgroundImageFix"/>
<feColorMatrix in="SourceAlpha" type="matrix" values="0 0 0 0 0 0 0 0 0 0 0 0 0 0 0 0 0 0 127 0" result="hardAlpha"/>
<feOffset dy="16"/>
<feGaussianBlur stdDeviation="16"/>
<feColorMatrix type="matrix" values="0 0 0 0 0.215686 0 0 0 0 0.231373 0 0 0 0 0.301961 0 0 0 0.02 0"/>
<feBlend mode="normal" in2="BackgroundImageFix" result="effect1_dropShadow_1297_52065"/>
<feBlend mode="normal" in="SourceGraphic" in2="effect1_dropShadow_1297_52065" result="shape"/>
</filter>
<linearGradient id="paint0_linear_1297_52065" x1="34" y1="291" x2="118" y2="291" gradientUnits="userSpaceOnUse">
<stop stop-color="#5F697A"/>
<stop offset="1" stop-color="#383B4E"/>
</linearGradient>
<linearGradient id="paint1_linear_1297_52065" x1="31" y1="309.667" x2="73.9927" y2="310.417" gradientUnits="userSpaceOnUse">
<stop stop-color="#5F697A"/>
<stop offset="1" stop-color="#383B4E"/>
</linearGradient>
<linearGradient id="paint2_linear_1297_52065" x1="299" y1="309.667" x2="341.993" y2="310.417" gradientUnits="userSpaceOnUse">
<stop stop-color="#5F697A"/>
<stop offset="1" stop-color="#383B4E"/>
</linearGradient>
<linearGradient id="paint3_linear_1297_52065" x1="431" y1="291" x2="515" y2="291" gradientUnits="userSpaceOnUse">
<stop stop-color="#5F697A"/>
<stop offset="1" stop-color="#383B4E"/>
</linearGradient>
<linearGradient id="paint4_linear_1297_52065" x1="428" y1="309.667" x2="470.993" y2="310.417" gradientUnits="userSpaceOnUse">
<stop stop-color="#5F697A"/>
<stop offset="1" stop-color="#383B4E"/>
</linearGradient>
<linearGradient id="paint5_linear_1297_52065" x1="696" y1="309.667" x2="738.993" y2="310.417" gradientUnits="userSpaceOnUse">
<stop stop-color="#5F697A"/>
<stop offset="1" stop-color="#383B4E"/>
</linearGradient>
<linearGradient id="paint6_linear_1297_52065" x1="431" y1="107" x2="515" y2="107" gradientUnits="userSpaceOnUse">
<stop stop-color="#5F697A"/>
<stop offset="1" stop-color="#383B4E"/>
</linearGradient>
<linearGradient id="paint7_linear_1297_52065" x1="428" y1="125.667" x2="470.993" y2="126.417" gradientUnits="userSpaceOnUse">
<stop stop-color="#5F697A"/>
<stop offset="1" stop-color="#383B4E"/>
</linearGradient>
<linearGradient id="paint8_linear_1297_52065" x1="696" y1="125.667" x2="738.993" y2="126.417" gradientUnits="userSpaceOnUse">
<stop stop-color="#5F697A"/>
<stop offset="1" stop-color="#383B4E"/>
</linearGradient>
<linearGradient id="paint9_linear_1297_52065" x1="820" y1="40" x2="904" y2="40" gradientUnits="userSpaceOnUse">
<stop stop-color="#5F697A"/>
<stop offset="1" stop-color="#383B4E"/>
</linearGradient>
<linearGradient id="paint10_linear_1297_52065" x1="34" y1="107" x2="118" y2="107" gradientUnits="userSpaceOnUse">
<stop stop-color="#5F697A"/>
<stop offset="1" stop-color="#383B4E"/>
</linearGradient>
<linearGradient id="paint11_linear_1297_52065" x1="31" y1="125.667" x2="73.9927" y2="126.417" gradientUnits="userSpaceOnUse">
<stop stop-color="#5F697A"/>
<stop offset="1" stop-color="#383B4E"/>
</linearGradient>
<linearGradient id="paint12_linear_1297_52065" x1="299" y1="125.667" x2="341.993" y2="126.417" gradientUnits="userSpaceOnUse">
<stop stop-color="#5F697A"/>
<stop offset="1" stop-color="#383B4E"/>
</linearGradient>
<linearGradient id="paint13_linear_1297_52065" x1="586.5" y1="0" x2="586.5" y2="390" gradientUnits="userSpaceOnUse">
<stop stop-color="#14141F" stop-opacity="0.2"/>
<stop offset="0.713542" stop-color="#14141F" stop-opacity="0.78"/>
<stop offset="1" stop-color="#14141F"/>
</linearGradient>
</defs>
</svg>
