<?xml version="1.0" encoding="UTF-8"?>
<svg fill="none" viewBox=".5 .5 358.5 341" xmlns="http://www.w3.org/2000/svg">
<rect x="1" y="1" width="356.99" height="340" rx="16" fill="#19191C" stroke="#2D2D31"/>
<path d="M32.5 131.707v-.869l3.835-6.068h.63v1.346h-.426l-2.897 4.586v.068h5.164v.937H32.5Zm4.108 1.79v-8.727h1.005v8.727h-1.005Zm6.642.119c-.642 0-1.189-.174-1.64-.524-.452-.352-.797-.862-1.036-1.53-.239-.67-.358-1.48-.358-2.429 0-.943.12-1.748.358-2.416.241-.67.588-1.182 1.04-1.534.454-.355 1-.533 1.636-.533.636 0 1.18.178 1.632.533.455.352.801.864 1.04 1.534.241.668.362 1.473.362 2.416 0 .949-.12 1.759-.358 2.429-.239.668-.584 1.178-1.035 1.53-.452.35-.999.524-1.641.524Zm0-.937c.636 0 1.13-.307 1.483-.921.352-.613.528-1.488.528-2.625 0-.755-.08-1.399-.242-1.93-.16-.531-.39-.936-.69-1.214a1.522 1.522 0 0 0-1.079-.418c-.63 0-1.124.311-1.479.933-.355.619-.532 1.496-.532 2.629 0 .756.08 1.398.238 1.927.16.528.388.93.686 1.206.302.275.664.413 1.087.413Zm7.5.937c-.642 0-1.189-.174-1.64-.524-.452-.352-.797-.862-1.036-1.53-.239-.67-.358-1.48-.358-2.429 0-.943.12-1.748.358-2.416.241-.67.588-1.182 1.04-1.534.454-.355 1-.533 1.636-.533.636 0 1.18.178 1.632.533.455.352.801.864 1.04 1.534.241.668.362 1.473.362 2.416 0 .949-.12 1.759-.358 2.429-.239.668-.584 1.178-1.035 1.53-.452.35-.999.524-1.641.524Zm0-.937c.636 0 1.13-.307 1.483-.921.352-.613.528-1.488.528-2.625 0-.755-.08-1.399-.242-1.93-.16-.531-.39-.936-.69-1.214a1.522 1.522 0 0 0-1.079-.418c-.63 0-1.124.311-1.479.933-.355.619-.532 1.496-.532 2.629 0 .756.08 1.398.238 1.927.16.528.388.93.686 1.206.302.275.664.413 1.087.413Zm7.5.937c-.642 0-1.189-.174-1.64-.524-.452-.352-.797-.862-1.036-1.53-.239-.67-.358-1.48-.358-2.429 0-.943.12-1.748.358-2.416.241-.67.588-1.182 1.04-1.534.454-.355 1-.533 1.636-.533.636 0 1.18.178 1.632.533.455.352.801.864 1.04 1.534.241.668.362 1.473.362 2.416 0 .949-.12 1.759-.358 2.429-.239.668-.584 1.178-1.035 1.53-.452.35-.999.524-1.641.524Zm0-.937c.636 0 1.13-.307 1.483-.921.352-.613.528-1.488.528-2.625 0-.755-.08-1.399-.242-1.93-.16-.531-.39-.936-.69-1.214a1.522 1.522 0 0 0-1.079-.418c-.63 0-1.124.311-1.479.933-.355.619-.532 1.496-.532 2.629 0 .756.08 1.398.238 1.927.16.528.388.93.686 1.206.302.275.664.413 1.087.413Z" fill="#818186" opacity=".5"/>
<path d="m78 129.25h246" stroke="#818186" stroke-width=".5"/>
<path d="M35.712 168.886c-.563 0-1.064-.097-1.505-.29a2.58 2.58 0 0 1-1.044-.805 2.168 2.168 0 0 1-.417-1.206h1.074c.022.281.119.524.29.728.17.202.393.358.668.469.276.111.581.166.917.166.375 0 .707-.065.997-.196.29-.13.517-.312.682-.545.164-.233.247-.503.247-.81 0-.321-.08-.603-.239-.848a1.578 1.578 0 0 0-.699-.579c-.307-.139-.682-.209-1.125-.209h-.699v-.938h.7c.346 0 .65-.062.911-.187.264-.125.47-.301.618-.528.15-.228.226-.495.226-.802 0-.295-.065-.552-.196-.771a1.337 1.337 0 0 0-.554-.511 1.795 1.795 0 0 0-.835-.184c-.301 0-.585.056-.853.167-.264.108-.48.265-.647.473a1.228 1.228 0 0 0-.273.741h-1.023c.017-.457.155-.858.414-1.202a2.604 2.604 0 0 1 1.014-.809 3.28 3.28 0 0 1 1.385-.29c.54 0 1.003.109 1.389.328.386.216.683.502.89.857.208.355.312.738.312 1.15 0 .492-.13.911-.388 1.257a1.967 1.967 0 0 1-1.044.721v.068c.551.091.981.325 1.291.703.31.375.465.839.465 1.393 0 .475-.13.901-.388 1.279-.256.375-.605.67-1.049.886-.443.216-.947.324-1.512.324Zm7.538 0c-.642 0-1.189-.175-1.64-.524-.452-.353-.797-.862-1.036-1.53-.239-.671-.358-1.48-.358-2.429 0-.943.12-1.749.358-2.416.241-.671.588-1.182 1.04-1.534.454-.355 1-.533 1.636-.533.636 0 1.18.178 1.632.533.455.352.801.863 1.04 1.534.241.667.362 1.473.362 2.416 0 .949-.12 1.758-.358 2.429-.239.668-.584 1.177-1.035 1.53-.452.349-.999.524-1.641.524Zm0-.938c.636 0 1.13-.306 1.483-.92.352-.614.528-1.489.528-2.625 0-.756-.08-1.399-.242-1.93-.16-.532-.39-.937-.69-1.215a1.526 1.526 0 0 0-1.079-.418c-.63 0-1.124.312-1.479.934-.355.619-.532 1.495-.532 2.629 0 .756.08 1.398.238 1.926.16.529.388.93.686 1.206a1.55 1.55 0 0 0 1.087.413Zm7.5.938c-.642 0-1.189-.175-1.64-.524-.452-.353-.797-.862-1.036-1.53-.239-.671-.358-1.48-.358-2.429 0-.943.12-1.749.358-2.416.241-.671.588-1.182 1.04-1.534.454-.355 1-.533 1.636-.533.636 0 1.18.178 1.632.533.455.352.801.863 1.04 1.534.241.667.362 1.473.362 2.416 0 .949-.12 1.758-.358 2.429-.239.668-.584 1.177-1.035 1.53-.452.349-.999.524-1.641.524Zm0-.938c.636 0 1.13-.306 1.483-.92.352-.614.528-1.489.528-2.625 0-.756-.08-1.399-.242-1.93-.16-.532-.39-.937-.69-1.215a1.526 1.526 0 0 0-1.079-.418c-.63 0-1.124.312-1.479.934-.355.619-.532 1.495-.532 2.629 0 .756.08 1.398.238 1.926.16.529.388.93.686 1.206a1.55 1.55 0 0 0 1.087.413Zm7.5.938c-.642 0-1.189-.175-1.64-.524-.452-.353-.797-.862-1.036-1.53-.239-.671-.358-1.48-.358-2.429 0-.943.12-1.749.358-2.416.241-.671.588-1.182 1.04-1.534.454-.355 1-.533 1.636-.533.636 0 1.18.178 1.632.533.455.352.801.863 1.04 1.534.241.667.362 1.473.362 2.416 0 .949-.12 1.758-.358 2.429-.239.668-.584 1.177-1.035 1.53-.452.349-.999.524-1.641.524Zm0-.938c.636 0 1.13-.306 1.483-.92.352-.614.528-1.489.528-2.625 0-.756-.08-1.399-.242-1.93-.16-.532-.39-.937-.69-1.215a1.526 1.526 0 0 0-1.079-.418c-.63 0-1.124.312-1.479.934-.355.619-.532 1.495-.532 2.629 0 .756.08 1.398.238 1.926.16.529.388.93.686 1.206a1.55 1.55 0 0 0 1.087.413Z" fill="#818186" opacity=".5"/>
<path d="m78 164.52h246" stroke="#818186" stroke-width=".5"/>
<path d="M33.138 204.964v-.767l2.88-3.153c.338-.37.617-.691.836-.963a3.59 3.59 0 0 0 .486-.776c.107-.244.161-.5.161-.767 0-.307-.073-.572-.221-.797a1.44 1.44 0 0 0-.597-.52 1.936 1.936 0 0 0-.852-.183c-.335 0-.628.07-.878.209a1.436 1.436 0 0 0-.575.575c-.134.247-.2.537-.2.869h-1.006c0-.511.118-.96.354-1.346.235-.387.556-.688.963-.904.409-.216.867-.323 1.376-.323.511 0 .965.107 1.36.323.394.216.704.507.928.874.225.366.337.774.337 1.223 0 .321-.058.635-.175.942-.113.304-.312.643-.596 1.018-.282.372-.672.827-1.172 1.364l-1.96 2.096v.069h4.056v.937h-5.505Zm10.112.119c-.642 0-1.189-.174-1.64-.524-.452-.352-.797-.862-1.036-1.53-.239-.67-.358-1.48-.358-2.429 0-.943.12-1.748.358-2.416.241-.67.588-1.182 1.04-1.534.454-.355 1-.532 1.636-.532.636 0 1.18.177 1.632.532.455.352.801.864 1.04 1.534.241.668.362 1.473.362 2.416 0 .949-.12 1.759-.358 2.429-.239.668-.584 1.178-1.035 1.53-.452.35-.999.524-1.641.524Zm0-.937c.636 0 1.13-.307 1.483-.921.352-.613.528-1.488.528-2.625 0-.755-.08-1.399-.242-1.93-.16-.531-.39-.936-.69-1.214a1.522 1.522 0 0 0-1.079-.418c-.63 0-1.124.311-1.479.933-.355.62-.532 1.496-.532 2.629 0 .756.08 1.398.238 1.927.16.528.388.93.686 1.206.302.275.664.413 1.087.413Zm7.5.937c-.642 0-1.189-.174-1.64-.524-.452-.352-.797-.862-1.036-1.53-.239-.67-.358-1.48-.358-2.429 0-.943.12-1.748.358-2.416.241-.67.588-1.182 1.04-1.534.454-.355 1-.532 1.636-.532.636 0 1.18.177 1.632.532.455.352.801.864 1.04 1.534.241.668.362 1.473.362 2.416 0 .949-.12 1.759-.358 2.429-.239.668-.584 1.178-1.035 1.53-.452.35-.999.524-1.641.524Zm0-.937c.636 0 1.13-.307 1.483-.921.352-.613.528-1.488.528-2.625 0-.755-.08-1.399-.242-1.93-.16-.531-.39-.936-.69-1.214a1.522 1.522 0 0 0-1.079-.418c-.63 0-1.124.311-1.479.933-.355.62-.532 1.496-.532 2.629 0 .756.08 1.398.238 1.927.16.528.388.93.686 1.206.302.275.664.413 1.087.413Zm7.5.937c-.642 0-1.189-.174-1.64-.524-.452-.352-.797-.862-1.036-1.53-.239-.67-.358-1.48-.358-2.429 0-.943.12-1.748.358-2.416.241-.67.588-1.182 1.04-1.534.454-.355 1-.532 1.636-.532.636 0 1.18.177 1.632.532.455.352.801.864 1.04 1.534.241.668.362 1.473.362 2.416 0 .949-.12 1.759-.358 2.429-.239.668-.584 1.178-1.035 1.53-.452.35-.999.524-1.641.524Zm0-.937c.636 0 1.13-.307 1.483-.921.352-.613.528-1.488.528-2.625 0-.755-.08-1.399-.242-1.93-.16-.531-.39-.936-.69-1.214a1.522 1.522 0 0 0-1.079-.418c-.63 0-1.124.311-1.479.933-.355.62-.532 1.496-.532 2.629 0 .756.08 1.398.238 1.927.16.528.388.93.686 1.206.302.275.664.413 1.087.413Z" fill="#818186" opacity=".5"/>
<path d="m78 200.71h246" stroke="#818186" stroke-width=".5"/>
<path d="M37.894 231.507v8.727h-1.057v-7.619h-.052l-2.13 1.414v-1.074l2.182-1.448h1.056Zm5.356 8.846c-.642 0-1.189-.175-1.64-.524-.452-.352-.797-.862-1.036-1.53-.239-.67-.358-1.48-.358-2.429 0-.943.12-1.748.358-2.416.241-.67.588-1.182 1.04-1.534.454-.355 1-.533 1.636-.533.636 0 1.18.178 1.632.533.455.352.801.864 1.04 1.534.241.668.362 1.473.362 2.416 0 .949-.12 1.759-.358 2.429-.239.668-.584 1.178-1.035 1.53-.452.349-.999.524-1.641.524Zm0-.937c.636 0 1.13-.307 1.483-.921.352-.613.528-1.488.528-2.625 0-.755-.08-1.399-.242-1.93-.16-.531-.39-.936-.69-1.215a1.525 1.525 0 0 0-1.079-.417c-.63 0-1.124.311-1.479.933-.355.619-.532 1.496-.532 2.629 0 .756.08 1.398.238 1.926.16.529.388.931.686 1.206.302.276.664.414 1.087.414Zm7.5.937c-.642 0-1.189-.175-1.64-.524-.452-.352-.797-.862-1.036-1.53-.239-.67-.358-1.48-.358-2.429 0-.943.12-1.748.358-2.416.241-.67.588-1.182 1.04-1.534.454-.355 1-.533 1.636-.533.636 0 1.18.178 1.632.533.455.352.801.864 1.04 1.534.241.668.362 1.473.362 2.416 0 .949-.12 1.759-.358 2.429-.239.668-.584 1.178-1.035 1.53-.452.349-.999.524-1.641.524Zm0-.937c.636 0 1.13-.307 1.483-.921.352-.613.528-1.488.528-2.625 0-.755-.08-1.399-.242-1.93-.16-.531-.39-.936-.69-1.215a1.525 1.525 0 0 0-1.079-.417c-.63 0-1.124.311-1.479.933-.355.619-.532 1.496-.532 2.629 0 .756.08 1.398.238 1.926.16.529.388.931.686 1.206.302.276.664.414 1.087.414Zm7.5.937c-.642 0-1.189-.175-1.64-.524-.452-.352-.797-.862-1.036-1.53-.239-.67-.358-1.48-.358-2.429 0-.943.12-1.748.358-2.416.241-.67.588-1.182 1.04-1.534.454-.355 1-.533 1.636-.533.636 0 1.18.178 1.632.533.455.352.801.864 1.04 1.534.241.668.362 1.473.362 2.416 0 .949-.12 1.759-.358 2.429-.239.668-.584 1.178-1.035 1.53-.452.349-.999.524-1.641.524Zm0-.937c.636 0 1.13-.307 1.483-.921.352-.613.528-1.488.528-2.625 0-.755-.08-1.399-.242-1.93-.16-.531-.39-.936-.69-1.215a1.525 1.525 0 0 0-1.079-.417c-.63 0-1.124.311-1.479.933-.355.619-.532 1.496-.532 2.629 0 .756.08 1.398.238 1.926.16.529.388.931.686 1.206.302.276.664.414 1.087.414Z" fill="#818186" opacity=".5"/>
<path d="m78 235.98h246" stroke="#818186" stroke-width=".5"/>
<path d="M58.25 275.622c-.642 0-1.189-.174-1.64-.524-.452-.352-.797-.862-1.036-1.529-.239-.671-.358-1.481-.358-2.429 0-.944.12-1.749.358-2.417.241-.67.588-1.181 1.04-1.534.454-.355 1-.532 1.636-.532.636 0 1.18.177 1.632.532.455.353.801.864 1.04 1.534.241.668.362 1.473.362 2.417 0 .948-.12 1.758-.358 2.429-.239.667-.584 1.177-1.035 1.529-.452.35-.999.524-1.641.524Zm0-.937c.636 0 1.13-.307 1.483-.92.352-.614.528-1.489.528-2.625 0-.756-.08-1.4-.242-1.931-.16-.531-.39-.936-.69-1.214a1.522 1.522 0 0 0-1.079-.418c-.63 0-1.124.311-1.479.933-.355.62-.532 1.496-.532 2.63 0 .755.08 1.397.238 1.926.16.528.388.93.686 1.206.302.275.664.413 1.087.413Z" fill="#818186" opacity=".5"/>
<path d="m78 271.25h246" stroke="#818186" stroke-width=".5"/>
<g filter="url(#f)">
<path d="m79.438 272c2.669-6.5 6.406-9.5 11.616-40.116 2.39-14.042 8.877-63.781 18.504-67.319 17.696-6.503 26.284 35.952 40.597 35.952 11.711 0 16.493-10.277 25.815-26.492s15.085-5.896 18.136-2.948c3.05 2.948 17.966 27.271 27.966-19.532 8-37.443 22.253-23.586 28.814-13.267 6.927 8.844 23.847 71.855 35.372 61.241 11.526-10.614 32.53-25.494 39.556 12.982" stroke="#F02E65"/>
</g>
<rect x="33" y="33" width="92" height="12" rx="6" fill="url(#e)"/>
<path d="M34.526 73V62.818h3.44c.796 0 1.449.136 1.96.408.51.268.887.638 1.133 1.109.245.47.367 1.005.367 1.605 0 .6-.122 1.132-.367 1.596-.246.464-.622.829-1.129 1.094-.507.262-1.155.393-1.944.393h-2.784v-1.114h2.744c.544 0 .981-.08 1.313-.239.335-.159.577-.384.726-.676.152-.295.228-.646.228-1.054 0-.407-.076-.764-.228-1.069a1.559 1.559 0 0 0-.731-.706c-.335-.169-.777-.253-1.328-.253H35.76V73h-1.233Zm4.792-4.574L41.825 73h-1.432l-2.466-4.574h1.392Zm7.124 4.733c-.736 0-1.37-.162-1.904-.487A3.27 3.27 0 0 1 43.31 71.3c-.286-.59-.428-1.276-.428-2.058 0-.783.142-1.472.428-2.069.288-.6.689-1.067 1.203-1.402.517-.338 1.12-.507 1.81-.507.397 0 .79.067 1.178.2.387.132.74.347 1.059.645.318.295.571.687.76 1.174.19.487.283 1.087.283 1.8v.496h-5.886v-1.014h4.693c0-.43-.086-.815-.258-1.153a1.949 1.949 0 0 0-.726-.8c-.312-.196-.68-.294-1.104-.294-.467 0-.871.116-1.213.348a2.288 2.288 0 0 0-.78.895 2.629 2.629 0 0 0-.274 1.183v.677c0 .576.1 1.065.298 1.466.203.398.483.701.84.91.359.205.775.308 1.249.308.308 0 .586-.043.835-.13.252-.089.469-.221.651-.397.182-.179.323-.4.423-.666l1.133.318c-.12.385-.32.723-.601 1.014-.282.289-.63.514-1.044.677-.415.158-.88.238-1.397.238Zm10.157 2.705v-4.037h-.1c-.086.139-.209.315-.368.527-.159.209-.386.396-.68.561-.296.163-.689.244-1.18.244-.636 0-1.197-.16-1.684-.482-.488-.325-.869-.782-1.144-1.372-.275-.594-.413-1.295-.413-2.103 0-.802.138-1.498.413-2.088.275-.59.658-1.046 1.148-1.368.491-.321 1.058-.482 1.7-.482.498 0 .89.083 1.179.249.292.162.514.348.666.557.156.205.277.374.363.507h.14v-1.213h1.133v10.5h-1.173Zm-2.168-3.759c.47 0 .868-.123 1.193-.368.325-.248.572-.591.74-1.029.17-.44.254-.95.254-1.526 0-.57-.082-1.07-.248-1.497-.166-.43-.411-.765-.736-1.004-.325-.242-.726-.363-1.203-.363-.497 0-.911.128-1.243.383a2.291 2.291 0 0 0-.74 1.03c-.163.43-.244.914-.244 1.45 0 .544.082 1.038.248 1.482.17.441.418.793.746 1.054.331.259.742.388 1.233.388Zm10.301-2.227v-4.514h1.173V73h-1.173v-1.293h-.08a2.505 2.505 0 0 1-.835.99c-.377.268-.855.402-1.431.402-.478 0-.902-.104-1.273-.313a2.192 2.192 0 0 1-.875-.954c-.212-.428-.318-.966-.318-1.616v-4.852h1.173v4.772c0 .557.156 1.001.467 1.333.315.331.716.497 1.203.497.292 0 .589-.075.89-.224.305-.149.56-.378.766-.686.209-.308.313-.7.313-1.178Zm6.524 3.281c-.736 0-1.37-.162-1.904-.487a3.27 3.27 0 0 1-1.228-1.372c-.285-.59-.428-1.276-.428-2.058 0-.783.143-1.472.428-2.069.288-.6.69-1.067 1.203-1.402.517-.338 1.12-.507 1.81-.507.397 0 .79.067 1.178.2.388.132.74.347 1.059.645.318.295.572.687.76 1.174.19.487.284 1.087.284 1.8v.496h-5.886v-1.014h4.693c0-.43-.086-.815-.259-1.153a1.95 1.95 0 0 0-.726-.8c-.311-.196-.679-.294-1.103-.294-.468 0-.872.116-1.213.348a2.29 2.29 0 0 0-.78.895 2.629 2.629 0 0 0-.274 1.183v.677c0 .576.1 1.065.298 1.466.202.398.482.701.84.91.358.205.774.308 1.248.308.308 0 .587-.043.835-.13.252-.089.47-.221.652-.397.182-.179.323-.4.422-.666l1.134.318c-.12.385-.32.723-.602 1.014-.282.289-.63.514-1.044.677-.414.158-.88.238-1.397.238Zm10.356-6.085-1.054.298a1.959 1.959 0 0 0-.293-.512 1.423 1.423 0 0 0-.517-.418c-.22-.109-.5-.164-.84-.164-.468 0-.858.108-1.169.324-.308.212-.462.482-.462.81 0 .292.106.522.318.691.212.169.543.31.994.423l1.134.278c.682.166 1.191.42 1.526.76.335.339.502.775.502 1.308 0 .438-.126.829-.378 1.174-.248.344-.596.616-1.044.815-.447.199-.968.298-1.56.298-.78 0-1.424-.169-1.935-.507-.51-.338-.833-.832-.97-1.481l1.114-.279c.106.411.307.72.602.925.298.205.688.308 1.168.308.547 0 .981-.116 1.303-.348.325-.235.487-.517.487-.845a.888.888 0 0 0-.278-.666c-.186-.183-.471-.319-.856-.408l-1.272-.298c-.7-.166-1.213-.423-1.541-.77-.325-.352-.488-.791-.488-1.318 0-.431.121-.812.363-1.144a2.47 2.47 0 0 1 1-.78 3.509 3.509 0 0 1 1.441-.284c.756 0 1.35.166 1.78.497.434.332.743.77.925 1.313Zm5.226-1.71v.994h-3.957v-.994h3.957Zm-2.804-1.83h1.174v7.279c0 .33.048.58.144.745.1.163.225.272.378.328.155.053.32.08.492.08.129 0 .235-.007.318-.02l.199-.04.239 1.054c-.08.03-.191.06-.334.09a2.45 2.45 0 0 1-.541.05c-.332 0-.657-.072-.975-.214a1.937 1.937 0 0 1-.785-.652c-.206-.291-.309-.66-.309-1.103v-7.597Zm9.841 3.54-1.053.298a1.957 1.957 0 0 0-.294-.512 1.423 1.423 0 0 0-.517-.418c-.219-.109-.499-.164-.84-.164-.467 0-.857.108-1.168.324-.309.212-.463.482-.463.81 0 .292.106.522.319.691.212.169.543.31.994.423l1.133.278c.683.166 1.192.42 1.527.76.334.339.502.775.502 1.308 0 .438-.126.829-.378 1.174-.249.344-.597.616-1.044.815-.448.199-.968.298-1.561.298-.78 0-1.424-.169-1.934-.507-.51-.338-.834-.832-.97-1.481l1.114-.279c.106.411.307.72.602.925.298.205.687.308 1.168.308.547 0 .981-.116 1.302-.348.325-.235.488-.517.488-.845a.888.888 0 0 0-.279-.666c-.185-.183-.47-.319-.855-.408l-1.273-.298c-.699-.166-1.213-.423-1.54-.77-.326-.352-.488-.791-.488-1.318 0-.431.121-.812.363-1.144a2.47 2.47 0 0 1 1-.78 3.51 3.51 0 0 1 1.441-.284c.756 0 1.349.166 1.78.497.434.332.742.77.925 1.313Z" fill="#414146"/>
<rect x="1" y="1" width="358" height="340" rx="16" fill="url(#d)"/>
<defs>
<linearGradient id="e" x1="33" x2="117" y1="39" y2="39" gradientUnits="userSpaceOnUse">
<stop stop-color="#414146" offset="0"/>
<stop stop-color="#2D2D31" offset="1"/>
</linearGradient>
<linearGradient id="d" x1="180" x2="180" y1="1" y2="341" gradientUnits="userSpaceOnUse">
<stop stop-color="#232325" stop-opacity=".2" offset="0"/>
<stop stop-color="#232325" stop-opacity=".78" offset=".714"/>
<stop stop-color="#141416" offset="1"/>
</linearGradient>
<filter id="f" x="40.975" y="103.5" width="323.33" height="221.69" color-interpolation-filters="sRGB" filterUnits="userSpaceOnUse">
<feFlood flood-opacity="0" result="BackgroundImageFix"/>
<feColorMatrix in="SourceAlpha" result="hardAlpha" values="0 0 0 0 0 0 0 0 0 0 0 0 0 0 0 0 0 0 127 0"/>
<feOffset dy="15"/>
<feGaussianBlur stdDeviation="19"/>
<feComposite in2="hardAlpha" operator="out"/>
<feColorMatrix values="0 0 0 0 0.941176 0 0 0 0 0.180392 0 0 0 0 0.396078 0 0 0 1 0"/>
<feBlend in2="BackgroundImageFix" result="effect1_dropShadow_3221_1964"/>
<feBlend in="SourceGraphic" in2="effect1_dropShadow_3221_1964" result="shape"/>
</filter>
</defs>
</svg>
