<svg width="1171" height="394" viewBox="0 0 1171 394" fill="none" xmlns="http://www.w3.org/2000/svg">
<rect x="795" y="1.00293" width="374" height="340.986" rx="16" fill="#18181B" stroke="#2D2D31"/>
<path d="M829.138 135.312V134.544L832.018 131.391C832.357 131.022 832.635 130.701 832.854 130.428C833.072 130.152 833.234 129.894 833.339 129.652C833.447 129.408 833.501 129.152 833.501 128.885C833.501 128.579 833.428 128.313 833.28 128.089C833.135 127.864 832.936 127.691 832.683 127.569C832.43 127.446 832.146 127.385 831.831 127.385C831.496 127.385 831.203 127.455 830.953 127.594C830.706 127.731 830.514 127.922 830.378 128.169C830.244 128.417 830.178 128.706 830.178 129.039H829.172C829.172 128.527 829.29 128.079 829.526 127.692C829.761 127.306 830.082 127.005 830.489 126.789C830.898 126.573 831.357 126.465 831.865 126.465C832.376 126.465 832.83 126.573 833.224 126.789C833.619 127.005 833.929 127.296 834.153 127.662C834.378 128.029 834.49 128.437 834.49 128.885C834.49 129.206 834.432 129.52 834.315 129.827C834.202 130.131 834.003 130.471 833.719 130.846C833.438 131.218 833.047 131.672 832.547 132.209L830.587 134.306V134.374H834.643V135.312H829.138ZM839.25 135.431C838.608 135.431 838.061 135.256 837.609 134.907C837.158 134.554 836.813 134.044 836.574 133.377C836.335 132.706 836.216 131.897 836.216 130.948C836.216 130.005 836.335 129.199 836.574 128.532C836.815 127.861 837.162 127.35 837.614 126.998C838.068 126.642 838.614 126.465 839.25 126.465C839.886 126.465 840.43 126.642 840.882 126.998C841.337 127.35 841.683 127.861 841.922 128.532C842.163 129.199 842.284 130.005 842.284 130.948C842.284 131.897 842.165 132.706 841.926 133.377C841.688 134.044 841.342 134.554 840.891 134.907C840.439 135.256 839.892 135.431 839.25 135.431ZM839.25 134.493C839.886 134.493 840.381 134.187 840.733 133.573C841.085 132.959 841.261 132.084 841.261 130.948C841.261 130.192 841.18 129.549 841.018 129.017C840.859 128.486 840.629 128.081 840.328 127.803C840.03 127.525 839.67 127.385 839.25 127.385C838.619 127.385 838.126 127.696 837.771 128.319C837.416 128.938 837.239 129.814 837.239 130.948C837.239 131.704 837.318 132.346 837.477 132.874C837.636 133.402 837.865 133.804 838.163 134.08C838.464 134.356 838.827 134.493 839.25 134.493Z" fill="#56565C"/>
<line x1="859" y1="131.087" x2="1137" y2="131.087" stroke="#56565C" stroke-width="0.5"/>
<path d="M834.093 164.466V173.193H833.036V165.574H832.985L830.854 166.989V165.915L833.036 164.466H834.093ZM839.33 173.313C838.83 173.313 838.38 173.213 837.979 173.014C837.578 172.816 837.257 172.543 837.016 172.196C836.775 171.85 836.642 171.455 836.62 171.012H837.642C837.682 171.406 837.861 171.733 838.179 171.992C838.5 172.247 838.884 172.375 839.33 172.375C839.688 172.375 840.006 172.291 840.284 172.124C840.566 171.956 840.786 171.726 840.945 171.433C841.107 171.138 841.188 170.804 841.188 170.432C841.188 170.051 841.104 169.712 840.936 169.414C840.772 169.112 840.544 168.875 840.255 168.702C839.965 168.529 839.634 168.441 839.262 168.438C838.995 168.435 838.721 168.476 838.439 168.561C838.158 168.644 837.926 168.75 837.745 168.881L836.756 168.762L837.284 164.466H841.819V165.404H838.171L837.864 167.977H837.915C838.094 167.835 838.319 167.718 838.588 167.624C838.858 167.53 839.14 167.483 839.432 167.483C839.966 167.483 840.442 167.611 840.86 167.867C841.28 168.119 841.61 168.466 841.848 168.906C842.09 169.347 842.211 169.85 842.211 170.415C842.211 170.972 842.086 171.469 841.836 171.906C841.588 172.341 841.248 172.685 840.813 172.938C840.378 173.188 839.884 173.313 839.33 173.313Z" fill="#56565C"/>
<line x1="859" y1="168.97" x2="1137" y2="168.97" stroke="#56565C" stroke-width="0.5"/>
<path d="M833.893 203.345V212.072H832.837V204.453H832.786L830.655 205.868V204.794L832.837 203.345H833.893ZM839.25 212.192C838.608 212.192 838.061 212.017 837.609 211.667C837.158 211.315 836.813 210.805 836.574 210.138C836.335 209.467 836.216 208.657 836.216 207.709C836.216 206.765 836.335 205.96 836.574 205.292C836.815 204.622 837.162 204.111 837.614 203.758C838.068 203.403 838.614 203.226 839.25 203.226C839.886 203.226 840.43 203.403 840.882 203.758C841.337 204.111 841.683 204.622 841.922 205.292C842.163 205.96 842.284 206.765 842.284 207.709C842.284 208.657 842.165 209.467 841.926 210.138C841.688 210.805 841.342 211.315 840.891 211.667C840.439 212.017 839.892 212.192 839.25 212.192ZM839.25 211.254C839.886 211.254 840.381 210.947 840.733 210.334C841.085 209.72 841.261 208.845 841.261 207.709C841.261 206.953 841.18 206.309 841.018 205.778C840.859 205.247 840.629 204.842 840.328 204.564C840.03 204.285 839.67 204.146 839.25 204.146C838.619 204.146 838.126 204.457 837.771 205.079C837.416 205.699 837.239 206.575 837.239 207.709C837.239 208.464 837.318 209.106 837.477 209.635C837.636 210.163 837.865 210.565 838.163 210.841C838.464 211.116 838.827 211.254 839.25 211.254Z" fill="#56565C"/>
<line x1="859" y1="207.849" x2="1137" y2="207.849" stroke="#56565C" stroke-width="0.5"/>
<path d="M839.33 250.074C838.83 250.074 838.38 249.974 837.979 249.776C837.578 249.577 837.257 249.304 837.016 248.957C836.775 248.611 836.642 248.216 836.62 247.773H837.642C837.682 248.168 837.861 248.494 838.179 248.753C838.5 249.009 838.884 249.136 839.33 249.136C839.688 249.136 840.006 249.053 840.284 248.885C840.566 248.717 840.786 248.487 840.945 248.195C841.107 247.899 841.188 247.565 841.188 247.193C841.188 246.813 841.104 246.473 840.936 246.175C840.772 245.874 840.544 245.636 840.255 245.463C839.965 245.29 839.634 245.202 839.262 245.199C838.995 245.196 838.721 245.237 838.439 245.322C838.158 245.405 837.926 245.511 837.745 245.642L836.756 245.523L837.284 241.227H841.819V242.165H838.171L837.864 244.739H837.915C838.094 244.597 838.319 244.479 838.588 244.385C838.858 244.291 839.14 244.244 839.432 244.244C839.966 244.244 840.442 244.372 840.86 244.628C841.28 244.881 841.61 245.227 841.848 245.668C842.09 246.108 842.211 246.611 842.211 247.176C842.211 247.733 842.086 248.23 841.836 248.668C841.588 249.102 841.248 249.446 840.813 249.699C840.378 249.949 839.884 250.074 839.33 250.074Z" fill="#56565C"/>
<line x1="859" y1="245.73" x2="1137" y2="245.73" stroke="#56565C" stroke-width="0.5"/>
<path d="M839.25 287.956C838.608 287.956 838.061 287.781 837.609 287.432C837.158 287.079 836.813 286.569 836.574 285.902C836.335 285.231 836.216 284.422 836.216 283.473C836.216 282.53 836.335 281.724 836.574 281.057C836.815 280.386 837.162 279.875 837.614 279.523C838.068 279.167 838.614 278.99 839.25 278.99C839.886 278.99 840.43 279.167 840.882 279.523C841.337 279.875 841.683 280.386 841.922 281.057C842.163 281.724 842.284 282.53 842.284 283.473C842.284 284.422 842.165 285.231 841.926 285.902C841.688 286.569 841.342 287.079 840.891 287.432C840.439 287.781 839.892 287.956 839.25 287.956ZM839.25 287.018C839.886 287.018 840.381 286.711 840.733 286.098C841.085 285.484 841.261 284.609 841.261 283.473C841.261 282.717 841.18 282.074 841.018 281.542C840.859 281.011 840.629 280.606 840.328 280.328C840.03 280.049 839.67 279.91 839.25 279.91C838.619 279.91 838.126 280.221 837.771 280.844C837.416 281.463 837.239 282.339 837.239 283.473C837.239 284.228 837.318 284.871 837.477 285.399C837.636 285.927 837.865 286.329 838.163 286.605C838.464 286.88 838.827 287.018 839.25 287.018Z" fill="#56565C"/>
<line x1="859" y1="283.612" x2="1137" y2="283.612" stroke="#56565C" stroke-width="0.5"/>
<rect x="1" y="184.533" width="372" height="160.464" rx="16" fill="#18181B" stroke="#2D2D31"/>
<rect x="33" y="284.823" width="92" height="12.0348" rx="6.01739" fill="url(#paint0_linear_11_99)"/>
<rect x="33" y="304.881" width="40" height="8.02319" rx="4.01159" fill="url(#paint1_linear_11_99)"/>
<rect x="301" y="304.881" width="40" height="8.02319" rx="4.01159" fill="url(#paint2_linear_11_99)"/>
<path d="M59.0391 230.629H57.6414L60.782 221.902H62.3034L65.444 230.629H64.0462L61.5789 223.487H61.5107L59.0391 230.629ZM59.2735 227.211H63.8076V228.319H59.2735V227.211ZM73.7565 221.902H75.0775V227.642C75.0775 228.252 74.934 228.794 74.6471 229.265C74.3602 229.734 73.9568 230.103 73.4369 230.373C72.917 230.64 72.3076 230.774 71.6088 230.774C70.9127 230.774 70.3048 230.64 69.7849 230.373C69.265 230.103 68.8616 229.734 68.5747 229.265C68.2877 228.794 68.1443 228.252 68.1443 227.642V221.902H69.461V227.535C69.461 227.93 69.5477 228.281 69.721 228.588C69.8971 228.895 70.1457 229.136 70.4667 229.312C70.7877 229.485 71.1684 229.572 71.6088 229.572C72.0519 229.572 72.434 229.485 72.7551 229.312C73.0789 229.136 73.3261 228.895 73.4965 228.588C73.6698 228.281 73.7565 227.93 73.7565 227.535V221.902ZM78.0015 223.035V221.902H84.7558V223.035H82.0328V230.629H80.7203V223.035H78.0015ZM87.6883 230.629V221.902H89.0051V225.694H93.356V221.902H94.677V230.629H93.356V226.824H89.0051V230.629H87.6883ZM98.0346 230.629V221.902H103.506V223.035H99.3514V225.694H103.221V226.824H99.3514V229.495H103.557V230.629H98.0346ZM113.749 221.902V230.629H112.539L108.103 224.228H108.022V230.629H106.705V221.902H107.924L112.364 228.311H112.445V221.902H113.749ZM116.68 223.035V221.902H123.434V223.035H120.711V230.629H119.398V223.035H116.68ZM127.683 221.902V230.629H126.366V221.902H127.683ZM138.289 224.74H136.96C136.909 224.456 136.813 224.206 136.674 223.99C136.535 223.774 136.365 223.591 136.163 223.44C135.961 223.289 135.735 223.176 135.485 223.099C135.238 223.022 134.975 222.984 134.697 222.984C134.194 222.984 133.744 223.11 133.346 223.363C132.951 223.616 132.639 223.987 132.409 224.475C132.181 224.964 132.068 225.561 132.068 226.265C132.068 226.975 132.181 227.575 132.409 228.064C132.639 228.552 132.953 228.922 133.35 229.172C133.748 229.422 134.196 229.547 134.693 229.547C134.968 229.547 135.23 229.51 135.477 229.436C135.727 229.359 135.953 229.247 136.154 229.099C136.356 228.951 136.526 228.771 136.666 228.558C136.808 228.342 136.906 228.095 136.96 227.816L138.289 227.821C138.218 228.25 138.08 228.645 137.876 229.005C137.674 229.363 137.414 229.673 137.096 229.934C136.781 230.193 136.42 230.393 136.014 230.535C135.607 230.677 135.164 230.748 134.684 230.748C133.928 230.748 133.255 230.569 132.664 230.211C132.073 229.85 131.607 229.335 131.267 228.664C130.928 227.994 130.759 227.194 130.759 226.265C130.759 225.333 130.93 224.534 131.271 223.866C131.612 223.196 132.078 222.681 132.669 222.324C133.259 221.963 133.931 221.782 134.684 221.782C135.147 221.782 135.579 221.849 135.98 221.983C136.383 222.113 136.745 222.306 137.066 222.562C137.387 222.815 137.653 223.125 137.863 223.491C138.073 223.855 138.215 224.271 138.289 224.74ZM141.984 230.629H140.586L143.726 221.902H145.248L148.388 230.629H146.991L144.523 223.487H144.455L141.984 230.629ZM142.218 227.211H146.752V228.319H142.218V227.211ZM149.627 223.035V221.902H156.381V223.035H153.658V230.629H152.346V223.035H149.627ZM160.631 221.902V230.629H159.314V221.902H160.631ZM171.569 226.265C171.569 227.197 171.399 227.998 171.058 228.669C170.717 229.336 170.25 229.85 169.656 230.211C169.065 230.569 168.393 230.748 167.64 230.748C166.884 230.748 166.21 230.569 165.616 230.211C165.025 229.85 164.559 229.335 164.218 228.664C163.877 227.994 163.707 227.194 163.707 226.265C163.707 225.333 163.877 224.534 164.218 223.866C164.559 223.196 165.025 222.681 165.616 222.324C166.21 221.963 166.884 221.782 167.64 221.782C168.393 221.782 169.065 221.963 169.656 222.324C170.25 222.681 170.717 223.196 171.058 223.866C171.399 224.534 171.569 225.333 171.569 226.265ZM170.265 226.265C170.265 225.555 170.15 224.957 169.92 224.471C169.693 223.983 169.38 223.613 168.982 223.363C168.588 223.11 168.14 222.984 167.64 222.984C167.137 222.984 166.688 223.11 166.294 223.363C165.899 223.613 165.586 223.983 165.356 224.471C165.129 224.957 165.015 225.555 165.015 226.265C165.015 226.975 165.129 227.575 165.356 228.064C165.586 228.549 165.899 228.919 166.294 229.172C166.688 229.422 167.137 229.547 167.64 229.547C168.14 229.547 168.588 229.422 168.982 229.172C169.38 228.919 169.693 228.549 169.92 228.064C170.15 227.575 170.265 226.975 170.265 226.265ZM181.695 221.902V230.629H180.485L176.049 224.228H175.968V230.629H174.651V221.902H175.87L180.31 228.311H180.391V221.902H181.695Z" fill="#56565C"/>
<g filter="url(#filter0_d_11_99)">
<rect x="398" y="184.533" width="372" height="160.464" rx="16" fill="#18181B"/>
<rect x="398" y="184.533" width="372" height="160.464" rx="16" stroke="#2D2D31"/>
</g>
<rect x="430" y="284.823" width="92" height="12.0348" rx="6.01739" fill="url(#paint3_linear_11_99)"/>
<rect x="430" y="304.881" width="40" height="8.02319" rx="4.01159" fill="url(#paint4_linear_11_99)"/>
<rect x="698" y="304.881" width="40" height="8.02319" rx="4.01159" fill="url(#paint5_linear_11_99)"/>
<path d="M455.384 229.626V220.899H460.796V222.032H456.701V224.691H460.408V225.821H456.701V229.626H455.384ZM469.468 220.899H470.789V226.639C470.789 227.25 470.645 227.791 470.358 228.262C470.072 228.731 469.668 229.1 469.148 229.37C468.628 229.637 468.019 229.771 467.32 229.771C466.624 229.771 466.016 229.637 465.496 229.37C464.976 229.1 464.573 228.731 464.286 228.262C463.999 227.791 463.856 227.25 463.856 226.639V220.899H465.172V226.532C465.172 226.927 465.259 227.278 465.432 227.585C465.608 227.892 465.857 228.133 466.178 228.309C466.499 228.483 466.88 228.569 467.32 228.569C467.763 228.569 468.145 228.483 468.466 228.309C468.79 228.133 469.037 227.892 469.208 227.585C469.381 227.278 469.468 226.927 469.468 226.532V220.899ZM481.187 220.899V229.626H479.977L475.541 223.225H475.46V229.626H474.143V220.899H475.362L479.802 227.308H479.883V220.899H481.187ZM491.797 223.737H490.467C490.416 223.453 490.321 223.203 490.182 222.987C490.042 222.771 489.872 222.588 489.67 222.437C489.469 222.286 489.243 222.173 488.993 222.096C488.746 222.019 488.483 221.981 488.204 221.981C487.702 221.981 487.251 222.108 486.853 222.36C486.459 222.613 486.146 222.984 485.916 223.473C485.689 223.961 485.575 224.558 485.575 225.262C485.575 225.973 485.689 226.572 485.916 227.061C486.146 227.549 486.46 227.919 486.858 228.169C487.255 228.419 487.703 228.544 488.2 228.544C488.476 228.544 488.737 228.507 488.984 228.433C489.234 228.356 489.46 228.244 489.662 228.096C489.863 227.948 490.034 227.768 490.173 227.555C490.315 227.339 490.413 227.092 490.467 226.813L491.797 226.818C491.726 227.247 491.588 227.642 491.383 228.002C491.182 228.36 490.922 228.67 490.603 228.931C490.288 229.19 489.927 229.39 489.521 229.532C489.115 229.674 488.672 229.745 488.192 229.745C487.436 229.745 486.763 229.566 486.172 229.208C485.581 228.848 485.115 228.332 484.774 227.661C484.436 226.991 484.267 226.191 484.267 225.262C484.267 224.331 484.437 223.531 484.778 222.863C485.119 222.193 485.585 221.679 486.176 221.321C486.767 220.96 487.439 220.779 488.192 220.779C488.655 220.779 489.086 220.846 489.487 220.98C489.89 221.11 490.253 221.304 490.574 221.559C490.895 221.812 491.16 222.122 491.371 222.488C491.581 222.852 491.723 223.268 491.797 223.737ZM494.382 222.032V220.899H501.136V222.032H498.413V229.626H497.101V222.032H494.382ZM505.385 220.899V229.626H504.069V220.899H505.385ZM516.324 225.262C516.324 226.194 516.154 226.995 515.813 227.666C515.472 228.333 515.004 228.848 514.411 229.208C513.82 229.566 513.148 229.745 512.395 229.745C511.639 229.745 510.965 229.566 510.371 229.208C509.78 228.848 509.314 228.332 508.973 227.661C508.632 226.991 508.462 226.191 508.462 225.262C508.462 224.331 508.632 223.531 508.973 222.863C509.314 222.193 509.78 221.679 510.371 221.321C510.965 220.96 511.639 220.779 512.395 220.779C513.148 220.779 513.82 220.96 514.411 221.321C515.004 221.679 515.472 222.193 515.813 222.863C516.154 223.531 516.324 224.331 516.324 225.262ZM515.02 225.262C515.02 224.552 514.905 223.954 514.675 223.468C514.448 222.98 514.135 222.61 513.737 222.36C513.343 222.108 512.895 221.981 512.395 221.981C511.892 221.981 511.443 222.108 511.048 222.36C510.654 222.61 510.341 222.98 510.111 223.468C509.884 223.954 509.77 224.552 509.77 225.262C509.77 225.973 509.884 226.572 510.111 227.061C510.341 227.546 510.654 227.916 511.048 228.169C511.443 228.419 511.892 228.544 512.395 228.544C512.895 228.544 513.343 228.419 513.737 228.169C514.135 227.916 514.448 227.546 514.675 227.061C514.905 226.572 515.02 225.973 515.02 225.262ZM526.45 220.899V229.626H525.24L520.803 223.225H520.723V229.626H519.406V220.899H520.625L525.065 227.308H525.146V220.899H526.45ZM534.571 223.191C534.525 222.788 534.338 222.475 534.008 222.254C533.679 222.029 533.264 221.917 532.764 221.917C532.406 221.917 532.096 221.974 531.835 222.088C531.573 222.198 531.37 222.352 531.225 222.548C531.083 222.741 531.012 222.961 531.012 223.208C531.012 223.416 531.061 223.595 531.157 223.745C531.257 223.896 531.386 224.022 531.545 224.125C531.707 224.224 531.88 224.308 532.065 224.376C532.25 224.441 532.427 224.495 532.598 224.538L533.45 224.759C533.728 224.828 534.014 224.92 534.306 225.036C534.599 225.153 534.87 225.306 535.12 225.497C535.37 225.687 535.572 225.923 535.725 226.204C535.882 226.485 535.96 226.822 535.96 227.214C535.96 227.708 535.832 228.147 535.576 228.531C535.323 228.914 534.955 229.217 534.473 229.438C533.992 229.66 533.411 229.771 532.73 229.771C532.076 229.771 531.511 229.667 531.034 229.46C530.556 229.252 530.183 228.958 529.913 228.578C529.643 228.194 529.494 227.74 529.465 227.214H530.786C530.812 227.529 530.914 227.792 531.093 228.002C531.275 228.21 531.507 228.365 531.788 228.467C532.072 228.566 532.383 228.616 532.721 228.616C533.093 228.616 533.424 228.558 533.714 228.441C534.007 228.322 534.237 228.157 534.404 227.947C534.572 227.734 534.656 227.485 534.656 227.201C534.656 226.943 534.582 226.731 534.434 226.566C534.289 226.402 534.092 226.265 533.842 226.157C533.595 226.049 533.315 225.954 533.002 225.872L531.971 225.59C531.272 225.4 530.718 225.12 530.309 224.751C529.903 224.382 529.7 223.893 529.7 223.285C529.7 222.782 529.836 222.343 530.109 221.968C530.382 221.593 530.751 221.302 531.217 221.095C531.683 220.884 532.208 220.779 532.794 220.779C533.384 220.779 533.906 220.883 534.357 221.09C534.812 221.298 535.17 221.583 535.431 221.947C535.693 222.308 535.829 222.723 535.84 223.191H534.571Z" fill="#56565C"/>
<rect x="1" y="1.00293" width="372" height="160.464" rx="16" fill="#18181B" stroke="#2D2D31"/>
<path d="M65.2832 46.0957H62.4579V37.3684H65.3726C66.2278 37.3684 66.9621 37.5431 67.5758 37.8926C68.1894 38.2392 68.6596 38.7377 68.9863 39.3883C69.3158 40.036 69.4806 40.813 69.4806 41.7193C69.4806 42.6284 69.3144 43.4096 68.982 44.063C68.6525 44.7164 68.1752 45.2193 67.5502 45.5716C66.9252 45.921 66.1695 46.0957 65.2832 46.0957ZM63.7746 44.9451H65.2107C65.8755 44.9451 66.428 44.8201 66.8684 44.5701C67.3087 44.3173 67.6383 43.9522 67.857 43.475C68.0758 42.9949 68.1851 42.4096 68.1851 41.7193C68.1851 41.0346 68.0758 40.4537 67.857 39.9764C67.6411 39.4991 67.3187 39.1369 66.8897 38.8897C66.4607 38.6426 65.928 38.519 65.2917 38.519H63.7746V44.9451ZM72.8616 46.0957H71.4639L74.6045 37.3684H76.1259L79.2665 46.0957H77.8687L75.4014 38.9537H75.3332L72.8616 46.0957ZM73.096 42.6781H77.6301V43.786H73.096V42.6781ZM80.5051 38.502V37.3684H87.2594V38.502H84.5364V46.0957H83.2239V38.502H80.5051ZM89.8979 46.0957H88.5002L91.6408 37.3684H93.1621L96.3027 46.0957H94.905L92.4377 38.9537H92.3695L89.8979 46.0957ZM90.1323 42.6781H94.6664V43.786H90.1323V42.6781ZM99.003 46.0957V37.3684H102.199C102.818 37.3684 103.331 37.4707 103.737 37.6752C104.144 37.877 104.448 38.1511 104.649 38.4977C104.851 38.8414 104.952 39.2292 104.952 39.661C104.952 40.0247 104.885 40.3315 104.752 40.5815C104.618 40.8287 104.439 41.0275 104.215 41.1781C103.993 41.3258 103.749 41.4338 103.482 41.502V41.5872C103.771 41.6014 104.054 41.6951 104.33 41.8684C104.608 42.0389 104.838 42.2818 105.02 42.5971C105.202 42.9125 105.293 43.296 105.293 43.7477C105.293 44.1937 105.188 44.5943 104.977 44.9494C104.77 45.3017 104.449 45.5815 104.014 45.7889C103.58 45.9934 103.024 46.0957 102.348 46.0957H99.003ZM100.32 44.9664H102.22C102.851 44.9664 103.303 44.8443 103.575 44.6C103.848 44.3556 103.985 44.0502 103.985 43.6838C103.985 43.4082 103.915 43.1554 103.776 42.9252C103.637 42.6951 103.438 42.5119 103.179 42.3755C102.923 42.2392 102.62 42.171 102.267 42.171H100.32V44.9664ZM100.32 41.144H102.084C102.379 41.144 102.645 41.0872 102.881 40.9735C103.12 40.8599 103.308 40.7008 103.448 40.4963C103.59 40.2889 103.661 40.0446 103.661 39.7633C103.661 39.4025 103.534 39.1 103.281 38.8556C103.029 38.6113 102.641 38.4892 102.118 38.4892H100.32V41.144ZM109.032 46.0957H107.634L110.775 37.3684H112.296L115.437 46.0957H114.039L111.572 38.9537H111.503L109.032 46.0957ZM109.266 42.6781H113.8V43.786H109.266V42.6781ZM122.827 39.661C122.781 39.2576 122.594 38.9451 122.264 38.7235C121.935 38.4991 121.52 38.3869 121.02 38.3869C120.662 38.3869 120.352 38.4437 120.091 38.5574C119.829 38.6681 119.626 38.8216 119.481 39.0176C119.339 39.2108 119.268 39.4309 119.268 39.6781C119.268 39.8855 119.317 40.0645 119.413 40.215C119.513 40.3656 119.642 40.492 119.801 40.5943C119.963 40.6937 120.136 40.7775 120.321 40.8457C120.506 40.911 120.683 40.965 120.854 41.0076L121.706 41.2292C121.984 41.2974 122.27 41.3897 122.562 41.5062C122.855 41.6227 123.126 41.7761 123.376 41.9664C123.626 42.1568 123.828 42.3926 123.981 42.6738C124.138 42.9551 124.216 43.2917 124.216 43.6838C124.216 44.1781 124.088 44.617 123.832 45.0005C123.579 45.3841 123.212 45.6866 122.729 45.9082C122.248 46.1298 121.667 46.2406 120.986 46.2406C120.332 46.2406 119.767 46.1369 119.29 45.9295C118.812 45.7221 118.439 45.4281 118.169 45.0474C117.899 44.6639 117.75 44.2093 117.721 43.6838H119.042C119.068 43.9991 119.17 44.2619 119.349 44.4721C119.531 44.6795 119.763 44.8343 120.044 44.9366C120.328 45.036 120.639 45.0858 120.977 45.0858C121.349 45.0858 121.68 45.0275 121.97 44.911C122.263 44.7917 122.493 44.627 122.66 44.4167C122.828 44.2037 122.912 43.9551 122.912 43.671C122.912 43.4125 122.838 43.2008 122.69 43.036C122.545 42.8713 122.348 42.7349 122.098 42.627C121.851 42.519 121.571 42.4238 121.258 42.3414L120.227 42.0602C119.528 41.8699 118.974 41.59 118.565 41.2207C118.159 40.8514 117.956 40.3627 117.956 39.7548C117.956 39.252 118.092 38.813 118.365 38.438C118.638 38.063 119.007 37.7718 119.473 37.5645C119.939 37.3542 120.464 37.2491 121.05 37.2491C121.64 37.2491 122.162 37.3528 122.613 37.5602C123.068 37.7676 123.426 38.0531 123.687 38.4167C123.949 38.7775 124.085 39.1923 124.096 39.661H122.827ZM127.229 46.0957V37.3684H132.701V38.502H128.546V41.161H132.415V42.2903H128.546V44.9622H132.752V46.0957H127.229Z" fill="#56565C"/>
<rect x="398" y="1.00293" width="372" height="160.464" rx="16" fill="#18181B" stroke="#2D2D31"/>
<rect x="430" y="100.29" width="92" height="12.0348" rx="6.01739" fill="url(#paint6_linear_11_99)"/>
<rect x="430" y="120.348" width="40" height="8.02319" rx="4.01159" fill="url(#paint7_linear_11_99)"/>
<rect x="698" y="120.348" width="40" height="8.02319" rx="4.01159" fill="url(#paint8_linear_11_99)"/>
<path d="M431.601 38.9127C431.601 38.0265 432.317 37.3081 433.201 37.3081H437.201L438.801 38.9127H442.801C443.684 38.9127 444.401 39.6312 444.401 40.5174V45.3313C444.401 46.2175 443.684 46.9359 442.801 46.9359H433.201C432.317 46.9359 431.601 46.2175 431.601 45.3313V38.9127Z" fill="#56565C"/>
<path d="M459.733 39.661C459.687 39.2576 459.5 38.9451 459.17 38.7235C458.841 38.4991 458.426 38.3869 457.926 38.3869C457.568 38.3869 457.258 38.4437 456.997 38.5574C456.736 38.6681 456.532 38.8216 456.388 39.0176C456.246 39.2108 456.174 39.4309 456.174 39.6781C456.174 39.8855 456.223 40.0645 456.319 40.215C456.419 40.3656 456.548 40.492 456.707 40.5943C456.869 40.6937 457.042 40.7775 457.227 40.8457C457.412 40.911 457.589 40.965 457.76 41.0076L458.612 41.2292C458.89 41.2974 459.176 41.3897 459.469 41.5062C459.761 41.6227 460.032 41.7761 460.282 41.9664C460.532 42.1568 460.734 42.3926 460.888 42.6738C461.044 42.9551 461.122 43.2917 461.122 43.6838C461.122 44.1781 460.994 44.617 460.738 45.0005C460.486 45.3841 460.118 45.6866 459.635 45.9082C459.155 46.1298 458.574 46.2406 457.892 46.2406C457.238 46.2406 456.673 46.1369 456.196 45.9295C455.719 45.7221 455.345 45.4281 455.075 45.0474C454.805 44.6639 454.656 44.2093 454.628 43.6838H455.949C455.974 43.9991 456.076 44.2619 456.255 44.4721C456.437 44.6795 456.669 44.8343 456.95 44.9366C457.234 45.036 457.545 45.0858 457.883 45.0858C458.255 45.0858 458.586 45.0275 458.876 44.911C459.169 44.7917 459.399 44.627 459.567 44.4167C459.734 44.2037 459.818 43.9551 459.818 43.671C459.818 43.4125 459.744 43.2008 459.596 43.036C459.451 42.8713 459.254 42.7349 459.004 42.627C458.757 42.519 458.477 42.4238 458.165 42.3414L457.133 42.0602C456.434 41.8699 455.88 41.59 455.471 41.2207C455.065 40.8514 454.862 40.3627 454.862 39.7548C454.862 39.252 454.998 38.813 455.271 38.438C455.544 38.063 455.913 37.7718 456.379 37.5645C456.845 37.3542 457.371 37.2491 457.956 37.2491C458.547 37.2491 459.068 37.3528 459.52 37.5602C459.974 37.7676 460.332 38.0531 460.594 38.4167C460.855 38.7775 460.991 39.1923 461.003 39.661H459.733ZM463.705 38.502V37.3684H470.459V38.502H467.736V46.0957H466.424V38.502H463.705ZM480.598 41.7321C480.598 42.6639 480.427 43.465 480.086 44.1355C479.746 44.8031 479.278 45.3173 478.684 45.6781C478.094 46.036 477.422 46.215 476.669 46.215C475.913 46.215 475.238 46.036 474.645 45.6781C474.054 45.3173 473.588 44.8017 473.247 44.1312C472.906 43.4608 472.736 42.661 472.736 41.7321C472.736 40.8002 472.906 40.0005 473.247 39.3329C473.588 38.6625 474.054 38.1483 474.645 37.7903C475.238 37.4295 475.913 37.2491 476.669 37.2491C477.422 37.2491 478.094 37.4295 478.684 37.7903C479.278 38.1483 479.746 38.6625 480.086 39.3329C480.427 40.0005 480.598 40.8002 480.598 41.7321ZM479.294 41.7321C479.294 41.0218 479.179 40.4238 478.949 39.938C478.721 39.4494 478.409 39.0801 478.011 38.8301C477.616 38.5772 477.169 38.4508 476.669 38.4508C476.166 38.4508 475.717 38.5772 475.322 38.8301C474.927 39.0801 474.615 39.4494 474.385 39.938C474.157 40.4238 474.044 41.0218 474.044 41.7321C474.044 42.4423 474.157 43.0417 474.385 43.5304C474.615 44.0162 474.927 44.3855 475.322 44.6383C475.717 44.8883 476.166 45.0133 476.669 45.0133C477.169 45.0133 477.616 44.8883 478.011 44.6383C478.409 44.3855 478.721 44.0162 478.949 43.5304C479.179 43.0417 479.294 42.4423 479.294 41.7321ZM483.68 46.0957V37.3684H486.79C487.466 37.3684 488.028 37.4849 488.474 37.7179C488.922 37.9508 489.258 38.2733 489.479 38.6852C489.701 39.0943 489.812 39.5673 489.812 40.1042C489.812 40.6383 489.699 41.1085 489.475 41.5147C489.253 41.9181 488.918 42.2321 488.469 42.4565C488.023 42.6809 487.462 42.7931 486.786 42.7931H484.43V41.6596H486.667C487.093 41.6596 487.439 41.5985 487.706 41.4764C487.976 41.3542 488.174 41.1767 488.299 40.9437C488.424 40.7108 488.486 40.4309 488.486 40.1042C488.486 39.7747 488.422 39.4892 488.295 39.2477C488.17 39.0062 487.972 38.8216 487.702 38.6937C487.435 38.563 487.084 38.4977 486.65 38.4977H484.996V46.0957H483.68ZM487.988 42.1582L490.144 46.0957H488.644L486.53 42.1582H487.988ZM493.591 46.0957H492.193L495.334 37.3684H496.855L499.996 46.0957H498.598L496.131 38.9537H496.063L493.591 46.0957ZM493.825 42.6781H498.36V43.786H493.825V42.6781ZM508.192 40.1255C508.11 39.867 507.999 39.6355 507.86 39.4309C507.724 39.2235 507.56 39.0474 507.37 38.9025C507.18 38.7548 506.962 38.6426 506.718 38.5659C506.476 38.4892 506.211 38.4508 505.921 38.4508C505.43 38.4508 504.986 38.5772 504.591 38.8301C504.197 39.0829 503.884 39.4537 503.654 39.9423C503.427 40.4281 503.313 41.0233 503.313 41.7278C503.313 42.4352 503.428 43.0332 503.658 43.5218C503.888 44.0105 504.204 44.3812 504.604 44.6341C505.005 44.8869 505.461 45.0133 505.972 45.0133C506.447 45.0133 506.86 44.9167 507.212 44.7235C507.567 44.5304 507.841 44.2576 508.035 43.9054C508.231 43.5502 508.329 43.1326 508.329 42.6525L508.67 42.7164H506.172V41.6298H509.603V42.6227C509.603 43.3556 509.447 43.992 509.134 44.5318C508.824 45.0687 508.395 45.4835 507.847 45.7761C507.302 46.0687 506.677 46.215 505.972 46.215C505.182 46.215 504.489 46.0332 503.893 45.6696C503.299 45.3059 502.836 44.7903 502.503 44.1227C502.171 43.4522 502.005 42.6568 502.005 41.7363C502.005 41.0403 502.101 40.4153 502.295 39.8613C502.488 39.3074 502.759 38.8372 503.109 38.4508C503.461 38.0616 503.874 37.7647 504.349 37.5602C504.826 37.3528 505.347 37.2491 505.912 37.2491C506.384 37.2491 506.823 37.3187 507.229 37.4579C507.638 37.5971 508.002 37.7946 508.32 38.0502C508.641 38.3059 508.907 38.6099 509.117 38.9622C509.327 39.3116 509.469 39.6994 509.543 40.1255H508.192ZM512.714 46.0957V37.3684H518.186V38.502H514.031V41.161H517.9V42.2903H514.031V44.9622H518.237V46.0957H512.714Z" fill="#56565C"/>
<path d="M35.3994 42.7234V45.1303C35.3994 46.4597 37.9066 47.5373 40.9994 47.5373C44.0922 47.5373 46.5994 46.4597 46.5994 45.1303V42.7234C46.5994 44.0527 44.0922 45.1303 40.9994 45.1303C37.9066 45.1303 35.3994 44.0527 35.3994 42.7234Z" fill="#56565C"/>
<path d="M35.3994 38.7118V41.1187C35.3994 42.4481 37.9066 43.5257 40.9994 43.5257C44.0922 43.5257 46.5994 42.4481 46.5994 41.1187V38.7118C46.5994 40.0411 44.0922 41.1187 40.9994 41.1187C37.9066 41.1187 35.3994 40.0411 35.3994 38.7118Z" fill="#56565C"/>
<path d="M46.5994 37.1072C46.5994 38.4365 44.0922 39.5141 40.9994 39.5141C37.9066 39.5141 35.3994 38.4365 35.3994 37.1072C35.3994 35.7778 37.9066 34.7002 40.9994 34.7002C44.0922 34.7002 46.5994 35.7778 46.5994 37.1072Z" fill="#56565C"/>
<path d="M43.3998 221.44C43.3998 222.769 42.3253 223.847 40.9998 223.847C39.6743 223.847 38.5998 222.769 38.5998 221.44C38.5998 220.11 39.6743 219.033 40.9998 219.033C42.3253 219.033 43.3998 220.11 43.3998 221.44Z" fill="#56565C"/>
<path d="M47.3998 223.044C47.3998 223.931 46.6835 224.649 45.7998 224.649C44.9161 224.649 44.1998 223.931 44.1998 223.044C44.1998 222.158 44.9161 221.44 45.7998 221.44C46.6835 221.44 47.3998 222.158 47.3998 223.044Z" fill="#56565C"/>
<path d="M44.1998 228.661C44.1998 226.888 42.7671 225.451 40.9998 225.451C39.2325 225.451 37.7998 226.888 37.7998 228.661V231.067H44.1998V228.661Z" fill="#56565C"/>
<path d="M37.7998 223.044C37.7998 223.931 37.0835 224.649 36.1998 224.649C35.3161 224.649 34.5998 223.931 34.5998 223.044C34.5998 222.158 35.3161 221.44 36.1998 221.44C37.0835 221.44 37.7998 222.158 37.7998 223.044Z" fill="#56565C"/>
<path d="M45.7998 231.067V228.661C45.7998 227.815 45.5823 227.02 45.2004 226.329C45.392 226.28 45.5928 226.254 45.7998 226.254C47.1253 226.254 48.1998 227.331 48.1998 228.661V231.067H45.7998Z" fill="#56565C"/>
<path d="M36.7992 226.329C36.4173 227.02 36.1998 227.815 36.1998 228.661V231.067H33.7998V228.661C33.7998 227.331 34.8743 226.254 36.1998 226.254C36.4068 226.254 36.6076 226.28 36.7992 226.329Z" fill="#56565C"/>
<path fill-rule="evenodd" clip-rule="evenodd" d="M439.04 217.465C439.373 217.571 439.599 217.88 439.599 218.231V222.242L442.799 222.242C443.098 222.242 443.371 222.409 443.509 222.674C443.647 222.939 443.626 223.26 443.455 223.505L437.855 231.528C437.655 231.815 437.292 231.938 436.959 231.833C436.626 231.728 436.399 231.418 436.399 231.068L436.399 227.056H433.199C432.901 227.056 432.628 226.89 432.49 226.624C432.352 226.359 432.373 226.039 432.544 225.794L438.144 217.771C438.344 217.484 438.707 217.36 439.04 217.465Z" fill="#56565C"/>
<rect x="819" y="33.0957" width="92" height="12.0348" rx="6.01739" fill="url(#paint9_linear_11_99)"/>
<path d="M820.71 71.1592V60.9774H824.15C824.945 60.9774 825.598 61.1133 826.109 61.385C826.619 61.6535 826.997 62.0231 827.242 62.4937C827.487 62.9643 827.61 63.4996 827.61 64.0995C827.61 64.6994 827.487 65.2314 827.242 65.6954C826.997 66.1594 826.621 66.524 826.114 66.7892C825.607 67.051 824.959 67.1819 824.17 67.1819H821.386V66.0683H824.13C824.674 66.0683 825.111 65.9887 825.442 65.8296C825.777 65.6705 826.019 65.4452 826.168 65.1535C826.321 64.8585 826.397 64.5072 826.397 64.0995C826.397 63.6918 826.321 63.3356 826.168 63.0306C826.016 62.7257 825.772 62.4904 825.438 62.3247C825.103 62.1556 824.66 62.0711 824.11 62.0711H821.942V71.1592H820.71ZM825.502 66.5853L828.008 71.1592H826.576L824.11 66.5853H825.502ZM832.625 71.3183C831.889 71.3183 831.255 71.1559 830.721 70.8311C830.191 70.5029 829.781 70.0455 829.493 69.4589C829.208 68.8689 829.066 68.1829 829.066 67.4007C829.066 66.6185 829.208 65.9291 829.493 65.3325C829.781 64.7326 830.182 64.2652 830.696 63.9305C831.213 63.5924 831.816 63.4234 832.506 63.4234C832.904 63.4234 833.296 63.4897 833.684 63.6222C834.072 63.7548 834.425 63.9703 834.743 64.2686C835.061 64.5635 835.315 64.9546 835.504 65.4419C835.693 65.9291 835.787 66.529 835.787 67.2416V67.7387H829.901V66.7245H834.594C834.594 66.2936 834.508 65.9092 834.335 65.5711C834.166 65.233 833.924 64.9662 833.61 64.7707C833.298 64.5751 832.93 64.4774 832.506 64.4774C832.039 64.4774 831.634 64.5934 831.293 64.8254C830.955 65.0541 830.695 65.3524 830.512 65.7203C830.33 66.0882 830.239 66.4826 830.239 66.9035V67.5796C830.239 68.1563 830.338 68.6452 830.537 69.0463C830.739 69.444 831.019 69.7472 831.377 69.9561C831.735 70.1615 832.151 70.2643 832.625 70.2643C832.933 70.2643 833.212 70.2212 833.46 70.135C833.712 70.0455 833.929 69.913 834.112 69.7373C834.294 69.5583 834.435 69.3363 834.534 69.0711L835.668 69.3893C835.548 69.7738 835.348 70.1118 835.066 70.4035C834.785 70.6919 834.436 70.9172 834.022 71.0796C833.608 71.2387 833.142 71.3183 832.625 71.3183ZM839.819 71.3382C839.335 71.3382 838.896 71.247 838.502 71.0647C838.107 70.8791 837.794 70.6123 837.562 70.2643C837.33 69.913 837.214 69.4887 837.214 68.9916C837.214 68.5541 837.3 68.1994 837.472 67.9276C837.645 67.6526 837.875 67.4371 838.164 67.2813C838.452 67.1256 838.77 67.0096 839.118 66.9333C839.469 66.8538 839.822 66.7908 840.177 66.7444C840.641 66.6847 841.017 66.64 841.306 66.6102C841.597 66.577 841.809 66.5223 841.942 66.4461C842.078 66.3699 842.146 66.2373 842.146 66.0484V66.0086C842.146 65.5181 842.012 65.1369 841.743 64.8651C841.478 64.5934 841.075 64.4575 840.535 64.4575C839.975 64.4575 839.536 64.5801 839.218 64.8254C838.899 65.0706 838.676 65.3325 838.546 65.6109L837.433 65.2132C837.632 64.7491 837.897 64.3879 838.228 64.1294C838.563 63.8675 838.927 63.6852 839.322 63.5825C839.72 63.4764 840.111 63.4234 840.495 63.4234C840.74 63.4234 841.022 63.4532 841.34 63.5129C841.662 63.5692 841.972 63.6869 842.27 63.8659C842.572 64.0448 842.822 64.315 843.021 64.6762C843.22 65.0375 843.319 65.5214 843.319 66.1279V71.1592H842.146V70.1251H842.086C842.007 70.2908 841.874 70.4681 841.688 70.657C841.503 70.846 841.256 71.0067 840.948 71.1393C840.639 71.2719 840.263 71.3382 839.819 71.3382ZM839.998 70.2842C840.462 70.2842 840.853 70.193 841.171 70.0107C841.493 69.8285 841.735 69.5931 841.897 69.3048C842.063 69.0164 842.146 68.7132 842.146 68.395V67.3211C842.096 67.3808 841.987 67.4355 841.818 67.4852C841.652 67.5316 841.46 67.573 841.241 67.6095C841.026 67.6426 840.815 67.6724 840.61 67.699C840.407 67.7222 840.243 67.742 840.117 67.7586C839.812 67.7984 839.527 67.863 839.262 67.9525C839 68.0387 838.788 68.1696 838.626 68.3453C838.467 68.5176 838.387 68.7529 838.387 69.0512C838.387 69.4589 838.538 69.7671 838.84 69.9759C839.145 70.1814 839.531 70.2842 839.998 70.2842ZM846.634 60.9774V71.1592H845.461V60.9774H846.634ZM852.104 63.5228V64.5171H848.146V63.5228H852.104ZM849.3 61.6933H850.473V68.9717C850.473 69.3031 850.521 69.5517 850.617 69.7174C850.717 69.8798 850.843 69.9892 850.995 70.0455C851.151 70.0986 851.315 70.1251 851.487 70.1251C851.617 70.1251 851.723 70.1185 851.806 70.1052C851.888 70.0886 851.955 70.0754 852.004 70.0654L852.243 71.1194C852.164 71.1492 852.052 71.1791 851.91 71.2089C851.767 71.242 851.587 71.2586 851.368 71.2586C851.037 71.2586 850.712 71.1874 850.394 71.0448C850.079 70.9023 849.817 70.6852 849.608 70.3936C849.403 70.1019 849.3 69.734 849.3 69.2899V61.6933ZM853.869 71.1592V63.5228H855.042V71.1592H853.869ZM854.465 62.2501C854.237 62.2501 854.039 62.1722 853.874 62.0164C853.711 61.8606 853.63 61.6734 853.63 61.4546C853.63 61.2359 853.711 61.0486 853.874 60.8928C854.039 60.7371 854.237 60.6592 854.465 60.6592C854.694 60.6592 854.89 60.7371 855.052 60.8928C855.218 61.0486 855.301 61.2359 855.301 61.4546C855.301 61.6734 855.218 61.8606 855.052 62.0164C854.89 62.1722 854.694 62.2501 854.465 62.2501ZM857.191 71.1592V63.5228H858.325V64.716H858.424C858.583 64.3083 858.84 63.9918 859.195 63.7664C859.549 63.5377 859.975 63.4234 860.472 63.4234C860.976 63.4234 861.395 63.5377 861.73 63.7664C862.068 63.9918 862.332 64.3083 862.521 64.716H862.6C862.796 64.3216 863.089 64.0084 863.48 63.7764C863.871 63.541 864.34 63.4234 864.887 63.4234C865.57 63.4234 866.128 63.6372 866.562 64.0647C866.997 64.489 867.214 65.1502 867.214 66.0484V71.1592H866.04V66.0484C866.04 65.4849 865.886 65.0822 865.578 64.8403C865.27 64.5983 864.907 64.4774 864.489 64.4774C863.952 64.4774 863.536 64.6398 863.241 64.9646C862.946 65.2861 862.799 65.6937 862.799 66.1876V71.1592H861.606V65.9291C861.606 65.4949 861.465 65.1452 861.183 64.8801C860.902 64.6116 860.539 64.4774 860.094 64.4774C859.79 64.4774 859.504 64.5586 859.239 64.721C858.978 64.8834 858.765 65.1088 858.603 65.3971C858.444 65.6821 858.364 66.0119 858.364 66.3865V71.1592H857.191ZM872.561 71.3183C871.825 71.3183 871.19 71.1559 870.657 70.8311C870.126 70.5029 869.717 70.0455 869.429 69.4589C869.144 68.8689 869.001 68.1829 869.001 67.4007C869.001 66.6185 869.144 65.9291 869.429 65.3325C869.717 64.7326 870.118 64.2652 870.632 63.9305C871.149 63.5924 871.752 63.4234 872.441 63.4234C872.839 63.4234 873.232 63.4897 873.62 63.6222C874.007 63.7548 874.36 63.9703 874.679 64.2686C874.997 64.5635 875.25 64.9546 875.439 65.4419C875.628 65.9291 875.723 66.529 875.723 67.2416V67.7387H869.836V66.7245H874.529C874.529 66.2936 874.443 65.9092 874.271 65.5711C874.102 65.233 873.86 64.9662 873.545 64.7707C873.234 64.5751 872.866 64.4774 872.441 64.4774C871.974 64.4774 871.57 64.5934 871.228 64.8254C870.89 65.0541 870.63 65.3524 870.448 65.7203C870.266 66.0882 870.174 66.4826 870.174 66.9035V67.5796C870.174 68.1563 870.274 68.6452 870.473 69.0463C870.675 69.444 870.955 69.7472 871.313 69.9561C871.671 70.1615 872.087 70.2643 872.561 70.2643C872.869 70.2643 873.147 70.2212 873.396 70.135C873.648 70.0455 873.865 69.913 874.047 69.7373C874.23 69.5583 874.37 69.3363 874.47 69.0711L875.603 69.3893C875.484 69.7738 875.283 70.1118 875.002 70.4035C874.72 70.6919 874.372 70.9172 873.958 71.0796C873.543 71.2387 873.078 71.3183 872.561 71.3183ZM889.797 64.1592H888.564C888.491 63.8045 888.364 63.493 888.181 63.2245C888.002 62.9561 887.784 62.7307 887.525 62.5484C887.27 62.3628 886.987 62.2236 886.675 62.1308C886.364 62.038 886.039 61.9916 885.701 61.9916C885.084 61.9916 884.526 62.1473 884.025 62.4589C883.528 62.7704 883.132 63.2295 882.837 63.836C882.545 64.4426 882.4 65.1866 882.4 66.0683C882.4 66.9499 882.545 67.694 882.837 68.3005C883.132 68.907 883.528 69.3661 884.025 69.6776C884.526 69.9892 885.084 70.145 885.701 70.145C886.039 70.145 886.364 70.0986 886.675 70.0058C886.987 69.913 887.27 69.7754 887.525 69.5931C887.784 69.4075 888.002 69.1805 888.181 68.912C888.364 68.6402 888.491 68.3287 888.564 67.9774H889.797C889.704 68.4977 889.535 68.9634 889.29 69.3744C889.045 69.7854 888.74 70.135 888.375 70.4234C888.011 70.7084 887.601 70.9255 887.147 71.0747C886.697 71.2238 886.214 71.2984 885.701 71.2984C884.832 71.2984 884.06 71.0863 883.384 70.662C882.708 70.2378 882.176 69.6346 881.788 68.8524C881.4 68.0702 881.206 67.1421 881.206 66.0683C881.206 64.9944 881.4 64.0664 881.788 63.2842C882.176 62.502 882.708 61.8988 883.384 61.4745C884.06 61.0503 884.832 60.8382 885.701 60.8382C886.214 60.8382 886.697 60.9127 887.147 61.0619C887.601 61.211 888.011 61.4298 888.375 61.7181C888.74 62.0032 889.045 62.3512 889.29 62.7622C889.535 63.1698 889.704 63.6355 889.797 64.1592ZM894.733 71.3183C894.043 71.3183 893.439 71.1542 892.918 70.8261C892.401 70.498 891.997 70.0389 891.705 69.449C891.417 68.859 891.273 68.1696 891.273 67.3808C891.273 66.5853 891.417 65.891 891.705 65.2977C891.997 64.7044 892.401 64.2437 892.918 63.9156C893.439 63.5874 894.043 63.4234 894.733 63.4234C895.422 63.4234 896.025 63.5874 896.542 63.9156C897.063 64.2437 897.467 64.7044 897.756 65.2977C898.047 65.891 898.193 66.5853 898.193 67.3808C898.193 68.1696 898.047 68.859 897.756 69.449C897.467 70.0389 897.063 70.498 896.542 70.8261C896.025 71.1542 895.422 71.3183 894.733 71.3183ZM894.733 70.2643C895.256 70.2643 895.687 70.1301 896.025 69.8616C896.363 69.5931 896.614 69.2401 896.776 68.8026C896.939 68.3651 897.02 67.8912 897.02 67.3808C897.02 66.8704 896.939 66.3947 896.776 65.9539C896.614 65.5131 896.363 65.1568 896.025 64.885C895.687 64.6133 895.256 64.4774 894.733 64.4774C894.209 64.4774 893.778 64.6133 893.44 64.885C893.102 65.1568 892.852 65.5131 892.689 65.9539C892.527 66.3947 892.446 66.8704 892.446 67.3808C892.446 67.8912 892.527 68.3651 892.689 68.8026C892.852 69.2401 893.102 69.5931 893.44 69.8616C893.778 70.1301 894.209 70.2643 894.733 70.2643ZM901.157 66.5654V71.1592H899.984V63.5228H901.118V64.716H901.217C901.396 64.3282 901.668 64.0167 902.032 63.7813C902.397 63.5427 902.868 63.4234 903.444 63.4234C903.961 63.4234 904.414 63.5294 904.801 63.7416C905.189 63.9504 905.491 64.2686 905.706 64.6961C905.922 65.1204 906.029 65.6573 906.029 66.3069V71.1592H904.856V66.3865C904.856 65.7865 904.7 65.3192 904.389 64.9845C904.077 64.6464 903.65 64.4774 903.106 64.4774C902.732 64.4774 902.397 64.5586 902.102 64.721C901.81 64.8834 901.58 65.1204 901.411 65.4319C901.242 65.7435 901.157 66.1213 901.157 66.5654ZM909.347 66.5654V71.1592H908.173V63.5228H909.307V64.716H909.406C909.585 64.3282 909.857 64.0167 910.222 63.7813C910.586 63.5427 911.057 63.4234 911.634 63.4234C912.151 63.4234 912.603 63.5294 912.991 63.7416C913.379 63.9504 913.68 64.2686 913.896 64.6961C914.111 65.1204 914.219 65.6573 914.219 66.3069V71.1592H913.046V66.3865C913.046 65.7865 912.89 65.3192 912.578 64.9845C912.267 64.6464 911.839 64.4774 911.296 64.4774C910.921 64.4774 910.586 64.5586 910.291 64.721C910 64.8834 909.769 65.1204 909.6 65.4319C909.431 65.7435 909.347 66.1213 909.347 66.5654ZM919.565 71.3183C918.829 71.3183 918.194 71.1559 917.661 70.8311C917.13 70.5029 916.721 70.0455 916.433 69.4589C916.147 68.8689 916.005 68.1829 916.005 67.4007C916.005 66.6185 916.147 65.9291 916.433 65.3325C916.721 64.7326 917.122 64.2652 917.636 63.9305C918.153 63.5924 918.756 63.4234 919.445 63.4234C919.843 63.4234 920.236 63.4897 920.624 63.6222C921.011 63.7548 921.364 63.9703 921.683 64.2686C922.001 64.5635 922.254 64.9546 922.443 65.4419C922.632 65.9291 922.727 66.529 922.727 67.2416V67.7387H916.84V66.7245H921.533C921.533 66.2936 921.447 65.9092 921.275 65.5711C921.106 65.233 920.864 64.9662 920.549 64.7707C920.237 64.5751 919.87 64.4774 919.445 64.4774C918.978 64.4774 918.574 64.5934 918.232 64.8254C917.894 65.0541 917.634 65.3524 917.452 65.7203C917.269 66.0882 917.178 66.4826 917.178 66.9035V67.5796C917.178 68.1563 917.278 68.6452 917.477 69.0463C917.679 69.444 917.959 69.7472 918.317 69.9561C918.675 70.1615 919.091 70.2643 919.565 70.2643C919.873 70.2643 920.151 70.2212 920.4 70.135C920.652 70.0455 920.869 69.913 921.051 69.7373C921.233 69.5583 921.374 69.3363 921.474 69.0711L922.607 69.3893C922.488 69.7738 922.287 70.1118 922.006 70.4035C921.724 70.6919 921.376 70.9172 920.962 71.0796C920.547 71.2387 920.082 71.3183 919.565 71.3183ZM927.614 71.3183C926.898 71.3183 926.281 71.1492 925.764 70.8112C925.247 70.4731 924.849 70.0074 924.571 69.4142C924.293 68.8209 924.153 68.1431 924.153 67.3808C924.153 66.6052 924.296 65.9208 924.581 65.3275C924.869 64.7309 925.27 64.2652 925.784 63.9305C926.301 63.5924 926.904 63.4234 927.594 63.4234C928.131 63.4234 928.615 63.5228 929.045 63.7217C929.476 63.9205 929.829 64.199 930.104 64.5569C930.379 64.9149 930.55 65.3325 930.616 65.8097H929.443C929.354 65.4617 929.155 65.1535 928.847 64.885C928.542 64.6133 928.131 64.4774 927.614 64.4774C927.156 64.4774 926.755 64.5967 926.411 64.8353C926.069 65.0706 925.802 65.4037 925.61 65.8346C925.421 66.2622 925.327 66.7643 925.327 67.341C925.327 67.931 925.42 68.4447 925.605 68.8822C925.794 69.3197 926.059 69.6594 926.401 69.9014C926.745 70.1433 927.15 70.2643 927.614 70.2643C927.919 70.2643 928.195 70.2113 928.444 70.1052C928.692 69.9991 928.903 69.8467 929.075 69.6478C929.248 69.449 929.37 69.2103 929.443 68.9319H930.616C930.55 69.3827 930.386 69.7887 930.124 70.1499C929.866 70.5079 929.523 70.7929 929.095 71.0051C928.671 71.2139 928.177 71.3183 927.614 71.3183ZM935.653 63.5228V64.5171H931.695V63.5228H935.653ZM932.849 61.6933H934.022V68.9717C934.022 69.3031 934.07 69.5517 934.166 69.7174C934.266 69.8798 934.392 69.9892 934.544 70.0455C934.7 70.0986 934.864 70.1251 935.036 70.1251C935.165 70.1251 935.272 70.1185 935.354 70.1052C935.437 70.0886 935.504 70.0754 935.553 70.0654L935.792 71.1194C935.712 71.1492 935.601 71.1791 935.459 71.2089C935.316 71.242 935.136 71.2586 934.917 71.2586C934.585 71.2586 934.261 71.1874 933.942 71.0448C933.628 70.9023 933.366 70.6852 933.157 70.3936C932.951 70.1019 932.849 69.734 932.849 69.2899V61.6933ZM937.418 71.1592V63.5228H938.591V71.1592H937.418ZM938.014 62.2501C937.786 62.2501 937.588 62.1722 937.423 62.0164C937.26 61.8606 937.179 61.6734 937.179 61.4546C937.179 61.2359 937.26 61.0486 937.423 60.8928C937.588 60.7371 937.786 60.6592 938.014 60.6592C938.243 60.6592 938.438 60.7371 938.601 60.8928C938.767 61.0486 938.849 61.2359 938.849 61.4546C938.849 61.6734 938.767 61.8606 938.601 62.0164C938.438 62.1722 938.243 62.2501 938.014 62.2501ZM943.842 71.3183C943.153 71.3183 942.548 71.1542 942.028 70.8261C941.51 70.498 941.106 70.0389 940.814 69.449C940.526 68.859 940.382 68.1696 940.382 67.3808C940.382 66.5853 940.526 65.891 940.814 65.2977C941.106 64.7044 941.51 64.2437 942.028 63.9156C942.548 63.5874 943.153 63.4234 943.842 63.4234C944.532 63.4234 945.135 63.5874 945.652 63.9156C946.172 64.2437 946.577 64.7044 946.865 65.2977C947.157 65.891 947.302 66.5853 947.302 67.3808C947.302 68.1696 947.157 68.859 946.865 69.449C946.577 70.0389 946.172 70.498 945.652 70.8261C945.135 71.1542 944.532 71.3183 943.842 71.3183ZM943.842 70.2643C944.366 70.2643 944.797 70.1301 945.135 69.8616C945.473 69.5931 945.723 69.2401 945.885 68.8026C946.048 68.3651 946.129 67.8912 946.129 67.3808C946.129 66.8704 946.048 66.3947 945.885 65.9539C945.723 65.5131 945.473 65.1568 945.135 64.885C944.797 64.6133 944.366 64.4774 943.842 64.4774C943.318 64.4774 942.888 64.6133 942.55 64.885C942.211 65.1568 941.961 65.5131 941.799 65.9539C941.636 66.3947 941.555 66.8704 941.555 67.3808C941.555 67.8912 941.636 68.3651 941.799 68.8026C941.961 69.2401 942.211 69.5931 942.55 69.8616C942.888 70.1301 943.318 70.2643 943.842 70.2643ZM950.267 66.5654V71.1592H949.093V63.5228H950.227V64.716H950.326C950.505 64.3282 950.777 64.0167 951.142 63.7813C951.506 63.5427 951.977 63.4234 952.554 63.4234C953.071 63.4234 953.523 63.5294 953.911 63.7416C954.299 63.9504 954.6 64.2686 954.816 64.6961C955.031 65.1204 955.139 65.6573 955.139 66.3069V71.1592H953.966V66.3865C953.966 65.7865 953.81 65.3192 953.498 64.9845C953.187 64.6464 952.759 64.4774 952.216 64.4774C951.841 64.4774 951.506 64.5586 951.211 64.721C950.92 64.8834 950.689 65.1204 950.52 65.4319C950.351 65.7435 950.267 66.1213 950.267 66.5654ZM962.692 65.233L961.638 65.5313C961.572 65.3557 961.474 65.185 961.345 65.0193C961.219 64.8502 961.046 64.711 960.828 64.6017C960.609 64.4923 960.329 64.4376 959.987 64.4376C959.52 64.4376 959.131 64.5453 958.819 64.7607C958.511 64.9729 958.357 65.243 958.357 65.5711C958.357 65.8628 958.463 66.0931 958.675 66.2622C958.887 66.4312 959.218 66.5721 959.669 66.6847L960.803 66.9632C961.485 67.1289 961.994 67.3824 962.329 67.7238C962.664 68.0619 962.831 68.4977 962.831 69.0313C962.831 69.4688 962.705 69.8599 962.453 70.2046C962.205 70.5493 961.857 70.8211 961.409 71.02C960.962 71.2188 960.441 71.3183 959.848 71.3183C959.069 71.3183 958.425 71.1492 957.914 70.8112C957.404 70.4731 957.081 69.9793 956.945 69.3296L958.058 69.0512C958.164 69.4622 958.365 69.7704 958.66 69.9759C958.958 70.1814 959.348 70.2842 959.828 70.2842C960.375 70.2842 960.809 70.1682 961.131 69.9362C961.456 69.7008 961.618 69.4191 961.618 69.091C961.618 68.8258 961.525 68.6038 961.34 68.4248C961.154 68.2425 960.869 68.1066 960.485 68.0171L959.212 67.7188C958.512 67.5531 957.999 67.2963 957.671 66.9482C957.346 66.5969 957.183 66.1578 957.183 65.6308C957.183 65.1999 957.304 64.8187 957.546 64.4873C957.792 64.1559 958.125 63.8957 958.546 63.7068C958.97 63.5178 959.45 63.4234 959.987 63.4234C960.743 63.4234 961.336 63.5891 961.767 63.9205C962.201 64.252 962.51 64.6895 962.692 65.233Z" fill="#6C6C71"/>
<path d="M858 189.445C858 187.84 859.301 186.539 860.906 186.539V186.539C862.511 186.539 863.812 187.84 863.812 189.445V283.465H858V189.445Z" fill="#F02E65"/>
<path d="M882.812 221.473C882.812 219.868 884.113 218.567 885.717 218.567V218.567C887.322 218.567 888.623 219.868 888.623 221.473V283.465H882.812V221.473Z" fill="#F02E65"/>
<path d="M907.623 246.758C907.623 245.153 908.924 243.852 910.529 243.852V243.852C912.134 243.852 913.435 245.153 913.435 246.758V283.465H907.623V246.758Z" fill="#F02E65"/>
<path d="M932.436 230.744C932.436 229.139 933.737 227.838 935.341 227.838V227.838C936.946 227.838 938.247 229.139 938.247 230.744V283.465H932.436V230.744Z" fill="#F02E65"/>
<path d="M957.247 205.459C957.247 203.854 958.548 202.553 960.153 202.553V202.553C961.758 202.553 963.059 203.854 963.059 205.459V283.465H957.247V205.459Z" fill="#F02E65"/>
<path d="M982.059 189.445C982.059 187.84 983.36 186.539 984.965 186.539V186.539C986.569 186.539 987.87 187.84 987.87 189.445V283.465H982.059V189.445Z" fill="#F02E65"/>
<path d="M1006.87 221.473C1006.87 219.868 1008.17 218.567 1009.78 218.567V218.567C1011.38 218.567 1012.68 219.868 1012.68 221.473V283.465H1006.87V221.473Z" fill="#F02E65"/>
<path d="M1031.68 246.758C1031.68 245.153 1032.98 243.852 1034.59 243.852V243.852C1036.19 243.852 1037.49 245.153 1037.49 246.758V283.465H1031.68V246.758Z" fill="#F02E65"/>
<path d="M1056.49 230.744C1056.49 229.139 1057.8 227.838 1059.4 227.838V227.838C1061 227.838 1062.31 229.139 1062.31 230.744V283.465H1056.49V230.744Z" fill="#F02E65"/>
<path d="M1081.31 205.459C1081.31 203.854 1082.61 202.553 1084.21 202.553V202.553C1085.82 202.553 1087.12 203.854 1087.12 205.459V283.465H1081.31V205.459Z" fill="#F02E65"/>
<path d="M1106.12 221.473C1106.12 219.868 1107.42 218.567 1109.02 218.567V218.567C1110.63 218.567 1111.93 219.868 1111.93 221.473V283.465H1106.12V221.473Z" fill="#F02E65"/>
<path d="M1130.93 246.758C1130.93 245.153 1132.23 243.852 1133.84 243.852V243.852C1135.44 243.852 1136.74 245.153 1136.74 246.758V283.465H1130.93V246.758Z" fill="#F02E65"/>
<rect x="33" y="100.29" width="92" height="12.0348" rx="6.01739" fill="url(#paint10_linear_11_99)"/>
<rect x="33" y="120.348" width="40" height="8.02319" rx="4.01159" fill="url(#paint11_linear_11_99)"/>
<rect x="301" y="120.348" width="40" height="8.02319" rx="4.01159" fill="url(#paint12_linear_11_99)"/>
<rect width="1171" height="346" rx="19" fill="url(#paint13_linear_11_99)"/>
<defs>
<filter id="filter0_d_11_99" x="365.5" y="168.033" width="437" height="225.464" filterUnits="userSpaceOnUse" color-interpolation-filters="sRGB">
<feFlood flood-opacity="0" result="BackgroundImageFix"/>
<feColorMatrix in="SourceAlpha" type="matrix" values="0 0 0 0 0 0 0 0 0 0 0 0 0 0 0 0 0 0 127 0" result="hardAlpha"/>
<feOffset dy="16"/>
<feGaussianBlur stdDeviation="16"/>
<feColorMatrix type="matrix" values="0 0 0 0 0.215686 0 0 0 0 0.231373 0 0 0 0 0.301961 0 0 0 0.02 0"/>
<feBlend mode="normal" in2="BackgroundImageFix" result="effect1_dropShadow_11_99"/>
<feBlend mode="normal" in="SourceGraphic" in2="effect1_dropShadow_11_99" result="shape"/>
</filter>
<linearGradient id="paint0_linear_11_99" x1="33" y1="290.841" x2="117" y2="290.841" gradientUnits="userSpaceOnUse">
<stop stop-color="#6C6C71"/>
<stop offset="1" stop-color="#19191C" stop-opacity="0"/>
</linearGradient>
<linearGradient id="paint1_linear_11_99" x1="30" y1="309.562" x2="72.9928" y2="310.309" gradientUnits="userSpaceOnUse">
<stop stop-color="#6C6C71"/>
<stop offset="1" stop-color="#19191C" stop-opacity="0"/>
</linearGradient>
<linearGradient id="paint2_linear_11_99" x1="298" y1="309.562" x2="340.993" y2="310.309" gradientUnits="userSpaceOnUse">
<stop stop-color="#6C6C71"/>
<stop offset="1" stop-color="#19191C"/>
</linearGradient>
<linearGradient id="paint3_linear_11_99" x1="430" y1="290.841" x2="514" y2="290.841" gradientUnits="userSpaceOnUse">
<stop stop-color="#6C6C71"/>
<stop offset="1" stop-color="#19191C" stop-opacity="0"/>
</linearGradient>
<linearGradient id="paint4_linear_11_99" x1="427" y1="309.562" x2="469.993" y2="310.309" gradientUnits="userSpaceOnUse">
<stop stop-color="#6C6C71"/>
<stop offset="1" stop-color="#19191C" stop-opacity="0"/>
</linearGradient>
<linearGradient id="paint5_linear_11_99" x1="695" y1="309.562" x2="737.993" y2="310.309" gradientUnits="userSpaceOnUse">
<stop stop-color="#6C6C71"/>
<stop offset="1" stop-color="#19191C" stop-opacity="0"/>
</linearGradient>
<linearGradient id="paint6_linear_11_99" x1="430" y1="106.307" x2="514" y2="106.307" gradientUnits="userSpaceOnUse">
<stop stop-color="#6C6C71"/>
<stop offset="1" stop-color="#19191C" stop-opacity="0"/>
</linearGradient>
<linearGradient id="paint7_linear_11_99" x1="427" y1="125.028" x2="469.993" y2="125.776" gradientUnits="userSpaceOnUse">
<stop stop-color="#6C6C71"/>
<stop offset="1" stop-color="#19191C" stop-opacity="0"/>
</linearGradient>
<linearGradient id="paint8_linear_11_99" x1="695" y1="125.028" x2="737.993" y2="125.776" gradientUnits="userSpaceOnUse">
<stop stop-color="#6C6C71"/>
<stop offset="1" stop-color="#19191C"/>
</linearGradient>
<linearGradient id="paint9_linear_11_99" x1="819" y1="39.1131" x2="903" y2="39.1131" gradientUnits="userSpaceOnUse">
<stop stop-color="#6C6C71"/>
<stop offset="1" stop-color="#19191C" stop-opacity="0"/>
</linearGradient>
<linearGradient id="paint10_linear_11_99" x1="33" y1="106.307" x2="117" y2="106.307" gradientUnits="userSpaceOnUse">
<stop stop-color="#6C6C71"/>
<stop offset="1" stop-color="#19191C"/>
</linearGradient>
<linearGradient id="paint11_linear_11_99" x1="30" y1="125.028" x2="72.9928" y2="125.776" gradientUnits="userSpaceOnUse">
<stop stop-color="#6C6C71"/>
<stop offset="1" stop-color="#19191C"/>
</linearGradient>
<linearGradient id="paint12_linear_11_99" x1="298" y1="125.028" x2="340.993" y2="125.776" gradientUnits="userSpaceOnUse">
<stop stop-color="#6C6C71"/>
<stop offset="1" stop-color="#19191C"/>
</linearGradient>
<linearGradient id="paint13_linear_11_99" x1="585.5" y1="0" x2="585.5" y2="346" gradientUnits="userSpaceOnUse">
<stop stop-color="#18181B" stop-opacity="0.2"/>
<stop offset="0.713542" stop-color="#18181B" stop-opacity="0.78"/>
<stop offset="1" stop-color="#18181B"/>
</linearGradient>
</defs>
</svg>
