<svg width="360" height="342" viewBox="0 0 360 342" fill="none" xmlns="http://www.w3.org/2000/svg">
<rect x="1" y="1" width="358" height="340" rx="16" fill="#1B1B28" stroke="#2D2D31"/>
<path opacity="0.5" d="M33.1378 132V131.233L36.0185 128.08C36.3565 127.71 36.6349 127.389 36.8537 127.116C37.0724 126.841 37.2344 126.582 37.3395 126.341C37.4474 126.097 37.5014 125.841 37.5014 125.574C37.5014 125.267 37.4276 125.001 37.2798 124.777C37.1349 124.553 36.9361 124.379 36.6832 124.257C36.4304 124.135 36.1463 124.074 35.831 124.074C35.4957 124.074 35.2031 124.143 34.9531 124.283C34.706 124.419 34.5142 124.611 34.3778 124.858C34.2443 125.105 34.1776 125.395 34.1776 125.727H33.1719C33.1719 125.216 33.2898 124.767 33.5256 124.381C33.7614 123.994 34.0824 123.693 34.4886 123.477C34.8977 123.261 35.3565 123.153 35.8651 123.153C36.3764 123.153 36.8295 123.261 37.2244 123.477C37.6193 123.693 37.929 123.984 38.1534 124.351C38.3778 124.717 38.4901 125.125 38.4901 125.574C38.4901 125.895 38.4318 126.209 38.3153 126.516C38.2017 126.82 38.0028 127.159 37.7188 127.534C37.4375 127.906 37.0469 128.361 36.5469 128.898L34.5866 130.994V131.062H38.6435V132H33.1378ZM43.25 132.119C42.608 132.119 42.0611 131.945 41.6094 131.595C41.1577 131.243 40.8125 130.733 40.5739 130.065C40.3352 129.395 40.2159 128.585 40.2159 127.636C40.2159 126.693 40.3352 125.888 40.5739 125.22C40.8153 124.55 41.1619 124.038 41.6136 123.686C42.0682 123.331 42.6136 123.153 43.25 123.153C43.8864 123.153 44.4304 123.331 44.8821 123.686C45.3366 124.038 45.6832 124.55 45.9219 125.22C46.1634 125.888 46.2841 126.693 46.2841 127.636C46.2841 128.585 46.1648 129.395 45.9261 130.065C45.6875 130.733 45.3423 131.243 44.8906 131.595C44.4389 131.945 43.892 132.119 43.25 132.119ZM43.25 131.182C43.8864 131.182 44.3807 130.875 44.733 130.261C45.0852 129.648 45.2614 128.773 45.2614 127.636C45.2614 126.881 45.1804 126.237 45.0185 125.706C44.8594 125.175 44.6293 124.77 44.3281 124.491C44.0298 124.213 43.6705 124.074 43.25 124.074C42.6193 124.074 42.1264 124.385 41.7713 125.007C41.4162 125.626 41.2386 126.503 41.2386 127.636C41.2386 128.392 41.3182 129.034 41.4773 129.562C41.6364 130.091 41.8651 130.493 42.1634 130.768C42.4645 131.044 42.8267 131.182 43.25 131.182ZM50.75 132.119C50.108 132.119 49.5611 131.945 49.1094 131.595C48.6577 131.243 48.3125 130.733 48.0739 130.065C47.8352 129.395 47.7159 128.585 47.7159 127.636C47.7159 126.693 47.8352 125.888 48.0739 125.22C48.3153 124.55 48.6619 124.038 49.1136 123.686C49.5682 123.331 50.1136 123.153 50.75 123.153C51.3864 123.153 51.9304 123.331 52.3821 123.686C52.8366 124.038 53.1832 124.55 53.4219 125.22C53.6634 125.888 53.7841 126.693 53.7841 127.636C53.7841 128.585 53.6648 129.395 53.4261 130.065C53.1875 130.733 52.8423 131.243 52.3906 131.595C51.9389 131.945 51.392 132.119 50.75 132.119ZM50.75 131.182C51.3864 131.182 51.8807 130.875 52.233 130.261C52.5852 129.648 52.7614 128.773 52.7614 127.636C52.7614 126.881 52.6804 126.237 52.5185 125.706C52.3594 125.175 52.1293 124.77 51.8281 124.491C51.5298 124.213 51.1705 124.074 50.75 124.074C50.1193 124.074 49.6264 124.385 49.2713 125.007C48.9162 125.626 48.7386 126.503 48.7386 127.636C48.7386 128.392 48.8182 129.034 48.9773 129.562C49.1364 130.091 49.3651 130.493 49.6634 130.768C49.9645 131.044 50.3267 131.182 50.75 131.182ZM58.25 132.119C57.608 132.119 57.0611 131.945 56.6094 131.595C56.1577 131.243 55.8125 130.733 55.5739 130.065C55.3352 129.395 55.2159 128.585 55.2159 127.636C55.2159 126.693 55.3352 125.888 55.5739 125.22C55.8153 124.55 56.1619 124.038 56.6136 123.686C57.0682 123.331 57.6136 123.153 58.25 123.153C58.8864 123.153 59.4304 123.331 59.8821 123.686C60.3366 124.038 60.6832 124.55 60.9219 125.22C61.1634 125.888 61.2841 126.693 61.2841 127.636C61.2841 128.585 61.1648 129.395 60.9261 130.065C60.6875 130.733 60.3423 131.243 59.8906 131.595C59.4389 131.945 58.892 132.119 58.25 132.119ZM58.25 131.182C58.8864 131.182 59.3807 130.875 59.733 130.261C60.0852 129.648 60.2614 128.773 60.2614 127.636C60.2614 126.881 60.1804 126.237 60.0185 125.706C59.8594 125.175 59.6293 124.77 59.3281 124.491C59.0298 124.213 58.6705 124.074 58.25 124.074C57.6193 124.074 57.1264 124.385 56.7713 125.007C56.4162 125.626 56.2386 126.503 56.2386 127.636C56.2386 128.392 56.3182 129.034 56.4773 129.562C56.6364 130.091 56.8651 130.493 57.1634 130.768C57.4645 131.044 57.8267 131.182 58.25 131.182Z" fill="#818186"/>
<line x1="78" y1="127.75" x2="327" y2="127.75" stroke="#56565C" stroke-width="0.5"/>
<path opacity="0.5" d="M38.0927 160.273V169H37.0359V161.381H36.9847L34.854 162.795V161.722L37.0359 160.273H38.0927ZM43.3299 169.119C42.8299 169.119 42.3796 169.02 41.979 168.821C41.5785 168.622 41.2575 168.349 41.016 168.003C40.7745 167.656 40.6424 167.261 40.6197 166.818H41.6424C41.6822 167.213 41.8612 167.54 42.1793 167.798C42.5004 168.054 42.8839 168.182 43.3299 168.182C43.6879 168.182 44.006 168.098 44.2844 167.93C44.5657 167.763 44.7859 167.533 44.945 167.24C45.1069 166.945 45.1879 166.611 45.1879 166.239C45.1879 165.858 45.104 165.518 44.9364 165.22C44.7717 164.919 44.5444 164.682 44.2546 164.509C43.9648 164.335 43.6339 164.247 43.2617 164.244C42.9947 164.241 42.7205 164.283 42.4393 164.368C42.158 164.45 41.9265 164.557 41.7447 164.688L40.756 164.568L41.2844 160.273H45.8185V161.21H42.1708L41.864 163.784H41.9151C42.0941 163.642 42.3185 163.524 42.5884 163.43C42.8583 163.337 43.1396 163.29 43.4322 163.29C43.9663 163.29 44.4421 163.418 44.8597 163.673C45.2802 163.926 45.6097 164.273 45.8484 164.713C46.0898 165.153 46.2106 165.656 46.2106 166.222C46.2106 166.778 46.0856 167.276 45.8356 167.713C45.5884 168.148 45.2475 168.491 44.8129 168.744C44.3782 168.994 43.8839 169.119 43.3299 169.119ZM50.75 169.119C50.108 169.119 49.5611 168.945 49.1094 168.595C48.6577 168.243 48.3125 167.733 48.0739 167.065C47.8352 166.395 47.7159 165.585 47.7159 164.636C47.7159 163.693 47.8352 162.888 48.0739 162.22C48.3153 161.55 48.6619 161.038 49.1136 160.686C49.5682 160.331 50.1136 160.153 50.75 160.153C51.3864 160.153 51.9304 160.331 52.3821 160.686C52.8366 161.038 53.1832 161.55 53.4219 162.22C53.6634 162.888 53.7841 163.693 53.7841 164.636C53.7841 165.585 53.6648 166.395 53.4261 167.065C53.1875 167.733 52.8423 168.243 52.3906 168.595C51.9389 168.945 51.392 169.119 50.75 169.119ZM50.75 168.182C51.3864 168.182 51.8807 167.875 52.233 167.261C52.5852 166.648 52.7614 165.773 52.7614 164.636C52.7614 163.881 52.6804 163.237 52.5185 162.706C52.3594 162.175 52.1293 161.77 51.8281 161.491C51.5298 161.213 51.1705 161.074 50.75 161.074C50.1193 161.074 49.6264 161.385 49.2713 162.007C48.9162 162.626 48.7386 163.503 48.7386 164.636C48.7386 165.392 48.8182 166.034 48.9773 166.562C49.1364 167.091 49.3651 167.493 49.6634 167.768C49.9645 168.044 50.3267 168.182 50.75 168.182ZM58.25 169.119C57.608 169.119 57.0611 168.945 56.6094 168.595C56.1577 168.243 55.8125 167.733 55.5739 167.065C55.3352 166.395 55.2159 165.585 55.2159 164.636C55.2159 163.693 55.3352 162.888 55.5739 162.22C55.8153 161.55 56.1619 161.038 56.6136 160.686C57.0682 160.331 57.6136 160.153 58.25 160.153C58.8864 160.153 59.4304 160.331 59.8821 160.686C60.3366 161.038 60.6832 161.55 60.9219 162.22C61.1634 162.888 61.2841 163.693 61.2841 164.636C61.2841 165.585 61.1648 166.395 60.9261 167.065C60.6875 167.733 60.3423 168.243 59.8906 168.595C59.4389 168.945 58.892 169.119 58.25 169.119ZM58.25 168.182C58.8864 168.182 59.3807 167.875 59.733 167.261C60.0852 166.648 60.2614 165.773 60.2614 164.636C60.2614 163.881 60.1804 163.237 60.0185 162.706C59.8594 162.175 59.6293 161.77 59.3281 161.491C59.0298 161.213 58.6705 161.074 58.25 161.074C57.6193 161.074 57.1264 161.385 56.7713 162.007C56.4162 162.626 56.2386 163.503 56.2386 164.636C56.2386 165.392 56.3182 166.034 56.4773 166.562C56.6364 167.091 56.8651 167.493 57.1634 167.768C57.4645 168.044 57.8267 168.182 58.25 168.182Z" fill="#818186"/>
<line x1="78" y1="164.75" x2="327" y2="164.75" stroke="#56565C" stroke-width="0.5"/>
<path opacity="0.5" d="M37.8935 198.773V207.5H36.8366V199.881H36.7855L34.6548 201.295V200.222L36.8366 198.773H37.8935ZM43.25 207.619C42.608 207.619 42.0611 207.445 41.6094 207.095C41.1577 206.743 40.8125 206.233 40.5739 205.565C40.3352 204.895 40.2159 204.085 40.2159 203.136C40.2159 202.193 40.3352 201.388 40.5739 200.72C40.8153 200.05 41.1619 199.538 41.6136 199.186C42.0682 198.831 42.6136 198.653 43.25 198.653C43.8864 198.653 44.4304 198.831 44.8821 199.186C45.3366 199.538 45.6832 200.05 45.9219 200.72C46.1634 201.388 46.2841 202.193 46.2841 203.136C46.2841 204.085 46.1648 204.895 45.9261 205.565C45.6875 206.233 45.3423 206.743 44.8906 207.095C44.4389 207.445 43.892 207.619 43.25 207.619ZM43.25 206.682C43.8864 206.682 44.3807 206.375 44.733 205.761C45.0852 205.148 45.2614 204.273 45.2614 203.136C45.2614 202.381 45.1804 201.737 45.0185 201.206C44.8594 200.675 44.6293 200.27 44.3281 199.991C44.0298 199.713 43.6705 199.574 43.25 199.574C42.6193 199.574 42.1264 199.885 41.7713 200.507C41.4162 201.126 41.2386 202.003 41.2386 203.136C41.2386 203.892 41.3182 204.534 41.4773 205.062C41.6364 205.591 41.8651 205.993 42.1634 206.268C42.4645 206.544 42.8267 206.682 43.25 206.682ZM50.75 207.619C50.108 207.619 49.5611 207.445 49.1094 207.095C48.6577 206.743 48.3125 206.233 48.0739 205.565C47.8352 204.895 47.7159 204.085 47.7159 203.136C47.7159 202.193 47.8352 201.388 48.0739 200.72C48.3153 200.05 48.6619 199.538 49.1136 199.186C49.5682 198.831 50.1136 198.653 50.75 198.653C51.3864 198.653 51.9304 198.831 52.3821 199.186C52.8366 199.538 53.1832 200.05 53.4219 200.72C53.6634 201.388 53.7841 202.193 53.7841 203.136C53.7841 204.085 53.6648 204.895 53.4261 205.565C53.1875 206.233 52.8423 206.743 52.3906 207.095C51.9389 207.445 51.392 207.619 50.75 207.619ZM50.75 206.682C51.3864 206.682 51.8807 206.375 52.233 205.761C52.5852 205.148 52.7614 204.273 52.7614 203.136C52.7614 202.381 52.6804 201.737 52.5185 201.206C52.3594 200.675 52.1293 200.27 51.8281 199.991C51.5298 199.713 51.1705 199.574 50.75 199.574C50.1193 199.574 49.6264 199.885 49.2713 200.507C48.9162 201.126 48.7386 202.003 48.7386 203.136C48.7386 203.892 48.8182 204.534 48.9773 205.062C49.1364 205.591 49.3651 205.993 49.6634 206.268C49.9645 206.544 50.3267 206.682 50.75 206.682ZM58.25 207.619C57.608 207.619 57.0611 207.445 56.6094 207.095C56.1577 206.743 55.8125 206.233 55.5739 205.565C55.3352 204.895 55.2159 204.085 55.2159 203.136C55.2159 202.193 55.3352 201.388 55.5739 200.72C55.8153 200.05 56.1619 199.538 56.6136 199.186C57.0682 198.831 57.6136 198.653 58.25 198.653C58.8864 198.653 59.4304 198.831 59.8821 199.186C60.3366 199.538 60.6832 200.05 60.9219 200.72C61.1634 201.388 61.2841 202.193 61.2841 203.136C61.2841 204.085 61.1648 204.895 60.9261 205.565C60.6875 206.233 60.3423 206.743 59.8906 207.095C59.4389 207.445 58.892 207.619 58.25 207.619ZM58.25 206.682C58.8864 206.682 59.3807 206.375 59.733 205.761C60.0852 205.148 60.2614 204.273 60.2614 203.136C60.2614 202.381 60.1804 201.737 60.0185 201.206C59.8594 200.675 59.6293 200.27 59.3281 199.991C59.0298 199.713 58.6705 199.574 58.25 199.574C57.6193 199.574 57.1264 199.885 56.7713 200.507C56.4162 201.126 56.2386 202.003 56.2386 203.136C56.2386 203.892 56.3182 204.534 56.4773 205.062C56.6364 205.591 56.8651 205.993 57.1634 206.268C57.4645 206.544 57.8267 206.682 58.25 206.682Z" fill="#818186"/>
<line x1="78" y1="203.25" x2="327" y2="203.25" stroke="#56565C" stroke-width="0.5"/>
<path opacity="0.5" d="M43.3299 245.119C42.8299 245.119 42.3796 245.02 41.979 244.821C41.5785 244.622 41.2575 244.349 41.016 244.003C40.7745 243.656 40.6424 243.261 40.6197 242.818H41.6424C41.6822 243.213 41.8612 243.54 42.1793 243.798C42.5004 244.054 42.8839 244.182 43.3299 244.182C43.6879 244.182 44.006 244.098 44.2844 243.93C44.5657 243.763 44.7859 243.533 44.945 243.24C45.1069 242.945 45.1879 242.611 45.1879 242.239C45.1879 241.858 45.104 241.518 44.9364 241.22C44.7717 240.919 44.5444 240.682 44.2546 240.509C43.9648 240.335 43.6339 240.247 43.2617 240.244C42.9947 240.241 42.7205 240.283 42.4393 240.368C42.158 240.45 41.9265 240.557 41.7447 240.688L40.756 240.568L41.2844 236.273H45.8185V237.21H42.1708L41.864 239.784H41.9151C42.0941 239.642 42.3185 239.524 42.5884 239.43C42.8583 239.337 43.1396 239.29 43.4322 239.29C43.9663 239.29 44.4421 239.418 44.8597 239.673C45.2802 239.926 45.6097 240.273 45.8484 240.713C46.0898 241.153 46.2106 241.656 46.2106 242.222C46.2106 242.778 46.0856 243.276 45.8356 243.713C45.5884 244.148 45.2475 244.491 44.8129 244.744C44.3782 244.994 43.8839 245.119 43.3299 245.119ZM50.75 245.119C50.108 245.119 49.5611 244.945 49.1094 244.595C48.6577 244.243 48.3125 243.733 48.0739 243.065C47.8352 242.395 47.7159 241.585 47.7159 240.636C47.7159 239.693 47.8352 238.888 48.0739 238.22C48.3153 237.55 48.6619 237.038 49.1136 236.686C49.5682 236.331 50.1136 236.153 50.75 236.153C51.3864 236.153 51.9304 236.331 52.3821 236.686C52.8366 237.038 53.1832 237.55 53.4219 238.22C53.6634 238.888 53.7841 239.693 53.7841 240.636C53.7841 241.585 53.6648 242.395 53.4261 243.065C53.1875 243.733 52.8423 244.243 52.3906 244.595C51.9389 244.945 51.392 245.119 50.75 245.119ZM50.75 244.182C51.3864 244.182 51.8807 243.875 52.233 243.261C52.5852 242.648 52.7614 241.773 52.7614 240.636C52.7614 239.881 52.6804 239.237 52.5185 238.706C52.3594 238.175 52.1293 237.77 51.8281 237.491C51.5298 237.213 51.1705 237.074 50.75 237.074C50.1193 237.074 49.6264 237.385 49.2713 238.007C48.9162 238.626 48.7386 239.503 48.7386 240.636C48.7386 241.392 48.8182 242.034 48.9773 242.562C49.1364 243.091 49.3651 243.493 49.6634 243.768C49.9645 244.044 50.3267 244.182 50.75 244.182ZM58.25 245.119C57.608 245.119 57.0611 244.945 56.6094 244.595C56.1577 244.243 55.8125 243.733 55.5739 243.065C55.3352 242.395 55.2159 241.585 55.2159 240.636C55.2159 239.693 55.3352 238.888 55.5739 238.22C55.8153 237.55 56.1619 237.038 56.6136 236.686C57.0682 236.331 57.6136 236.153 58.25 236.153C58.8864 236.153 59.4304 236.331 59.8821 236.686C60.3366 237.038 60.6832 237.55 60.9219 238.22C61.1634 238.888 61.2841 239.693 61.2841 240.636C61.2841 241.585 61.1648 242.395 60.9261 243.065C60.6875 243.733 60.3423 244.243 59.8906 244.595C59.4389 244.945 58.892 245.119 58.25 245.119ZM58.25 244.182C58.8864 244.182 59.3807 243.875 59.733 243.261C60.0852 242.648 60.2614 241.773 60.2614 240.636C60.2614 239.881 60.1804 239.237 60.0185 238.706C59.8594 238.175 59.6293 237.77 59.3281 237.491C59.0298 237.213 58.6705 237.074 58.25 237.074C57.6193 237.074 57.1264 237.385 56.7713 238.007C56.4162 238.626 56.2386 239.503 56.2386 240.636C56.2386 241.392 56.3182 242.034 56.4773 242.562C56.6364 243.091 56.8651 243.493 57.1634 243.768C57.4645 244.044 57.8267 244.182 58.25 244.182Z" fill="#818186"/>
<line x1="78" y1="240.75" x2="327" y2="240.75" stroke="#56565C" stroke-width="0.5"/>
<path opacity="0.5" d="M58.25 282.119C57.608 282.119 57.0611 281.945 56.6094 281.595C56.1577 281.243 55.8125 280.733 55.5739 280.065C55.3352 279.395 55.2159 278.585 55.2159 277.636C55.2159 276.693 55.3352 275.888 55.5739 275.22C55.8153 274.55 56.1619 274.038 56.6136 273.686C57.0682 273.331 57.6136 273.153 58.25 273.153C58.8864 273.153 59.4304 273.331 59.8821 273.686C60.3366 274.038 60.6832 274.55 60.9219 275.22C61.1634 275.888 61.2841 276.693 61.2841 277.636C61.2841 278.585 61.1648 279.395 60.9261 280.065C60.6875 280.733 60.3423 281.243 59.8906 281.595C59.4389 281.945 58.892 282.119 58.25 282.119ZM58.25 281.182C58.8864 281.182 59.3807 280.875 59.733 280.261C60.0852 279.648 60.2614 278.773 60.2614 277.636C60.2614 276.881 60.1804 276.237 60.0185 275.706C59.8594 275.175 59.6293 274.77 59.3281 274.491C59.0298 274.213 58.6705 274.074 58.25 274.074C57.6193 274.074 57.1264 274.385 56.7713 275.007C56.4162 275.626 56.2386 276.503 56.2386 277.636C56.2386 278.392 56.3182 279.034 56.4773 279.562C56.6364 280.091 56.8651 280.493 57.1634 280.768C57.4645 281.044 57.8267 281.182 58.25 281.182Z" fill="#818186"/>
<line x1="78" y1="277.75" x2="327" y2="277.75" stroke="#56565C" stroke-width="0.5"/>
<path d="M78 164.761C78 163.236 79.2363 162 80.7614 162V162C82.2865 162 83.5229 163.236 83.5229 164.761V278.369H78V164.761Z" fill="#F02E65" fill-opacity="0.4"/>
<path d="M78 220.416C78 218.891 79.2363 217.655 80.7614 217.655V217.655C82.2865 217.655 83.5229 218.891 83.5229 220.416V278.369H78V220.416Z" fill="#F02E65"/>
<path d="M93.6484 203.214C93.6484 201.688 94.8848 200.452 96.4099 200.452V200.452C97.935 200.452 99.1713 201.688 99.1713 203.214V278.369H93.6484V203.214Z" fill="#F02E65" fill-opacity="0.4"/>
<path d="M93.6484 233.571C93.6484 232.046 94.8848 230.81 96.4099 230.81V230.81C97.935 230.81 99.1713 232.046 99.1713 233.571V278.369H93.6484V233.571Z" fill="#F02E65"/>
<path d="M109.296 233.571C109.296 232.046 110.532 230.81 112.057 230.81V230.81C113.582 230.81 114.819 232.046 114.819 233.571V278.369H109.296V233.571Z" fill="#F02E65" fill-opacity="0.4"/>
<path d="M109.296 256.845C109.296 255.32 110.532 254.083 112.057 254.083V254.083C113.582 254.083 114.819 255.32 114.819 256.845V278.369H109.296V256.845Z" fill="#F02E65"/>
<path d="M124.944 214.345C124.944 212.82 126.181 211.583 127.706 211.583V211.583C129.231 211.583 130.467 212.82 130.467 214.345V278.369H124.944V214.345Z" fill="#F02E65" fill-opacity="0.4"/>
<path d="M124.944 238.631C124.944 237.105 126.181 235.869 127.706 235.869V235.869C129.231 235.869 130.467 237.105 130.467 238.631V278.369H124.944V238.631Z" fill="#F02E65"/>
<path d="M140.593 183.988C140.593 182.463 141.829 181.227 143.354 181.227V181.227C144.879 181.227 146.116 182.463 146.116 183.988V278.37H140.593V183.988Z" fill="#F02E65" fill-opacity="0.4"/>
<path d="M140.593 211.309C140.593 209.784 141.829 208.548 143.354 208.548V208.548C144.879 208.548 146.116 209.784 146.116 211.309V278.369H140.593V211.309Z" fill="#F02E65"/>
<path d="M156.24 164.761C156.24 163.236 157.477 162 159.002 162V162C160.527 162 161.763 163.236 161.763 164.761V278.369H156.24V164.761Z" fill="#F02E65" fill-opacity="0.4"/>
<path d="M156.24 194.107C156.24 192.582 157.477 191.345 159.002 191.345V191.345C160.527 191.345 161.763 192.582 161.763 194.107V278.369H156.24V194.107Z" fill="#F02E65"/>
<path d="M171.889 203.214C171.889 201.688 173.125 200.452 174.65 200.452V200.452C176.175 200.452 177.412 201.688 177.412 203.214V278.369H171.889V203.214Z" fill="#F02E65" fill-opacity="0.4"/>
<path d="M171.889 228.511C171.889 226.986 173.125 225.75 174.65 225.75V225.75C176.175 225.75 177.412 226.986 177.412 228.511V278.369H171.889V228.511Z" fill="#F02E65"/>
<path d="M187.537 233.571C187.537 232.046 188.773 230.81 190.299 230.81V230.81C191.824 230.81 193.06 232.046 193.06 233.571V278.369H187.537V233.571Z" fill="#F02E65" fill-opacity="0.4"/>
<path d="M187.537 252.798C187.537 251.272 188.773 250.036 190.299 250.036V250.036C191.824 250.036 193.06 251.272 193.06 252.798V278.37H187.537V252.798Z" fill="#F02E65"/>
<path d="M203.185 214.345C203.185 212.82 204.421 211.584 205.946 211.584V211.584C207.471 211.584 208.707 212.82 208.707 214.345V278.37H203.185V214.345Z" fill="#F02E65" fill-opacity="0.4"/>
<path d="M203.185 228.511C203.185 226.986 204.421 225.75 205.946 225.75V225.75C207.471 225.75 208.707 226.986 208.707 228.511V278.369H203.185V228.511Z" fill="#F02E65"/>
<path d="M218.833 183.988C218.833 182.463 220.069 181.227 221.594 181.227V181.227C223.12 181.227 224.356 182.463 224.356 183.988V278.37H218.833V183.988Z" fill="#F02E65" fill-opacity="0.4"/>
<path d="M218.833 211.309C218.833 209.784 220.069 208.548 221.594 208.548V208.548C223.12 208.548 224.356 209.784 224.356 211.309V278.369H218.833V211.309Z" fill="#F02E65"/>
<path d="M234.481 203.214C234.481 201.688 235.718 200.452 237.243 200.452V200.452C238.768 200.452 240.004 201.688 240.004 203.214V278.369H234.481V203.214Z" fill="#F02E65" fill-opacity="0.4"/>
<path d="M234.481 228.511C234.481 226.986 235.718 225.75 237.243 225.75V225.75C238.768 225.75 240.004 226.986 240.004 228.511V278.369H234.481V228.511Z" fill="#F02E65"/>
<path d="M250.129 233.571C250.129 232.046 251.365 230.81 252.89 230.81V230.81C254.415 230.81 255.652 232.046 255.652 233.571V278.369H250.129V233.571Z" fill="#F02E65" fill-opacity="0.4"/>
<path d="M250.129 252.798C250.129 251.272 251.365 250.036 252.89 250.036V250.036C254.415 250.036 255.652 251.272 255.652 252.798V278.37H250.129V252.798Z" fill="#F02E65"/>
<path d="M265.777 214.345C265.777 212.82 267.014 211.583 268.539 211.583V211.583C270.064 211.583 271.3 212.82 271.3 214.345V278.369H265.777V214.345Z" fill="#F02E65" fill-opacity="0.4"/>
<path d="M265.777 233.571C265.777 232.045 267.014 230.809 268.539 230.809V230.809C270.064 230.809 271.3 232.045 271.3 233.571V278.369H265.777V233.571Z" fill="#F02E65"/>
<path d="M281.426 183.988C281.426 182.463 282.662 181.227 284.187 181.227V181.227C285.712 181.227 286.949 182.463 286.949 183.988V278.37H281.426V183.988Z" fill="#F02E65" fill-opacity="0.4"/>
<path d="M281.426 211.309C281.426 209.784 282.662 208.548 284.187 208.548V208.548C285.712 208.548 286.949 209.784 286.949 211.309V278.369H281.426V211.309Z" fill="#F02E65"/>
<path d="M297.073 214.345C297.073 212.82 298.31 211.584 299.835 211.584V211.584C301.36 211.584 302.596 212.82 302.596 214.345V278.37H297.073V214.345Z" fill="#F02E65" fill-opacity="0.4"/>
<path d="M297.073 238.631C297.073 237.106 298.31 235.87 299.835 235.87V235.87C301.36 235.87 302.596 237.106 302.596 238.631V278.37H297.073V238.631Z" fill="#F02E65"/>
<path d="M312.722 183.988C312.722 182.463 313.958 181.227 315.483 181.227V181.227C317.008 181.227 318.245 182.463 318.245 183.988V278.37H312.722V183.988Z" fill="#F02E65" fill-opacity="0.4"/>
<path d="M312.722 211.309C312.722 209.784 313.958 208.548 315.483 208.548V208.548C317.008 208.548 318.245 209.784 318.245 211.309V278.369H312.722V211.309Z" fill="#F02E65"/>
<path d="M32.3365 73V62.8182H35.8961C36.6054 62.8182 37.1904 62.9408 37.6511 63.1861C38.1118 63.428 38.4548 63.7545 38.6802 64.1655C38.9056 64.5732 39.0183 65.0256 39.0183 65.5227C39.0183 65.9602 38.9404 66.3215 38.7846 66.6065C38.6322 66.8916 38.43 67.117 38.1781 67.2827C37.9295 67.4484 37.6594 67.571 37.3677 67.6506V67.75C37.6793 67.7699 37.9925 67.8793 38.3074 68.0781C38.6222 68.277 38.8857 68.562 39.0978 68.9332C39.31 69.3045 39.416 69.7585 39.416 70.2955C39.416 70.8059 39.3 71.2649 39.068 71.6726C38.836 72.0803 38.4698 72.4034 37.9693 72.642C37.4688 72.8807 36.8175 73 36.0154 73H32.3365ZM33.5694 71.9062H36.0154C36.8208 71.9062 37.3926 71.7505 37.7306 71.4389C38.072 71.1241 38.2427 70.7429 38.2427 70.2955C38.2427 69.9508 38.1549 69.6326 37.9792 69.3409C37.8036 69.0459 37.5533 68.8106 37.2285 68.6349C36.9037 68.456 36.5192 68.3665 36.0751 68.3665H33.5694V71.9062ZM33.5694 67.2926H35.8564C36.2276 67.2926 36.5623 67.2197 36.8606 67.0739C37.1622 66.928 37.4009 66.7225 37.5765 66.4574C37.7555 66.1922 37.845 65.8807 37.845 65.5227C37.845 65.0753 37.6892 64.6958 37.3777 64.3842C37.0661 64.0694 36.5723 63.9119 35.8961 63.9119H33.5694V67.2926ZM43.53 73.179C43.0461 73.179 42.6069 73.0878 42.2125 72.9055C41.8181 72.7199 41.5049 72.4531 41.2729 72.1051C41.0409 71.7538 40.9249 71.3295 40.9249 70.8324C40.9249 70.3949 41.0111 70.0402 41.1834 69.7685C41.3558 69.4934 41.5861 69.2779 41.8745 69.1222C42.1628 68.9664 42.481 68.8504 42.829 68.7741C43.1803 68.6946 43.5333 68.6316 43.888 68.5852C44.352 68.5256 44.7282 68.4808 45.0165 68.451C45.3082 68.4179 45.5203 68.3632 45.6529 68.2869C45.7888 68.2107 45.8567 68.0781 45.8567 67.8892V67.8494C45.8567 67.3589 45.7225 66.9777 45.454 66.706C45.1889 66.4342 44.7862 66.2983 44.2459 66.2983C43.6858 66.2983 43.2466 66.4209 42.9284 66.6662C42.6103 66.9115 42.3865 67.1733 42.2573 67.4517L41.1436 67.054C41.3425 66.59 41.6077 66.2287 41.9391 65.9702C42.2739 65.7083 42.6384 65.526 43.0328 65.4233C43.4306 65.3172 43.8217 65.2642 44.2061 65.2642C44.4514 65.2642 44.7331 65.294 45.0513 65.3537C45.3728 65.41 45.6827 65.5277 45.981 65.7067C46.2826 65.8857 46.5328 66.1558 46.7317 66.517C46.9306 66.8783 47.03 67.3622 47.03 67.9688V73H45.8567V71.9659H45.7971C45.7175 72.1316 45.5849 72.3089 45.3993 72.4979C45.2137 72.6868 44.9668 72.8475 44.6586 72.9801C44.3503 73.1127 43.9741 73.179 43.53 73.179ZM43.709 72.125C44.173 72.125 44.5641 72.0339 44.8823 71.8516C45.2038 71.6693 45.4457 71.4339 45.6081 71.1456C45.7739 70.8572 45.8567 70.554 45.8567 70.2358V69.1619C45.807 69.2216 45.6976 69.2763 45.5286 69.326C45.3629 69.3724 45.1706 69.4138 44.9519 69.4503C44.7364 69.4834 44.526 69.5133 44.3205 69.5398C44.1183 69.563 43.9542 69.5829 43.8283 69.5994C43.5234 69.6392 43.2383 69.7038 42.9732 69.7933C42.7114 69.8795 42.4992 70.0104 42.3368 70.1861C42.1777 70.3584 42.0982 70.5937 42.0982 70.892C42.0982 71.2997 42.249 71.608 42.5506 71.8168C42.8555 72.0223 43.2417 72.125 43.709 72.125ZM50.3448 68.4062V73H49.1715V65.3636H50.305V66.5568H50.4045C50.5835 66.169 50.8552 65.8575 51.2198 65.6222C51.5844 65.3835 52.055 65.2642 52.6317 65.2642C53.1488 65.2642 53.6012 65.3703 53.989 65.5824C54.3768 65.7912 54.6784 66.1094 54.8938 66.5369C55.1093 66.9612 55.217 67.4981 55.217 68.1477V73H54.0437V68.2273C54.0437 67.6274 53.8879 67.16 53.5763 66.8253C53.2648 66.4872 52.8372 66.3182 52.2937 66.3182C51.9192 66.3182 51.5844 66.3994 51.2894 66.5618C50.9978 66.7242 50.7674 66.9612 50.5984 67.2727C50.4293 67.5843 50.3448 67.9621 50.3448 68.4062ZM60.2445 73.1591C59.6081 73.1591 59.0463 72.9983 58.5591 72.6768C58.0719 72.352 57.6908 71.8946 57.4157 71.3047C57.1406 70.7114 57.003 70.0104 57.003 69.2017C57.003 68.3996 57.1406 67.7036 57.4157 67.1136C57.6908 66.5237 58.0736 66.0679 58.5641 65.7464C59.0546 65.425 59.6214 65.2642 60.2644 65.2642C60.7615 65.2642 61.1543 65.3471 61.4426 65.5128C61.7343 65.6752 61.9564 65.8608 62.1088 66.0696C62.2646 66.2751 62.3856 66.4441 62.4718 66.5767H62.5712V62.8182H63.7445V73H62.611V71.8267H62.4718C62.3856 71.9659 62.263 72.1416 62.1039 72.3537C61.9448 72.5625 61.7177 72.7498 61.4228 72.9155C61.1278 73.0779 60.735 73.1591 60.2445 73.1591ZM60.4036 72.1051C60.8742 72.1051 61.272 71.9825 61.5968 71.7372C61.9216 71.4886 62.1685 71.1456 62.3375 70.7081C62.5066 70.2673 62.5911 69.7585 62.5911 69.1818C62.5911 68.6117 62.5082 68.1129 62.3425 67.6854C62.1768 67.2545 61.9315 66.9197 61.6067 66.6811C61.2819 66.4392 60.8809 66.3182 60.4036 66.3182C59.9064 66.3182 59.4921 66.4458 59.1607 66.701C58.8326 66.9529 58.5856 67.2959 58.4199 67.7301C58.2575 68.161 58.1763 68.6449 58.1763 69.1818C58.1763 69.7254 58.2592 70.2192 58.4249 70.6634C58.5939 71.1042 58.8425 71.4555 59.1706 71.7173C59.5021 71.9759 59.9131 72.1051 60.4036 72.1051ZM67.7864 73L65.4597 65.3636H66.6926L68.3432 71.2102H68.4228L70.0534 65.3636H71.3063L72.9171 71.1903H72.9966L74.6472 65.3636H75.8801L73.5534 73H72.4L70.7296 67.1335H70.6103L68.9398 73H67.7864ZM77.4313 73V65.3636H78.6046V73H77.4313ZM78.0279 64.0909C77.7992 64.0909 77.602 64.013 77.4363 63.8572C77.2739 63.7015 77.1926 63.5142 77.1926 63.2955C77.1926 63.0767 77.2739 62.8894 77.4363 62.7337C77.602 62.5779 77.7992 62.5 78.0279 62.5C78.2566 62.5 78.4521 62.5779 78.6145 62.7337C78.7802 62.8894 78.8631 63.0767 78.8631 63.2955C78.8631 63.5142 78.7802 63.7015 78.6145 63.8572C78.4521 64.013 78.2566 64.0909 78.0279 64.0909ZM83.6371 73.1591C83.0007 73.1591 82.4389 72.9983 81.9517 72.6768C81.4645 72.352 81.0833 71.8946 80.8082 71.3047C80.5331 70.7114 80.3956 70.0104 80.3956 69.2017C80.3956 68.3996 80.5331 67.7036 80.8082 67.1136C81.0833 66.5237 81.4661 66.0679 81.9567 65.7464C82.4472 65.425 83.014 65.2642 83.657 65.2642C84.1541 65.2642 84.5469 65.3471 84.8352 65.5128C85.1269 65.6752 85.349 65.8608 85.5014 66.0696C85.6572 66.2751 85.7782 66.4441 85.8643 66.5767H85.9638V62.8182H87.1371V73H86.0036V71.8267H85.8643C85.7782 71.9659 85.6555 72.1416 85.4964 72.3537C85.3374 72.5625 85.1103 72.7498 84.8153 72.9155C84.5204 73.0779 84.1276 73.1591 83.6371 73.1591ZM83.7962 72.1051C84.2668 72.1051 84.6645 71.9825 84.9893 71.7372C85.3142 71.4886 85.5611 71.1456 85.7301 70.7081C85.8991 70.2673 85.9837 69.7585 85.9837 69.1818C85.9837 68.6117 85.9008 68.1129 85.7351 67.6854C85.5694 67.2545 85.3241 66.9197 84.9993 66.6811C84.6745 66.4392 84.2734 66.3182 83.7962 66.3182C83.299 66.3182 82.8847 66.4458 82.5533 66.701C82.2251 66.9529 81.9782 67.2959 81.8125 67.7301C81.6501 68.161 81.5689 68.6449 81.5689 69.1818C81.5689 69.7254 81.6518 70.2192 81.8175 70.6634C81.9865 71.1042 82.2351 71.4555 82.5632 71.7173C82.8946 71.9759 83.3056 72.1051 83.7962 72.1051ZM92.7699 65.3636V66.358H88.8125V65.3636H92.7699ZM89.9659 63.5341H91.1392V70.8125C91.1392 71.1439 91.1873 71.3925 91.2834 71.5582C91.3828 71.7206 91.5088 71.83 91.6612 71.8864C91.817 71.9394 91.9811 71.9659 92.1534 71.9659C92.2827 71.9659 92.3887 71.9593 92.4716 71.946C92.5545 71.9295 92.6207 71.9162 92.6705 71.9062L92.9091 72.9602C92.8295 72.9901 92.7185 73.0199 92.576 73.0497C92.4335 73.0829 92.2528 73.0994 92.0341 73.0994C91.7027 73.0994 91.3778 73.0282 91.0597 72.8857C90.7448 72.7431 90.483 72.526 90.2741 72.2344C90.0687 71.9427 89.9659 71.5748 89.9659 71.1307V63.5341ZM95.8722 68.4062V73H94.6989V62.8182H95.8722V66.5568H95.9716C96.1506 66.1624 96.419 65.8492 96.777 65.6172C97.1383 65.3819 97.6188 65.2642 98.2188 65.2642C98.7391 65.2642 99.1948 65.3686 99.5859 65.5774C99.977 65.7829 100.28 66.0994 100.496 66.527C100.714 66.9512 100.824 67.4915 100.824 68.1477V73H99.6506V68.2273C99.6506 67.6207 99.4931 67.1518 99.1783 66.8203C98.8667 66.4856 98.4342 66.3182 97.8807 66.3182C97.4962 66.3182 97.1515 66.3994 96.8466 66.5618C96.545 66.7242 96.3063 66.9612 96.1307 67.2727C95.9583 67.5843 95.8722 67.9621 95.8722 68.4062Z" fill="#6C6C71"/>
<rect x="31" y="33" width="92" height="12" rx="6" fill="url(#paint0_linear_11_171)"/>
<rect x="1" y="3" width="356" height="336" rx="16" fill="url(#paint1_radial_11_171)"/>
<defs>
<linearGradient id="paint0_linear_11_171" x1="31" y1="39" x2="115" y2="39" gradientUnits="userSpaceOnUse">
<stop stop-color="#6C6C71"/>
<stop offset="1" stop-color="#414146"/>
</linearGradient>
<radialGradient id="paint1_radial_11_171" cx="0" cy="0" r="1" gradientUnits="userSpaceOnUse" gradientTransform="translate(347.985 171) rotate(180) scale(341.943 7417.77)">
<stop stop-color="#18181B" stop-opacity="0.5"/>
<stop offset="0.239583" stop-color="#18181B" stop-opacity="0.71"/>
<stop offset="0.505208" stop-color="#18181B"/>
<stop offset="0.756132" stop-color="#18181B" stop-opacity="0.71"/>
<stop offset="1" stop-color="#18181B" stop-opacity="0.5"/>
</radialGradient>
</defs>
</svg>
