<svg width="1169" height="340" viewBox="0 0 1169 340" fill="none" xmlns="http://www.w3.org/2000/svg">
<g filter="url(#filter0_d_1289_51614)">
<rect width="572" height="340" rx="16" fill="white"/>
<rect width="572" height="340" rx="16" stroke="#F2F2F8"/>
</g>
<path opacity="0.5" d="M32.1378 131V130.233L35.0185 127.08C35.3565 126.71 35.6349 126.389 35.8537 126.116C36.0724 125.841 36.2344 125.582 36.3395 125.341C36.4474 125.097 36.5014 124.841 36.5014 124.574C36.5014 124.267 36.4276 124.001 36.2798 123.777C36.1349 123.553 35.9361 123.379 35.6832 123.257C35.4304 123.135 35.1463 123.074 34.831 123.074C34.4957 123.074 34.2031 123.143 33.9531 123.283C33.706 123.419 33.5142 123.611 33.3778 123.858C33.2443 124.105 33.1776 124.395 33.1776 124.727H32.1719C32.1719 124.216 32.2898 123.767 32.5256 123.381C32.7614 122.994 33.0824 122.693 33.4886 122.477C33.8977 122.261 34.3565 122.153 34.8651 122.153C35.3764 122.153 35.8295 122.261 36.2244 122.477C36.6193 122.693 36.929 122.984 37.1534 123.351C37.3778 123.717 37.4901 124.125 37.4901 124.574C37.4901 124.895 37.4318 125.209 37.3153 125.516C37.2017 125.82 37.0028 126.159 36.7188 126.534C36.4375 126.906 36.0469 127.361 35.5469 127.898L33.5866 129.994V130.062H37.6435V131H32.1378ZM42.25 131.119C41.608 131.119 41.0611 130.945 40.6094 130.595C40.1577 130.243 39.8125 129.733 39.5739 129.065C39.3352 128.395 39.2159 127.585 39.2159 126.636C39.2159 125.693 39.3352 124.888 39.5739 124.22C39.8153 123.55 40.1619 123.038 40.6136 122.686C41.0682 122.331 41.6136 122.153 42.25 122.153C42.8864 122.153 43.4304 122.331 43.8821 122.686C44.3366 123.038 44.6832 123.55 44.9219 124.22C45.1634 124.888 45.2841 125.693 45.2841 126.636C45.2841 127.585 45.1648 128.395 44.9261 129.065C44.6875 129.733 44.3423 130.243 43.8906 130.595C43.4389 130.945 42.892 131.119 42.25 131.119ZM42.25 130.182C42.8864 130.182 43.3807 129.875 43.733 129.261C44.0852 128.648 44.2614 127.773 44.2614 126.636C44.2614 125.881 44.1804 125.237 44.0185 124.706C43.8594 124.175 43.6293 123.77 43.3281 123.491C43.0298 123.213 42.6705 123.074 42.25 123.074C41.6193 123.074 41.1264 123.385 40.7713 124.007C40.4162 124.626 40.2386 125.503 40.2386 126.636C40.2386 127.392 40.3182 128.034 40.4773 128.562C40.6364 129.091 40.8651 129.493 41.1634 129.768C41.4645 130.044 41.8267 130.182 42.25 130.182ZM49.75 131.119C49.108 131.119 48.5611 130.945 48.1094 130.595C47.6577 130.243 47.3125 129.733 47.0739 129.065C46.8352 128.395 46.7159 127.585 46.7159 126.636C46.7159 125.693 46.8352 124.888 47.0739 124.22C47.3153 123.55 47.6619 123.038 48.1136 122.686C48.5682 122.331 49.1136 122.153 49.75 122.153C50.3864 122.153 50.9304 122.331 51.3821 122.686C51.8366 123.038 52.1832 123.55 52.4219 124.22C52.6634 124.888 52.7841 125.693 52.7841 126.636C52.7841 127.585 52.6648 128.395 52.4261 129.065C52.1875 129.733 51.8423 130.243 51.3906 130.595C50.9389 130.945 50.392 131.119 49.75 131.119ZM49.75 130.182C50.3864 130.182 50.8807 129.875 51.233 129.261C51.5852 128.648 51.7614 127.773 51.7614 126.636C51.7614 125.881 51.6804 125.237 51.5185 124.706C51.3594 124.175 51.1293 123.77 50.8281 123.491C50.5298 123.213 50.1705 123.074 49.75 123.074C49.1193 123.074 48.6264 123.385 48.2713 124.007C47.9162 124.626 47.7386 125.503 47.7386 126.636C47.7386 127.392 47.8182 128.034 47.9773 128.562C48.1364 129.091 48.3651 129.493 48.6634 129.768C48.9645 130.044 49.3267 130.182 49.75 130.182ZM57.25 131.119C56.608 131.119 56.0611 130.945 55.6094 130.595C55.1577 130.243 54.8125 129.733 54.5739 129.065C54.3352 128.395 54.2159 127.585 54.2159 126.636C54.2159 125.693 54.3352 124.888 54.5739 124.22C54.8153 123.55 55.1619 123.038 55.6136 122.686C56.0682 122.331 56.6136 122.153 57.25 122.153C57.8864 122.153 58.4304 122.331 58.8821 122.686C59.3366 123.038 59.6832 123.55 59.9219 124.22C60.1634 124.888 60.2841 125.693 60.2841 126.636C60.2841 127.585 60.1648 128.395 59.9261 129.065C59.6875 129.733 59.3423 130.243 58.8906 130.595C58.4389 130.945 57.892 131.119 57.25 131.119ZM57.25 130.182C57.8864 130.182 58.3807 129.875 58.733 129.261C59.0852 128.648 59.2614 127.773 59.2614 126.636C59.2614 125.881 59.1804 125.237 59.0185 124.706C58.8594 124.175 58.6293 123.77 58.3281 123.491C58.0298 123.213 57.6705 123.074 57.25 123.074C56.6193 123.074 56.1264 123.385 55.7713 124.007C55.4162 124.626 55.2386 125.503 55.2386 126.636C55.2386 127.392 55.3182 128.034 55.4773 128.562C55.6364 129.091 55.8651 129.493 56.1634 129.768C56.4645 130.044 56.8267 130.182 57.25 130.182Z" fill="#868EA3"/>
<line x1="77" y1="126.75" x2="540" y2="126.75" stroke="#E8E9F0" stroke-width="0.5"/>
<path opacity="0.5" d="M37.0927 159.273V168H36.0359V160.381H35.9847L33.854 161.795V160.722L36.0359 159.273H37.0927ZM42.3299 168.119C41.8299 168.119 41.3796 168.02 40.979 167.821C40.5785 167.622 40.2575 167.349 40.016 167.003C39.7745 166.656 39.6424 166.261 39.6197 165.818H40.6424C40.6822 166.213 40.8612 166.54 41.1793 166.798C41.5004 167.054 41.8839 167.182 42.3299 167.182C42.6879 167.182 43.006 167.098 43.2844 166.93C43.5657 166.763 43.7859 166.533 43.945 166.24C44.1069 165.945 44.1879 165.611 44.1879 165.239C44.1879 164.858 44.104 164.518 43.9364 164.22C43.7717 163.919 43.5444 163.682 43.2546 163.509C42.9648 163.335 42.6339 163.247 42.2617 163.244C41.9947 163.241 41.7205 163.283 41.4393 163.368C41.158 163.45 40.9265 163.557 40.7447 163.688L39.756 163.568L40.2844 159.273H44.8185V160.21H41.1708L40.864 162.784H40.9151C41.0941 162.642 41.3185 162.524 41.5884 162.43C41.8583 162.337 42.1396 162.29 42.4322 162.29C42.9663 162.29 43.4421 162.418 43.8597 162.673C44.2802 162.926 44.6097 163.273 44.8484 163.713C45.0898 164.153 45.2106 164.656 45.2106 165.222C45.2106 165.778 45.0856 166.276 44.8356 166.713C44.5884 167.148 44.2475 167.491 43.8129 167.744C43.3782 167.994 42.8839 168.119 42.3299 168.119ZM49.75 168.119C49.108 168.119 48.5611 167.945 48.1094 167.595C47.6577 167.243 47.3125 166.733 47.0739 166.065C46.8352 165.395 46.7159 164.585 46.7159 163.636C46.7159 162.693 46.8352 161.888 47.0739 161.22C47.3153 160.55 47.6619 160.038 48.1136 159.686C48.5682 159.331 49.1136 159.153 49.75 159.153C50.3864 159.153 50.9304 159.331 51.3821 159.686C51.8366 160.038 52.1832 160.55 52.4219 161.22C52.6634 161.888 52.7841 162.693 52.7841 163.636C52.7841 164.585 52.6648 165.395 52.4261 166.065C52.1875 166.733 51.8423 167.243 51.3906 167.595C50.9389 167.945 50.392 168.119 49.75 168.119ZM49.75 167.182C50.3864 167.182 50.8807 166.875 51.233 166.261C51.5852 165.648 51.7614 164.773 51.7614 163.636C51.7614 162.881 51.6804 162.237 51.5185 161.706C51.3594 161.175 51.1293 160.77 50.8281 160.491C50.5298 160.213 50.1705 160.074 49.75 160.074C49.1193 160.074 48.6264 160.385 48.2713 161.007C47.9162 161.626 47.7386 162.503 47.7386 163.636C47.7386 164.392 47.8182 165.034 47.9773 165.562C48.1364 166.091 48.3651 166.493 48.6634 166.768C48.9645 167.044 49.3267 167.182 49.75 167.182ZM57.25 168.119C56.608 168.119 56.0611 167.945 55.6094 167.595C55.1577 167.243 54.8125 166.733 54.5739 166.065C54.3352 165.395 54.2159 164.585 54.2159 163.636C54.2159 162.693 54.3352 161.888 54.5739 161.22C54.8153 160.55 55.1619 160.038 55.6136 159.686C56.0682 159.331 56.6136 159.153 57.25 159.153C57.8864 159.153 58.4304 159.331 58.8821 159.686C59.3366 160.038 59.6832 160.55 59.9219 161.22C60.1634 161.888 60.2841 162.693 60.2841 163.636C60.2841 164.585 60.1648 165.395 59.9261 166.065C59.6875 166.733 59.3423 167.243 58.8906 167.595C58.4389 167.945 57.892 168.119 57.25 168.119ZM57.25 167.182C57.8864 167.182 58.3807 166.875 58.733 166.261C59.0852 165.648 59.2614 164.773 59.2614 163.636C59.2614 162.881 59.1804 162.237 59.0185 161.706C58.8594 161.175 58.6293 160.77 58.3281 160.491C58.0298 160.213 57.6705 160.074 57.25 160.074C56.6193 160.074 56.1264 160.385 55.7713 161.007C55.4162 161.626 55.2386 162.503 55.2386 163.636C55.2386 164.392 55.3182 165.034 55.4773 165.562C55.6364 166.091 55.8651 166.493 56.1634 166.768C56.4645 167.044 56.8267 167.182 57.25 167.182Z" fill="#868EA3"/>
<line x1="77" y1="163.75" x2="540" y2="163.75" stroke="#E8E9F0" stroke-width="0.5"/>
<path opacity="0.5" d="M36.8935 197.773V206.5H35.8366V198.881H35.7855L33.6548 200.295V199.222L35.8366 197.773H36.8935ZM42.25 206.619C41.608 206.619 41.0611 206.445 40.6094 206.095C40.1577 205.743 39.8125 205.233 39.5739 204.565C39.3352 203.895 39.2159 203.085 39.2159 202.136C39.2159 201.193 39.3352 200.388 39.5739 199.72C39.8153 199.05 40.1619 198.538 40.6136 198.186C41.0682 197.831 41.6136 197.653 42.25 197.653C42.8864 197.653 43.4304 197.831 43.8821 198.186C44.3366 198.538 44.6832 199.05 44.9219 199.72C45.1634 200.388 45.2841 201.193 45.2841 202.136C45.2841 203.085 45.1648 203.895 44.9261 204.565C44.6875 205.233 44.3423 205.743 43.8906 206.095C43.4389 206.445 42.892 206.619 42.25 206.619ZM42.25 205.682C42.8864 205.682 43.3807 205.375 43.733 204.761C44.0852 204.148 44.2614 203.273 44.2614 202.136C44.2614 201.381 44.1804 200.737 44.0185 200.206C43.8594 199.675 43.6293 199.27 43.3281 198.991C43.0298 198.713 42.6705 198.574 42.25 198.574C41.6193 198.574 41.1264 198.885 40.7713 199.507C40.4162 200.126 40.2386 201.003 40.2386 202.136C40.2386 202.892 40.3182 203.534 40.4773 204.062C40.6364 204.591 40.8651 204.993 41.1634 205.268C41.4645 205.544 41.8267 205.682 42.25 205.682ZM49.75 206.619C49.108 206.619 48.5611 206.445 48.1094 206.095C47.6577 205.743 47.3125 205.233 47.0739 204.565C46.8352 203.895 46.7159 203.085 46.7159 202.136C46.7159 201.193 46.8352 200.388 47.0739 199.72C47.3153 199.05 47.6619 198.538 48.1136 198.186C48.5682 197.831 49.1136 197.653 49.75 197.653C50.3864 197.653 50.9304 197.831 51.3821 198.186C51.8366 198.538 52.1832 199.05 52.4219 199.72C52.6634 200.388 52.7841 201.193 52.7841 202.136C52.7841 203.085 52.6648 203.895 52.4261 204.565C52.1875 205.233 51.8423 205.743 51.3906 206.095C50.9389 206.445 50.392 206.619 49.75 206.619ZM49.75 205.682C50.3864 205.682 50.8807 205.375 51.233 204.761C51.5852 204.148 51.7614 203.273 51.7614 202.136C51.7614 201.381 51.6804 200.737 51.5185 200.206C51.3594 199.675 51.1293 199.27 50.8281 198.991C50.5298 198.713 50.1705 198.574 49.75 198.574C49.1193 198.574 48.6264 198.885 48.2713 199.507C47.9162 200.126 47.7386 201.003 47.7386 202.136C47.7386 202.892 47.8182 203.534 47.9773 204.062C48.1364 204.591 48.3651 204.993 48.6634 205.268C48.9645 205.544 49.3267 205.682 49.75 205.682ZM57.25 206.619C56.608 206.619 56.0611 206.445 55.6094 206.095C55.1577 205.743 54.8125 205.233 54.5739 204.565C54.3352 203.895 54.2159 203.085 54.2159 202.136C54.2159 201.193 54.3352 200.388 54.5739 199.72C54.8153 199.05 55.1619 198.538 55.6136 198.186C56.0682 197.831 56.6136 197.653 57.25 197.653C57.8864 197.653 58.4304 197.831 58.8821 198.186C59.3366 198.538 59.6832 199.05 59.9219 199.72C60.1634 200.388 60.2841 201.193 60.2841 202.136C60.2841 203.085 60.1648 203.895 59.9261 204.565C59.6875 205.233 59.3423 205.743 58.8906 206.095C58.4389 206.445 57.892 206.619 57.25 206.619ZM57.25 205.682C57.8864 205.682 58.3807 205.375 58.733 204.761C59.0852 204.148 59.2614 203.273 59.2614 202.136C59.2614 201.381 59.1804 200.737 59.0185 200.206C58.8594 199.675 58.6293 199.27 58.3281 198.991C58.0298 198.713 57.6705 198.574 57.25 198.574C56.6193 198.574 56.1264 198.885 55.7713 199.507C55.4162 200.126 55.2386 201.003 55.2386 202.136C55.2386 202.892 55.3182 203.534 55.4773 204.062C55.6364 204.591 55.8651 204.993 56.1634 205.268C56.4645 205.544 56.8267 205.682 57.25 205.682Z" fill="#868EA3"/>
<line x1="77" y1="202.25" x2="540" y2="202.25" stroke="#E8E9F0" stroke-width="0.5"/>
<path opacity="0.5" d="M42.3299 244.119C41.8299 244.119 41.3796 244.02 40.979 243.821C40.5785 243.622 40.2575 243.349 40.016 243.003C39.7745 242.656 39.6424 242.261 39.6197 241.818H40.6424C40.6822 242.213 40.8612 242.54 41.1793 242.798C41.5004 243.054 41.8839 243.182 42.3299 243.182C42.6879 243.182 43.006 243.098 43.2844 242.93C43.5657 242.763 43.7859 242.533 43.945 242.24C44.1069 241.945 44.1879 241.611 44.1879 241.239C44.1879 240.858 44.104 240.518 43.9364 240.22C43.7717 239.919 43.5444 239.682 43.2546 239.509C42.9648 239.335 42.6339 239.247 42.2617 239.244C41.9947 239.241 41.7205 239.283 41.4393 239.368C41.158 239.45 40.9265 239.557 40.7447 239.688L39.756 239.568L40.2844 235.273H44.8185V236.21H41.1708L40.864 238.784H40.9151C41.0941 238.642 41.3185 238.524 41.5884 238.43C41.8583 238.337 42.1396 238.29 42.4322 238.29C42.9663 238.29 43.4421 238.418 43.8597 238.673C44.2802 238.926 44.6097 239.273 44.8484 239.713C45.0898 240.153 45.2106 240.656 45.2106 241.222C45.2106 241.778 45.0856 242.276 44.8356 242.713C44.5884 243.148 44.2475 243.491 43.8129 243.744C43.3782 243.994 42.8839 244.119 42.3299 244.119ZM49.75 244.119C49.108 244.119 48.5611 243.945 48.1094 243.595C47.6577 243.243 47.3125 242.733 47.0739 242.065C46.8352 241.395 46.7159 240.585 46.7159 239.636C46.7159 238.693 46.8352 237.888 47.0739 237.22C47.3153 236.55 47.6619 236.038 48.1136 235.686C48.5682 235.331 49.1136 235.153 49.75 235.153C50.3864 235.153 50.9304 235.331 51.3821 235.686C51.8366 236.038 52.1832 236.55 52.4219 237.22C52.6634 237.888 52.7841 238.693 52.7841 239.636C52.7841 240.585 52.6648 241.395 52.4261 242.065C52.1875 242.733 51.8423 243.243 51.3906 243.595C50.9389 243.945 50.392 244.119 49.75 244.119ZM49.75 243.182C50.3864 243.182 50.8807 242.875 51.233 242.261C51.5852 241.648 51.7614 240.773 51.7614 239.636C51.7614 238.881 51.6804 238.237 51.5185 237.706C51.3594 237.175 51.1293 236.77 50.8281 236.491C50.5298 236.213 50.1705 236.074 49.75 236.074C49.1193 236.074 48.6264 236.385 48.2713 237.007C47.9162 237.626 47.7386 238.503 47.7386 239.636C47.7386 240.392 47.8182 241.034 47.9773 241.562C48.1364 242.091 48.3651 242.493 48.6634 242.768C48.9645 243.044 49.3267 243.182 49.75 243.182ZM57.25 244.119C56.608 244.119 56.0611 243.945 55.6094 243.595C55.1577 243.243 54.8125 242.733 54.5739 242.065C54.3352 241.395 54.2159 240.585 54.2159 239.636C54.2159 238.693 54.3352 237.888 54.5739 237.22C54.8153 236.55 55.1619 236.038 55.6136 235.686C56.0682 235.331 56.6136 235.153 57.25 235.153C57.8864 235.153 58.4304 235.331 58.8821 235.686C59.3366 236.038 59.6832 236.55 59.9219 237.22C60.1634 237.888 60.2841 238.693 60.2841 239.636C60.2841 240.585 60.1648 241.395 59.9261 242.065C59.6875 242.733 59.3423 243.243 58.8906 243.595C58.4389 243.945 57.892 244.119 57.25 244.119ZM57.25 243.182C57.8864 243.182 58.3807 242.875 58.733 242.261C59.0852 241.648 59.2614 240.773 59.2614 239.636C59.2614 238.881 59.1804 238.237 59.0185 237.706C58.8594 237.175 58.6293 236.77 58.3281 236.491C58.0298 236.213 57.6705 236.074 57.25 236.074C56.6193 236.074 56.1264 236.385 55.7713 237.007C55.4162 237.626 55.2386 238.503 55.2386 239.636C55.2386 240.392 55.3182 241.034 55.4773 241.562C55.6364 242.091 55.8651 242.493 56.1634 242.768C56.4645 243.044 56.8267 243.182 57.25 243.182Z" fill="#868EA3"/>
<line x1="77" y1="239.75" x2="540" y2="239.75" stroke="#E8E9F0" stroke-width="0.5"/>
<path opacity="0.5" d="M57.25 281.119C56.608 281.119 56.0611 280.945 55.6094 280.595C55.1577 280.243 54.8125 279.733 54.5739 279.065C54.3352 278.395 54.2159 277.585 54.2159 276.636C54.2159 275.693 54.3352 274.888 54.5739 274.22C54.8153 273.55 55.1619 273.038 55.6136 272.686C56.0682 272.331 56.6136 272.153 57.25 272.153C57.8864 272.153 58.4304 272.331 58.8821 272.686C59.3366 273.038 59.6832 273.55 59.9219 274.22C60.1634 274.888 60.2841 275.693 60.2841 276.636C60.2841 277.585 60.1648 278.395 59.9261 279.065C59.6875 279.733 59.3423 280.243 58.8906 280.595C58.4389 280.945 57.892 281.119 57.25 281.119ZM57.25 280.182C57.8864 280.182 58.3807 279.875 58.733 279.261C59.0852 278.648 59.2614 277.773 59.2614 276.636C59.2614 275.881 59.1804 275.237 59.0185 274.706C58.8594 274.175 58.6293 273.77 58.3281 273.491C58.0298 273.213 57.6705 273.074 57.25 273.074C56.6193 273.074 56.1264 273.385 55.7713 274.007C55.4162 274.626 55.2386 275.503 55.2386 276.636C55.2386 277.392 55.3182 278.034 55.4773 278.562C55.6364 279.091 55.8651 279.493 56.1634 279.768C56.4645 280.044 56.8267 280.182 57.25 280.182Z" fill="#868EA3"/>
<line x1="77" y1="276.75" x2="540" y2="276.75" stroke="#E8E9F0" stroke-width="0.5"/>
<path d="M77 163.761C77 162.236 78.2363 161 79.7614 161C81.2865 161 82.5229 162.236 82.5229 163.761V277.369H77V163.761Z" fill="#F02E65" fill-opacity="0.4"/>
<path d="M77 219.416C77 217.891 78.2363 216.655 79.7614 216.655C81.2865 216.655 82.5229 217.891 82.5229 219.416V277.369H77V219.416Z" fill="#F02E65"/>
<path d="M92.6484 202.214C92.6484 200.688 93.8848 199.452 95.4099 199.452C96.935 199.452 98.1713 200.688 98.1713 202.214V277.369H92.6484V202.214Z" fill="#F02E65" fill-opacity="0.4"/>
<path d="M92.6484 232.571C92.6484 231.046 93.8848 229.809 95.4099 229.809C96.935 229.809 98.1713 231.046 98.1713 232.571V277.369H92.6484V232.571Z" fill="#F02E65"/>
<path d="M108.296 232.571C108.296 231.046 109.532 229.809 111.057 229.809C112.582 229.809 113.819 231.046 113.819 232.571V277.369H108.296V232.571Z" fill="#F02E65" fill-opacity="0.4"/>
<path d="M108.296 255.845C108.296 254.32 109.532 253.083 111.057 253.083C112.582 253.083 113.819 254.32 113.819 255.845V277.369H108.296V255.845Z" fill="#F02E65"/>
<path d="M123.944 213.345C123.944 211.82 125.181 210.584 126.706 210.584C128.231 210.584 129.467 211.82 129.467 213.345V277.369H123.944V213.345Z" fill="#F02E65" fill-opacity="0.4"/>
<path d="M123.944 237.631C123.944 236.106 125.181 234.869 126.706 234.869C128.231 234.869 129.467 236.106 129.467 237.631V277.369H123.944V237.631Z" fill="#F02E65"/>
<path d="M139.593 182.988C139.593 181.463 140.829 180.227 142.354 180.227C143.879 180.227 145.116 181.463 145.116 182.988V277.37H139.593V182.988Z" fill="#F02E65" fill-opacity="0.4"/>
<path d="M139.593 210.309C139.593 208.784 140.829 207.548 142.354 207.548C143.879 207.548 145.116 208.784 145.116 210.309V277.37H139.593V210.309Z" fill="#F02E65"/>
<path d="M155.24 163.761C155.24 162.236 156.477 161 158.002 161C159.527 161 160.763 162.236 160.763 163.761V277.369H155.24V163.761Z" fill="#F02E65" fill-opacity="0.4"/>
<path d="M155.24 193.107C155.24 191.582 156.477 190.345 158.002 190.345C159.527 190.345 160.763 191.582 160.763 193.107V277.369H155.24V193.107Z" fill="#F02E65"/>
<path d="M170.889 202.214C170.889 200.688 172.125 199.452 173.65 199.452C175.175 199.452 176.412 200.688 176.412 202.214V277.369H170.889V202.214Z" fill="#F02E65" fill-opacity="0.4"/>
<path d="M170.889 227.511C170.889 225.986 172.125 224.75 173.65 224.75C175.175 224.75 176.412 225.986 176.412 227.511V277.369H170.889V227.511Z" fill="#F02E65"/>
<path d="M186.537 232.571C186.537 231.046 187.773 229.809 189.299 229.809C190.824 229.809 192.06 231.046 192.06 232.571V277.369H186.537V232.571Z" fill="#F02E65" fill-opacity="0.4"/>
<path d="M186.537 251.797C186.537 250.272 187.773 249.036 189.299 249.036C190.824 249.036 192.06 250.272 192.06 251.797V277.369H186.537V251.797Z" fill="#F02E65"/>
<path d="M202.185 213.345C202.185 211.82 203.421 210.584 204.946 210.584C206.471 210.584 207.707 211.82 207.707 213.345V277.37H202.185V213.345Z" fill="#F02E65" fill-opacity="0.4"/>
<path d="M202.185 227.511C202.185 225.986 203.421 224.75 204.946 224.75C206.471 224.75 207.707 225.986 207.707 227.511V277.369H202.185V227.511Z" fill="#F02E65"/>
<path d="M217.833 182.988C217.833 181.463 219.069 180.226 220.594 180.226C222.12 180.226 223.356 181.463 223.356 182.988V277.369H217.833V182.988Z" fill="#F02E65" fill-opacity="0.4"/>
<path d="M217.833 210.309C217.833 208.784 219.069 207.548 220.594 207.548C222.12 207.548 223.356 208.784 223.356 210.309V277.369H217.833V210.309Z" fill="#F02E65"/>
<path d="M233.481 202.214C233.481 200.688 234.718 199.452 236.243 199.452C237.768 199.452 239.004 200.688 239.004 202.214V277.369H233.481V202.214Z" fill="#F02E65" fill-opacity="0.4"/>
<path d="M233.481 227.511C233.481 225.986 234.718 224.75 236.243 224.75C237.768 224.75 239.004 225.986 239.004 227.511V277.369H233.481V227.511Z" fill="#F02E65"/>
<path d="M249.129 232.571C249.129 231.046 250.365 229.809 251.89 229.809C253.415 229.809 254.652 231.046 254.652 232.571V277.369H249.129V232.571Z" fill="#F02E65" fill-opacity="0.4"/>
<path d="M249.129 251.797C249.129 250.272 250.365 249.036 251.89 249.036C253.415 249.036 254.652 250.272 254.652 251.797V277.369H249.129V251.797Z" fill="#F02E65"/>
<path d="M264.777 213.345C264.777 211.82 266.014 210.584 267.539 210.584C269.064 210.584 270.3 211.82 270.3 213.345V277.369H264.777V213.345Z" fill="#F02E65" fill-opacity="0.4"/>
<path d="M264.777 232.571C264.777 231.046 266.014 229.809 267.539 229.809C269.064 229.809 270.3 231.046 270.3 232.571V277.369H264.777V232.571Z" fill="#F02E65"/>
<path d="M280.426 182.988C280.426 181.463 281.662 180.227 283.187 180.227C284.712 180.227 285.949 181.463 285.949 182.988V277.37H280.426V182.988Z" fill="#F02E65" fill-opacity="0.4"/>
<path d="M280.426 210.309C280.426 208.784 281.662 207.548 283.187 207.548C284.712 207.548 285.949 208.784 285.949 210.309V277.37H280.426V210.309Z" fill="#F02E65"/>
<path d="M296.073 213.345C296.073 211.82 297.31 210.584 298.835 210.584C300.36 210.584 301.596 211.82 301.596 213.345V277.37H296.073V213.345Z" fill="#F02E65" fill-opacity="0.4"/>
<path d="M296.073 237.631C296.073 236.106 297.31 234.87 298.835 234.87C300.36 234.87 301.596 236.106 301.596 237.631V277.37H296.073V237.631Z" fill="#F02E65"/>
<path d="M311.722 182.988C311.722 181.463 312.958 180.226 314.483 180.226C316.008 180.226 317.245 181.463 317.245 182.988V277.369H311.722V182.988Z" fill="#F02E65" fill-opacity="0.4"/>
<path d="M311.722 210.309C311.722 208.784 312.958 207.548 314.483 207.548C316.008 207.548 317.245 208.784 317.245 210.309V277.369H311.722V210.309Z" fill="#F02E65"/>
<path d="M327.37 213.345C327.37 211.82 328.606 210.584 330.132 210.584C331.657 210.584 332.893 211.82 332.893 213.345V277.37H327.37V213.345Z" fill="#F02E65" fill-opacity="0.4"/>
<path d="M327.37 237.631C327.37 236.106 328.606 234.87 330.132 234.87C331.657 234.87 332.893 236.106 332.893 237.631V277.37H327.37V237.631Z" fill="#F02E65"/>
<path d="M343.018 182.988C343.018 181.463 344.254 180.227 345.779 180.227C347.304 180.227 348.54 181.463 348.54 182.988V277.37H343.018V182.988Z" fill="#F02E65" fill-opacity="0.4"/>
<path d="M343.018 214.357C343.018 212.832 344.254 211.596 345.779 211.596C347.304 211.596 348.54 212.832 348.54 214.357V277.37H343.018V214.357Z" fill="#F02E65"/>
<path d="M359 176.253C359 174.872 360.119 173.753 361.5 173.753C362.881 173.753 364 174.872 364 176.253V277.369H359V176.253Z" fill="#F02E65" fill-opacity="0.4"/>
<path d="M359 210.526C359 209.145 360.119 208.026 361.5 208.026C362.881 208.026 364 209.145 364 210.526V277.369H359V210.526Z" fill="#F02E65"/>
<path d="M374.314 182.988C374.314 181.463 375.551 180.227 377.076 180.227C378.601 180.227 379.837 181.463 379.837 182.988V277.37H374.314V182.988Z" fill="#F02E65" fill-opacity="0.4"/>
<path d="M374.314 213.345C374.314 211.82 375.551 210.584 377.076 210.584C378.601 210.584 379.837 211.82 379.837 213.345V277.369H374.314V213.345Z" fill="#F02E65"/>
<path d="M389.962 213.345C389.962 211.82 391.198 210.584 392.723 210.584C394.248 210.584 395.485 211.82 395.485 213.345V277.37H389.962V213.345Z" fill="#F02E65" fill-opacity="0.4"/>
<path d="M389.962 237.631C389.962 236.106 391.198 234.87 392.723 234.87C394.248 234.87 395.485 236.106 395.485 237.631V277.37H389.962V237.631Z" fill="#F02E65"/>
<path d="M405.61 182.988C405.61 181.463 406.847 180.226 408.372 180.226C409.897 180.226 411.133 181.463 411.133 182.988V277.369H405.61V182.988Z" fill="#F02E65" fill-opacity="0.4"/>
<path d="M405.61 191.083C405.61 189.558 406.847 188.321 408.372 188.321C409.897 188.321 411.133 189.558 411.133 191.083V277.369H405.61V191.083Z" fill="#F02E65"/>
<path d="M421.259 213.345C421.259 211.82 422.495 210.584 424.02 210.584C425.545 210.584 426.782 211.82 426.782 213.345V277.37H421.259V213.345Z" fill="#F02E65" fill-opacity="0.4"/>
<path d="M421.259 235.606C421.259 234.081 422.495 232.845 424.02 232.845C425.545 232.845 426.782 234.081 426.782 235.606V277.369H421.259V235.606Z" fill="#F02E65"/>
<path d="M436.906 235.496C436.906 233.971 438.143 232.734 439.668 232.734C441.193 232.734 442.429 233.971 442.429 235.496V277.369H436.906V235.496Z" fill="#F02E65" fill-opacity="0.4"/>
<path d="M436.906 244.287C436.906 242.762 438.143 241.526 439.668 241.526C441.193 241.526 442.429 242.762 442.429 244.287V277.369H436.906V244.287Z" fill="#F02E65"/>
<path d="M452.555 213.345C452.555 211.82 453.791 210.583 455.316 210.583C456.841 210.583 458.078 211.82 458.078 213.345V277.369H452.555V213.345Z" fill="#F02E65" fill-opacity="0.4"/>
<path d="M452.555 226.499C452.555 224.974 453.791 223.738 455.316 223.738C456.841 223.738 458.078 224.974 458.078 226.499V277.369H452.555V226.499Z" fill="#F02E65"/>
<path d="M469.123 205.208C469.123 203.683 470.36 202.447 471.885 202.447C473.41 202.447 474.646 203.683 474.646 205.208V277.203H469.123V205.208Z" fill="#F02E65" fill-opacity="0.4"/>
<path d="M469.123 219.932C469.123 218.407 470.36 217.171 471.885 217.171C473.41 217.171 474.646 218.407 474.646 219.932V277.203H469.123V219.932Z" fill="#F02E65"/>
<path d="M485.691 213.178C485.691 211.653 486.928 210.417 488.453 210.417C489.978 210.417 491.214 211.653 491.214 213.178V277.203H485.691V213.178Z" fill="#F02E65" fill-opacity="0.4"/>
<path d="M485.691 226.333C485.691 224.808 486.928 223.571 488.453 223.571C489.978 223.571 491.214 224.808 491.214 226.333V277.202H485.691V226.333Z" fill="#F02E65"/>
<path d="M502.261 221.149C502.261 219.624 503.497 218.388 505.022 218.388C506.547 218.388 507.784 219.624 507.784 221.149V277.203H502.261V221.149Z" fill="#F02E65" fill-opacity="0.4"/>
<path d="M502.261 232.733C502.261 231.208 503.497 229.972 505.022 229.972C506.547 229.972 507.784 231.208 507.784 232.733V277.202H502.261V232.733Z" fill="#F02E65"/>
<path d="M518.829 198.832C518.829 197.307 520.065 196.07 521.591 196.07C523.116 196.07 524.352 197.307 524.352 198.832V278H518.829V198.832Z" fill="#F02E65" fill-opacity="0.4"/>
<path d="M518.829 214.969C518.829 213.444 520.065 212.207 521.591 212.207C523.116 212.207 524.352 213.444 524.352 214.969V278H518.829V214.969Z" fill="#F02E65"/>
<path d="M534.478 213.345C534.478 211.82 535.714 210.584 537.239 210.584C538.764 210.584 540 211.82 540 213.345V277.37H534.478V213.345Z" fill="#F02E65" fill-opacity="0.4"/>
<path d="M534.478 226.5C534.478 224.974 535.714 223.738 537.239 223.738C538.764 223.738 540 224.974 540 226.5V277.369H534.478V226.5Z" fill="#F02E65"/>
<g filter="url(#filter1_d_1289_51614)">
<rect x="596" width="572" height="340" rx="16" fill="white" stroke="#F2F2F8"/>
<path opacity="0.5" d="M628.5 130.707V129.838L632.335 123.77H632.966V125.116H632.539L629.642 129.701V129.77H634.806V130.707H628.5ZM632.608 132.497V130.443V130.038V123.77H633.613V132.497H632.608ZM639.25 132.616C638.608 132.616 638.061 132.442 637.609 132.092C637.158 131.74 636.813 131.23 636.574 130.562C636.335 129.892 636.216 129.082 636.216 128.133C636.216 127.19 636.335 126.385 636.574 125.717C636.815 125.047 637.162 124.535 637.614 124.183C638.068 123.828 638.614 123.65 639.25 123.65C639.886 123.65 640.43 123.828 640.882 124.183C641.337 124.535 641.683 125.047 641.922 125.717C642.163 126.385 642.284 127.19 642.284 128.133C642.284 129.082 642.165 129.892 641.926 130.562C641.688 131.23 641.342 131.74 640.891 132.092C640.439 132.442 639.892 132.616 639.25 132.616ZM639.25 131.679C639.886 131.679 640.381 131.372 640.733 130.758C641.085 130.145 641.261 129.27 641.261 128.133C641.261 127.378 641.18 126.734 641.018 126.203C640.859 125.672 640.629 125.267 640.328 124.988C640.03 124.71 639.67 124.571 639.25 124.571C638.619 124.571 638.126 124.882 637.771 125.504C637.416 126.123 637.239 127 637.239 128.133C637.239 128.889 637.318 129.531 637.477 130.059C637.636 130.588 637.865 130.99 638.163 131.265C638.464 131.541 638.827 131.679 639.25 131.679ZM646.75 132.616C646.108 132.616 645.561 132.442 645.109 132.092C644.658 131.74 644.313 131.23 644.074 130.562C643.835 129.892 643.716 129.082 643.716 128.133C643.716 127.19 643.835 126.385 644.074 125.717C644.315 125.047 644.662 124.535 645.114 124.183C645.568 123.828 646.114 123.65 646.75 123.65C647.386 123.65 647.93 123.828 648.382 124.183C648.837 124.535 649.183 125.047 649.422 125.717C649.663 126.385 649.784 127.19 649.784 128.133C649.784 129.082 649.665 129.892 649.426 130.562C649.188 131.23 648.842 131.74 648.391 132.092C647.939 132.442 647.392 132.616 646.75 132.616ZM646.75 131.679C647.386 131.679 647.881 131.372 648.233 130.758C648.585 130.145 648.761 129.27 648.761 128.133C648.761 127.378 648.68 126.734 648.518 126.203C648.359 125.672 648.129 125.267 647.828 124.988C647.53 124.71 647.17 124.571 646.75 124.571C646.119 124.571 645.626 124.882 645.271 125.504C644.916 126.123 644.739 127 644.739 128.133C644.739 128.889 644.818 129.531 644.977 130.059C645.136 130.588 645.365 130.99 645.663 131.265C645.964 131.541 646.327 131.679 646.75 131.679ZM654.25 132.616C653.608 132.616 653.061 132.442 652.609 132.092C652.158 131.74 651.813 131.23 651.574 130.562C651.335 129.892 651.216 129.082 651.216 128.133C651.216 127.19 651.335 126.385 651.574 125.717C651.815 125.047 652.162 124.535 652.614 124.183C653.068 123.828 653.614 123.65 654.25 123.65C654.886 123.65 655.43 123.828 655.882 124.183C656.337 124.535 656.683 125.047 656.922 125.717C657.163 126.385 657.284 127.19 657.284 128.133C657.284 129.082 657.165 129.892 656.926 130.562C656.688 131.23 656.342 131.74 655.891 132.092C655.439 132.442 654.892 132.616 654.25 132.616ZM654.25 131.679C654.886 131.679 655.381 131.372 655.733 130.758C656.085 130.145 656.261 129.27 656.261 128.133C656.261 127.378 656.18 126.734 656.018 126.203C655.859 125.672 655.629 125.267 655.328 124.988C655.03 124.71 654.67 124.571 654.25 124.571C653.619 124.571 653.126 124.882 652.771 125.504C652.416 126.123 652.239 127 652.239 128.133C652.239 128.889 652.318 129.531 652.477 130.059C652.636 130.588 652.865 130.99 653.163 131.265C653.464 131.541 653.827 131.679 654.25 131.679Z" fill="#868EA3"/>
<line x1="674" y1="128.247" x2="1137" y2="128.247" stroke="#E8E9F0" stroke-width="0.5"/>
<path opacity="0.5" d="M631.712 167.886C631.149 167.886 630.648 167.789 630.207 167.596C629.77 167.403 629.422 167.134 629.163 166.791C628.908 166.444 628.768 166.042 628.746 165.585H629.82C629.842 165.866 629.939 166.109 630.109 166.313C630.28 166.515 630.503 166.671 630.778 166.782C631.054 166.893 631.359 166.948 631.695 166.948C632.07 166.948 632.402 166.883 632.692 166.752C632.982 166.622 633.209 166.44 633.374 166.207C633.538 165.974 633.621 165.704 633.621 165.397C633.621 165.076 633.541 164.793 633.382 164.549C633.223 164.302 632.99 164.109 632.683 163.97C632.376 163.83 632.001 163.761 631.558 163.761H630.859V162.823H631.558C631.905 162.823 632.209 162.761 632.47 162.636C632.734 162.511 632.94 162.335 633.088 162.107C633.239 161.88 633.314 161.613 633.314 161.306C633.314 161.011 633.249 160.754 633.118 160.535C632.987 160.316 632.803 160.146 632.564 160.024C632.328 159.901 632.05 159.84 631.729 159.84C631.428 159.84 631.143 159.896 630.876 160.007C630.612 160.114 630.396 160.272 630.229 160.48C630.061 160.684 629.97 160.931 629.956 161.221H628.933C628.95 160.764 629.088 160.363 629.347 160.019C629.605 159.673 629.943 159.403 630.361 159.21C630.781 159.016 631.243 158.92 631.746 158.92C632.286 158.92 632.749 159.029 633.135 159.248C633.521 159.464 633.818 159.749 634.026 160.105C634.233 160.46 634.337 160.843 634.337 161.255C634.337 161.747 634.207 162.166 633.949 162.512C633.693 162.859 633.345 163.099 632.905 163.232V163.301C633.456 163.391 633.886 163.626 634.196 164.004C634.506 164.379 634.661 164.843 634.661 165.397C634.661 165.872 634.531 166.298 634.273 166.676C634.017 167.051 633.668 167.346 633.224 167.562C632.781 167.778 632.277 167.886 631.712 167.886ZM639.25 167.886C638.608 167.886 638.061 167.711 637.609 167.362C637.158 167.009 636.813 166.499 636.574 165.832C636.335 165.161 636.216 164.352 636.216 163.403C636.216 162.46 636.335 161.654 636.574 160.987C636.815 160.316 637.162 159.805 637.614 159.453C638.068 159.097 638.614 158.92 639.25 158.92C639.886 158.92 640.43 159.097 640.882 159.453C641.337 159.805 641.683 160.316 641.922 160.987C642.163 161.654 642.284 162.46 642.284 163.403C642.284 164.352 642.165 165.161 641.926 165.832C641.688 166.499 641.342 167.009 640.891 167.362C640.439 167.711 639.892 167.886 639.25 167.886ZM639.25 166.948C639.886 166.948 640.381 166.641 640.733 166.028C641.085 165.414 641.261 164.539 641.261 163.403C641.261 162.647 641.18 162.004 641.018 161.472C640.859 160.941 640.629 160.536 640.328 160.258C640.03 159.98 639.67 159.84 639.25 159.84C638.619 159.84 638.126 160.151 637.771 160.774C637.416 161.393 637.239 162.269 637.239 163.403C637.239 164.159 637.318 164.801 637.477 165.329C637.636 165.857 637.865 166.259 638.163 166.535C638.464 166.811 638.827 166.948 639.25 166.948ZM646.75 167.886C646.108 167.886 645.561 167.711 645.109 167.362C644.658 167.009 644.313 166.499 644.074 165.832C643.835 165.161 643.716 164.352 643.716 163.403C643.716 162.46 643.835 161.654 644.074 160.987C644.315 160.316 644.662 159.805 645.114 159.453C645.568 159.097 646.114 158.92 646.75 158.92C647.386 158.92 647.93 159.097 648.382 159.453C648.837 159.805 649.183 160.316 649.422 160.987C649.663 161.654 649.784 162.46 649.784 163.403C649.784 164.352 649.665 165.161 649.426 165.832C649.188 166.499 648.842 167.009 648.391 167.362C647.939 167.711 647.392 167.886 646.75 167.886ZM646.75 166.948C647.386 166.948 647.881 166.641 648.233 166.028C648.585 165.414 648.761 164.539 648.761 163.403C648.761 162.647 648.68 162.004 648.518 161.472C648.359 160.941 648.129 160.536 647.828 160.258C647.53 159.98 647.17 159.84 646.75 159.84C646.119 159.84 645.626 160.151 645.271 160.774C644.916 161.393 644.739 162.269 644.739 163.403C644.739 164.159 644.818 164.801 644.977 165.329C645.136 165.857 645.365 166.259 645.663 166.535C645.964 166.811 646.327 166.948 646.75 166.948ZM654.25 167.886C653.608 167.886 653.061 167.711 652.609 167.362C652.158 167.009 651.813 166.499 651.574 165.832C651.335 165.161 651.216 164.352 651.216 163.403C651.216 162.46 651.335 161.654 651.574 160.987C651.815 160.316 652.162 159.805 652.614 159.453C653.068 159.097 653.614 158.92 654.25 158.92C654.886 158.92 655.43 159.097 655.882 159.453C656.337 159.805 656.683 160.316 656.922 160.987C657.163 161.654 657.284 162.46 657.284 163.403C657.284 164.352 657.165 165.161 656.926 165.832C656.688 166.499 656.342 167.009 655.891 167.362C655.439 167.711 654.892 167.886 654.25 167.886ZM654.25 166.948C654.886 166.948 655.381 166.641 655.733 166.028C656.085 165.414 656.261 164.539 656.261 163.403C656.261 162.647 656.18 162.004 656.018 161.472C655.859 160.941 655.629 160.536 655.328 160.258C655.03 159.98 654.67 159.84 654.25 159.84C653.619 159.84 653.126 160.151 652.771 160.774C652.416 161.393 652.239 162.269 652.239 163.403C652.239 164.159 652.318 164.801 652.477 165.329C652.636 165.857 652.865 166.259 653.163 166.535C653.464 166.811 653.827 166.948 654.25 166.948Z" fill="#868EA3"/>
<line x1="674" y1="163.516" x2="1137" y2="163.516" stroke="#E8E9F0" stroke-width="0.5"/>
<path opacity="0.5" d="M629.138 203.964V203.197L632.018 200.044C632.357 199.674 632.635 199.353 632.854 199.08C633.072 198.805 633.234 198.546 633.339 198.305C633.447 198.061 633.501 197.805 633.501 197.538C633.501 197.231 633.428 196.965 633.28 196.741C633.135 196.517 632.936 196.343 632.683 196.221C632.43 196.099 632.146 196.038 631.831 196.038C631.496 196.038 631.203 196.107 630.953 196.247C630.706 196.383 630.514 196.575 630.378 196.822C630.244 197.069 630.178 197.359 630.178 197.691H629.172C629.172 197.18 629.29 196.731 629.526 196.345C629.761 195.958 630.082 195.657 630.489 195.441C630.898 195.225 631.357 195.117 631.865 195.117C632.376 195.117 632.83 195.225 633.224 195.441C633.619 195.657 633.929 195.948 634.153 196.315C634.378 196.681 634.49 197.089 634.49 197.538C634.49 197.859 634.432 198.173 634.315 198.48C634.202 198.784 634.003 199.123 633.719 199.498C633.438 199.87 633.047 200.325 632.547 200.862L630.587 202.958V203.026H634.643V203.964H629.138ZM639.25 204.083C638.608 204.083 638.061 203.909 637.609 203.559C637.158 203.207 636.813 202.697 636.574 202.029C636.335 201.359 636.216 200.549 636.216 199.6C636.216 198.657 636.335 197.852 636.574 197.184C636.815 196.514 637.162 196.002 637.614 195.65C638.068 195.295 638.614 195.117 639.25 195.117C639.886 195.117 640.43 195.295 640.882 195.65C641.337 196.002 641.683 196.514 641.922 197.184C642.163 197.852 642.284 198.657 642.284 199.6C642.284 200.549 642.165 201.359 641.926 202.029C641.688 202.697 641.342 203.207 640.891 203.559C640.439 203.909 639.892 204.083 639.25 204.083ZM639.25 203.146C639.886 203.146 640.381 202.839 640.733 202.225C641.085 201.612 641.261 200.737 641.261 199.6C641.261 198.845 641.18 198.201 641.018 197.67C640.859 197.139 640.629 196.734 640.328 196.455C640.03 196.177 639.67 196.038 639.25 196.038C638.619 196.038 638.126 196.349 637.771 196.971C637.416 197.59 637.239 198.467 637.239 199.6C637.239 200.356 637.318 200.998 637.477 201.526C637.636 202.055 637.865 202.457 638.163 202.732C638.464 203.008 638.827 203.146 639.25 203.146ZM646.75 204.083C646.108 204.083 645.561 203.909 645.109 203.559C644.658 203.207 644.313 202.697 644.074 202.029C643.835 201.359 643.716 200.549 643.716 199.6C643.716 198.657 643.835 197.852 644.074 197.184C644.315 196.514 644.662 196.002 645.114 195.65C645.568 195.295 646.114 195.117 646.75 195.117C647.386 195.117 647.93 195.295 648.382 195.65C648.837 196.002 649.183 196.514 649.422 197.184C649.663 197.852 649.784 198.657 649.784 199.6C649.784 200.549 649.665 201.359 649.426 202.029C649.188 202.697 648.842 203.207 648.391 203.559C647.939 203.909 647.392 204.083 646.75 204.083ZM646.75 203.146C647.386 203.146 647.881 202.839 648.233 202.225C648.585 201.612 648.761 200.737 648.761 199.6C648.761 198.845 648.68 198.201 648.518 197.67C648.359 197.139 648.129 196.734 647.828 196.455C647.53 196.177 647.17 196.038 646.75 196.038C646.119 196.038 645.626 196.349 645.271 196.971C644.916 197.59 644.739 198.467 644.739 199.6C644.739 200.356 644.818 200.998 644.977 201.526C645.136 202.055 645.365 202.457 645.663 202.732C645.964 203.008 646.327 203.146 646.75 203.146ZM654.25 204.083C653.608 204.083 653.061 203.909 652.609 203.559C652.158 203.207 651.813 202.697 651.574 202.029C651.335 201.359 651.216 200.549 651.216 199.6C651.216 198.657 651.335 197.852 651.574 197.184C651.815 196.514 652.162 196.002 652.614 195.65C653.068 195.295 653.614 195.117 654.25 195.117C654.886 195.117 655.43 195.295 655.882 195.65C656.337 196.002 656.683 196.514 656.922 197.184C657.163 197.852 657.284 198.657 657.284 199.6C657.284 200.549 657.165 201.359 656.926 202.029C656.688 202.697 656.342 203.207 655.891 203.559C655.439 203.909 654.892 204.083 654.25 204.083ZM654.25 203.146C654.886 203.146 655.381 202.839 655.733 202.225C656.085 201.612 656.261 200.737 656.261 199.6C656.261 198.845 656.18 198.201 656.018 197.67C655.859 197.139 655.629 196.734 655.328 196.455C655.03 196.177 654.67 196.038 654.25 196.038C653.619 196.038 653.126 196.349 652.771 196.971C652.416 197.59 652.239 198.467 652.239 199.6C652.239 200.356 652.318 200.998 652.477 201.526C652.636 202.055 652.865 202.457 653.163 202.732C653.464 203.008 653.827 203.146 654.25 203.146Z" fill="#868EA3"/>
<line x1="674" y1="199.714" x2="1137" y2="199.714" stroke="#E8E9F0" stroke-width="0.5"/>
<path opacity="0.5" d="M633.893 230.506V239.234H632.837V231.614H632.786L630.655 233.029V231.955L632.837 230.506H633.893ZM639.25 239.353C638.608 239.353 638.061 239.178 637.609 238.829C637.158 238.477 636.813 237.967 636.574 237.299C636.335 236.629 636.216 235.819 636.216 234.87C636.216 233.927 636.335 233.122 636.574 232.454C636.815 231.783 637.162 231.272 637.614 230.92C638.068 230.565 638.614 230.387 639.25 230.387C639.886 230.387 640.43 230.565 640.882 230.92C641.337 231.272 641.683 231.783 641.922 232.454C642.163 233.122 642.284 233.927 642.284 234.87C642.284 235.819 642.165 236.629 641.926 237.299C641.688 237.967 641.342 238.477 640.891 238.829C640.439 239.178 639.892 239.353 639.25 239.353ZM639.25 238.416C639.886 238.416 640.381 238.109 640.733 237.495C641.085 236.881 641.261 236.006 641.261 234.87C641.261 234.114 641.18 233.471 641.018 232.94C640.859 232.408 640.629 232.004 640.328 231.725C640.03 231.447 639.67 231.308 639.25 231.308C638.619 231.308 638.126 231.619 637.771 232.241C637.416 232.86 637.239 233.737 637.239 234.87C637.239 235.626 637.318 236.268 637.477 236.796C637.636 237.325 637.865 237.727 638.163 238.002C638.464 238.278 638.827 238.416 639.25 238.416ZM646.75 239.353C646.108 239.353 645.561 239.178 645.109 238.829C644.658 238.477 644.313 237.967 644.074 237.299C643.835 236.629 643.716 235.819 643.716 234.87C643.716 233.927 643.835 233.122 644.074 232.454C644.315 231.783 644.662 231.272 645.114 230.92C645.568 230.565 646.114 230.387 646.75 230.387C647.386 230.387 647.93 230.565 648.382 230.92C648.837 231.272 649.183 231.783 649.422 232.454C649.663 233.122 649.784 233.927 649.784 234.87C649.784 235.819 649.665 236.629 649.426 237.299C649.188 237.967 648.842 238.477 648.391 238.829C647.939 239.178 647.392 239.353 646.75 239.353ZM646.75 238.416C647.386 238.416 647.881 238.109 648.233 237.495C648.585 236.881 648.761 236.006 648.761 234.87C648.761 234.114 648.68 233.471 648.518 232.94C648.359 232.408 648.129 232.004 647.828 231.725C647.53 231.447 647.17 231.308 646.75 231.308C646.119 231.308 645.626 231.619 645.271 232.241C644.916 232.86 644.739 233.737 644.739 234.87C644.739 235.626 644.818 236.268 644.977 236.796C645.136 237.325 645.365 237.727 645.663 238.002C645.964 238.278 646.327 238.416 646.75 238.416ZM654.25 239.353C653.608 239.353 653.061 239.178 652.609 238.829C652.158 238.477 651.813 237.967 651.574 237.299C651.335 236.629 651.216 235.819 651.216 234.87C651.216 233.927 651.335 233.122 651.574 232.454C651.815 231.783 652.162 231.272 652.614 230.92C653.068 230.565 653.614 230.387 654.25 230.387C654.886 230.387 655.43 230.565 655.882 230.92C656.337 231.272 656.683 231.783 656.922 232.454C657.163 233.122 657.284 233.927 657.284 234.87C657.284 235.819 657.165 236.629 656.926 237.299C656.688 237.967 656.342 238.477 655.891 238.829C655.439 239.178 654.892 239.353 654.25 239.353ZM654.25 238.416C654.886 238.416 655.381 238.109 655.733 237.495C656.085 236.881 656.261 236.006 656.261 234.87C656.261 234.114 656.18 233.471 656.018 232.94C655.859 232.408 655.629 232.004 655.328 231.725C655.03 231.447 654.67 231.308 654.25 231.308C653.619 231.308 653.126 231.619 652.771 232.241C652.416 232.86 652.239 233.737 652.239 234.87C652.239 235.626 652.318 236.268 652.477 236.796C652.636 237.325 652.865 237.727 653.163 238.002C653.464 238.278 653.827 238.416 654.25 238.416Z" fill="#868EA3"/>
<line x1="674" y1="234.984" x2="1137" y2="234.984" stroke="#E8E9F0" stroke-width="0.5"/>
<path opacity="0.5" d="M654.25 274.622C653.608 274.622 653.061 274.448 652.609 274.098C652.158 273.746 651.813 273.236 651.574 272.568C651.335 271.898 651.216 271.088 651.216 270.139C651.216 269.196 651.335 268.391 651.574 267.723C651.815 267.053 652.162 266.541 652.614 266.189C653.068 265.834 653.614 265.656 654.25 265.656C654.886 265.656 655.43 265.834 655.882 266.189C656.337 266.541 656.683 267.053 656.922 267.723C657.163 268.391 657.284 269.196 657.284 270.139C657.284 271.088 657.165 271.898 656.926 272.568C656.688 273.236 656.342 273.746 655.891 274.098C655.439 274.448 654.892 274.622 654.25 274.622ZM654.25 273.685C654.886 273.685 655.381 273.378 655.733 272.764C656.085 272.151 656.261 271.276 656.261 270.139C656.261 269.384 656.18 268.74 656.018 268.209C655.859 267.678 655.629 267.273 655.328 266.995C655.03 266.716 654.67 266.577 654.25 266.577C653.619 266.577 653.126 266.888 652.771 267.51C652.416 268.129 652.239 269.006 652.239 270.139C652.239 270.895 652.318 271.537 652.477 272.066C652.636 272.594 652.865 272.996 653.163 273.272C653.464 273.547 653.827 273.685 654.25 273.685Z" fill="#868EA3"/>
<line x1="674" y1="270.253" x2="1137" y2="270.253" stroke="#E8E9F0" stroke-width="0.5"/>
<g filter="url(#filter2_d_1289_51614)">
<path d="M674.5 271C679.5 264.5 686.5 261.5 696.259 230.884C700.736 216.842 712.887 167.103 730.921 163.565C764.068 157.062 780.154 199.517 806.964 199.517C828.9 199.517 837.858 189.24 855.32 173.025C872.781 156.81 883.576 167.129 889.29 170.077C895.005 173.025 922.944 197.348 941.676 150.545C956.661 113.102 983.36 126.959 995.648 137.278C1008.62 146.122 1040.32 209.133 1061.91 198.519C1083.5 187.905 1122.84 173.025 1136 211.501" stroke="#F02E65"/>
</g>
</g>
<rect x="628" y="32" width="92" height="12" rx="6" fill="url(#paint0_linear_1289_51614)"/>
<rect x="1110" y="32" width="40" height="12" rx="6" fill="url(#paint1_linear_1289_51614)"/>
<path d="M31.3365 72V61.8182H34.8961C35.6054 61.8182 36.1904 61.9408 36.6511 62.1861C37.1118 62.428 37.4548 62.7545 37.6802 63.1655C37.9056 63.5732 38.0183 64.0256 38.0183 64.5227C38.0183 64.9602 37.9404 65.3215 37.7846 65.6065C37.6322 65.8916 37.43 66.117 37.1781 66.2827C36.9295 66.4484 36.6594 66.571 36.3677 66.6506V66.75C36.6793 66.7699 36.9925 66.8793 37.3074 67.0781C37.6222 67.277 37.8857 67.562 38.0978 67.9332C38.31 68.3045 38.416 68.7585 38.416 69.2955C38.416 69.8059 38.3 70.2649 38.068 70.6726C37.836 71.0803 37.4698 71.4034 36.9693 71.642C36.4688 71.8807 35.8175 72 35.0154 72H31.3365ZM32.5694 70.9062H35.0154C35.8208 70.9062 36.3926 70.7505 36.7306 70.4389C37.072 70.1241 37.2427 69.7429 37.2427 69.2955C37.2427 68.9508 37.1549 68.6326 36.9792 68.3409C36.8036 68.0459 36.5533 67.8106 36.2285 67.6349C35.9037 67.456 35.5192 67.3665 35.0751 67.3665H32.5694V70.9062ZM32.5694 66.2926H34.8564C35.2276 66.2926 35.5623 66.2197 35.8606 66.0739C36.1622 65.928 36.4009 65.7225 36.5765 65.4574C36.7555 65.1922 36.845 64.8807 36.845 64.5227C36.845 64.0753 36.6892 63.6958 36.3777 63.3842C36.0661 63.0694 35.5723 62.9119 34.8961 62.9119H32.5694V66.2926ZM42.53 72.179C42.0461 72.179 41.6069 72.0878 41.2125 71.9055C40.8181 71.7199 40.5049 71.4531 40.2729 71.1051C40.0409 70.7538 39.9249 70.3295 39.9249 69.8324C39.9249 69.3949 40.0111 69.0402 40.1834 68.7685C40.3558 68.4934 40.5861 68.2779 40.8745 68.1222C41.1628 67.9664 41.481 67.8504 41.829 67.7741C42.1803 67.6946 42.5333 67.6316 42.888 67.5852C43.352 67.5256 43.7282 67.4808 44.0165 67.451C44.3082 67.4179 44.5203 67.3632 44.6529 67.2869C44.7888 67.2107 44.8567 67.0781 44.8567 66.8892V66.8494C44.8567 66.3589 44.7225 65.9777 44.454 65.706C44.1889 65.4342 43.7862 65.2983 43.2459 65.2983C42.6858 65.2983 42.2466 65.4209 41.9284 65.6662C41.6103 65.9115 41.3865 66.1733 41.2573 66.4517L40.1436 66.054C40.3425 65.59 40.6077 65.2287 40.9391 64.9702C41.2739 64.7083 41.6384 64.526 42.0328 64.4233C42.4306 64.3172 42.8217 64.2642 43.2061 64.2642C43.4514 64.2642 43.7331 64.294 44.0513 64.3537C44.3728 64.41 44.6827 64.5277 44.981 64.7067C45.2826 64.8857 45.5328 65.1558 45.7317 65.517C45.9306 65.8783 46.03 66.3622 46.03 66.9688V72H44.8567V70.9659H44.7971C44.7175 71.1316 44.5849 71.3089 44.3993 71.4979C44.2137 71.6868 43.9668 71.8475 43.6586 71.9801C43.3503 72.1127 42.9741 72.179 42.53 72.179ZM42.709 71.125C43.173 71.125 43.5641 71.0339 43.8823 70.8516C44.2038 70.6693 44.4457 70.4339 44.6081 70.1456C44.7739 69.8572 44.8567 69.554 44.8567 69.2358V68.1619C44.807 68.2216 44.6976 68.2763 44.5286 68.326C44.3629 68.3724 44.1706 68.4138 43.9519 68.4503C43.7364 68.4834 43.526 68.5133 43.3205 68.5398C43.1183 68.563 42.9542 68.5829 42.8283 68.5994C42.5234 68.6392 42.2383 68.7038 41.9732 68.7933C41.7114 68.8795 41.4992 69.0104 41.3368 69.1861C41.1777 69.3584 41.0982 69.5937 41.0982 69.892C41.0982 70.2997 41.249 70.608 41.5506 70.8168C41.8555 71.0223 42.2417 71.125 42.709 71.125ZM49.3448 67.4062V72H48.1715V64.3636H49.305V65.5568H49.4045C49.5835 65.169 49.8552 64.8575 50.2198 64.6222C50.5844 64.3835 51.055 64.2642 51.6317 64.2642C52.1488 64.2642 52.6012 64.3703 52.989 64.5824C53.3768 64.7912 53.6784 65.1094 53.8938 65.5369C54.1093 65.9612 54.217 66.4981 54.217 67.1477V72H53.0437V67.2273C53.0437 66.6274 52.8879 66.16 52.5763 65.8253C52.2648 65.4872 51.8372 65.3182 51.2937 65.3182C50.9192 65.3182 50.5844 65.3994 50.2894 65.5618C49.9978 65.7242 49.7674 65.9612 49.5984 66.2727C49.4293 66.5843 49.3448 66.9621 49.3448 67.4062ZM59.2445 72.1591C58.6081 72.1591 58.0463 71.9983 57.5591 71.6768C57.0719 71.352 56.6908 70.8946 56.4157 70.3047C56.1406 69.7114 56.003 69.0104 56.003 68.2017C56.003 67.3996 56.1406 66.7036 56.4157 66.1136C56.6908 65.5237 57.0736 65.0679 57.5641 64.7464C58.0546 64.425 58.6214 64.2642 59.2644 64.2642C59.7615 64.2642 60.1543 64.3471 60.4426 64.5128C60.7343 64.6752 60.9564 64.8608 61.1088 65.0696C61.2646 65.2751 61.3856 65.4441 61.4718 65.5767H61.5712V61.8182H62.7445V72H61.611V70.8267H61.4718C61.3856 70.9659 61.263 71.1416 61.1039 71.3537C60.9448 71.5625 60.7177 71.7498 60.4228 71.9155C60.1278 72.0779 59.735 72.1591 59.2445 72.1591ZM59.4036 71.1051C59.8742 71.1051 60.272 70.9825 60.5968 70.7372C60.9216 70.4886 61.1685 70.1456 61.3375 69.7081C61.5066 69.2673 61.5911 68.7585 61.5911 68.1818C61.5911 67.6117 61.5082 67.1129 61.3425 66.6854C61.1768 66.2545 60.9315 65.9197 60.6067 65.6811C60.2819 65.4392 59.8809 65.3182 59.4036 65.3182C58.9064 65.3182 58.4921 65.4458 58.1607 65.701C57.8326 65.9529 57.5856 66.2959 57.4199 66.7301C57.2575 67.161 57.1763 67.6449 57.1763 68.1818C57.1763 68.7254 57.2592 69.2192 57.4249 69.6634C57.5939 70.1042 57.8425 70.4555 58.1706 70.7173C58.5021 70.9759 58.9131 71.1051 59.4036 71.1051ZM66.7864 72L64.4597 64.3636H65.6926L67.3432 70.2102H67.4228L69.0534 64.3636H70.3063L71.9171 70.1903H71.9966L73.6472 64.3636H74.8801L72.5534 72H71.4L69.7296 66.1335H69.6103L67.9398 72H66.7864ZM76.4313 72V64.3636H77.6046V72H76.4313ZM77.0279 63.0909C76.7992 63.0909 76.602 63.013 76.4363 62.8572C76.2739 62.7015 76.1926 62.5142 76.1926 62.2955C76.1926 62.0767 76.2739 61.8894 76.4363 61.7337C76.602 61.5779 76.7992 61.5 77.0279 61.5C77.2566 61.5 77.4521 61.5779 77.6145 61.7337C77.7802 61.8894 77.8631 62.0767 77.8631 62.2955C77.8631 62.5142 77.7802 62.7015 77.6145 62.8572C77.4521 63.013 77.2566 63.0909 77.0279 63.0909ZM82.6371 72.1591C82.0007 72.1591 81.4389 71.9983 80.9517 71.6768C80.4645 71.352 80.0833 70.8946 79.8082 70.3047C79.5331 69.7114 79.3956 69.0104 79.3956 68.2017C79.3956 67.3996 79.5331 66.7036 79.8082 66.1136C80.0833 65.5237 80.4661 65.0679 80.9567 64.7464C81.4472 64.425 82.014 64.2642 82.657 64.2642C83.1541 64.2642 83.5469 64.3471 83.8352 64.5128C84.1269 64.6752 84.349 64.8608 84.5014 65.0696C84.6572 65.2751 84.7782 65.4441 84.8643 65.5767H84.9638V61.8182H86.1371V72H85.0036V70.8267H84.8643C84.7782 70.9659 84.6555 71.1416 84.4964 71.3537C84.3374 71.5625 84.1103 71.7498 83.8153 71.9155C83.5204 72.0779 83.1276 72.1591 82.6371 72.1591ZM82.7962 71.1051C83.2668 71.1051 83.6645 70.9825 83.9893 70.7372C84.3142 70.4886 84.5611 70.1456 84.7301 69.7081C84.8991 69.2673 84.9837 68.7585 84.9837 68.1818C84.9837 67.6117 84.9008 67.1129 84.7351 66.6854C84.5694 66.2545 84.3241 65.9197 83.9993 65.6811C83.6745 65.4392 83.2734 65.3182 82.7962 65.3182C82.299 65.3182 81.8847 65.4458 81.5533 65.701C81.2251 65.9529 80.9782 66.2959 80.8125 66.7301C80.6501 67.161 80.5689 67.6449 80.5689 68.1818C80.5689 68.7254 80.6518 69.2192 80.8175 69.6634C80.9865 70.1042 81.2351 70.4555 81.5632 70.7173C81.8946 70.9759 82.3056 71.1051 82.7962 71.1051ZM91.7699 64.3636V65.358H87.8125V64.3636H91.7699ZM88.9659 62.5341H90.1392V69.8125C90.1392 70.1439 90.1873 70.3925 90.2834 70.5582C90.3828 70.7206 90.5088 70.83 90.6612 70.8864C90.817 70.9394 90.9811 70.9659 91.1534 70.9659C91.2827 70.9659 91.3887 70.9593 91.4716 70.946C91.5545 70.9295 91.6207 70.9162 91.6705 70.9062L91.9091 71.9602C91.8295 71.9901 91.7185 72.0199 91.576 72.0497C91.4335 72.0829 91.2528 72.0994 91.0341 72.0994C90.7027 72.0994 90.3778 72.0282 90.0597 71.8857C89.7448 71.7431 89.483 71.526 89.2741 71.2344C89.0687 70.9427 88.9659 70.5748 88.9659 70.1307V62.5341ZM94.8722 67.4062V72H93.6989V61.8182H94.8722V65.5568H94.9716C95.1506 65.1624 95.419 64.8492 95.777 64.6172C96.1383 64.3819 96.6188 64.2642 97.2188 64.2642C97.7391 64.2642 98.1948 64.3686 98.5859 64.5774C98.977 64.7829 99.2803 65.0994 99.4957 65.527C99.7145 65.9512 99.8239 66.4915 99.8239 67.1477V72H98.6506V67.2273C98.6506 66.6207 98.4931 66.1518 98.1783 65.8203C97.8667 65.4856 97.4342 65.3182 96.8807 65.3182C96.4962 65.3182 96.1515 65.3994 95.8466 65.5618C95.545 65.7242 95.3063 65.9612 95.1307 66.2727C94.9583 66.5843 94.8722 66.9621 94.8722 67.4062Z" fill="#616B7C"/>
<path d="M631.526 72V61.8182H634.966C635.762 61.8182 636.415 61.9541 636.925 62.2259C637.435 62.4943 637.813 62.8639 638.059 63.3345C638.304 63.8052 638.426 64.3404 638.426 64.9403C638.426 65.5402 638.304 66.0722 638.059 66.5362C637.813 67.0002 637.437 67.3648 636.93 67.63C636.423 67.8918 635.775 68.0227 634.986 68.0227H632.202V66.9091H634.946C635.49 66.9091 635.927 66.8295 636.259 66.6705C636.594 66.5114 636.836 66.286 636.985 65.9943C637.137 65.6993 637.213 65.348 637.213 64.9403C637.213 64.5327 637.137 64.1764 636.985 63.8714C636.832 63.5665 636.589 63.3312 636.254 63.1655C635.919 62.9964 635.477 62.9119 634.926 62.9119H632.759V72H631.526ZM636.319 67.4261L638.824 72H637.392L634.926 67.4261H636.319ZM643.442 72.1591C642.706 72.1591 642.071 71.9967 641.537 71.6719C641.007 71.3438 640.598 70.8864 640.309 70.2997C640.024 69.7098 639.882 69.0237 639.882 68.2415C639.882 67.4593 640.024 66.7699 640.309 66.1733C640.598 65.5734 640.999 65.1061 641.513 64.7713C642.03 64.4332 642.633 64.2642 643.322 64.2642C643.72 64.2642 644.113 64.3305 644.501 64.4631C644.888 64.5956 645.241 64.8111 645.559 65.1094C645.878 65.4044 646.131 65.7955 646.32 66.2827C646.509 66.7699 646.604 67.3698 646.604 68.0824V68.5795H640.717V67.5653H645.41C645.41 67.1345 645.324 66.75 645.152 66.4119C644.983 66.0739 644.741 65.8071 644.426 65.6115C644.114 65.416 643.747 65.3182 643.322 65.3182C642.855 65.3182 642.451 65.4342 642.109 65.6662C641.771 65.8949 641.511 66.1932 641.329 66.5611C641.146 66.929 641.055 67.3234 641.055 67.7443V68.4205C641.055 68.9972 641.155 69.486 641.354 69.8871C641.556 70.2848 641.836 70.5881 642.194 70.7969C642.552 71.0024 642.968 71.1051 643.442 71.1051C643.75 71.1051 644.028 71.062 644.277 70.9759C644.529 70.8864 644.746 70.7538 644.928 70.5781C645.11 70.3991 645.251 70.1771 645.351 69.9119L646.484 70.2301C646.365 70.6146 646.164 70.9527 645.883 71.2443C645.601 71.5327 645.253 71.758 644.839 71.9205C644.424 72.0795 643.959 72.1591 643.442 72.1591ZM653.599 74.8636V70.8267H653.499C653.413 70.9659 653.29 71.1416 653.131 71.3537C652.972 71.5625 652.745 71.7498 652.45 71.9155C652.155 72.0779 651.762 72.1591 651.272 72.1591C650.635 72.1591 650.074 71.9983 649.586 71.6768C649.099 71.352 648.718 70.8946 648.443 70.3047C648.168 69.7114 648.03 69.0104 648.03 68.2017C648.03 67.3996 648.168 66.7036 648.443 66.1136C648.718 65.5237 649.101 65.0679 649.591 64.7464C650.082 64.425 650.649 64.2642 651.292 64.2642C651.789 64.2642 652.182 64.3471 652.47 64.5128C652.762 64.6752 652.984 64.8608 653.136 65.0696C653.292 65.2751 653.413 65.4441 653.499 65.5767H653.638V64.3636H654.772V74.8636H653.599ZM651.431 71.1051C651.902 71.1051 652.299 70.9825 652.624 70.7372C652.949 70.4886 653.196 70.1456 653.365 69.7081C653.534 69.2673 653.618 68.7585 653.618 68.1818C653.618 67.6117 653.536 67.1129 653.37 66.6854C653.204 66.2545 652.959 65.9197 652.634 65.6811C652.309 65.4392 651.908 65.3182 651.431 65.3182C650.934 65.3182 650.519 65.4458 650.188 65.701C649.86 65.9529 649.613 66.2959 649.447 66.7301C649.285 67.161 649.204 67.6449 649.204 68.1818C649.204 68.7254 649.287 69.2192 649.452 69.6634C649.621 70.1042 649.87 70.4555 650.198 70.7173C650.529 70.9759 650.94 71.1051 651.431 71.1051ZM661.732 68.8778V64.3636H662.905V72H661.732V70.7074H661.653C661.474 71.0952 661.195 71.425 660.817 71.6967C660.439 71.9652 659.962 72.0994 659.385 72.0994C658.908 72.0994 658.484 71.995 658.113 71.7862C657.742 71.5741 657.45 71.2559 657.238 70.8317C657.026 70.4041 656.92 69.8655 656.92 69.2159V64.3636H658.093V69.1364C658.093 69.6932 658.249 70.1373 658.56 70.4688C658.875 70.8002 659.276 70.9659 659.763 70.9659C660.055 70.9659 660.352 70.8913 660.653 70.7422C660.958 70.593 661.213 70.3643 661.419 70.0561C661.628 69.7479 661.732 69.3551 661.732 68.8778ZM668.256 72.1591C667.52 72.1591 666.886 71.9967 666.352 71.6719C665.822 71.3438 665.412 70.8864 665.124 70.2997C664.839 69.7098 664.696 69.0237 664.696 68.2415C664.696 67.4593 664.839 66.7699 665.124 66.1733C665.412 65.5734 665.813 65.1061 666.327 64.7713C666.844 64.4332 667.447 64.2642 668.137 64.2642C668.534 64.2642 668.927 64.3305 669.315 64.4631C669.703 64.5956 670.056 64.8111 670.374 65.1094C670.692 65.4044 670.946 65.7955 671.135 66.2827C671.324 66.7699 671.418 67.3698 671.418 68.0824V68.5795H665.532V67.5653H670.225C670.225 67.1345 670.139 66.75 669.966 66.4119C669.797 66.0739 669.555 65.8071 669.24 65.6115C668.929 65.416 668.561 65.3182 668.137 65.3182C667.669 65.3182 667.265 65.4342 666.924 65.6662C666.586 65.8949 666.325 66.1932 666.143 66.5611C665.961 66.929 665.87 67.3234 665.87 67.7443V68.4205C665.87 68.9972 665.969 69.486 666.168 69.8871C666.37 70.2848 666.65 70.5881 667.008 70.7969C667.366 71.0024 667.782 71.1051 668.256 71.1051C668.564 71.1051 668.843 71.062 669.091 70.9759C669.343 70.8864 669.56 70.7538 669.743 70.5781C669.925 70.3991 670.066 70.1771 670.165 69.9119L671.299 70.2301C671.179 70.6146 670.979 70.9527 670.697 71.2443C670.415 71.5327 670.067 71.758 669.653 71.9205C669.239 72.0795 668.773 72.1591 668.256 72.1591ZM678.612 66.0739L677.558 66.3722C677.492 66.1965 677.394 66.0258 677.265 65.8601C677.139 65.6911 676.966 65.5518 676.748 65.4425C676.529 65.3331 676.249 65.2784 675.907 65.2784C675.44 65.2784 675.051 65.3861 674.739 65.6016C674.431 65.8137 674.277 66.0838 674.277 66.4119C674.277 66.7036 674.383 66.9339 674.595 67.103C674.807 67.272 675.138 67.4129 675.589 67.5256L676.723 67.804C677.405 67.9697 677.914 68.2232 678.249 68.5646C678.584 68.9027 678.751 69.3385 678.751 69.8722C678.751 70.3097 678.625 70.7008 678.373 71.0455C678.125 71.3902 677.777 71.6619 677.329 71.8608C676.882 72.0597 676.361 72.1591 675.768 72.1591C674.989 72.1591 674.345 71.9901 673.834 71.652C673.324 71.3139 673.001 70.8201 672.865 70.1705L673.978 69.892C674.084 70.303 674.285 70.6113 674.58 70.8168C674.878 71.0223 675.268 71.125 675.748 71.125C676.295 71.125 676.729 71.009 677.051 70.777C677.376 70.5417 677.538 70.2599 677.538 69.9318C677.538 69.6667 677.445 69.4446 677.26 69.2656C677.074 69.0833 676.789 68.9474 676.404 68.858L675.132 68.5597C674.432 68.3939 673.919 68.1371 673.591 67.7891C673.266 67.4377 673.103 66.9986 673.103 66.4716C673.103 66.0407 673.224 65.6596 673.466 65.3281C673.712 64.9967 674.045 64.7365 674.466 64.5476C674.89 64.3587 675.37 64.2642 675.907 64.2642C676.663 64.2642 677.256 64.4299 677.687 64.7614C678.121 65.0928 678.43 65.5303 678.612 66.0739ZM683.838 64.3636V65.358H679.881V64.3636H683.838ZM681.034 62.5341H682.208V69.8125C682.208 70.1439 682.256 70.3925 682.352 70.5582C682.451 70.7206 682.577 70.83 682.73 70.8864C682.885 70.9394 683.049 70.9659 683.222 70.9659C683.351 70.9659 683.457 70.9593 683.54 70.946C683.623 70.9295 683.689 70.9162 683.739 70.9062L683.977 71.9602C683.898 71.9901 683.787 72.0199 683.644 72.0497C683.502 72.0829 683.321 72.0994 683.102 72.0994C682.771 72.0994 682.446 72.0282 682.128 71.8857C681.813 71.7431 681.551 71.526 681.343 71.2344C681.137 70.9427 681.034 70.5748 681.034 70.1307V62.5341ZM690.876 66.0739L689.822 66.3722C689.755 66.1965 689.657 66.0258 689.528 65.8601C689.402 65.6911 689.23 65.5518 689.011 65.4425C688.792 65.3331 688.512 65.2784 688.171 65.2784C687.704 65.2784 687.314 65.3861 687.003 65.6016C686.694 65.8137 686.54 66.0838 686.54 66.4119C686.54 66.7036 686.646 66.9339 686.858 67.103C687.071 67.272 687.402 67.4129 687.853 67.5256L688.986 67.804C689.669 67.9697 690.178 68.2232 690.513 68.5646C690.847 68.9027 691.015 69.3385 691.015 69.8722C691.015 70.3097 690.889 70.7008 690.637 71.0455C690.388 71.3902 690.04 71.6619 689.593 71.8608C689.145 72.0597 688.625 72.1591 688.032 72.1591C687.253 72.1591 686.608 71.9901 686.098 71.652C685.587 71.3139 685.264 70.8201 685.128 70.1705L686.242 69.892C686.348 70.303 686.549 70.6113 686.844 70.8168C687.142 71.0223 687.531 71.125 688.012 71.125C688.559 71.125 688.993 71.009 689.314 70.777C689.639 70.5417 689.802 70.2599 689.802 69.9318C689.802 69.6667 689.709 69.4446 689.523 69.2656C689.338 69.0833 689.053 68.9474 688.668 68.858L687.395 68.5597C686.696 68.3939 686.182 68.1371 685.854 67.7891C685.529 67.4377 685.367 66.9986 685.367 66.4716C685.367 66.0407 685.488 65.6596 685.73 65.3281C685.975 64.9967 686.308 64.7365 686.729 64.5476C687.153 64.3587 687.634 64.2642 688.171 64.2642C688.927 64.2642 689.52 64.4299 689.951 64.7614C690.385 65.0928 690.693 65.5303 690.876 66.0739Z" fill="#616B7C"/>
<rect x="30" y="32" width="92" height="12" rx="6" fill="url(#paint2_linear_1289_51614)"/>
<rect x="512" y="32" width="40" height="12" rx="6" fill="url(#paint3_linear_1289_51614)"/>
<rect x="0.5" y="0.5" width="1167" height="339" rx="15.5" fill="url(#paint4_radial_1289_51614)" stroke="#F2F2F8"/>
<defs>
<filter id="filter0_d_1289_51614" x="-32.5" y="-16.5" width="637" height="405" filterUnits="userSpaceOnUse" color-interpolation-filters="sRGB">
<feFlood flood-opacity="0" result="BackgroundImageFix"/>
<feColorMatrix in="SourceAlpha" type="matrix" values="0 0 0 0 0 0 0 0 0 0 0 0 0 0 0 0 0 0 127 0" result="hardAlpha"/>
<feOffset dy="16"/>
<feGaussianBlur stdDeviation="16"/>
<feColorMatrix type="matrix" values="0 0 0 0 0.215686 0 0 0 0 0.231373 0 0 0 0 0.301961 0 0 0 0.02 0"/>
<feBlend mode="normal" in2="BackgroundImageFix" result="effect1_dropShadow_1289_51614"/>
<feBlend mode="normal" in="SourceGraphic" in2="effect1_dropShadow_1289_51614" result="shape"/>
</filter>
<filter id="filter1_d_1289_51614" x="563.5" y="-16.5" width="637.393" height="405" filterUnits="userSpaceOnUse" color-interpolation-filters="sRGB">
<feFlood flood-opacity="0" result="BackgroundImageFix"/>
<feColorMatrix in="SourceAlpha" type="matrix" values="0 0 0 0 0 0 0 0 0 0 0 0 0 0 0 0 0 0 127 0" result="hardAlpha"/>
<feOffset dy="16"/>
<feGaussianBlur stdDeviation="16"/>
<feColorMatrix type="matrix" values="0 0 0 0 0.215686 0 0 0 0 0.231373 0 0 0 0 0.301961 0 0 0 0.02 0"/>
<feBlend mode="normal" in2="BackgroundImageFix" result="effect1_dropShadow_1289_51614"/>
<feBlend mode="normal" in="SourceGraphic" in2="effect1_dropShadow_1289_51614" result="shape"/>
</filter>
<filter id="filter2_d_1289_51614" x="636.104" y="102.5" width="538.369" height="221.805" filterUnits="userSpaceOnUse" color-interpolation-filters="sRGB">
<feFlood flood-opacity="0" result="BackgroundImageFix"/>
<feColorMatrix in="SourceAlpha" type="matrix" values="0 0 0 0 0 0 0 0 0 0 0 0 0 0 0 0 0 0 127 0" result="hardAlpha"/>
<feOffset dy="15"/>
<feGaussianBlur stdDeviation="19"/>
<feComposite in2="hardAlpha" operator="out"/>
<feColorMatrix type="matrix" values="0 0 0 0 0.941176 0 0 0 0 0.180392 0 0 0 0 0.396078 0 0 0 1 0"/>
<feBlend mode="normal" in2="BackgroundImageFix" result="effect1_dropShadow_1289_51614"/>
<feBlend mode="normal" in="SourceGraphic" in2="effect1_dropShadow_1289_51614" result="shape"/>
</filter>
<linearGradient id="paint0_linear_1289_51614" x1="628" y1="38" x2="712" y2="38" gradientUnits="userSpaceOnUse">
<stop stop-color="#E8E9F0"/>
<stop offset="1" stop-color="#E8E9F0" stop-opacity="0"/>
</linearGradient>
<linearGradient id="paint1_linear_1289_51614" x1="1107" y1="39" x2="1150" y2="39.5" gradientUnits="userSpaceOnUse">
<stop stop-color="#E8E9F0"/>
<stop offset="1" stop-color="#E8E9F0" stop-opacity="0"/>
</linearGradient>
<linearGradient id="paint2_linear_1289_51614" x1="30" y1="38" x2="114" y2="38" gradientUnits="userSpaceOnUse">
<stop stop-color="#E8E9F0"/>
<stop offset="1" stop-color="#E8E9F0" stop-opacity="0"/>
</linearGradient>
<linearGradient id="paint3_linear_1289_51614" x1="509" y1="39" x2="552" y2="39.5" gradientUnits="userSpaceOnUse">
<stop stop-color="#E8E9F0"/>
<stop offset="1" stop-color="#E8E9F0" stop-opacity="0"/>
</linearGradient>
<radialGradient id="paint4_radial_1289_51614" cx="0" cy="0" r="1" gradientUnits="userSpaceOnUse" gradientTransform="translate(1138.42 170) rotate(180) scale(1121.88 7506.07)">
<stop stop-color="#FCFCFF" stop-opacity="0.5"/>
<stop offset="0.220284" stop-color="white" stop-opacity="0.9"/>
<stop offset="0.489583" stop-color="white"/>
<stop offset="0.756132" stop-color="white" stop-opacity="0.9"/>
<stop offset="0.926183" stop-color="#FDFDFF" stop-opacity="0.621077"/>
<stop offset="1" stop-color="#FCFCFF" stop-opacity="0.5"/>
</radialGradient>
</defs>
</svg>
