<svg width="67" height="71" viewBox="0 0 67 71" fill="none" xmlns="http://www.w3.org/2000/svg">
    <g filter="url(#filter0_bd_6526_8437)">
        <rect x="5.30487" y="1.70477" width="56.439" height="56.439" rx="10" fill="white" fill-opacity="0.04" shape-rendering="crispEdges"/>
        <rect x="4.80487" y="1.20477" width="57.439" height="57.439" rx="10.5" stroke="#232325" stroke-opacity="0.9" shape-rendering="crispEdges"/>
        <rect x="4.80487" y="1.20477" width="57.439" height="57.439" rx="10.5" stroke="url(#paint0_linear_6526_8437)" stroke-opacity="0.16" shape-rendering="crispEdges"/>
    </g>
    <g filter="url(#filter1_d_6526_8437)">
        <mask id="path-3-inside-1_6526_8437" fill="white">
            <path d="M8.30507 12.3847C8.30507 7.96642 11.8868 4.3847 16.3051 4.3847H50.982C55.4003 4.3847 58.982 7.96643 58.982 12.3847V47.0617C58.982 51.4799 55.4003 55.0617 50.982 55.0617H16.3051C11.8868 55.0617 8.30507 51.4799 8.30507 47.0617V12.3847Z"/>
        </mask>
        <path d="M8.30507 12.3847C8.30507 7.96642 11.8868 4.3847 16.3051 4.3847H50.982C55.4003 4.3847 58.982 7.96643 58.982 12.3847V47.0617C58.982 51.4799 55.4003 55.0617 50.982 55.0617H16.3051C11.8868 55.0617 8.30507 51.4799 8.30507 47.0617V12.3847Z" fill="#1D1D21"/>
        <path d="M16.3051 5.3847H50.982V3.3847H16.3051V5.3847ZM57.982 12.3847V47.0617H59.982V12.3847H57.982ZM50.982 54.0617H16.3051V56.0617H50.982V54.0617ZM9.30507 47.0617V12.3847H7.30507V47.0617H9.30507ZM16.3051 54.0617C12.4391 54.0617 9.30507 50.9277 9.30507 47.0617H7.30507C7.30507 52.0322 11.3345 56.0617 16.3051 56.0617V54.0617ZM57.982 47.0617C57.982 50.9277 54.848 54.0617 50.982 54.0617V56.0617C55.9526 56.0617 59.982 52.0322 59.982 47.0617H57.982ZM50.982 5.3847C54.848 5.3847 57.982 8.51871 57.982 12.3847H59.982C59.982 7.41414 55.9526 3.3847 50.982 3.3847V5.3847ZM16.3051 3.3847C11.3345 3.3847 7.30507 7.41414 7.30507 12.3847H9.30507C9.30507 8.51871 12.4391 5.3847 16.3051 5.3847V3.3847Z" fill="#232325" fill-opacity="0.9" mask="url(#path-3-inside-1_6526_8437)"/>
        <path d="M16.3051 5.3847H50.982V3.3847H16.3051V5.3847ZM57.982 12.3847V47.0617H59.982V12.3847H57.982ZM50.982 54.0617H16.3051V56.0617H50.982V54.0617ZM9.30507 47.0617V12.3847H7.30507V47.0617H9.30507ZM16.3051 54.0617C12.4391 54.0617 9.30507 50.9277 9.30507 47.0617H7.30507C7.30507 52.0322 11.3345 56.0617 16.3051 56.0617V54.0617ZM57.982 47.0617C57.982 50.9277 54.848 54.0617 50.982 54.0617V56.0617C55.9526 56.0617 59.982 52.0322 59.982 47.0617H57.982ZM50.982 5.3847C54.848 5.3847 57.982 8.51871 57.982 12.3847H59.982C59.982 7.41414 55.9526 3.3847 50.982 3.3847V5.3847ZM16.3051 3.3847C11.3345 3.3847 7.30507 7.41414 7.30507 12.3847H9.30507C9.30507 8.51871 12.4391 5.3847 16.3051 5.3847V3.3847Z" fill="url(#paint1_linear_6526_8437)" fill-opacity="0.16" mask="url(#path-3-inside-1_6526_8437)"/>
    </g>
    <path d="M41.349 35.371C41.0438 36.0697 40.6825 36.7129 40.2639 37.3043C39.6933 38.1104 39.2261 38.6684 38.8661 38.9783C38.308 39.4869 37.71 39.7474 37.0697 39.7622C36.61 39.7622 36.0556 39.6326 35.4103 39.3696C34.7629 39.1079 34.1679 38.9783 33.6238 38.9783C33.0533 38.9783 32.4413 39.1079 31.7868 39.3696C31.1313 39.6326 30.6032 39.7696 30.1994 39.7832C29.5854 39.8091 28.9733 39.5412 28.3624 38.9783C27.9725 38.6413 27.4847 38.0635 26.9005 37.245C26.2736 36.371 25.7582 35.3574 25.3544 34.2019C24.922 32.9538 24.7053 31.7452 24.7053 30.5751C24.7053 29.2347 24.9975 28.0787 25.5829 27.11C26.043 26.3319 26.655 25.7181 27.4211 25.2675C28.1871 24.8169 29.0148 24.5872 29.9062 24.5725C30.3939 24.5725 31.0335 24.722 31.8283 25.0159C32.6209 25.3107 33.1298 25.4602 33.3529 25.4602C33.5197 25.4602 34.085 25.2854 35.0434 24.9369C35.9497 24.6137 36.7146 24.4798 37.3413 24.5325C39.0393 24.6683 40.315 25.3317 41.1633 26.5267C39.6447 27.4385 38.8935 28.7156 38.9085 30.354C38.9222 31.6301 39.3893 32.6921 40.3075 33.5352C40.7236 33.9266 41.1883 34.229 41.7053 34.4439C41.5931 34.7661 41.4748 35.0747 41.349 35.371ZM37.4546 20.185C37.4546 21.1853 37.0859 22.1192 36.3509 22.9836C35.4639 24.0112 34.391 24.605 33.2276 24.5113C33.2127 24.3913 33.2041 24.265 33.2041 24.1323C33.2041 23.1721 33.626 22.1445 34.3751 21.3043C34.749 20.8788 35.2247 20.5251 35.8015 20.2429C36.377 19.965 36.9214 19.8112 37.4335 19.7849C37.4484 19.9186 37.4546 20.0524 37.4546 20.185V20.185Z" fill="#97979B"/>
    <defs>
        <filter id="filter0_bd_6526_8437" x="0.14487" y="-3.45523" width="66.759" height="68.839" filterUnits="userSpaceOnUse" color-interpolation-filters="sRGB">
            <feFlood flood-opacity="0" result="BackgroundImageFix"/>
            <feGaussianBlur in="BackgroundImageFix" stdDeviation="2.08"/>
            <feComposite in2="SourceAlpha" operator="in" result="effect1_backgroundBlur_6526_8437"/>
            <feColorMatrix in="SourceAlpha" type="matrix" values="0 0 0 0 0 0 0 0 0 0 0 0 0 0 0 0 0 0 127 0" result="hardAlpha"/>
            <feOffset dy="3.12"/>
            <feGaussianBlur stdDeviation="1.56"/>
            <feComposite in2="hardAlpha" operator="out"/>
            <feColorMatrix type="matrix" values="0 0 0 0 0 0 0 0 0 0 0 0 0 0 0 0 0 0 0.24 0"/>
            <feBlend mode="normal" in2="effect1_backgroundBlur_6526_8437" result="effect2_dropShadow_6526_8437"/>
            <feBlend mode="normal" in="SourceGraphic" in2="effect2_dropShadow_6526_8437" result="shape"/>
        </filter>
        <filter id="filter1_d_6526_8437" x="0.817069" y="4.3847" width="65.653" height="65.6529" filterUnits="userSpaceOnUse" color-interpolation-filters="sRGB">
            <feFlood flood-opacity="0" result="BackgroundImageFix"/>
            <feColorMatrix in="SourceAlpha" type="matrix" values="0 0 0 0 0 0 0 0 0 0 0 0 0 0 0 0 0 0 127 0" result="hardAlpha"/>
            <feOffset dy="7.488"/>
            <feGaussianBlur stdDeviation="3.744"/>
            <feComposite in2="hardAlpha" operator="out"/>
            <feColorMatrix type="matrix" values="0 0 0 0 0 0 0 0 0 0 0 0 0 0 0 0 0 0 0.03 0"/>
            <feBlend mode="normal" in2="BackgroundImageFix" result="effect1_dropShadow_6526_8437"/>
            <feBlend mode="normal" in="SourceGraphic" in2="effect1_dropShadow_6526_8437" result="shape"/>
        </filter>
        <linearGradient id="paint0_linear_6526_8437" x1="61.7439" y1="58.1438" x2="5.30487" y2="1.70477" gradientUnits="userSpaceOnUse">
            <stop stop-color="white" stop-opacity="0.4"/>
            <stop offset="1" stop-color="white" stop-opacity="0.02"/>
        </linearGradient>
        <linearGradient id="paint1_linear_6526_8437" x1="58.982" y1="55.0617" x2="8.30507" y2="4.3847" gradientUnits="userSpaceOnUse">
            <stop stop-color="white" stop-opacity="0.4"/>
            <stop offset="1" stop-color="white" stop-opacity="0.02"/>
        </linearGradient>
    </defs>
</svg>
