<svg width="248" height="148" viewBox="0 0 248 148" fill="none" xmlns="http://www.w3.org/2000/svg">
<path d="M0 4.00003C0 1.79089 1.79086 3.05176e-05 4 3.05176e-05H244C246.209 3.05176e-05 248 1.79089 248 4.00003V144C248 146.209 246.209 148 244 148H4C1.79086 148 0 146.209 0 144V4.00003Z" fill="white"/>
<g filter="url(#filter0_f_2454_59346)">
<path d="M100.53 77.783C77.0199 77.7172 57.9614 71.2987 57.9614 63.4469C57.9614 55.595 77.0199 49.2832 100.53 49.349C124.04 49.4148 143.098 55.8333 143.098 63.6851C143.098 71.5369 124.04 77.8487 100.53 77.783Z" fill="url(#paint0_radial_2454_59346)" fill-opacity="0.16"/>
</g>
<g filter="url(#filter1_f_2454_59346)">
<path d="M124.206 90.8689C82.3368 90.7517 48.3954 74.2219 48.3954 53.9485C48.3954 33.6751 82.3368 17.3353 124.206 17.4524C166.074 17.5696 200.016 34.0994 200.016 54.3728C200.016 74.6462 166.074 90.986 124.206 90.8689Z" fill="url(#paint1_radial_2454_59346)" fill-opacity="0.1"/>
</g>
<g filter="url(#filter2_f_2454_59346)">
<path d="M50.3719 45.3954C50.7789 54.1804 81.5696 59.6599 79.5161 62.4613C77.4627 65.2627 48.5736 72.0393 44.2326 65.3616C39.8915 58.6839 42.9326 24.7439 44.9861 21.9425C47.0395 19.1411 46.0309 38.7177 50.3719 45.3954Z" fill="url(#paint2_radial_2454_59346)" fill-opacity="0.2"/>
</g>
<g filter="url(#filter3_f_2454_59346)">
<path d="M53.6776 79.0324C42.517 72.7499 41.8364 56.117 52.1573 41.8816C62.4783 27.6463 79.8926 21.1992 91.0532 27.4816C102.214 33.7641 102.894 50.397 92.5734 64.6324C82.2525 78.8677 64.8382 85.3148 53.6776 79.0324Z" fill="url(#paint3_radial_2454_59346)" fill-opacity="0.08"/>
</g>
<path d="M124.55 68.4V92C124.55 98.6274 119.177 104 112.55 104H93.7499C86.2388 104 80.1499 110.089 80.1499 117.6V123.6" stroke="#EDEDF0"/>
<path d="M169 123.6V117.6C169 110.089 162.911 104 155.4 104H136.6C129.973 104 124.6 98.6274 124.6 92V86.2" stroke="#EDEDF0"/>
<mask id="path-8-outside-1_2454_59346" maskUnits="userSpaceOnUse" x="65" y="45.5" width="118" height="30" fill="black">
<rect fill="white" x="65" y="45.5" width="118" height="30"/>
<path d="M66 59.3C66 54.8196 66 52.5794 66.8719 50.8681C67.6389 49.3628 68.8628 48.139 70.3681 47.372C72.0794 46.5 74.3196 46.5 78.8 46.5H169.2C173.68 46.5 175.921 46.5 177.632 47.372C179.137 48.139 180.361 49.3628 181.128 50.8681C182 52.5794 182 54.8196 182 59.3V61.7C182 66.1805 182 68.4207 181.128 70.132C180.361 71.6373 179.137 72.8611 177.632 73.6281C175.921 74.5 173.68 74.5 169.2 74.5H78.8C74.3196 74.5 72.0794 74.5 70.3681 73.6281C68.8628 72.8611 67.6389 71.6373 66.8719 70.132C66 68.4207 66 66.1805 66 61.7V59.3Z"/>
</mask>
<path d="M66 59.3C66 54.8196 66 52.5794 66.8719 50.8681C67.6389 49.3628 68.8628 48.139 70.3681 47.372C72.0794 46.5 74.3196 46.5 78.8 46.5H169.2C173.68 46.5 175.921 46.5 177.632 47.372C179.137 48.139 180.361 49.3628 181.128 50.8681C182 52.5794 182 54.8196 182 59.3V61.7C182 66.1805 182 68.4207 181.128 70.132C180.361 71.6373 179.137 72.8611 177.632 73.6281C175.921 74.5 173.68 74.5 169.2 74.5H78.8C74.3196 74.5 72.0794 74.5 70.3681 73.6281C68.8628 72.8611 67.6389 71.6373 66.8719 70.132C66 68.4207 66 66.1805 66 61.7V59.3Z" fill="white"/>
<path d="M70.3681 73.6281L69.9141 74.5191L70.3681 73.6281ZM181.128 70.132L180.237 69.678L181.128 70.132ZM177.632 73.6281L177.178 72.7371L177.632 73.6281ZM177.632 47.372L178.086 46.481L177.632 47.372ZM181.128 50.8681L182.019 50.4141L181.128 50.8681ZM70.3681 47.372L69.9141 46.481L70.3681 47.372ZM66.8719 50.8681L65.9809 50.4141L66.8719 50.8681ZM78.8 47.5H169.2V45.5H78.8V47.5ZM181 59.3V61.7H183V59.3H181ZM169.2 73.5H78.8V75.5H169.2V73.5ZM67 61.7V59.3H65V61.7H67ZM78.8 73.5C76.5433 73.5 74.9109 73.4993 73.627 73.3944C72.3549 73.2904 71.5132 73.0892 70.8221 72.7371L69.9141 74.5191C70.9342 75.0389 72.0683 75.2737 73.4642 75.3877C74.8484 75.5008 76.5763 75.5 78.8 75.5V73.5ZM65 61.7C65 63.9237 64.9992 65.6517 65.1123 67.0358C65.2264 68.4317 65.4612 69.5658 65.9809 70.5859L67.763 69.678C67.4108 68.9868 67.2096 68.1452 67.1057 66.873C67.0008 65.5891 67 63.9567 67 61.7H65ZM70.8221 72.7371C69.5049 72.066 68.4341 70.9951 67.763 69.678L65.9809 70.5859C66.8438 72.2794 68.2206 73.6562 69.9141 74.5191L70.8221 72.7371ZM181 61.7C181 63.9567 180.999 65.5891 180.894 66.873C180.79 68.1452 180.589 68.9868 180.237 69.678L182.019 70.5859C182.539 69.5658 182.774 68.4317 182.888 67.0358C183.001 65.6517 183 63.9237 183 61.7H181ZM169.2 75.5C171.424 75.5 173.152 75.5008 174.536 75.3877C175.932 75.2737 177.066 75.0389 178.086 74.5191L177.178 72.7371C176.487 73.0892 175.645 73.2904 174.373 73.3944C173.089 73.4993 171.457 73.5 169.2 73.5V75.5ZM180.237 69.678C179.566 70.9951 178.495 72.066 177.178 72.7371L178.086 74.5191C179.779 73.6562 181.156 72.2794 182.019 70.5859L180.237 69.678ZM169.2 47.5C171.457 47.5 173.089 47.5008 174.373 47.6057C175.645 47.7096 176.487 47.9108 177.178 48.263L178.086 46.481C177.066 45.9612 175.932 45.7264 174.536 45.6123C173.152 45.4993 171.424 45.5 169.2 45.5V47.5ZM183 59.3C183 57.0763 183.001 55.3484 182.888 53.9642C182.774 52.5684 182.539 51.4342 182.019 50.4141L180.237 51.3221C180.589 52.0133 180.79 52.8549 180.894 54.1271C180.999 55.4109 181 57.0433 181 59.3H183ZM177.178 48.263C178.495 48.9341 179.566 50.005 180.237 51.3221L182.019 50.4141C181.156 48.7207 179.779 47.3438 178.086 46.481L177.178 48.263ZM78.8 45.5C76.5763 45.5 74.8484 45.4993 73.4642 45.6123C72.0683 45.7264 70.9342 45.9612 69.9141 46.481L70.8221 48.263C71.5132 47.9108 72.3549 47.7096 73.627 47.6057C74.9109 47.5008 76.5433 47.5 78.8 47.5V45.5ZM67 59.3C67 57.0433 67.0008 55.4109 67.1057 54.1271C67.2096 52.8549 67.4108 52.0133 67.763 51.3221L65.9809 50.4141C65.4612 51.4342 65.2264 52.5684 65.1123 53.9642C64.9992 55.3484 65 57.0763 65 59.3H67ZM69.9141 46.481C68.2206 47.3438 66.8438 48.7207 65.9809 50.4141L67.763 51.3221C68.4341 50.005 69.5049 48.9341 70.8221 48.263L69.9141 46.481Z" fill="url(#paint4_linear_2454_59346)" mask="url(#path-8-outside-1_2454_59346)"/>
<path d="M70.3681 73.6281L69.9141 74.5191L70.3681 73.6281ZM181.128 70.132L180.237 69.678L181.128 70.132ZM177.632 73.6281L177.178 72.7371L177.632 73.6281ZM177.632 47.372L178.086 46.481L177.632 47.372ZM181.128 50.8681L182.019 50.4141L181.128 50.8681ZM70.3681 47.372L69.9141 46.481L70.3681 47.372ZM66.8719 50.8681L65.9809 50.4141L66.8719 50.8681ZM78.8 47.5H169.2V45.5H78.8V47.5ZM181 59.3V61.7H183V59.3H181ZM169.2 73.5H78.8V75.5H169.2V73.5ZM67 61.7V59.3H65V61.7H67ZM78.8 73.5C76.5433 73.5 74.9109 73.4993 73.627 73.3944C72.3549 73.2904 71.5132 73.0892 70.8221 72.7371L69.9141 74.5191C70.9342 75.0389 72.0683 75.2737 73.4642 75.3877C74.8484 75.5008 76.5763 75.5 78.8 75.5V73.5ZM65 61.7C65 63.9237 64.9992 65.6517 65.1123 67.0358C65.2264 68.4317 65.4612 69.5658 65.9809 70.5859L67.763 69.678C67.4108 68.9868 67.2096 68.1452 67.1057 66.873C67.0008 65.5891 67 63.9567 67 61.7H65ZM70.8221 72.7371C69.5049 72.066 68.4341 70.9951 67.763 69.678L65.9809 70.5859C66.8438 72.2794 68.2206 73.6562 69.9141 74.5191L70.8221 72.7371ZM181 61.7C181 63.9567 180.999 65.5891 180.894 66.873C180.79 68.1452 180.589 68.9868 180.237 69.678L182.019 70.5859C182.539 69.5658 182.774 68.4317 182.888 67.0358C183.001 65.6517 183 63.9237 183 61.7H181ZM169.2 75.5C171.424 75.5 173.152 75.5008 174.536 75.3877C175.932 75.2737 177.066 75.0389 178.086 74.5191L177.178 72.7371C176.487 73.0892 175.645 73.2904 174.373 73.3944C173.089 73.4993 171.457 73.5 169.2 73.5V75.5ZM180.237 69.678C179.566 70.9951 178.495 72.066 177.178 72.7371L178.086 74.5191C179.779 73.6562 181.156 72.2794 182.019 70.5859L180.237 69.678ZM169.2 47.5C171.457 47.5 173.089 47.5008 174.373 47.6057C175.645 47.7096 176.487 47.9108 177.178 48.263L178.086 46.481C177.066 45.9612 175.932 45.7264 174.536 45.6123C173.152 45.4993 171.424 45.5 169.2 45.5V47.5ZM183 59.3C183 57.0763 183.001 55.3484 182.888 53.9642C182.774 52.5684 182.539 51.4342 182.019 50.4141L180.237 51.3221C180.589 52.0133 180.79 52.8549 180.894 54.1271C180.999 55.4109 181 57.0433 181 59.3H183ZM177.178 48.263C178.495 48.9341 179.566 50.005 180.237 51.3221L182.019 50.4141C181.156 48.7207 179.779 47.3438 178.086 46.481L177.178 48.263ZM78.8 45.5C76.5763 45.5 74.8484 45.4993 73.4642 45.6123C72.0683 45.7264 70.9342 45.9612 69.9141 46.481L70.8221 48.263C71.5132 47.9108 72.3549 47.7096 73.627 47.6057C74.9109 47.5008 76.5433 47.5 78.8 47.5V45.5ZM67 59.3C67 57.0433 67.0008 55.4109 67.1057 54.1271C67.2096 52.8549 67.4108 52.0133 67.763 51.3221L65.9809 50.4141C65.4612 51.4342 65.2264 52.5684 65.1123 53.9642C64.9992 55.3484 65 57.0763 65 59.3H67ZM69.9141 46.481C68.2206 47.3438 66.8438 48.7207 65.9809 50.4141L67.763 51.3221C68.4341 50.005 69.5049 48.9341 70.8221 48.263L69.9141 46.481Z" fill="url(#paint5_linear_2454_59346)" fill-opacity="0.6" mask="url(#path-8-outside-1_2454_59346)"/>
<path d="M82.2074 58.6108H80.8778C80.8267 58.3267 80.7315 58.0767 80.5923 57.8608C80.4531 57.6449 80.2827 57.4617 80.081 57.3111C79.8793 57.1605 79.6534 57.0469 79.4034 56.9702C79.1563 56.8935 78.8935 56.8551 78.6151 56.8551C78.1122 56.8551 77.6619 56.9816 77.2642 57.2344C76.8693 57.4872 76.5568 57.858 76.3267 58.3466C76.0994 58.8353 75.9858 59.4318 75.9858 60.1364C75.9858 60.8466 76.0994 61.4461 76.3267 61.9347C76.5568 62.4233 76.8707 62.7926 77.2685 63.0426C77.6662 63.2926 78.1136 63.4176 78.6108 63.4176C78.8864 63.4176 79.1477 63.3807 79.3949 63.3068C79.6449 63.2301 79.8707 63.1179 80.0724 62.9702C80.2741 62.8225 80.4446 62.6421 80.5838 62.429C80.7259 62.2131 80.8239 61.9659 80.8778 61.6875L82.2074 61.6918C82.1364 62.1208 81.9986 62.5157 81.794 62.8765C81.5923 63.2344 81.3324 63.5441 81.0142 63.8054C80.6989 64.064 80.3381 64.2642 79.9318 64.4063C79.5256 64.5483 79.0824 64.6193 78.6023 64.6193C77.8466 64.6193 77.1733 64.4404 76.5824 64.0824C75.9915 63.7216 75.5256 63.206 75.1847 62.5355C74.8466 61.8651 74.6776 61.0654 74.6776 60.1364C74.6776 59.2046 74.848 58.4049 75.1889 57.7372C75.5298 57.0668 75.9957 56.5526 76.5866 56.1946C77.1776 55.8338 77.8494 55.6534 78.6023 55.6534C79.0653 55.6534 79.4972 55.7202 79.8977 55.8537C80.3011 55.9844 80.6634 56.1776 80.9844 56.4333C81.3054 56.6861 81.571 56.9958 81.7812 57.3622C81.9915 57.7259 82.1335 58.1421 82.2074 58.6108ZM86.3179 64.6321C85.7042 64.6321 85.1687 64.4915 84.7113 64.2103C84.2539 63.929 83.8988 63.5355 83.646 63.0299C83.3931 62.5242 83.2667 61.9333 83.2667 61.2571C83.2667 60.5782 83.3931 59.9844 83.646 59.4759C83.8988 58.9674 84.2539 58.5725 84.7113 58.2912C85.1687 58.01 85.7042 57.8693 86.3179 57.8693C86.9315 57.8693 87.467 58.01 87.9244 58.2912C88.3818 58.5725 88.7369 58.9674 88.9897 59.4759C89.2426 59.9844 89.369 60.5782 89.369 61.2571C89.369 61.9333 89.2426 62.5242 88.9897 63.0299C88.7369 63.5355 88.3818 63.929 87.9244 64.2103C87.467 64.4915 86.9315 64.6321 86.3179 64.6321ZM86.3221 63.5625C86.7198 63.5625 87.0494 63.4574 87.3108 63.2472C87.5721 63.037 87.7653 62.7571 87.8903 62.4077C88.0181 62.0583 88.0821 61.6733 88.0821 61.2529C88.0821 60.8353 88.0181 60.4517 87.8903 60.1023C87.7653 59.75 87.5721 59.4674 87.3108 59.2543C87.0494 59.0412 86.7198 58.9347 86.3221 58.9347C85.9215 58.9347 85.5892 59.0412 85.325 59.2543C85.0636 59.4674 84.869 59.75 84.7412 60.1023C84.6162 60.4517 84.5537 60.8353 84.5537 61.2529C84.5537 61.6733 84.6162 62.0583 84.7412 62.4077C84.869 62.7571 85.0636 63.037 85.325 63.2472C85.5892 63.4574 85.9215 63.5625 86.3221 63.5625ZM91.9454 60.6137V64.5H90.6712V57.9546H91.8942V59.0199H91.9752C92.1258 58.6733 92.3616 58.3949 92.6826 58.1847C93.0064 57.9745 93.4141 57.8693 93.9056 57.8693C94.3516 57.8693 94.7422 57.9631 95.0775 58.1506C95.4127 58.3353 95.6726 58.6108 95.8573 58.9773C96.042 59.3438 96.1343 59.7969 96.1343 60.3367V64.5H94.8601V60.4901C94.8601 60.0157 94.7366 59.6449 94.4894 59.3779C94.2422 59.108 93.9028 58.973 93.4709 58.973C93.1755 58.973 92.9127 59.037 92.6826 59.1648C92.4553 59.2926 92.2749 59.4801 92.1414 59.7273C92.0107 59.9716 91.9454 60.2671 91.9454 60.6137ZM98.9972 60.6137V64.5H97.7231V57.9546H98.9461V59.0199H99.0271C99.1776 58.6733 99.4134 58.3949 99.7345 58.1847C100.058 57.9745 100.466 57.8693 100.957 57.8693C101.403 57.8693 101.794 57.9631 102.129 58.1506C102.465 58.3353 102.725 58.6108 102.909 58.9773C103.094 59.3438 103.186 59.7969 103.186 60.3367V64.5H101.912V60.4901C101.912 60.0157 101.788 59.6449 101.541 59.3779C101.294 59.108 100.955 58.973 100.523 58.973C100.227 58.973 99.9646 59.037 99.7345 59.1648C99.5072 59.2926 99.3268 59.4801 99.1933 59.7273C99.0626 59.9716 98.9972 60.2671 98.9972 60.6137ZM107.596 64.6321C106.951 64.6321 106.396 64.4943 105.93 64.2188C105.467 63.9404 105.109 63.5497 104.856 63.0469C104.606 62.5412 104.481 61.9489 104.481 61.2699C104.481 60.5995 104.606 60.0086 104.856 59.4972C105.109 58.9858 105.461 58.5867 105.913 58.2997C106.367 58.0128 106.899 57.8693 107.507 57.8693C107.876 57.8693 108.234 57.9304 108.58 58.0526C108.927 58.1747 109.238 58.3665 109.514 58.6279C109.789 58.8892 110.007 59.2287 110.166 59.6463C110.325 60.0611 110.404 60.5654 110.404 61.1591V61.6108H105.201V60.6563H109.156C109.156 60.3211 109.087 60.0242 108.951 59.7657C108.815 59.5043 108.623 59.2983 108.376 59.1478C108.132 58.9972 107.845 58.9219 107.515 58.9219C107.157 58.9219 106.845 59.01 106.578 59.1861C106.313 59.3594 106.109 59.5867 105.964 59.8679C105.822 60.1463 105.751 60.4489 105.751 60.7756V61.5213C105.751 61.9588 105.828 62.331 105.981 62.6378C106.137 62.9446 106.355 63.179 106.633 63.3409C106.911 63.5 107.237 63.5796 107.609 63.5796C107.85 63.5796 108.07 63.5455 108.269 63.4773C108.468 63.4063 108.64 63.3012 108.785 63.162C108.93 63.0228 109.041 62.8509 109.117 62.6463L110.323 62.8637C110.227 63.2188 110.053 63.5299 109.803 63.7969C109.556 64.0611 109.245 64.2671 108.87 64.4148C108.498 64.5597 108.073 64.6321 107.596 64.6321ZM114.455 64.6321C113.822 64.6321 113.276 64.4887 112.819 64.2017C112.364 63.912 112.015 63.5128 111.77 63.0043C111.526 62.4958 111.404 61.9134 111.404 61.2571C111.404 60.5924 111.529 60.0057 111.779 59.4972C112.029 58.9858 112.381 58.5867 112.836 58.2997C113.29 58.0128 113.826 57.8693 114.442 57.8693C114.939 57.8693 115.383 57.9617 115.772 58.1463C116.161 58.3282 116.475 58.5838 116.714 58.9134C116.955 59.2429 117.099 59.6279 117.144 60.0682H115.904C115.836 59.7614 115.679 59.4972 115.435 59.2756C115.194 59.054 114.87 58.9432 114.464 58.9432C114.108 58.9432 113.797 59.037 113.53 59.2245C113.266 59.4091 113.06 59.6733 112.912 60.0171C112.765 60.358 112.691 60.7614 112.691 61.2273C112.691 61.7046 112.763 62.1165 112.908 62.4631C113.053 62.8097 113.258 63.0782 113.522 63.2685C113.789 63.4588 114.103 63.554 114.464 63.554C114.705 63.554 114.924 63.51 115.12 63.4219C115.319 63.331 115.485 63.2017 115.618 63.0341C115.755 62.8665 115.85 62.6648 115.904 62.429H117.144C117.099 62.8523 116.961 63.2301 116.731 63.5625C116.5 63.8949 116.192 64.1563 115.806 64.3466C115.422 64.537 114.972 64.6321 114.455 64.6321ZM121.442 57.9546V58.9773H117.867V57.9546H121.442ZM118.825 56.3864H120.1V62.5782C120.1 62.8253 120.137 63.0114 120.21 63.1364C120.284 63.2586 120.379 63.3424 120.496 63.3878C120.615 63.4304 120.744 63.4517 120.884 63.4517C120.986 63.4517 121.075 63.4446 121.152 63.4304C121.229 63.4162 121.289 63.4049 121.331 63.3963L121.561 64.4489C121.487 64.4773 121.382 64.5057 121.246 64.5341C121.11 64.5654 120.939 64.5824 120.735 64.5853C120.399 64.5909 120.087 64.5313 119.797 64.4063C119.507 64.2813 119.273 64.0881 119.094 63.8267C118.915 63.5654 118.825 63.2372 118.825 62.8424V56.3864ZM128.843 57.9546V58.9773H125.267V57.9546H128.843ZM126.226 56.3864H127.5V62.5782C127.5 62.8253 127.537 63.0114 127.611 63.1364C127.685 63.2586 127.78 63.3424 127.897 63.3878C128.016 63.4304 128.145 63.4517 128.284 63.4517C128.387 63.4517 128.476 63.4446 128.553 63.4304C128.629 63.4162 128.689 63.4049 128.732 63.3963L128.962 64.4489C128.888 64.4773 128.783 64.5057 128.647 64.5341C128.51 64.5654 128.34 64.5824 128.135 64.5853C127.8 64.5909 127.487 64.5313 127.198 64.4063C126.908 64.2813 126.674 64.0881 126.495 63.8267C126.316 63.5654 126.226 63.2372 126.226 62.8424V56.3864ZM132.819 64.6321C132.205 64.6321 131.67 64.4915 131.212 64.2103C130.755 63.929 130.4 63.5355 130.147 63.0299C129.894 62.5242 129.768 61.9333 129.768 61.2571C129.768 60.5782 129.894 59.9844 130.147 59.4759C130.4 58.9674 130.755 58.5725 131.212 58.2912C131.67 58.01 132.205 57.8693 132.819 57.8693C133.432 57.8693 133.968 58.01 134.425 58.2912C134.883 58.5725 135.238 58.9674 135.491 59.4759C135.744 59.9844 135.87 60.5782 135.87 61.2571C135.87 61.9333 135.744 62.5242 135.491 63.0299C135.238 63.5355 134.883 63.929 134.425 64.2103C133.968 64.4915 133.432 64.6321 132.819 64.6321ZM132.823 63.5625C133.221 63.5625 133.55 63.4574 133.812 63.2472C134.073 63.037 134.266 62.7571 134.391 62.4077C134.519 62.0583 134.583 61.6733 134.583 61.2529C134.583 60.8353 134.519 60.4517 134.391 60.1023C134.266 59.75 134.073 59.4674 133.812 59.2543C133.55 59.0412 133.221 58.9347 132.823 58.9347C132.422 58.9347 132.09 59.0412 131.826 59.2543C131.565 59.4674 131.37 59.75 131.242 60.1023C131.117 60.4517 131.055 60.8353 131.055 61.2529C131.055 61.6733 131.117 62.0583 131.242 62.4077C131.37 62.7571 131.565 63.037 131.826 63.2472C132.09 63.4574 132.422 63.5625 132.823 63.5625ZM146.236 58.5299C146.154 58.2713 146.043 58.0398 145.904 57.8353C145.768 57.6279 145.604 57.4517 145.414 57.3068C145.224 57.1591 145.006 57.0469 144.762 56.9702C144.521 56.8935 144.255 56.8551 143.965 56.8551C143.474 56.8551 143.03 56.9816 142.636 57.2344C142.241 57.4872 141.928 57.858 141.698 58.3466C141.471 58.8324 141.357 59.4276 141.357 60.1321C141.357 60.8395 141.472 61.4375 141.702 61.9262C141.932 62.4148 142.248 62.7855 142.648 63.0384C143.049 63.2912 143.505 63.4176 144.016 63.4176C144.491 63.4176 144.904 63.3211 145.256 63.1279C145.611 62.9347 145.886 62.662 146.079 62.3097C146.275 61.9546 146.373 61.537 146.373 61.0568L146.714 61.1208H144.217V60.0341H147.647V61.027C147.647 61.76 147.491 62.3963 147.178 62.9361C146.869 63.473 146.44 63.8878 145.891 64.1804C145.346 64.473 144.721 64.6193 144.016 64.6193C143.227 64.6193 142.533 64.4375 141.937 64.0739C141.343 63.7103 140.88 63.1946 140.548 62.527C140.215 61.8566 140.049 61.0611 140.049 60.1407C140.049 59.4446 140.146 58.8196 140.339 58.2657C140.532 57.7117 140.803 57.2415 141.153 56.8551C141.505 56.4659 141.918 56.1691 142.393 55.9645C142.87 55.7571 143.391 55.6534 143.957 55.6534C144.428 55.6534 144.867 55.723 145.273 55.8622C145.682 56.0015 146.046 56.1989 146.364 56.4546C146.685 56.7103 146.951 57.0142 147.161 57.3665C147.371 57.7159 147.513 58.1037 147.587 58.5299H146.236ZM149.506 64.5V57.9546H150.781V64.5H149.506ZM150.15 56.9446C149.928 56.9446 149.738 56.8708 149.579 56.723C149.423 56.5725 149.344 56.3935 149.344 56.1861C149.344 55.9759 149.423 55.7969 149.579 55.6492C149.738 55.4986 149.928 55.4233 150.15 55.4233C150.371 55.4233 150.56 55.4986 150.717 55.6492C150.876 55.7969 150.955 55.9759 150.955 56.1861C150.955 56.3935 150.876 56.5725 150.717 56.723C150.56 56.8708 150.371 56.9446 150.15 56.9446ZM155.43 57.9546V58.9773H151.855V57.9546H155.43ZM152.814 56.3864H154.088V62.5782C154.088 62.8253 154.125 63.0114 154.199 63.1364C154.272 63.2586 154.368 63.3424 154.484 63.3878C154.603 63.4304 154.733 63.4517 154.872 63.4517C154.974 63.4517 155.064 63.4446 155.14 63.4304C155.217 63.4162 155.277 63.4049 155.319 63.3963L155.549 64.4489C155.476 64.4773 155.37 64.5057 155.234 64.5341C155.098 64.5654 154.927 64.5824 154.723 64.5853C154.387 64.5909 154.075 64.5313 153.785 64.4063C153.495 64.2813 153.261 64.0881 153.082 63.8267C152.903 63.5654 152.814 63.2372 152.814 62.8424V56.3864Z" fill="#97979B"/>
<path fill-rule="evenodd" clip-rule="evenodd" d="M162.251 59.8944C161.916 60.2289 161.916 60.7712 162.251 61.1057L167.394 66.2492C167.729 66.5837 168.271 66.5837 168.606 66.2492L173.749 61.1057C174.084 60.7712 174.084 60.2289 173.749 59.8944L168.606 54.7509C168.271 54.4164 167.729 54.4164 167.394 54.7509L162.251 59.8944ZM166 56.3868L166.557 55.8334L168.032 57.3C168.123 57.2719 168.22 57.2568 168.321 57.2568C168.858 57.2568 169.294 57.69 169.294 58.2245C169.294 58.3243 169.279 58.4207 169.251 58.5113L170.727 59.9787C170.821 59.9485 170.922 59.9321 171.027 59.9321C171.564 59.9321 172 60.3653 172 60.8998C172 61.4342 171.564 61.8674 171.027 61.8674C170.489 61.8674 170.053 61.4342 170.053 60.8998C170.053 60.7577 170.084 60.6228 170.139 60.5012L168.765 59.1349V62.6709C169.079 62.8313 169.294 63.1568 169.294 63.5324C169.294 64.0668 168.858 64.5 168.321 64.5C167.783 64.5 167.347 64.0668 167.347 63.5324C167.347 63.1182 167.609 62.7647 167.977 62.6267V59.1301C167.609 58.9921 167.347 58.6387 167.347 58.2245C167.347 58.0786 167.38 57.9402 167.438 57.8162L166 56.3868Z" fill="#56565C"/>
<path d="M124.55 104V123.6" stroke="#EDEDF0"/>
<path d="M124.5 16V40.5" stroke="#EDEDF0"/>
<defs>
<filter id="filter0_f_2454_59346" x="54.3614" y="45.7485" width="92.3367" height="35.635" filterUnits="userSpaceOnUse" color-interpolation-filters="sRGB">
<feFlood flood-opacity="0" result="BackgroundImageFix"/>
<feBlend mode="normal" in="SourceGraphic" in2="BackgroundImageFix" result="shape"/>
<feGaussianBlur stdDeviation="1.8" result="effect1_foregroundBlur_2454_59346"/>
</filter>
<filter id="filter1_f_2454_59346" x="44.7955" y="13.8518" width="158.82" height="80.6177" filterUnits="userSpaceOnUse" color-interpolation-filters="sRGB">
<feFlood flood-opacity="0" result="BackgroundImageFix"/>
<feBlend mode="normal" in="SourceGraphic" in2="BackgroundImageFix" result="shape"/>
<feGaussianBlur stdDeviation="1.8" result="effect1_foregroundBlur_2454_59346"/>
</filter>
<filter id="filter2_f_2454_59346" x="34.822" y="14.4701" width="51.9923" height="60.9422" filterUnits="userSpaceOnUse" color-interpolation-filters="sRGB">
<feFlood flood-opacity="0" result="BackgroundImageFix"/>
<feBlend mode="normal" in="SourceGraphic" in2="BackgroundImageFix" result="shape"/>
<feGaussianBlur stdDeviation="3.6" result="effect1_foregroundBlur_2454_59346"/>
</filter>
<filter id="filter3_f_2454_59346" x="25.6408" y="5.87604" width="93.4493" height="94.7619" filterUnits="userSpaceOnUse" color-interpolation-filters="sRGB">
<feFlood flood-opacity="0" result="BackgroundImageFix"/>
<feBlend mode="normal" in="SourceGraphic" in2="BackgroundImageFix" result="shape"/>
<feGaussianBlur stdDeviation="9.6" result="effect1_foregroundBlur_2454_59346"/>
</filter>
<radialGradient id="paint0_radial_2454_59346" cx="0" cy="0" r="1" gradientUnits="userSpaceOnUse" gradientTransform="translate(78.7671 63.5241) rotate(10.1017) scale(39.838 13.1072)">
<stop stop-color="#F02E65"/>
<stop offset="1" stop-color="#F02E65" stop-opacity="0"/>
</radialGradient>
<radialGradient id="paint1_radial_2454_59346" cx="0" cy="0" r="1" gradientUnits="userSpaceOnUse" gradientTransform="translate(124.206 54.1607) rotate(-179.84) scale(75.8104 36.7081)">
<stop stop-color="#F02E65"/>
<stop offset="1" stop-color="#F02E65" stop-opacity="0"/>
</radialGradient>
<radialGradient id="paint2_radial_2454_59346" cx="0" cy="0" r="1" gradientUnits="userSpaceOnUse" gradientTransform="translate(54.6447 61.4631) rotate(-131.445) scale(15.5361 6.99108)">
<stop stop-color="#FE9567"/>
<stop offset="1" stop-color="#F97066" stop-opacity="0"/>
</radialGradient>
<radialGradient id="paint3_radial_2454_59346" cx="0" cy="0" r="1" gradientUnits="userSpaceOnUse" gradientTransform="translate(62.0092 47.476) rotate(67.3466) scale(24.8685 25.4468)">
<stop stop-color="#F02E65"/>
<stop offset="1" stop-color="#F02E65" stop-opacity="0"/>
</radialGradient>
<linearGradient id="paint4_linear_2454_59346" x1="124" y1="46.5" x2="124" y2="74.5" gradientUnits="userSpaceOnUse">
<stop stop-color="#D8D8DB" stop-opacity="0.24"/>
<stop offset="1" stop-color="#E4E4E7" stop-opacity="0.5"/>
</linearGradient>
<linearGradient id="paint5_linear_2454_59346" x1="203.497" y1="65.5" x2="183.586" y2="163.084" gradientUnits="userSpaceOnUse">
<stop stop-color="#FAFAFB"/>
<stop offset="0.715" stop-color="#FF453A"/>
<stop offset="1" stop-color="#FD366E"/>
</linearGradient>
</defs>
</svg>
